%TF.GenerationSoftware,KiCad,Pcbnew,(5.1.6)-1*%
%TF.CreationDate,2020-10-20T21:54:07+08:00*%
%TF.ProjectId,NRF52840,4e524635-3238-4343-902e-6b696361645f,rev?*%
%TF.SameCoordinates,Original*%
%TF.FileFunction,Copper,L3,Inr*%
%TF.FilePolarity,Positive*%
%FSLAX46Y46*%
G04 Gerber Fmt 4.6, Leading zero omitted, Abs format (unit mm)*
G04 Created by KiCad (PCBNEW (5.1.6)-1) date 2020-10-20 21:54:07*
%MOMM*%
%LPD*%
G01*
G04 APERTURE LIST*
%TA.AperFunction,ViaPad*%
%ADD10C,0.460000*%
%TD*%
%TA.AperFunction,ViaPad*%
%ADD11C,0.600000*%
%TD*%
%TA.AperFunction,Conductor*%
%ADD12C,0.127000*%
%TD*%
%TA.AperFunction,Conductor*%
%ADD13C,0.250000*%
%TD*%
%TA.AperFunction,Conductor*%
%ADD14C,0.150000*%
%TD*%
G04 APERTURE END LIST*
D10*
%TO.N,GND*%
X138343640Y-150876000D03*
D11*
X133464300Y-156100780D03*
X121721720Y-158837640D03*
D10*
X134919720Y-153476960D03*
X127876300Y-150756620D03*
D11*
X121983500Y-150815040D03*
D10*
X128900040Y-153497160D03*
X128902460Y-154297380D03*
X128887220Y-155336240D03*
X128902460Y-156248100D03*
X128938020Y-156972000D03*
X127693420Y-157124400D03*
X126570740Y-157109160D03*
X125491240Y-157116780D03*
X125463300Y-155122880D03*
X127505460Y-153123900D03*
X125425200Y-153121360D03*
X131396601Y-151646215D03*
D11*
X130764280Y-159392620D03*
D10*
X125702060Y-159420560D03*
X127548640Y-155127960D03*
X126563120Y-155117800D03*
X126362460Y-153126440D03*
X137121900Y-153489660D03*
X137121900Y-154289760D03*
X137121900Y-155089860D03*
X137121900Y-155889960D03*
X137121900Y-156690060D03*
X136144000Y-153494740D03*
X136136380Y-154081480D03*
X136144000Y-154719020D03*
X134825740Y-156047440D03*
X134825740Y-156751655D03*
X134825740Y-157455870D03*
X134825740Y-158160085D03*
X134825740Y-158864300D03*
X133957060Y-156728160D03*
X133949440Y-158160720D03*
X135529320Y-159407860D03*
X138877040Y-159123380D03*
%TO.N,+3V3*%
X128226820Y-159420560D03*
X123082870Y-155144918D03*
D11*
X122755660Y-150825200D03*
D10*
X131986020Y-159445960D03*
D11*
X129364740Y-150794720D03*
D10*
%TO.N,Net-(C10-Pad2)*%
X123469400Y-150848060D03*
X134122160Y-153878280D03*
%TO.N,+5V*%
X120990360Y-150870920D03*
X120931940Y-159478980D03*
%TO.N,SWDIO*%
X132891127Y-159221145D03*
%TO.N,SWDCLK*%
X133344920Y-158813500D03*
%TO.N,D-*%
X123388120Y-159390080D03*
X121577100Y-153104932D03*
%TO.N,D+*%
X124445847Y-159447047D03*
X122072858Y-155300053D03*
%TD*%
D12*
%TO.N,Net-(C10-Pad2)*%
X130335441Y-151343781D02*
X126309541Y-151343781D01*
X134122160Y-153878280D02*
X132869940Y-153878280D01*
X125813820Y-150848060D02*
X123469400Y-150848060D01*
X126309541Y-151343781D02*
X125813820Y-150848060D01*
X132869940Y-153878280D02*
X130335441Y-151343781D01*
D13*
%TO.N,D-*%
X121339481Y-157341441D02*
X121339481Y-153342551D01*
X123388120Y-159390080D02*
X121339481Y-157341441D01*
X121339481Y-153342551D02*
X121577100Y-153104932D01*
%TO.N,D+*%
X123883879Y-158885079D02*
X124445847Y-159447047D01*
X122598180Y-157594300D02*
X122598180Y-157599380D01*
X122111058Y-157107178D02*
X122598180Y-157594300D01*
X122598180Y-157599380D02*
X122713750Y-157714950D01*
X122713750Y-157714950D02*
X123883879Y-158885079D01*
X122072858Y-157074058D02*
X122072858Y-155300053D01*
X122713750Y-157714950D02*
X122072858Y-157074058D01*
%TD*%
D14*
%TO.N,+3V3*%
G36*
X122983807Y-150700757D02*
G01*
X122964400Y-150798322D01*
X122964400Y-150897798D01*
X122983807Y-150995363D01*
X123021875Y-151087267D01*
X123077141Y-151169978D01*
X123147482Y-151240319D01*
X123230193Y-151295585D01*
X123322097Y-151333653D01*
X123419662Y-151353060D01*
X123519138Y-151353060D01*
X123616703Y-151333653D01*
X123708607Y-151295585D01*
X123791318Y-151240319D01*
X123845077Y-151186560D01*
X125673610Y-151186560D01*
X126058432Y-151571383D01*
X126069028Y-151584294D01*
X126120571Y-151626595D01*
X126179376Y-151658027D01*
X126223828Y-151671511D01*
X126243183Y-151677382D01*
X126249477Y-151678002D01*
X126292921Y-151682281D01*
X126292928Y-151682281D01*
X126309540Y-151683917D01*
X126326152Y-151682281D01*
X130195231Y-151682281D01*
X132618831Y-154105882D01*
X132629427Y-154118793D01*
X132680970Y-154161094D01*
X132739775Y-154192526D01*
X132803582Y-154211881D01*
X132809331Y-154212447D01*
X132853320Y-154216780D01*
X132853328Y-154216780D01*
X132869940Y-154218416D01*
X132886552Y-154216780D01*
X133746483Y-154216780D01*
X133800242Y-154270539D01*
X133882953Y-154325805D01*
X133974857Y-154363873D01*
X134072422Y-154383280D01*
X134171898Y-154383280D01*
X134269463Y-154363873D01*
X134361367Y-154325805D01*
X134444078Y-154270539D01*
X134514419Y-154200198D01*
X134569685Y-154117487D01*
X134607753Y-154025583D01*
X134627160Y-153928018D01*
X134627160Y-153888835D01*
X134680513Y-153924485D01*
X134772417Y-153962553D01*
X134869982Y-153981960D01*
X134969458Y-153981960D01*
X135067023Y-153962553D01*
X135158927Y-153924485D01*
X135241638Y-153869219D01*
X135311979Y-153798878D01*
X135367245Y-153716167D01*
X135405313Y-153624263D01*
X135424720Y-153526698D01*
X135424720Y-153427222D01*
X135405313Y-153329657D01*
X135367245Y-153237753D01*
X135311979Y-153155042D01*
X135241638Y-153084701D01*
X135158927Y-153029435D01*
X135067023Y-152991367D01*
X134969458Y-152971960D01*
X134869982Y-152971960D01*
X134772417Y-152991367D01*
X134680513Y-153029435D01*
X134597802Y-153084701D01*
X134527461Y-153155042D01*
X134472195Y-153237753D01*
X134434127Y-153329657D01*
X134414720Y-153427222D01*
X134414720Y-153466405D01*
X134361367Y-153430755D01*
X134269463Y-153392687D01*
X134171898Y-153373280D01*
X134072422Y-153373280D01*
X133974857Y-153392687D01*
X133882953Y-153430755D01*
X133800242Y-153486021D01*
X133746483Y-153539780D01*
X133010151Y-153539780D01*
X131585110Y-152114740D01*
X131635808Y-152093740D01*
X131718519Y-152038474D01*
X131788860Y-151968133D01*
X131844126Y-151885422D01*
X131882194Y-151793518D01*
X131901601Y-151695953D01*
X131901601Y-151596477D01*
X131882194Y-151498912D01*
X131844126Y-151407008D01*
X131788860Y-151324297D01*
X131718519Y-151253956D01*
X131635808Y-151198690D01*
X131543904Y-151160622D01*
X131446339Y-151141215D01*
X131346863Y-151141215D01*
X131249298Y-151160622D01*
X131157394Y-151198690D01*
X131074683Y-151253956D01*
X131004342Y-151324297D01*
X130949076Y-151407008D01*
X130928076Y-151457706D01*
X130586554Y-151116184D01*
X130575954Y-151103268D01*
X130524411Y-151060967D01*
X130465606Y-151029535D01*
X130401798Y-151010180D01*
X130352061Y-151005281D01*
X130352053Y-151005281D01*
X130335441Y-151003645D01*
X130318829Y-151005281D01*
X128317508Y-151005281D01*
X128323825Y-150995827D01*
X128361893Y-150903923D01*
X128381300Y-150806358D01*
X128381300Y-150706882D01*
X128364965Y-150624760D01*
X137904155Y-150624760D01*
X137896115Y-150636793D01*
X137858047Y-150728697D01*
X137838640Y-150826262D01*
X137838640Y-150925738D01*
X137858047Y-151023303D01*
X137896115Y-151115207D01*
X137951381Y-151197918D01*
X137980507Y-151227044D01*
X137612114Y-151225217D01*
X137606509Y-151224096D01*
X137591865Y-151222640D01*
X137589957Y-151222826D01*
X137527515Y-151181104D01*
X137333725Y-151100834D01*
X137127998Y-151059912D01*
X136918242Y-151059912D01*
X136712515Y-151100834D01*
X136518725Y-151181104D01*
X136344319Y-151297639D01*
X136195999Y-151445959D01*
X136079464Y-151620365D01*
X135999194Y-151814155D01*
X135958272Y-152019882D01*
X135958272Y-152229638D01*
X135999194Y-152435365D01*
X136079464Y-152629155D01*
X136195999Y-152803561D01*
X136344319Y-152951881D01*
X136518725Y-153068416D01*
X136712515Y-153148686D01*
X136742694Y-153154689D01*
X136729641Y-153167742D01*
X136674375Y-153250453D01*
X136636307Y-153342357D01*
X136632445Y-153361774D01*
X136629593Y-153347437D01*
X136591525Y-153255533D01*
X136536259Y-153172822D01*
X136465918Y-153102481D01*
X136383207Y-153047215D01*
X136291303Y-153009147D01*
X136193738Y-152989740D01*
X136094262Y-152989740D01*
X135996697Y-153009147D01*
X135904793Y-153047215D01*
X135822082Y-153102481D01*
X135751741Y-153172822D01*
X135696475Y-153255533D01*
X135658407Y-153347437D01*
X135639000Y-153445002D01*
X135639000Y-153544478D01*
X135658407Y-153642043D01*
X135696475Y-153733947D01*
X135728856Y-153782408D01*
X135688855Y-153842273D01*
X135650787Y-153934177D01*
X135631380Y-154031742D01*
X135631380Y-154131218D01*
X135650787Y-154228783D01*
X135688855Y-154320687D01*
X135744121Y-154403398D01*
X135746167Y-154405444D01*
X135696475Y-154479813D01*
X135658407Y-154571717D01*
X135639000Y-154669282D01*
X135639000Y-154768758D01*
X135658407Y-154866323D01*
X135696475Y-154958227D01*
X135751741Y-155040938D01*
X135822082Y-155111279D01*
X135904793Y-155166545D01*
X135996697Y-155204613D01*
X136094262Y-155224020D01*
X136193738Y-155224020D01*
X136291303Y-155204613D01*
X136383207Y-155166545D01*
X136465918Y-155111279D01*
X136536259Y-155040938D01*
X136591525Y-154958227D01*
X136629593Y-154866323D01*
X136649000Y-154768758D01*
X136649000Y-154669282D01*
X136629593Y-154571717D01*
X136591525Y-154479813D01*
X136536259Y-154397102D01*
X136534213Y-154395056D01*
X136583905Y-154320687D01*
X136616900Y-154241030D01*
X136616900Y-154339498D01*
X136636307Y-154437063D01*
X136674375Y-154528967D01*
X136729641Y-154611678D01*
X136799982Y-154682019D01*
X136811642Y-154689810D01*
X136799982Y-154697601D01*
X136729641Y-154767942D01*
X136674375Y-154850653D01*
X136636307Y-154942557D01*
X136616900Y-155040122D01*
X136616900Y-155139598D01*
X136636307Y-155237163D01*
X136674375Y-155329067D01*
X136729641Y-155411778D01*
X136799982Y-155482119D01*
X136811642Y-155489910D01*
X136799982Y-155497701D01*
X136729641Y-155568042D01*
X136674375Y-155650753D01*
X136636307Y-155742657D01*
X136616900Y-155840222D01*
X136616900Y-155939698D01*
X136636307Y-156037263D01*
X136674375Y-156129167D01*
X136729641Y-156211878D01*
X136799982Y-156282219D01*
X136811642Y-156290010D01*
X136799982Y-156297801D01*
X136729641Y-156368142D01*
X136674375Y-156450853D01*
X136636307Y-156542757D01*
X136616900Y-156640322D01*
X136616900Y-156739798D01*
X136636307Y-156837363D01*
X136674375Y-156929267D01*
X136729641Y-157011978D01*
X136799982Y-157082319D01*
X136801270Y-157083179D01*
X136712515Y-157100834D01*
X136518725Y-157181104D01*
X136344319Y-157297639D01*
X136195999Y-157445959D01*
X136079464Y-157620365D01*
X135999194Y-157814155D01*
X135958272Y-158019882D01*
X135958272Y-158229638D01*
X135999194Y-158435365D01*
X136079464Y-158629155D01*
X136195999Y-158803561D01*
X136344319Y-158951881D01*
X136518725Y-159068416D01*
X136712515Y-159148686D01*
X136918242Y-159189608D01*
X137127998Y-159189608D01*
X137333725Y-159148686D01*
X137527515Y-159068416D01*
X137701921Y-158951881D01*
X137850241Y-158803561D01*
X137885208Y-158751230D01*
X138529794Y-158756449D01*
X138484781Y-158801462D01*
X138429515Y-158884173D01*
X138391447Y-158976077D01*
X138372040Y-159073642D01*
X138372040Y-159173118D01*
X138391447Y-159270683D01*
X138429515Y-159362587D01*
X138484781Y-159445298D01*
X138555122Y-159515639D01*
X138637833Y-159570905D01*
X138729737Y-159608973D01*
X138809103Y-159624760D01*
X135986085Y-159624760D01*
X136014913Y-159555163D01*
X136034320Y-159457598D01*
X136034320Y-159358122D01*
X136014913Y-159260557D01*
X135976845Y-159168653D01*
X135921579Y-159085942D01*
X135851238Y-159015601D01*
X135768527Y-158960335D01*
X135676623Y-158922267D01*
X135579058Y-158902860D01*
X135479582Y-158902860D01*
X135382017Y-158922267D01*
X135324352Y-158946153D01*
X135330740Y-158914038D01*
X135330740Y-158814562D01*
X135311333Y-158716997D01*
X135273265Y-158625093D01*
X135217999Y-158542382D01*
X135187810Y-158512193D01*
X135217999Y-158482003D01*
X135273265Y-158399292D01*
X135311333Y-158307388D01*
X135330740Y-158209823D01*
X135330740Y-158110347D01*
X135311333Y-158012782D01*
X135273265Y-157920878D01*
X135217999Y-157838167D01*
X135187810Y-157807978D01*
X135217999Y-157777788D01*
X135273265Y-157695077D01*
X135311333Y-157603173D01*
X135330740Y-157505608D01*
X135330740Y-157406132D01*
X135311333Y-157308567D01*
X135273265Y-157216663D01*
X135217999Y-157133952D01*
X135187810Y-157103763D01*
X135217999Y-157073573D01*
X135273265Y-156990862D01*
X135311333Y-156898958D01*
X135330740Y-156801393D01*
X135330740Y-156701917D01*
X135311333Y-156604352D01*
X135273265Y-156512448D01*
X135217999Y-156429737D01*
X135187810Y-156399548D01*
X135217999Y-156369358D01*
X135273265Y-156286647D01*
X135311333Y-156194743D01*
X135330740Y-156097178D01*
X135330740Y-155997702D01*
X135311333Y-155900137D01*
X135273265Y-155808233D01*
X135217999Y-155725522D01*
X135147658Y-155655181D01*
X135064947Y-155599915D01*
X134973043Y-155561847D01*
X134875478Y-155542440D01*
X134776002Y-155542440D01*
X134678437Y-155561847D01*
X134586533Y-155599915D01*
X134503822Y-155655181D01*
X134433481Y-155725522D01*
X134378215Y-155808233D01*
X134340147Y-155900137D01*
X134320740Y-155997702D01*
X134320740Y-156097178D01*
X134340147Y-156194743D01*
X134378215Y-156286647D01*
X134433481Y-156369358D01*
X134463671Y-156399548D01*
X134433481Y-156429737D01*
X134399249Y-156480968D01*
X134349319Y-156406242D01*
X134278978Y-156335901D01*
X134196267Y-156280635D01*
X134104363Y-156242567D01*
X134025483Y-156226877D01*
X134039300Y-156157413D01*
X134039300Y-156044147D01*
X134017203Y-155933059D01*
X133973858Y-155828415D01*
X133910932Y-155734239D01*
X133830841Y-155654148D01*
X133736665Y-155591222D01*
X133632021Y-155547877D01*
X133520933Y-155525780D01*
X133407667Y-155525780D01*
X133296579Y-155547877D01*
X133191935Y-155591222D01*
X133097759Y-155654148D01*
X133017668Y-155734239D01*
X132954742Y-155828415D01*
X132911397Y-155933059D01*
X132889300Y-156044147D01*
X132889300Y-156157413D01*
X132911397Y-156268501D01*
X132954742Y-156373145D01*
X133017668Y-156467321D01*
X133097759Y-156547412D01*
X133191935Y-156610338D01*
X133296579Y-156653683D01*
X133407667Y-156675780D01*
X133452586Y-156675780D01*
X133452060Y-156678422D01*
X133452060Y-156777898D01*
X133471467Y-156875463D01*
X133509535Y-156967367D01*
X133564801Y-157050078D01*
X133635142Y-157120419D01*
X133717853Y-157175685D01*
X133809757Y-157213753D01*
X133907322Y-157233160D01*
X134006798Y-157233160D01*
X134104363Y-157213753D01*
X134196267Y-157175685D01*
X134278978Y-157120419D01*
X134349319Y-157050078D01*
X134383551Y-156998847D01*
X134433481Y-157073573D01*
X134463671Y-157103763D01*
X134433481Y-157133952D01*
X134378215Y-157216663D01*
X134340147Y-157308567D01*
X134320740Y-157406132D01*
X134320740Y-157505608D01*
X134340147Y-157603173D01*
X134378215Y-157695077D01*
X134433481Y-157777788D01*
X134463671Y-157807978D01*
X134433481Y-157838167D01*
X134387378Y-157907165D01*
X134341699Y-157838802D01*
X134271358Y-157768461D01*
X134188647Y-157713195D01*
X134096743Y-157675127D01*
X133999178Y-157655720D01*
X133899702Y-157655720D01*
X133802137Y-157675127D01*
X133710233Y-157713195D01*
X133627522Y-157768461D01*
X133557181Y-157838802D01*
X133501915Y-157921513D01*
X133463847Y-158013417D01*
X133444440Y-158110982D01*
X133444440Y-158210458D01*
X133463847Y-158308023D01*
X133470275Y-158323541D01*
X133394658Y-158308500D01*
X133295182Y-158308500D01*
X133197617Y-158327907D01*
X133105713Y-158365975D01*
X133023002Y-158421241D01*
X132952661Y-158491582D01*
X132897395Y-158574293D01*
X132859327Y-158666197D01*
X132849392Y-158716145D01*
X132841389Y-158716145D01*
X132743824Y-158735552D01*
X132651920Y-158773620D01*
X132569209Y-158828886D01*
X132498868Y-158899227D01*
X132443602Y-158981938D01*
X132405534Y-159073842D01*
X132386127Y-159171407D01*
X132386127Y-159270883D01*
X132405534Y-159368448D01*
X132443602Y-159460352D01*
X132498868Y-159543063D01*
X132569209Y-159613404D01*
X132586204Y-159624760D01*
X131290500Y-159624760D01*
X131317183Y-159560341D01*
X131339280Y-159449253D01*
X131339280Y-159335987D01*
X131317183Y-159224899D01*
X131273838Y-159120255D01*
X131210912Y-159026079D01*
X131130821Y-158945988D01*
X131036645Y-158883062D01*
X130932001Y-158839717D01*
X130820913Y-158817620D01*
X130707647Y-158817620D01*
X130596559Y-158839717D01*
X130491915Y-158883062D01*
X130397739Y-158945988D01*
X130317648Y-159026079D01*
X130254722Y-159120255D01*
X130211377Y-159224899D01*
X130189280Y-159335987D01*
X130189280Y-159449253D01*
X130211377Y-159560341D01*
X130238060Y-159624760D01*
X126164085Y-159624760D01*
X126187653Y-159567863D01*
X126207060Y-159470298D01*
X126207060Y-159370822D01*
X126187653Y-159273257D01*
X126149585Y-159181353D01*
X126094319Y-159098642D01*
X126023978Y-159028301D01*
X125941267Y-158973035D01*
X125849363Y-158934967D01*
X125751798Y-158915560D01*
X125652322Y-158915560D01*
X125554757Y-158934967D01*
X125462853Y-158973035D01*
X125380142Y-159028301D01*
X125309801Y-159098642D01*
X125254535Y-159181353D01*
X125216467Y-159273257D01*
X125197060Y-159370822D01*
X125197060Y-159470298D01*
X125216467Y-159567863D01*
X125240035Y-159624760D01*
X124918844Y-159624760D01*
X124931440Y-159594350D01*
X124950847Y-159496785D01*
X124950847Y-159397309D01*
X124931440Y-159299744D01*
X124893372Y-159207840D01*
X124838106Y-159125129D01*
X124767765Y-159054788D01*
X124685054Y-158999522D01*
X124593150Y-158961454D01*
X124509251Y-158944765D01*
X124180618Y-158616133D01*
X124180614Y-158616128D01*
X123010489Y-157446004D01*
X123010485Y-157445999D01*
X122918163Y-157353677D01*
X122882391Y-157310089D01*
X122867129Y-157297564D01*
X122636607Y-157067042D01*
X124986240Y-157067042D01*
X124986240Y-157166518D01*
X125005647Y-157264083D01*
X125043715Y-157355987D01*
X125098981Y-157438698D01*
X125169322Y-157509039D01*
X125252033Y-157564305D01*
X125343937Y-157602373D01*
X125441502Y-157621780D01*
X125540978Y-157621780D01*
X125638543Y-157602373D01*
X125730447Y-157564305D01*
X125813158Y-157509039D01*
X125883499Y-157438698D01*
X125938765Y-157355987D01*
X125976833Y-157264083D01*
X125996240Y-157166518D01*
X125996240Y-157067042D01*
X125994725Y-157059422D01*
X126065740Y-157059422D01*
X126065740Y-157158898D01*
X126085147Y-157256463D01*
X126123215Y-157348367D01*
X126178481Y-157431078D01*
X126248822Y-157501419D01*
X126331533Y-157556685D01*
X126423437Y-157594753D01*
X126521002Y-157614160D01*
X126620478Y-157614160D01*
X126718043Y-157594753D01*
X126809947Y-157556685D01*
X126892658Y-157501419D01*
X126962999Y-157431078D01*
X127018265Y-157348367D01*
X127056333Y-157256463D01*
X127075740Y-157158898D01*
X127075740Y-157074662D01*
X127188420Y-157074662D01*
X127188420Y-157174138D01*
X127207827Y-157271703D01*
X127245895Y-157363607D01*
X127301161Y-157446318D01*
X127371502Y-157516659D01*
X127454213Y-157571925D01*
X127546117Y-157609993D01*
X127643682Y-157629400D01*
X127743158Y-157629400D01*
X127840723Y-157609993D01*
X127932627Y-157571925D01*
X128015338Y-157516659D01*
X128085679Y-157446318D01*
X128140945Y-157363607D01*
X128179013Y-157271703D01*
X128198420Y-157174138D01*
X128198420Y-157074662D01*
X128179013Y-156977097D01*
X128140945Y-156885193D01*
X128085679Y-156802482D01*
X128015338Y-156732141D01*
X127932627Y-156676875D01*
X127840723Y-156638807D01*
X127743158Y-156619400D01*
X127643682Y-156619400D01*
X127546117Y-156638807D01*
X127454213Y-156676875D01*
X127371502Y-156732141D01*
X127301161Y-156802482D01*
X127245895Y-156885193D01*
X127207827Y-156977097D01*
X127188420Y-157074662D01*
X127075740Y-157074662D01*
X127075740Y-157059422D01*
X127056333Y-156961857D01*
X127018265Y-156869953D01*
X126962999Y-156787242D01*
X126892658Y-156716901D01*
X126809947Y-156661635D01*
X126718043Y-156623567D01*
X126620478Y-156604160D01*
X126521002Y-156604160D01*
X126423437Y-156623567D01*
X126331533Y-156661635D01*
X126248822Y-156716901D01*
X126178481Y-156787242D01*
X126123215Y-156869953D01*
X126085147Y-156961857D01*
X126065740Y-157059422D01*
X125994725Y-157059422D01*
X125976833Y-156969477D01*
X125938765Y-156877573D01*
X125883499Y-156794862D01*
X125813158Y-156724521D01*
X125730447Y-156669255D01*
X125638543Y-156631187D01*
X125540978Y-156611780D01*
X125441502Y-156611780D01*
X125343937Y-156631187D01*
X125252033Y-156669255D01*
X125169322Y-156724521D01*
X125098981Y-156794862D01*
X125043715Y-156877573D01*
X125005647Y-156969477D01*
X124986240Y-157067042D01*
X122636607Y-157067042D01*
X122472858Y-156903293D01*
X122472858Y-155610386D01*
X122520383Y-155539260D01*
X122558451Y-155447356D01*
X122577858Y-155349791D01*
X122577858Y-155250315D01*
X122558451Y-155152750D01*
X122525477Y-155073142D01*
X124958300Y-155073142D01*
X124958300Y-155172618D01*
X124977707Y-155270183D01*
X125015775Y-155362087D01*
X125071041Y-155444798D01*
X125141382Y-155515139D01*
X125224093Y-155570405D01*
X125315997Y-155608473D01*
X125413562Y-155627880D01*
X125513038Y-155627880D01*
X125610603Y-155608473D01*
X125702507Y-155570405D01*
X125785218Y-155515139D01*
X125855559Y-155444798D01*
X125910825Y-155362087D01*
X125948893Y-155270183D01*
X125968300Y-155172618D01*
X125968300Y-155073142D01*
X125967290Y-155068062D01*
X126058120Y-155068062D01*
X126058120Y-155167538D01*
X126077527Y-155265103D01*
X126115595Y-155357007D01*
X126170861Y-155439718D01*
X126241202Y-155510059D01*
X126323913Y-155565325D01*
X126415817Y-155603393D01*
X126513382Y-155622800D01*
X126612858Y-155622800D01*
X126710423Y-155603393D01*
X126802327Y-155565325D01*
X126885038Y-155510059D01*
X126955379Y-155439718D01*
X127010645Y-155357007D01*
X127048713Y-155265103D01*
X127054870Y-155234152D01*
X127063047Y-155275263D01*
X127101115Y-155367167D01*
X127156381Y-155449878D01*
X127226722Y-155520219D01*
X127309433Y-155575485D01*
X127401337Y-155613553D01*
X127498902Y-155632960D01*
X127598378Y-155632960D01*
X127695943Y-155613553D01*
X127787847Y-155575485D01*
X127870558Y-155520219D01*
X127940899Y-155449878D01*
X127996165Y-155367167D01*
X128029577Y-155286502D01*
X128382220Y-155286502D01*
X128382220Y-155385978D01*
X128401627Y-155483543D01*
X128439695Y-155575447D01*
X128494961Y-155658158D01*
X128565302Y-155728499D01*
X128648013Y-155783765D01*
X128675924Y-155795326D01*
X128663253Y-155800575D01*
X128580542Y-155855841D01*
X128510201Y-155926182D01*
X128454935Y-156008893D01*
X128416867Y-156100797D01*
X128397460Y-156198362D01*
X128397460Y-156297838D01*
X128416867Y-156395403D01*
X128454935Y-156487307D01*
X128510201Y-156570018D01*
X128568013Y-156627830D01*
X128545761Y-156650082D01*
X128490495Y-156732793D01*
X128452427Y-156824697D01*
X128433020Y-156922262D01*
X128433020Y-157021738D01*
X128452427Y-157119303D01*
X128490495Y-157211207D01*
X128545761Y-157293918D01*
X128616102Y-157364259D01*
X128698813Y-157419525D01*
X128790717Y-157457593D01*
X128888282Y-157477000D01*
X128987758Y-157477000D01*
X129085323Y-157457593D01*
X129177227Y-157419525D01*
X129259938Y-157364259D01*
X129330279Y-157293918D01*
X129385545Y-157211207D01*
X129423613Y-157119303D01*
X129443020Y-157021738D01*
X129443020Y-156922262D01*
X129423613Y-156824697D01*
X129385545Y-156732793D01*
X129330279Y-156650082D01*
X129272467Y-156592270D01*
X129294719Y-156570018D01*
X129349985Y-156487307D01*
X129388053Y-156395403D01*
X129407460Y-156297838D01*
X129407460Y-156198362D01*
X129388053Y-156100797D01*
X129349985Y-156008893D01*
X129294719Y-155926182D01*
X129224378Y-155855841D01*
X129141667Y-155800575D01*
X129113756Y-155789014D01*
X129126427Y-155783765D01*
X129209138Y-155728499D01*
X129279479Y-155658158D01*
X129334745Y-155575447D01*
X129372813Y-155483543D01*
X129392220Y-155385978D01*
X129392220Y-155286502D01*
X129372813Y-155188937D01*
X129334745Y-155097033D01*
X129279479Y-155014322D01*
X129209138Y-154943981D01*
X129126427Y-154888715D01*
X129034523Y-154850647D01*
X128936958Y-154831240D01*
X128837482Y-154831240D01*
X128739917Y-154850647D01*
X128648013Y-154888715D01*
X128565302Y-154943981D01*
X128494961Y-155014322D01*
X128439695Y-155097033D01*
X128401627Y-155188937D01*
X128382220Y-155286502D01*
X128029577Y-155286502D01*
X128034233Y-155275263D01*
X128053640Y-155177698D01*
X128053640Y-155078222D01*
X128034233Y-154980657D01*
X127996165Y-154888753D01*
X127940899Y-154806042D01*
X127870558Y-154735701D01*
X127787847Y-154680435D01*
X127695943Y-154642367D01*
X127598378Y-154622960D01*
X127498902Y-154622960D01*
X127401337Y-154642367D01*
X127309433Y-154680435D01*
X127226722Y-154735701D01*
X127156381Y-154806042D01*
X127101115Y-154888753D01*
X127063047Y-154980657D01*
X127056890Y-155011608D01*
X127048713Y-154970497D01*
X127010645Y-154878593D01*
X126955379Y-154795882D01*
X126885038Y-154725541D01*
X126802327Y-154670275D01*
X126710423Y-154632207D01*
X126612858Y-154612800D01*
X126513382Y-154612800D01*
X126415817Y-154632207D01*
X126323913Y-154670275D01*
X126241202Y-154725541D01*
X126170861Y-154795882D01*
X126115595Y-154878593D01*
X126077527Y-154970497D01*
X126058120Y-155068062D01*
X125967290Y-155068062D01*
X125948893Y-154975577D01*
X125910825Y-154883673D01*
X125855559Y-154800962D01*
X125785218Y-154730621D01*
X125702507Y-154675355D01*
X125610603Y-154637287D01*
X125513038Y-154617880D01*
X125413562Y-154617880D01*
X125315997Y-154637287D01*
X125224093Y-154675355D01*
X125141382Y-154730621D01*
X125071041Y-154800962D01*
X125015775Y-154883673D01*
X124977707Y-154975577D01*
X124958300Y-155073142D01*
X122525477Y-155073142D01*
X122520383Y-155060846D01*
X122465117Y-154978135D01*
X122394776Y-154907794D01*
X122312065Y-154852528D01*
X122220161Y-154814460D01*
X122122596Y-154795053D01*
X122023120Y-154795053D01*
X121925555Y-154814460D01*
X121833651Y-154852528D01*
X121750940Y-154907794D01*
X121739481Y-154919253D01*
X121739481Y-153584279D01*
X121816307Y-153552457D01*
X121899018Y-153497191D01*
X121969359Y-153426850D01*
X122024625Y-153344139D01*
X122062693Y-153252235D01*
X122082100Y-153154670D01*
X122082100Y-153071622D01*
X124920200Y-153071622D01*
X124920200Y-153171098D01*
X124939607Y-153268663D01*
X124977675Y-153360567D01*
X125032941Y-153443278D01*
X125103282Y-153513619D01*
X125185993Y-153568885D01*
X125277897Y-153606953D01*
X125375462Y-153626360D01*
X125474938Y-153626360D01*
X125572503Y-153606953D01*
X125664407Y-153568885D01*
X125747118Y-153513619D01*
X125817459Y-153443278D01*
X125872725Y-153360567D01*
X125892778Y-153312155D01*
X125914935Y-153365647D01*
X125970201Y-153448358D01*
X126040542Y-153518699D01*
X126123253Y-153573965D01*
X126215157Y-153612033D01*
X126312722Y-153631440D01*
X126412198Y-153631440D01*
X126509763Y-153612033D01*
X126601667Y-153573965D01*
X126684378Y-153518699D01*
X126754719Y-153448358D01*
X126809985Y-153365647D01*
X126848053Y-153273743D01*
X126867460Y-153176178D01*
X126867460Y-153076702D01*
X126866955Y-153074162D01*
X127000460Y-153074162D01*
X127000460Y-153173638D01*
X127019867Y-153271203D01*
X127057935Y-153363107D01*
X127113201Y-153445818D01*
X127183542Y-153516159D01*
X127266253Y-153571425D01*
X127358157Y-153609493D01*
X127455722Y-153628900D01*
X127555198Y-153628900D01*
X127652763Y-153609493D01*
X127744667Y-153571425D01*
X127827378Y-153516159D01*
X127896115Y-153447422D01*
X128395040Y-153447422D01*
X128395040Y-153546898D01*
X128414447Y-153644463D01*
X128452515Y-153736367D01*
X128507781Y-153819078D01*
X128578122Y-153889419D01*
X128591082Y-153898079D01*
X128580542Y-153905121D01*
X128510201Y-153975462D01*
X128454935Y-154058173D01*
X128416867Y-154150077D01*
X128397460Y-154247642D01*
X128397460Y-154347118D01*
X128416867Y-154444683D01*
X128454935Y-154536587D01*
X128510201Y-154619298D01*
X128580542Y-154689639D01*
X128663253Y-154744905D01*
X128755157Y-154782973D01*
X128852722Y-154802380D01*
X128952198Y-154802380D01*
X129049763Y-154782973D01*
X129141667Y-154744905D01*
X129224378Y-154689639D01*
X129294719Y-154619298D01*
X129349985Y-154536587D01*
X129388053Y-154444683D01*
X129407460Y-154347118D01*
X129407460Y-154247642D01*
X129388053Y-154150077D01*
X129349985Y-154058173D01*
X129294719Y-153975462D01*
X129224378Y-153905121D01*
X129211418Y-153896461D01*
X129221958Y-153889419D01*
X129292299Y-153819078D01*
X129347565Y-153736367D01*
X129385633Y-153644463D01*
X129405040Y-153546898D01*
X129405040Y-153447422D01*
X129385633Y-153349857D01*
X129347565Y-153257953D01*
X129292299Y-153175242D01*
X129221958Y-153104901D01*
X129139247Y-153049635D01*
X129047343Y-153011567D01*
X128949778Y-152992160D01*
X128850302Y-152992160D01*
X128752737Y-153011567D01*
X128660833Y-153049635D01*
X128578122Y-153104901D01*
X128507781Y-153175242D01*
X128452515Y-153257953D01*
X128414447Y-153349857D01*
X128395040Y-153447422D01*
X127896115Y-153447422D01*
X127897719Y-153445818D01*
X127952985Y-153363107D01*
X127991053Y-153271203D01*
X128010460Y-153173638D01*
X128010460Y-153074162D01*
X127991053Y-152976597D01*
X127952985Y-152884693D01*
X127897719Y-152801982D01*
X127827378Y-152731641D01*
X127744667Y-152676375D01*
X127652763Y-152638307D01*
X127555198Y-152618900D01*
X127455722Y-152618900D01*
X127358157Y-152638307D01*
X127266253Y-152676375D01*
X127183542Y-152731641D01*
X127113201Y-152801982D01*
X127057935Y-152884693D01*
X127019867Y-152976597D01*
X127000460Y-153074162D01*
X126866955Y-153074162D01*
X126848053Y-152979137D01*
X126809985Y-152887233D01*
X126754719Y-152804522D01*
X126684378Y-152734181D01*
X126601667Y-152678915D01*
X126509763Y-152640847D01*
X126412198Y-152621440D01*
X126312722Y-152621440D01*
X126215157Y-152640847D01*
X126123253Y-152678915D01*
X126040542Y-152734181D01*
X125970201Y-152804522D01*
X125914935Y-152887233D01*
X125894882Y-152935645D01*
X125872725Y-152882153D01*
X125817459Y-152799442D01*
X125747118Y-152729101D01*
X125664407Y-152673835D01*
X125572503Y-152635767D01*
X125474938Y-152616360D01*
X125375462Y-152616360D01*
X125277897Y-152635767D01*
X125185993Y-152673835D01*
X125103282Y-152729101D01*
X125032941Y-152799442D01*
X124977675Y-152882153D01*
X124939607Y-152974057D01*
X124920200Y-153071622D01*
X122082100Y-153071622D01*
X122082100Y-153055194D01*
X122062693Y-152957629D01*
X122024625Y-152865725D01*
X121969359Y-152783014D01*
X121899018Y-152712673D01*
X121816307Y-152657407D01*
X121724403Y-152619339D01*
X121626838Y-152599932D01*
X121527362Y-152599932D01*
X121429797Y-152619339D01*
X121337893Y-152657407D01*
X121255182Y-152712673D01*
X121184841Y-152783014D01*
X121129575Y-152865725D01*
X121091507Y-152957629D01*
X121074818Y-153041529D01*
X121070529Y-153045818D01*
X121055271Y-153058340D01*
X121042749Y-153073598D01*
X121042746Y-153073601D01*
X121005284Y-153119249D01*
X120968142Y-153188737D01*
X120945269Y-153264138D01*
X120937546Y-153342551D01*
X120939482Y-153362207D01*
X120939481Y-157321795D01*
X120937546Y-157341441D01*
X120939481Y-157361087D01*
X120945269Y-157419854D01*
X120968141Y-157495254D01*
X121005284Y-157564743D01*
X121055270Y-157625652D01*
X121070533Y-157638178D01*
X121694995Y-158262640D01*
X121665087Y-158262640D01*
X121553999Y-158284737D01*
X121449355Y-158328082D01*
X121355179Y-158391008D01*
X121275088Y-158471099D01*
X121212162Y-158565275D01*
X121168817Y-158669919D01*
X121146720Y-158781007D01*
X121146720Y-158894273D01*
X121168817Y-159005361D01*
X121182870Y-159039288D01*
X121171147Y-159031455D01*
X121079243Y-158993387D01*
X120981678Y-158973980D01*
X120882202Y-158973980D01*
X120823120Y-158985732D01*
X120823120Y-151348255D01*
X120843057Y-151356513D01*
X120940622Y-151375920D01*
X121040098Y-151375920D01*
X121137663Y-151356513D01*
X121229567Y-151318445D01*
X121312278Y-151263179D01*
X121382619Y-151192838D01*
X121437885Y-151110127D01*
X121460619Y-151055241D01*
X121473942Y-151087405D01*
X121536868Y-151181581D01*
X121616959Y-151261672D01*
X121711135Y-151324598D01*
X121815779Y-151367943D01*
X121926867Y-151390040D01*
X122040133Y-151390040D01*
X122151221Y-151367943D01*
X122255865Y-151324598D01*
X122350041Y-151261672D01*
X122430132Y-151181581D01*
X122493058Y-151087405D01*
X122536403Y-150982761D01*
X122558500Y-150871673D01*
X122558500Y-150758407D01*
X122536403Y-150647319D01*
X122527059Y-150624760D01*
X123015286Y-150624760D01*
X122983807Y-150700757D01*
G37*
X122983807Y-150700757D02*
X122964400Y-150798322D01*
X122964400Y-150897798D01*
X122983807Y-150995363D01*
X123021875Y-151087267D01*
X123077141Y-151169978D01*
X123147482Y-151240319D01*
X123230193Y-151295585D01*
X123322097Y-151333653D01*
X123419662Y-151353060D01*
X123519138Y-151353060D01*
X123616703Y-151333653D01*
X123708607Y-151295585D01*
X123791318Y-151240319D01*
X123845077Y-151186560D01*
X125673610Y-151186560D01*
X126058432Y-151571383D01*
X126069028Y-151584294D01*
X126120571Y-151626595D01*
X126179376Y-151658027D01*
X126223828Y-151671511D01*
X126243183Y-151677382D01*
X126249477Y-151678002D01*
X126292921Y-151682281D01*
X126292928Y-151682281D01*
X126309540Y-151683917D01*
X126326152Y-151682281D01*
X130195231Y-151682281D01*
X132618831Y-154105882D01*
X132629427Y-154118793D01*
X132680970Y-154161094D01*
X132739775Y-154192526D01*
X132803582Y-154211881D01*
X132809331Y-154212447D01*
X132853320Y-154216780D01*
X132853328Y-154216780D01*
X132869940Y-154218416D01*
X132886552Y-154216780D01*
X133746483Y-154216780D01*
X133800242Y-154270539D01*
X133882953Y-154325805D01*
X133974857Y-154363873D01*
X134072422Y-154383280D01*
X134171898Y-154383280D01*
X134269463Y-154363873D01*
X134361367Y-154325805D01*
X134444078Y-154270539D01*
X134514419Y-154200198D01*
X134569685Y-154117487D01*
X134607753Y-154025583D01*
X134627160Y-153928018D01*
X134627160Y-153888835D01*
X134680513Y-153924485D01*
X134772417Y-153962553D01*
X134869982Y-153981960D01*
X134969458Y-153981960D01*
X135067023Y-153962553D01*
X135158927Y-153924485D01*
X135241638Y-153869219D01*
X135311979Y-153798878D01*
X135367245Y-153716167D01*
X135405313Y-153624263D01*
X135424720Y-153526698D01*
X135424720Y-153427222D01*
X135405313Y-153329657D01*
X135367245Y-153237753D01*
X135311979Y-153155042D01*
X135241638Y-153084701D01*
X135158927Y-153029435D01*
X135067023Y-152991367D01*
X134969458Y-152971960D01*
X134869982Y-152971960D01*
X134772417Y-152991367D01*
X134680513Y-153029435D01*
X134597802Y-153084701D01*
X134527461Y-153155042D01*
X134472195Y-153237753D01*
X134434127Y-153329657D01*
X134414720Y-153427222D01*
X134414720Y-153466405D01*
X134361367Y-153430755D01*
X134269463Y-153392687D01*
X134171898Y-153373280D01*
X134072422Y-153373280D01*
X133974857Y-153392687D01*
X133882953Y-153430755D01*
X133800242Y-153486021D01*
X133746483Y-153539780D01*
X133010151Y-153539780D01*
X131585110Y-152114740D01*
X131635808Y-152093740D01*
X131718519Y-152038474D01*
X131788860Y-151968133D01*
X131844126Y-151885422D01*
X131882194Y-151793518D01*
X131901601Y-151695953D01*
X131901601Y-151596477D01*
X131882194Y-151498912D01*
X131844126Y-151407008D01*
X131788860Y-151324297D01*
X131718519Y-151253956D01*
X131635808Y-151198690D01*
X131543904Y-151160622D01*
X131446339Y-151141215D01*
X131346863Y-151141215D01*
X131249298Y-151160622D01*
X131157394Y-151198690D01*
X131074683Y-151253956D01*
X131004342Y-151324297D01*
X130949076Y-151407008D01*
X130928076Y-151457706D01*
X130586554Y-151116184D01*
X130575954Y-151103268D01*
X130524411Y-151060967D01*
X130465606Y-151029535D01*
X130401798Y-151010180D01*
X130352061Y-151005281D01*
X130352053Y-151005281D01*
X130335441Y-151003645D01*
X130318829Y-151005281D01*
X128317508Y-151005281D01*
X128323825Y-150995827D01*
X128361893Y-150903923D01*
X128381300Y-150806358D01*
X128381300Y-150706882D01*
X128364965Y-150624760D01*
X137904155Y-150624760D01*
X137896115Y-150636793D01*
X137858047Y-150728697D01*
X137838640Y-150826262D01*
X137838640Y-150925738D01*
X137858047Y-151023303D01*
X137896115Y-151115207D01*
X137951381Y-151197918D01*
X137980507Y-151227044D01*
X137612114Y-151225217D01*
X137606509Y-151224096D01*
X137591865Y-151222640D01*
X137589957Y-151222826D01*
X137527515Y-151181104D01*
X137333725Y-151100834D01*
X137127998Y-151059912D01*
X136918242Y-151059912D01*
X136712515Y-151100834D01*
X136518725Y-151181104D01*
X136344319Y-151297639D01*
X136195999Y-151445959D01*
X136079464Y-151620365D01*
X135999194Y-151814155D01*
X135958272Y-152019882D01*
X135958272Y-152229638D01*
X135999194Y-152435365D01*
X136079464Y-152629155D01*
X136195999Y-152803561D01*
X136344319Y-152951881D01*
X136518725Y-153068416D01*
X136712515Y-153148686D01*
X136742694Y-153154689D01*
X136729641Y-153167742D01*
X136674375Y-153250453D01*
X136636307Y-153342357D01*
X136632445Y-153361774D01*
X136629593Y-153347437D01*
X136591525Y-153255533D01*
X136536259Y-153172822D01*
X136465918Y-153102481D01*
X136383207Y-153047215D01*
X136291303Y-153009147D01*
X136193738Y-152989740D01*
X136094262Y-152989740D01*
X135996697Y-153009147D01*
X135904793Y-153047215D01*
X135822082Y-153102481D01*
X135751741Y-153172822D01*
X135696475Y-153255533D01*
X135658407Y-153347437D01*
X135639000Y-153445002D01*
X135639000Y-153544478D01*
X135658407Y-153642043D01*
X135696475Y-153733947D01*
X135728856Y-153782408D01*
X135688855Y-153842273D01*
X135650787Y-153934177D01*
X135631380Y-154031742D01*
X135631380Y-154131218D01*
X135650787Y-154228783D01*
X135688855Y-154320687D01*
X135744121Y-154403398D01*
X135746167Y-154405444D01*
X135696475Y-154479813D01*
X135658407Y-154571717D01*
X135639000Y-154669282D01*
X135639000Y-154768758D01*
X135658407Y-154866323D01*
X135696475Y-154958227D01*
X135751741Y-155040938D01*
X135822082Y-155111279D01*
X135904793Y-155166545D01*
X135996697Y-155204613D01*
X136094262Y-155224020D01*
X136193738Y-155224020D01*
X136291303Y-155204613D01*
X136383207Y-155166545D01*
X136465918Y-155111279D01*
X136536259Y-155040938D01*
X136591525Y-154958227D01*
X136629593Y-154866323D01*
X136649000Y-154768758D01*
X136649000Y-154669282D01*
X136629593Y-154571717D01*
X136591525Y-154479813D01*
X136536259Y-154397102D01*
X136534213Y-154395056D01*
X136583905Y-154320687D01*
X136616900Y-154241030D01*
X136616900Y-154339498D01*
X136636307Y-154437063D01*
X136674375Y-154528967D01*
X136729641Y-154611678D01*
X136799982Y-154682019D01*
X136811642Y-154689810D01*
X136799982Y-154697601D01*
X136729641Y-154767942D01*
X136674375Y-154850653D01*
X136636307Y-154942557D01*
X136616900Y-155040122D01*
X136616900Y-155139598D01*
X136636307Y-155237163D01*
X136674375Y-155329067D01*
X136729641Y-155411778D01*
X136799982Y-155482119D01*
X136811642Y-155489910D01*
X136799982Y-155497701D01*
X136729641Y-155568042D01*
X136674375Y-155650753D01*
X136636307Y-155742657D01*
X136616900Y-155840222D01*
X136616900Y-155939698D01*
X136636307Y-156037263D01*
X136674375Y-156129167D01*
X136729641Y-156211878D01*
X136799982Y-156282219D01*
X136811642Y-156290010D01*
X136799982Y-156297801D01*
X136729641Y-156368142D01*
X136674375Y-156450853D01*
X136636307Y-156542757D01*
X136616900Y-156640322D01*
X136616900Y-156739798D01*
X136636307Y-156837363D01*
X136674375Y-156929267D01*
X136729641Y-157011978D01*
X136799982Y-157082319D01*
X136801270Y-157083179D01*
X136712515Y-157100834D01*
X136518725Y-157181104D01*
X136344319Y-157297639D01*
X136195999Y-157445959D01*
X136079464Y-157620365D01*
X135999194Y-157814155D01*
X135958272Y-158019882D01*
X135958272Y-158229638D01*
X135999194Y-158435365D01*
X136079464Y-158629155D01*
X136195999Y-158803561D01*
X136344319Y-158951881D01*
X136518725Y-159068416D01*
X136712515Y-159148686D01*
X136918242Y-159189608D01*
X137127998Y-159189608D01*
X137333725Y-159148686D01*
X137527515Y-159068416D01*
X137701921Y-158951881D01*
X137850241Y-158803561D01*
X137885208Y-158751230D01*
X138529794Y-158756449D01*
X138484781Y-158801462D01*
X138429515Y-158884173D01*
X138391447Y-158976077D01*
X138372040Y-159073642D01*
X138372040Y-159173118D01*
X138391447Y-159270683D01*
X138429515Y-159362587D01*
X138484781Y-159445298D01*
X138555122Y-159515639D01*
X138637833Y-159570905D01*
X138729737Y-159608973D01*
X138809103Y-159624760D01*
X135986085Y-159624760D01*
X136014913Y-159555163D01*
X136034320Y-159457598D01*
X136034320Y-159358122D01*
X136014913Y-159260557D01*
X135976845Y-159168653D01*
X135921579Y-159085942D01*
X135851238Y-159015601D01*
X135768527Y-158960335D01*
X135676623Y-158922267D01*
X135579058Y-158902860D01*
X135479582Y-158902860D01*
X135382017Y-158922267D01*
X135324352Y-158946153D01*
X135330740Y-158914038D01*
X135330740Y-158814562D01*
X135311333Y-158716997D01*
X135273265Y-158625093D01*
X135217999Y-158542382D01*
X135187810Y-158512193D01*
X135217999Y-158482003D01*
X135273265Y-158399292D01*
X135311333Y-158307388D01*
X135330740Y-158209823D01*
X135330740Y-158110347D01*
X135311333Y-158012782D01*
X135273265Y-157920878D01*
X135217999Y-157838167D01*
X135187810Y-157807978D01*
X135217999Y-157777788D01*
X135273265Y-157695077D01*
X135311333Y-157603173D01*
X135330740Y-157505608D01*
X135330740Y-157406132D01*
X135311333Y-157308567D01*
X135273265Y-157216663D01*
X135217999Y-157133952D01*
X135187810Y-157103763D01*
X135217999Y-157073573D01*
X135273265Y-156990862D01*
X135311333Y-156898958D01*
X135330740Y-156801393D01*
X135330740Y-156701917D01*
X135311333Y-156604352D01*
X135273265Y-156512448D01*
X135217999Y-156429737D01*
X135187810Y-156399548D01*
X135217999Y-156369358D01*
X135273265Y-156286647D01*
X135311333Y-156194743D01*
X135330740Y-156097178D01*
X135330740Y-155997702D01*
X135311333Y-155900137D01*
X135273265Y-155808233D01*
X135217999Y-155725522D01*
X135147658Y-155655181D01*
X135064947Y-155599915D01*
X134973043Y-155561847D01*
X134875478Y-155542440D01*
X134776002Y-155542440D01*
X134678437Y-155561847D01*
X134586533Y-155599915D01*
X134503822Y-155655181D01*
X134433481Y-155725522D01*
X134378215Y-155808233D01*
X134340147Y-155900137D01*
X134320740Y-155997702D01*
X134320740Y-156097178D01*
X134340147Y-156194743D01*
X134378215Y-156286647D01*
X134433481Y-156369358D01*
X134463671Y-156399548D01*
X134433481Y-156429737D01*
X134399249Y-156480968D01*
X134349319Y-156406242D01*
X134278978Y-156335901D01*
X134196267Y-156280635D01*
X134104363Y-156242567D01*
X134025483Y-156226877D01*
X134039300Y-156157413D01*
X134039300Y-156044147D01*
X134017203Y-155933059D01*
X133973858Y-155828415D01*
X133910932Y-155734239D01*
X133830841Y-155654148D01*
X133736665Y-155591222D01*
X133632021Y-155547877D01*
X133520933Y-155525780D01*
X133407667Y-155525780D01*
X133296579Y-155547877D01*
X133191935Y-155591222D01*
X133097759Y-155654148D01*
X133017668Y-155734239D01*
X132954742Y-155828415D01*
X132911397Y-155933059D01*
X132889300Y-156044147D01*
X132889300Y-156157413D01*
X132911397Y-156268501D01*
X132954742Y-156373145D01*
X133017668Y-156467321D01*
X133097759Y-156547412D01*
X133191935Y-156610338D01*
X133296579Y-156653683D01*
X133407667Y-156675780D01*
X133452586Y-156675780D01*
X133452060Y-156678422D01*
X133452060Y-156777898D01*
X133471467Y-156875463D01*
X133509535Y-156967367D01*
X133564801Y-157050078D01*
X133635142Y-157120419D01*
X133717853Y-157175685D01*
X133809757Y-157213753D01*
X133907322Y-157233160D01*
X134006798Y-157233160D01*
X134104363Y-157213753D01*
X134196267Y-157175685D01*
X134278978Y-157120419D01*
X134349319Y-157050078D01*
X134383551Y-156998847D01*
X134433481Y-157073573D01*
X134463671Y-157103763D01*
X134433481Y-157133952D01*
X134378215Y-157216663D01*
X134340147Y-157308567D01*
X134320740Y-157406132D01*
X134320740Y-157505608D01*
X134340147Y-157603173D01*
X134378215Y-157695077D01*
X134433481Y-157777788D01*
X134463671Y-157807978D01*
X134433481Y-157838167D01*
X134387378Y-157907165D01*
X134341699Y-157838802D01*
X134271358Y-157768461D01*
X134188647Y-157713195D01*
X134096743Y-157675127D01*
X133999178Y-157655720D01*
X133899702Y-157655720D01*
X133802137Y-157675127D01*
X133710233Y-157713195D01*
X133627522Y-157768461D01*
X133557181Y-157838802D01*
X133501915Y-157921513D01*
X133463847Y-158013417D01*
X133444440Y-158110982D01*
X133444440Y-158210458D01*
X133463847Y-158308023D01*
X133470275Y-158323541D01*
X133394658Y-158308500D01*
X133295182Y-158308500D01*
X133197617Y-158327907D01*
X133105713Y-158365975D01*
X133023002Y-158421241D01*
X132952661Y-158491582D01*
X132897395Y-158574293D01*
X132859327Y-158666197D01*
X132849392Y-158716145D01*
X132841389Y-158716145D01*
X132743824Y-158735552D01*
X132651920Y-158773620D01*
X132569209Y-158828886D01*
X132498868Y-158899227D01*
X132443602Y-158981938D01*
X132405534Y-159073842D01*
X132386127Y-159171407D01*
X132386127Y-159270883D01*
X132405534Y-159368448D01*
X132443602Y-159460352D01*
X132498868Y-159543063D01*
X132569209Y-159613404D01*
X132586204Y-159624760D01*
X131290500Y-159624760D01*
X131317183Y-159560341D01*
X131339280Y-159449253D01*
X131339280Y-159335987D01*
X131317183Y-159224899D01*
X131273838Y-159120255D01*
X131210912Y-159026079D01*
X131130821Y-158945988D01*
X131036645Y-158883062D01*
X130932001Y-158839717D01*
X130820913Y-158817620D01*
X130707647Y-158817620D01*
X130596559Y-158839717D01*
X130491915Y-158883062D01*
X130397739Y-158945988D01*
X130317648Y-159026079D01*
X130254722Y-159120255D01*
X130211377Y-159224899D01*
X130189280Y-159335987D01*
X130189280Y-159449253D01*
X130211377Y-159560341D01*
X130238060Y-159624760D01*
X126164085Y-159624760D01*
X126187653Y-159567863D01*
X126207060Y-159470298D01*
X126207060Y-159370822D01*
X126187653Y-159273257D01*
X126149585Y-159181353D01*
X126094319Y-159098642D01*
X126023978Y-159028301D01*
X125941267Y-158973035D01*
X125849363Y-158934967D01*
X125751798Y-158915560D01*
X125652322Y-158915560D01*
X125554757Y-158934967D01*
X125462853Y-158973035D01*
X125380142Y-159028301D01*
X125309801Y-159098642D01*
X125254535Y-159181353D01*
X125216467Y-159273257D01*
X125197060Y-159370822D01*
X125197060Y-159470298D01*
X125216467Y-159567863D01*
X125240035Y-159624760D01*
X124918844Y-159624760D01*
X124931440Y-159594350D01*
X124950847Y-159496785D01*
X124950847Y-159397309D01*
X124931440Y-159299744D01*
X124893372Y-159207840D01*
X124838106Y-159125129D01*
X124767765Y-159054788D01*
X124685054Y-158999522D01*
X124593150Y-158961454D01*
X124509251Y-158944765D01*
X124180618Y-158616133D01*
X124180614Y-158616128D01*
X123010489Y-157446004D01*
X123010485Y-157445999D01*
X122918163Y-157353677D01*
X122882391Y-157310089D01*
X122867129Y-157297564D01*
X122636607Y-157067042D01*
X124986240Y-157067042D01*
X124986240Y-157166518D01*
X125005647Y-157264083D01*
X125043715Y-157355987D01*
X125098981Y-157438698D01*
X125169322Y-157509039D01*
X125252033Y-157564305D01*
X125343937Y-157602373D01*
X125441502Y-157621780D01*
X125540978Y-157621780D01*
X125638543Y-157602373D01*
X125730447Y-157564305D01*
X125813158Y-157509039D01*
X125883499Y-157438698D01*
X125938765Y-157355987D01*
X125976833Y-157264083D01*
X125996240Y-157166518D01*
X125996240Y-157067042D01*
X125994725Y-157059422D01*
X126065740Y-157059422D01*
X126065740Y-157158898D01*
X126085147Y-157256463D01*
X126123215Y-157348367D01*
X126178481Y-157431078D01*
X126248822Y-157501419D01*
X126331533Y-157556685D01*
X126423437Y-157594753D01*
X126521002Y-157614160D01*
X126620478Y-157614160D01*
X126718043Y-157594753D01*
X126809947Y-157556685D01*
X126892658Y-157501419D01*
X126962999Y-157431078D01*
X127018265Y-157348367D01*
X127056333Y-157256463D01*
X127075740Y-157158898D01*
X127075740Y-157074662D01*
X127188420Y-157074662D01*
X127188420Y-157174138D01*
X127207827Y-157271703D01*
X127245895Y-157363607D01*
X127301161Y-157446318D01*
X127371502Y-157516659D01*
X127454213Y-157571925D01*
X127546117Y-157609993D01*
X127643682Y-157629400D01*
X127743158Y-157629400D01*
X127840723Y-157609993D01*
X127932627Y-157571925D01*
X128015338Y-157516659D01*
X128085679Y-157446318D01*
X128140945Y-157363607D01*
X128179013Y-157271703D01*
X128198420Y-157174138D01*
X128198420Y-157074662D01*
X128179013Y-156977097D01*
X128140945Y-156885193D01*
X128085679Y-156802482D01*
X128015338Y-156732141D01*
X127932627Y-156676875D01*
X127840723Y-156638807D01*
X127743158Y-156619400D01*
X127643682Y-156619400D01*
X127546117Y-156638807D01*
X127454213Y-156676875D01*
X127371502Y-156732141D01*
X127301161Y-156802482D01*
X127245895Y-156885193D01*
X127207827Y-156977097D01*
X127188420Y-157074662D01*
X127075740Y-157074662D01*
X127075740Y-157059422D01*
X127056333Y-156961857D01*
X127018265Y-156869953D01*
X126962999Y-156787242D01*
X126892658Y-156716901D01*
X126809947Y-156661635D01*
X126718043Y-156623567D01*
X126620478Y-156604160D01*
X126521002Y-156604160D01*
X126423437Y-156623567D01*
X126331533Y-156661635D01*
X126248822Y-156716901D01*
X126178481Y-156787242D01*
X126123215Y-156869953D01*
X126085147Y-156961857D01*
X126065740Y-157059422D01*
X125994725Y-157059422D01*
X125976833Y-156969477D01*
X125938765Y-156877573D01*
X125883499Y-156794862D01*
X125813158Y-156724521D01*
X125730447Y-156669255D01*
X125638543Y-156631187D01*
X125540978Y-156611780D01*
X125441502Y-156611780D01*
X125343937Y-156631187D01*
X125252033Y-156669255D01*
X125169322Y-156724521D01*
X125098981Y-156794862D01*
X125043715Y-156877573D01*
X125005647Y-156969477D01*
X124986240Y-157067042D01*
X122636607Y-157067042D01*
X122472858Y-156903293D01*
X122472858Y-155610386D01*
X122520383Y-155539260D01*
X122558451Y-155447356D01*
X122577858Y-155349791D01*
X122577858Y-155250315D01*
X122558451Y-155152750D01*
X122525477Y-155073142D01*
X124958300Y-155073142D01*
X124958300Y-155172618D01*
X124977707Y-155270183D01*
X125015775Y-155362087D01*
X125071041Y-155444798D01*
X125141382Y-155515139D01*
X125224093Y-155570405D01*
X125315997Y-155608473D01*
X125413562Y-155627880D01*
X125513038Y-155627880D01*
X125610603Y-155608473D01*
X125702507Y-155570405D01*
X125785218Y-155515139D01*
X125855559Y-155444798D01*
X125910825Y-155362087D01*
X125948893Y-155270183D01*
X125968300Y-155172618D01*
X125968300Y-155073142D01*
X125967290Y-155068062D01*
X126058120Y-155068062D01*
X126058120Y-155167538D01*
X126077527Y-155265103D01*
X126115595Y-155357007D01*
X126170861Y-155439718D01*
X126241202Y-155510059D01*
X126323913Y-155565325D01*
X126415817Y-155603393D01*
X126513382Y-155622800D01*
X126612858Y-155622800D01*
X126710423Y-155603393D01*
X126802327Y-155565325D01*
X126885038Y-155510059D01*
X126955379Y-155439718D01*
X127010645Y-155357007D01*
X127048713Y-155265103D01*
X127054870Y-155234152D01*
X127063047Y-155275263D01*
X127101115Y-155367167D01*
X127156381Y-155449878D01*
X127226722Y-155520219D01*
X127309433Y-155575485D01*
X127401337Y-155613553D01*
X127498902Y-155632960D01*
X127598378Y-155632960D01*
X127695943Y-155613553D01*
X127787847Y-155575485D01*
X127870558Y-155520219D01*
X127940899Y-155449878D01*
X127996165Y-155367167D01*
X128029577Y-155286502D01*
X128382220Y-155286502D01*
X128382220Y-155385978D01*
X128401627Y-155483543D01*
X128439695Y-155575447D01*
X128494961Y-155658158D01*
X128565302Y-155728499D01*
X128648013Y-155783765D01*
X128675924Y-155795326D01*
X128663253Y-155800575D01*
X128580542Y-155855841D01*
X128510201Y-155926182D01*
X128454935Y-156008893D01*
X128416867Y-156100797D01*
X128397460Y-156198362D01*
X128397460Y-156297838D01*
X128416867Y-156395403D01*
X128454935Y-156487307D01*
X128510201Y-156570018D01*
X128568013Y-156627830D01*
X128545761Y-156650082D01*
X128490495Y-156732793D01*
X128452427Y-156824697D01*
X128433020Y-156922262D01*
X128433020Y-157021738D01*
X128452427Y-157119303D01*
X128490495Y-157211207D01*
X128545761Y-157293918D01*
X128616102Y-157364259D01*
X128698813Y-157419525D01*
X128790717Y-157457593D01*
X128888282Y-157477000D01*
X128987758Y-157477000D01*
X129085323Y-157457593D01*
X129177227Y-157419525D01*
X129259938Y-157364259D01*
X129330279Y-157293918D01*
X129385545Y-157211207D01*
X129423613Y-157119303D01*
X129443020Y-157021738D01*
X129443020Y-156922262D01*
X129423613Y-156824697D01*
X129385545Y-156732793D01*
X129330279Y-156650082D01*
X129272467Y-156592270D01*
X129294719Y-156570018D01*
X129349985Y-156487307D01*
X129388053Y-156395403D01*
X129407460Y-156297838D01*
X129407460Y-156198362D01*
X129388053Y-156100797D01*
X129349985Y-156008893D01*
X129294719Y-155926182D01*
X129224378Y-155855841D01*
X129141667Y-155800575D01*
X129113756Y-155789014D01*
X129126427Y-155783765D01*
X129209138Y-155728499D01*
X129279479Y-155658158D01*
X129334745Y-155575447D01*
X129372813Y-155483543D01*
X129392220Y-155385978D01*
X129392220Y-155286502D01*
X129372813Y-155188937D01*
X129334745Y-155097033D01*
X129279479Y-155014322D01*
X129209138Y-154943981D01*
X129126427Y-154888715D01*
X129034523Y-154850647D01*
X128936958Y-154831240D01*
X128837482Y-154831240D01*
X128739917Y-154850647D01*
X128648013Y-154888715D01*
X128565302Y-154943981D01*
X128494961Y-155014322D01*
X128439695Y-155097033D01*
X128401627Y-155188937D01*
X128382220Y-155286502D01*
X128029577Y-155286502D01*
X128034233Y-155275263D01*
X128053640Y-155177698D01*
X128053640Y-155078222D01*
X128034233Y-154980657D01*
X127996165Y-154888753D01*
X127940899Y-154806042D01*
X127870558Y-154735701D01*
X127787847Y-154680435D01*
X127695943Y-154642367D01*
X127598378Y-154622960D01*
X127498902Y-154622960D01*
X127401337Y-154642367D01*
X127309433Y-154680435D01*
X127226722Y-154735701D01*
X127156381Y-154806042D01*
X127101115Y-154888753D01*
X127063047Y-154980657D01*
X127056890Y-155011608D01*
X127048713Y-154970497D01*
X127010645Y-154878593D01*
X126955379Y-154795882D01*
X126885038Y-154725541D01*
X126802327Y-154670275D01*
X126710423Y-154632207D01*
X126612858Y-154612800D01*
X126513382Y-154612800D01*
X126415817Y-154632207D01*
X126323913Y-154670275D01*
X126241202Y-154725541D01*
X126170861Y-154795882D01*
X126115595Y-154878593D01*
X126077527Y-154970497D01*
X126058120Y-155068062D01*
X125967290Y-155068062D01*
X125948893Y-154975577D01*
X125910825Y-154883673D01*
X125855559Y-154800962D01*
X125785218Y-154730621D01*
X125702507Y-154675355D01*
X125610603Y-154637287D01*
X125513038Y-154617880D01*
X125413562Y-154617880D01*
X125315997Y-154637287D01*
X125224093Y-154675355D01*
X125141382Y-154730621D01*
X125071041Y-154800962D01*
X125015775Y-154883673D01*
X124977707Y-154975577D01*
X124958300Y-155073142D01*
X122525477Y-155073142D01*
X122520383Y-155060846D01*
X122465117Y-154978135D01*
X122394776Y-154907794D01*
X122312065Y-154852528D01*
X122220161Y-154814460D01*
X122122596Y-154795053D01*
X122023120Y-154795053D01*
X121925555Y-154814460D01*
X121833651Y-154852528D01*
X121750940Y-154907794D01*
X121739481Y-154919253D01*
X121739481Y-153584279D01*
X121816307Y-153552457D01*
X121899018Y-153497191D01*
X121969359Y-153426850D01*
X122024625Y-153344139D01*
X122062693Y-153252235D01*
X122082100Y-153154670D01*
X122082100Y-153071622D01*
X124920200Y-153071622D01*
X124920200Y-153171098D01*
X124939607Y-153268663D01*
X124977675Y-153360567D01*
X125032941Y-153443278D01*
X125103282Y-153513619D01*
X125185993Y-153568885D01*
X125277897Y-153606953D01*
X125375462Y-153626360D01*
X125474938Y-153626360D01*
X125572503Y-153606953D01*
X125664407Y-153568885D01*
X125747118Y-153513619D01*
X125817459Y-153443278D01*
X125872725Y-153360567D01*
X125892778Y-153312155D01*
X125914935Y-153365647D01*
X125970201Y-153448358D01*
X126040542Y-153518699D01*
X126123253Y-153573965D01*
X126215157Y-153612033D01*
X126312722Y-153631440D01*
X126412198Y-153631440D01*
X126509763Y-153612033D01*
X126601667Y-153573965D01*
X126684378Y-153518699D01*
X126754719Y-153448358D01*
X126809985Y-153365647D01*
X126848053Y-153273743D01*
X126867460Y-153176178D01*
X126867460Y-153076702D01*
X126866955Y-153074162D01*
X127000460Y-153074162D01*
X127000460Y-153173638D01*
X127019867Y-153271203D01*
X127057935Y-153363107D01*
X127113201Y-153445818D01*
X127183542Y-153516159D01*
X127266253Y-153571425D01*
X127358157Y-153609493D01*
X127455722Y-153628900D01*
X127555198Y-153628900D01*
X127652763Y-153609493D01*
X127744667Y-153571425D01*
X127827378Y-153516159D01*
X127896115Y-153447422D01*
X128395040Y-153447422D01*
X128395040Y-153546898D01*
X128414447Y-153644463D01*
X128452515Y-153736367D01*
X128507781Y-153819078D01*
X128578122Y-153889419D01*
X128591082Y-153898079D01*
X128580542Y-153905121D01*
X128510201Y-153975462D01*
X128454935Y-154058173D01*
X128416867Y-154150077D01*
X128397460Y-154247642D01*
X128397460Y-154347118D01*
X128416867Y-154444683D01*
X128454935Y-154536587D01*
X128510201Y-154619298D01*
X128580542Y-154689639D01*
X128663253Y-154744905D01*
X128755157Y-154782973D01*
X128852722Y-154802380D01*
X128952198Y-154802380D01*
X129049763Y-154782973D01*
X129141667Y-154744905D01*
X129224378Y-154689639D01*
X129294719Y-154619298D01*
X129349985Y-154536587D01*
X129388053Y-154444683D01*
X129407460Y-154347118D01*
X129407460Y-154247642D01*
X129388053Y-154150077D01*
X129349985Y-154058173D01*
X129294719Y-153975462D01*
X129224378Y-153905121D01*
X129211418Y-153896461D01*
X129221958Y-153889419D01*
X129292299Y-153819078D01*
X129347565Y-153736367D01*
X129385633Y-153644463D01*
X129405040Y-153546898D01*
X129405040Y-153447422D01*
X129385633Y-153349857D01*
X129347565Y-153257953D01*
X129292299Y-153175242D01*
X129221958Y-153104901D01*
X129139247Y-153049635D01*
X129047343Y-153011567D01*
X128949778Y-152992160D01*
X128850302Y-152992160D01*
X128752737Y-153011567D01*
X128660833Y-153049635D01*
X128578122Y-153104901D01*
X128507781Y-153175242D01*
X128452515Y-153257953D01*
X128414447Y-153349857D01*
X128395040Y-153447422D01*
X127896115Y-153447422D01*
X127897719Y-153445818D01*
X127952985Y-153363107D01*
X127991053Y-153271203D01*
X128010460Y-153173638D01*
X128010460Y-153074162D01*
X127991053Y-152976597D01*
X127952985Y-152884693D01*
X127897719Y-152801982D01*
X127827378Y-152731641D01*
X127744667Y-152676375D01*
X127652763Y-152638307D01*
X127555198Y-152618900D01*
X127455722Y-152618900D01*
X127358157Y-152638307D01*
X127266253Y-152676375D01*
X127183542Y-152731641D01*
X127113201Y-152801982D01*
X127057935Y-152884693D01*
X127019867Y-152976597D01*
X127000460Y-153074162D01*
X126866955Y-153074162D01*
X126848053Y-152979137D01*
X126809985Y-152887233D01*
X126754719Y-152804522D01*
X126684378Y-152734181D01*
X126601667Y-152678915D01*
X126509763Y-152640847D01*
X126412198Y-152621440D01*
X126312722Y-152621440D01*
X126215157Y-152640847D01*
X126123253Y-152678915D01*
X126040542Y-152734181D01*
X125970201Y-152804522D01*
X125914935Y-152887233D01*
X125894882Y-152935645D01*
X125872725Y-152882153D01*
X125817459Y-152799442D01*
X125747118Y-152729101D01*
X125664407Y-152673835D01*
X125572503Y-152635767D01*
X125474938Y-152616360D01*
X125375462Y-152616360D01*
X125277897Y-152635767D01*
X125185993Y-152673835D01*
X125103282Y-152729101D01*
X125032941Y-152799442D01*
X124977675Y-152882153D01*
X124939607Y-152974057D01*
X124920200Y-153071622D01*
X122082100Y-153071622D01*
X122082100Y-153055194D01*
X122062693Y-152957629D01*
X122024625Y-152865725D01*
X121969359Y-152783014D01*
X121899018Y-152712673D01*
X121816307Y-152657407D01*
X121724403Y-152619339D01*
X121626838Y-152599932D01*
X121527362Y-152599932D01*
X121429797Y-152619339D01*
X121337893Y-152657407D01*
X121255182Y-152712673D01*
X121184841Y-152783014D01*
X121129575Y-152865725D01*
X121091507Y-152957629D01*
X121074818Y-153041529D01*
X121070529Y-153045818D01*
X121055271Y-153058340D01*
X121042749Y-153073598D01*
X121042746Y-153073601D01*
X121005284Y-153119249D01*
X120968142Y-153188737D01*
X120945269Y-153264138D01*
X120937546Y-153342551D01*
X120939482Y-153362207D01*
X120939481Y-157321795D01*
X120937546Y-157341441D01*
X120939481Y-157361087D01*
X120945269Y-157419854D01*
X120968141Y-157495254D01*
X121005284Y-157564743D01*
X121055270Y-157625652D01*
X121070533Y-157638178D01*
X121694995Y-158262640D01*
X121665087Y-158262640D01*
X121553999Y-158284737D01*
X121449355Y-158328082D01*
X121355179Y-158391008D01*
X121275088Y-158471099D01*
X121212162Y-158565275D01*
X121168817Y-158669919D01*
X121146720Y-158781007D01*
X121146720Y-158894273D01*
X121168817Y-159005361D01*
X121182870Y-159039288D01*
X121171147Y-159031455D01*
X121079243Y-158993387D01*
X120981678Y-158973980D01*
X120882202Y-158973980D01*
X120823120Y-158985732D01*
X120823120Y-151348255D01*
X120843057Y-151356513D01*
X120940622Y-151375920D01*
X121040098Y-151375920D01*
X121137663Y-151356513D01*
X121229567Y-151318445D01*
X121312278Y-151263179D01*
X121382619Y-151192838D01*
X121437885Y-151110127D01*
X121460619Y-151055241D01*
X121473942Y-151087405D01*
X121536868Y-151181581D01*
X121616959Y-151261672D01*
X121711135Y-151324598D01*
X121815779Y-151367943D01*
X121926867Y-151390040D01*
X122040133Y-151390040D01*
X122151221Y-151367943D01*
X122255865Y-151324598D01*
X122350041Y-151261672D01*
X122430132Y-151181581D01*
X122493058Y-151087405D01*
X122536403Y-150982761D01*
X122558500Y-150871673D01*
X122558500Y-150758407D01*
X122536403Y-150647319D01*
X122527059Y-150624760D01*
X123015286Y-150624760D01*
X122983807Y-150700757D01*
%TD*%
M02*
