%TF.GenerationSoftware,KiCad,Pcbnew,(5.1.8)-1*%
%TF.CreationDate,2020-12-26T13:36:22+08:00*%
%TF.ProjectId,NRF52840,4e524635-3238-4343-902e-6b696361645f,rev?*%
%TF.SameCoordinates,Original*%
%TF.FileFunction,Copper,L2,Bot*%
%TF.FilePolarity,Positive*%
%FSLAX46Y46*%
G04 Gerber Fmt 4.6, Leading zero omitted, Abs format (unit mm)*
G04 Created by KiCad (PCBNEW (5.1.8)-1) date 2020-12-26 13:36:22*
%MOMM*%
%LPD*%
G01*
G04 APERTURE LIST*
%TA.AperFunction,ComponentPad*%
%ADD10O,1.500000X0.800000*%
%TD*%
%TA.AperFunction,ComponentPad*%
%ADD11O,0.800000X1.500000*%
%TD*%
%TA.AperFunction,ComponentPad*%
%ADD12R,0.500000X0.900000*%
%TD*%
%TA.AperFunction,ViaPad*%
%ADD13C,0.600000*%
%TD*%
%TA.AperFunction,ViaPad*%
%ADD14C,0.800000*%
%TD*%
%TA.AperFunction,Conductor*%
%ADD15C,0.250000*%
%TD*%
%TA.AperFunction,Conductor*%
%ADD16C,0.150000*%
%TD*%
%TA.AperFunction,Conductor*%
%ADD17C,0.100000*%
%TD*%
G04 APERTURE END LIST*
D10*
%TO.P,J3,12*%
%TO.N,P0.3*%
X115512680Y-113726340D03*
%TO.P,J3,11*%
%TO.N,P0.4*%
X115512680Y-114996340D03*
%TO.P,J3,10*%
%TO.N,P0.5*%
X115512680Y-116266340D03*
%TO.P,J3,9*%
%TO.N,P0.6*%
X115512680Y-117536340D03*
%TO.P,J3,8*%
%TO.N,P0.7*%
X115512680Y-118806340D03*
%TO.P,J3,7*%
%TO.N,P0.8*%
X115512680Y-120076340D03*
%TO.P,J3,6*%
%TO.N,P0.9*%
X115512680Y-121346340D03*
%TO.P,J3,5*%
%TO.N,P0.10*%
X115512680Y-122616340D03*
%TO.P,J3,4*%
%TO.N,+3V3*%
X115512680Y-123886340D03*
%TO.P,J3,3*%
%TO.N,P0.11*%
X115512680Y-125156340D03*
%TO.P,J3,2*%
%TO.N,P0.12*%
X115512680Y-126426340D03*
%TO.P,J3,1*%
%TO.N,P0.13*%
X115512680Y-127696340D03*
%TD*%
D11*
%TO.P,J4,2*%
%TO.N,GND*%
X137497680Y-129466340D03*
%TO.P,J4,1*%
X136227680Y-129466340D03*
%TD*%
%TO.P,J1,14*%
%TO.N,P0.14*%
X117172680Y-129366340D03*
%TO.P,J1,13*%
%TO.N,P0.15*%
X118442680Y-129366340D03*
%TO.P,J1,12*%
%TO.N,P0.16*%
X119712680Y-129366340D03*
%TO.P,J1,11*%
%TO.N,P0.17*%
X120982680Y-129366340D03*
%TO.P,J1,10*%
%TO.N,P0.18*%
X122252680Y-129366340D03*
%TO.P,J1,9*%
%TO.N,P0.19*%
X123522680Y-129366340D03*
%TO.P,J1,8*%
%TO.N,P0.20*%
X124792680Y-129366340D03*
%TO.P,J1,7*%
%TO.N,P0.21*%
X126062680Y-129366340D03*
%TO.P,J1,6*%
%TO.N,SWDCLK*%
X127332680Y-129366340D03*
%TO.P,J1,5*%
%TO.N,SWDIO*%
X128602680Y-129366340D03*
%TO.P,J1,4*%
%TO.N,P0.22*%
X129872680Y-129366340D03*
%TO.P,J1,3*%
%TO.N,P0.23*%
X131142680Y-129366340D03*
%TO.P,J1,2*%
%TO.N,P0.24*%
X132412680Y-129366340D03*
%TO.P,J1,1*%
%TO.N,GND*%
X133682680Y-129366340D03*
%TD*%
%TO.P,J5,2*%
%TO.N,GND*%
X137497680Y-111966340D03*
%TO.P,J5,1*%
X136227680Y-111966340D03*
%TD*%
%TO.P,J2,14*%
%TO.N,P0.2*%
X117172680Y-112066340D03*
%TO.P,J2,13*%
%TO.N,GND*%
X118442680Y-112066340D03*
%TO.P,J2,12*%
%TO.N,+3V3*%
X119712680Y-112066340D03*
%TO.P,J2,11*%
%TO.N,GND*%
X120982680Y-112066340D03*
%TO.P,J2,10*%
X122252680Y-112066340D03*
%TO.P,J2,9*%
X123522680Y-112066340D03*
%TO.P,J2,8*%
%TO.N,P0.31*%
X124792680Y-112066340D03*
%TO.P,J2,7*%
%TO.N,P0.30*%
X126062680Y-112066340D03*
%TO.P,J2,6*%
%TO.N,P0.29*%
X127332680Y-112066340D03*
%TO.P,J2,5*%
%TO.N,P0.28*%
X128602680Y-112066340D03*
%TO.P,J2,4*%
%TO.N,P0.27*%
X129872680Y-112066340D03*
%TO.P,J2,3*%
%TO.N,P0.26*%
X131142680Y-112066340D03*
%TO.P,J2,2*%
%TO.N,P0.25*%
X132412680Y-112066340D03*
%TO.P,J2,1*%
%TO.N,+3V3*%
X133682680Y-112066340D03*
%TD*%
D12*
%TO.P,AE1,2*%
%TO.N,GND*%
X138312680Y-127316340D03*
%TD*%
D13*
%TO.N,GND*%
X125762680Y-123126340D03*
X128122680Y-121989672D03*
X126899346Y-121989672D03*
X125762680Y-121989672D03*
X126899346Y-120853006D03*
X125762680Y-119716340D03*
X126899346Y-119716340D03*
X128122680Y-119716340D03*
X128122680Y-120853006D03*
X128122680Y-123126340D03*
X126899346Y-123126340D03*
X125762680Y-120853006D03*
X124582680Y-123126340D03*
X124582680Y-121989672D03*
X124582680Y-120853006D03*
X124582680Y-119716340D03*
X137412680Y-127196340D03*
X125532680Y-117396340D03*
X121892680Y-114546340D03*
X118952680Y-114656340D03*
X119902680Y-118816340D03*
X119342680Y-122266340D03*
X121222680Y-125576340D03*
X133672680Y-126156340D03*
X136166012Y-127196340D03*
X121112680Y-113946340D03*
X138222680Y-114336340D03*
X138222680Y-115411895D03*
X138222680Y-116487450D03*
X138222680Y-117563005D03*
X138222680Y-118638560D03*
X138222680Y-119714115D03*
X138222680Y-120789670D03*
X138222680Y-121865225D03*
X138222680Y-122940780D03*
X138222680Y-124016340D03*
X134852680Y-124646340D03*
X135652680Y-125476340D03*
X134919346Y-127196340D03*
X133702680Y-123726340D03*
X135252680Y-119716340D03*
X136282680Y-119736340D03*
X137272680Y-119756340D03*
X130372680Y-125096340D03*
X130442680Y-126136340D03*
X129282680Y-126586340D03*
X130552680Y-117666340D03*
X121332680Y-120696340D03*
X117312680Y-125856340D03*
X138422680Y-128526340D03*
X136242680Y-114546340D03*
X135082680Y-113986340D03*
D14*
X115803680Y-112448340D03*
X115803680Y-128831340D03*
D13*
%TO.N,+3V3*%
X123182680Y-118136340D03*
X123282680Y-125616340D03*
X129282680Y-117551340D03*
%TD*%
D15*
%TO.N,GND*%
X118432680Y-112276350D02*
X118442680Y-112266350D01*
X121112680Y-112396350D02*
X120982680Y-112266350D01*
%TO.N,+3V3*%
X123182680Y-125516340D02*
X123282680Y-125616340D01*
X123182680Y-118136340D02*
X123182680Y-125516340D01*
X123182680Y-118136340D02*
X119692680Y-114646340D01*
X119692680Y-112266350D02*
X119712680Y-112266350D01*
X119692680Y-114646340D02*
X119692680Y-112266350D01*
X128902680Y-118136340D02*
X123182680Y-118136340D01*
X129282680Y-117551340D02*
X128902680Y-118136340D01*
%TD*%
D16*
%TO.N,GND*%
X116668422Y-111266773D02*
X116608723Y-111339516D01*
X116546045Y-111456779D01*
X116507447Y-111584017D01*
X116497680Y-111683181D01*
X116497680Y-112449498D01*
X116507447Y-112548662D01*
X116546044Y-112675900D01*
X116608722Y-112793163D01*
X116693074Y-112895945D01*
X116795856Y-112980298D01*
X116913119Y-113042976D01*
X117040357Y-113081573D01*
X117172680Y-113094606D01*
X117305002Y-113081573D01*
X117432240Y-113042976D01*
X117549503Y-112980298D01*
X117652285Y-112895946D01*
X117676426Y-112866531D01*
X117701255Y-112912866D01*
X117812369Y-113047970D01*
X117947705Y-113158801D01*
X118135720Y-113235730D01*
X118267680Y-113152063D01*
X118267680Y-112241340D01*
X118247680Y-112241340D01*
X118247680Y-111891340D01*
X118267680Y-111891340D01*
X118267680Y-111871340D01*
X118617680Y-111871340D01*
X118617680Y-111891340D01*
X118637680Y-111891340D01*
X118637680Y-112241340D01*
X118617680Y-112241340D01*
X118617680Y-113152063D01*
X118749640Y-113235730D01*
X118937655Y-113158801D01*
X119072991Y-113047970D01*
X119184105Y-112912866D01*
X119208934Y-112866531D01*
X119233074Y-112895945D01*
X119292681Y-112944864D01*
X119292680Y-114626693D01*
X119290745Y-114646340D01*
X119292680Y-114665986D01*
X119298468Y-114724753D01*
X119321340Y-114800153D01*
X119358483Y-114869642D01*
X119408469Y-114930551D01*
X119423732Y-114943077D01*
X122607680Y-118127026D01*
X122607680Y-118192973D01*
X122629777Y-118304061D01*
X122673122Y-118408705D01*
X122736048Y-118502881D01*
X122782680Y-118549513D01*
X122782681Y-125329669D01*
X122773122Y-125343975D01*
X122729777Y-125448619D01*
X122707680Y-125559707D01*
X122707680Y-125672973D01*
X122729777Y-125784061D01*
X122773122Y-125888705D01*
X122836048Y-125982881D01*
X122916139Y-126062972D01*
X123010315Y-126125898D01*
X123114959Y-126169243D01*
X123226047Y-126191340D01*
X123339313Y-126191340D01*
X123450401Y-126169243D01*
X123555045Y-126125898D01*
X123649221Y-126062972D01*
X123729312Y-125982881D01*
X123792238Y-125888705D01*
X123835583Y-125784061D01*
X123857680Y-125672973D01*
X123857680Y-125559707D01*
X123835583Y-125448619D01*
X123792238Y-125343975D01*
X123729312Y-125249799D01*
X123649221Y-125169708D01*
X123582680Y-125125247D01*
X123582680Y-118549513D01*
X123595853Y-118536340D01*
X128885636Y-118536340D01*
X128907894Y-118538241D01*
X128944436Y-118534162D01*
X128981094Y-118530552D01*
X128983603Y-118529791D01*
X128986201Y-118529501D01*
X129021200Y-118518386D01*
X129056494Y-118507680D01*
X129058810Y-118506442D01*
X129061298Y-118505652D01*
X129093456Y-118487923D01*
X129125983Y-118470537D01*
X129128010Y-118468873D01*
X129130300Y-118467611D01*
X129158422Y-118443915D01*
X129186891Y-118420551D01*
X129188552Y-118418527D01*
X129190554Y-118416840D01*
X129213501Y-118388127D01*
X129236877Y-118359643D01*
X129247414Y-118339930D01*
X129393107Y-118115640D01*
X129450401Y-118104243D01*
X129555045Y-118060898D01*
X129649221Y-117997972D01*
X129729312Y-117917881D01*
X129792238Y-117823705D01*
X129835583Y-117719061D01*
X129857680Y-117607973D01*
X129857680Y-117494707D01*
X129835583Y-117383619D01*
X129792238Y-117278975D01*
X129729312Y-117184799D01*
X129649221Y-117104708D01*
X129555045Y-117041782D01*
X129450401Y-116998437D01*
X129339313Y-116976340D01*
X129226047Y-116976340D01*
X129114959Y-116998437D01*
X129010315Y-117041782D01*
X128916139Y-117104708D01*
X128836048Y-117184799D01*
X128773122Y-117278975D01*
X128729777Y-117383619D01*
X128707680Y-117494707D01*
X128707680Y-117607973D01*
X128722035Y-117680139D01*
X128685528Y-117736340D01*
X123595853Y-117736340D01*
X123549221Y-117689708D01*
X123455045Y-117626782D01*
X123350401Y-117583437D01*
X123239313Y-117561340D01*
X123173366Y-117561340D01*
X120092680Y-114480655D01*
X120092680Y-112977691D01*
X120192285Y-112895946D01*
X120216426Y-112866531D01*
X120241255Y-112912866D01*
X120352369Y-113047970D01*
X120487705Y-113158801D01*
X120675720Y-113235730D01*
X120807680Y-113152063D01*
X120807680Y-112241340D01*
X121157680Y-112241340D01*
X121157680Y-113152063D01*
X121289640Y-113235730D01*
X121477655Y-113158801D01*
X121612991Y-113047970D01*
X121617680Y-113042269D01*
X121622369Y-113047970D01*
X121757705Y-113158801D01*
X121945720Y-113235730D01*
X122077680Y-113152063D01*
X122077680Y-112241340D01*
X122427680Y-112241340D01*
X122427680Y-113152063D01*
X122559640Y-113235730D01*
X122747655Y-113158801D01*
X122882991Y-113047970D01*
X122887680Y-113042269D01*
X122892369Y-113047970D01*
X123027705Y-113158801D01*
X123215720Y-113235730D01*
X123347680Y-113152063D01*
X123347680Y-112241340D01*
X122427680Y-112241340D01*
X122077680Y-112241340D01*
X121157680Y-112241340D01*
X120807680Y-112241340D01*
X120787680Y-112241340D01*
X120787680Y-111891340D01*
X120807680Y-111891340D01*
X120807680Y-111871340D01*
X121157680Y-111871340D01*
X121157680Y-111891340D01*
X122077680Y-111891340D01*
X122077680Y-111871340D01*
X122427680Y-111871340D01*
X122427680Y-111891340D01*
X123347680Y-111891340D01*
X123347680Y-111871340D01*
X123697680Y-111871340D01*
X123697680Y-111891340D01*
X123717680Y-111891340D01*
X123717680Y-112241340D01*
X123697680Y-112241340D01*
X123697680Y-113152063D01*
X123829640Y-113235730D01*
X124017655Y-113158801D01*
X124152991Y-113047970D01*
X124264105Y-112912866D01*
X124288934Y-112866531D01*
X124313074Y-112895945D01*
X124415856Y-112980298D01*
X124533119Y-113042976D01*
X124660357Y-113081573D01*
X124792680Y-113094606D01*
X124925002Y-113081573D01*
X125052240Y-113042976D01*
X125169503Y-112980298D01*
X125272285Y-112895946D01*
X125356638Y-112793164D01*
X125419316Y-112675901D01*
X125427680Y-112648328D01*
X125436044Y-112675900D01*
X125498722Y-112793163D01*
X125583074Y-112895945D01*
X125685856Y-112980298D01*
X125803119Y-113042976D01*
X125930357Y-113081573D01*
X126062680Y-113094606D01*
X126195002Y-113081573D01*
X126322240Y-113042976D01*
X126439503Y-112980298D01*
X126542285Y-112895946D01*
X126626638Y-112793164D01*
X126689316Y-112675901D01*
X126697680Y-112648328D01*
X126706044Y-112675900D01*
X126768722Y-112793163D01*
X126853074Y-112895945D01*
X126955856Y-112980298D01*
X127073119Y-113042976D01*
X127200357Y-113081573D01*
X127332680Y-113094606D01*
X127465002Y-113081573D01*
X127592240Y-113042976D01*
X127709503Y-112980298D01*
X127812285Y-112895946D01*
X127896638Y-112793164D01*
X127959316Y-112675901D01*
X127967680Y-112648328D01*
X127976044Y-112675900D01*
X128038722Y-112793163D01*
X128123074Y-112895945D01*
X128225856Y-112980298D01*
X128343119Y-113042976D01*
X128470357Y-113081573D01*
X128602680Y-113094606D01*
X128735002Y-113081573D01*
X128862240Y-113042976D01*
X128979503Y-112980298D01*
X129082285Y-112895946D01*
X129166638Y-112793164D01*
X129229316Y-112675901D01*
X129237680Y-112648328D01*
X129246044Y-112675900D01*
X129308722Y-112793163D01*
X129393074Y-112895945D01*
X129495856Y-112980298D01*
X129613119Y-113042976D01*
X129740357Y-113081573D01*
X129872680Y-113094606D01*
X130005002Y-113081573D01*
X130132240Y-113042976D01*
X130249503Y-112980298D01*
X130352285Y-112895946D01*
X130436638Y-112793164D01*
X130499316Y-112675901D01*
X130507680Y-112648328D01*
X130516044Y-112675900D01*
X130578722Y-112793163D01*
X130663074Y-112895945D01*
X130765856Y-112980298D01*
X130883119Y-113042976D01*
X131010357Y-113081573D01*
X131142680Y-113094606D01*
X131275002Y-113081573D01*
X131402240Y-113042976D01*
X131519503Y-112980298D01*
X131622285Y-112895946D01*
X131706638Y-112793164D01*
X131769316Y-112675901D01*
X131777680Y-112648328D01*
X131786044Y-112675900D01*
X131848722Y-112793163D01*
X131933074Y-112895945D01*
X132035856Y-112980298D01*
X132153119Y-113042976D01*
X132280357Y-113081573D01*
X132412680Y-113094606D01*
X132545002Y-113081573D01*
X132672240Y-113042976D01*
X132789503Y-112980298D01*
X132892285Y-112895946D01*
X132976638Y-112793164D01*
X133039316Y-112675901D01*
X133047680Y-112648328D01*
X133056044Y-112675900D01*
X133118722Y-112793163D01*
X133203074Y-112895945D01*
X133305856Y-112980298D01*
X133423119Y-113042976D01*
X133550357Y-113081573D01*
X133682680Y-113094606D01*
X133815002Y-113081573D01*
X133942240Y-113042976D01*
X134059503Y-112980298D01*
X134162285Y-112895946D01*
X134246638Y-112793164D01*
X134309316Y-112675901D01*
X134347913Y-112548663D01*
X134357680Y-112449499D01*
X134357680Y-112141340D01*
X135352680Y-112141340D01*
X135352680Y-112491340D01*
X135403634Y-112658681D01*
X135486255Y-112812866D01*
X135597369Y-112947970D01*
X135732705Y-113058801D01*
X135920720Y-113135730D01*
X136052680Y-113052063D01*
X136052680Y-112141340D01*
X136402680Y-112141340D01*
X136402680Y-113052063D01*
X136534640Y-113135730D01*
X136722655Y-113058801D01*
X136857991Y-112947970D01*
X136862680Y-112942269D01*
X136867369Y-112947970D01*
X137002705Y-113058801D01*
X137190720Y-113135730D01*
X137322680Y-113052063D01*
X137322680Y-112141340D01*
X137672680Y-112141340D01*
X137672680Y-113052063D01*
X137804640Y-113135730D01*
X137992655Y-113058801D01*
X138127991Y-112947970D01*
X138239105Y-112812866D01*
X138321726Y-112658681D01*
X138372680Y-112491340D01*
X138372680Y-112141340D01*
X137672680Y-112141340D01*
X137322680Y-112141340D01*
X136402680Y-112141340D01*
X136052680Y-112141340D01*
X135352680Y-112141340D01*
X134357680Y-112141340D01*
X134357680Y-111683181D01*
X134347913Y-111584017D01*
X134309316Y-111456779D01*
X134246638Y-111339516D01*
X134187071Y-111266934D01*
X135407414Y-111266946D01*
X135403634Y-111273999D01*
X135352680Y-111441340D01*
X135352680Y-111791340D01*
X136052680Y-111791340D01*
X136052680Y-111771340D01*
X136402680Y-111771340D01*
X136402680Y-111791340D01*
X137322680Y-111791340D01*
X137322680Y-111771340D01*
X137672680Y-111771340D01*
X137672680Y-111791340D01*
X138372680Y-111791340D01*
X138372680Y-111441340D01*
X138321726Y-111273999D01*
X138317961Y-111266973D01*
X138681235Y-111266976D01*
X138668883Y-130166339D01*
X138317623Y-130166339D01*
X138321726Y-130158681D01*
X138372680Y-129991340D01*
X138372680Y-129641340D01*
X137672680Y-129641340D01*
X137672680Y-129661340D01*
X137322680Y-129661340D01*
X137322680Y-129641340D01*
X136402680Y-129641340D01*
X136402680Y-129661340D01*
X136052680Y-129661340D01*
X136052680Y-129641340D01*
X135352680Y-129641340D01*
X135352680Y-129991340D01*
X135403634Y-130158681D01*
X135407738Y-130166339D01*
X134449037Y-130166339D01*
X134506726Y-130058681D01*
X134557680Y-129891340D01*
X134557680Y-129541340D01*
X133857680Y-129541340D01*
X133857680Y-129561340D01*
X133507680Y-129561340D01*
X133507680Y-129541340D01*
X133487680Y-129541340D01*
X133487680Y-129191340D01*
X133507680Y-129191340D01*
X133507680Y-128280617D01*
X133857680Y-128280617D01*
X133857680Y-129191340D01*
X134557680Y-129191340D01*
X134557680Y-128941340D01*
X135352680Y-128941340D01*
X135352680Y-129291340D01*
X136052680Y-129291340D01*
X136052680Y-128380617D01*
X136402680Y-128380617D01*
X136402680Y-129291340D01*
X137322680Y-129291340D01*
X137322680Y-128380617D01*
X137672680Y-128380617D01*
X137672680Y-129291340D01*
X138372680Y-129291340D01*
X138372680Y-128941340D01*
X138321726Y-128773999D01*
X138239105Y-128619814D01*
X138127991Y-128484710D01*
X137992655Y-128373879D01*
X137804640Y-128296950D01*
X137672680Y-128380617D01*
X137322680Y-128380617D01*
X137190720Y-128296950D01*
X137002705Y-128373879D01*
X136867369Y-128484710D01*
X136862680Y-128490411D01*
X136857991Y-128484710D01*
X136722655Y-128373879D01*
X136534640Y-128296950D01*
X136402680Y-128380617D01*
X136052680Y-128380617D01*
X135920720Y-128296950D01*
X135732705Y-128373879D01*
X135597369Y-128484710D01*
X135486255Y-128619814D01*
X135403634Y-128773999D01*
X135352680Y-128941340D01*
X134557680Y-128941340D01*
X134557680Y-128841340D01*
X134506726Y-128673999D01*
X134424105Y-128519814D01*
X134312991Y-128384710D01*
X134177655Y-128273879D01*
X133989640Y-128196950D01*
X133857680Y-128280617D01*
X133507680Y-128280617D01*
X133375720Y-128196950D01*
X133187705Y-128273879D01*
X133052369Y-128384710D01*
X132941255Y-128519814D01*
X132916426Y-128566149D01*
X132892286Y-128536734D01*
X132789504Y-128452382D01*
X132672241Y-128389704D01*
X132545003Y-128351107D01*
X132412680Y-128338074D01*
X132280358Y-128351107D01*
X132153120Y-128389704D01*
X132035857Y-128452382D01*
X131933075Y-128536734D01*
X131848723Y-128639516D01*
X131786045Y-128756779D01*
X131777680Y-128784353D01*
X131769316Y-128756779D01*
X131706638Y-128639516D01*
X131622286Y-128536734D01*
X131519504Y-128452382D01*
X131402241Y-128389704D01*
X131275003Y-128351107D01*
X131142680Y-128338074D01*
X131010358Y-128351107D01*
X130883120Y-128389704D01*
X130765857Y-128452382D01*
X130663075Y-128536734D01*
X130578723Y-128639516D01*
X130516045Y-128756779D01*
X130507680Y-128784353D01*
X130499316Y-128756779D01*
X130436638Y-128639516D01*
X130352286Y-128536734D01*
X130249504Y-128452382D01*
X130132241Y-128389704D01*
X130005003Y-128351107D01*
X129872680Y-128338074D01*
X129740358Y-128351107D01*
X129613120Y-128389704D01*
X129495857Y-128452382D01*
X129393075Y-128536734D01*
X129308723Y-128639516D01*
X129246045Y-128756779D01*
X129237680Y-128784353D01*
X129229316Y-128756779D01*
X129166638Y-128639516D01*
X129082286Y-128536734D01*
X128979504Y-128452382D01*
X128862241Y-128389704D01*
X128735003Y-128351107D01*
X128602680Y-128338074D01*
X128470358Y-128351107D01*
X128343120Y-128389704D01*
X128225857Y-128452382D01*
X128123075Y-128536734D01*
X128038723Y-128639516D01*
X127976045Y-128756779D01*
X127967680Y-128784353D01*
X127959316Y-128756779D01*
X127896638Y-128639516D01*
X127812286Y-128536734D01*
X127709504Y-128452382D01*
X127592241Y-128389704D01*
X127465003Y-128351107D01*
X127332680Y-128338074D01*
X127200358Y-128351107D01*
X127073120Y-128389704D01*
X126955857Y-128452382D01*
X126853075Y-128536734D01*
X126768723Y-128639516D01*
X126706045Y-128756779D01*
X126697680Y-128784353D01*
X126689316Y-128756779D01*
X126626638Y-128639516D01*
X126542286Y-128536734D01*
X126439504Y-128452382D01*
X126322241Y-128389704D01*
X126195003Y-128351107D01*
X126062680Y-128338074D01*
X125930358Y-128351107D01*
X125803120Y-128389704D01*
X125685857Y-128452382D01*
X125583075Y-128536734D01*
X125498723Y-128639516D01*
X125436045Y-128756779D01*
X125427680Y-128784353D01*
X125419316Y-128756779D01*
X125356638Y-128639516D01*
X125272286Y-128536734D01*
X125169504Y-128452382D01*
X125052241Y-128389704D01*
X124925003Y-128351107D01*
X124792680Y-128338074D01*
X124660358Y-128351107D01*
X124533120Y-128389704D01*
X124415857Y-128452382D01*
X124313075Y-128536734D01*
X124228723Y-128639516D01*
X124166045Y-128756779D01*
X124157680Y-128784353D01*
X124149316Y-128756779D01*
X124086638Y-128639516D01*
X124002286Y-128536734D01*
X123899504Y-128452382D01*
X123782241Y-128389704D01*
X123655003Y-128351107D01*
X123522680Y-128338074D01*
X123390358Y-128351107D01*
X123263120Y-128389704D01*
X123145857Y-128452382D01*
X123043075Y-128536734D01*
X122958723Y-128639516D01*
X122896045Y-128756779D01*
X122887680Y-128784353D01*
X122879316Y-128756779D01*
X122816638Y-128639516D01*
X122732286Y-128536734D01*
X122629504Y-128452382D01*
X122512241Y-128389704D01*
X122385003Y-128351107D01*
X122252680Y-128338074D01*
X122120358Y-128351107D01*
X121993120Y-128389704D01*
X121875857Y-128452382D01*
X121773075Y-128536734D01*
X121688723Y-128639516D01*
X121626045Y-128756779D01*
X121617680Y-128784353D01*
X121609316Y-128756779D01*
X121546638Y-128639516D01*
X121462286Y-128536734D01*
X121359504Y-128452382D01*
X121242241Y-128389704D01*
X121115003Y-128351107D01*
X120982680Y-128338074D01*
X120850358Y-128351107D01*
X120723120Y-128389704D01*
X120605857Y-128452382D01*
X120503075Y-128536734D01*
X120418723Y-128639516D01*
X120356045Y-128756779D01*
X120347680Y-128784353D01*
X120339316Y-128756779D01*
X120276638Y-128639516D01*
X120192286Y-128536734D01*
X120089504Y-128452382D01*
X119972241Y-128389704D01*
X119845003Y-128351107D01*
X119712680Y-128338074D01*
X119580358Y-128351107D01*
X119453120Y-128389704D01*
X119335857Y-128452382D01*
X119233075Y-128536734D01*
X119148723Y-128639516D01*
X119086045Y-128756779D01*
X119077680Y-128784353D01*
X119069316Y-128756779D01*
X119006638Y-128639516D01*
X118922286Y-128536734D01*
X118819504Y-128452382D01*
X118702241Y-128389704D01*
X118575003Y-128351107D01*
X118442680Y-128338074D01*
X118310358Y-128351107D01*
X118183120Y-128389704D01*
X118065857Y-128452382D01*
X117963075Y-128536734D01*
X117878723Y-128639516D01*
X117816045Y-128756779D01*
X117807680Y-128784353D01*
X117799316Y-128756779D01*
X117736638Y-128639516D01*
X117652286Y-128536734D01*
X117549504Y-128452382D01*
X117432241Y-128389704D01*
X117305003Y-128351107D01*
X117172680Y-128338074D01*
X117040358Y-128351107D01*
X116913120Y-128389704D01*
X116795857Y-128452382D01*
X116693075Y-128536734D01*
X116608723Y-128639516D01*
X116546045Y-128756779D01*
X116507447Y-128884017D01*
X116497680Y-128983181D01*
X116497680Y-129749498D01*
X116507447Y-129848662D01*
X116546044Y-129975900D01*
X116608722Y-130093163D01*
X116668778Y-130166341D01*
X115158797Y-130166341D01*
X115058081Y-130159332D01*
X114978971Y-130137868D01*
X114905551Y-130101452D01*
X114840595Y-130051464D01*
X114786586Y-129989812D01*
X114745582Y-129918848D01*
X114719142Y-129841263D01*
X114706776Y-129748829D01*
X114706615Y-129735746D01*
X114706403Y-128195092D01*
X114785856Y-128260298D01*
X114903119Y-128322976D01*
X115030357Y-128361573D01*
X115129521Y-128371340D01*
X115895839Y-128371340D01*
X115995003Y-128361573D01*
X116122241Y-128322976D01*
X116239504Y-128260298D01*
X116342286Y-128175946D01*
X116426638Y-128073164D01*
X116489316Y-127955901D01*
X116527913Y-127828663D01*
X116540946Y-127696340D01*
X116527913Y-127564017D01*
X116489316Y-127436779D01*
X116426638Y-127319516D01*
X116342286Y-127216734D01*
X116239504Y-127132382D01*
X116122241Y-127069704D01*
X116094668Y-127061340D01*
X116122241Y-127052976D01*
X116239504Y-126990298D01*
X116342286Y-126905946D01*
X116426638Y-126803164D01*
X116489316Y-126685901D01*
X116527913Y-126558663D01*
X116540946Y-126426340D01*
X116527913Y-126294017D01*
X116489316Y-126166779D01*
X116426638Y-126049516D01*
X116342286Y-125946734D01*
X116239504Y-125862382D01*
X116122241Y-125799704D01*
X116094668Y-125791340D01*
X116122241Y-125782976D01*
X116239504Y-125720298D01*
X116342286Y-125635946D01*
X116426638Y-125533164D01*
X116489316Y-125415901D01*
X116527913Y-125288663D01*
X116540946Y-125156340D01*
X116527913Y-125024017D01*
X116489316Y-124896779D01*
X116426638Y-124779516D01*
X116342286Y-124676734D01*
X116239504Y-124592382D01*
X116122241Y-124529704D01*
X116094668Y-124521340D01*
X116122241Y-124512976D01*
X116239504Y-124450298D01*
X116342286Y-124365946D01*
X116426638Y-124263164D01*
X116489316Y-124145901D01*
X116527913Y-124018663D01*
X116540946Y-123886340D01*
X116527913Y-123754017D01*
X116489316Y-123626779D01*
X116426638Y-123509516D01*
X116342286Y-123406734D01*
X116239504Y-123322382D01*
X116122241Y-123259704D01*
X116094668Y-123251340D01*
X116122241Y-123242976D01*
X116239504Y-123180298D01*
X116342286Y-123095946D01*
X116426638Y-122993164D01*
X116489316Y-122875901D01*
X116527913Y-122748663D01*
X116540946Y-122616340D01*
X116527913Y-122484017D01*
X116489316Y-122356779D01*
X116426638Y-122239516D01*
X116342286Y-122136734D01*
X116239504Y-122052382D01*
X116122241Y-121989704D01*
X116094668Y-121981340D01*
X116122241Y-121972976D01*
X116239504Y-121910298D01*
X116342286Y-121825946D01*
X116426638Y-121723164D01*
X116489316Y-121605901D01*
X116527913Y-121478663D01*
X116540946Y-121346340D01*
X116527913Y-121214017D01*
X116489316Y-121086779D01*
X116426638Y-120969516D01*
X116342286Y-120866734D01*
X116239504Y-120782382D01*
X116122241Y-120719704D01*
X116094668Y-120711340D01*
X116122241Y-120702976D01*
X116239504Y-120640298D01*
X116342286Y-120555946D01*
X116426638Y-120453164D01*
X116489316Y-120335901D01*
X116527913Y-120208663D01*
X116540946Y-120076340D01*
X116527913Y-119944017D01*
X116489316Y-119816779D01*
X116426638Y-119699516D01*
X116342286Y-119596734D01*
X116239504Y-119512382D01*
X116122241Y-119449704D01*
X116094668Y-119441340D01*
X116122241Y-119432976D01*
X116239504Y-119370298D01*
X116342286Y-119285946D01*
X116426638Y-119183164D01*
X116489316Y-119065901D01*
X116527913Y-118938663D01*
X116540946Y-118806340D01*
X116527913Y-118674017D01*
X116489316Y-118546779D01*
X116426638Y-118429516D01*
X116342286Y-118326734D01*
X116239504Y-118242382D01*
X116122241Y-118179704D01*
X116094668Y-118171340D01*
X116122241Y-118162976D01*
X116239504Y-118100298D01*
X116342286Y-118015946D01*
X116426638Y-117913164D01*
X116489316Y-117795901D01*
X116527913Y-117668663D01*
X116540946Y-117536340D01*
X116527913Y-117404017D01*
X116489316Y-117276779D01*
X116426638Y-117159516D01*
X116342286Y-117056734D01*
X116239504Y-116972382D01*
X116122241Y-116909704D01*
X116094668Y-116901340D01*
X116122241Y-116892976D01*
X116239504Y-116830298D01*
X116342286Y-116745946D01*
X116426638Y-116643164D01*
X116489316Y-116525901D01*
X116527913Y-116398663D01*
X116540946Y-116266340D01*
X116527913Y-116134017D01*
X116489316Y-116006779D01*
X116426638Y-115889516D01*
X116342286Y-115786734D01*
X116239504Y-115702382D01*
X116122241Y-115639704D01*
X116094668Y-115631340D01*
X116122241Y-115622976D01*
X116239504Y-115560298D01*
X116342286Y-115475946D01*
X116426638Y-115373164D01*
X116489316Y-115255901D01*
X116527913Y-115128663D01*
X116540946Y-114996340D01*
X116527913Y-114864017D01*
X116489316Y-114736779D01*
X116426638Y-114619516D01*
X116342286Y-114516734D01*
X116239504Y-114432382D01*
X116122241Y-114369704D01*
X116094668Y-114361340D01*
X116122241Y-114352976D01*
X116239504Y-114290298D01*
X116342286Y-114205946D01*
X116426638Y-114103164D01*
X116489316Y-113985901D01*
X116527913Y-113858663D01*
X116540946Y-113726340D01*
X116527913Y-113594017D01*
X116489316Y-113466779D01*
X116426638Y-113349516D01*
X116342286Y-113246734D01*
X116239504Y-113162382D01*
X116122241Y-113099704D01*
X115995003Y-113061107D01*
X115895839Y-113051340D01*
X115129521Y-113051340D01*
X115030357Y-113061107D01*
X114903119Y-113099704D01*
X114785856Y-113162382D01*
X114704347Y-113229275D01*
X114704143Y-111742934D01*
X114714000Y-111638776D01*
X114739548Y-111553115D01*
X114781249Y-111474042D01*
X114837511Y-111404580D01*
X114906198Y-111347365D01*
X114984682Y-111304585D01*
X115069986Y-111277863D01*
X115172305Y-111266759D01*
X116668422Y-111266773D01*
%TA.AperFunction,Conductor*%
D17*
G36*
X116668422Y-111266773D02*
G01*
X116608723Y-111339516D01*
X116546045Y-111456779D01*
X116507447Y-111584017D01*
X116497680Y-111683181D01*
X116497680Y-112449498D01*
X116507447Y-112548662D01*
X116546044Y-112675900D01*
X116608722Y-112793163D01*
X116693074Y-112895945D01*
X116795856Y-112980298D01*
X116913119Y-113042976D01*
X117040357Y-113081573D01*
X117172680Y-113094606D01*
X117305002Y-113081573D01*
X117432240Y-113042976D01*
X117549503Y-112980298D01*
X117652285Y-112895946D01*
X117676426Y-112866531D01*
X117701255Y-112912866D01*
X117812369Y-113047970D01*
X117947705Y-113158801D01*
X118135720Y-113235730D01*
X118267680Y-113152063D01*
X118267680Y-112241340D01*
X118247680Y-112241340D01*
X118247680Y-111891340D01*
X118267680Y-111891340D01*
X118267680Y-111871340D01*
X118617680Y-111871340D01*
X118617680Y-111891340D01*
X118637680Y-111891340D01*
X118637680Y-112241340D01*
X118617680Y-112241340D01*
X118617680Y-113152063D01*
X118749640Y-113235730D01*
X118937655Y-113158801D01*
X119072991Y-113047970D01*
X119184105Y-112912866D01*
X119208934Y-112866531D01*
X119233074Y-112895945D01*
X119292681Y-112944864D01*
X119292680Y-114626693D01*
X119290745Y-114646340D01*
X119292680Y-114665986D01*
X119298468Y-114724753D01*
X119321340Y-114800153D01*
X119358483Y-114869642D01*
X119408469Y-114930551D01*
X119423732Y-114943077D01*
X122607680Y-118127026D01*
X122607680Y-118192973D01*
X122629777Y-118304061D01*
X122673122Y-118408705D01*
X122736048Y-118502881D01*
X122782680Y-118549513D01*
X122782681Y-125329669D01*
X122773122Y-125343975D01*
X122729777Y-125448619D01*
X122707680Y-125559707D01*
X122707680Y-125672973D01*
X122729777Y-125784061D01*
X122773122Y-125888705D01*
X122836048Y-125982881D01*
X122916139Y-126062972D01*
X123010315Y-126125898D01*
X123114959Y-126169243D01*
X123226047Y-126191340D01*
X123339313Y-126191340D01*
X123450401Y-126169243D01*
X123555045Y-126125898D01*
X123649221Y-126062972D01*
X123729312Y-125982881D01*
X123792238Y-125888705D01*
X123835583Y-125784061D01*
X123857680Y-125672973D01*
X123857680Y-125559707D01*
X123835583Y-125448619D01*
X123792238Y-125343975D01*
X123729312Y-125249799D01*
X123649221Y-125169708D01*
X123582680Y-125125247D01*
X123582680Y-118549513D01*
X123595853Y-118536340D01*
X128885636Y-118536340D01*
X128907894Y-118538241D01*
X128944436Y-118534162D01*
X128981094Y-118530552D01*
X128983603Y-118529791D01*
X128986201Y-118529501D01*
X129021200Y-118518386D01*
X129056494Y-118507680D01*
X129058810Y-118506442D01*
X129061298Y-118505652D01*
X129093456Y-118487923D01*
X129125983Y-118470537D01*
X129128010Y-118468873D01*
X129130300Y-118467611D01*
X129158422Y-118443915D01*
X129186891Y-118420551D01*
X129188552Y-118418527D01*
X129190554Y-118416840D01*
X129213501Y-118388127D01*
X129236877Y-118359643D01*
X129247414Y-118339930D01*
X129393107Y-118115640D01*
X129450401Y-118104243D01*
X129555045Y-118060898D01*
X129649221Y-117997972D01*
X129729312Y-117917881D01*
X129792238Y-117823705D01*
X129835583Y-117719061D01*
X129857680Y-117607973D01*
X129857680Y-117494707D01*
X129835583Y-117383619D01*
X129792238Y-117278975D01*
X129729312Y-117184799D01*
X129649221Y-117104708D01*
X129555045Y-117041782D01*
X129450401Y-116998437D01*
X129339313Y-116976340D01*
X129226047Y-116976340D01*
X129114959Y-116998437D01*
X129010315Y-117041782D01*
X128916139Y-117104708D01*
X128836048Y-117184799D01*
X128773122Y-117278975D01*
X128729777Y-117383619D01*
X128707680Y-117494707D01*
X128707680Y-117607973D01*
X128722035Y-117680139D01*
X128685528Y-117736340D01*
X123595853Y-117736340D01*
X123549221Y-117689708D01*
X123455045Y-117626782D01*
X123350401Y-117583437D01*
X123239313Y-117561340D01*
X123173366Y-117561340D01*
X120092680Y-114480655D01*
X120092680Y-112977691D01*
X120192285Y-112895946D01*
X120216426Y-112866531D01*
X120241255Y-112912866D01*
X120352369Y-113047970D01*
X120487705Y-113158801D01*
X120675720Y-113235730D01*
X120807680Y-113152063D01*
X120807680Y-112241340D01*
X121157680Y-112241340D01*
X121157680Y-113152063D01*
X121289640Y-113235730D01*
X121477655Y-113158801D01*
X121612991Y-113047970D01*
X121617680Y-113042269D01*
X121622369Y-113047970D01*
X121757705Y-113158801D01*
X121945720Y-113235730D01*
X122077680Y-113152063D01*
X122077680Y-112241340D01*
X122427680Y-112241340D01*
X122427680Y-113152063D01*
X122559640Y-113235730D01*
X122747655Y-113158801D01*
X122882991Y-113047970D01*
X122887680Y-113042269D01*
X122892369Y-113047970D01*
X123027705Y-113158801D01*
X123215720Y-113235730D01*
X123347680Y-113152063D01*
X123347680Y-112241340D01*
X122427680Y-112241340D01*
X122077680Y-112241340D01*
X121157680Y-112241340D01*
X120807680Y-112241340D01*
X120787680Y-112241340D01*
X120787680Y-111891340D01*
X120807680Y-111891340D01*
X120807680Y-111871340D01*
X121157680Y-111871340D01*
X121157680Y-111891340D01*
X122077680Y-111891340D01*
X122077680Y-111871340D01*
X122427680Y-111871340D01*
X122427680Y-111891340D01*
X123347680Y-111891340D01*
X123347680Y-111871340D01*
X123697680Y-111871340D01*
X123697680Y-111891340D01*
X123717680Y-111891340D01*
X123717680Y-112241340D01*
X123697680Y-112241340D01*
X123697680Y-113152063D01*
X123829640Y-113235730D01*
X124017655Y-113158801D01*
X124152991Y-113047970D01*
X124264105Y-112912866D01*
X124288934Y-112866531D01*
X124313074Y-112895945D01*
X124415856Y-112980298D01*
X124533119Y-113042976D01*
X124660357Y-113081573D01*
X124792680Y-113094606D01*
X124925002Y-113081573D01*
X125052240Y-113042976D01*
X125169503Y-112980298D01*
X125272285Y-112895946D01*
X125356638Y-112793164D01*
X125419316Y-112675901D01*
X125427680Y-112648328D01*
X125436044Y-112675900D01*
X125498722Y-112793163D01*
X125583074Y-112895945D01*
X125685856Y-112980298D01*
X125803119Y-113042976D01*
X125930357Y-113081573D01*
X126062680Y-113094606D01*
X126195002Y-113081573D01*
X126322240Y-113042976D01*
X126439503Y-112980298D01*
X126542285Y-112895946D01*
X126626638Y-112793164D01*
X126689316Y-112675901D01*
X126697680Y-112648328D01*
X126706044Y-112675900D01*
X126768722Y-112793163D01*
X126853074Y-112895945D01*
X126955856Y-112980298D01*
X127073119Y-113042976D01*
X127200357Y-113081573D01*
X127332680Y-113094606D01*
X127465002Y-113081573D01*
X127592240Y-113042976D01*
X127709503Y-112980298D01*
X127812285Y-112895946D01*
X127896638Y-112793164D01*
X127959316Y-112675901D01*
X127967680Y-112648328D01*
X127976044Y-112675900D01*
X128038722Y-112793163D01*
X128123074Y-112895945D01*
X128225856Y-112980298D01*
X128343119Y-113042976D01*
X128470357Y-113081573D01*
X128602680Y-113094606D01*
X128735002Y-113081573D01*
X128862240Y-113042976D01*
X128979503Y-112980298D01*
X129082285Y-112895946D01*
X129166638Y-112793164D01*
X129229316Y-112675901D01*
X129237680Y-112648328D01*
X129246044Y-112675900D01*
X129308722Y-112793163D01*
X129393074Y-112895945D01*
X129495856Y-112980298D01*
X129613119Y-113042976D01*
X129740357Y-113081573D01*
X129872680Y-113094606D01*
X130005002Y-113081573D01*
X130132240Y-113042976D01*
X130249503Y-112980298D01*
X130352285Y-112895946D01*
X130436638Y-112793164D01*
X130499316Y-112675901D01*
X130507680Y-112648328D01*
X130516044Y-112675900D01*
X130578722Y-112793163D01*
X130663074Y-112895945D01*
X130765856Y-112980298D01*
X130883119Y-113042976D01*
X131010357Y-113081573D01*
X131142680Y-113094606D01*
X131275002Y-113081573D01*
X131402240Y-113042976D01*
X131519503Y-112980298D01*
X131622285Y-112895946D01*
X131706638Y-112793164D01*
X131769316Y-112675901D01*
X131777680Y-112648328D01*
X131786044Y-112675900D01*
X131848722Y-112793163D01*
X131933074Y-112895945D01*
X132035856Y-112980298D01*
X132153119Y-113042976D01*
X132280357Y-113081573D01*
X132412680Y-113094606D01*
X132545002Y-113081573D01*
X132672240Y-113042976D01*
X132789503Y-112980298D01*
X132892285Y-112895946D01*
X132976638Y-112793164D01*
X133039316Y-112675901D01*
X133047680Y-112648328D01*
X133056044Y-112675900D01*
X133118722Y-112793163D01*
X133203074Y-112895945D01*
X133305856Y-112980298D01*
X133423119Y-113042976D01*
X133550357Y-113081573D01*
X133682680Y-113094606D01*
X133815002Y-113081573D01*
X133942240Y-113042976D01*
X134059503Y-112980298D01*
X134162285Y-112895946D01*
X134246638Y-112793164D01*
X134309316Y-112675901D01*
X134347913Y-112548663D01*
X134357680Y-112449499D01*
X134357680Y-112141340D01*
X135352680Y-112141340D01*
X135352680Y-112491340D01*
X135403634Y-112658681D01*
X135486255Y-112812866D01*
X135597369Y-112947970D01*
X135732705Y-113058801D01*
X135920720Y-113135730D01*
X136052680Y-113052063D01*
X136052680Y-112141340D01*
X136402680Y-112141340D01*
X136402680Y-113052063D01*
X136534640Y-113135730D01*
X136722655Y-113058801D01*
X136857991Y-112947970D01*
X136862680Y-112942269D01*
X136867369Y-112947970D01*
X137002705Y-113058801D01*
X137190720Y-113135730D01*
X137322680Y-113052063D01*
X137322680Y-112141340D01*
X137672680Y-112141340D01*
X137672680Y-113052063D01*
X137804640Y-113135730D01*
X137992655Y-113058801D01*
X138127991Y-112947970D01*
X138239105Y-112812866D01*
X138321726Y-112658681D01*
X138372680Y-112491340D01*
X138372680Y-112141340D01*
X137672680Y-112141340D01*
X137322680Y-112141340D01*
X136402680Y-112141340D01*
X136052680Y-112141340D01*
X135352680Y-112141340D01*
X134357680Y-112141340D01*
X134357680Y-111683181D01*
X134347913Y-111584017D01*
X134309316Y-111456779D01*
X134246638Y-111339516D01*
X134187071Y-111266934D01*
X135407414Y-111266946D01*
X135403634Y-111273999D01*
X135352680Y-111441340D01*
X135352680Y-111791340D01*
X136052680Y-111791340D01*
X136052680Y-111771340D01*
X136402680Y-111771340D01*
X136402680Y-111791340D01*
X137322680Y-111791340D01*
X137322680Y-111771340D01*
X137672680Y-111771340D01*
X137672680Y-111791340D01*
X138372680Y-111791340D01*
X138372680Y-111441340D01*
X138321726Y-111273999D01*
X138317961Y-111266973D01*
X138681235Y-111266976D01*
X138668883Y-130166339D01*
X138317623Y-130166339D01*
X138321726Y-130158681D01*
X138372680Y-129991340D01*
X138372680Y-129641340D01*
X137672680Y-129641340D01*
X137672680Y-129661340D01*
X137322680Y-129661340D01*
X137322680Y-129641340D01*
X136402680Y-129641340D01*
X136402680Y-129661340D01*
X136052680Y-129661340D01*
X136052680Y-129641340D01*
X135352680Y-129641340D01*
X135352680Y-129991340D01*
X135403634Y-130158681D01*
X135407738Y-130166339D01*
X134449037Y-130166339D01*
X134506726Y-130058681D01*
X134557680Y-129891340D01*
X134557680Y-129541340D01*
X133857680Y-129541340D01*
X133857680Y-129561340D01*
X133507680Y-129561340D01*
X133507680Y-129541340D01*
X133487680Y-129541340D01*
X133487680Y-129191340D01*
X133507680Y-129191340D01*
X133507680Y-128280617D01*
X133857680Y-128280617D01*
X133857680Y-129191340D01*
X134557680Y-129191340D01*
X134557680Y-128941340D01*
X135352680Y-128941340D01*
X135352680Y-129291340D01*
X136052680Y-129291340D01*
X136052680Y-128380617D01*
X136402680Y-128380617D01*
X136402680Y-129291340D01*
X137322680Y-129291340D01*
X137322680Y-128380617D01*
X137672680Y-128380617D01*
X137672680Y-129291340D01*
X138372680Y-129291340D01*
X138372680Y-128941340D01*
X138321726Y-128773999D01*
X138239105Y-128619814D01*
X138127991Y-128484710D01*
X137992655Y-128373879D01*
X137804640Y-128296950D01*
X137672680Y-128380617D01*
X137322680Y-128380617D01*
X137190720Y-128296950D01*
X137002705Y-128373879D01*
X136867369Y-128484710D01*
X136862680Y-128490411D01*
X136857991Y-128484710D01*
X136722655Y-128373879D01*
X136534640Y-128296950D01*
X136402680Y-128380617D01*
X136052680Y-128380617D01*
X135920720Y-128296950D01*
X135732705Y-128373879D01*
X135597369Y-128484710D01*
X135486255Y-128619814D01*
X135403634Y-128773999D01*
X135352680Y-128941340D01*
X134557680Y-128941340D01*
X134557680Y-128841340D01*
X134506726Y-128673999D01*
X134424105Y-128519814D01*
X134312991Y-128384710D01*
X134177655Y-128273879D01*
X133989640Y-128196950D01*
X133857680Y-128280617D01*
X133507680Y-128280617D01*
X133375720Y-128196950D01*
X133187705Y-128273879D01*
X133052369Y-128384710D01*
X132941255Y-128519814D01*
X132916426Y-128566149D01*
X132892286Y-128536734D01*
X132789504Y-128452382D01*
X132672241Y-128389704D01*
X132545003Y-128351107D01*
X132412680Y-128338074D01*
X132280358Y-128351107D01*
X132153120Y-128389704D01*
X132035857Y-128452382D01*
X131933075Y-128536734D01*
X131848723Y-128639516D01*
X131786045Y-128756779D01*
X131777680Y-128784353D01*
X131769316Y-128756779D01*
X131706638Y-128639516D01*
X131622286Y-128536734D01*
X131519504Y-128452382D01*
X131402241Y-128389704D01*
X131275003Y-128351107D01*
X131142680Y-128338074D01*
X131010358Y-128351107D01*
X130883120Y-128389704D01*
X130765857Y-128452382D01*
X130663075Y-128536734D01*
X130578723Y-128639516D01*
X130516045Y-128756779D01*
X130507680Y-128784353D01*
X130499316Y-128756779D01*
X130436638Y-128639516D01*
X130352286Y-128536734D01*
X130249504Y-128452382D01*
X130132241Y-128389704D01*
X130005003Y-128351107D01*
X129872680Y-128338074D01*
X129740358Y-128351107D01*
X129613120Y-128389704D01*
X129495857Y-128452382D01*
X129393075Y-128536734D01*
X129308723Y-128639516D01*
X129246045Y-128756779D01*
X129237680Y-128784353D01*
X129229316Y-128756779D01*
X129166638Y-128639516D01*
X129082286Y-128536734D01*
X128979504Y-128452382D01*
X128862241Y-128389704D01*
X128735003Y-128351107D01*
X128602680Y-128338074D01*
X128470358Y-128351107D01*
X128343120Y-128389704D01*
X128225857Y-128452382D01*
X128123075Y-128536734D01*
X128038723Y-128639516D01*
X127976045Y-128756779D01*
X127967680Y-128784353D01*
X127959316Y-128756779D01*
X127896638Y-128639516D01*
X127812286Y-128536734D01*
X127709504Y-128452382D01*
X127592241Y-128389704D01*
X127465003Y-128351107D01*
X127332680Y-128338074D01*
X127200358Y-128351107D01*
X127073120Y-128389704D01*
X126955857Y-128452382D01*
X126853075Y-128536734D01*
X126768723Y-128639516D01*
X126706045Y-128756779D01*
X126697680Y-128784353D01*
X126689316Y-128756779D01*
X126626638Y-128639516D01*
X126542286Y-128536734D01*
X126439504Y-128452382D01*
X126322241Y-128389704D01*
X126195003Y-128351107D01*
X126062680Y-128338074D01*
X125930358Y-128351107D01*
X125803120Y-128389704D01*
X125685857Y-128452382D01*
X125583075Y-128536734D01*
X125498723Y-128639516D01*
X125436045Y-128756779D01*
X125427680Y-128784353D01*
X125419316Y-128756779D01*
X125356638Y-128639516D01*
X125272286Y-128536734D01*
X125169504Y-128452382D01*
X125052241Y-128389704D01*
X124925003Y-128351107D01*
X124792680Y-128338074D01*
X124660358Y-128351107D01*
X124533120Y-128389704D01*
X124415857Y-128452382D01*
X124313075Y-128536734D01*
X124228723Y-128639516D01*
X124166045Y-128756779D01*
X124157680Y-128784353D01*
X124149316Y-128756779D01*
X124086638Y-128639516D01*
X124002286Y-128536734D01*
X123899504Y-128452382D01*
X123782241Y-128389704D01*
X123655003Y-128351107D01*
X123522680Y-128338074D01*
X123390358Y-128351107D01*
X123263120Y-128389704D01*
X123145857Y-128452382D01*
X123043075Y-128536734D01*
X122958723Y-128639516D01*
X122896045Y-128756779D01*
X122887680Y-128784353D01*
X122879316Y-128756779D01*
X122816638Y-128639516D01*
X122732286Y-128536734D01*
X122629504Y-128452382D01*
X122512241Y-128389704D01*
X122385003Y-128351107D01*
X122252680Y-128338074D01*
X122120358Y-128351107D01*
X121993120Y-128389704D01*
X121875857Y-128452382D01*
X121773075Y-128536734D01*
X121688723Y-128639516D01*
X121626045Y-128756779D01*
X121617680Y-128784353D01*
X121609316Y-128756779D01*
X121546638Y-128639516D01*
X121462286Y-128536734D01*
X121359504Y-128452382D01*
X121242241Y-128389704D01*
X121115003Y-128351107D01*
X120982680Y-128338074D01*
X120850358Y-128351107D01*
X120723120Y-128389704D01*
X120605857Y-128452382D01*
X120503075Y-128536734D01*
X120418723Y-128639516D01*
X120356045Y-128756779D01*
X120347680Y-128784353D01*
X120339316Y-128756779D01*
X120276638Y-128639516D01*
X120192286Y-128536734D01*
X120089504Y-128452382D01*
X119972241Y-128389704D01*
X119845003Y-128351107D01*
X119712680Y-128338074D01*
X119580358Y-128351107D01*
X119453120Y-128389704D01*
X119335857Y-128452382D01*
X119233075Y-128536734D01*
X119148723Y-128639516D01*
X119086045Y-128756779D01*
X119077680Y-128784353D01*
X119069316Y-128756779D01*
X119006638Y-128639516D01*
X118922286Y-128536734D01*
X118819504Y-128452382D01*
X118702241Y-128389704D01*
X118575003Y-128351107D01*
X118442680Y-128338074D01*
X118310358Y-128351107D01*
X118183120Y-128389704D01*
X118065857Y-128452382D01*
X117963075Y-128536734D01*
X117878723Y-128639516D01*
X117816045Y-128756779D01*
X117807680Y-128784353D01*
X117799316Y-128756779D01*
X117736638Y-128639516D01*
X117652286Y-128536734D01*
X117549504Y-128452382D01*
X117432241Y-128389704D01*
X117305003Y-128351107D01*
X117172680Y-128338074D01*
X117040358Y-128351107D01*
X116913120Y-128389704D01*
X116795857Y-128452382D01*
X116693075Y-128536734D01*
X116608723Y-128639516D01*
X116546045Y-128756779D01*
X116507447Y-128884017D01*
X116497680Y-128983181D01*
X116497680Y-129749498D01*
X116507447Y-129848662D01*
X116546044Y-129975900D01*
X116608722Y-130093163D01*
X116668778Y-130166341D01*
X115158797Y-130166341D01*
X115058081Y-130159332D01*
X114978971Y-130137868D01*
X114905551Y-130101452D01*
X114840595Y-130051464D01*
X114786586Y-129989812D01*
X114745582Y-129918848D01*
X114719142Y-129841263D01*
X114706776Y-129748829D01*
X114706615Y-129735746D01*
X114706403Y-128195092D01*
X114785856Y-128260298D01*
X114903119Y-128322976D01*
X115030357Y-128361573D01*
X115129521Y-128371340D01*
X115895839Y-128371340D01*
X115995003Y-128361573D01*
X116122241Y-128322976D01*
X116239504Y-128260298D01*
X116342286Y-128175946D01*
X116426638Y-128073164D01*
X116489316Y-127955901D01*
X116527913Y-127828663D01*
X116540946Y-127696340D01*
X116527913Y-127564017D01*
X116489316Y-127436779D01*
X116426638Y-127319516D01*
X116342286Y-127216734D01*
X116239504Y-127132382D01*
X116122241Y-127069704D01*
X116094668Y-127061340D01*
X116122241Y-127052976D01*
X116239504Y-126990298D01*
X116342286Y-126905946D01*
X116426638Y-126803164D01*
X116489316Y-126685901D01*
X116527913Y-126558663D01*
X116540946Y-126426340D01*
X116527913Y-126294017D01*
X116489316Y-126166779D01*
X116426638Y-126049516D01*
X116342286Y-125946734D01*
X116239504Y-125862382D01*
X116122241Y-125799704D01*
X116094668Y-125791340D01*
X116122241Y-125782976D01*
X116239504Y-125720298D01*
X116342286Y-125635946D01*
X116426638Y-125533164D01*
X116489316Y-125415901D01*
X116527913Y-125288663D01*
X116540946Y-125156340D01*
X116527913Y-125024017D01*
X116489316Y-124896779D01*
X116426638Y-124779516D01*
X116342286Y-124676734D01*
X116239504Y-124592382D01*
X116122241Y-124529704D01*
X116094668Y-124521340D01*
X116122241Y-124512976D01*
X116239504Y-124450298D01*
X116342286Y-124365946D01*
X116426638Y-124263164D01*
X116489316Y-124145901D01*
X116527913Y-124018663D01*
X116540946Y-123886340D01*
X116527913Y-123754017D01*
X116489316Y-123626779D01*
X116426638Y-123509516D01*
X116342286Y-123406734D01*
X116239504Y-123322382D01*
X116122241Y-123259704D01*
X116094668Y-123251340D01*
X116122241Y-123242976D01*
X116239504Y-123180298D01*
X116342286Y-123095946D01*
X116426638Y-122993164D01*
X116489316Y-122875901D01*
X116527913Y-122748663D01*
X116540946Y-122616340D01*
X116527913Y-122484017D01*
X116489316Y-122356779D01*
X116426638Y-122239516D01*
X116342286Y-122136734D01*
X116239504Y-122052382D01*
X116122241Y-121989704D01*
X116094668Y-121981340D01*
X116122241Y-121972976D01*
X116239504Y-121910298D01*
X116342286Y-121825946D01*
X116426638Y-121723164D01*
X116489316Y-121605901D01*
X116527913Y-121478663D01*
X116540946Y-121346340D01*
X116527913Y-121214017D01*
X116489316Y-121086779D01*
X116426638Y-120969516D01*
X116342286Y-120866734D01*
X116239504Y-120782382D01*
X116122241Y-120719704D01*
X116094668Y-120711340D01*
X116122241Y-120702976D01*
X116239504Y-120640298D01*
X116342286Y-120555946D01*
X116426638Y-120453164D01*
X116489316Y-120335901D01*
X116527913Y-120208663D01*
X116540946Y-120076340D01*
X116527913Y-119944017D01*
X116489316Y-119816779D01*
X116426638Y-119699516D01*
X116342286Y-119596734D01*
X116239504Y-119512382D01*
X116122241Y-119449704D01*
X116094668Y-119441340D01*
X116122241Y-119432976D01*
X116239504Y-119370298D01*
X116342286Y-119285946D01*
X116426638Y-119183164D01*
X116489316Y-119065901D01*
X116527913Y-118938663D01*
X116540946Y-118806340D01*
X116527913Y-118674017D01*
X116489316Y-118546779D01*
X116426638Y-118429516D01*
X116342286Y-118326734D01*
X116239504Y-118242382D01*
X116122241Y-118179704D01*
X116094668Y-118171340D01*
X116122241Y-118162976D01*
X116239504Y-118100298D01*
X116342286Y-118015946D01*
X116426638Y-117913164D01*
X116489316Y-117795901D01*
X116527913Y-117668663D01*
X116540946Y-117536340D01*
X116527913Y-117404017D01*
X116489316Y-117276779D01*
X116426638Y-117159516D01*
X116342286Y-117056734D01*
X116239504Y-116972382D01*
X116122241Y-116909704D01*
X116094668Y-116901340D01*
X116122241Y-116892976D01*
X116239504Y-116830298D01*
X116342286Y-116745946D01*
X116426638Y-116643164D01*
X116489316Y-116525901D01*
X116527913Y-116398663D01*
X116540946Y-116266340D01*
X116527913Y-116134017D01*
X116489316Y-116006779D01*
X116426638Y-115889516D01*
X116342286Y-115786734D01*
X116239504Y-115702382D01*
X116122241Y-115639704D01*
X116094668Y-115631340D01*
X116122241Y-115622976D01*
X116239504Y-115560298D01*
X116342286Y-115475946D01*
X116426638Y-115373164D01*
X116489316Y-115255901D01*
X116527913Y-115128663D01*
X116540946Y-114996340D01*
X116527913Y-114864017D01*
X116489316Y-114736779D01*
X116426638Y-114619516D01*
X116342286Y-114516734D01*
X116239504Y-114432382D01*
X116122241Y-114369704D01*
X116094668Y-114361340D01*
X116122241Y-114352976D01*
X116239504Y-114290298D01*
X116342286Y-114205946D01*
X116426638Y-114103164D01*
X116489316Y-113985901D01*
X116527913Y-113858663D01*
X116540946Y-113726340D01*
X116527913Y-113594017D01*
X116489316Y-113466779D01*
X116426638Y-113349516D01*
X116342286Y-113246734D01*
X116239504Y-113162382D01*
X116122241Y-113099704D01*
X115995003Y-113061107D01*
X115895839Y-113051340D01*
X115129521Y-113051340D01*
X115030357Y-113061107D01*
X114903119Y-113099704D01*
X114785856Y-113162382D01*
X114704347Y-113229275D01*
X114704143Y-111742934D01*
X114714000Y-111638776D01*
X114739548Y-111553115D01*
X114781249Y-111474042D01*
X114837511Y-111404580D01*
X114906198Y-111347365D01*
X114984682Y-111304585D01*
X115069986Y-111277863D01*
X115172305Y-111266759D01*
X116668422Y-111266773D01*
G37*
%TD.AperFunction*%
%TD*%
M02*
