%TF.GenerationSoftware,KiCad,Pcbnew,(5.1.9)-1*%
%TF.CreationDate,2021-01-24T18:40:59+08:00*%
%TF.ProjectId,NRF52840,4e524635-3238-4343-902e-6b696361645f,rev?*%
%TF.SameCoordinates,Original*%
%TF.FileFunction,Paste,Top*%
%TF.FilePolarity,Positive*%
%FSLAX46Y46*%
G04 Gerber Fmt 4.6, Leading zero omitted, Abs format (unit mm)*
G04 Created by KiCad (PCBNEW (5.1.9)-1) date 2021-01-24 18:40:59*
%MOMM*%
%LPD*%
G01*
G04 APERTURE LIST*
%ADD10R,2.000000X1.200000*%
%ADD11R,2.000000X2.000000*%
%ADD12C,0.250000*%
%ADD13R,0.900000X0.800000*%
G04 APERTURE END LIST*
D10*
%TO.C,AE*%
X107241040Y-144036840D03*
X107241040Y-139736840D03*
%TD*%
D11*
%TO.C,U1*%
X98491660Y-139819040D03*
X96066660Y-139819040D03*
X98491660Y-137394040D03*
X96066660Y-137394040D03*
D12*
X100529160Y-135856540D03*
X100029160Y-136606540D03*
X96029160Y-135356540D03*
X94779160Y-135856540D03*
X99279160Y-141356540D03*
X100029160Y-141856540D03*
X94529160Y-141856540D03*
X94529160Y-141106540D03*
X94529160Y-140606540D03*
X94029160Y-140356540D03*
X94029160Y-139856540D03*
X94029160Y-139356540D03*
X94029160Y-138856540D03*
X94029160Y-138356540D03*
X94029160Y-137856540D03*
X94029160Y-137356540D03*
X94529160Y-139606540D03*
X94529160Y-139106540D03*
X94529160Y-138606540D03*
X94529160Y-138106540D03*
X94529160Y-137606540D03*
X94529160Y-137106540D03*
X94029160Y-136356540D03*
X94529160Y-136606540D03*
X94029160Y-135856540D03*
X95029160Y-141856540D03*
X95529160Y-141856540D03*
X96029160Y-141856540D03*
X96529160Y-141856540D03*
X97029160Y-141856540D03*
X97529160Y-141856540D03*
X98029160Y-141856540D03*
X98529160Y-141856540D03*
X99029160Y-141856540D03*
X99529160Y-141856540D03*
X98779160Y-141356540D03*
X98279160Y-141356540D03*
X97779160Y-141356540D03*
X97279160Y-141356540D03*
X96779160Y-141356540D03*
X96279160Y-141356540D03*
X95279160Y-141356540D03*
X95279160Y-135856540D03*
X95779160Y-135856540D03*
X96279160Y-135856540D03*
X96779160Y-135856540D03*
X97279160Y-135856540D03*
X97779160Y-135856540D03*
X98279160Y-135856540D03*
X98779160Y-135856540D03*
X96529160Y-135356540D03*
X97029160Y-135356540D03*
X97529160Y-135356540D03*
X98029160Y-135356540D03*
X98529160Y-135356540D03*
X99029160Y-135356540D03*
X99529160Y-135356540D03*
X100029160Y-135356540D03*
X100029160Y-137106540D03*
X100029160Y-137606540D03*
X100029160Y-139106540D03*
X100029160Y-139606540D03*
X100029160Y-140106540D03*
X100029160Y-140606540D03*
X100529160Y-136856540D03*
X100529160Y-137856540D03*
X100529160Y-138356540D03*
X100529160Y-138856540D03*
X100529160Y-139356540D03*
X100529160Y-139856540D03*
X100529160Y-140356540D03*
X100529160Y-140856540D03*
X100529160Y-141356540D03*
%TD*%
D13*
%TO.C,Y1*%
X100869220Y-132872400D03*
X102269220Y-132872400D03*
X102269220Y-133972400D03*
X100869220Y-133972400D03*
%TD*%
%TO.C,R1*%
G36*
G01*
X106055520Y-137151300D02*
X106055520Y-137491300D01*
G75*
G02*
X105915520Y-137631300I-140000J0D01*
G01*
X105635520Y-137631300D01*
G75*
G02*
X105495520Y-137491300I0J140000D01*
G01*
X105495520Y-137151300D01*
G75*
G02*
X105635520Y-137011300I140000J0D01*
G01*
X105915520Y-137011300D01*
G75*
G02*
X106055520Y-137151300I0J-140000D01*
G01*
G37*
G36*
G01*
X107015520Y-137151300D02*
X107015520Y-137491300D01*
G75*
G02*
X106875520Y-137631300I-140000J0D01*
G01*
X106595520Y-137631300D01*
G75*
G02*
X106455520Y-137491300I0J140000D01*
G01*
X106455520Y-137151300D01*
G75*
G02*
X106595520Y-137011300I140000J0D01*
G01*
X106875520Y-137011300D01*
G75*
G02*
X107015520Y-137151300I0J-140000D01*
G01*
G37*
%TD*%
%TO.C,L1*%
G36*
G01*
X103144520Y-137075140D02*
X103144520Y-137420140D01*
G75*
G02*
X102997020Y-137567640I-147500J0D01*
G01*
X102702020Y-137567640D01*
G75*
G02*
X102554520Y-137420140I0J147500D01*
G01*
X102554520Y-137075140D01*
G75*
G02*
X102702020Y-136927640I147500J0D01*
G01*
X102997020Y-136927640D01*
G75*
G02*
X103144520Y-137075140I0J-147500D01*
G01*
G37*
G36*
G01*
X104114520Y-137075140D02*
X104114520Y-137420140D01*
G75*
G02*
X103967020Y-137567640I-147500J0D01*
G01*
X103672020Y-137567640D01*
G75*
G02*
X103524520Y-137420140I0J147500D01*
G01*
X103524520Y-137075140D01*
G75*
G02*
X103672020Y-136927640I147500J0D01*
G01*
X103967020Y-136927640D01*
G75*
G02*
X104114520Y-137075140I0J-147500D01*
G01*
G37*
%TD*%
%TO.C,C26*%
G36*
G01*
X107870780Y-136633620D02*
X107530780Y-136633620D01*
G75*
G02*
X107390780Y-136493620I0J140000D01*
G01*
X107390780Y-136213620D01*
G75*
G02*
X107530780Y-136073620I140000J0D01*
G01*
X107870780Y-136073620D01*
G75*
G02*
X108010780Y-136213620I0J-140000D01*
G01*
X108010780Y-136493620D01*
G75*
G02*
X107870780Y-136633620I-140000J0D01*
G01*
G37*
G36*
G01*
X107870780Y-137593620D02*
X107530780Y-137593620D01*
G75*
G02*
X107390780Y-137453620I0J140000D01*
G01*
X107390780Y-137173620D01*
G75*
G02*
X107530780Y-137033620I140000J0D01*
G01*
X107870780Y-137033620D01*
G75*
G02*
X108010780Y-137173620I0J-140000D01*
G01*
X108010780Y-137453620D01*
G75*
G02*
X107870780Y-137593620I-140000J0D01*
G01*
G37*
%TD*%
%TO.C,C20*%
G36*
G01*
X91396940Y-139869100D02*
X91396940Y-140369100D01*
G75*
G02*
X91171940Y-140594100I-225000J0D01*
G01*
X90721940Y-140594100D01*
G75*
G02*
X90496940Y-140369100I0J225000D01*
G01*
X90496940Y-139869100D01*
G75*
G02*
X90721940Y-139644100I225000J0D01*
G01*
X91171940Y-139644100D01*
G75*
G02*
X91396940Y-139869100I0J-225000D01*
G01*
G37*
G36*
G01*
X92946940Y-139869100D02*
X92946940Y-140369100D01*
G75*
G02*
X92721940Y-140594100I-225000J0D01*
G01*
X92271940Y-140594100D01*
G75*
G02*
X92046940Y-140369100I0J225000D01*
G01*
X92046940Y-139869100D01*
G75*
G02*
X92271940Y-139644100I225000J0D01*
G01*
X92721940Y-139644100D01*
G75*
G02*
X92946940Y-139869100I0J-225000D01*
G01*
G37*
%TD*%
%TO.C,C19*%
G36*
G01*
X91483000Y-143053000D02*
X91483000Y-143553000D01*
G75*
G02*
X91258000Y-143778000I-225000J0D01*
G01*
X90808000Y-143778000D01*
G75*
G02*
X90583000Y-143553000I0J225000D01*
G01*
X90583000Y-143053000D01*
G75*
G02*
X90808000Y-142828000I225000J0D01*
G01*
X91258000Y-142828000D01*
G75*
G02*
X91483000Y-143053000I0J-225000D01*
G01*
G37*
G36*
G01*
X93033000Y-143053000D02*
X93033000Y-143553000D01*
G75*
G02*
X92808000Y-143778000I-225000J0D01*
G01*
X92358000Y-143778000D01*
G75*
G02*
X92133000Y-143553000I0J225000D01*
G01*
X92133000Y-143053000D01*
G75*
G02*
X92358000Y-142828000I225000J0D01*
G01*
X92808000Y-142828000D01*
G75*
G02*
X93033000Y-143053000I0J-225000D01*
G01*
G37*
%TD*%
%TO.C,C15*%
G36*
G01*
X105574680Y-135658680D02*
X105574680Y-135158680D01*
G75*
G02*
X105799680Y-134933680I225000J0D01*
G01*
X106249680Y-134933680D01*
G75*
G02*
X106474680Y-135158680I0J-225000D01*
G01*
X106474680Y-135658680D01*
G75*
G02*
X106249680Y-135883680I-225000J0D01*
G01*
X105799680Y-135883680D01*
G75*
G02*
X105574680Y-135658680I0J225000D01*
G01*
G37*
G36*
G01*
X104024680Y-135658680D02*
X104024680Y-135158680D01*
G75*
G02*
X104249680Y-134933680I225000J0D01*
G01*
X104699680Y-134933680D01*
G75*
G02*
X104924680Y-135158680I0J-225000D01*
G01*
X104924680Y-135658680D01*
G75*
G02*
X104699680Y-135883680I-225000J0D01*
G01*
X104249680Y-135883680D01*
G75*
G02*
X104024680Y-135658680I0J225000D01*
G01*
G37*
%TD*%
%TO.C,C14*%
G36*
G01*
X96072540Y-133530160D02*
X96072540Y-133030160D01*
G75*
G02*
X96297540Y-132805160I225000J0D01*
G01*
X96747540Y-132805160D01*
G75*
G02*
X96972540Y-133030160I0J-225000D01*
G01*
X96972540Y-133530160D01*
G75*
G02*
X96747540Y-133755160I-225000J0D01*
G01*
X96297540Y-133755160D01*
G75*
G02*
X96072540Y-133530160I0J225000D01*
G01*
G37*
G36*
G01*
X94522540Y-133530160D02*
X94522540Y-133030160D01*
G75*
G02*
X94747540Y-132805160I225000J0D01*
G01*
X95197540Y-132805160D01*
G75*
G02*
X95422540Y-133030160I0J-225000D01*
G01*
X95422540Y-133530160D01*
G75*
G02*
X95197540Y-133755160I-225000J0D01*
G01*
X94747540Y-133755160D01*
G75*
G02*
X94522540Y-133530160I0J225000D01*
G01*
G37*
%TD*%
%TO.C,C12*%
G36*
G01*
X98534040Y-133099200D02*
X98194040Y-133099200D01*
G75*
G02*
X98054040Y-132959200I0J140000D01*
G01*
X98054040Y-132679200D01*
G75*
G02*
X98194040Y-132539200I140000J0D01*
G01*
X98534040Y-132539200D01*
G75*
G02*
X98674040Y-132679200I0J-140000D01*
G01*
X98674040Y-132959200D01*
G75*
G02*
X98534040Y-133099200I-140000J0D01*
G01*
G37*
G36*
G01*
X98534040Y-134059200D02*
X98194040Y-134059200D01*
G75*
G02*
X98054040Y-133919200I0J140000D01*
G01*
X98054040Y-133639200D01*
G75*
G02*
X98194040Y-133499200I140000J0D01*
G01*
X98534040Y-133499200D01*
G75*
G02*
X98674040Y-133639200I0J-140000D01*
G01*
X98674040Y-133919200D01*
G75*
G02*
X98534040Y-134059200I-140000J0D01*
G01*
G37*
%TD*%
%TO.C,C11*%
G36*
G01*
X102451260Y-135274240D02*
X102451260Y-135614240D01*
G75*
G02*
X102311260Y-135754240I-140000J0D01*
G01*
X102031260Y-135754240D01*
G75*
G02*
X101891260Y-135614240I0J140000D01*
G01*
X101891260Y-135274240D01*
G75*
G02*
X102031260Y-135134240I140000J0D01*
G01*
X102311260Y-135134240D01*
G75*
G02*
X102451260Y-135274240I0J-140000D01*
G01*
G37*
G36*
G01*
X103411260Y-135274240D02*
X103411260Y-135614240D01*
G75*
G02*
X103271260Y-135754240I-140000J0D01*
G01*
X102991260Y-135754240D01*
G75*
G02*
X102851260Y-135614240I0J140000D01*
G01*
X102851260Y-135274240D01*
G75*
G02*
X102991260Y-135134240I140000J0D01*
G01*
X103271260Y-135134240D01*
G75*
G02*
X103411260Y-135274240I0J-140000D01*
G01*
G37*
%TD*%
%TO.C,C9*%
G36*
G01*
X101645600Y-139858100D02*
X101985600Y-139858100D01*
G75*
G02*
X102125600Y-139998100I0J-140000D01*
G01*
X102125600Y-140278100D01*
G75*
G02*
X101985600Y-140418100I-140000J0D01*
G01*
X101645600Y-140418100D01*
G75*
G02*
X101505600Y-140278100I0J140000D01*
G01*
X101505600Y-139998100D01*
G75*
G02*
X101645600Y-139858100I140000J0D01*
G01*
G37*
G36*
G01*
X101645600Y-138898100D02*
X101985600Y-138898100D01*
G75*
G02*
X102125600Y-139038100I0J-140000D01*
G01*
X102125600Y-139318100D01*
G75*
G02*
X101985600Y-139458100I-140000J0D01*
G01*
X101645600Y-139458100D01*
G75*
G02*
X101505600Y-139318100I0J140000D01*
G01*
X101505600Y-139038100D01*
G75*
G02*
X101645600Y-138898100I140000J0D01*
G01*
G37*
%TD*%
%TO.C,C8*%
G36*
G01*
X100546260Y-142909480D02*
X100546260Y-143249480D01*
G75*
G02*
X100406260Y-143389480I-140000J0D01*
G01*
X100126260Y-143389480D01*
G75*
G02*
X99986260Y-143249480I0J140000D01*
G01*
X99986260Y-142909480D01*
G75*
G02*
X100126260Y-142769480I140000J0D01*
G01*
X100406260Y-142769480D01*
G75*
G02*
X100546260Y-142909480I0J-140000D01*
G01*
G37*
G36*
G01*
X101506260Y-142909480D02*
X101506260Y-143249480D01*
G75*
G02*
X101366260Y-143389480I-140000J0D01*
G01*
X101086260Y-143389480D01*
G75*
G02*
X100946260Y-143249480I0J140000D01*
G01*
X100946260Y-142909480D01*
G75*
G02*
X101086260Y-142769480I140000J0D01*
G01*
X101366260Y-142769480D01*
G75*
G02*
X101506260Y-142909480I0J-140000D01*
G01*
G37*
%TD*%
%TO.C,C7*%
G36*
G01*
X98858380Y-143241860D02*
X98858380Y-142901860D01*
G75*
G02*
X98998380Y-142761860I140000J0D01*
G01*
X99278380Y-142761860D01*
G75*
G02*
X99418380Y-142901860I0J-140000D01*
G01*
X99418380Y-143241860D01*
G75*
G02*
X99278380Y-143381860I-140000J0D01*
G01*
X98998380Y-143381860D01*
G75*
G02*
X98858380Y-143241860I0J140000D01*
G01*
G37*
G36*
G01*
X97898380Y-143241860D02*
X97898380Y-142901860D01*
G75*
G02*
X98038380Y-142761860I140000J0D01*
G01*
X98318380Y-142761860D01*
G75*
G02*
X98458380Y-142901860I0J-140000D01*
G01*
X98458380Y-143241860D01*
G75*
G02*
X98318380Y-143381860I-140000J0D01*
G01*
X98038380Y-143381860D01*
G75*
G02*
X97898380Y-143241860I0J140000D01*
G01*
G37*
%TD*%
%TO.C,C6*%
G36*
G01*
X91411880Y-138341300D02*
X91411880Y-138841300D01*
G75*
G02*
X91186880Y-139066300I-225000J0D01*
G01*
X90736880Y-139066300D01*
G75*
G02*
X90511880Y-138841300I0J225000D01*
G01*
X90511880Y-138341300D01*
G75*
G02*
X90736880Y-138116300I225000J0D01*
G01*
X91186880Y-138116300D01*
G75*
G02*
X91411880Y-138341300I0J-225000D01*
G01*
G37*
G36*
G01*
X92961880Y-138341300D02*
X92961880Y-138841300D01*
G75*
G02*
X92736880Y-139066300I-225000J0D01*
G01*
X92286880Y-139066300D01*
G75*
G02*
X92061880Y-138841300I0J225000D01*
G01*
X92061880Y-138341300D01*
G75*
G02*
X92286880Y-138116300I225000J0D01*
G01*
X92736880Y-138116300D01*
G75*
G02*
X92961880Y-138341300I0J-225000D01*
G01*
G37*
%TD*%
%TO.C,C5*%
G36*
G01*
X91658800Y-135246300D02*
X91658800Y-135586300D01*
G75*
G02*
X91518800Y-135726300I-140000J0D01*
G01*
X91238800Y-135726300D01*
G75*
G02*
X91098800Y-135586300I0J140000D01*
G01*
X91098800Y-135246300D01*
G75*
G02*
X91238800Y-135106300I140000J0D01*
G01*
X91518800Y-135106300D01*
G75*
G02*
X91658800Y-135246300I0J-140000D01*
G01*
G37*
G36*
G01*
X92618800Y-135246300D02*
X92618800Y-135586300D01*
G75*
G02*
X92478800Y-135726300I-140000J0D01*
G01*
X92198800Y-135726300D01*
G75*
G02*
X92058800Y-135586300I0J140000D01*
G01*
X92058800Y-135246300D01*
G75*
G02*
X92198800Y-135106300I140000J0D01*
G01*
X92478800Y-135106300D01*
G75*
G02*
X92618800Y-135246300I0J-140000D01*
G01*
G37*
%TD*%
%TO.C,C4*%
G36*
G01*
X104668200Y-137965800D02*
X105008200Y-137965800D01*
G75*
G02*
X105148200Y-138105800I0J-140000D01*
G01*
X105148200Y-138385800D01*
G75*
G02*
X105008200Y-138525800I-140000J0D01*
G01*
X104668200Y-138525800D01*
G75*
G02*
X104528200Y-138385800I0J140000D01*
G01*
X104528200Y-138105800D01*
G75*
G02*
X104668200Y-137965800I140000J0D01*
G01*
G37*
G36*
G01*
X104668200Y-137005800D02*
X105008200Y-137005800D01*
G75*
G02*
X105148200Y-137145800I0J-140000D01*
G01*
X105148200Y-137425800D01*
G75*
G02*
X105008200Y-137565800I-140000J0D01*
G01*
X104668200Y-137565800D01*
G75*
G02*
X104528200Y-137425800I0J140000D01*
G01*
X104528200Y-137145800D01*
G75*
G02*
X104668200Y-137005800I140000J0D01*
G01*
G37*
%TD*%
%TO.C,C3*%
G36*
G01*
X101950040Y-137540400D02*
X101610040Y-137540400D01*
G75*
G02*
X101470040Y-137400400I0J140000D01*
G01*
X101470040Y-137120400D01*
G75*
G02*
X101610040Y-136980400I140000J0D01*
G01*
X101950040Y-136980400D01*
G75*
G02*
X102090040Y-137120400I0J-140000D01*
G01*
X102090040Y-137400400D01*
G75*
G02*
X101950040Y-137540400I-140000J0D01*
G01*
G37*
G36*
G01*
X101950040Y-138500400D02*
X101610040Y-138500400D01*
G75*
G02*
X101470040Y-138360400I0J140000D01*
G01*
X101470040Y-138080400D01*
G75*
G02*
X101610040Y-137940400I140000J0D01*
G01*
X101950040Y-137940400D01*
G75*
G02*
X102090040Y-138080400I0J-140000D01*
G01*
X102090040Y-138360400D01*
G75*
G02*
X101950040Y-138500400I-140000J0D01*
G01*
G37*
%TD*%
%TO.C,C2*%
G36*
G01*
X99171640Y-133518260D02*
X99511640Y-133518260D01*
G75*
G02*
X99651640Y-133658260I0J-140000D01*
G01*
X99651640Y-133938260D01*
G75*
G02*
X99511640Y-134078260I-140000J0D01*
G01*
X99171640Y-134078260D01*
G75*
G02*
X99031640Y-133938260I0J140000D01*
G01*
X99031640Y-133658260D01*
G75*
G02*
X99171640Y-133518260I140000J0D01*
G01*
G37*
G36*
G01*
X99171640Y-132558260D02*
X99511640Y-132558260D01*
G75*
G02*
X99651640Y-132698260I0J-140000D01*
G01*
X99651640Y-132978260D01*
G75*
G02*
X99511640Y-133118260I-140000J0D01*
G01*
X99171640Y-133118260D01*
G75*
G02*
X99031640Y-132978260I0J140000D01*
G01*
X99031640Y-132698260D01*
G75*
G02*
X99171640Y-132558260I140000J0D01*
G01*
G37*
%TD*%
%TO.C,C1*%
G36*
G01*
X104297000Y-133150000D02*
X103957000Y-133150000D01*
G75*
G02*
X103817000Y-133010000I0J140000D01*
G01*
X103817000Y-132730000D01*
G75*
G02*
X103957000Y-132590000I140000J0D01*
G01*
X104297000Y-132590000D01*
G75*
G02*
X104437000Y-132730000I0J-140000D01*
G01*
X104437000Y-133010000D01*
G75*
G02*
X104297000Y-133150000I-140000J0D01*
G01*
G37*
G36*
G01*
X104297000Y-134110000D02*
X103957000Y-134110000D01*
G75*
G02*
X103817000Y-133970000I0J140000D01*
G01*
X103817000Y-133690000D01*
G75*
G02*
X103957000Y-133550000I140000J0D01*
G01*
X104297000Y-133550000D01*
G75*
G02*
X104437000Y-133690000I0J-140000D01*
G01*
X104437000Y-133970000D01*
G75*
G02*
X104297000Y-134110000I-140000J0D01*
G01*
G37*
%TD*%
M02*
