%TF.GenerationSoftware,KiCad,Pcbnew,(5.1.6)-1*%
%TF.CreationDate,2020-10-20T21:54:07+08:00*%
%TF.ProjectId,NRF52840,4e524635-3238-4343-902e-6b696361645f,rev?*%
%TF.SameCoordinates,Original*%
%TF.FileFunction,Soldermask,Top*%
%TF.FilePolarity,Negative*%
%FSLAX46Y46*%
G04 Gerber Fmt 4.6, Leading zero omitted, Abs format (unit mm)*
G04 Created by KiCad (PCBNEW (5.1.6)-1) date 2020-10-20 21:54:07*
%MOMM*%
%LPD*%
G01*
G04 APERTURE LIST*
%ADD10R,1.700000X0.350000*%
%ADD11R,1.000000X0.900000*%
%ADD12C,0.350000*%
%ADD13R,4.950000X4.950000*%
G04 APERTURE END LIST*
D10*
%TO.C,2.4*%
X138706560Y-153160740D03*
X138709000Y-156012740D03*
%TD*%
D11*
%TO.C,Y1*%
X134892980Y-152372160D03*
X133492980Y-152372160D03*
X133492980Y-151272160D03*
X134892980Y-151272160D03*
%TD*%
D12*
%TO.C,U1*%
X130254780Y-157747160D03*
X130254780Y-157247160D03*
X130254780Y-156747160D03*
X130254780Y-156247160D03*
X130254780Y-155747160D03*
X130254780Y-155247160D03*
X130254780Y-154747160D03*
X130254780Y-154247160D03*
X130254780Y-153247160D03*
X129754780Y-156997160D03*
X129754780Y-156497160D03*
X129754780Y-155997160D03*
X129754780Y-155497160D03*
X129754780Y-153997160D03*
X129754780Y-153497160D03*
X129754780Y-151747160D03*
X129254780Y-151747160D03*
X128754780Y-151747160D03*
X128254780Y-151747160D03*
X127754780Y-151747160D03*
X127254780Y-151747160D03*
X126754780Y-151747160D03*
X126254780Y-151747160D03*
X128504780Y-152247160D03*
X128004780Y-152247160D03*
X127504780Y-152247160D03*
X127004780Y-152247160D03*
X126504780Y-152247160D03*
X126004780Y-152247160D03*
X125504780Y-152247160D03*
X125004780Y-152247160D03*
X125004780Y-157747160D03*
X126004780Y-157747160D03*
X126504780Y-157747160D03*
X127004780Y-157747160D03*
X127504780Y-157747160D03*
X128004780Y-157747160D03*
X128504780Y-157747160D03*
X129254780Y-158247160D03*
X128754780Y-158247160D03*
X128254780Y-158247160D03*
X127754780Y-158247160D03*
X127254780Y-158247160D03*
X126754780Y-158247160D03*
X126254780Y-158247160D03*
X125754780Y-158247160D03*
X125254780Y-158247160D03*
X124754780Y-158247160D03*
X123754780Y-152247160D03*
X124254780Y-152997160D03*
X123754780Y-152747160D03*
X124254780Y-153497160D03*
X124254780Y-153997160D03*
X124254780Y-154497160D03*
X124254780Y-154997160D03*
X124254780Y-155497160D03*
X124254780Y-155997160D03*
X123754780Y-153747160D03*
X123754780Y-154247160D03*
X123754780Y-154747160D03*
X123754780Y-155247160D03*
X123754780Y-155747160D03*
X123754780Y-156247160D03*
X123754780Y-156747160D03*
X124254780Y-156997160D03*
X124254780Y-157497160D03*
X124254780Y-158247160D03*
X129754780Y-158247160D03*
X129004780Y-157747160D03*
X124504780Y-152247160D03*
X125754780Y-151747160D03*
X129754780Y-152997160D03*
X130254780Y-152247160D03*
D13*
X127004780Y-154997160D03*
%TD*%
%TO.C,L1*%
G36*
G01*
X132339760Y-154322240D02*
X132339760Y-154572240D01*
G75*
G02*
X132214760Y-154697240I-125000J0D01*
G01*
X131904760Y-154697240D01*
G75*
G02*
X131779760Y-154572240I0J125000D01*
G01*
X131779760Y-154322240D01*
G75*
G02*
X131904760Y-154197240I125000J0D01*
G01*
X132214760Y-154197240D01*
G75*
G02*
X132339760Y-154322240I0J-125000D01*
G01*
G37*
G36*
G01*
X132979760Y-154322240D02*
X132979760Y-154572240D01*
G75*
G02*
X132854760Y-154697240I-125000J0D01*
G01*
X132544760Y-154697240D01*
G75*
G02*
X132419760Y-154572240I0J125000D01*
G01*
X132419760Y-154322240D01*
G75*
G02*
X132544760Y-154197240I125000J0D01*
G01*
X132854760Y-154197240D01*
G75*
G02*
X132979760Y-154322240I0J-125000D01*
G01*
G37*
%TD*%
%TO.C,C20*%
G36*
G01*
X122054020Y-157657160D02*
X122054020Y-158052160D01*
G75*
G02*
X121881520Y-158224660I-172500J0D01*
G01*
X121536520Y-158224660D01*
G75*
G02*
X121364020Y-158052160I0J172500D01*
G01*
X121364020Y-157657160D01*
G75*
G02*
X121536520Y-157484660I172500J0D01*
G01*
X121881520Y-157484660D01*
G75*
G02*
X122054020Y-157657160I0J-172500D01*
G01*
G37*
G36*
G01*
X123024020Y-157657160D02*
X123024020Y-158052160D01*
G75*
G02*
X122851520Y-158224660I-172500J0D01*
G01*
X122506520Y-158224660D01*
G75*
G02*
X122334020Y-158052160I0J172500D01*
G01*
X122334020Y-157657160D01*
G75*
G02*
X122506520Y-157484660I172500J0D01*
G01*
X122851520Y-157484660D01*
G75*
G02*
X123024020Y-157657160I0J-172500D01*
G01*
G37*
%TD*%
%TO.C,C19*%
G36*
G01*
X122066720Y-158640140D02*
X122066720Y-159035140D01*
G75*
G02*
X121894220Y-159207640I-172500J0D01*
G01*
X121549220Y-159207640D01*
G75*
G02*
X121376720Y-159035140I0J172500D01*
G01*
X121376720Y-158640140D01*
G75*
G02*
X121549220Y-158467640I172500J0D01*
G01*
X121894220Y-158467640D01*
G75*
G02*
X122066720Y-158640140I0J-172500D01*
G01*
G37*
G36*
G01*
X123036720Y-158640140D02*
X123036720Y-159035140D01*
G75*
G02*
X122864220Y-159207640I-172500J0D01*
G01*
X122519220Y-159207640D01*
G75*
G02*
X122346720Y-159035140I0J172500D01*
G01*
X122346720Y-158640140D01*
G75*
G02*
X122519220Y-158467640I172500J0D01*
G01*
X122864220Y-158467640D01*
G75*
G02*
X123036720Y-158640140I0J-172500D01*
G01*
G37*
%TD*%
%TO.C,C15*%
G36*
G01*
X125087680Y-150910940D02*
X125087680Y-150515940D01*
G75*
G02*
X125260180Y-150343440I172500J0D01*
G01*
X125605180Y-150343440D01*
G75*
G02*
X125777680Y-150515940I0J-172500D01*
G01*
X125777680Y-150910940D01*
G75*
G02*
X125605180Y-151083440I-172500J0D01*
G01*
X125260180Y-151083440D01*
G75*
G02*
X125087680Y-150910940I0J172500D01*
G01*
G37*
G36*
G01*
X124117680Y-150910940D02*
X124117680Y-150515940D01*
G75*
G02*
X124290180Y-150343440I172500J0D01*
G01*
X124635180Y-150343440D01*
G75*
G02*
X124807680Y-150515940I0J-172500D01*
G01*
X124807680Y-150910940D01*
G75*
G02*
X124635180Y-151083440I-172500J0D01*
G01*
X124290180Y-151083440D01*
G75*
G02*
X124117680Y-150910940I0J172500D01*
G01*
G37*
%TD*%
%TO.C,C14*%
G36*
G01*
X122097500Y-152085660D02*
X122097500Y-152480660D01*
G75*
G02*
X121925000Y-152653160I-172500J0D01*
G01*
X121580000Y-152653160D01*
G75*
G02*
X121407500Y-152480660I0J172500D01*
G01*
X121407500Y-152085660D01*
G75*
G02*
X121580000Y-151913160I172500J0D01*
G01*
X121925000Y-151913160D01*
G75*
G02*
X122097500Y-152085660I0J-172500D01*
G01*
G37*
G36*
G01*
X123067500Y-152085660D02*
X123067500Y-152480660D01*
G75*
G02*
X122895000Y-152653160I-172500J0D01*
G01*
X122550000Y-152653160D01*
G75*
G02*
X122377500Y-152480660I0J172500D01*
G01*
X122377500Y-152085660D01*
G75*
G02*
X122550000Y-151913160I172500J0D01*
G01*
X122895000Y-151913160D01*
G75*
G02*
X123067500Y-152085660I0J-172500D01*
G01*
G37*
%TD*%
%TO.C,C13*%
G36*
G01*
X126695840Y-150654480D02*
X126695840Y-150904480D01*
G75*
G02*
X126570840Y-151029480I-125000J0D01*
G01*
X126260840Y-151029480D01*
G75*
G02*
X126135840Y-150904480I0J125000D01*
G01*
X126135840Y-150654480D01*
G75*
G02*
X126260840Y-150529480I125000J0D01*
G01*
X126570840Y-150529480D01*
G75*
G02*
X126695840Y-150654480I0J-125000D01*
G01*
G37*
G36*
G01*
X127335840Y-150654480D02*
X127335840Y-150904480D01*
G75*
G02*
X127210840Y-151029480I-125000J0D01*
G01*
X126900840Y-151029480D01*
G75*
G02*
X126775840Y-150904480I0J125000D01*
G01*
X126775840Y-150654480D01*
G75*
G02*
X126900840Y-150529480I125000J0D01*
G01*
X127210840Y-150529480D01*
G75*
G02*
X127335840Y-150654480I0J-125000D01*
G01*
G37*
%TD*%
%TO.C,C12*%
G36*
G01*
X128161420Y-150651940D02*
X128161420Y-150901940D01*
G75*
G02*
X128036420Y-151026940I-125000J0D01*
G01*
X127726420Y-151026940D01*
G75*
G02*
X127601420Y-150901940I0J125000D01*
G01*
X127601420Y-150651940D01*
G75*
G02*
X127726420Y-150526940I125000J0D01*
G01*
X128036420Y-150526940D01*
G75*
G02*
X128161420Y-150651940I0J-125000D01*
G01*
G37*
G36*
G01*
X128801420Y-150651940D02*
X128801420Y-150901940D01*
G75*
G02*
X128676420Y-151026940I-125000J0D01*
G01*
X128366420Y-151026940D01*
G75*
G02*
X128241420Y-150901940I0J125000D01*
G01*
X128241420Y-150651940D01*
G75*
G02*
X128366420Y-150526940I125000J0D01*
G01*
X128676420Y-150526940D01*
G75*
G02*
X128801420Y-150651940I0J-125000D01*
G01*
G37*
%TD*%
%TO.C,C11*%
G36*
G01*
X131734900Y-152466780D02*
X131734900Y-152716780D01*
G75*
G02*
X131609900Y-152841780I-125000J0D01*
G01*
X131299900Y-152841780D01*
G75*
G02*
X131174900Y-152716780I0J125000D01*
G01*
X131174900Y-152466780D01*
G75*
G02*
X131299900Y-152341780I125000J0D01*
G01*
X131609900Y-152341780D01*
G75*
G02*
X131734900Y-152466780I0J-125000D01*
G01*
G37*
G36*
G01*
X132374900Y-152466780D02*
X132374900Y-152716780D01*
G75*
G02*
X132249900Y-152841780I-125000J0D01*
G01*
X131939900Y-152841780D01*
G75*
G02*
X131814900Y-152716780I0J125000D01*
G01*
X131814900Y-152466780D01*
G75*
G02*
X131939900Y-152341780I125000J0D01*
G01*
X132249900Y-152341780D01*
G75*
G02*
X132374900Y-152466780I0J-125000D01*
G01*
G37*
%TD*%
%TO.C,C10*%
G36*
G01*
X133005200Y-153506900D02*
X133005200Y-153756900D01*
G75*
G02*
X132880200Y-153881900I-125000J0D01*
G01*
X132570200Y-153881900D01*
G75*
G02*
X132445200Y-153756900I0J125000D01*
G01*
X132445200Y-153506900D01*
G75*
G02*
X132570200Y-153381900I125000J0D01*
G01*
X132880200Y-153381900D01*
G75*
G02*
X133005200Y-153506900I0J-125000D01*
G01*
G37*
G36*
G01*
X133645200Y-153506900D02*
X133645200Y-153756900D01*
G75*
G02*
X133520200Y-153881900I-125000J0D01*
G01*
X133210200Y-153881900D01*
G75*
G02*
X133085200Y-153756900I0J125000D01*
G01*
X133085200Y-153506900D01*
G75*
G02*
X133210200Y-153381900I125000J0D01*
G01*
X133520200Y-153381900D01*
G75*
G02*
X133645200Y-153506900I0J-125000D01*
G01*
G37*
%TD*%
%TO.C,C9*%
G36*
G01*
X131320860Y-157415540D02*
X131715860Y-157415540D01*
G75*
G02*
X131888360Y-157588040I0J-172500D01*
G01*
X131888360Y-157933040D01*
G75*
G02*
X131715860Y-158105540I-172500J0D01*
G01*
X131320860Y-158105540D01*
G75*
G02*
X131148360Y-157933040I0J172500D01*
G01*
X131148360Y-157588040D01*
G75*
G02*
X131320860Y-157415540I172500J0D01*
G01*
G37*
G36*
G01*
X131320860Y-156445540D02*
X131715860Y-156445540D01*
G75*
G02*
X131888360Y-156618040I0J-172500D01*
G01*
X131888360Y-156963040D01*
G75*
G02*
X131715860Y-157135540I-172500J0D01*
G01*
X131320860Y-157135540D01*
G75*
G02*
X131148360Y-156963040I0J172500D01*
G01*
X131148360Y-156618040D01*
G75*
G02*
X131320860Y-156445540I172500J0D01*
G01*
G37*
%TD*%
%TO.C,C8*%
G36*
G01*
X129521580Y-159515080D02*
X129521580Y-159265080D01*
G75*
G02*
X129646580Y-159140080I125000J0D01*
G01*
X129956580Y-159140080D01*
G75*
G02*
X130081580Y-159265080I0J-125000D01*
G01*
X130081580Y-159515080D01*
G75*
G02*
X129956580Y-159640080I-125000J0D01*
G01*
X129646580Y-159640080D01*
G75*
G02*
X129521580Y-159515080I0J125000D01*
G01*
G37*
G36*
G01*
X128881580Y-159515080D02*
X128881580Y-159265080D01*
G75*
G02*
X129006580Y-159140080I125000J0D01*
G01*
X129316580Y-159140080D01*
G75*
G02*
X129441580Y-159265080I0J-125000D01*
G01*
X129441580Y-159515080D01*
G75*
G02*
X129316580Y-159640080I-125000J0D01*
G01*
X129006580Y-159640080D01*
G75*
G02*
X128881580Y-159515080I0J125000D01*
G01*
G37*
%TD*%
%TO.C,C7*%
G36*
G01*
X126878720Y-159295560D02*
X126878720Y-159545560D01*
G75*
G02*
X126753720Y-159670560I-125000J0D01*
G01*
X126443720Y-159670560D01*
G75*
G02*
X126318720Y-159545560I0J125000D01*
G01*
X126318720Y-159295560D01*
G75*
G02*
X126443720Y-159170560I125000J0D01*
G01*
X126753720Y-159170560D01*
G75*
G02*
X126878720Y-159295560I0J-125000D01*
G01*
G37*
G36*
G01*
X127518720Y-159295560D02*
X127518720Y-159545560D01*
G75*
G02*
X127393720Y-159670560I-125000J0D01*
G01*
X127083720Y-159670560D01*
G75*
G02*
X126958720Y-159545560I0J125000D01*
G01*
X126958720Y-159295560D01*
G75*
G02*
X127083720Y-159170560I125000J0D01*
G01*
X127393720Y-159170560D01*
G75*
G02*
X127518720Y-159295560I0J-125000D01*
G01*
G37*
%TD*%
%TO.C,C6*%
G36*
G01*
X122046400Y-156120460D02*
X122046400Y-156515460D01*
G75*
G02*
X121873900Y-156687960I-172500J0D01*
G01*
X121528900Y-156687960D01*
G75*
G02*
X121356400Y-156515460I0J172500D01*
G01*
X121356400Y-156120460D01*
G75*
G02*
X121528900Y-155947960I172500J0D01*
G01*
X121873900Y-155947960D01*
G75*
G02*
X122046400Y-156120460I0J-172500D01*
G01*
G37*
G36*
G01*
X123016400Y-156120460D02*
X123016400Y-156515460D01*
G75*
G02*
X122843900Y-156687960I-172500J0D01*
G01*
X122498900Y-156687960D01*
G75*
G02*
X122326400Y-156515460I0J172500D01*
G01*
X122326400Y-156120460D01*
G75*
G02*
X122498900Y-155947960I172500J0D01*
G01*
X122843900Y-155947960D01*
G75*
G02*
X123016400Y-156120460I0J-172500D01*
G01*
G37*
%TD*%
%TO.C,C5*%
G36*
G01*
X122138780Y-153757100D02*
X122138780Y-154007100D01*
G75*
G02*
X122013780Y-154132100I-125000J0D01*
G01*
X121703780Y-154132100D01*
G75*
G02*
X121578780Y-154007100I0J125000D01*
G01*
X121578780Y-153757100D01*
G75*
G02*
X121703780Y-153632100I125000J0D01*
G01*
X122013780Y-153632100D01*
G75*
G02*
X122138780Y-153757100I0J-125000D01*
G01*
G37*
G36*
G01*
X122778780Y-153757100D02*
X122778780Y-154007100D01*
G75*
G02*
X122653780Y-154132100I-125000J0D01*
G01*
X122343780Y-154132100D01*
G75*
G02*
X122218780Y-154007100I0J125000D01*
G01*
X122218780Y-153757100D01*
G75*
G02*
X122343780Y-153632100I125000J0D01*
G01*
X122653780Y-153632100D01*
G75*
G02*
X122778780Y-153757100I0J-125000D01*
G01*
G37*
%TD*%
%TO.C,C4*%
G36*
G01*
X133422820Y-154856820D02*
X133672820Y-154856820D01*
G75*
G02*
X133797820Y-154981820I0J-125000D01*
G01*
X133797820Y-155291820D01*
G75*
G02*
X133672820Y-155416820I-125000J0D01*
G01*
X133422820Y-155416820D01*
G75*
G02*
X133297820Y-155291820I0J125000D01*
G01*
X133297820Y-154981820D01*
G75*
G02*
X133422820Y-154856820I125000J0D01*
G01*
G37*
G36*
G01*
X133422820Y-154216820D02*
X133672820Y-154216820D01*
G75*
G02*
X133797820Y-154341820I0J-125000D01*
G01*
X133797820Y-154651820D01*
G75*
G02*
X133672820Y-154776820I-125000J0D01*
G01*
X133422820Y-154776820D01*
G75*
G02*
X133297820Y-154651820I0J125000D01*
G01*
X133297820Y-154341820D01*
G75*
G02*
X133422820Y-154216820I125000J0D01*
G01*
G37*
%TD*%
%TO.C,C3*%
G36*
G01*
X131371580Y-154736180D02*
X131121580Y-154736180D01*
G75*
G02*
X130996580Y-154611180I0J125000D01*
G01*
X130996580Y-154301180D01*
G75*
G02*
X131121580Y-154176180I125000J0D01*
G01*
X131371580Y-154176180D01*
G75*
G02*
X131496580Y-154301180I0J-125000D01*
G01*
X131496580Y-154611180D01*
G75*
G02*
X131371580Y-154736180I-125000J0D01*
G01*
G37*
G36*
G01*
X131371580Y-155376180D02*
X131121580Y-155376180D01*
G75*
G02*
X130996580Y-155251180I0J125000D01*
G01*
X130996580Y-154941180D01*
G75*
G02*
X131121580Y-154816180I125000J0D01*
G01*
X131371580Y-154816180D01*
G75*
G02*
X131496580Y-154941180I0J-125000D01*
G01*
X131496580Y-155251180D01*
G75*
G02*
X131371580Y-155376180I-125000J0D01*
G01*
G37*
%TD*%
%TO.C,C2*%
G36*
G01*
X136352620Y-150843720D02*
X136352620Y-151093720D01*
G75*
G02*
X136227620Y-151218720I-125000J0D01*
G01*
X135917620Y-151218720D01*
G75*
G02*
X135792620Y-151093720I0J125000D01*
G01*
X135792620Y-150843720D01*
G75*
G02*
X135917620Y-150718720I125000J0D01*
G01*
X136227620Y-150718720D01*
G75*
G02*
X136352620Y-150843720I0J-125000D01*
G01*
G37*
G36*
G01*
X136992620Y-150843720D02*
X136992620Y-151093720D01*
G75*
G02*
X136867620Y-151218720I-125000J0D01*
G01*
X136557620Y-151218720D01*
G75*
G02*
X136432620Y-151093720I0J125000D01*
G01*
X136432620Y-150843720D01*
G75*
G02*
X136557620Y-150718720I125000J0D01*
G01*
X136867620Y-150718720D01*
G75*
G02*
X136992620Y-150843720I0J-125000D01*
G01*
G37*
%TD*%
%TO.C,C1*%
G36*
G01*
X131847920Y-151467100D02*
X131847920Y-151217100D01*
G75*
G02*
X131972920Y-151092100I125000J0D01*
G01*
X132282920Y-151092100D01*
G75*
G02*
X132407920Y-151217100I0J-125000D01*
G01*
X132407920Y-151467100D01*
G75*
G02*
X132282920Y-151592100I-125000J0D01*
G01*
X131972920Y-151592100D01*
G75*
G02*
X131847920Y-151467100I0J125000D01*
G01*
G37*
G36*
G01*
X131207920Y-151467100D02*
X131207920Y-151217100D01*
G75*
G02*
X131332920Y-151092100I125000J0D01*
G01*
X131642920Y-151092100D01*
G75*
G02*
X131767920Y-151217100I0J-125000D01*
G01*
X131767920Y-151467100D01*
G75*
G02*
X131642920Y-151592100I-125000J0D01*
G01*
X131332920Y-151592100D01*
G75*
G02*
X131207920Y-151467100I0J125000D01*
G01*
G37*
%TD*%
M02*
