%TF.GenerationSoftware,KiCad,Pcbnew,(5.1.6)-1*%
%TF.CreationDate,2020-10-20T21:54:07+08:00*%
%TF.ProjectId,NRF52840,4e524635-3238-4343-902e-6b696361645f,rev?*%
%TF.SameCoordinates,Original*%
%TF.FileFunction,Copper,L2,Inr*%
%TF.FilePolarity,Positive*%
%FSLAX46Y46*%
G04 Gerber Fmt 4.6, Leading zero omitted, Abs format (unit mm)*
G04 Created by KiCad (PCBNEW (5.1.6)-1) date 2020-10-20 21:54:07*
%MOMM*%
%LPD*%
G01*
G04 APERTURE LIST*
%TA.AperFunction,ViaPad*%
%ADD10C,0.460000*%
%TD*%
%TA.AperFunction,ViaPad*%
%ADD11C,0.600000*%
%TD*%
%TA.AperFunction,Conductor*%
%ADD12C,0.150000*%
%TD*%
G04 APERTURE END LIST*
D10*
%TO.N,GND*%
X138343640Y-150876000D03*
D11*
X133464300Y-156100780D03*
X121721720Y-158837640D03*
D10*
X134919720Y-153476960D03*
X127876300Y-150756620D03*
D11*
X121983500Y-150815040D03*
D10*
X128900040Y-153497160D03*
X128902460Y-154297380D03*
X128887220Y-155336240D03*
X128902460Y-156248100D03*
X128938020Y-156972000D03*
X127693420Y-157124400D03*
X126570740Y-157109160D03*
X125491240Y-157116780D03*
X125463300Y-155122880D03*
X127505460Y-153123900D03*
X125425200Y-153121360D03*
X131396601Y-151646215D03*
D11*
X130764280Y-159392620D03*
D10*
X125702060Y-159420560D03*
X127548640Y-155127960D03*
X126563120Y-155117800D03*
X126362460Y-153126440D03*
X137121900Y-153489660D03*
X137121900Y-154289760D03*
X137121900Y-155089860D03*
X137121900Y-155889960D03*
X137121900Y-156690060D03*
X136144000Y-153494740D03*
X136136380Y-154081480D03*
X136144000Y-154719020D03*
X134825740Y-156047440D03*
X134825740Y-156751655D03*
X134825740Y-157455870D03*
X134825740Y-158160085D03*
X134825740Y-158864300D03*
X133957060Y-156728160D03*
X133949440Y-158160720D03*
X135529320Y-159407860D03*
X138877040Y-159123380D03*
%TO.N,+3V3*%
X128226820Y-159420560D03*
X123082870Y-155144918D03*
D11*
X122755660Y-150825200D03*
D10*
X131986020Y-159445960D03*
D11*
X129364740Y-150794720D03*
D10*
%TO.N,Net-(C10-Pad2)*%
X123469400Y-150848060D03*
X134122160Y-153878280D03*
%TO.N,+5V*%
X120990360Y-150870920D03*
X120931940Y-159478980D03*
%TO.N,SWDIO*%
X132891127Y-159221145D03*
%TO.N,SWDCLK*%
X133344920Y-158813500D03*
%TO.N,D-*%
X123388120Y-159390080D03*
X121577100Y-153104932D03*
%TO.N,D+*%
X124445847Y-159447047D03*
X122072858Y-155300053D03*
%TD*%
D12*
%TO.N,GND*%
G36*
X122202757Y-150657479D02*
G01*
X122180660Y-150768567D01*
X122180660Y-150881833D01*
X122202757Y-150992921D01*
X122246102Y-151097565D01*
X122309028Y-151191741D01*
X122389119Y-151271832D01*
X122483295Y-151334758D01*
X122587939Y-151378103D01*
X122699027Y-151400200D01*
X122812293Y-151400200D01*
X122923381Y-151378103D01*
X123028025Y-151334758D01*
X123122201Y-151271832D01*
X123151218Y-151242815D01*
X123230193Y-151295585D01*
X123322097Y-151333653D01*
X123419662Y-151353060D01*
X123519138Y-151353060D01*
X123616703Y-151333653D01*
X123708607Y-151295585D01*
X123791318Y-151240319D01*
X123861659Y-151169978D01*
X123916925Y-151087267D01*
X123954993Y-150995363D01*
X123974400Y-150897798D01*
X123974400Y-150798322D01*
X123954993Y-150700757D01*
X123923514Y-150624760D01*
X128812764Y-150624760D01*
X128811837Y-150626999D01*
X128789740Y-150738087D01*
X128789740Y-150851353D01*
X128811837Y-150962441D01*
X128855182Y-151067085D01*
X128918108Y-151161261D01*
X128998199Y-151241352D01*
X129092375Y-151304278D01*
X129197019Y-151347623D01*
X129308107Y-151369720D01*
X129421373Y-151369720D01*
X129532461Y-151347623D01*
X129637105Y-151304278D01*
X129731281Y-151241352D01*
X129811372Y-151161261D01*
X129874298Y-151067085D01*
X129917643Y-150962441D01*
X129939740Y-150851353D01*
X129939740Y-150738087D01*
X129917643Y-150626999D01*
X129916716Y-150624760D01*
X138922212Y-150624760D01*
X139172646Y-151232955D01*
X137612114Y-151225217D01*
X137606509Y-151224096D01*
X137591865Y-151222640D01*
X137589957Y-151222826D01*
X137527515Y-151181104D01*
X137333725Y-151100834D01*
X137127998Y-151059912D01*
X136918242Y-151059912D01*
X136712515Y-151100834D01*
X136518725Y-151181104D01*
X136344319Y-151297639D01*
X136195999Y-151445959D01*
X136079464Y-151620365D01*
X135999194Y-151814155D01*
X135958272Y-152019882D01*
X135958272Y-152229638D01*
X135999194Y-152435365D01*
X136079464Y-152629155D01*
X136195999Y-152803561D01*
X136344319Y-152951881D01*
X136518725Y-153068416D01*
X136712515Y-153148686D01*
X136918242Y-153189608D01*
X137127998Y-153189608D01*
X137333725Y-153148686D01*
X137515271Y-153073488D01*
X137511741Y-157174570D01*
X137333725Y-157100834D01*
X137127998Y-157059912D01*
X136918242Y-157059912D01*
X136712515Y-157100834D01*
X136518725Y-157181104D01*
X136344319Y-157297639D01*
X136195999Y-157445959D01*
X136079464Y-157620365D01*
X135999194Y-157814155D01*
X135958272Y-158019882D01*
X135958272Y-158229638D01*
X135999194Y-158435365D01*
X136079464Y-158629155D01*
X136195999Y-158803561D01*
X136344319Y-158951881D01*
X136518725Y-159068416D01*
X136712515Y-159148686D01*
X136918242Y-159189608D01*
X137127998Y-159189608D01*
X137333725Y-159148686D01*
X137527515Y-159068416D01*
X137701921Y-158951881D01*
X137850241Y-158803561D01*
X137885208Y-158751230D01*
X139277260Y-158762502D01*
X138922212Y-159624760D01*
X133196050Y-159624760D01*
X133213045Y-159613404D01*
X133283386Y-159543063D01*
X133338652Y-159460352D01*
X133376720Y-159368448D01*
X133386655Y-159318500D01*
X133394658Y-159318500D01*
X133492223Y-159299093D01*
X133584127Y-159261025D01*
X133666838Y-159205759D01*
X133737179Y-159135418D01*
X133792445Y-159052707D01*
X133830513Y-158960803D01*
X133849920Y-158863238D01*
X133849920Y-158763762D01*
X133830513Y-158666197D01*
X133792445Y-158574293D01*
X133737179Y-158491582D01*
X133666838Y-158421241D01*
X133584127Y-158365975D01*
X133492223Y-158327907D01*
X133394658Y-158308500D01*
X133295182Y-158308500D01*
X133197617Y-158327907D01*
X133105713Y-158365975D01*
X133023002Y-158421241D01*
X132952661Y-158491582D01*
X132897395Y-158574293D01*
X132859327Y-158666197D01*
X132849392Y-158716145D01*
X132841389Y-158716145D01*
X132743824Y-158735552D01*
X132651920Y-158773620D01*
X132569209Y-158828886D01*
X132498868Y-158899227D01*
X132443602Y-158981938D01*
X132405534Y-159073842D01*
X132391587Y-159143959D01*
X132378279Y-159124042D01*
X132307938Y-159053701D01*
X132225227Y-158998435D01*
X132133323Y-158960367D01*
X132035758Y-158940960D01*
X131936282Y-158940960D01*
X131838717Y-158960367D01*
X131746813Y-158998435D01*
X131664102Y-159053701D01*
X131593761Y-159124042D01*
X131538495Y-159206753D01*
X131500427Y-159298657D01*
X131481020Y-159396222D01*
X131481020Y-159495698D01*
X131500427Y-159593263D01*
X131513474Y-159624760D01*
X128688845Y-159624760D01*
X128712413Y-159567863D01*
X128731820Y-159470298D01*
X128731820Y-159370822D01*
X128712413Y-159273257D01*
X128674345Y-159181353D01*
X128619079Y-159098642D01*
X128548738Y-159028301D01*
X128466027Y-158973035D01*
X128374123Y-158934967D01*
X128276558Y-158915560D01*
X128177082Y-158915560D01*
X128079517Y-158934967D01*
X127987613Y-158973035D01*
X127904902Y-159028301D01*
X127834561Y-159098642D01*
X127779295Y-159181353D01*
X127741227Y-159273257D01*
X127721820Y-159370822D01*
X127721820Y-159470298D01*
X127741227Y-159567863D01*
X127764795Y-159624760D01*
X124918844Y-159624760D01*
X124931440Y-159594350D01*
X124950847Y-159496785D01*
X124950847Y-159397309D01*
X124931440Y-159299744D01*
X124893372Y-159207840D01*
X124838106Y-159125129D01*
X124767765Y-159054788D01*
X124685054Y-158999522D01*
X124593150Y-158961454D01*
X124495585Y-158942047D01*
X124396109Y-158942047D01*
X124298544Y-158961454D01*
X124206640Y-158999522D01*
X124123929Y-159054788D01*
X124053588Y-159125129D01*
X123998322Y-159207840D01*
X123960254Y-159299744D01*
X123940847Y-159397309D01*
X123940847Y-159496785D01*
X123960254Y-159594350D01*
X123972850Y-159624760D01*
X123837520Y-159624760D01*
X123873713Y-159537383D01*
X123893120Y-159439818D01*
X123893120Y-159340342D01*
X123873713Y-159242777D01*
X123835645Y-159150873D01*
X123780379Y-159068162D01*
X123710038Y-158997821D01*
X123627327Y-158942555D01*
X123535423Y-158904487D01*
X123437858Y-158885080D01*
X123338382Y-158885080D01*
X123240817Y-158904487D01*
X123148913Y-158942555D01*
X123066202Y-158997821D01*
X122995861Y-159068162D01*
X122940595Y-159150873D01*
X122902527Y-159242777D01*
X122883120Y-159340342D01*
X122883120Y-159439818D01*
X122902527Y-159537383D01*
X122938720Y-159624760D01*
X121417836Y-159624760D01*
X121436940Y-159528718D01*
X121436940Y-159429242D01*
X121417533Y-159331677D01*
X121379465Y-159239773D01*
X121324199Y-159157062D01*
X121253858Y-159086721D01*
X121171147Y-159031455D01*
X121079243Y-158993387D01*
X120981678Y-158973980D01*
X120882202Y-158973980D01*
X120823120Y-158985732D01*
X120823120Y-155250315D01*
X121567858Y-155250315D01*
X121567858Y-155349791D01*
X121587265Y-155447356D01*
X121625333Y-155539260D01*
X121680599Y-155621971D01*
X121750940Y-155692312D01*
X121833651Y-155747578D01*
X121925555Y-155785646D01*
X122023120Y-155805053D01*
X122122596Y-155805053D01*
X122220161Y-155785646D01*
X122312065Y-155747578D01*
X122394776Y-155692312D01*
X122465117Y-155621971D01*
X122520383Y-155539260D01*
X122558451Y-155447356D01*
X122577858Y-155349791D01*
X122577858Y-155250315D01*
X122558451Y-155152750D01*
X122534605Y-155095180D01*
X122577870Y-155095180D01*
X122577870Y-155194656D01*
X122597277Y-155292221D01*
X122635345Y-155384125D01*
X122690611Y-155466836D01*
X122760952Y-155537177D01*
X122843663Y-155592443D01*
X122935567Y-155630511D01*
X123033132Y-155649918D01*
X123132608Y-155649918D01*
X123230173Y-155630511D01*
X123322077Y-155592443D01*
X123404788Y-155537177D01*
X123475129Y-155466836D01*
X123530395Y-155384125D01*
X123568463Y-155292221D01*
X123587870Y-155194656D01*
X123587870Y-155095180D01*
X123568463Y-154997615D01*
X123530395Y-154905711D01*
X123475129Y-154823000D01*
X123404788Y-154752659D01*
X123322077Y-154697393D01*
X123230173Y-154659325D01*
X123132608Y-154639918D01*
X123033132Y-154639918D01*
X122935567Y-154659325D01*
X122843663Y-154697393D01*
X122760952Y-154752659D01*
X122690611Y-154823000D01*
X122635345Y-154905711D01*
X122597277Y-154997615D01*
X122577870Y-155095180D01*
X122534605Y-155095180D01*
X122520383Y-155060846D01*
X122465117Y-154978135D01*
X122394776Y-154907794D01*
X122312065Y-154852528D01*
X122220161Y-154814460D01*
X122122596Y-154795053D01*
X122023120Y-154795053D01*
X121925555Y-154814460D01*
X121833651Y-154852528D01*
X121750940Y-154907794D01*
X121680599Y-154978135D01*
X121625333Y-155060846D01*
X121587265Y-155152750D01*
X121567858Y-155250315D01*
X120823120Y-155250315D01*
X120823120Y-153828542D01*
X133617160Y-153828542D01*
X133617160Y-153928018D01*
X133636567Y-154025583D01*
X133674635Y-154117487D01*
X133729901Y-154200198D01*
X133800242Y-154270539D01*
X133882953Y-154325805D01*
X133974857Y-154363873D01*
X134072422Y-154383280D01*
X134171898Y-154383280D01*
X134269463Y-154363873D01*
X134361367Y-154325805D01*
X134444078Y-154270539D01*
X134514419Y-154200198D01*
X134569685Y-154117487D01*
X134607753Y-154025583D01*
X134627160Y-153928018D01*
X134627160Y-153828542D01*
X134607753Y-153730977D01*
X134569685Y-153639073D01*
X134514419Y-153556362D01*
X134444078Y-153486021D01*
X134361367Y-153430755D01*
X134269463Y-153392687D01*
X134171898Y-153373280D01*
X134072422Y-153373280D01*
X133974857Y-153392687D01*
X133882953Y-153430755D01*
X133800242Y-153486021D01*
X133729901Y-153556362D01*
X133674635Y-153639073D01*
X133636567Y-153730977D01*
X133617160Y-153828542D01*
X120823120Y-153828542D01*
X120823120Y-153055194D01*
X121072100Y-153055194D01*
X121072100Y-153154670D01*
X121091507Y-153252235D01*
X121129575Y-153344139D01*
X121184841Y-153426850D01*
X121255182Y-153497191D01*
X121337893Y-153552457D01*
X121429797Y-153590525D01*
X121527362Y-153609932D01*
X121626838Y-153609932D01*
X121724403Y-153590525D01*
X121816307Y-153552457D01*
X121899018Y-153497191D01*
X121969359Y-153426850D01*
X122024625Y-153344139D01*
X122062693Y-153252235D01*
X122082100Y-153154670D01*
X122082100Y-153055194D01*
X122062693Y-152957629D01*
X122024625Y-152865725D01*
X121969359Y-152783014D01*
X121899018Y-152712673D01*
X121816307Y-152657407D01*
X121724403Y-152619339D01*
X121626838Y-152599932D01*
X121527362Y-152599932D01*
X121429797Y-152619339D01*
X121337893Y-152657407D01*
X121255182Y-152712673D01*
X121184841Y-152783014D01*
X121129575Y-152865725D01*
X121091507Y-152957629D01*
X121072100Y-153055194D01*
X120823120Y-153055194D01*
X120823120Y-151348255D01*
X120843057Y-151356513D01*
X120940622Y-151375920D01*
X121040098Y-151375920D01*
X121137663Y-151356513D01*
X121229567Y-151318445D01*
X121312278Y-151263179D01*
X121382619Y-151192838D01*
X121437885Y-151110127D01*
X121475953Y-151018223D01*
X121495360Y-150920658D01*
X121495360Y-150821182D01*
X121475953Y-150723617D01*
X121437885Y-150631713D01*
X121433239Y-150624760D01*
X122216310Y-150624760D01*
X122202757Y-150657479D01*
G37*
X122202757Y-150657479D02*
X122180660Y-150768567D01*
X122180660Y-150881833D01*
X122202757Y-150992921D01*
X122246102Y-151097565D01*
X122309028Y-151191741D01*
X122389119Y-151271832D01*
X122483295Y-151334758D01*
X122587939Y-151378103D01*
X122699027Y-151400200D01*
X122812293Y-151400200D01*
X122923381Y-151378103D01*
X123028025Y-151334758D01*
X123122201Y-151271832D01*
X123151218Y-151242815D01*
X123230193Y-151295585D01*
X123322097Y-151333653D01*
X123419662Y-151353060D01*
X123519138Y-151353060D01*
X123616703Y-151333653D01*
X123708607Y-151295585D01*
X123791318Y-151240319D01*
X123861659Y-151169978D01*
X123916925Y-151087267D01*
X123954993Y-150995363D01*
X123974400Y-150897798D01*
X123974400Y-150798322D01*
X123954993Y-150700757D01*
X123923514Y-150624760D01*
X128812764Y-150624760D01*
X128811837Y-150626999D01*
X128789740Y-150738087D01*
X128789740Y-150851353D01*
X128811837Y-150962441D01*
X128855182Y-151067085D01*
X128918108Y-151161261D01*
X128998199Y-151241352D01*
X129092375Y-151304278D01*
X129197019Y-151347623D01*
X129308107Y-151369720D01*
X129421373Y-151369720D01*
X129532461Y-151347623D01*
X129637105Y-151304278D01*
X129731281Y-151241352D01*
X129811372Y-151161261D01*
X129874298Y-151067085D01*
X129917643Y-150962441D01*
X129939740Y-150851353D01*
X129939740Y-150738087D01*
X129917643Y-150626999D01*
X129916716Y-150624760D01*
X138922212Y-150624760D01*
X139172646Y-151232955D01*
X137612114Y-151225217D01*
X137606509Y-151224096D01*
X137591865Y-151222640D01*
X137589957Y-151222826D01*
X137527515Y-151181104D01*
X137333725Y-151100834D01*
X137127998Y-151059912D01*
X136918242Y-151059912D01*
X136712515Y-151100834D01*
X136518725Y-151181104D01*
X136344319Y-151297639D01*
X136195999Y-151445959D01*
X136079464Y-151620365D01*
X135999194Y-151814155D01*
X135958272Y-152019882D01*
X135958272Y-152229638D01*
X135999194Y-152435365D01*
X136079464Y-152629155D01*
X136195999Y-152803561D01*
X136344319Y-152951881D01*
X136518725Y-153068416D01*
X136712515Y-153148686D01*
X136918242Y-153189608D01*
X137127998Y-153189608D01*
X137333725Y-153148686D01*
X137515271Y-153073488D01*
X137511741Y-157174570D01*
X137333725Y-157100834D01*
X137127998Y-157059912D01*
X136918242Y-157059912D01*
X136712515Y-157100834D01*
X136518725Y-157181104D01*
X136344319Y-157297639D01*
X136195999Y-157445959D01*
X136079464Y-157620365D01*
X135999194Y-157814155D01*
X135958272Y-158019882D01*
X135958272Y-158229638D01*
X135999194Y-158435365D01*
X136079464Y-158629155D01*
X136195999Y-158803561D01*
X136344319Y-158951881D01*
X136518725Y-159068416D01*
X136712515Y-159148686D01*
X136918242Y-159189608D01*
X137127998Y-159189608D01*
X137333725Y-159148686D01*
X137527515Y-159068416D01*
X137701921Y-158951881D01*
X137850241Y-158803561D01*
X137885208Y-158751230D01*
X139277260Y-158762502D01*
X138922212Y-159624760D01*
X133196050Y-159624760D01*
X133213045Y-159613404D01*
X133283386Y-159543063D01*
X133338652Y-159460352D01*
X133376720Y-159368448D01*
X133386655Y-159318500D01*
X133394658Y-159318500D01*
X133492223Y-159299093D01*
X133584127Y-159261025D01*
X133666838Y-159205759D01*
X133737179Y-159135418D01*
X133792445Y-159052707D01*
X133830513Y-158960803D01*
X133849920Y-158863238D01*
X133849920Y-158763762D01*
X133830513Y-158666197D01*
X133792445Y-158574293D01*
X133737179Y-158491582D01*
X133666838Y-158421241D01*
X133584127Y-158365975D01*
X133492223Y-158327907D01*
X133394658Y-158308500D01*
X133295182Y-158308500D01*
X133197617Y-158327907D01*
X133105713Y-158365975D01*
X133023002Y-158421241D01*
X132952661Y-158491582D01*
X132897395Y-158574293D01*
X132859327Y-158666197D01*
X132849392Y-158716145D01*
X132841389Y-158716145D01*
X132743824Y-158735552D01*
X132651920Y-158773620D01*
X132569209Y-158828886D01*
X132498868Y-158899227D01*
X132443602Y-158981938D01*
X132405534Y-159073842D01*
X132391587Y-159143959D01*
X132378279Y-159124042D01*
X132307938Y-159053701D01*
X132225227Y-158998435D01*
X132133323Y-158960367D01*
X132035758Y-158940960D01*
X131936282Y-158940960D01*
X131838717Y-158960367D01*
X131746813Y-158998435D01*
X131664102Y-159053701D01*
X131593761Y-159124042D01*
X131538495Y-159206753D01*
X131500427Y-159298657D01*
X131481020Y-159396222D01*
X131481020Y-159495698D01*
X131500427Y-159593263D01*
X131513474Y-159624760D01*
X128688845Y-159624760D01*
X128712413Y-159567863D01*
X128731820Y-159470298D01*
X128731820Y-159370822D01*
X128712413Y-159273257D01*
X128674345Y-159181353D01*
X128619079Y-159098642D01*
X128548738Y-159028301D01*
X128466027Y-158973035D01*
X128374123Y-158934967D01*
X128276558Y-158915560D01*
X128177082Y-158915560D01*
X128079517Y-158934967D01*
X127987613Y-158973035D01*
X127904902Y-159028301D01*
X127834561Y-159098642D01*
X127779295Y-159181353D01*
X127741227Y-159273257D01*
X127721820Y-159370822D01*
X127721820Y-159470298D01*
X127741227Y-159567863D01*
X127764795Y-159624760D01*
X124918844Y-159624760D01*
X124931440Y-159594350D01*
X124950847Y-159496785D01*
X124950847Y-159397309D01*
X124931440Y-159299744D01*
X124893372Y-159207840D01*
X124838106Y-159125129D01*
X124767765Y-159054788D01*
X124685054Y-158999522D01*
X124593150Y-158961454D01*
X124495585Y-158942047D01*
X124396109Y-158942047D01*
X124298544Y-158961454D01*
X124206640Y-158999522D01*
X124123929Y-159054788D01*
X124053588Y-159125129D01*
X123998322Y-159207840D01*
X123960254Y-159299744D01*
X123940847Y-159397309D01*
X123940847Y-159496785D01*
X123960254Y-159594350D01*
X123972850Y-159624760D01*
X123837520Y-159624760D01*
X123873713Y-159537383D01*
X123893120Y-159439818D01*
X123893120Y-159340342D01*
X123873713Y-159242777D01*
X123835645Y-159150873D01*
X123780379Y-159068162D01*
X123710038Y-158997821D01*
X123627327Y-158942555D01*
X123535423Y-158904487D01*
X123437858Y-158885080D01*
X123338382Y-158885080D01*
X123240817Y-158904487D01*
X123148913Y-158942555D01*
X123066202Y-158997821D01*
X122995861Y-159068162D01*
X122940595Y-159150873D01*
X122902527Y-159242777D01*
X122883120Y-159340342D01*
X122883120Y-159439818D01*
X122902527Y-159537383D01*
X122938720Y-159624760D01*
X121417836Y-159624760D01*
X121436940Y-159528718D01*
X121436940Y-159429242D01*
X121417533Y-159331677D01*
X121379465Y-159239773D01*
X121324199Y-159157062D01*
X121253858Y-159086721D01*
X121171147Y-159031455D01*
X121079243Y-158993387D01*
X120981678Y-158973980D01*
X120882202Y-158973980D01*
X120823120Y-158985732D01*
X120823120Y-155250315D01*
X121567858Y-155250315D01*
X121567858Y-155349791D01*
X121587265Y-155447356D01*
X121625333Y-155539260D01*
X121680599Y-155621971D01*
X121750940Y-155692312D01*
X121833651Y-155747578D01*
X121925555Y-155785646D01*
X122023120Y-155805053D01*
X122122596Y-155805053D01*
X122220161Y-155785646D01*
X122312065Y-155747578D01*
X122394776Y-155692312D01*
X122465117Y-155621971D01*
X122520383Y-155539260D01*
X122558451Y-155447356D01*
X122577858Y-155349791D01*
X122577858Y-155250315D01*
X122558451Y-155152750D01*
X122534605Y-155095180D01*
X122577870Y-155095180D01*
X122577870Y-155194656D01*
X122597277Y-155292221D01*
X122635345Y-155384125D01*
X122690611Y-155466836D01*
X122760952Y-155537177D01*
X122843663Y-155592443D01*
X122935567Y-155630511D01*
X123033132Y-155649918D01*
X123132608Y-155649918D01*
X123230173Y-155630511D01*
X123322077Y-155592443D01*
X123404788Y-155537177D01*
X123475129Y-155466836D01*
X123530395Y-155384125D01*
X123568463Y-155292221D01*
X123587870Y-155194656D01*
X123587870Y-155095180D01*
X123568463Y-154997615D01*
X123530395Y-154905711D01*
X123475129Y-154823000D01*
X123404788Y-154752659D01*
X123322077Y-154697393D01*
X123230173Y-154659325D01*
X123132608Y-154639918D01*
X123033132Y-154639918D01*
X122935567Y-154659325D01*
X122843663Y-154697393D01*
X122760952Y-154752659D01*
X122690611Y-154823000D01*
X122635345Y-154905711D01*
X122597277Y-154997615D01*
X122577870Y-155095180D01*
X122534605Y-155095180D01*
X122520383Y-155060846D01*
X122465117Y-154978135D01*
X122394776Y-154907794D01*
X122312065Y-154852528D01*
X122220161Y-154814460D01*
X122122596Y-154795053D01*
X122023120Y-154795053D01*
X121925555Y-154814460D01*
X121833651Y-154852528D01*
X121750940Y-154907794D01*
X121680599Y-154978135D01*
X121625333Y-155060846D01*
X121587265Y-155152750D01*
X121567858Y-155250315D01*
X120823120Y-155250315D01*
X120823120Y-153828542D01*
X133617160Y-153828542D01*
X133617160Y-153928018D01*
X133636567Y-154025583D01*
X133674635Y-154117487D01*
X133729901Y-154200198D01*
X133800242Y-154270539D01*
X133882953Y-154325805D01*
X133974857Y-154363873D01*
X134072422Y-154383280D01*
X134171898Y-154383280D01*
X134269463Y-154363873D01*
X134361367Y-154325805D01*
X134444078Y-154270539D01*
X134514419Y-154200198D01*
X134569685Y-154117487D01*
X134607753Y-154025583D01*
X134627160Y-153928018D01*
X134627160Y-153828542D01*
X134607753Y-153730977D01*
X134569685Y-153639073D01*
X134514419Y-153556362D01*
X134444078Y-153486021D01*
X134361367Y-153430755D01*
X134269463Y-153392687D01*
X134171898Y-153373280D01*
X134072422Y-153373280D01*
X133974857Y-153392687D01*
X133882953Y-153430755D01*
X133800242Y-153486021D01*
X133729901Y-153556362D01*
X133674635Y-153639073D01*
X133636567Y-153730977D01*
X133617160Y-153828542D01*
X120823120Y-153828542D01*
X120823120Y-153055194D01*
X121072100Y-153055194D01*
X121072100Y-153154670D01*
X121091507Y-153252235D01*
X121129575Y-153344139D01*
X121184841Y-153426850D01*
X121255182Y-153497191D01*
X121337893Y-153552457D01*
X121429797Y-153590525D01*
X121527362Y-153609932D01*
X121626838Y-153609932D01*
X121724403Y-153590525D01*
X121816307Y-153552457D01*
X121899018Y-153497191D01*
X121969359Y-153426850D01*
X122024625Y-153344139D01*
X122062693Y-153252235D01*
X122082100Y-153154670D01*
X122082100Y-153055194D01*
X122062693Y-152957629D01*
X122024625Y-152865725D01*
X121969359Y-152783014D01*
X121899018Y-152712673D01*
X121816307Y-152657407D01*
X121724403Y-152619339D01*
X121626838Y-152599932D01*
X121527362Y-152599932D01*
X121429797Y-152619339D01*
X121337893Y-152657407D01*
X121255182Y-152712673D01*
X121184841Y-152783014D01*
X121129575Y-152865725D01*
X121091507Y-152957629D01*
X121072100Y-153055194D01*
X120823120Y-153055194D01*
X120823120Y-151348255D01*
X120843057Y-151356513D01*
X120940622Y-151375920D01*
X121040098Y-151375920D01*
X121137663Y-151356513D01*
X121229567Y-151318445D01*
X121312278Y-151263179D01*
X121382619Y-151192838D01*
X121437885Y-151110127D01*
X121475953Y-151018223D01*
X121495360Y-150920658D01*
X121495360Y-150821182D01*
X121475953Y-150723617D01*
X121437885Y-150631713D01*
X121433239Y-150624760D01*
X122216310Y-150624760D01*
X122202757Y-150657479D01*
%TD*%
M02*
