M48
; DRILL file {KiCad (5.1.9)-1} date 02/01/21 23:30:32
; FORMAT={-:-/ absolute / metric / decimal}
; #@! TF.CreationDate,2021-02-01T23:30:32+08:00
; #@! TF.GenerationSoftware,Kicad,Pcbnew,(5.1.9)-1
FMAT,2
METRIC
T1C0.400
T2C0.900
T3C1.000
T4C1.100
%
G90
G05
T1
X90.551Y-141.732
X91.186Y-136.398
X93.315Y-141.381
X94.018Y-144.122
X94.234Y-134.493
X95.363Y-143.927
X95.599Y-134.207
X96.38Y-143.938
X96.696Y-143.149
X96.726Y-136.985
X96.865Y-146.225
X96.881Y-139.332
X97.231Y-134.165
X97.777Y-132.604
X98.979Y-136.817
X98.979Y-137.866
X98.979Y-138.915
X98.979Y-139.964
X102.789Y-141.453
X103.298Y-138.22
X103.741Y-139.21
X103.741Y-140.122
X103.741Y-141.034
X103.741Y-141.945
X103.741Y-142.857
X103.741Y-143.769
X105.283Y-134.366
X105.286Y-132.939
X106.347Y-138.321
T3
X95.501Y-145.453
X98.041Y-145.453
X100.581Y-145.453
X103.121Y-145.453
T4
X92.068Y-137.091
X92.068Y-141.691
T2
G00X92.868Y-133.691
M15
G01X91.268Y-133.691
M16
G05
G00X92.868Y-145.091
M15
G01X91.268Y-145.091
M16
G05
T0
M30
