%TF.GenerationSoftware,KiCad,Pcbnew,(5.1.9)-1*%
%TF.CreationDate,2021-01-28T22:38:17+08:00*%
%TF.ProjectId,NRF52840,4e524635-3238-4343-902e-6b696361645f,rev?*%
%TF.SameCoordinates,Original*%
%TF.FileFunction,Paste,Top*%
%TF.FilePolarity,Positive*%
%FSLAX46Y46*%
G04 Gerber Fmt 4.6, Leading zero omitted, Abs format (unit mm)*
G04 Created by KiCad (PCBNEW (5.1.9)-1) date 2021-01-28 22:38:17*
%MOMM*%
%LPD*%
G01*
G04 APERTURE LIST*
%ADD10R,0.700000X1.800000*%
%ADD11R,1.800000X0.700000*%
%ADD12R,2.000000X2.000000*%
%ADD13C,0.250000*%
%ADD14R,0.800000X1.200000*%
%ADD15R,1.200000X0.800000*%
%ADD16R,2.000000X0.800000*%
%ADD17R,0.800000X2.000000*%
%ADD18R,2.000000X1.200000*%
%ADD19R,0.900000X0.800000*%
G04 APERTURE END LIST*
%TO.C,REF\u002A\u002A*%
G36*
G01*
X65790999Y-146706000D02*
X66531001Y-146706000D01*
G75*
G02*
X66781000Y-146955999I0J-249999D01*
G01*
X66781000Y-147696001D01*
G75*
G02*
X66531001Y-147946000I-249999J0D01*
G01*
X65790999Y-147946000D01*
G75*
G02*
X65541000Y-147696001I0J249999D01*
G01*
X65541000Y-146955999D01*
G75*
G02*
X65790999Y-146706000I249999J0D01*
G01*
G37*
G36*
G01*
X67320999Y-146706000D02*
X68061001Y-146706000D01*
G75*
G02*
X68311000Y-146955999I0J-249999D01*
G01*
X68311000Y-147696001D01*
G75*
G02*
X68061001Y-147946000I-249999J0D01*
G01*
X67320999Y-147946000D01*
G75*
G02*
X67071000Y-147696001I0J249999D01*
G01*
X67071000Y-146955999D01*
G75*
G02*
X67320999Y-146706000I249999J0D01*
G01*
G37*
G36*
G01*
X68850999Y-146706000D02*
X69591001Y-146706000D01*
G75*
G02*
X69841000Y-146955999I0J-249999D01*
G01*
X69841000Y-147696001D01*
G75*
G02*
X69591001Y-147946000I-249999J0D01*
G01*
X68850999Y-147946000D01*
G75*
G02*
X68601000Y-147696001I0J249999D01*
G01*
X68601000Y-146955999D01*
G75*
G02*
X68850999Y-146706000I249999J0D01*
G01*
G37*
G36*
G01*
X65790999Y-145176000D02*
X66531001Y-145176000D01*
G75*
G02*
X66781000Y-145425999I0J-249999D01*
G01*
X66781000Y-146166001D01*
G75*
G02*
X66531001Y-146416000I-249999J0D01*
G01*
X65790999Y-146416000D01*
G75*
G02*
X65541000Y-146166001I0J249999D01*
G01*
X65541000Y-145425999D01*
G75*
G02*
X65790999Y-145176000I249999J0D01*
G01*
G37*
G36*
G01*
X67320999Y-145176000D02*
X68061001Y-145176000D01*
G75*
G02*
X68311000Y-145425999I0J-249999D01*
G01*
X68311000Y-146166001D01*
G75*
G02*
X68061001Y-146416000I-249999J0D01*
G01*
X67320999Y-146416000D01*
G75*
G02*
X67071000Y-146166001I0J249999D01*
G01*
X67071000Y-145425999D01*
G75*
G02*
X67320999Y-145176000I249999J0D01*
G01*
G37*
G36*
G01*
X68850999Y-145176000D02*
X69591001Y-145176000D01*
G75*
G02*
X69841000Y-145425999I0J-249999D01*
G01*
X69841000Y-146166001D01*
G75*
G02*
X69591001Y-146416000I-249999J0D01*
G01*
X68850999Y-146416000D01*
G75*
G02*
X68601000Y-146166001I0J249999D01*
G01*
X68601000Y-145425999D01*
G75*
G02*
X68850999Y-145176000I249999J0D01*
G01*
G37*
G36*
G01*
X65790999Y-143646000D02*
X66531001Y-143646000D01*
G75*
G02*
X66781000Y-143895999I0J-249999D01*
G01*
X66781000Y-144636001D01*
G75*
G02*
X66531001Y-144886000I-249999J0D01*
G01*
X65790999Y-144886000D01*
G75*
G02*
X65541000Y-144636001I0J249999D01*
G01*
X65541000Y-143895999D01*
G75*
G02*
X65790999Y-143646000I249999J0D01*
G01*
G37*
G36*
G01*
X67320999Y-143646000D02*
X68061001Y-143646000D01*
G75*
G02*
X68311000Y-143895999I0J-249999D01*
G01*
X68311000Y-144636001D01*
G75*
G02*
X68061001Y-144886000I-249999J0D01*
G01*
X67320999Y-144886000D01*
G75*
G02*
X67071000Y-144636001I0J249999D01*
G01*
X67071000Y-143895999D01*
G75*
G02*
X67320999Y-143646000I249999J0D01*
G01*
G37*
G36*
G01*
X68850999Y-143646000D02*
X69591001Y-143646000D01*
G75*
G02*
X69841000Y-143895999I0J-249999D01*
G01*
X69841000Y-144636001D01*
G75*
G02*
X69591001Y-144886000I-249999J0D01*
G01*
X68850999Y-144886000D01*
G75*
G02*
X68601000Y-144636001I0J249999D01*
G01*
X68601000Y-143895999D01*
G75*
G02*
X68850999Y-143646000I249999J0D01*
G01*
G37*
G36*
G01*
X70291000Y-143496000D02*
X70991000Y-143496000D01*
G75*
G02*
X71041000Y-143546000I0J-50000D01*
G01*
X71041000Y-143646000D01*
G75*
G02*
X70991000Y-143696000I-50000J0D01*
G01*
X70291000Y-143696000D01*
G75*
G02*
X70241000Y-143646000I0J50000D01*
G01*
X70241000Y-143546000D01*
G75*
G02*
X70291000Y-143496000I50000J0D01*
G01*
G37*
G36*
G01*
X70291000Y-143896000D02*
X70991000Y-143896000D01*
G75*
G02*
X71041000Y-143946000I0J-50000D01*
G01*
X71041000Y-144046000D01*
G75*
G02*
X70991000Y-144096000I-50000J0D01*
G01*
X70291000Y-144096000D01*
G75*
G02*
X70241000Y-144046000I0J50000D01*
G01*
X70241000Y-143946000D01*
G75*
G02*
X70291000Y-143896000I50000J0D01*
G01*
G37*
G36*
G01*
X70291000Y-144296000D02*
X70991000Y-144296000D01*
G75*
G02*
X71041000Y-144346000I0J-50000D01*
G01*
X71041000Y-144446000D01*
G75*
G02*
X70991000Y-144496000I-50000J0D01*
G01*
X70291000Y-144496000D01*
G75*
G02*
X70241000Y-144446000I0J50000D01*
G01*
X70241000Y-144346000D01*
G75*
G02*
X70291000Y-144296000I50000J0D01*
G01*
G37*
G36*
G01*
X70291000Y-144696000D02*
X70991000Y-144696000D01*
G75*
G02*
X71041000Y-144746000I0J-50000D01*
G01*
X71041000Y-144846000D01*
G75*
G02*
X70991000Y-144896000I-50000J0D01*
G01*
X70291000Y-144896000D01*
G75*
G02*
X70241000Y-144846000I0J50000D01*
G01*
X70241000Y-144746000D01*
G75*
G02*
X70291000Y-144696000I50000J0D01*
G01*
G37*
G36*
G01*
X70291000Y-145096000D02*
X70991000Y-145096000D01*
G75*
G02*
X71041000Y-145146000I0J-50000D01*
G01*
X71041000Y-145246000D01*
G75*
G02*
X70991000Y-145296000I-50000J0D01*
G01*
X70291000Y-145296000D01*
G75*
G02*
X70241000Y-145246000I0J50000D01*
G01*
X70241000Y-145146000D01*
G75*
G02*
X70291000Y-145096000I50000J0D01*
G01*
G37*
G36*
G01*
X70291000Y-145496000D02*
X70991000Y-145496000D01*
G75*
G02*
X71041000Y-145546000I0J-50000D01*
G01*
X71041000Y-145646000D01*
G75*
G02*
X70991000Y-145696000I-50000J0D01*
G01*
X70291000Y-145696000D01*
G75*
G02*
X70241000Y-145646000I0J50000D01*
G01*
X70241000Y-145546000D01*
G75*
G02*
X70291000Y-145496000I50000J0D01*
G01*
G37*
G36*
G01*
X70291000Y-145896000D02*
X70991000Y-145896000D01*
G75*
G02*
X71041000Y-145946000I0J-50000D01*
G01*
X71041000Y-146046000D01*
G75*
G02*
X70991000Y-146096000I-50000J0D01*
G01*
X70291000Y-146096000D01*
G75*
G02*
X70241000Y-146046000I0J50000D01*
G01*
X70241000Y-145946000D01*
G75*
G02*
X70291000Y-145896000I50000J0D01*
G01*
G37*
G36*
G01*
X70291000Y-146296000D02*
X70991000Y-146296000D01*
G75*
G02*
X71041000Y-146346000I0J-50000D01*
G01*
X71041000Y-146446000D01*
G75*
G02*
X70991000Y-146496000I-50000J0D01*
G01*
X70291000Y-146496000D01*
G75*
G02*
X70241000Y-146446000I0J50000D01*
G01*
X70241000Y-146346000D01*
G75*
G02*
X70291000Y-146296000I50000J0D01*
G01*
G37*
G36*
G01*
X70291000Y-146696000D02*
X70991000Y-146696000D01*
G75*
G02*
X71041000Y-146746000I0J-50000D01*
G01*
X71041000Y-146846000D01*
G75*
G02*
X70991000Y-146896000I-50000J0D01*
G01*
X70291000Y-146896000D01*
G75*
G02*
X70241000Y-146846000I0J50000D01*
G01*
X70241000Y-146746000D01*
G75*
G02*
X70291000Y-146696000I50000J0D01*
G01*
G37*
G36*
G01*
X70291000Y-147096000D02*
X70991000Y-147096000D01*
G75*
G02*
X71041000Y-147146000I0J-50000D01*
G01*
X71041000Y-147246000D01*
G75*
G02*
X70991000Y-147296000I-50000J0D01*
G01*
X70291000Y-147296000D01*
G75*
G02*
X70241000Y-147246000I0J50000D01*
G01*
X70241000Y-147146000D01*
G75*
G02*
X70291000Y-147096000I50000J0D01*
G01*
G37*
G36*
G01*
X70291000Y-147496000D02*
X70991000Y-147496000D01*
G75*
G02*
X71041000Y-147546000I0J-50000D01*
G01*
X71041000Y-147646000D01*
G75*
G02*
X70991000Y-147696000I-50000J0D01*
G01*
X70291000Y-147696000D01*
G75*
G02*
X70241000Y-147646000I0J50000D01*
G01*
X70241000Y-147546000D01*
G75*
G02*
X70291000Y-147496000I50000J0D01*
G01*
G37*
G36*
G01*
X70291000Y-147896000D02*
X70991000Y-147896000D01*
G75*
G02*
X71041000Y-147946000I0J-50000D01*
G01*
X71041000Y-148046000D01*
G75*
G02*
X70991000Y-148096000I-50000J0D01*
G01*
X70291000Y-148096000D01*
G75*
G02*
X70241000Y-148046000I0J50000D01*
G01*
X70241000Y-147946000D01*
G75*
G02*
X70291000Y-147896000I50000J0D01*
G01*
G37*
G36*
G01*
X69841000Y-148346000D02*
X69941000Y-148346000D01*
G75*
G02*
X69991000Y-148396000I0J-50000D01*
G01*
X69991000Y-149096000D01*
G75*
G02*
X69941000Y-149146000I-50000J0D01*
G01*
X69841000Y-149146000D01*
G75*
G02*
X69791000Y-149096000I0J50000D01*
G01*
X69791000Y-148396000D01*
G75*
G02*
X69841000Y-148346000I50000J0D01*
G01*
G37*
G36*
G01*
X69441000Y-148346000D02*
X69541000Y-148346000D01*
G75*
G02*
X69591000Y-148396000I0J-50000D01*
G01*
X69591000Y-149096000D01*
G75*
G02*
X69541000Y-149146000I-50000J0D01*
G01*
X69441000Y-149146000D01*
G75*
G02*
X69391000Y-149096000I0J50000D01*
G01*
X69391000Y-148396000D01*
G75*
G02*
X69441000Y-148346000I50000J0D01*
G01*
G37*
G36*
G01*
X69041000Y-148346000D02*
X69141000Y-148346000D01*
G75*
G02*
X69191000Y-148396000I0J-50000D01*
G01*
X69191000Y-149096000D01*
G75*
G02*
X69141000Y-149146000I-50000J0D01*
G01*
X69041000Y-149146000D01*
G75*
G02*
X68991000Y-149096000I0J50000D01*
G01*
X68991000Y-148396000D01*
G75*
G02*
X69041000Y-148346000I50000J0D01*
G01*
G37*
G36*
G01*
X68641000Y-148346000D02*
X68741000Y-148346000D01*
G75*
G02*
X68791000Y-148396000I0J-50000D01*
G01*
X68791000Y-149096000D01*
G75*
G02*
X68741000Y-149146000I-50000J0D01*
G01*
X68641000Y-149146000D01*
G75*
G02*
X68591000Y-149096000I0J50000D01*
G01*
X68591000Y-148396000D01*
G75*
G02*
X68641000Y-148346000I50000J0D01*
G01*
G37*
G36*
G01*
X68241000Y-148346000D02*
X68341000Y-148346000D01*
G75*
G02*
X68391000Y-148396000I0J-50000D01*
G01*
X68391000Y-149096000D01*
G75*
G02*
X68341000Y-149146000I-50000J0D01*
G01*
X68241000Y-149146000D01*
G75*
G02*
X68191000Y-149096000I0J50000D01*
G01*
X68191000Y-148396000D01*
G75*
G02*
X68241000Y-148346000I50000J0D01*
G01*
G37*
G36*
G01*
X67841000Y-148346000D02*
X67941000Y-148346000D01*
G75*
G02*
X67991000Y-148396000I0J-50000D01*
G01*
X67991000Y-149096000D01*
G75*
G02*
X67941000Y-149146000I-50000J0D01*
G01*
X67841000Y-149146000D01*
G75*
G02*
X67791000Y-149096000I0J50000D01*
G01*
X67791000Y-148396000D01*
G75*
G02*
X67841000Y-148346000I50000J0D01*
G01*
G37*
G36*
G01*
X67441000Y-148346000D02*
X67541000Y-148346000D01*
G75*
G02*
X67591000Y-148396000I0J-50000D01*
G01*
X67591000Y-149096000D01*
G75*
G02*
X67541000Y-149146000I-50000J0D01*
G01*
X67441000Y-149146000D01*
G75*
G02*
X67391000Y-149096000I0J50000D01*
G01*
X67391000Y-148396000D01*
G75*
G02*
X67441000Y-148346000I50000J0D01*
G01*
G37*
G36*
G01*
X67041000Y-148346000D02*
X67141000Y-148346000D01*
G75*
G02*
X67191000Y-148396000I0J-50000D01*
G01*
X67191000Y-149096000D01*
G75*
G02*
X67141000Y-149146000I-50000J0D01*
G01*
X67041000Y-149146000D01*
G75*
G02*
X66991000Y-149096000I0J50000D01*
G01*
X66991000Y-148396000D01*
G75*
G02*
X67041000Y-148346000I50000J0D01*
G01*
G37*
G36*
G01*
X66641000Y-148346000D02*
X66741000Y-148346000D01*
G75*
G02*
X66791000Y-148396000I0J-50000D01*
G01*
X66791000Y-149096000D01*
G75*
G02*
X66741000Y-149146000I-50000J0D01*
G01*
X66641000Y-149146000D01*
G75*
G02*
X66591000Y-149096000I0J50000D01*
G01*
X66591000Y-148396000D01*
G75*
G02*
X66641000Y-148346000I50000J0D01*
G01*
G37*
G36*
G01*
X66241000Y-148346000D02*
X66341000Y-148346000D01*
G75*
G02*
X66391000Y-148396000I0J-50000D01*
G01*
X66391000Y-149096000D01*
G75*
G02*
X66341000Y-149146000I-50000J0D01*
G01*
X66241000Y-149146000D01*
G75*
G02*
X66191000Y-149096000I0J50000D01*
G01*
X66191000Y-148396000D01*
G75*
G02*
X66241000Y-148346000I50000J0D01*
G01*
G37*
G36*
G01*
X65841000Y-148346000D02*
X65941000Y-148346000D01*
G75*
G02*
X65991000Y-148396000I0J-50000D01*
G01*
X65991000Y-149096000D01*
G75*
G02*
X65941000Y-149146000I-50000J0D01*
G01*
X65841000Y-149146000D01*
G75*
G02*
X65791000Y-149096000I0J50000D01*
G01*
X65791000Y-148396000D01*
G75*
G02*
X65841000Y-148346000I50000J0D01*
G01*
G37*
G36*
G01*
X65441000Y-148346000D02*
X65541000Y-148346000D01*
G75*
G02*
X65591000Y-148396000I0J-50000D01*
G01*
X65591000Y-149096000D01*
G75*
G02*
X65541000Y-149146000I-50000J0D01*
G01*
X65441000Y-149146000D01*
G75*
G02*
X65391000Y-149096000I0J50000D01*
G01*
X65391000Y-148396000D01*
G75*
G02*
X65441000Y-148346000I50000J0D01*
G01*
G37*
G36*
G01*
X64391000Y-147896000D02*
X65091000Y-147896000D01*
G75*
G02*
X65141000Y-147946000I0J-50000D01*
G01*
X65141000Y-148046000D01*
G75*
G02*
X65091000Y-148096000I-50000J0D01*
G01*
X64391000Y-148096000D01*
G75*
G02*
X64341000Y-148046000I0J50000D01*
G01*
X64341000Y-147946000D01*
G75*
G02*
X64391000Y-147896000I50000J0D01*
G01*
G37*
G36*
G01*
X64391000Y-147496000D02*
X65091000Y-147496000D01*
G75*
G02*
X65141000Y-147546000I0J-50000D01*
G01*
X65141000Y-147646000D01*
G75*
G02*
X65091000Y-147696000I-50000J0D01*
G01*
X64391000Y-147696000D01*
G75*
G02*
X64341000Y-147646000I0J50000D01*
G01*
X64341000Y-147546000D01*
G75*
G02*
X64391000Y-147496000I50000J0D01*
G01*
G37*
G36*
G01*
X64391000Y-147096000D02*
X65091000Y-147096000D01*
G75*
G02*
X65141000Y-147146000I0J-50000D01*
G01*
X65141000Y-147246000D01*
G75*
G02*
X65091000Y-147296000I-50000J0D01*
G01*
X64391000Y-147296000D01*
G75*
G02*
X64341000Y-147246000I0J50000D01*
G01*
X64341000Y-147146000D01*
G75*
G02*
X64391000Y-147096000I50000J0D01*
G01*
G37*
G36*
G01*
X64391000Y-146696000D02*
X65091000Y-146696000D01*
G75*
G02*
X65141000Y-146746000I0J-50000D01*
G01*
X65141000Y-146846000D01*
G75*
G02*
X65091000Y-146896000I-50000J0D01*
G01*
X64391000Y-146896000D01*
G75*
G02*
X64341000Y-146846000I0J50000D01*
G01*
X64341000Y-146746000D01*
G75*
G02*
X64391000Y-146696000I50000J0D01*
G01*
G37*
G36*
G01*
X64391000Y-146296000D02*
X65091000Y-146296000D01*
G75*
G02*
X65141000Y-146346000I0J-50000D01*
G01*
X65141000Y-146446000D01*
G75*
G02*
X65091000Y-146496000I-50000J0D01*
G01*
X64391000Y-146496000D01*
G75*
G02*
X64341000Y-146446000I0J50000D01*
G01*
X64341000Y-146346000D01*
G75*
G02*
X64391000Y-146296000I50000J0D01*
G01*
G37*
G36*
G01*
X64391000Y-145896000D02*
X65091000Y-145896000D01*
G75*
G02*
X65141000Y-145946000I0J-50000D01*
G01*
X65141000Y-146046000D01*
G75*
G02*
X65091000Y-146096000I-50000J0D01*
G01*
X64391000Y-146096000D01*
G75*
G02*
X64341000Y-146046000I0J50000D01*
G01*
X64341000Y-145946000D01*
G75*
G02*
X64391000Y-145896000I50000J0D01*
G01*
G37*
G36*
G01*
X64391000Y-145496000D02*
X65091000Y-145496000D01*
G75*
G02*
X65141000Y-145546000I0J-50000D01*
G01*
X65141000Y-145646000D01*
G75*
G02*
X65091000Y-145696000I-50000J0D01*
G01*
X64391000Y-145696000D01*
G75*
G02*
X64341000Y-145646000I0J50000D01*
G01*
X64341000Y-145546000D01*
G75*
G02*
X64391000Y-145496000I50000J0D01*
G01*
G37*
G36*
G01*
X64391000Y-145096000D02*
X65091000Y-145096000D01*
G75*
G02*
X65141000Y-145146000I0J-50000D01*
G01*
X65141000Y-145246000D01*
G75*
G02*
X65091000Y-145296000I-50000J0D01*
G01*
X64391000Y-145296000D01*
G75*
G02*
X64341000Y-145246000I0J50000D01*
G01*
X64341000Y-145146000D01*
G75*
G02*
X64391000Y-145096000I50000J0D01*
G01*
G37*
G36*
G01*
X64391000Y-144696000D02*
X65091000Y-144696000D01*
G75*
G02*
X65141000Y-144746000I0J-50000D01*
G01*
X65141000Y-144846000D01*
G75*
G02*
X65091000Y-144896000I-50000J0D01*
G01*
X64391000Y-144896000D01*
G75*
G02*
X64341000Y-144846000I0J50000D01*
G01*
X64341000Y-144746000D01*
G75*
G02*
X64391000Y-144696000I50000J0D01*
G01*
G37*
G36*
G01*
X64391000Y-144296000D02*
X65091000Y-144296000D01*
G75*
G02*
X65141000Y-144346000I0J-50000D01*
G01*
X65141000Y-144446000D01*
G75*
G02*
X65091000Y-144496000I-50000J0D01*
G01*
X64391000Y-144496000D01*
G75*
G02*
X64341000Y-144446000I0J50000D01*
G01*
X64341000Y-144346000D01*
G75*
G02*
X64391000Y-144296000I50000J0D01*
G01*
G37*
G36*
G01*
X64391000Y-143896000D02*
X65091000Y-143896000D01*
G75*
G02*
X65141000Y-143946000I0J-50000D01*
G01*
X65141000Y-144046000D01*
G75*
G02*
X65091000Y-144096000I-50000J0D01*
G01*
X64391000Y-144096000D01*
G75*
G02*
X64341000Y-144046000I0J50000D01*
G01*
X64341000Y-143946000D01*
G75*
G02*
X64391000Y-143896000I50000J0D01*
G01*
G37*
G36*
G01*
X64391000Y-143496000D02*
X65091000Y-143496000D01*
G75*
G02*
X65141000Y-143546000I0J-50000D01*
G01*
X65141000Y-143646000D01*
G75*
G02*
X65091000Y-143696000I-50000J0D01*
G01*
X64391000Y-143696000D01*
G75*
G02*
X64341000Y-143646000I0J50000D01*
G01*
X64341000Y-143546000D01*
G75*
G02*
X64391000Y-143496000I50000J0D01*
G01*
G37*
G36*
G01*
X65441000Y-142446000D02*
X65541000Y-142446000D01*
G75*
G02*
X65591000Y-142496000I0J-50000D01*
G01*
X65591000Y-143196000D01*
G75*
G02*
X65541000Y-143246000I-50000J0D01*
G01*
X65441000Y-143246000D01*
G75*
G02*
X65391000Y-143196000I0J50000D01*
G01*
X65391000Y-142496000D01*
G75*
G02*
X65441000Y-142446000I50000J0D01*
G01*
G37*
G36*
G01*
X65841000Y-142446000D02*
X65941000Y-142446000D01*
G75*
G02*
X65991000Y-142496000I0J-50000D01*
G01*
X65991000Y-143196000D01*
G75*
G02*
X65941000Y-143246000I-50000J0D01*
G01*
X65841000Y-143246000D01*
G75*
G02*
X65791000Y-143196000I0J50000D01*
G01*
X65791000Y-142496000D01*
G75*
G02*
X65841000Y-142446000I50000J0D01*
G01*
G37*
G36*
G01*
X66241000Y-142446000D02*
X66341000Y-142446000D01*
G75*
G02*
X66391000Y-142496000I0J-50000D01*
G01*
X66391000Y-143196000D01*
G75*
G02*
X66341000Y-143246000I-50000J0D01*
G01*
X66241000Y-143246000D01*
G75*
G02*
X66191000Y-143196000I0J50000D01*
G01*
X66191000Y-142496000D01*
G75*
G02*
X66241000Y-142446000I50000J0D01*
G01*
G37*
G36*
G01*
X66641000Y-142446000D02*
X66741000Y-142446000D01*
G75*
G02*
X66791000Y-142496000I0J-50000D01*
G01*
X66791000Y-143196000D01*
G75*
G02*
X66741000Y-143246000I-50000J0D01*
G01*
X66641000Y-143246000D01*
G75*
G02*
X66591000Y-143196000I0J50000D01*
G01*
X66591000Y-142496000D01*
G75*
G02*
X66641000Y-142446000I50000J0D01*
G01*
G37*
G36*
G01*
X67041000Y-142446000D02*
X67141000Y-142446000D01*
G75*
G02*
X67191000Y-142496000I0J-50000D01*
G01*
X67191000Y-143196000D01*
G75*
G02*
X67141000Y-143246000I-50000J0D01*
G01*
X67041000Y-143246000D01*
G75*
G02*
X66991000Y-143196000I0J50000D01*
G01*
X66991000Y-142496000D01*
G75*
G02*
X67041000Y-142446000I50000J0D01*
G01*
G37*
G36*
G01*
X67441000Y-142446000D02*
X67541000Y-142446000D01*
G75*
G02*
X67591000Y-142496000I0J-50000D01*
G01*
X67591000Y-143196000D01*
G75*
G02*
X67541000Y-143246000I-50000J0D01*
G01*
X67441000Y-143246000D01*
G75*
G02*
X67391000Y-143196000I0J50000D01*
G01*
X67391000Y-142496000D01*
G75*
G02*
X67441000Y-142446000I50000J0D01*
G01*
G37*
G36*
G01*
X67841000Y-142446000D02*
X67941000Y-142446000D01*
G75*
G02*
X67991000Y-142496000I0J-50000D01*
G01*
X67991000Y-143196000D01*
G75*
G02*
X67941000Y-143246000I-50000J0D01*
G01*
X67841000Y-143246000D01*
G75*
G02*
X67791000Y-143196000I0J50000D01*
G01*
X67791000Y-142496000D01*
G75*
G02*
X67841000Y-142446000I50000J0D01*
G01*
G37*
G36*
G01*
X68241000Y-142446000D02*
X68341000Y-142446000D01*
G75*
G02*
X68391000Y-142496000I0J-50000D01*
G01*
X68391000Y-143196000D01*
G75*
G02*
X68341000Y-143246000I-50000J0D01*
G01*
X68241000Y-143246000D01*
G75*
G02*
X68191000Y-143196000I0J50000D01*
G01*
X68191000Y-142496000D01*
G75*
G02*
X68241000Y-142446000I50000J0D01*
G01*
G37*
G36*
G01*
X68641000Y-142446000D02*
X68741000Y-142446000D01*
G75*
G02*
X68791000Y-142496000I0J-50000D01*
G01*
X68791000Y-143196000D01*
G75*
G02*
X68741000Y-143246000I-50000J0D01*
G01*
X68641000Y-143246000D01*
G75*
G02*
X68591000Y-143196000I0J50000D01*
G01*
X68591000Y-142496000D01*
G75*
G02*
X68641000Y-142446000I50000J0D01*
G01*
G37*
G36*
G01*
X69041000Y-142446000D02*
X69141000Y-142446000D01*
G75*
G02*
X69191000Y-142496000I0J-50000D01*
G01*
X69191000Y-143196000D01*
G75*
G02*
X69141000Y-143246000I-50000J0D01*
G01*
X69041000Y-143246000D01*
G75*
G02*
X68991000Y-143196000I0J50000D01*
G01*
X68991000Y-142496000D01*
G75*
G02*
X69041000Y-142446000I50000J0D01*
G01*
G37*
G36*
G01*
X69441000Y-142446000D02*
X69541000Y-142446000D01*
G75*
G02*
X69591000Y-142496000I0J-50000D01*
G01*
X69591000Y-143196000D01*
G75*
G02*
X69541000Y-143246000I-50000J0D01*
G01*
X69441000Y-143246000D01*
G75*
G02*
X69391000Y-143196000I0J50000D01*
G01*
X69391000Y-142496000D01*
G75*
G02*
X69441000Y-142446000I50000J0D01*
G01*
G37*
G36*
G01*
X69841000Y-142446000D02*
X69941000Y-142446000D01*
G75*
G02*
X69991000Y-142496000I0J-50000D01*
G01*
X69991000Y-143196000D01*
G75*
G02*
X69941000Y-143246000I-50000J0D01*
G01*
X69841000Y-143246000D01*
G75*
G02*
X69791000Y-143196000I0J50000D01*
G01*
X69791000Y-142496000D01*
G75*
G02*
X69841000Y-142446000I50000J0D01*
G01*
G37*
%TD*%
D10*
%TO.C,REF\u002A\u002A*%
X86133000Y-98438000D03*
X87403000Y-98438000D03*
X89943000Y-98438000D03*
X91213000Y-98438000D03*
X92483000Y-98438000D03*
X93753000Y-98438000D03*
X95023000Y-98438000D03*
X96293000Y-98438000D03*
X97563000Y-98438000D03*
X98833000Y-98438000D03*
X100103000Y-98438000D03*
X101373000Y-98438000D03*
X102643000Y-98438000D03*
X103913000Y-98438000D03*
X105183000Y-98438000D03*
X106453000Y-98438000D03*
D11*
X108203000Y-100203000D03*
X108203000Y-101473000D03*
X108203000Y-102743000D03*
X108203000Y-104013000D03*
X108203000Y-105283000D03*
X108203000Y-106553000D03*
X108203000Y-107823000D03*
X108203000Y-109093000D03*
X108203000Y-110363000D03*
X108203000Y-111633000D03*
X108203000Y-112903000D03*
X108203000Y-114173000D03*
D10*
X106453000Y-115938000D03*
X105183000Y-115938000D03*
X103913000Y-115938000D03*
X102643000Y-115938000D03*
X101373000Y-115938000D03*
X100103000Y-115938000D03*
X98833000Y-115938000D03*
X97563000Y-115938000D03*
X96293000Y-115938000D03*
X95023000Y-115938000D03*
X93753000Y-115938000D03*
X92483000Y-115938000D03*
X91213000Y-115938000D03*
X89943000Y-115938000D03*
X87403000Y-115938000D03*
X86133000Y-115938000D03*
%TD*%
D12*
%TO.C,REF\u002A\u002A*%
X68649500Y-134054500D03*
X66224500Y-134054500D03*
X68649500Y-131629500D03*
X66224500Y-131629500D03*
D13*
X70687000Y-130092000D03*
X70187000Y-130842000D03*
X66187000Y-129592000D03*
X64937000Y-130092000D03*
X69437000Y-135592000D03*
X70187000Y-136092000D03*
X64687000Y-136092000D03*
X64687000Y-135342000D03*
X64687000Y-134842000D03*
X64187000Y-134592000D03*
X64187000Y-134092000D03*
X64187000Y-133592000D03*
X64187000Y-133092000D03*
X64187000Y-132592000D03*
X64187000Y-132092000D03*
X64187000Y-131592000D03*
X64687000Y-133842000D03*
X64687000Y-133342000D03*
X64687000Y-132842000D03*
X64687000Y-132342000D03*
X64687000Y-131842000D03*
X64687000Y-131342000D03*
X64187000Y-130592000D03*
X64687000Y-130842000D03*
X64187000Y-130092000D03*
X65187000Y-136092000D03*
X65687000Y-136092000D03*
X66187000Y-136092000D03*
X66687000Y-136092000D03*
X67187000Y-136092000D03*
X67687000Y-136092000D03*
X68187000Y-136092000D03*
X68687000Y-136092000D03*
X69187000Y-136092000D03*
X69687000Y-136092000D03*
X68937000Y-135592000D03*
X68437000Y-135592000D03*
X67937000Y-135592000D03*
X67437000Y-135592000D03*
X66937000Y-135592000D03*
X66437000Y-135592000D03*
X65437000Y-135592000D03*
X65437000Y-130092000D03*
X65937000Y-130092000D03*
X66437000Y-130092000D03*
X66937000Y-130092000D03*
X67437000Y-130092000D03*
X67937000Y-130092000D03*
X68437000Y-130092000D03*
X68937000Y-130092000D03*
X66687000Y-129592000D03*
X67187000Y-129592000D03*
X67687000Y-129592000D03*
X68187000Y-129592000D03*
X68687000Y-129592000D03*
X69187000Y-129592000D03*
X69687000Y-129592000D03*
X70187000Y-129592000D03*
X70187000Y-131342000D03*
X70187000Y-131842000D03*
X70187000Y-133342000D03*
X70187000Y-133842000D03*
X70187000Y-134342000D03*
X70187000Y-134842000D03*
X70687000Y-131092000D03*
X70687000Y-132092000D03*
X70687000Y-132592000D03*
X70687000Y-133092000D03*
X70687000Y-133592000D03*
X70687000Y-134092000D03*
X70687000Y-134592000D03*
X70687000Y-135092000D03*
X70687000Y-135592000D03*
%TD*%
D14*
%TO.C,NRF52840*%
X103207820Y-155376880D03*
X101937820Y-155376880D03*
X100667820Y-155376880D03*
X99397820Y-155376880D03*
X98127820Y-155376880D03*
X96857820Y-155376880D03*
X95587820Y-155376880D03*
X94317820Y-155376880D03*
D15*
X105415080Y-155770580D03*
X105415080Y-157040580D03*
X105415080Y-158310580D03*
X105415080Y-159580580D03*
X105415080Y-160850580D03*
X105415080Y-162120580D03*
X105415080Y-163390580D03*
D16*
X107711240Y-155133040D03*
X107711240Y-156403040D03*
X107711240Y-157673040D03*
X107711240Y-158943040D03*
X107711240Y-160213040D03*
X107711240Y-161483040D03*
X107711240Y-162753040D03*
X107711240Y-164023040D03*
D17*
X105115360Y-153078180D03*
X103845360Y-153078180D03*
X102575360Y-153078180D03*
X101305360Y-153078180D03*
X100035360Y-153078180D03*
X98765360Y-153078180D03*
X97495360Y-153078180D03*
X96225360Y-153078180D03*
X94955360Y-153078180D03*
X93685360Y-153078180D03*
X105115360Y-166077900D03*
X103845360Y-166077900D03*
X102575360Y-166077900D03*
X101305360Y-166077900D03*
X100035360Y-166077900D03*
X98765360Y-166077900D03*
X97495360Y-166077900D03*
X96225360Y-166077900D03*
X94955360Y-166077900D03*
X93685360Y-166077900D03*
%TD*%
D18*
%TO.C,AE*%
X107241040Y-144036840D03*
X107241040Y-139736840D03*
%TD*%
D12*
%TO.C,U1*%
X98491660Y-139819040D03*
X96066660Y-139819040D03*
X98491660Y-137394040D03*
X96066660Y-137394040D03*
D13*
X100529160Y-135856540D03*
X100029160Y-136606540D03*
X96029160Y-135356540D03*
X94779160Y-135856540D03*
X99279160Y-141356540D03*
X100029160Y-141856540D03*
X94529160Y-141856540D03*
X94529160Y-141106540D03*
X94529160Y-140606540D03*
X94029160Y-140356540D03*
X94029160Y-139856540D03*
X94029160Y-139356540D03*
X94029160Y-138856540D03*
X94029160Y-138356540D03*
X94029160Y-137856540D03*
X94029160Y-137356540D03*
X94529160Y-139606540D03*
X94529160Y-139106540D03*
X94529160Y-138606540D03*
X94529160Y-138106540D03*
X94529160Y-137606540D03*
X94529160Y-137106540D03*
X94029160Y-136356540D03*
X94529160Y-136606540D03*
X94029160Y-135856540D03*
X95029160Y-141856540D03*
X95529160Y-141856540D03*
X96029160Y-141856540D03*
X96529160Y-141856540D03*
X97029160Y-141856540D03*
X97529160Y-141856540D03*
X98029160Y-141856540D03*
X98529160Y-141856540D03*
X99029160Y-141856540D03*
X99529160Y-141856540D03*
X98779160Y-141356540D03*
X98279160Y-141356540D03*
X97779160Y-141356540D03*
X97279160Y-141356540D03*
X96779160Y-141356540D03*
X96279160Y-141356540D03*
X95279160Y-141356540D03*
X95279160Y-135856540D03*
X95779160Y-135856540D03*
X96279160Y-135856540D03*
X96779160Y-135856540D03*
X97279160Y-135856540D03*
X97779160Y-135856540D03*
X98279160Y-135856540D03*
X98779160Y-135856540D03*
X96529160Y-135356540D03*
X97029160Y-135356540D03*
X97529160Y-135356540D03*
X98029160Y-135356540D03*
X98529160Y-135356540D03*
X99029160Y-135356540D03*
X99529160Y-135356540D03*
X100029160Y-135356540D03*
X100029160Y-137106540D03*
X100029160Y-137606540D03*
X100029160Y-139106540D03*
X100029160Y-139606540D03*
X100029160Y-140106540D03*
X100029160Y-140606540D03*
X100529160Y-136856540D03*
X100529160Y-137856540D03*
X100529160Y-138356540D03*
X100529160Y-138856540D03*
X100529160Y-139356540D03*
X100529160Y-139856540D03*
X100529160Y-140356540D03*
X100529160Y-140856540D03*
X100529160Y-141356540D03*
%TD*%
D19*
%TO.C,Y1*%
X100869220Y-132872400D03*
X102269220Y-132872400D03*
X102269220Y-133972400D03*
X100869220Y-133972400D03*
%TD*%
%TO.C,R1*%
G36*
G01*
X106055520Y-137151300D02*
X106055520Y-137491300D01*
G75*
G02*
X105915520Y-137631300I-140000J0D01*
G01*
X105635520Y-137631300D01*
G75*
G02*
X105495520Y-137491300I0J140000D01*
G01*
X105495520Y-137151300D01*
G75*
G02*
X105635520Y-137011300I140000J0D01*
G01*
X105915520Y-137011300D01*
G75*
G02*
X106055520Y-137151300I0J-140000D01*
G01*
G37*
G36*
G01*
X107015520Y-137151300D02*
X107015520Y-137491300D01*
G75*
G02*
X106875520Y-137631300I-140000J0D01*
G01*
X106595520Y-137631300D01*
G75*
G02*
X106455520Y-137491300I0J140000D01*
G01*
X106455520Y-137151300D01*
G75*
G02*
X106595520Y-137011300I140000J0D01*
G01*
X106875520Y-137011300D01*
G75*
G02*
X107015520Y-137151300I0J-140000D01*
G01*
G37*
%TD*%
%TO.C,L1*%
G36*
G01*
X103144520Y-137075140D02*
X103144520Y-137420140D01*
G75*
G02*
X102997020Y-137567640I-147500J0D01*
G01*
X102702020Y-137567640D01*
G75*
G02*
X102554520Y-137420140I0J147500D01*
G01*
X102554520Y-137075140D01*
G75*
G02*
X102702020Y-136927640I147500J0D01*
G01*
X102997020Y-136927640D01*
G75*
G02*
X103144520Y-137075140I0J-147500D01*
G01*
G37*
G36*
G01*
X104114520Y-137075140D02*
X104114520Y-137420140D01*
G75*
G02*
X103967020Y-137567640I-147500J0D01*
G01*
X103672020Y-137567640D01*
G75*
G02*
X103524520Y-137420140I0J147500D01*
G01*
X103524520Y-137075140D01*
G75*
G02*
X103672020Y-136927640I147500J0D01*
G01*
X103967020Y-136927640D01*
G75*
G02*
X104114520Y-137075140I0J-147500D01*
G01*
G37*
%TD*%
%TO.C,C26*%
G36*
G01*
X107870780Y-136633620D02*
X107530780Y-136633620D01*
G75*
G02*
X107390780Y-136493620I0J140000D01*
G01*
X107390780Y-136213620D01*
G75*
G02*
X107530780Y-136073620I140000J0D01*
G01*
X107870780Y-136073620D01*
G75*
G02*
X108010780Y-136213620I0J-140000D01*
G01*
X108010780Y-136493620D01*
G75*
G02*
X107870780Y-136633620I-140000J0D01*
G01*
G37*
G36*
G01*
X107870780Y-137593620D02*
X107530780Y-137593620D01*
G75*
G02*
X107390780Y-137453620I0J140000D01*
G01*
X107390780Y-137173620D01*
G75*
G02*
X107530780Y-137033620I140000J0D01*
G01*
X107870780Y-137033620D01*
G75*
G02*
X108010780Y-137173620I0J-140000D01*
G01*
X108010780Y-137453620D01*
G75*
G02*
X107870780Y-137593620I-140000J0D01*
G01*
G37*
%TD*%
%TO.C,C20*%
G36*
G01*
X91396940Y-139869100D02*
X91396940Y-140369100D01*
G75*
G02*
X91171940Y-140594100I-225000J0D01*
G01*
X90721940Y-140594100D01*
G75*
G02*
X90496940Y-140369100I0J225000D01*
G01*
X90496940Y-139869100D01*
G75*
G02*
X90721940Y-139644100I225000J0D01*
G01*
X91171940Y-139644100D01*
G75*
G02*
X91396940Y-139869100I0J-225000D01*
G01*
G37*
G36*
G01*
X92946940Y-139869100D02*
X92946940Y-140369100D01*
G75*
G02*
X92721940Y-140594100I-225000J0D01*
G01*
X92271940Y-140594100D01*
G75*
G02*
X92046940Y-140369100I0J225000D01*
G01*
X92046940Y-139869100D01*
G75*
G02*
X92271940Y-139644100I225000J0D01*
G01*
X92721940Y-139644100D01*
G75*
G02*
X92946940Y-139869100I0J-225000D01*
G01*
G37*
%TD*%
%TO.C,C19*%
G36*
G01*
X91483000Y-143053000D02*
X91483000Y-143553000D01*
G75*
G02*
X91258000Y-143778000I-225000J0D01*
G01*
X90808000Y-143778000D01*
G75*
G02*
X90583000Y-143553000I0J225000D01*
G01*
X90583000Y-143053000D01*
G75*
G02*
X90808000Y-142828000I225000J0D01*
G01*
X91258000Y-142828000D01*
G75*
G02*
X91483000Y-143053000I0J-225000D01*
G01*
G37*
G36*
G01*
X93033000Y-143053000D02*
X93033000Y-143553000D01*
G75*
G02*
X92808000Y-143778000I-225000J0D01*
G01*
X92358000Y-143778000D01*
G75*
G02*
X92133000Y-143553000I0J225000D01*
G01*
X92133000Y-143053000D01*
G75*
G02*
X92358000Y-142828000I225000J0D01*
G01*
X92808000Y-142828000D01*
G75*
G02*
X93033000Y-143053000I0J-225000D01*
G01*
G37*
%TD*%
%TO.C,C15*%
G36*
G01*
X105574680Y-135658680D02*
X105574680Y-135158680D01*
G75*
G02*
X105799680Y-134933680I225000J0D01*
G01*
X106249680Y-134933680D01*
G75*
G02*
X106474680Y-135158680I0J-225000D01*
G01*
X106474680Y-135658680D01*
G75*
G02*
X106249680Y-135883680I-225000J0D01*
G01*
X105799680Y-135883680D01*
G75*
G02*
X105574680Y-135658680I0J225000D01*
G01*
G37*
G36*
G01*
X104024680Y-135658680D02*
X104024680Y-135158680D01*
G75*
G02*
X104249680Y-134933680I225000J0D01*
G01*
X104699680Y-134933680D01*
G75*
G02*
X104924680Y-135158680I0J-225000D01*
G01*
X104924680Y-135658680D01*
G75*
G02*
X104699680Y-135883680I-225000J0D01*
G01*
X104249680Y-135883680D01*
G75*
G02*
X104024680Y-135658680I0J225000D01*
G01*
G37*
%TD*%
%TO.C,C14*%
G36*
G01*
X96072540Y-133530160D02*
X96072540Y-133030160D01*
G75*
G02*
X96297540Y-132805160I225000J0D01*
G01*
X96747540Y-132805160D01*
G75*
G02*
X96972540Y-133030160I0J-225000D01*
G01*
X96972540Y-133530160D01*
G75*
G02*
X96747540Y-133755160I-225000J0D01*
G01*
X96297540Y-133755160D01*
G75*
G02*
X96072540Y-133530160I0J225000D01*
G01*
G37*
G36*
G01*
X94522540Y-133530160D02*
X94522540Y-133030160D01*
G75*
G02*
X94747540Y-132805160I225000J0D01*
G01*
X95197540Y-132805160D01*
G75*
G02*
X95422540Y-133030160I0J-225000D01*
G01*
X95422540Y-133530160D01*
G75*
G02*
X95197540Y-133755160I-225000J0D01*
G01*
X94747540Y-133755160D01*
G75*
G02*
X94522540Y-133530160I0J225000D01*
G01*
G37*
%TD*%
%TO.C,C12*%
G36*
G01*
X98534040Y-133099200D02*
X98194040Y-133099200D01*
G75*
G02*
X98054040Y-132959200I0J140000D01*
G01*
X98054040Y-132679200D01*
G75*
G02*
X98194040Y-132539200I140000J0D01*
G01*
X98534040Y-132539200D01*
G75*
G02*
X98674040Y-132679200I0J-140000D01*
G01*
X98674040Y-132959200D01*
G75*
G02*
X98534040Y-133099200I-140000J0D01*
G01*
G37*
G36*
G01*
X98534040Y-134059200D02*
X98194040Y-134059200D01*
G75*
G02*
X98054040Y-133919200I0J140000D01*
G01*
X98054040Y-133639200D01*
G75*
G02*
X98194040Y-133499200I140000J0D01*
G01*
X98534040Y-133499200D01*
G75*
G02*
X98674040Y-133639200I0J-140000D01*
G01*
X98674040Y-133919200D01*
G75*
G02*
X98534040Y-134059200I-140000J0D01*
G01*
G37*
%TD*%
%TO.C,C11*%
G36*
G01*
X102451260Y-135274240D02*
X102451260Y-135614240D01*
G75*
G02*
X102311260Y-135754240I-140000J0D01*
G01*
X102031260Y-135754240D01*
G75*
G02*
X101891260Y-135614240I0J140000D01*
G01*
X101891260Y-135274240D01*
G75*
G02*
X102031260Y-135134240I140000J0D01*
G01*
X102311260Y-135134240D01*
G75*
G02*
X102451260Y-135274240I0J-140000D01*
G01*
G37*
G36*
G01*
X103411260Y-135274240D02*
X103411260Y-135614240D01*
G75*
G02*
X103271260Y-135754240I-140000J0D01*
G01*
X102991260Y-135754240D01*
G75*
G02*
X102851260Y-135614240I0J140000D01*
G01*
X102851260Y-135274240D01*
G75*
G02*
X102991260Y-135134240I140000J0D01*
G01*
X103271260Y-135134240D01*
G75*
G02*
X103411260Y-135274240I0J-140000D01*
G01*
G37*
%TD*%
%TO.C,C9*%
G36*
G01*
X101645600Y-139858100D02*
X101985600Y-139858100D01*
G75*
G02*
X102125600Y-139998100I0J-140000D01*
G01*
X102125600Y-140278100D01*
G75*
G02*
X101985600Y-140418100I-140000J0D01*
G01*
X101645600Y-140418100D01*
G75*
G02*
X101505600Y-140278100I0J140000D01*
G01*
X101505600Y-139998100D01*
G75*
G02*
X101645600Y-139858100I140000J0D01*
G01*
G37*
G36*
G01*
X101645600Y-138898100D02*
X101985600Y-138898100D01*
G75*
G02*
X102125600Y-139038100I0J-140000D01*
G01*
X102125600Y-139318100D01*
G75*
G02*
X101985600Y-139458100I-140000J0D01*
G01*
X101645600Y-139458100D01*
G75*
G02*
X101505600Y-139318100I0J140000D01*
G01*
X101505600Y-139038100D01*
G75*
G02*
X101645600Y-138898100I140000J0D01*
G01*
G37*
%TD*%
%TO.C,C8*%
G36*
G01*
X100546260Y-142909480D02*
X100546260Y-143249480D01*
G75*
G02*
X100406260Y-143389480I-140000J0D01*
G01*
X100126260Y-143389480D01*
G75*
G02*
X99986260Y-143249480I0J140000D01*
G01*
X99986260Y-142909480D01*
G75*
G02*
X100126260Y-142769480I140000J0D01*
G01*
X100406260Y-142769480D01*
G75*
G02*
X100546260Y-142909480I0J-140000D01*
G01*
G37*
G36*
G01*
X101506260Y-142909480D02*
X101506260Y-143249480D01*
G75*
G02*
X101366260Y-143389480I-140000J0D01*
G01*
X101086260Y-143389480D01*
G75*
G02*
X100946260Y-143249480I0J140000D01*
G01*
X100946260Y-142909480D01*
G75*
G02*
X101086260Y-142769480I140000J0D01*
G01*
X101366260Y-142769480D01*
G75*
G02*
X101506260Y-142909480I0J-140000D01*
G01*
G37*
%TD*%
%TO.C,C7*%
G36*
G01*
X98858380Y-143241860D02*
X98858380Y-142901860D01*
G75*
G02*
X98998380Y-142761860I140000J0D01*
G01*
X99278380Y-142761860D01*
G75*
G02*
X99418380Y-142901860I0J-140000D01*
G01*
X99418380Y-143241860D01*
G75*
G02*
X99278380Y-143381860I-140000J0D01*
G01*
X98998380Y-143381860D01*
G75*
G02*
X98858380Y-143241860I0J140000D01*
G01*
G37*
G36*
G01*
X97898380Y-143241860D02*
X97898380Y-142901860D01*
G75*
G02*
X98038380Y-142761860I140000J0D01*
G01*
X98318380Y-142761860D01*
G75*
G02*
X98458380Y-142901860I0J-140000D01*
G01*
X98458380Y-143241860D01*
G75*
G02*
X98318380Y-143381860I-140000J0D01*
G01*
X98038380Y-143381860D01*
G75*
G02*
X97898380Y-143241860I0J140000D01*
G01*
G37*
%TD*%
%TO.C,C6*%
G36*
G01*
X91411880Y-138341300D02*
X91411880Y-138841300D01*
G75*
G02*
X91186880Y-139066300I-225000J0D01*
G01*
X90736880Y-139066300D01*
G75*
G02*
X90511880Y-138841300I0J225000D01*
G01*
X90511880Y-138341300D01*
G75*
G02*
X90736880Y-138116300I225000J0D01*
G01*
X91186880Y-138116300D01*
G75*
G02*
X91411880Y-138341300I0J-225000D01*
G01*
G37*
G36*
G01*
X92961880Y-138341300D02*
X92961880Y-138841300D01*
G75*
G02*
X92736880Y-139066300I-225000J0D01*
G01*
X92286880Y-139066300D01*
G75*
G02*
X92061880Y-138841300I0J225000D01*
G01*
X92061880Y-138341300D01*
G75*
G02*
X92286880Y-138116300I225000J0D01*
G01*
X92736880Y-138116300D01*
G75*
G02*
X92961880Y-138341300I0J-225000D01*
G01*
G37*
%TD*%
%TO.C,C5*%
G36*
G01*
X91658800Y-135246300D02*
X91658800Y-135586300D01*
G75*
G02*
X91518800Y-135726300I-140000J0D01*
G01*
X91238800Y-135726300D01*
G75*
G02*
X91098800Y-135586300I0J140000D01*
G01*
X91098800Y-135246300D01*
G75*
G02*
X91238800Y-135106300I140000J0D01*
G01*
X91518800Y-135106300D01*
G75*
G02*
X91658800Y-135246300I0J-140000D01*
G01*
G37*
G36*
G01*
X92618800Y-135246300D02*
X92618800Y-135586300D01*
G75*
G02*
X92478800Y-135726300I-140000J0D01*
G01*
X92198800Y-135726300D01*
G75*
G02*
X92058800Y-135586300I0J140000D01*
G01*
X92058800Y-135246300D01*
G75*
G02*
X92198800Y-135106300I140000J0D01*
G01*
X92478800Y-135106300D01*
G75*
G02*
X92618800Y-135246300I0J-140000D01*
G01*
G37*
%TD*%
%TO.C,C4*%
G36*
G01*
X104668200Y-137965800D02*
X105008200Y-137965800D01*
G75*
G02*
X105148200Y-138105800I0J-140000D01*
G01*
X105148200Y-138385800D01*
G75*
G02*
X105008200Y-138525800I-140000J0D01*
G01*
X104668200Y-138525800D01*
G75*
G02*
X104528200Y-138385800I0J140000D01*
G01*
X104528200Y-138105800D01*
G75*
G02*
X104668200Y-137965800I140000J0D01*
G01*
G37*
G36*
G01*
X104668200Y-137005800D02*
X105008200Y-137005800D01*
G75*
G02*
X105148200Y-137145800I0J-140000D01*
G01*
X105148200Y-137425800D01*
G75*
G02*
X105008200Y-137565800I-140000J0D01*
G01*
X104668200Y-137565800D01*
G75*
G02*
X104528200Y-137425800I0J140000D01*
G01*
X104528200Y-137145800D01*
G75*
G02*
X104668200Y-137005800I140000J0D01*
G01*
G37*
%TD*%
%TO.C,C3*%
G36*
G01*
X101950040Y-137540400D02*
X101610040Y-137540400D01*
G75*
G02*
X101470040Y-137400400I0J140000D01*
G01*
X101470040Y-137120400D01*
G75*
G02*
X101610040Y-136980400I140000J0D01*
G01*
X101950040Y-136980400D01*
G75*
G02*
X102090040Y-137120400I0J-140000D01*
G01*
X102090040Y-137400400D01*
G75*
G02*
X101950040Y-137540400I-140000J0D01*
G01*
G37*
G36*
G01*
X101950040Y-138500400D02*
X101610040Y-138500400D01*
G75*
G02*
X101470040Y-138360400I0J140000D01*
G01*
X101470040Y-138080400D01*
G75*
G02*
X101610040Y-137940400I140000J0D01*
G01*
X101950040Y-137940400D01*
G75*
G02*
X102090040Y-138080400I0J-140000D01*
G01*
X102090040Y-138360400D01*
G75*
G02*
X101950040Y-138500400I-140000J0D01*
G01*
G37*
%TD*%
%TO.C,C2*%
G36*
G01*
X99171640Y-133518260D02*
X99511640Y-133518260D01*
G75*
G02*
X99651640Y-133658260I0J-140000D01*
G01*
X99651640Y-133938260D01*
G75*
G02*
X99511640Y-134078260I-140000J0D01*
G01*
X99171640Y-134078260D01*
G75*
G02*
X99031640Y-133938260I0J140000D01*
G01*
X99031640Y-133658260D01*
G75*
G02*
X99171640Y-133518260I140000J0D01*
G01*
G37*
G36*
G01*
X99171640Y-132558260D02*
X99511640Y-132558260D01*
G75*
G02*
X99651640Y-132698260I0J-140000D01*
G01*
X99651640Y-132978260D01*
G75*
G02*
X99511640Y-133118260I-140000J0D01*
G01*
X99171640Y-133118260D01*
G75*
G02*
X99031640Y-132978260I0J140000D01*
G01*
X99031640Y-132698260D01*
G75*
G02*
X99171640Y-132558260I140000J0D01*
G01*
G37*
%TD*%
%TO.C,C1*%
G36*
G01*
X104297000Y-133150000D02*
X103957000Y-133150000D01*
G75*
G02*
X103817000Y-133010000I0J140000D01*
G01*
X103817000Y-132730000D01*
G75*
G02*
X103957000Y-132590000I140000J0D01*
G01*
X104297000Y-132590000D01*
G75*
G02*
X104437000Y-132730000I0J-140000D01*
G01*
X104437000Y-133010000D01*
G75*
G02*
X104297000Y-133150000I-140000J0D01*
G01*
G37*
G36*
G01*
X104297000Y-134110000D02*
X103957000Y-134110000D01*
G75*
G02*
X103817000Y-133970000I0J140000D01*
G01*
X103817000Y-133690000D01*
G75*
G02*
X103957000Y-133550000I140000J0D01*
G01*
X104297000Y-133550000D01*
G75*
G02*
X104437000Y-133690000I0J-140000D01*
G01*
X104437000Y-133970000D01*
G75*
G02*
X104297000Y-134110000I-140000J0D01*
G01*
G37*
%TD*%
M02*
