%TF.GenerationSoftware,KiCad,Pcbnew,(5.1.6)-1*%
%TF.CreationDate,2020-07-31T00:04:16+08:00*%
%TF.ProjectId,NRF52840,4e524635-3238-4343-902e-6b696361645f,rev?*%
%TF.SameCoordinates,Original*%
%TF.FileFunction,Legend,Top*%
%TF.FilePolarity,Positive*%
%FSLAX46Y46*%
G04 Gerber Fmt 4.6, Leading zero omitted, Abs format (unit mm)*
G04 Created by KiCad (PCBNEW (5.1.6)-1) date 2020-07-31 00:04:16*
%MOMM*%
%LPD*%
G01*
G04 APERTURE LIST*
%ADD10C,0.120000*%
%ADD11C,0.150000*%
%ADD12R,1.000000X0.900000*%
%ADD13C,0.350000*%
%ADD14R,4.950000X4.950000*%
G04 APERTURE END LIST*
D10*
%TO.C,C16*%
X95442779Y-129810000D02*
X95117221Y-129810000D01*
X95442779Y-128790000D02*
X95117221Y-128790000D01*
%TO.C,Y1*%
X108200000Y-121050000D02*
X108200000Y-123350000D01*
X108200000Y-123350000D02*
X110900000Y-123350000D01*
%TO.C,U1*%
X106760000Y-123340000D02*
X106200000Y-123340000D01*
X106760000Y-123340000D02*
X106760000Y-123900000D01*
X106760000Y-130560000D02*
X106760000Y-130000000D01*
X106760000Y-130560000D02*
X106200000Y-130560000D01*
X99540000Y-130560000D02*
X100100000Y-130560000D01*
X99540000Y-130560000D02*
X99540000Y-130000000D01*
X99540000Y-123340000D02*
X100100000Y-123340000D01*
%TO.C,C20*%
X95442779Y-127215000D02*
X95117221Y-127215000D01*
X95442779Y-128235000D02*
X95117221Y-128235000D01*
%TO.C,C19*%
X95442779Y-125665000D02*
X95117221Y-125665000D01*
X95442779Y-126685000D02*
X95117221Y-126685000D01*
%TO.C,C15*%
X100987221Y-122110000D02*
X101312779Y-122110000D01*
X100987221Y-121090000D02*
X101312779Y-121090000D01*
%TO.C,C14*%
X96737779Y-121540000D02*
X96412221Y-121540000D01*
X96737779Y-122560000D02*
X96412221Y-122560000D01*
%TO.C,C6*%
X96737779Y-124140000D02*
X96412221Y-124140000D01*
X96737779Y-125160000D02*
X96412221Y-125160000D01*
%TO.C,C16*%
D11*
X91537142Y-129907142D02*
X91489523Y-129954761D01*
X91346666Y-130002380D01*
X91251428Y-130002380D01*
X91108571Y-129954761D01*
X91013333Y-129859523D01*
X90965714Y-129764285D01*
X90918095Y-129573809D01*
X90918095Y-129430952D01*
X90965714Y-129240476D01*
X91013333Y-129145238D01*
X91108571Y-129050000D01*
X91251428Y-129002380D01*
X91346666Y-129002380D01*
X91489523Y-129050000D01*
X91537142Y-129097619D01*
X92489523Y-130002380D02*
X91918095Y-130002380D01*
X92203809Y-130002380D02*
X92203809Y-129002380D01*
X92108571Y-129145238D01*
X92013333Y-129240476D01*
X91918095Y-129288095D01*
X93346666Y-129002380D02*
X93156190Y-129002380D01*
X93060952Y-129050000D01*
X93013333Y-129097619D01*
X92918095Y-129240476D01*
X92870476Y-129430952D01*
X92870476Y-129811904D01*
X92918095Y-129907142D01*
X92965714Y-129954761D01*
X93060952Y-130002380D01*
X93251428Y-130002380D01*
X93346666Y-129954761D01*
X93394285Y-129907142D01*
X93441904Y-129811904D01*
X93441904Y-129573809D01*
X93394285Y-129478571D01*
X93346666Y-129430952D01*
X93251428Y-129383333D01*
X93060952Y-129383333D01*
X92965714Y-129430952D01*
X92918095Y-129478571D01*
X92870476Y-129573809D01*
%TO.C,U1*%
X102563095Y-126202380D02*
X102563095Y-127011904D01*
X102610714Y-127107142D01*
X102658333Y-127154761D01*
X102753571Y-127202380D01*
X102944047Y-127202380D01*
X103039285Y-127154761D01*
X103086904Y-127107142D01*
X103134523Y-127011904D01*
X103134523Y-126202380D01*
X104134523Y-127202380D02*
X103563095Y-127202380D01*
X103848809Y-127202380D02*
X103848809Y-126202380D01*
X103753571Y-126345238D01*
X103658333Y-126440476D01*
X103563095Y-126488095D01*
%TO.C,R1*%
X114208333Y-129977380D02*
X113875000Y-129501190D01*
X113636904Y-129977380D02*
X113636904Y-128977380D01*
X114017857Y-128977380D01*
X114113095Y-129025000D01*
X114160714Y-129072619D01*
X114208333Y-129167857D01*
X114208333Y-129310714D01*
X114160714Y-129405952D01*
X114113095Y-129453571D01*
X114017857Y-129501190D01*
X113636904Y-129501190D01*
X115160714Y-129977380D02*
X114589285Y-129977380D01*
X114875000Y-129977380D02*
X114875000Y-128977380D01*
X114779761Y-129120238D01*
X114684523Y-129215476D01*
X114589285Y-129263095D01*
%TO.C,C25*%
X111737142Y-130692857D02*
X111784761Y-130740476D01*
X111832380Y-130883333D01*
X111832380Y-130978571D01*
X111784761Y-131121428D01*
X111689523Y-131216666D01*
X111594285Y-131264285D01*
X111403809Y-131311904D01*
X111260952Y-131311904D01*
X111070476Y-131264285D01*
X110975238Y-131216666D01*
X110880000Y-131121428D01*
X110832380Y-130978571D01*
X110832380Y-130883333D01*
X110880000Y-130740476D01*
X110927619Y-130692857D01*
X110927619Y-130311904D02*
X110880000Y-130264285D01*
X110832380Y-130169047D01*
X110832380Y-129930952D01*
X110880000Y-129835714D01*
X110927619Y-129788095D01*
X111022857Y-129740476D01*
X111118095Y-129740476D01*
X111260952Y-129788095D01*
X111832380Y-130359523D01*
X111832380Y-129740476D01*
X110832380Y-128835714D02*
X110832380Y-129311904D01*
X111308571Y-129359523D01*
X111260952Y-129311904D01*
X111213333Y-129216666D01*
X111213333Y-128978571D01*
X111260952Y-128883333D01*
X111308571Y-128835714D01*
X111403809Y-128788095D01*
X111641904Y-128788095D01*
X111737142Y-128835714D01*
X111784761Y-128883333D01*
X111832380Y-128978571D01*
X111832380Y-129216666D01*
X111784761Y-129311904D01*
X111737142Y-129359523D01*
%TO.C,C20*%
X91512142Y-127882142D02*
X91464523Y-127929761D01*
X91321666Y-127977380D01*
X91226428Y-127977380D01*
X91083571Y-127929761D01*
X90988333Y-127834523D01*
X90940714Y-127739285D01*
X90893095Y-127548809D01*
X90893095Y-127405952D01*
X90940714Y-127215476D01*
X90988333Y-127120238D01*
X91083571Y-127025000D01*
X91226428Y-126977380D01*
X91321666Y-126977380D01*
X91464523Y-127025000D01*
X91512142Y-127072619D01*
X91893095Y-127072619D02*
X91940714Y-127025000D01*
X92035952Y-126977380D01*
X92274047Y-126977380D01*
X92369285Y-127025000D01*
X92416904Y-127072619D01*
X92464523Y-127167857D01*
X92464523Y-127263095D01*
X92416904Y-127405952D01*
X91845476Y-127977380D01*
X92464523Y-127977380D01*
X93083571Y-126977380D02*
X93178809Y-126977380D01*
X93274047Y-127025000D01*
X93321666Y-127072619D01*
X93369285Y-127167857D01*
X93416904Y-127358333D01*
X93416904Y-127596428D01*
X93369285Y-127786904D01*
X93321666Y-127882142D01*
X93274047Y-127929761D01*
X93178809Y-127977380D01*
X93083571Y-127977380D01*
X92988333Y-127929761D01*
X92940714Y-127882142D01*
X92893095Y-127786904D01*
X92845476Y-127596428D01*
X92845476Y-127358333D01*
X92893095Y-127167857D01*
X92940714Y-127072619D01*
X92988333Y-127025000D01*
X93083571Y-126977380D01*
%TO.C,C19*%
X91537142Y-126457142D02*
X91489523Y-126504761D01*
X91346666Y-126552380D01*
X91251428Y-126552380D01*
X91108571Y-126504761D01*
X91013333Y-126409523D01*
X90965714Y-126314285D01*
X90918095Y-126123809D01*
X90918095Y-125980952D01*
X90965714Y-125790476D01*
X91013333Y-125695238D01*
X91108571Y-125600000D01*
X91251428Y-125552380D01*
X91346666Y-125552380D01*
X91489523Y-125600000D01*
X91537142Y-125647619D01*
X92489523Y-126552380D02*
X91918095Y-126552380D01*
X92203809Y-126552380D02*
X92203809Y-125552380D01*
X92108571Y-125695238D01*
X92013333Y-125790476D01*
X91918095Y-125838095D01*
X92965714Y-126552380D02*
X93156190Y-126552380D01*
X93251428Y-126504761D01*
X93299047Y-126457142D01*
X93394285Y-126314285D01*
X93441904Y-126123809D01*
X93441904Y-125742857D01*
X93394285Y-125647619D01*
X93346666Y-125600000D01*
X93251428Y-125552380D01*
X93060952Y-125552380D01*
X92965714Y-125600000D01*
X92918095Y-125647619D01*
X92870476Y-125742857D01*
X92870476Y-125980952D01*
X92918095Y-126076190D01*
X92965714Y-126123809D01*
X93060952Y-126171428D01*
X93251428Y-126171428D01*
X93346666Y-126123809D01*
X93394285Y-126076190D01*
X93441904Y-125980952D01*
%TO.C,C26*%
X116282142Y-128742857D02*
X116329761Y-128790476D01*
X116377380Y-128933333D01*
X116377380Y-129028571D01*
X116329761Y-129171428D01*
X116234523Y-129266666D01*
X116139285Y-129314285D01*
X115948809Y-129361904D01*
X115805952Y-129361904D01*
X115615476Y-129314285D01*
X115520238Y-129266666D01*
X115425000Y-129171428D01*
X115377380Y-129028571D01*
X115377380Y-128933333D01*
X115425000Y-128790476D01*
X115472619Y-128742857D01*
X115472619Y-128361904D02*
X115425000Y-128314285D01*
X115377380Y-128219047D01*
X115377380Y-127980952D01*
X115425000Y-127885714D01*
X115472619Y-127838095D01*
X115567857Y-127790476D01*
X115663095Y-127790476D01*
X115805952Y-127838095D01*
X116377380Y-128409523D01*
X116377380Y-127790476D01*
X115377380Y-126933333D02*
X115377380Y-127123809D01*
X115425000Y-127219047D01*
X115472619Y-127266666D01*
X115615476Y-127361904D01*
X115805952Y-127409523D01*
X116186904Y-127409523D01*
X116282142Y-127361904D01*
X116329761Y-127314285D01*
X116377380Y-127219047D01*
X116377380Y-127028571D01*
X116329761Y-126933333D01*
X116282142Y-126885714D01*
X116186904Y-126838095D01*
X115948809Y-126838095D01*
X115853571Y-126885714D01*
X115805952Y-126933333D01*
X115758333Y-127028571D01*
X115758333Y-127219047D01*
X115805952Y-127314285D01*
X115853571Y-127361904D01*
X115948809Y-127409523D01*
%TO.C,C14*%
X93037142Y-122457142D02*
X92989523Y-122504761D01*
X92846666Y-122552380D01*
X92751428Y-122552380D01*
X92608571Y-122504761D01*
X92513333Y-122409523D01*
X92465714Y-122314285D01*
X92418095Y-122123809D01*
X92418095Y-121980952D01*
X92465714Y-121790476D01*
X92513333Y-121695238D01*
X92608571Y-121600000D01*
X92751428Y-121552380D01*
X92846666Y-121552380D01*
X92989523Y-121600000D01*
X93037142Y-121647619D01*
X93989523Y-122552380D02*
X93418095Y-122552380D01*
X93703809Y-122552380D02*
X93703809Y-121552380D01*
X93608571Y-121695238D01*
X93513333Y-121790476D01*
X93418095Y-121838095D01*
X94846666Y-121885714D02*
X94846666Y-122552380D01*
X94608571Y-121504761D02*
X94370476Y-122219047D01*
X94989523Y-122219047D01*
%TO.C,C10*%
X112987142Y-124507142D02*
X112939523Y-124554761D01*
X112796666Y-124602380D01*
X112701428Y-124602380D01*
X112558571Y-124554761D01*
X112463333Y-124459523D01*
X112415714Y-124364285D01*
X112368095Y-124173809D01*
X112368095Y-124030952D01*
X112415714Y-123840476D01*
X112463333Y-123745238D01*
X112558571Y-123650000D01*
X112701428Y-123602380D01*
X112796666Y-123602380D01*
X112939523Y-123650000D01*
X112987142Y-123697619D01*
X113939523Y-124602380D02*
X113368095Y-124602380D01*
X113653809Y-124602380D02*
X113653809Y-123602380D01*
X113558571Y-123745238D01*
X113463333Y-123840476D01*
X113368095Y-123888095D01*
X114558571Y-123602380D02*
X114653809Y-123602380D01*
X114749047Y-123650000D01*
X114796666Y-123697619D01*
X114844285Y-123792857D01*
X114891904Y-123983333D01*
X114891904Y-124221428D01*
X114844285Y-124411904D01*
X114796666Y-124507142D01*
X114749047Y-124554761D01*
X114653809Y-124602380D01*
X114558571Y-124602380D01*
X114463333Y-124554761D01*
X114415714Y-124507142D01*
X114368095Y-124411904D01*
X114320476Y-124221428D01*
X114320476Y-123983333D01*
X114368095Y-123792857D01*
X114415714Y-123697619D01*
X114463333Y-123650000D01*
X114558571Y-123602380D01*
%TO.C,C6*%
X93363333Y-125057142D02*
X93315714Y-125104761D01*
X93172857Y-125152380D01*
X93077619Y-125152380D01*
X92934761Y-125104761D01*
X92839523Y-125009523D01*
X92791904Y-124914285D01*
X92744285Y-124723809D01*
X92744285Y-124580952D01*
X92791904Y-124390476D01*
X92839523Y-124295238D01*
X92934761Y-124200000D01*
X93077619Y-124152380D01*
X93172857Y-124152380D01*
X93315714Y-124200000D01*
X93363333Y-124247619D01*
X94220476Y-124152380D02*
X94030000Y-124152380D01*
X93934761Y-124200000D01*
X93887142Y-124247619D01*
X93791904Y-124390476D01*
X93744285Y-124580952D01*
X93744285Y-124961904D01*
X93791904Y-125057142D01*
X93839523Y-125104761D01*
X93934761Y-125152380D01*
X94125238Y-125152380D01*
X94220476Y-125104761D01*
X94268095Y-125057142D01*
X94315714Y-124961904D01*
X94315714Y-124723809D01*
X94268095Y-124628571D01*
X94220476Y-124580952D01*
X94125238Y-124533333D01*
X93934761Y-124533333D01*
X93839523Y-124580952D01*
X93791904Y-124628571D01*
X93744285Y-124723809D01*
%TO.C,C5*%
X93413333Y-123682142D02*
X93365714Y-123729761D01*
X93222857Y-123777380D01*
X93127619Y-123777380D01*
X92984761Y-123729761D01*
X92889523Y-123634523D01*
X92841904Y-123539285D01*
X92794285Y-123348809D01*
X92794285Y-123205952D01*
X92841904Y-123015476D01*
X92889523Y-122920238D01*
X92984761Y-122825000D01*
X93127619Y-122777380D01*
X93222857Y-122777380D01*
X93365714Y-122825000D01*
X93413333Y-122872619D01*
X94318095Y-122777380D02*
X93841904Y-122777380D01*
X93794285Y-123253571D01*
X93841904Y-123205952D01*
X93937142Y-123158333D01*
X94175238Y-123158333D01*
X94270476Y-123205952D01*
X94318095Y-123253571D01*
X94365714Y-123348809D01*
X94365714Y-123586904D01*
X94318095Y-123682142D01*
X94270476Y-123729761D01*
X94175238Y-123777380D01*
X93937142Y-123777380D01*
X93841904Y-123729761D01*
X93794285Y-123682142D01*
%TO.C,C4*%
X112462142Y-125806666D02*
X112509761Y-125854285D01*
X112557380Y-125997142D01*
X112557380Y-126092380D01*
X112509761Y-126235238D01*
X112414523Y-126330476D01*
X112319285Y-126378095D01*
X112128809Y-126425714D01*
X111985952Y-126425714D01*
X111795476Y-126378095D01*
X111700238Y-126330476D01*
X111605000Y-126235238D01*
X111557380Y-126092380D01*
X111557380Y-125997142D01*
X111605000Y-125854285D01*
X111652619Y-125806666D01*
X111890714Y-124949523D02*
X112557380Y-124949523D01*
X111509761Y-125187619D02*
X112224047Y-125425714D01*
X112224047Y-124806666D01*
%TO.C,C1*%
X113662142Y-121866666D02*
X113709761Y-121914285D01*
X113757380Y-122057142D01*
X113757380Y-122152380D01*
X113709761Y-122295238D01*
X113614523Y-122390476D01*
X113519285Y-122438095D01*
X113328809Y-122485714D01*
X113185952Y-122485714D01*
X112995476Y-122438095D01*
X112900238Y-122390476D01*
X112805000Y-122295238D01*
X112757380Y-122152380D01*
X112757380Y-122057142D01*
X112805000Y-121914285D01*
X112852619Y-121866666D01*
X113757380Y-120914285D02*
X113757380Y-121485714D01*
X113757380Y-121200000D02*
X112757380Y-121200000D01*
X112900238Y-121295238D01*
X112995476Y-121390476D01*
X113043095Y-121485714D01*
%TD*%
%LPC*%
%TO.C,C16*%
G36*
G01*
X94980000Y-129018750D02*
X94980000Y-129581250D01*
G75*
G02*
X94736250Y-129825000I-243750J0D01*
G01*
X94248750Y-129825000D01*
G75*
G02*
X94005000Y-129581250I0J243750D01*
G01*
X94005000Y-129018750D01*
G75*
G02*
X94248750Y-128775000I243750J0D01*
G01*
X94736250Y-128775000D01*
G75*
G02*
X94980000Y-129018750I0J-243750D01*
G01*
G37*
G36*
G01*
X96555000Y-129018750D02*
X96555000Y-129581250D01*
G75*
G02*
X96311250Y-129825000I-243750J0D01*
G01*
X95823750Y-129825000D01*
G75*
G02*
X95580000Y-129581250I0J243750D01*
G01*
X95580000Y-129018750D01*
G75*
G02*
X95823750Y-128775000I243750J0D01*
G01*
X96311250Y-128775000D01*
G75*
G02*
X96555000Y-129018750I0J-243750D01*
G01*
G37*
%TD*%
%TO.C,C11*%
G36*
G01*
X109085000Y-124877500D02*
X109085000Y-125272500D01*
G75*
G02*
X108912500Y-125445000I-172500J0D01*
G01*
X108567500Y-125445000D01*
G75*
G02*
X108395000Y-125272500I0J172500D01*
G01*
X108395000Y-124877500D01*
G75*
G02*
X108567500Y-124705000I172500J0D01*
G01*
X108912500Y-124705000D01*
G75*
G02*
X109085000Y-124877500I0J-172500D01*
G01*
G37*
G36*
G01*
X110055000Y-124877500D02*
X110055000Y-125272500D01*
G75*
G02*
X109882500Y-125445000I-172500J0D01*
G01*
X109537500Y-125445000D01*
G75*
G02*
X109365000Y-125272500I0J172500D01*
G01*
X109365000Y-124877500D01*
G75*
G02*
X109537500Y-124705000I172500J0D01*
G01*
X109882500Y-124705000D01*
G75*
G02*
X110055000Y-124877500I0J-172500D01*
G01*
G37*
%TD*%
D12*
%TO.C,Y1*%
X108850000Y-121650000D03*
X110250000Y-121650000D03*
X110250000Y-122750000D03*
X108850000Y-122750000D03*
%TD*%
D13*
%TO.C,U1*%
X106400000Y-129700000D03*
X106400000Y-129200000D03*
X106400000Y-128700000D03*
X106400000Y-128200000D03*
X106400000Y-127700000D03*
X106400000Y-127200000D03*
X106400000Y-126700000D03*
X106400000Y-126200000D03*
X106400000Y-125200000D03*
X105900000Y-128950000D03*
X105900000Y-128450000D03*
X105900000Y-127950000D03*
X105900000Y-127450000D03*
X105900000Y-125950000D03*
X105900000Y-125450000D03*
X105900000Y-123700000D03*
X105400000Y-123700000D03*
X104900000Y-123700000D03*
X104400000Y-123700000D03*
X103900000Y-123700000D03*
X103400000Y-123700000D03*
X102900000Y-123700000D03*
X102400000Y-123700000D03*
X104650000Y-124200000D03*
X104150000Y-124200000D03*
X103650000Y-124200000D03*
X103150000Y-124200000D03*
X102650000Y-124200000D03*
X102150000Y-124200000D03*
X101650000Y-124200000D03*
X101150000Y-124200000D03*
X101150000Y-129700000D03*
X102150000Y-129700000D03*
X102650000Y-129700000D03*
X103150000Y-129700000D03*
X103650000Y-129700000D03*
X104150000Y-129700000D03*
X104650000Y-129700000D03*
X105400000Y-130200000D03*
X104900000Y-130200000D03*
X104400000Y-130200000D03*
X103900000Y-130200000D03*
X103400000Y-130200000D03*
X102900000Y-130200000D03*
X102400000Y-130200000D03*
X101900000Y-130200000D03*
X101400000Y-130200000D03*
X100900000Y-130200000D03*
X99900000Y-124200000D03*
X100400000Y-124950000D03*
X99900000Y-124700000D03*
X100400000Y-125450000D03*
X100400000Y-125950000D03*
X100400000Y-126450000D03*
X100400000Y-126950000D03*
X100400000Y-127450000D03*
X100400000Y-127950000D03*
X99900000Y-125700000D03*
X99900000Y-126200000D03*
X99900000Y-126700000D03*
X99900000Y-127200000D03*
X99900000Y-127700000D03*
X99900000Y-128200000D03*
X99900000Y-128700000D03*
X100400000Y-128950000D03*
X100400000Y-129450000D03*
X100400000Y-130200000D03*
X105900000Y-130200000D03*
X105150000Y-129700000D03*
X100650000Y-124200000D03*
X101900000Y-123700000D03*
X105900000Y-124950000D03*
X106400000Y-124200000D03*
D14*
X103150000Y-126950000D03*
%TD*%
%TO.C,R1*%
G36*
G01*
X114285000Y-130887500D02*
X114285000Y-131282500D01*
G75*
G02*
X114112500Y-131455000I-172500J0D01*
G01*
X113767500Y-131455000D01*
G75*
G02*
X113595000Y-131282500I0J172500D01*
G01*
X113595000Y-130887500D01*
G75*
G02*
X113767500Y-130715000I172500J0D01*
G01*
X114112500Y-130715000D01*
G75*
G02*
X114285000Y-130887500I0J-172500D01*
G01*
G37*
G36*
G01*
X115255000Y-130887500D02*
X115255000Y-131282500D01*
G75*
G02*
X115082500Y-131455000I-172500J0D01*
G01*
X114737500Y-131455000D01*
G75*
G02*
X114565000Y-131282500I0J172500D01*
G01*
X114565000Y-130887500D01*
G75*
G02*
X114737500Y-130715000I172500J0D01*
G01*
X115082500Y-130715000D01*
G75*
G02*
X115255000Y-130887500I0J-172500D01*
G01*
G37*
%TD*%
%TO.C,L1*%
G36*
G01*
X109110000Y-125902500D02*
X109110000Y-126297500D01*
G75*
G02*
X108937500Y-126470000I-172500J0D01*
G01*
X108592500Y-126470000D01*
G75*
G02*
X108420000Y-126297500I0J172500D01*
G01*
X108420000Y-125902500D01*
G75*
G02*
X108592500Y-125730000I172500J0D01*
G01*
X108937500Y-125730000D01*
G75*
G02*
X109110000Y-125902500I0J-172500D01*
G01*
G37*
G36*
G01*
X110080000Y-125902500D02*
X110080000Y-126297500D01*
G75*
G02*
X109907500Y-126470000I-172500J0D01*
G01*
X109562500Y-126470000D01*
G75*
G02*
X109390000Y-126297500I0J172500D01*
G01*
X109390000Y-125902500D01*
G75*
G02*
X109562500Y-125730000I172500J0D01*
G01*
X109907500Y-125730000D01*
G75*
G02*
X110080000Y-125902500I0J-172500D01*
G01*
G37*
%TD*%
%TO.C,C25*%
G36*
G01*
X113072500Y-130485000D02*
X112677500Y-130485000D01*
G75*
G02*
X112505000Y-130312500I0J172500D01*
G01*
X112505000Y-129967500D01*
G75*
G02*
X112677500Y-129795000I172500J0D01*
G01*
X113072500Y-129795000D01*
G75*
G02*
X113245000Y-129967500I0J-172500D01*
G01*
X113245000Y-130312500D01*
G75*
G02*
X113072500Y-130485000I-172500J0D01*
G01*
G37*
G36*
G01*
X113072500Y-131455000D02*
X112677500Y-131455000D01*
G75*
G02*
X112505000Y-131282500I0J172500D01*
G01*
X112505000Y-130937500D01*
G75*
G02*
X112677500Y-130765000I172500J0D01*
G01*
X113072500Y-130765000D01*
G75*
G02*
X113245000Y-130937500I0J-172500D01*
G01*
X113245000Y-131282500D01*
G75*
G02*
X113072500Y-131455000I-172500J0D01*
G01*
G37*
%TD*%
%TO.C,C20*%
G36*
G01*
X94980000Y-127443750D02*
X94980000Y-128006250D01*
G75*
G02*
X94736250Y-128250000I-243750J0D01*
G01*
X94248750Y-128250000D01*
G75*
G02*
X94005000Y-128006250I0J243750D01*
G01*
X94005000Y-127443750D01*
G75*
G02*
X94248750Y-127200000I243750J0D01*
G01*
X94736250Y-127200000D01*
G75*
G02*
X94980000Y-127443750I0J-243750D01*
G01*
G37*
G36*
G01*
X96555000Y-127443750D02*
X96555000Y-128006250D01*
G75*
G02*
X96311250Y-128250000I-243750J0D01*
G01*
X95823750Y-128250000D01*
G75*
G02*
X95580000Y-128006250I0J243750D01*
G01*
X95580000Y-127443750D01*
G75*
G02*
X95823750Y-127200000I243750J0D01*
G01*
X96311250Y-127200000D01*
G75*
G02*
X96555000Y-127443750I0J-243750D01*
G01*
G37*
%TD*%
%TO.C,C19*%
G36*
G01*
X94980000Y-125893750D02*
X94980000Y-126456250D01*
G75*
G02*
X94736250Y-126700000I-243750J0D01*
G01*
X94248750Y-126700000D01*
G75*
G02*
X94005000Y-126456250I0J243750D01*
G01*
X94005000Y-125893750D01*
G75*
G02*
X94248750Y-125650000I243750J0D01*
G01*
X94736250Y-125650000D01*
G75*
G02*
X94980000Y-125893750I0J-243750D01*
G01*
G37*
G36*
G01*
X96555000Y-125893750D02*
X96555000Y-126456250D01*
G75*
G02*
X96311250Y-126700000I-243750J0D01*
G01*
X95823750Y-126700000D01*
G75*
G02*
X95580000Y-126456250I0J243750D01*
G01*
X95580000Y-125893750D01*
G75*
G02*
X95823750Y-125650000I243750J0D01*
G01*
X96311250Y-125650000D01*
G75*
G02*
X96555000Y-125893750I0J-243750D01*
G01*
G37*
%TD*%
%TO.C,C26*%
G36*
G01*
X116122500Y-130485000D02*
X115727500Y-130485000D01*
G75*
G02*
X115555000Y-130312500I0J172500D01*
G01*
X115555000Y-129967500D01*
G75*
G02*
X115727500Y-129795000I172500J0D01*
G01*
X116122500Y-129795000D01*
G75*
G02*
X116295000Y-129967500I0J-172500D01*
G01*
X116295000Y-130312500D01*
G75*
G02*
X116122500Y-130485000I-172500J0D01*
G01*
G37*
G36*
G01*
X116122500Y-131455000D02*
X115727500Y-131455000D01*
G75*
G02*
X115555000Y-131282500I0J172500D01*
G01*
X115555000Y-130937500D01*
G75*
G02*
X115727500Y-130765000I172500J0D01*
G01*
X116122500Y-130765000D01*
G75*
G02*
X116295000Y-130937500I0J-172500D01*
G01*
X116295000Y-131282500D01*
G75*
G02*
X116122500Y-131455000I-172500J0D01*
G01*
G37*
%TD*%
%TO.C,C15*%
G36*
G01*
X101450000Y-121881250D02*
X101450000Y-121318750D01*
G75*
G02*
X101693750Y-121075000I243750J0D01*
G01*
X102181250Y-121075000D01*
G75*
G02*
X102425000Y-121318750I0J-243750D01*
G01*
X102425000Y-121881250D01*
G75*
G02*
X102181250Y-122125000I-243750J0D01*
G01*
X101693750Y-122125000D01*
G75*
G02*
X101450000Y-121881250I0J243750D01*
G01*
G37*
G36*
G01*
X99875000Y-121881250D02*
X99875000Y-121318750D01*
G75*
G02*
X100118750Y-121075000I243750J0D01*
G01*
X100606250Y-121075000D01*
G75*
G02*
X100850000Y-121318750I0J-243750D01*
G01*
X100850000Y-121881250D01*
G75*
G02*
X100606250Y-122125000I-243750J0D01*
G01*
X100118750Y-122125000D01*
G75*
G02*
X99875000Y-121881250I0J243750D01*
G01*
G37*
%TD*%
%TO.C,C14*%
G36*
G01*
X96275000Y-121768750D02*
X96275000Y-122331250D01*
G75*
G02*
X96031250Y-122575000I-243750J0D01*
G01*
X95543750Y-122575000D01*
G75*
G02*
X95300000Y-122331250I0J243750D01*
G01*
X95300000Y-121768750D01*
G75*
G02*
X95543750Y-121525000I243750J0D01*
G01*
X96031250Y-121525000D01*
G75*
G02*
X96275000Y-121768750I0J-243750D01*
G01*
G37*
G36*
G01*
X97850000Y-121768750D02*
X97850000Y-122331250D01*
G75*
G02*
X97606250Y-122575000I-243750J0D01*
G01*
X97118750Y-122575000D01*
G75*
G02*
X96875000Y-122331250I0J243750D01*
G01*
X96875000Y-121768750D01*
G75*
G02*
X97118750Y-121525000I243750J0D01*
G01*
X97606250Y-121525000D01*
G75*
G02*
X97850000Y-121768750I0J-243750D01*
G01*
G37*
%TD*%
%TO.C,C13*%
G36*
G01*
X103152500Y-121940000D02*
X103547500Y-121940000D01*
G75*
G02*
X103720000Y-122112500I0J-172500D01*
G01*
X103720000Y-122457500D01*
G75*
G02*
X103547500Y-122630000I-172500J0D01*
G01*
X103152500Y-122630000D01*
G75*
G02*
X102980000Y-122457500I0J172500D01*
G01*
X102980000Y-122112500D01*
G75*
G02*
X103152500Y-121940000I172500J0D01*
G01*
G37*
G36*
G01*
X103152500Y-120970000D02*
X103547500Y-120970000D01*
G75*
G02*
X103720000Y-121142500I0J-172500D01*
G01*
X103720000Y-121487500D01*
G75*
G02*
X103547500Y-121660000I-172500J0D01*
G01*
X103152500Y-121660000D01*
G75*
G02*
X102980000Y-121487500I0J172500D01*
G01*
X102980000Y-121142500D01*
G75*
G02*
X103152500Y-120970000I172500J0D01*
G01*
G37*
%TD*%
%TO.C,C12*%
G36*
G01*
X105847500Y-121660000D02*
X105452500Y-121660000D01*
G75*
G02*
X105280000Y-121487500I0J172500D01*
G01*
X105280000Y-121142500D01*
G75*
G02*
X105452500Y-120970000I172500J0D01*
G01*
X105847500Y-120970000D01*
G75*
G02*
X106020000Y-121142500I0J-172500D01*
G01*
X106020000Y-121487500D01*
G75*
G02*
X105847500Y-121660000I-172500J0D01*
G01*
G37*
G36*
G01*
X105847500Y-122630000D02*
X105452500Y-122630000D01*
G75*
G02*
X105280000Y-122457500I0J172500D01*
G01*
X105280000Y-122112500D01*
G75*
G02*
X105452500Y-121940000I172500J0D01*
G01*
X105847500Y-121940000D01*
G75*
G02*
X106020000Y-122112500I0J-172500D01*
G01*
X106020000Y-122457500D01*
G75*
G02*
X105847500Y-122630000I-172500J0D01*
G01*
G37*
%TD*%
%TO.C,C10*%
G36*
G01*
X111015000Y-123877500D02*
X111015000Y-124272500D01*
G75*
G02*
X110842500Y-124445000I-172500J0D01*
G01*
X110497500Y-124445000D01*
G75*
G02*
X110325000Y-124272500I0J172500D01*
G01*
X110325000Y-123877500D01*
G75*
G02*
X110497500Y-123705000I172500J0D01*
G01*
X110842500Y-123705000D01*
G75*
G02*
X111015000Y-123877500I0J-172500D01*
G01*
G37*
G36*
G01*
X111985000Y-123877500D02*
X111985000Y-124272500D01*
G75*
G02*
X111812500Y-124445000I-172500J0D01*
G01*
X111467500Y-124445000D01*
G75*
G02*
X111295000Y-124272500I0J172500D01*
G01*
X111295000Y-123877500D01*
G75*
G02*
X111467500Y-123705000I172500J0D01*
G01*
X111812500Y-123705000D01*
G75*
G02*
X111985000Y-123877500I0J-172500D01*
G01*
G37*
%TD*%
%TO.C,C9*%
G36*
G01*
X107527500Y-129240000D02*
X107922500Y-129240000D01*
G75*
G02*
X108095000Y-129412500I0J-172500D01*
G01*
X108095000Y-129757500D01*
G75*
G02*
X107922500Y-129930000I-172500J0D01*
G01*
X107527500Y-129930000D01*
G75*
G02*
X107355000Y-129757500I0J172500D01*
G01*
X107355000Y-129412500D01*
G75*
G02*
X107527500Y-129240000I172500J0D01*
G01*
G37*
G36*
G01*
X107527500Y-128270000D02*
X107922500Y-128270000D01*
G75*
G02*
X108095000Y-128442500I0J-172500D01*
G01*
X108095000Y-128787500D01*
G75*
G02*
X107922500Y-128960000I-172500J0D01*
G01*
X107527500Y-128960000D01*
G75*
G02*
X107355000Y-128787500I0J172500D01*
G01*
X107355000Y-128442500D01*
G75*
G02*
X107527500Y-128270000I172500J0D01*
G01*
G37*
%TD*%
%TO.C,C8*%
G36*
G01*
X106790000Y-131597500D02*
X106790000Y-131202500D01*
G75*
G02*
X106962500Y-131030000I172500J0D01*
G01*
X107307500Y-131030000D01*
G75*
G02*
X107480000Y-131202500I0J-172500D01*
G01*
X107480000Y-131597500D01*
G75*
G02*
X107307500Y-131770000I-172500J0D01*
G01*
X106962500Y-131770000D01*
G75*
G02*
X106790000Y-131597500I0J172500D01*
G01*
G37*
G36*
G01*
X105820000Y-131597500D02*
X105820000Y-131202500D01*
G75*
G02*
X105992500Y-131030000I172500J0D01*
G01*
X106337500Y-131030000D01*
G75*
G02*
X106510000Y-131202500I0J-172500D01*
G01*
X106510000Y-131597500D01*
G75*
G02*
X106337500Y-131770000I-172500J0D01*
G01*
X105992500Y-131770000D01*
G75*
G02*
X105820000Y-131597500I0J172500D01*
G01*
G37*
%TD*%
%TO.C,C7*%
G36*
G01*
X103560000Y-131227500D02*
X103560000Y-131622500D01*
G75*
G02*
X103387500Y-131795000I-172500J0D01*
G01*
X103042500Y-131795000D01*
G75*
G02*
X102870000Y-131622500I0J172500D01*
G01*
X102870000Y-131227500D01*
G75*
G02*
X103042500Y-131055000I172500J0D01*
G01*
X103387500Y-131055000D01*
G75*
G02*
X103560000Y-131227500I0J-172500D01*
G01*
G37*
G36*
G01*
X104530000Y-131227500D02*
X104530000Y-131622500D01*
G75*
G02*
X104357500Y-131795000I-172500J0D01*
G01*
X104012500Y-131795000D01*
G75*
G02*
X103840000Y-131622500I0J172500D01*
G01*
X103840000Y-131227500D01*
G75*
G02*
X104012500Y-131055000I172500J0D01*
G01*
X104357500Y-131055000D01*
G75*
G02*
X104530000Y-131227500I0J-172500D01*
G01*
G37*
%TD*%
%TO.C,C6*%
G36*
G01*
X96275000Y-124368750D02*
X96275000Y-124931250D01*
G75*
G02*
X96031250Y-125175000I-243750J0D01*
G01*
X95543750Y-125175000D01*
G75*
G02*
X95300000Y-124931250I0J243750D01*
G01*
X95300000Y-124368750D01*
G75*
G02*
X95543750Y-124125000I243750J0D01*
G01*
X96031250Y-124125000D01*
G75*
G02*
X96275000Y-124368750I0J-243750D01*
G01*
G37*
G36*
G01*
X97850000Y-124368750D02*
X97850000Y-124931250D01*
G75*
G02*
X97606250Y-125175000I-243750J0D01*
G01*
X97118750Y-125175000D01*
G75*
G02*
X96875000Y-124931250I0J243750D01*
G01*
X96875000Y-124368750D01*
G75*
G02*
X97118750Y-124125000I243750J0D01*
G01*
X97606250Y-124125000D01*
G75*
G02*
X97850000Y-124368750I0J-243750D01*
G01*
G37*
%TD*%
%TO.C,C5*%
G36*
G01*
X95885000Y-123152500D02*
X95885000Y-123547500D01*
G75*
G02*
X95712500Y-123720000I-172500J0D01*
G01*
X95367500Y-123720000D01*
G75*
G02*
X95195000Y-123547500I0J172500D01*
G01*
X95195000Y-123152500D01*
G75*
G02*
X95367500Y-122980000I172500J0D01*
G01*
X95712500Y-122980000D01*
G75*
G02*
X95885000Y-123152500I0J-172500D01*
G01*
G37*
G36*
G01*
X96855000Y-123152500D02*
X96855000Y-123547500D01*
G75*
G02*
X96682500Y-123720000I-172500J0D01*
G01*
X96337500Y-123720000D01*
G75*
G02*
X96165000Y-123547500I0J172500D01*
G01*
X96165000Y-123152500D01*
G75*
G02*
X96337500Y-122980000I172500J0D01*
G01*
X96682500Y-122980000D01*
G75*
G02*
X96855000Y-123152500I0J-172500D01*
G01*
G37*
%TD*%
%TO.C,C4*%
G36*
G01*
X110947500Y-125500000D02*
X110552500Y-125500000D01*
G75*
G02*
X110380000Y-125327500I0J172500D01*
G01*
X110380000Y-124982500D01*
G75*
G02*
X110552500Y-124810000I172500J0D01*
G01*
X110947500Y-124810000D01*
G75*
G02*
X111120000Y-124982500I0J-172500D01*
G01*
X111120000Y-125327500D01*
G75*
G02*
X110947500Y-125500000I-172500J0D01*
G01*
G37*
G36*
G01*
X110947500Y-126470000D02*
X110552500Y-126470000D01*
G75*
G02*
X110380000Y-126297500I0J172500D01*
G01*
X110380000Y-125952500D01*
G75*
G02*
X110552500Y-125780000I172500J0D01*
G01*
X110947500Y-125780000D01*
G75*
G02*
X111120000Y-125952500I0J-172500D01*
G01*
X111120000Y-126297500D01*
G75*
G02*
X110947500Y-126470000I-172500J0D01*
G01*
G37*
%TD*%
%TO.C,C3*%
G36*
G01*
X107872500Y-126435000D02*
X107477500Y-126435000D01*
G75*
G02*
X107305000Y-126262500I0J172500D01*
G01*
X107305000Y-125917500D01*
G75*
G02*
X107477500Y-125745000I172500J0D01*
G01*
X107872500Y-125745000D01*
G75*
G02*
X108045000Y-125917500I0J-172500D01*
G01*
X108045000Y-126262500D01*
G75*
G02*
X107872500Y-126435000I-172500J0D01*
G01*
G37*
G36*
G01*
X107872500Y-127405000D02*
X107477500Y-127405000D01*
G75*
G02*
X107305000Y-127232500I0J172500D01*
G01*
X107305000Y-126887500D01*
G75*
G02*
X107477500Y-126715000I172500J0D01*
G01*
X107872500Y-126715000D01*
G75*
G02*
X108045000Y-126887500I0J-172500D01*
G01*
X108045000Y-127232500D01*
G75*
G02*
X107872500Y-127405000I-172500J0D01*
G01*
G37*
%TD*%
%TO.C,C2*%
G36*
G01*
X106482500Y-121940000D02*
X106877500Y-121940000D01*
G75*
G02*
X107050000Y-122112500I0J-172500D01*
G01*
X107050000Y-122457500D01*
G75*
G02*
X106877500Y-122630000I-172500J0D01*
G01*
X106482500Y-122630000D01*
G75*
G02*
X106310000Y-122457500I0J172500D01*
G01*
X106310000Y-122112500D01*
G75*
G02*
X106482500Y-121940000I172500J0D01*
G01*
G37*
G36*
G01*
X106482500Y-120970000D02*
X106877500Y-120970000D01*
G75*
G02*
X107050000Y-121142500I0J-172500D01*
G01*
X107050000Y-121487500D01*
G75*
G02*
X106877500Y-121660000I-172500J0D01*
G01*
X106482500Y-121660000D01*
G75*
G02*
X106310000Y-121487500I0J172500D01*
G01*
X106310000Y-121142500D01*
G75*
G02*
X106482500Y-120970000I172500J0D01*
G01*
G37*
%TD*%
%TO.C,C1*%
G36*
G01*
X112147500Y-121690000D02*
X111752500Y-121690000D01*
G75*
G02*
X111580000Y-121517500I0J172500D01*
G01*
X111580000Y-121172500D01*
G75*
G02*
X111752500Y-121000000I172500J0D01*
G01*
X112147500Y-121000000D01*
G75*
G02*
X112320000Y-121172500I0J-172500D01*
G01*
X112320000Y-121517500D01*
G75*
G02*
X112147500Y-121690000I-172500J0D01*
G01*
G37*
G36*
G01*
X112147500Y-122660000D02*
X111752500Y-122660000D01*
G75*
G02*
X111580000Y-122487500I0J172500D01*
G01*
X111580000Y-122142500D01*
G75*
G02*
X111752500Y-121970000I172500J0D01*
G01*
X112147500Y-121970000D01*
G75*
G02*
X112320000Y-122142500I0J-172500D01*
G01*
X112320000Y-122487500D01*
G75*
G02*
X112147500Y-122660000I-172500J0D01*
G01*
G37*
%TD*%
M02*
