M48
; DRILL file {KiCad (5.1.6)-1} date 07/31/20 00:04:53
; FORMAT={-:-/ absolute / metric / decimal}
; #@! TF.CreationDate,2020-07-31T00:04:53+08:00
; #@! TF.GenerationSoftware,Kicad,Pcbnew,(5.1.6)-1
FMAT,2
METRIC
T1C0.400
%
G90
G05
T1
X90.58Y-128.325
X92.355Y-121.25
X98.715Y-122.726
X98.78Y-124.675
X98.805Y-130.15
X99.055Y-126.75
X100.089Y-131.418
X100.43Y-122.725
X100.915Y-131.06
X101.38Y-125.125
X101.38Y-126.35
X101.38Y-127.45
X101.38Y-128.75
X101.83Y-122.825
X102.309Y-130.846
X102.455Y-125.125
X102.455Y-126.35
X102.455Y-127.45
X102.455Y-128.75
X103.855Y-125.125
X103.855Y-126.35
X103.855Y-127.45
X103.855Y-128.75
X104.63Y-122.425
X104.98Y-125.125
X104.98Y-126.35
X104.98Y-127.45
X104.98Y-128.75
X105.23Y-131.425
X106.955Y-124.6
X107.68Y-121.55
X108.017Y-125.312
X108.055Y-123.952
X108.655Y-128.1
X108.92Y-127.085
X108.98Y-130.975
X109.055Y-129.725
X114.48Y-122.175
T0
M30
