%TF.GenerationSoftware,KiCad,Pcbnew,(5.1.6)-1*%
%TF.CreationDate,2020-07-31T00:04:16+08:00*%
%TF.ProjectId,NRF52840,4e524635-3238-4343-902e-6b696361645f,rev?*%
%TF.SameCoordinates,Original*%
%TF.FileFunction,Legend,Bot*%
%TF.FilePolarity,Positive*%
%FSLAX46Y46*%
G04 Gerber Fmt 4.6, Leading zero omitted, Abs format (unit mm)*
G04 Created by KiCad (PCBNEW (5.1.6)-1) date 2020-07-31 00:04:16*
%MOMM*%
%LPD*%
G01*
G04 APERTURE LIST*
%ADD10C,0.150000*%
%ADD11R,2.100000X1.600000*%
%ADD12R,8.100000X2.100000*%
%ADD13R,7.100000X1.600000*%
G04 APERTURE END LIST*
D10*
X101566904Y-129500000D02*
X101662142Y-129452380D01*
X101805000Y-129452380D01*
X101947857Y-129500000D01*
X102043095Y-129595238D01*
X102090714Y-129690476D01*
X102138333Y-129880952D01*
X102138333Y-130023809D01*
X102090714Y-130214285D01*
X102043095Y-130309523D01*
X101947857Y-130404761D01*
X101805000Y-130452380D01*
X101709761Y-130452380D01*
X101566904Y-130404761D01*
X101519285Y-130357142D01*
X101519285Y-130023809D01*
X101709761Y-130023809D01*
X101090714Y-130452380D02*
X101090714Y-129452380D01*
X100519285Y-130452380D01*
X100519285Y-129452380D01*
X100043095Y-130452380D02*
X100043095Y-129452380D01*
X99805000Y-129452380D01*
X99662142Y-129500000D01*
X99566904Y-129595238D01*
X99519285Y-129690476D01*
X99471666Y-129880952D01*
X99471666Y-130023809D01*
X99519285Y-130214285D01*
X99566904Y-130309523D01*
X99662142Y-130404761D01*
X99805000Y-130452380D01*
X100043095Y-130452380D01*
X100485952Y-128202380D02*
X100485952Y-127202380D01*
X100247857Y-127202380D01*
X100105000Y-127250000D01*
X100009761Y-127345238D01*
X99962142Y-127440476D01*
X99914523Y-127630952D01*
X99914523Y-127773809D01*
X99962142Y-127964285D01*
X100009761Y-128059523D01*
X100105000Y-128154761D01*
X100247857Y-128202380D01*
X100485952Y-128202380D01*
X99485952Y-127821428D02*
X98724047Y-127821428D01*
X99105000Y-128202380D02*
X99105000Y-127440476D01*
X100560952Y-125727380D02*
X100560952Y-124727380D01*
X100322857Y-124727380D01*
X100180000Y-124775000D01*
X100084761Y-124870238D01*
X100037142Y-124965476D01*
X99989523Y-125155952D01*
X99989523Y-125298809D01*
X100037142Y-125489285D01*
X100084761Y-125584523D01*
X100180000Y-125679761D01*
X100322857Y-125727380D01*
X100560952Y-125727380D01*
X99560952Y-125346428D02*
X98799047Y-125346428D01*
X99316904Y-122452380D02*
X99793095Y-122452380D01*
X99840714Y-122928571D01*
X99793095Y-122880952D01*
X99697857Y-122833333D01*
X99459761Y-122833333D01*
X99364523Y-122880952D01*
X99316904Y-122928571D01*
X99269285Y-123023809D01*
X99269285Y-123261904D01*
X99316904Y-123357142D01*
X99364523Y-123404761D01*
X99459761Y-123452380D01*
X99697857Y-123452380D01*
X99793095Y-123404761D01*
X99840714Y-123357142D01*
X115143095Y-129802380D02*
X114524047Y-129802380D01*
X114857380Y-130183333D01*
X114714523Y-130183333D01*
X114619285Y-130230952D01*
X114571666Y-130278571D01*
X114524047Y-130373809D01*
X114524047Y-130611904D01*
X114571666Y-130707142D01*
X114619285Y-130754761D01*
X114714523Y-130802380D01*
X115000238Y-130802380D01*
X115095476Y-130754761D01*
X115143095Y-130707142D01*
X114238333Y-129802380D02*
X113905000Y-130802380D01*
X113571666Y-129802380D01*
X113333571Y-129802380D02*
X112714523Y-129802380D01*
X113047857Y-130183333D01*
X112905000Y-130183333D01*
X112809761Y-130230952D01*
X112762142Y-130278571D01*
X112714523Y-130373809D01*
X112714523Y-130611904D01*
X112762142Y-130707142D01*
X112809761Y-130754761D01*
X112905000Y-130802380D01*
X113190714Y-130802380D01*
X113285952Y-130754761D01*
X113333571Y-130707142D01*
X114916904Y-127850000D02*
X115012142Y-127802380D01*
X115155000Y-127802380D01*
X115297857Y-127850000D01*
X115393095Y-127945238D01*
X115440714Y-128040476D01*
X115488333Y-128230952D01*
X115488333Y-128373809D01*
X115440714Y-128564285D01*
X115393095Y-128659523D01*
X115297857Y-128754761D01*
X115155000Y-128802380D01*
X115059761Y-128802380D01*
X114916904Y-128754761D01*
X114869285Y-128707142D01*
X114869285Y-128373809D01*
X115059761Y-128373809D01*
X114440714Y-128802380D02*
X114440714Y-127802380D01*
X113869285Y-128802380D01*
X113869285Y-127802380D01*
X113393095Y-128802380D02*
X113393095Y-127802380D01*
X113155000Y-127802380D01*
X113012142Y-127850000D01*
X112916904Y-127945238D01*
X112869285Y-128040476D01*
X112821666Y-128230952D01*
X112821666Y-128373809D01*
X112869285Y-128564285D01*
X112916904Y-128659523D01*
X113012142Y-128754761D01*
X113155000Y-128802380D01*
X113393095Y-128802380D01*
X116824047Y-126154761D02*
X116681190Y-126202380D01*
X116443095Y-126202380D01*
X116347857Y-126154761D01*
X116300238Y-126107142D01*
X116252619Y-126011904D01*
X116252619Y-125916666D01*
X116300238Y-125821428D01*
X116347857Y-125773809D01*
X116443095Y-125726190D01*
X116633571Y-125678571D01*
X116728809Y-125630952D01*
X116776428Y-125583333D01*
X116824047Y-125488095D01*
X116824047Y-125392857D01*
X116776428Y-125297619D01*
X116728809Y-125250000D01*
X116633571Y-125202380D01*
X116395476Y-125202380D01*
X116252619Y-125250000D01*
X115919285Y-125202380D02*
X115681190Y-126202380D01*
X115490714Y-125488095D01*
X115300238Y-126202380D01*
X115062142Y-125202380D01*
X114681190Y-126202380D02*
X114681190Y-125202380D01*
X114443095Y-125202380D01*
X114300238Y-125250000D01*
X114205000Y-125345238D01*
X114157380Y-125440476D01*
X114109761Y-125630952D01*
X114109761Y-125773809D01*
X114157380Y-125964285D01*
X114205000Y-126059523D01*
X114300238Y-126154761D01*
X114443095Y-126202380D01*
X114681190Y-126202380D01*
X113681190Y-126202380D02*
X113681190Y-125202380D01*
X113014523Y-125202380D02*
X112824047Y-125202380D01*
X112728809Y-125250000D01*
X112633571Y-125345238D01*
X112585952Y-125535714D01*
X112585952Y-125869047D01*
X112633571Y-126059523D01*
X112728809Y-126154761D01*
X112824047Y-126202380D01*
X113014523Y-126202380D01*
X113109761Y-126154761D01*
X113205000Y-126059523D01*
X113252619Y-125869047D01*
X113252619Y-125535714D01*
X113205000Y-125345238D01*
X113109761Y-125250000D01*
X113014523Y-125202380D01*
X118066904Y-124054761D02*
X117924047Y-124102380D01*
X117685952Y-124102380D01*
X117590714Y-124054761D01*
X117543095Y-124007142D01*
X117495476Y-123911904D01*
X117495476Y-123816666D01*
X117543095Y-123721428D01*
X117590714Y-123673809D01*
X117685952Y-123626190D01*
X117876428Y-123578571D01*
X117971666Y-123530952D01*
X118019285Y-123483333D01*
X118066904Y-123388095D01*
X118066904Y-123292857D01*
X118019285Y-123197619D01*
X117971666Y-123150000D01*
X117876428Y-123102380D01*
X117638333Y-123102380D01*
X117495476Y-123150000D01*
X117162142Y-123102380D02*
X116924047Y-124102380D01*
X116733571Y-123388095D01*
X116543095Y-124102380D01*
X116305000Y-123102380D01*
X115924047Y-124102380D02*
X115924047Y-123102380D01*
X115685952Y-123102380D01*
X115543095Y-123150000D01*
X115447857Y-123245238D01*
X115400238Y-123340476D01*
X115352619Y-123530952D01*
X115352619Y-123673809D01*
X115400238Y-123864285D01*
X115447857Y-123959523D01*
X115543095Y-124054761D01*
X115685952Y-124102380D01*
X115924047Y-124102380D01*
X114352619Y-124007142D02*
X114400238Y-124054761D01*
X114543095Y-124102380D01*
X114638333Y-124102380D01*
X114781190Y-124054761D01*
X114876428Y-123959523D01*
X114924047Y-123864285D01*
X114971666Y-123673809D01*
X114971666Y-123530952D01*
X114924047Y-123340476D01*
X114876428Y-123245238D01*
X114781190Y-123150000D01*
X114638333Y-123102380D01*
X114543095Y-123102380D01*
X114400238Y-123150000D01*
X114352619Y-123197619D01*
X113447857Y-124102380D02*
X113924047Y-124102380D01*
X113924047Y-123102380D01*
X113114523Y-124102380D02*
X113114523Y-123102380D01*
X112543095Y-124102380D02*
X112971666Y-123530952D01*
X112543095Y-123102380D02*
X113114523Y-123673809D01*
%TO.C,J1*%
X110307380Y-121591666D02*
X111021666Y-121591666D01*
X111164523Y-121544047D01*
X111259761Y-121448809D01*
X111307380Y-121305952D01*
X111307380Y-121210714D01*
X111307380Y-122591666D02*
X111307380Y-122020238D01*
X111307380Y-122305952D02*
X110307380Y-122305952D01*
X110450238Y-122210714D01*
X110545476Y-122115476D01*
X110593095Y-122020238D01*
%TO.C,J2*%
X100107380Y-123466666D02*
X100821666Y-123466666D01*
X100964523Y-123419047D01*
X101059761Y-123323809D01*
X101107380Y-123180952D01*
X101107380Y-123085714D01*
X100202619Y-123895238D02*
X100155000Y-123942857D01*
X100107380Y-124038095D01*
X100107380Y-124276190D01*
X100155000Y-124371428D01*
X100202619Y-124419047D01*
X100297857Y-124466666D01*
X100393095Y-124466666D01*
X100535952Y-124419047D01*
X101107380Y-123847619D01*
X101107380Y-124466666D01*
%TO.C,C11*%
X109487142Y-123582142D02*
X109534761Y-123534523D01*
X109582380Y-123391666D01*
X109582380Y-123296428D01*
X109534761Y-123153571D01*
X109439523Y-123058333D01*
X109344285Y-123010714D01*
X109153809Y-122963095D01*
X109010952Y-122963095D01*
X108820476Y-123010714D01*
X108725238Y-123058333D01*
X108630000Y-123153571D01*
X108582380Y-123296428D01*
X108582380Y-123391666D01*
X108630000Y-123534523D01*
X108677619Y-123582142D01*
X109582380Y-124534523D02*
X109582380Y-123963095D01*
X109582380Y-124248809D02*
X108582380Y-124248809D01*
X108725238Y-124153571D01*
X108820476Y-124058333D01*
X108868095Y-123963095D01*
X109582380Y-125486904D02*
X109582380Y-124915476D01*
X109582380Y-125201190D02*
X108582380Y-125201190D01*
X108725238Y-125105952D01*
X108820476Y-125010714D01*
X108868095Y-124915476D01*
%TO.C,Y1*%
X110106190Y-122126190D02*
X110106190Y-122602380D01*
X110439523Y-121602380D02*
X110106190Y-122126190D01*
X109772857Y-121602380D01*
X108915714Y-122602380D02*
X109487142Y-122602380D01*
X109201428Y-122602380D02*
X109201428Y-121602380D01*
X109296666Y-121745238D01*
X109391904Y-121840476D01*
X109487142Y-121888095D01*
%TO.C,L1*%
X109432380Y-125983333D02*
X109432380Y-125507142D01*
X108432380Y-125507142D01*
X109432380Y-126840476D02*
X109432380Y-126269047D01*
X109432380Y-126554761D02*
X108432380Y-126554761D01*
X108575238Y-126459523D01*
X108670476Y-126364285D01*
X108718095Y-126269047D01*
%TO.C,C15*%
X101797857Y-121907142D02*
X101845476Y-121954761D01*
X101988333Y-122002380D01*
X102083571Y-122002380D01*
X102226428Y-121954761D01*
X102321666Y-121859523D01*
X102369285Y-121764285D01*
X102416904Y-121573809D01*
X102416904Y-121430952D01*
X102369285Y-121240476D01*
X102321666Y-121145238D01*
X102226428Y-121050000D01*
X102083571Y-121002380D01*
X101988333Y-121002380D01*
X101845476Y-121050000D01*
X101797857Y-121097619D01*
X100845476Y-122002380D02*
X101416904Y-122002380D01*
X101131190Y-122002380D02*
X101131190Y-121002380D01*
X101226428Y-121145238D01*
X101321666Y-121240476D01*
X101416904Y-121288095D01*
X99940714Y-121002380D02*
X100416904Y-121002380D01*
X100464523Y-121478571D01*
X100416904Y-121430952D01*
X100321666Y-121383333D01*
X100083571Y-121383333D01*
X99988333Y-121430952D01*
X99940714Y-121478571D01*
X99893095Y-121573809D01*
X99893095Y-121811904D01*
X99940714Y-121907142D01*
X99988333Y-121954761D01*
X100083571Y-122002380D01*
X100321666Y-122002380D01*
X100416904Y-121954761D01*
X100464523Y-121907142D01*
%TO.C,C13*%
X103737142Y-121482142D02*
X103784761Y-121434523D01*
X103832380Y-121291666D01*
X103832380Y-121196428D01*
X103784761Y-121053571D01*
X103689523Y-120958333D01*
X103594285Y-120910714D01*
X103403809Y-120863095D01*
X103260952Y-120863095D01*
X103070476Y-120910714D01*
X102975238Y-120958333D01*
X102880000Y-121053571D01*
X102832380Y-121196428D01*
X102832380Y-121291666D01*
X102880000Y-121434523D01*
X102927619Y-121482142D01*
X103832380Y-122434523D02*
X103832380Y-121863095D01*
X103832380Y-122148809D02*
X102832380Y-122148809D01*
X102975238Y-122053571D01*
X103070476Y-121958333D01*
X103118095Y-121863095D01*
X102832380Y-122767857D02*
X102832380Y-123386904D01*
X103213333Y-123053571D01*
X103213333Y-123196428D01*
X103260952Y-123291666D01*
X103308571Y-123339285D01*
X103403809Y-123386904D01*
X103641904Y-123386904D01*
X103737142Y-123339285D01*
X103784761Y-123291666D01*
X103832380Y-123196428D01*
X103832380Y-122910714D01*
X103784761Y-122815476D01*
X103737142Y-122767857D01*
%TO.C,C12*%
X105222857Y-122742857D02*
X105175238Y-122790476D01*
X105127619Y-122933333D01*
X105127619Y-123028571D01*
X105175238Y-123171428D01*
X105270476Y-123266666D01*
X105365714Y-123314285D01*
X105556190Y-123361904D01*
X105699047Y-123361904D01*
X105889523Y-123314285D01*
X105984761Y-123266666D01*
X106080000Y-123171428D01*
X106127619Y-123028571D01*
X106127619Y-122933333D01*
X106080000Y-122790476D01*
X106032380Y-122742857D01*
X105127619Y-121790476D02*
X105127619Y-122361904D01*
X105127619Y-122076190D02*
X106127619Y-122076190D01*
X105984761Y-122171428D01*
X105889523Y-122266666D01*
X105841904Y-122361904D01*
X106032380Y-121409523D02*
X106080000Y-121361904D01*
X106127619Y-121266666D01*
X106127619Y-121028571D01*
X106080000Y-120933333D01*
X106032380Y-120885714D01*
X105937142Y-120838095D01*
X105841904Y-120838095D01*
X105699047Y-120885714D01*
X105127619Y-121457142D01*
X105127619Y-120838095D01*
%TO.C,C9*%
X108062142Y-128933333D02*
X108109761Y-128885714D01*
X108157380Y-128742857D01*
X108157380Y-128647619D01*
X108109761Y-128504761D01*
X108014523Y-128409523D01*
X107919285Y-128361904D01*
X107728809Y-128314285D01*
X107585952Y-128314285D01*
X107395476Y-128361904D01*
X107300238Y-128409523D01*
X107205000Y-128504761D01*
X107157380Y-128647619D01*
X107157380Y-128742857D01*
X107205000Y-128885714D01*
X107252619Y-128933333D01*
X108157380Y-129409523D02*
X108157380Y-129600000D01*
X108109761Y-129695238D01*
X108062142Y-129742857D01*
X107919285Y-129838095D01*
X107728809Y-129885714D01*
X107347857Y-129885714D01*
X107252619Y-129838095D01*
X107205000Y-129790476D01*
X107157380Y-129695238D01*
X107157380Y-129504761D01*
X107205000Y-129409523D01*
X107252619Y-129361904D01*
X107347857Y-129314285D01*
X107585952Y-129314285D01*
X107681190Y-129361904D01*
X107728809Y-129409523D01*
X107776428Y-129504761D01*
X107776428Y-129695238D01*
X107728809Y-129790476D01*
X107681190Y-129838095D01*
X107585952Y-129885714D01*
%TO.C,C8*%
X106996666Y-131732142D02*
X107044285Y-131779761D01*
X107187142Y-131827380D01*
X107282380Y-131827380D01*
X107425238Y-131779761D01*
X107520476Y-131684523D01*
X107568095Y-131589285D01*
X107615714Y-131398809D01*
X107615714Y-131255952D01*
X107568095Y-131065476D01*
X107520476Y-130970238D01*
X107425238Y-130875000D01*
X107282380Y-130827380D01*
X107187142Y-130827380D01*
X107044285Y-130875000D01*
X106996666Y-130922619D01*
X106425238Y-131255952D02*
X106520476Y-131208333D01*
X106568095Y-131160714D01*
X106615714Y-131065476D01*
X106615714Y-131017857D01*
X106568095Y-130922619D01*
X106520476Y-130875000D01*
X106425238Y-130827380D01*
X106234761Y-130827380D01*
X106139523Y-130875000D01*
X106091904Y-130922619D01*
X106044285Y-131017857D01*
X106044285Y-131065476D01*
X106091904Y-131160714D01*
X106139523Y-131208333D01*
X106234761Y-131255952D01*
X106425238Y-131255952D01*
X106520476Y-131303571D01*
X106568095Y-131351190D01*
X106615714Y-131446428D01*
X106615714Y-131636904D01*
X106568095Y-131732142D01*
X106520476Y-131779761D01*
X106425238Y-131827380D01*
X106234761Y-131827380D01*
X106139523Y-131779761D01*
X106091904Y-131732142D01*
X106044285Y-131636904D01*
X106044285Y-131446428D01*
X106091904Y-131351190D01*
X106139523Y-131303571D01*
X106234761Y-131255952D01*
%TO.C,C7*%
X103921666Y-131632142D02*
X103969285Y-131679761D01*
X104112142Y-131727380D01*
X104207380Y-131727380D01*
X104350238Y-131679761D01*
X104445476Y-131584523D01*
X104493095Y-131489285D01*
X104540714Y-131298809D01*
X104540714Y-131155952D01*
X104493095Y-130965476D01*
X104445476Y-130870238D01*
X104350238Y-130775000D01*
X104207380Y-130727380D01*
X104112142Y-130727380D01*
X103969285Y-130775000D01*
X103921666Y-130822619D01*
X103588333Y-130727380D02*
X102921666Y-130727380D01*
X103350238Y-131727380D01*
%TO.C,C3*%
X108037142Y-126433333D02*
X108084761Y-126385714D01*
X108132380Y-126242857D01*
X108132380Y-126147619D01*
X108084761Y-126004761D01*
X107989523Y-125909523D01*
X107894285Y-125861904D01*
X107703809Y-125814285D01*
X107560952Y-125814285D01*
X107370476Y-125861904D01*
X107275238Y-125909523D01*
X107180000Y-126004761D01*
X107132380Y-126147619D01*
X107132380Y-126242857D01*
X107180000Y-126385714D01*
X107227619Y-126433333D01*
X107132380Y-126766666D02*
X107132380Y-127385714D01*
X107513333Y-127052380D01*
X107513333Y-127195238D01*
X107560952Y-127290476D01*
X107608571Y-127338095D01*
X107703809Y-127385714D01*
X107941904Y-127385714D01*
X108037142Y-127338095D01*
X108084761Y-127290476D01*
X108132380Y-127195238D01*
X108132380Y-126909523D01*
X108084761Y-126814285D01*
X108037142Y-126766666D01*
%TO.C,C2*%
X107187142Y-121558333D02*
X107234761Y-121510714D01*
X107282380Y-121367857D01*
X107282380Y-121272619D01*
X107234761Y-121129761D01*
X107139523Y-121034523D01*
X107044285Y-120986904D01*
X106853809Y-120939285D01*
X106710952Y-120939285D01*
X106520476Y-120986904D01*
X106425238Y-121034523D01*
X106330000Y-121129761D01*
X106282380Y-121272619D01*
X106282380Y-121367857D01*
X106330000Y-121510714D01*
X106377619Y-121558333D01*
X106377619Y-121939285D02*
X106330000Y-121986904D01*
X106282380Y-122082142D01*
X106282380Y-122320238D01*
X106330000Y-122415476D01*
X106377619Y-122463095D01*
X106472857Y-122510714D01*
X106568095Y-122510714D01*
X106710952Y-122463095D01*
X107282380Y-121891666D01*
X107282380Y-122510714D01*
%TD*%
%LPC*%
D11*
%TO.C,J1*%
X110805000Y-130376734D03*
X110805000Y-128150000D03*
X110805000Y-125923267D03*
X110805000Y-123696534D03*
%TD*%
D12*
%TO.C,J2*%
X94155000Y-129870800D03*
D13*
X94655000Y-127368900D03*
X94655000Y-125375000D03*
D12*
X94155000Y-122885800D03*
%TD*%
M02*
