%TF.GenerationSoftware,KiCad,Pcbnew,(5.1.8)-1*%
%TF.CreationDate,2020-12-26T13:36:22+08:00*%
%TF.ProjectId,NRF52840,4e524635-3238-4343-902e-6b696361645f,rev?*%
%TF.SameCoordinates,Original*%
%TF.FileFunction,Copper,L1,Top*%
%TF.FilePolarity,Positive*%
%FSLAX46Y46*%
G04 Gerber Fmt 4.6, Leading zero omitted, Abs format (unit mm)*
G04 Created by KiCad (PCBNEW (5.1.8)-1) date 2020-12-26 13:36:22*
%MOMM*%
%LPD*%
G01*
G04 APERTURE LIST*
%TA.AperFunction,EtchedComponent*%
%ADD10C,0.100000*%
%TD*%
%TA.AperFunction,ComponentPad*%
%ADD11O,1.500000X0.800000*%
%TD*%
%TA.AperFunction,ComponentPad*%
%ADD12O,0.800000X1.500000*%
%TD*%
%TA.AperFunction,ConnectorPad*%
%ADD13R,0.500000X0.500000*%
%TD*%
%TA.AperFunction,ComponentPad*%
%ADD14R,0.500000X0.900000*%
%TD*%
%TA.AperFunction,SMDPad,CuDef*%
%ADD15R,1.800000X1.000000*%
%TD*%
%TA.AperFunction,SMDPad,CuDef*%
%ADD16R,0.900000X0.800000*%
%TD*%
%TA.AperFunction,SMDPad,CuDef*%
%ADD17R,4.600000X4.600000*%
%TD*%
%TA.AperFunction,ViaPad*%
%ADD18C,0.600000*%
%TD*%
%TA.AperFunction,ViaPad*%
%ADD19C,0.800000*%
%TD*%
%TA.AperFunction,Conductor*%
%ADD20C,0.130000*%
%TD*%
%TA.AperFunction,Conductor*%
%ADD21C,0.250000*%
%TD*%
%TA.AperFunction,Conductor*%
%ADD22C,0.500000*%
%TD*%
%TA.AperFunction,Conductor*%
%ADD23C,0.200000*%
%TD*%
%TA.AperFunction,Conductor*%
%ADD24C,0.350000*%
%TD*%
%TA.AperFunction,Conductor*%
%ADD25C,0.150000*%
%TD*%
%TA.AperFunction,Conductor*%
%ADD26C,0.100000*%
%TD*%
G04 APERTURE END LIST*
D10*
%TO.C,AE1*%
G36*
X140822680Y-122766340D02*
G01*
X140822680Y-120766340D01*
X143462680Y-120766340D01*
X143462680Y-118066340D01*
X140822680Y-118066340D01*
X140822680Y-116066340D01*
X143462680Y-116066340D01*
X143462680Y-113366340D01*
X139022680Y-113366340D01*
X139022680Y-113866340D01*
X142962680Y-113866340D01*
X142962680Y-115566340D01*
X140322680Y-115566340D01*
X140322680Y-118566340D01*
X142962680Y-118566340D01*
X142962680Y-120266340D01*
X140322680Y-120266340D01*
X140322680Y-123266340D01*
X142962680Y-123266340D01*
X142962680Y-124966340D01*
X138062680Y-124966340D01*
X138062680Y-125466340D01*
X142962680Y-125466340D01*
X142962680Y-126866340D01*
X138062680Y-126866340D01*
X138062680Y-127766340D01*
X138305895Y-127766340D01*
X138305895Y-127463923D01*
X138258285Y-127454082D01*
X138215883Y-127430014D01*
X138183099Y-127392071D01*
X138178745Y-127384159D01*
X138166637Y-127341496D01*
X138167380Y-127292977D01*
X138180280Y-127247462D01*
X138190893Y-127228851D01*
X138226127Y-127195208D01*
X138271312Y-127174649D01*
X138320838Y-127168118D01*
X138369097Y-127176558D01*
X138401323Y-127193452D01*
X138433993Y-127228712D01*
X138454088Y-127274022D01*
X138460662Y-127323607D01*
X138452772Y-127371693D01*
X138435866Y-127404585D01*
X138399096Y-127439525D01*
X138354302Y-127459187D01*
X138305895Y-127463923D01*
X138305895Y-127766340D01*
X143462680Y-127766340D01*
X143462680Y-122766340D01*
X140822680Y-122766340D01*
G37*
%TD*%
D11*
%TO.P,J3,12*%
%TO.N,P0.3*%
X115512680Y-113726340D03*
%TO.P,J3,11*%
%TO.N,P0.4*%
X115512680Y-114996340D03*
%TO.P,J3,10*%
%TO.N,P0.5*%
X115512680Y-116266340D03*
%TO.P,J3,9*%
%TO.N,P0.6*%
X115512680Y-117536340D03*
%TO.P,J3,8*%
%TO.N,P0.7*%
X115512680Y-118806340D03*
%TO.P,J3,7*%
%TO.N,P0.8*%
X115512680Y-120076340D03*
%TO.P,J3,6*%
%TO.N,P0.9*%
X115512680Y-121346340D03*
%TO.P,J3,5*%
%TO.N,P0.10*%
X115512680Y-122616340D03*
%TO.P,J3,4*%
%TO.N,+3V3*%
X115512680Y-123886340D03*
%TO.P,J3,3*%
%TO.N,P0.11*%
X115512680Y-125156340D03*
%TO.P,J3,2*%
%TO.N,P0.12*%
X115512680Y-126426340D03*
%TO.P,J3,1*%
%TO.N,P0.13*%
X115512680Y-127696340D03*
%TD*%
D12*
%TO.P,J4,2*%
%TO.N,GND*%
X137497680Y-129466340D03*
%TO.P,J4,1*%
X136227680Y-129466340D03*
%TD*%
%TO.P,J1,14*%
%TO.N,P0.14*%
X117172680Y-129366340D03*
%TO.P,J1,13*%
%TO.N,P0.15*%
X118442680Y-129366340D03*
%TO.P,J1,12*%
%TO.N,P0.16*%
X119712680Y-129366340D03*
%TO.P,J1,11*%
%TO.N,P0.17*%
X120982680Y-129366340D03*
%TO.P,J1,10*%
%TO.N,P0.18*%
X122252680Y-129366340D03*
%TO.P,J1,9*%
%TO.N,P0.19*%
X123522680Y-129366340D03*
%TO.P,J1,8*%
%TO.N,P0.20*%
X124792680Y-129366340D03*
%TO.P,J1,7*%
%TO.N,P0.21*%
X126062680Y-129366340D03*
%TO.P,J1,6*%
%TO.N,SWDCLK*%
X127332680Y-129366340D03*
%TO.P,J1,5*%
%TO.N,SWDIO*%
X128602680Y-129366340D03*
%TO.P,J1,4*%
%TO.N,P0.22*%
X129872680Y-129366340D03*
%TO.P,J1,3*%
%TO.N,P0.23*%
X131142680Y-129366340D03*
%TO.P,J1,2*%
%TO.N,P0.24*%
X132412680Y-129366340D03*
%TO.P,J1,1*%
%TO.N,GND*%
X133682680Y-129366340D03*
%TD*%
%TO.P,J5,2*%
%TO.N,GND*%
X137497680Y-111966340D03*
%TO.P,J5,1*%
X136227680Y-111966340D03*
%TD*%
%TO.P,J2,14*%
%TO.N,P0.2*%
X117172680Y-112066340D03*
%TO.P,J2,13*%
%TO.N,GND*%
X118442680Y-112066340D03*
%TO.P,J2,12*%
%TO.N,+3V3*%
X119712680Y-112066340D03*
%TO.P,J2,11*%
%TO.N,GND*%
X120982680Y-112066340D03*
%TO.P,J2,10*%
X122252680Y-112066340D03*
%TO.P,J2,9*%
X123522680Y-112066340D03*
%TO.P,J2,8*%
%TO.N,P0.31*%
X124792680Y-112066340D03*
%TO.P,J2,7*%
%TO.N,P0.30*%
X126062680Y-112066340D03*
%TO.P,J2,6*%
%TO.N,P0.29*%
X127332680Y-112066340D03*
%TO.P,J2,5*%
%TO.N,P0.28*%
X128602680Y-112066340D03*
%TO.P,J2,4*%
%TO.N,P0.27*%
X129872680Y-112066340D03*
%TO.P,J2,3*%
%TO.N,P0.26*%
X131142680Y-112066340D03*
%TO.P,J2,2*%
%TO.N,P0.25*%
X132412680Y-112066340D03*
%TO.P,J2,1*%
%TO.N,+3V3*%
X133682680Y-112066340D03*
%TD*%
D13*
%TO.P,AE1,1*%
%TO.N,Net-(AE1-Pad1)*%
X138312680Y-125216340D03*
D14*
%TO.P,AE1,2*%
%TO.N,GND*%
X138312680Y-127316340D03*
%TD*%
%TO.P,C13,2*%
%TO.N,Net-(AE1-Pad1)*%
%TA.AperFunction,SMDPad,CuDef*%
G36*
G01*
X135305180Y-121956340D02*
X134960180Y-121956340D01*
G75*
G02*
X134812680Y-121808840I0J147500D01*
G01*
X134812680Y-121513840D01*
G75*
G02*
X134960180Y-121366340I147500J0D01*
G01*
X135305180Y-121366340D01*
G75*
G02*
X135452680Y-121513840I0J-147500D01*
G01*
X135452680Y-121808840D01*
G75*
G02*
X135305180Y-121956340I-147500J0D01*
G01*
G37*
%TD.AperFunction*%
%TO.P,C13,1*%
%TO.N,GND*%
%TA.AperFunction,SMDPad,CuDef*%
G36*
G01*
X135305180Y-122926340D02*
X134960180Y-122926340D01*
G75*
G02*
X134812680Y-122778840I0J147500D01*
G01*
X134812680Y-122483840D01*
G75*
G02*
X134960180Y-122336340I147500J0D01*
G01*
X135305180Y-122336340D01*
G75*
G02*
X135452680Y-122483840I0J-147500D01*
G01*
X135452680Y-122778840D01*
G75*
G02*
X135305180Y-122926340I-147500J0D01*
G01*
G37*
%TD.AperFunction*%
%TD*%
D15*
%TO.P,X2,2*%
%TO.N,Net-(C12-Pad1)*%
X119772680Y-120106340D03*
%TO.P,X2,1*%
%TO.N,Net-(C11-Pad1)*%
X119772680Y-117606340D03*
%TD*%
D16*
%TO.P,X1,4*%
%TO.N,GND*%
X132844740Y-115398400D03*
%TO.P,X1,3*%
%TO.N,Net-(C1-Pad2)*%
X134244740Y-115398400D03*
%TO.P,X1,2*%
%TO.N,GND*%
X134244740Y-116498400D03*
%TO.P,X1,1*%
%TO.N,Net-(C2-Pad2)*%
X132844740Y-116498400D03*
%TD*%
D17*
%TO.P,U1,49*%
%TO.N,GND*%
X126352680Y-121506340D03*
%TO.P,U1,48*%
%TO.N,+3V3*%
%TA.AperFunction,SMDPad,CuDef*%
G36*
G01*
X124052680Y-118906340D02*
X124052680Y-118206340D01*
G75*
G02*
X124102680Y-118156340I50000J0D01*
G01*
X124202680Y-118156340D01*
G75*
G02*
X124252680Y-118206340I0J-50000D01*
G01*
X124252680Y-118906340D01*
G75*
G02*
X124202680Y-118956340I-50000J0D01*
G01*
X124102680Y-118956340D01*
G75*
G02*
X124052680Y-118906340I0J50000D01*
G01*
G37*
%TD.AperFunction*%
%TO.P,U1,47*%
%TO.N,Net-(L2-Pad2)*%
%TA.AperFunction,SMDPad,CuDef*%
G36*
G01*
X124452680Y-118906340D02*
X124452680Y-118206340D01*
G75*
G02*
X124502680Y-118156340I50000J0D01*
G01*
X124602680Y-118156340D01*
G75*
G02*
X124652680Y-118206340I0J-50000D01*
G01*
X124652680Y-118906340D01*
G75*
G02*
X124602680Y-118956340I-50000J0D01*
G01*
X124502680Y-118956340D01*
G75*
G02*
X124452680Y-118906340I0J50000D01*
G01*
G37*
%TD.AperFunction*%
%TO.P,U1,46*%
%TO.N,Net-(C10-Pad1)*%
%TA.AperFunction,SMDPad,CuDef*%
G36*
G01*
X124852680Y-118906340D02*
X124852680Y-118206340D01*
G75*
G02*
X124902680Y-118156340I50000J0D01*
G01*
X125002680Y-118156340D01*
G75*
G02*
X125052680Y-118206340I0J-50000D01*
G01*
X125052680Y-118906340D01*
G75*
G02*
X125002680Y-118956340I-50000J0D01*
G01*
X124902680Y-118956340D01*
G75*
G02*
X124852680Y-118906340I0J50000D01*
G01*
G37*
%TD.AperFunction*%
%TO.P,U1,45*%
%TO.N,GND*%
%TA.AperFunction,SMDPad,CuDef*%
G36*
G01*
X125252680Y-118906340D02*
X125252680Y-118206340D01*
G75*
G02*
X125302680Y-118156340I50000J0D01*
G01*
X125402680Y-118156340D01*
G75*
G02*
X125452680Y-118206340I0J-50000D01*
G01*
X125452680Y-118906340D01*
G75*
G02*
X125402680Y-118956340I-50000J0D01*
G01*
X125302680Y-118956340D01*
G75*
G02*
X125252680Y-118906340I0J50000D01*
G01*
G37*
%TD.AperFunction*%
%TO.P,U1,44*%
%TO.N,N/C*%
%TA.AperFunction,SMDPad,CuDef*%
G36*
G01*
X125652680Y-118906340D02*
X125652680Y-118206340D01*
G75*
G02*
X125702680Y-118156340I50000J0D01*
G01*
X125802680Y-118156340D01*
G75*
G02*
X125852680Y-118206340I0J-50000D01*
G01*
X125852680Y-118906340D01*
G75*
G02*
X125802680Y-118956340I-50000J0D01*
G01*
X125702680Y-118956340D01*
G75*
G02*
X125652680Y-118906340I0J50000D01*
G01*
G37*
%TD.AperFunction*%
%TO.P,U1,43*%
%TO.N,P0.31*%
%TA.AperFunction,SMDPad,CuDef*%
G36*
G01*
X126052680Y-118906340D02*
X126052680Y-118206340D01*
G75*
G02*
X126102680Y-118156340I50000J0D01*
G01*
X126202680Y-118156340D01*
G75*
G02*
X126252680Y-118206340I0J-50000D01*
G01*
X126252680Y-118906340D01*
G75*
G02*
X126202680Y-118956340I-50000J0D01*
G01*
X126102680Y-118956340D01*
G75*
G02*
X126052680Y-118906340I0J50000D01*
G01*
G37*
%TD.AperFunction*%
%TO.P,U1,42*%
%TO.N,P0.30*%
%TA.AperFunction,SMDPad,CuDef*%
G36*
G01*
X126452680Y-118906340D02*
X126452680Y-118206340D01*
G75*
G02*
X126502680Y-118156340I50000J0D01*
G01*
X126602680Y-118156340D01*
G75*
G02*
X126652680Y-118206340I0J-50000D01*
G01*
X126652680Y-118906340D01*
G75*
G02*
X126602680Y-118956340I-50000J0D01*
G01*
X126502680Y-118956340D01*
G75*
G02*
X126452680Y-118906340I0J50000D01*
G01*
G37*
%TD.AperFunction*%
%TO.P,U1,41*%
%TO.N,P0.29*%
%TA.AperFunction,SMDPad,CuDef*%
G36*
G01*
X126852680Y-118906340D02*
X126852680Y-118206340D01*
G75*
G02*
X126902680Y-118156340I50000J0D01*
G01*
X127002680Y-118156340D01*
G75*
G02*
X127052680Y-118206340I0J-50000D01*
G01*
X127052680Y-118906340D01*
G75*
G02*
X127002680Y-118956340I-50000J0D01*
G01*
X126902680Y-118956340D01*
G75*
G02*
X126852680Y-118906340I0J50000D01*
G01*
G37*
%TD.AperFunction*%
%TO.P,U1,40*%
%TO.N,P0.28*%
%TA.AperFunction,SMDPad,CuDef*%
G36*
G01*
X127252680Y-118906340D02*
X127252680Y-118206340D01*
G75*
G02*
X127302680Y-118156340I50000J0D01*
G01*
X127402680Y-118156340D01*
G75*
G02*
X127452680Y-118206340I0J-50000D01*
G01*
X127452680Y-118906340D01*
G75*
G02*
X127402680Y-118956340I-50000J0D01*
G01*
X127302680Y-118956340D01*
G75*
G02*
X127252680Y-118906340I0J50000D01*
G01*
G37*
%TD.AperFunction*%
%TO.P,U1,39*%
%TO.N,P0.27*%
%TA.AperFunction,SMDPad,CuDef*%
G36*
G01*
X127652680Y-118906340D02*
X127652680Y-118206340D01*
G75*
G02*
X127702680Y-118156340I50000J0D01*
G01*
X127802680Y-118156340D01*
G75*
G02*
X127852680Y-118206340I0J-50000D01*
G01*
X127852680Y-118906340D01*
G75*
G02*
X127802680Y-118956340I-50000J0D01*
G01*
X127702680Y-118956340D01*
G75*
G02*
X127652680Y-118906340I0J50000D01*
G01*
G37*
%TD.AperFunction*%
%TO.P,U1,38*%
%TO.N,P0.26*%
%TA.AperFunction,SMDPad,CuDef*%
G36*
G01*
X128052680Y-118906340D02*
X128052680Y-118206340D01*
G75*
G02*
X128102680Y-118156340I50000J0D01*
G01*
X128202680Y-118156340D01*
G75*
G02*
X128252680Y-118206340I0J-50000D01*
G01*
X128252680Y-118906340D01*
G75*
G02*
X128202680Y-118956340I-50000J0D01*
G01*
X128102680Y-118956340D01*
G75*
G02*
X128052680Y-118906340I0J50000D01*
G01*
G37*
%TD.AperFunction*%
%TO.P,U1,37*%
%TO.N,P0.25*%
%TA.AperFunction,SMDPad,CuDef*%
G36*
G01*
X128452680Y-118906340D02*
X128452680Y-118206340D01*
G75*
G02*
X128502680Y-118156340I50000J0D01*
G01*
X128602680Y-118156340D01*
G75*
G02*
X128652680Y-118206340I0J-50000D01*
G01*
X128652680Y-118906340D01*
G75*
G02*
X128602680Y-118956340I-50000J0D01*
G01*
X128502680Y-118956340D01*
G75*
G02*
X128452680Y-118906340I0J50000D01*
G01*
G37*
%TD.AperFunction*%
%TO.P,U1,36*%
%TO.N,+3V3*%
%TA.AperFunction,SMDPad,CuDef*%
G36*
G01*
X128902680Y-119356340D02*
X128902680Y-119256340D01*
G75*
G02*
X128952680Y-119206340I50000J0D01*
G01*
X129652680Y-119206340D01*
G75*
G02*
X129702680Y-119256340I0J-50000D01*
G01*
X129702680Y-119356340D01*
G75*
G02*
X129652680Y-119406340I-50000J0D01*
G01*
X128952680Y-119406340D01*
G75*
G02*
X128902680Y-119356340I0J50000D01*
G01*
G37*
%TD.AperFunction*%
%TO.P,U1,35*%
%TO.N,Net-(C2-Pad2)*%
%TA.AperFunction,SMDPad,CuDef*%
G36*
G01*
X128902680Y-119756340D02*
X128902680Y-119656340D01*
G75*
G02*
X128952680Y-119606340I50000J0D01*
G01*
X129652680Y-119606340D01*
G75*
G02*
X129702680Y-119656340I0J-50000D01*
G01*
X129702680Y-119756340D01*
G75*
G02*
X129652680Y-119806340I-50000J0D01*
G01*
X128952680Y-119806340D01*
G75*
G02*
X128902680Y-119756340I0J50000D01*
G01*
G37*
%TD.AperFunction*%
%TO.P,U1,34*%
%TO.N,Net-(C1-Pad2)*%
%TA.AperFunction,SMDPad,CuDef*%
G36*
G01*
X128902680Y-120156340D02*
X128902680Y-120056340D01*
G75*
G02*
X128952680Y-120006340I50000J0D01*
G01*
X129652680Y-120006340D01*
G75*
G02*
X129702680Y-120056340I0J-50000D01*
G01*
X129702680Y-120156340D01*
G75*
G02*
X129652680Y-120206340I-50000J0D01*
G01*
X128952680Y-120206340D01*
G75*
G02*
X128902680Y-120156340I0J50000D01*
G01*
G37*
%TD.AperFunction*%
%TO.P,U1,33*%
%TO.N,Net-(C7-Pad2)*%
%TA.AperFunction,SMDPad,CuDef*%
G36*
G01*
X128902680Y-120556340D02*
X128902680Y-120456340D01*
G75*
G02*
X128952680Y-120406340I50000J0D01*
G01*
X129652680Y-120406340D01*
G75*
G02*
X129702680Y-120456340I0J-50000D01*
G01*
X129702680Y-120556340D01*
G75*
G02*
X129652680Y-120606340I-50000J0D01*
G01*
X128952680Y-120606340D01*
G75*
G02*
X128902680Y-120556340I0J50000D01*
G01*
G37*
%TD.AperFunction*%
%TO.P,U1,32*%
%TO.N,Net-(C6-Pad2)*%
%TA.AperFunction,SMDPad,CuDef*%
G36*
G01*
X128902680Y-120956340D02*
X128902680Y-120856340D01*
G75*
G02*
X128952680Y-120806340I50000J0D01*
G01*
X129652680Y-120806340D01*
G75*
G02*
X129702680Y-120856340I0J-50000D01*
G01*
X129702680Y-120956340D01*
G75*
G02*
X129652680Y-121006340I-50000J0D01*
G01*
X128952680Y-121006340D01*
G75*
G02*
X128902680Y-120956340I0J50000D01*
G01*
G37*
%TD.AperFunction*%
%TO.P,U1,31*%
%TO.N,GND*%
%TA.AperFunction,SMDPad,CuDef*%
G36*
G01*
X128902680Y-121356340D02*
X128902680Y-121256340D01*
G75*
G02*
X128952680Y-121206340I50000J0D01*
G01*
X129652680Y-121206340D01*
G75*
G02*
X129702680Y-121256340I0J-50000D01*
G01*
X129702680Y-121356340D01*
G75*
G02*
X129652680Y-121406340I-50000J0D01*
G01*
X128952680Y-121406340D01*
G75*
G02*
X128902680Y-121356340I0J50000D01*
G01*
G37*
%TD.AperFunction*%
%TO.P,U1,30*%
%TO.N,Net-(C3-Pad2)*%
%TA.AperFunction,SMDPad,CuDef*%
G36*
G01*
X128902680Y-121756340D02*
X128902680Y-121656340D01*
G75*
G02*
X128952680Y-121606340I50000J0D01*
G01*
X129652680Y-121606340D01*
G75*
G02*
X129702680Y-121656340I0J-50000D01*
G01*
X129702680Y-121756340D01*
G75*
G02*
X129652680Y-121806340I-50000J0D01*
G01*
X128952680Y-121806340D01*
G75*
G02*
X128902680Y-121756340I0J50000D01*
G01*
G37*
%TD.AperFunction*%
%TO.P,U1,29*%
%TO.N,P0.24*%
%TA.AperFunction,SMDPad,CuDef*%
G36*
G01*
X128902680Y-122156340D02*
X128902680Y-122056340D01*
G75*
G02*
X128952680Y-122006340I50000J0D01*
G01*
X129652680Y-122006340D01*
G75*
G02*
X129702680Y-122056340I0J-50000D01*
G01*
X129702680Y-122156340D01*
G75*
G02*
X129652680Y-122206340I-50000J0D01*
G01*
X128952680Y-122206340D01*
G75*
G02*
X128902680Y-122156340I0J50000D01*
G01*
G37*
%TD.AperFunction*%
%TO.P,U1,28*%
%TO.N,P0.23*%
%TA.AperFunction,SMDPad,CuDef*%
G36*
G01*
X128902680Y-122556340D02*
X128902680Y-122456340D01*
G75*
G02*
X128952680Y-122406340I50000J0D01*
G01*
X129652680Y-122406340D01*
G75*
G02*
X129702680Y-122456340I0J-50000D01*
G01*
X129702680Y-122556340D01*
G75*
G02*
X129652680Y-122606340I-50000J0D01*
G01*
X128952680Y-122606340D01*
G75*
G02*
X128902680Y-122556340I0J50000D01*
G01*
G37*
%TD.AperFunction*%
%TO.P,U1,27*%
%TO.N,P0.22*%
%TA.AperFunction,SMDPad,CuDef*%
G36*
G01*
X128902680Y-122956340D02*
X128902680Y-122856340D01*
G75*
G02*
X128952680Y-122806340I50000J0D01*
G01*
X129652680Y-122806340D01*
G75*
G02*
X129702680Y-122856340I0J-50000D01*
G01*
X129702680Y-122956340D01*
G75*
G02*
X129652680Y-123006340I-50000J0D01*
G01*
X128952680Y-123006340D01*
G75*
G02*
X128902680Y-122956340I0J50000D01*
G01*
G37*
%TD.AperFunction*%
%TO.P,U1,26*%
%TO.N,SWDIO*%
%TA.AperFunction,SMDPad,CuDef*%
G36*
G01*
X128902680Y-123356340D02*
X128902680Y-123256340D01*
G75*
G02*
X128952680Y-123206340I50000J0D01*
G01*
X129652680Y-123206340D01*
G75*
G02*
X129702680Y-123256340I0J-50000D01*
G01*
X129702680Y-123356340D01*
G75*
G02*
X129652680Y-123406340I-50000J0D01*
G01*
X128952680Y-123406340D01*
G75*
G02*
X128902680Y-123356340I0J50000D01*
G01*
G37*
%TD.AperFunction*%
%TO.P,U1,25*%
%TO.N,SWDCLK*%
%TA.AperFunction,SMDPad,CuDef*%
G36*
G01*
X128902680Y-123756340D02*
X128902680Y-123656340D01*
G75*
G02*
X128952680Y-123606340I50000J0D01*
G01*
X129652680Y-123606340D01*
G75*
G02*
X129702680Y-123656340I0J-50000D01*
G01*
X129702680Y-123756340D01*
G75*
G02*
X129652680Y-123806340I-50000J0D01*
G01*
X128952680Y-123806340D01*
G75*
G02*
X128902680Y-123756340I0J50000D01*
G01*
G37*
%TD.AperFunction*%
%TO.P,U1,24*%
%TO.N,P0.21*%
%TA.AperFunction,SMDPad,CuDef*%
G36*
G01*
X128452680Y-124806340D02*
X128452680Y-124106340D01*
G75*
G02*
X128502680Y-124056340I50000J0D01*
G01*
X128602680Y-124056340D01*
G75*
G02*
X128652680Y-124106340I0J-50000D01*
G01*
X128652680Y-124806340D01*
G75*
G02*
X128602680Y-124856340I-50000J0D01*
G01*
X128502680Y-124856340D01*
G75*
G02*
X128452680Y-124806340I0J50000D01*
G01*
G37*
%TD.AperFunction*%
%TO.P,U1,23*%
%TO.N,P0.20*%
%TA.AperFunction,SMDPad,CuDef*%
G36*
G01*
X128052680Y-124806340D02*
X128052680Y-124106340D01*
G75*
G02*
X128102680Y-124056340I50000J0D01*
G01*
X128202680Y-124056340D01*
G75*
G02*
X128252680Y-124106340I0J-50000D01*
G01*
X128252680Y-124806340D01*
G75*
G02*
X128202680Y-124856340I-50000J0D01*
G01*
X128102680Y-124856340D01*
G75*
G02*
X128052680Y-124806340I0J50000D01*
G01*
G37*
%TD.AperFunction*%
%TO.P,U1,22*%
%TO.N,P0.19*%
%TA.AperFunction,SMDPad,CuDef*%
G36*
G01*
X127652680Y-124806340D02*
X127652680Y-124106340D01*
G75*
G02*
X127702680Y-124056340I50000J0D01*
G01*
X127802680Y-124056340D01*
G75*
G02*
X127852680Y-124106340I0J-50000D01*
G01*
X127852680Y-124806340D01*
G75*
G02*
X127802680Y-124856340I-50000J0D01*
G01*
X127702680Y-124856340D01*
G75*
G02*
X127652680Y-124806340I0J50000D01*
G01*
G37*
%TD.AperFunction*%
%TO.P,U1,21*%
%TO.N,P0.18*%
%TA.AperFunction,SMDPad,CuDef*%
G36*
G01*
X127252680Y-124806340D02*
X127252680Y-124106340D01*
G75*
G02*
X127302680Y-124056340I50000J0D01*
G01*
X127402680Y-124056340D01*
G75*
G02*
X127452680Y-124106340I0J-50000D01*
G01*
X127452680Y-124806340D01*
G75*
G02*
X127402680Y-124856340I-50000J0D01*
G01*
X127302680Y-124856340D01*
G75*
G02*
X127252680Y-124806340I0J50000D01*
G01*
G37*
%TD.AperFunction*%
%TO.P,U1,20*%
%TO.N,P0.17*%
%TA.AperFunction,SMDPad,CuDef*%
G36*
G01*
X126852680Y-124806340D02*
X126852680Y-124106340D01*
G75*
G02*
X126902680Y-124056340I50000J0D01*
G01*
X127002680Y-124056340D01*
G75*
G02*
X127052680Y-124106340I0J-50000D01*
G01*
X127052680Y-124806340D01*
G75*
G02*
X127002680Y-124856340I-50000J0D01*
G01*
X126902680Y-124856340D01*
G75*
G02*
X126852680Y-124806340I0J50000D01*
G01*
G37*
%TD.AperFunction*%
%TO.P,U1,19*%
%TO.N,P0.16*%
%TA.AperFunction,SMDPad,CuDef*%
G36*
G01*
X126452680Y-124806340D02*
X126452680Y-124106340D01*
G75*
G02*
X126502680Y-124056340I50000J0D01*
G01*
X126602680Y-124056340D01*
G75*
G02*
X126652680Y-124106340I0J-50000D01*
G01*
X126652680Y-124806340D01*
G75*
G02*
X126602680Y-124856340I-50000J0D01*
G01*
X126502680Y-124856340D01*
G75*
G02*
X126452680Y-124806340I0J50000D01*
G01*
G37*
%TD.AperFunction*%
%TO.P,U1,18*%
%TO.N,P0.15*%
%TA.AperFunction,SMDPad,CuDef*%
G36*
G01*
X126052680Y-124806340D02*
X126052680Y-124106340D01*
G75*
G02*
X126102680Y-124056340I50000J0D01*
G01*
X126202680Y-124056340D01*
G75*
G02*
X126252680Y-124106340I0J-50000D01*
G01*
X126252680Y-124806340D01*
G75*
G02*
X126202680Y-124856340I-50000J0D01*
G01*
X126102680Y-124856340D01*
G75*
G02*
X126052680Y-124806340I0J50000D01*
G01*
G37*
%TD.AperFunction*%
%TO.P,U1,17*%
%TO.N,P0.14*%
%TA.AperFunction,SMDPad,CuDef*%
G36*
G01*
X125652680Y-124806340D02*
X125652680Y-124106340D01*
G75*
G02*
X125702680Y-124056340I50000J0D01*
G01*
X125802680Y-124056340D01*
G75*
G02*
X125852680Y-124106340I0J-50000D01*
G01*
X125852680Y-124806340D01*
G75*
G02*
X125802680Y-124856340I-50000J0D01*
G01*
X125702680Y-124856340D01*
G75*
G02*
X125652680Y-124806340I0J50000D01*
G01*
G37*
%TD.AperFunction*%
%TO.P,U1,16*%
%TO.N,P0.13*%
%TA.AperFunction,SMDPad,CuDef*%
G36*
G01*
X125252680Y-124806340D02*
X125252680Y-124106340D01*
G75*
G02*
X125302680Y-124056340I50000J0D01*
G01*
X125402680Y-124056340D01*
G75*
G02*
X125452680Y-124106340I0J-50000D01*
G01*
X125452680Y-124806340D01*
G75*
G02*
X125402680Y-124856340I-50000J0D01*
G01*
X125302680Y-124856340D01*
G75*
G02*
X125252680Y-124806340I0J50000D01*
G01*
G37*
%TD.AperFunction*%
%TO.P,U1,15*%
%TO.N,P0.12*%
%TA.AperFunction,SMDPad,CuDef*%
G36*
G01*
X124852680Y-124806340D02*
X124852680Y-124106340D01*
G75*
G02*
X124902680Y-124056340I50000J0D01*
G01*
X125002680Y-124056340D01*
G75*
G02*
X125052680Y-124106340I0J-50000D01*
G01*
X125052680Y-124806340D01*
G75*
G02*
X125002680Y-124856340I-50000J0D01*
G01*
X124902680Y-124856340D01*
G75*
G02*
X124852680Y-124806340I0J50000D01*
G01*
G37*
%TD.AperFunction*%
%TO.P,U1,14*%
%TO.N,P0.11*%
%TA.AperFunction,SMDPad,CuDef*%
G36*
G01*
X124452680Y-124806340D02*
X124452680Y-124106340D01*
G75*
G02*
X124502680Y-124056340I50000J0D01*
G01*
X124602680Y-124056340D01*
G75*
G02*
X124652680Y-124106340I0J-50000D01*
G01*
X124652680Y-124806340D01*
G75*
G02*
X124602680Y-124856340I-50000J0D01*
G01*
X124502680Y-124856340D01*
G75*
G02*
X124452680Y-124806340I0J50000D01*
G01*
G37*
%TD.AperFunction*%
%TO.P,U1,13*%
%TO.N,+3V3*%
%TA.AperFunction,SMDPad,CuDef*%
G36*
G01*
X124052680Y-124806340D02*
X124052680Y-124106340D01*
G75*
G02*
X124102680Y-124056340I50000J0D01*
G01*
X124202680Y-124056340D01*
G75*
G02*
X124252680Y-124106340I0J-50000D01*
G01*
X124252680Y-124806340D01*
G75*
G02*
X124202680Y-124856340I-50000J0D01*
G01*
X124102680Y-124856340D01*
G75*
G02*
X124052680Y-124806340I0J50000D01*
G01*
G37*
%TD.AperFunction*%
%TO.P,U1,12*%
%TO.N,P0.10*%
%TA.AperFunction,SMDPad,CuDef*%
G36*
G01*
X123002680Y-123756340D02*
X123002680Y-123656340D01*
G75*
G02*
X123052680Y-123606340I50000J0D01*
G01*
X123752680Y-123606340D01*
G75*
G02*
X123802680Y-123656340I0J-50000D01*
G01*
X123802680Y-123756340D01*
G75*
G02*
X123752680Y-123806340I-50000J0D01*
G01*
X123052680Y-123806340D01*
G75*
G02*
X123002680Y-123756340I0J50000D01*
G01*
G37*
%TD.AperFunction*%
%TO.P,U1,11*%
%TO.N,P0.9*%
%TA.AperFunction,SMDPad,CuDef*%
G36*
G01*
X123002680Y-123356340D02*
X123002680Y-123256340D01*
G75*
G02*
X123052680Y-123206340I50000J0D01*
G01*
X123752680Y-123206340D01*
G75*
G02*
X123802680Y-123256340I0J-50000D01*
G01*
X123802680Y-123356340D01*
G75*
G02*
X123752680Y-123406340I-50000J0D01*
G01*
X123052680Y-123406340D01*
G75*
G02*
X123002680Y-123356340I0J50000D01*
G01*
G37*
%TD.AperFunction*%
%TO.P,U1,10*%
%TO.N,P0.8*%
%TA.AperFunction,SMDPad,CuDef*%
G36*
G01*
X123002680Y-122956340D02*
X123002680Y-122856340D01*
G75*
G02*
X123052680Y-122806340I50000J0D01*
G01*
X123752680Y-122806340D01*
G75*
G02*
X123802680Y-122856340I0J-50000D01*
G01*
X123802680Y-122956340D01*
G75*
G02*
X123752680Y-123006340I-50000J0D01*
G01*
X123052680Y-123006340D01*
G75*
G02*
X123002680Y-122956340I0J50000D01*
G01*
G37*
%TD.AperFunction*%
%TO.P,U1,9*%
%TO.N,P0.7*%
%TA.AperFunction,SMDPad,CuDef*%
G36*
G01*
X123002680Y-122556340D02*
X123002680Y-122456340D01*
G75*
G02*
X123052680Y-122406340I50000J0D01*
G01*
X123752680Y-122406340D01*
G75*
G02*
X123802680Y-122456340I0J-50000D01*
G01*
X123802680Y-122556340D01*
G75*
G02*
X123752680Y-122606340I-50000J0D01*
G01*
X123052680Y-122606340D01*
G75*
G02*
X123002680Y-122556340I0J50000D01*
G01*
G37*
%TD.AperFunction*%
%TO.P,U1,8*%
%TO.N,P0.6*%
%TA.AperFunction,SMDPad,CuDef*%
G36*
G01*
X123002680Y-122156340D02*
X123002680Y-122056340D01*
G75*
G02*
X123052680Y-122006340I50000J0D01*
G01*
X123752680Y-122006340D01*
G75*
G02*
X123802680Y-122056340I0J-50000D01*
G01*
X123802680Y-122156340D01*
G75*
G02*
X123752680Y-122206340I-50000J0D01*
G01*
X123052680Y-122206340D01*
G75*
G02*
X123002680Y-122156340I0J50000D01*
G01*
G37*
%TD.AperFunction*%
%TO.P,U1,7*%
%TO.N,P0.5*%
%TA.AperFunction,SMDPad,CuDef*%
G36*
G01*
X123002680Y-121756340D02*
X123002680Y-121656340D01*
G75*
G02*
X123052680Y-121606340I50000J0D01*
G01*
X123752680Y-121606340D01*
G75*
G02*
X123802680Y-121656340I0J-50000D01*
G01*
X123802680Y-121756340D01*
G75*
G02*
X123752680Y-121806340I-50000J0D01*
G01*
X123052680Y-121806340D01*
G75*
G02*
X123002680Y-121756340I0J50000D01*
G01*
G37*
%TD.AperFunction*%
%TO.P,U1,6*%
%TO.N,P0.4*%
%TA.AperFunction,SMDPad,CuDef*%
G36*
G01*
X123002680Y-121356340D02*
X123002680Y-121256340D01*
G75*
G02*
X123052680Y-121206340I50000J0D01*
G01*
X123752680Y-121206340D01*
G75*
G02*
X123802680Y-121256340I0J-50000D01*
G01*
X123802680Y-121356340D01*
G75*
G02*
X123752680Y-121406340I-50000J0D01*
G01*
X123052680Y-121406340D01*
G75*
G02*
X123002680Y-121356340I0J50000D01*
G01*
G37*
%TD.AperFunction*%
%TO.P,U1,5*%
%TO.N,P0.3*%
%TA.AperFunction,SMDPad,CuDef*%
G36*
G01*
X123002680Y-120956340D02*
X123002680Y-120856340D01*
G75*
G02*
X123052680Y-120806340I50000J0D01*
G01*
X123752680Y-120806340D01*
G75*
G02*
X123802680Y-120856340I0J-50000D01*
G01*
X123802680Y-120956340D01*
G75*
G02*
X123752680Y-121006340I-50000J0D01*
G01*
X123052680Y-121006340D01*
G75*
G02*
X123002680Y-120956340I0J50000D01*
G01*
G37*
%TD.AperFunction*%
%TO.P,U1,4*%
%TO.N,P0.2*%
%TA.AperFunction,SMDPad,CuDef*%
G36*
G01*
X123002680Y-120556340D02*
X123002680Y-120456340D01*
G75*
G02*
X123052680Y-120406340I50000J0D01*
G01*
X123752680Y-120406340D01*
G75*
G02*
X123802680Y-120456340I0J-50000D01*
G01*
X123802680Y-120556340D01*
G75*
G02*
X123752680Y-120606340I-50000J0D01*
G01*
X123052680Y-120606340D01*
G75*
G02*
X123002680Y-120556340I0J50000D01*
G01*
G37*
%TD.AperFunction*%
%TO.P,U1,3*%
%TO.N,Net-(C12-Pad1)*%
%TA.AperFunction,SMDPad,CuDef*%
G36*
G01*
X123002680Y-120156340D02*
X123002680Y-120056340D01*
G75*
G02*
X123052680Y-120006340I50000J0D01*
G01*
X123752680Y-120006340D01*
G75*
G02*
X123802680Y-120056340I0J-50000D01*
G01*
X123802680Y-120156340D01*
G75*
G02*
X123752680Y-120206340I-50000J0D01*
G01*
X123052680Y-120206340D01*
G75*
G02*
X123002680Y-120156340I0J50000D01*
G01*
G37*
%TD.AperFunction*%
%TO.P,U1,2*%
%TO.N,Net-(C11-Pad1)*%
%TA.AperFunction,SMDPad,CuDef*%
G36*
G01*
X123002680Y-119756340D02*
X123002680Y-119656340D01*
G75*
G02*
X123052680Y-119606340I50000J0D01*
G01*
X123752680Y-119606340D01*
G75*
G02*
X123802680Y-119656340I0J-50000D01*
G01*
X123802680Y-119756340D01*
G75*
G02*
X123752680Y-119806340I-50000J0D01*
G01*
X123052680Y-119806340D01*
G75*
G02*
X123002680Y-119756340I0J50000D01*
G01*
G37*
%TD.AperFunction*%
%TO.P,U1,1*%
%TO.N,Net-(C4-Pad1)*%
%TA.AperFunction,SMDPad,CuDef*%
G36*
G01*
X123002680Y-119356340D02*
X123002680Y-119256340D01*
G75*
G02*
X123052680Y-119206340I50000J0D01*
G01*
X123752680Y-119206340D01*
G75*
G02*
X123802680Y-119256340I0J-50000D01*
G01*
X123802680Y-119356340D01*
G75*
G02*
X123752680Y-119406340I-50000J0D01*
G01*
X123052680Y-119406340D01*
G75*
G02*
X123002680Y-119356340I0J50000D01*
G01*
G37*
%TD.AperFunction*%
%TD*%
%TO.P,L3,2*%
%TO.N,Net-(L2-Pad1)*%
%TA.AperFunction,SMDPad,CuDef*%
G36*
G01*
X124575180Y-114236340D02*
X124230180Y-114236340D01*
G75*
G02*
X124082680Y-114088840I0J147500D01*
G01*
X124082680Y-113793840D01*
G75*
G02*
X124230180Y-113646340I147500J0D01*
G01*
X124575180Y-113646340D01*
G75*
G02*
X124722680Y-113793840I0J-147500D01*
G01*
X124722680Y-114088840D01*
G75*
G02*
X124575180Y-114236340I-147500J0D01*
G01*
G37*
%TD.AperFunction*%
%TO.P,L3,1*%
%TO.N,Net-(C10-Pad1)*%
%TA.AperFunction,SMDPad,CuDef*%
G36*
G01*
X124575180Y-115206340D02*
X124230180Y-115206340D01*
G75*
G02*
X124082680Y-115058840I0J147500D01*
G01*
X124082680Y-114763840D01*
G75*
G02*
X124230180Y-114616340I147500J0D01*
G01*
X124575180Y-114616340D01*
G75*
G02*
X124722680Y-114763840I0J-147500D01*
G01*
X124722680Y-115058840D01*
G75*
G02*
X124575180Y-115206340I-147500J0D01*
G01*
G37*
%TD.AperFunction*%
%TD*%
%TO.P,L2,2*%
%TO.N,Net-(L2-Pad2)*%
%TA.AperFunction,SMDPad,CuDef*%
G36*
G01*
X125415180Y-115486340D02*
X125890180Y-115486340D01*
G75*
G02*
X126127680Y-115723840I0J-237500D01*
G01*
X126127680Y-116298840D01*
G75*
G02*
X125890180Y-116536340I-237500J0D01*
G01*
X125415180Y-116536340D01*
G75*
G02*
X125177680Y-116298840I0J237500D01*
G01*
X125177680Y-115723840D01*
G75*
G02*
X125415180Y-115486340I237500J0D01*
G01*
G37*
%TD.AperFunction*%
%TO.P,L2,1*%
%TO.N,Net-(L2-Pad1)*%
%TA.AperFunction,SMDPad,CuDef*%
G36*
G01*
X125415180Y-113736340D02*
X125890180Y-113736340D01*
G75*
G02*
X126127680Y-113973840I0J-237500D01*
G01*
X126127680Y-114548840D01*
G75*
G02*
X125890180Y-114786340I-237500J0D01*
G01*
X125415180Y-114786340D01*
G75*
G02*
X125177680Y-114548840I0J237500D01*
G01*
X125177680Y-113973840D01*
G75*
G02*
X125415180Y-113736340I237500J0D01*
G01*
G37*
%TD.AperFunction*%
%TD*%
%TO.P,L1,2*%
%TO.N,Net-(C3-Pad2)*%
%TA.AperFunction,SMDPad,CuDef*%
G36*
G01*
X133472680Y-121513840D02*
X133472680Y-121858840D01*
G75*
G02*
X133325180Y-122006340I-147500J0D01*
G01*
X133030180Y-122006340D01*
G75*
G02*
X132882680Y-121858840I0J147500D01*
G01*
X132882680Y-121513840D01*
G75*
G02*
X133030180Y-121366340I147500J0D01*
G01*
X133325180Y-121366340D01*
G75*
G02*
X133472680Y-121513840I0J-147500D01*
G01*
G37*
%TD.AperFunction*%
%TO.P,L1,1*%
%TO.N,Net-(AE1-Pad1)*%
%TA.AperFunction,SMDPad,CuDef*%
G36*
G01*
X134442680Y-121513840D02*
X134442680Y-121858840D01*
G75*
G02*
X134295180Y-122006340I-147500J0D01*
G01*
X134000180Y-122006340D01*
G75*
G02*
X133852680Y-121858840I0J147500D01*
G01*
X133852680Y-121513840D01*
G75*
G02*
X134000180Y-121366340I147500J0D01*
G01*
X134295180Y-121366340D01*
G75*
G02*
X134442680Y-121513840I0J-147500D01*
G01*
G37*
%TD.AperFunction*%
%TD*%
%TO.P,C12,2*%
%TO.N,GND*%
%TA.AperFunction,SMDPad,CuDef*%
G36*
G01*
X119702680Y-121183840D02*
X119702680Y-121528840D01*
G75*
G02*
X119555180Y-121676340I-147500J0D01*
G01*
X119260180Y-121676340D01*
G75*
G02*
X119112680Y-121528840I0J147500D01*
G01*
X119112680Y-121183840D01*
G75*
G02*
X119260180Y-121036340I147500J0D01*
G01*
X119555180Y-121036340D01*
G75*
G02*
X119702680Y-121183840I0J-147500D01*
G01*
G37*
%TD.AperFunction*%
%TO.P,C12,1*%
%TO.N,Net-(C12-Pad1)*%
%TA.AperFunction,SMDPad,CuDef*%
G36*
G01*
X120672680Y-121183840D02*
X120672680Y-121528840D01*
G75*
G02*
X120525180Y-121676340I-147500J0D01*
G01*
X120230180Y-121676340D01*
G75*
G02*
X120082680Y-121528840I0J147500D01*
G01*
X120082680Y-121183840D01*
G75*
G02*
X120230180Y-121036340I147500J0D01*
G01*
X120525180Y-121036340D01*
G75*
G02*
X120672680Y-121183840I0J-147500D01*
G01*
G37*
%TD.AperFunction*%
%TD*%
%TO.P,C11,2*%
%TO.N,GND*%
%TA.AperFunction,SMDPad,CuDef*%
G36*
G01*
X121300180Y-119006340D02*
X121645180Y-119006340D01*
G75*
G02*
X121792680Y-119153840I0J-147500D01*
G01*
X121792680Y-119448840D01*
G75*
G02*
X121645180Y-119596340I-147500J0D01*
G01*
X121300180Y-119596340D01*
G75*
G02*
X121152680Y-119448840I0J147500D01*
G01*
X121152680Y-119153840D01*
G75*
G02*
X121300180Y-119006340I147500J0D01*
G01*
G37*
%TD.AperFunction*%
%TO.P,C11,1*%
%TO.N,Net-(C11-Pad1)*%
%TA.AperFunction,SMDPad,CuDef*%
G36*
G01*
X121300180Y-118036340D02*
X121645180Y-118036340D01*
G75*
G02*
X121792680Y-118183840I0J-147500D01*
G01*
X121792680Y-118478840D01*
G75*
G02*
X121645180Y-118626340I-147500J0D01*
G01*
X121300180Y-118626340D01*
G75*
G02*
X121152680Y-118478840I0J147500D01*
G01*
X121152680Y-118183840D01*
G75*
G02*
X121300180Y-118036340I147500J0D01*
G01*
G37*
%TD.AperFunction*%
%TD*%
%TO.P,C10,2*%
%TO.N,GND*%
%TA.AperFunction,SMDPad,CuDef*%
G36*
G01*
X122905180Y-115496340D02*
X123380180Y-115496340D01*
G75*
G02*
X123617680Y-115733840I0J-237500D01*
G01*
X123617680Y-116308840D01*
G75*
G02*
X123380180Y-116546340I-237500J0D01*
G01*
X122905180Y-116546340D01*
G75*
G02*
X122667680Y-116308840I0J237500D01*
G01*
X122667680Y-115733840D01*
G75*
G02*
X122905180Y-115496340I237500J0D01*
G01*
G37*
%TD.AperFunction*%
%TO.P,C10,1*%
%TO.N,Net-(C10-Pad1)*%
%TA.AperFunction,SMDPad,CuDef*%
G36*
G01*
X122905180Y-113746340D02*
X123380180Y-113746340D01*
G75*
G02*
X123617680Y-113983840I0J-237500D01*
G01*
X123617680Y-114558840D01*
G75*
G02*
X123380180Y-114796340I-237500J0D01*
G01*
X122905180Y-114796340D01*
G75*
G02*
X122667680Y-114558840I0J237500D01*
G01*
X122667680Y-113983840D01*
G75*
G02*
X122905180Y-113746340I237500J0D01*
G01*
G37*
%TD.AperFunction*%
%TD*%
%TO.P,C9,2*%
%TO.N,GND*%
%TA.AperFunction,SMDPad,CuDef*%
G36*
G01*
X119842680Y-115818840D02*
X119842680Y-116293840D01*
G75*
G02*
X119605180Y-116531340I-237500J0D01*
G01*
X119030180Y-116531340D01*
G75*
G02*
X118792680Y-116293840I0J237500D01*
G01*
X118792680Y-115818840D01*
G75*
G02*
X119030180Y-115581340I237500J0D01*
G01*
X119605180Y-115581340D01*
G75*
G02*
X119842680Y-115818840I0J-237500D01*
G01*
G37*
%TD.AperFunction*%
%TO.P,C9,1*%
%TO.N,+3V3*%
%TA.AperFunction,SMDPad,CuDef*%
G36*
G01*
X121592680Y-115818840D02*
X121592680Y-116293840D01*
G75*
G02*
X121355180Y-116531340I-237500J0D01*
G01*
X120780180Y-116531340D01*
G75*
G02*
X120542680Y-116293840I0J237500D01*
G01*
X120542680Y-115818840D01*
G75*
G02*
X120780180Y-115581340I237500J0D01*
G01*
X121355180Y-115581340D01*
G75*
G02*
X121592680Y-115818840I0J-237500D01*
G01*
G37*
%TD.AperFunction*%
%TD*%
%TO.P,C8,2*%
%TO.N,GND*%
%TA.AperFunction,SMDPad,CuDef*%
G36*
G01*
X130675180Y-115656340D02*
X130330180Y-115656340D01*
G75*
G02*
X130182680Y-115508840I0J147500D01*
G01*
X130182680Y-115213840D01*
G75*
G02*
X130330180Y-115066340I147500J0D01*
G01*
X130675180Y-115066340D01*
G75*
G02*
X130822680Y-115213840I0J-147500D01*
G01*
X130822680Y-115508840D01*
G75*
G02*
X130675180Y-115656340I-147500J0D01*
G01*
G37*
%TD.AperFunction*%
%TO.P,C8,1*%
%TO.N,+3V3*%
%TA.AperFunction,SMDPad,CuDef*%
G36*
G01*
X130675180Y-116626340D02*
X130330180Y-116626340D01*
G75*
G02*
X130182680Y-116478840I0J147500D01*
G01*
X130182680Y-116183840D01*
G75*
G02*
X130330180Y-116036340I147500J0D01*
G01*
X130675180Y-116036340D01*
G75*
G02*
X130822680Y-116183840I0J-147500D01*
G01*
X130822680Y-116478840D01*
G75*
G02*
X130675180Y-116626340I-147500J0D01*
G01*
G37*
%TD.AperFunction*%
%TD*%
%TO.P,C7,2*%
%TO.N,Net-(C7-Pad2)*%
%TA.AperFunction,SMDPad,CuDef*%
G36*
G01*
X132472680Y-119323840D02*
X132472680Y-119668840D01*
G75*
G02*
X132325180Y-119816340I-147500J0D01*
G01*
X132030180Y-119816340D01*
G75*
G02*
X131882680Y-119668840I0J147500D01*
G01*
X131882680Y-119323840D01*
G75*
G02*
X132030180Y-119176340I147500J0D01*
G01*
X132325180Y-119176340D01*
G75*
G02*
X132472680Y-119323840I0J-147500D01*
G01*
G37*
%TD.AperFunction*%
%TO.P,C7,1*%
%TO.N,GND*%
%TA.AperFunction,SMDPad,CuDef*%
G36*
G01*
X133442680Y-119323840D02*
X133442680Y-119668840D01*
G75*
G02*
X133295180Y-119816340I-147500J0D01*
G01*
X133000180Y-119816340D01*
G75*
G02*
X132852680Y-119668840I0J147500D01*
G01*
X132852680Y-119323840D01*
G75*
G02*
X133000180Y-119176340I147500J0D01*
G01*
X133295180Y-119176340D01*
G75*
G02*
X133442680Y-119323840I0J-147500D01*
G01*
G37*
%TD.AperFunction*%
%TD*%
%TO.P,C6,2*%
%TO.N,Net-(C6-Pad2)*%
%TA.AperFunction,SMDPad,CuDef*%
G36*
G01*
X132482680Y-120373840D02*
X132482680Y-120718840D01*
G75*
G02*
X132335180Y-120866340I-147500J0D01*
G01*
X132040180Y-120866340D01*
G75*
G02*
X131892680Y-120718840I0J147500D01*
G01*
X131892680Y-120373840D01*
G75*
G02*
X132040180Y-120226340I147500J0D01*
G01*
X132335180Y-120226340D01*
G75*
G02*
X132482680Y-120373840I0J-147500D01*
G01*
G37*
%TD.AperFunction*%
%TO.P,C6,1*%
%TO.N,GND*%
%TA.AperFunction,SMDPad,CuDef*%
G36*
G01*
X133452680Y-120373840D02*
X133452680Y-120718840D01*
G75*
G02*
X133305180Y-120866340I-147500J0D01*
G01*
X133010180Y-120866340D01*
G75*
G02*
X132862680Y-120718840I0J147500D01*
G01*
X132862680Y-120373840D01*
G75*
G02*
X133010180Y-120226340I147500J0D01*
G01*
X133305180Y-120226340D01*
G75*
G02*
X133452680Y-120373840I0J-147500D01*
G01*
G37*
%TD.AperFunction*%
%TD*%
%TO.P,C5,2*%
%TO.N,GND*%
%TA.AperFunction,SMDPad,CuDef*%
G36*
G01*
X122395180Y-124946340D02*
X122050180Y-124946340D01*
G75*
G02*
X121902680Y-124798840I0J147500D01*
G01*
X121902680Y-124503840D01*
G75*
G02*
X122050180Y-124356340I147500J0D01*
G01*
X122395180Y-124356340D01*
G75*
G02*
X122542680Y-124503840I0J-147500D01*
G01*
X122542680Y-124798840D01*
G75*
G02*
X122395180Y-124946340I-147500J0D01*
G01*
G37*
%TD.AperFunction*%
%TO.P,C5,1*%
%TO.N,+3V3*%
%TA.AperFunction,SMDPad,CuDef*%
G36*
G01*
X122395180Y-125916340D02*
X122050180Y-125916340D01*
G75*
G02*
X121902680Y-125768840I0J147500D01*
G01*
X121902680Y-125473840D01*
G75*
G02*
X122050180Y-125326340I147500J0D01*
G01*
X122395180Y-125326340D01*
G75*
G02*
X122542680Y-125473840I0J-147500D01*
G01*
X122542680Y-125768840D01*
G75*
G02*
X122395180Y-125916340I-147500J0D01*
G01*
G37*
%TD.AperFunction*%
%TD*%
%TO.P,C4,2*%
%TO.N,GND*%
%TA.AperFunction,SMDPad,CuDef*%
G36*
G01*
X121742680Y-117183840D02*
X121742680Y-117528840D01*
G75*
G02*
X121595180Y-117676340I-147500J0D01*
G01*
X121300180Y-117676340D01*
G75*
G02*
X121152680Y-117528840I0J147500D01*
G01*
X121152680Y-117183840D01*
G75*
G02*
X121300180Y-117036340I147500J0D01*
G01*
X121595180Y-117036340D01*
G75*
G02*
X121742680Y-117183840I0J-147500D01*
G01*
G37*
%TD.AperFunction*%
%TO.P,C4,1*%
%TO.N,Net-(C4-Pad1)*%
%TA.AperFunction,SMDPad,CuDef*%
G36*
G01*
X122712680Y-117183840D02*
X122712680Y-117528840D01*
G75*
G02*
X122565180Y-117676340I-147500J0D01*
G01*
X122270180Y-117676340D01*
G75*
G02*
X122122680Y-117528840I0J147500D01*
G01*
X122122680Y-117183840D01*
G75*
G02*
X122270180Y-117036340I147500J0D01*
G01*
X122565180Y-117036340D01*
G75*
G02*
X122712680Y-117183840I0J-147500D01*
G01*
G37*
%TD.AperFunction*%
%TD*%
%TO.P,C3,2*%
%TO.N,Net-(C3-Pad2)*%
%TA.AperFunction,SMDPad,CuDef*%
G36*
G01*
X132365180Y-121956340D02*
X132020180Y-121956340D01*
G75*
G02*
X131872680Y-121808840I0J147500D01*
G01*
X131872680Y-121513840D01*
G75*
G02*
X132020180Y-121366340I147500J0D01*
G01*
X132365180Y-121366340D01*
G75*
G02*
X132512680Y-121513840I0J-147500D01*
G01*
X132512680Y-121808840D01*
G75*
G02*
X132365180Y-121956340I-147500J0D01*
G01*
G37*
%TD.AperFunction*%
%TO.P,C3,1*%
%TO.N,GND*%
%TA.AperFunction,SMDPad,CuDef*%
G36*
G01*
X132365180Y-122926340D02*
X132020180Y-122926340D01*
G75*
G02*
X131872680Y-122778840I0J147500D01*
G01*
X131872680Y-122483840D01*
G75*
G02*
X132020180Y-122336340I147500J0D01*
G01*
X132365180Y-122336340D01*
G75*
G02*
X132512680Y-122483840I0J-147500D01*
G01*
X132512680Y-122778840D01*
G75*
G02*
X132365180Y-122926340I-147500J0D01*
G01*
G37*
%TD.AperFunction*%
%TD*%
%TO.P,C2,2*%
%TO.N,Net-(C2-Pad2)*%
%TA.AperFunction,SMDPad,CuDef*%
G36*
G01*
X131355480Y-116039340D02*
X131700480Y-116039340D01*
G75*
G02*
X131847980Y-116186840I0J-147500D01*
G01*
X131847980Y-116481840D01*
G75*
G02*
X131700480Y-116629340I-147500J0D01*
G01*
X131355480Y-116629340D01*
G75*
G02*
X131207980Y-116481840I0J147500D01*
G01*
X131207980Y-116186840D01*
G75*
G02*
X131355480Y-116039340I147500J0D01*
G01*
G37*
%TD.AperFunction*%
%TO.P,C2,1*%
%TO.N,GND*%
%TA.AperFunction,SMDPad,CuDef*%
G36*
G01*
X131355480Y-115069340D02*
X131700480Y-115069340D01*
G75*
G02*
X131847980Y-115216840I0J-147500D01*
G01*
X131847980Y-115511840D01*
G75*
G02*
X131700480Y-115659340I-147500J0D01*
G01*
X131355480Y-115659340D01*
G75*
G02*
X131207980Y-115511840I0J147500D01*
G01*
X131207980Y-115216840D01*
G75*
G02*
X131355480Y-115069340I147500J0D01*
G01*
G37*
%TD.AperFunction*%
%TD*%
%TO.P,C1,2*%
%TO.N,Net-(C1-Pad2)*%
%TA.AperFunction,SMDPad,CuDef*%
G36*
G01*
X135779720Y-115659340D02*
X135434720Y-115659340D01*
G75*
G02*
X135287220Y-115511840I0J147500D01*
G01*
X135287220Y-115216840D01*
G75*
G02*
X135434720Y-115069340I147500J0D01*
G01*
X135779720Y-115069340D01*
G75*
G02*
X135927220Y-115216840I0J-147500D01*
G01*
X135927220Y-115511840D01*
G75*
G02*
X135779720Y-115659340I-147500J0D01*
G01*
G37*
%TD.AperFunction*%
%TO.P,C1,1*%
%TO.N,GND*%
%TA.AperFunction,SMDPad,CuDef*%
G36*
G01*
X135779720Y-116629340D02*
X135434720Y-116629340D01*
G75*
G02*
X135287220Y-116481840I0J147500D01*
G01*
X135287220Y-116186840D01*
G75*
G02*
X135434720Y-116039340I147500J0D01*
G01*
X135779720Y-116039340D01*
G75*
G02*
X135927220Y-116186840I0J-147500D01*
G01*
X135927220Y-116481840D01*
G75*
G02*
X135779720Y-116629340I-147500J0D01*
G01*
G37*
%TD.AperFunction*%
%TD*%
D18*
%TO.N,GND*%
X125762680Y-123126340D03*
X128122680Y-121989672D03*
X126899346Y-121989672D03*
X125762680Y-121989672D03*
X126899346Y-120853006D03*
X125762680Y-119716340D03*
X126899346Y-119716340D03*
X128122680Y-119716340D03*
X128122680Y-120853006D03*
X128122680Y-123126340D03*
X126899346Y-123126340D03*
X125762680Y-120853006D03*
X124582680Y-123126340D03*
X124582680Y-121989672D03*
X124582680Y-120853006D03*
X124582680Y-119716340D03*
X137412680Y-127196340D03*
X125532680Y-117396340D03*
X121892680Y-114546340D03*
X118952680Y-114656340D03*
X119902680Y-118816340D03*
X119342680Y-122266340D03*
X121222680Y-125576340D03*
X133672680Y-126156340D03*
X136166012Y-127196340D03*
X121112680Y-113946340D03*
X138222680Y-114336340D03*
X138222680Y-115411895D03*
X138222680Y-116487450D03*
X138222680Y-117563005D03*
X138222680Y-118638560D03*
X138222680Y-119714115D03*
X138222680Y-120789670D03*
X138222680Y-121865225D03*
X138222680Y-122940780D03*
X138222680Y-124016340D03*
X134852680Y-124646340D03*
X135652680Y-125476340D03*
X134919346Y-127196340D03*
X133702680Y-123726340D03*
X135252680Y-119716340D03*
X136282680Y-119736340D03*
X137272680Y-119756340D03*
X130372680Y-125096340D03*
X130442680Y-126136340D03*
X129282680Y-126586340D03*
X130552680Y-117666340D03*
X121332680Y-120696340D03*
X117312680Y-125856340D03*
X138422680Y-128526340D03*
X136242680Y-114546340D03*
X135082680Y-113986340D03*
D19*
X115803680Y-112448340D03*
X115803680Y-128831340D03*
D18*
%TO.N,+3V3*%
X123182680Y-118136340D03*
X123282680Y-125616340D03*
X129282680Y-117551340D03*
%TD*%
D20*
%TO.N,Net-(C1-Pad2)*%
X134278800Y-115364340D02*
X134244740Y-115398400D01*
X135607220Y-115364340D02*
X134278800Y-115364340D01*
X136372680Y-116129800D02*
X135607220Y-115364340D01*
X129702680Y-120106340D02*
X131502680Y-118306340D01*
X129302680Y-120106340D02*
X129702680Y-120106340D01*
X131502680Y-118306340D02*
X135482680Y-118306340D01*
X135482680Y-118306340D02*
X136372680Y-117416340D01*
X136372680Y-117416340D02*
X136372680Y-116129800D01*
%TO.N,GND*%
X132981742Y-115398400D02*
X132844740Y-115398400D01*
X134081742Y-116498400D02*
X132981742Y-115398400D01*
X134244740Y-116498400D02*
X134081742Y-116498400D01*
D21*
X131524980Y-115361340D02*
X131527980Y-115364340D01*
X130502680Y-115361340D02*
X131524980Y-115361340D01*
X132810680Y-115364340D02*
X132844740Y-115398400D01*
X131527980Y-115364340D02*
X132810680Y-115364340D01*
X134408800Y-116334340D02*
X134244740Y-116498400D01*
X135607220Y-116334340D02*
X134408800Y-116334340D01*
X133147680Y-120536340D02*
X133157680Y-120546340D01*
X133147680Y-119496340D02*
X133147680Y-120536340D01*
X132192680Y-122631340D02*
X135132680Y-122631340D01*
X126552680Y-121306340D02*
X126352680Y-121506340D01*
X129302680Y-121306340D02*
X126552680Y-121306340D01*
X125352680Y-120506340D02*
X126352680Y-121506340D01*
X125352680Y-118556340D02*
X125352680Y-120506340D01*
X125352680Y-118556340D02*
X125352680Y-117576340D01*
X125352680Y-117576340D02*
X125532680Y-117396340D01*
X123142680Y-116021340D02*
X123142680Y-115796340D01*
X123142680Y-115796340D02*
X121892680Y-114546340D01*
X122782680Y-116021340D02*
X123142680Y-116021340D01*
X121447680Y-117356340D02*
X122782680Y-116021340D01*
X120067690Y-116806350D02*
X119317680Y-116056340D01*
X121217690Y-116806350D02*
X120067690Y-116806350D01*
X121447680Y-117036340D02*
X121217690Y-116806350D01*
X121447680Y-117356340D02*
X121447680Y-117036340D01*
X119317680Y-116056340D02*
X119317680Y-115021340D01*
X119317680Y-115021340D02*
X118952680Y-114656340D01*
X121472680Y-119301340D02*
X120387680Y-119301340D01*
X120387680Y-119301340D02*
X119902680Y-118816340D01*
X119407680Y-121356340D02*
X119407680Y-122201340D01*
X119407680Y-122201340D02*
X119342680Y-122266340D01*
X122222680Y-124651340D02*
X122147680Y-124651340D01*
X122147680Y-124651340D02*
X121222680Y-125576340D01*
X118432680Y-112276350D02*
X118442680Y-112266350D01*
X121112680Y-112396350D02*
X120982680Y-112266350D01*
X121112680Y-113946340D02*
X121112680Y-112396350D01*
X136262680Y-127196340D02*
X136262680Y-129166330D01*
X133672680Y-129156330D02*
X133682680Y-129166330D01*
X137412680Y-127276340D02*
X137412680Y-129166330D01*
X118442680Y-114146340D02*
X118442680Y-112266350D01*
X118952680Y-114656340D02*
X118442680Y-114146340D01*
X133672680Y-126156340D02*
X133672680Y-129156330D01*
X137482680Y-112286350D02*
X137502680Y-112266350D01*
X137062680Y-114956340D02*
X137482680Y-114536340D01*
X137482680Y-114536340D02*
X137482680Y-112286350D01*
X136242680Y-114546340D02*
X136232680Y-112266350D01*
X122252680Y-113436340D02*
X122252680Y-112266350D01*
X121892680Y-114546340D02*
X121892680Y-113796340D01*
X121892680Y-113796340D02*
X122252680Y-113436340D01*
X122252680Y-113436340D02*
X123442680Y-113436340D01*
X123522680Y-113356340D02*
X123522680Y-112266350D01*
X123442680Y-113436340D02*
X123522680Y-113356340D01*
D20*
%TO.N,Net-(C2-Pad2)*%
X131542680Y-116349040D02*
X131527980Y-116334340D01*
X131542680Y-117866340D02*
X131542680Y-116349040D01*
X129302680Y-119706340D02*
X129702680Y-119706340D01*
X129702680Y-119706340D02*
X131542680Y-117866340D01*
D21*
X132680680Y-116334340D02*
X132844740Y-116498400D01*
X131527980Y-116334340D02*
X132680680Y-116334340D01*
%TO.N,Net-(C3-Pad2)*%
X132147680Y-121706340D02*
X132192680Y-121661340D01*
X129302680Y-121706340D02*
X132147680Y-121706340D01*
X133152680Y-121661340D02*
X133177680Y-121686340D01*
X132192680Y-121661340D02*
X133152680Y-121661340D01*
%TO.N,Net-(AE1-Pad1)*%
X135107680Y-121686340D02*
X135132680Y-121661340D01*
X134147680Y-121686340D02*
X135107680Y-121686340D01*
D22*
X137372680Y-125216340D02*
X138312680Y-125216340D01*
X136872680Y-124716340D02*
X137372680Y-125216340D01*
X136872680Y-122696340D02*
X136872680Y-124716340D01*
X135132680Y-121661340D02*
X135837680Y-121661340D01*
X135837680Y-121661340D02*
X136872680Y-122696340D01*
D20*
%TO.N,+3V3*%
X122237680Y-125636340D02*
X122222680Y-125621340D01*
X115662690Y-124036350D02*
X115662690Y-123886340D01*
X133542670Y-112206350D02*
X133682680Y-112206350D01*
D23*
X124152680Y-118556340D02*
X124152680Y-118546340D01*
D24*
X123707670Y-118136340D02*
X124127670Y-118556340D01*
X123182680Y-118136340D02*
X123707670Y-118136340D01*
D22*
X121067680Y-116056340D02*
X121067680Y-115301340D01*
X119712680Y-113946340D02*
X119712680Y-112391350D01*
X121067680Y-115301340D02*
X119712680Y-113946340D01*
D21*
X129282680Y-117551340D02*
X130502680Y-116331340D01*
X132152670Y-113796360D02*
X133682680Y-112266350D01*
X129282680Y-117551340D02*
X129282680Y-114406340D01*
X129892660Y-113796360D02*
X132152670Y-113796360D01*
X129282680Y-114406340D02*
X129892660Y-113796360D01*
X124152680Y-124746340D02*
X123282680Y-125616340D01*
X124152680Y-124456340D02*
X124152680Y-124746340D01*
X122227680Y-125616340D02*
X122222680Y-125621340D01*
X123282680Y-125616340D02*
X122227680Y-125616340D01*
X116252680Y-123886340D02*
X115722690Y-123886340D01*
X118517681Y-126151341D02*
X116252680Y-123886340D01*
X122222680Y-125621340D02*
X121692679Y-126151341D01*
X121692679Y-126151341D02*
X118517681Y-126151341D01*
X129302680Y-118536340D02*
X129302680Y-119306340D01*
X129282680Y-117551340D02*
X129302680Y-118536340D01*
D23*
%TO.N,Net-(C4-Pad1)*%
X123402680Y-119306340D02*
X122412680Y-118316340D01*
X122412680Y-117361340D02*
X122417680Y-117356340D01*
X122412680Y-118316340D02*
X122412680Y-117361340D01*
D20*
%TO.N,Net-(C6-Pad2)*%
X129302680Y-120906340D02*
X130532680Y-120906340D01*
X130892680Y-120546340D02*
X132187680Y-120546340D01*
X130532680Y-120906340D02*
X130892680Y-120546340D01*
%TO.N,Net-(C7-Pad2)*%
X129302680Y-120506340D02*
X130162680Y-120506340D01*
X131172680Y-119496340D02*
X132177680Y-119496340D01*
X130162680Y-120506340D02*
X131172680Y-119496340D01*
%TO.N,Net-(C10-Pad1)*%
X123762680Y-114271340D02*
X124402680Y-114911340D01*
X123142680Y-114271340D02*
X123762680Y-114271340D01*
X124952680Y-118556340D02*
X124952680Y-117107332D01*
X125807638Y-115001350D02*
X124492690Y-115001350D01*
X126342690Y-115536402D02*
X125807638Y-115001350D01*
X126342690Y-116486278D02*
X126342690Y-115536402D01*
X126077618Y-116751350D02*
X126342690Y-116486278D01*
X125308662Y-116751350D02*
X126077618Y-116751350D01*
X124492690Y-115001350D02*
X124402680Y-114911340D01*
X124952680Y-117107332D02*
X125308662Y-116751350D01*
D23*
%TO.N,Net-(C11-Pad1)*%
X120747680Y-117606340D02*
X121472680Y-118331340D01*
X119772680Y-117606340D02*
X120747680Y-117606340D01*
X122847680Y-119706340D02*
X123402680Y-119706340D01*
X121472680Y-118331340D02*
X122847680Y-119706340D01*
%TO.N,Net-(C12-Pad1)*%
X123402680Y-120106340D02*
X119772680Y-120106340D01*
X120377680Y-120711340D02*
X119772680Y-120106340D01*
X120377680Y-121356340D02*
X120377680Y-120711340D01*
D20*
%TO.N,Net-(L2-Pad2)*%
X124552680Y-117111340D02*
X124552680Y-118556340D01*
X125652680Y-116011340D02*
X124552680Y-117111340D01*
%TO.N,Net-(L2-Pad1)*%
X125332680Y-113941340D02*
X125652680Y-114261340D01*
X124402680Y-113941340D02*
X125332680Y-113941340D01*
%TO.N,P0.14*%
X118198662Y-128200348D02*
X117172680Y-129226330D01*
X125752680Y-124456340D02*
X125752680Y-126390288D01*
X124258767Y-126650288D02*
X123888748Y-127020308D01*
X123888748Y-127020308D02*
X122874730Y-127020308D01*
X121400713Y-127620318D02*
X119792709Y-127620318D01*
X125492680Y-126650288D02*
X124258767Y-126650288D01*
X125752680Y-126390288D02*
X125492680Y-126650288D01*
X122874730Y-127020308D02*
X122514730Y-127380308D01*
X119792709Y-127620318D02*
X119212680Y-128200348D01*
X122514730Y-127380308D02*
X121640723Y-127380308D01*
X121640723Y-127380308D02*
X121400713Y-127620318D01*
X119212680Y-128200348D02*
X118198662Y-128200348D01*
%TO.N,P0.15*%
X119908692Y-127900328D02*
X118582690Y-129226330D01*
X121516696Y-127900328D02*
X119908692Y-127900328D01*
X122990713Y-127300318D02*
X122630714Y-127660318D01*
X126152680Y-124456340D02*
X126152680Y-126686340D01*
X118582690Y-129226330D02*
X118442680Y-129226330D01*
X121756706Y-127660318D02*
X121516696Y-127900328D01*
X122630714Y-127660318D02*
X121756706Y-127660318D01*
X124374750Y-126930298D02*
X124004730Y-127300318D01*
X126152680Y-126686340D02*
X125908722Y-126930298D01*
X125908722Y-126930298D02*
X124374750Y-126930298D01*
X124004730Y-127300318D02*
X122990713Y-127300318D01*
%TO.N,P0.16*%
X120758672Y-128180338D02*
X119712680Y-129226330D01*
X121632680Y-128180338D02*
X120758672Y-128180338D01*
X122746696Y-127940328D02*
X121872689Y-127940328D01*
X126552680Y-126836369D02*
X126178741Y-127210308D01*
X123106696Y-127580328D02*
X122746696Y-127940328D01*
X126178741Y-127210308D02*
X124490733Y-127210308D01*
X124490733Y-127210308D02*
X124120714Y-127580328D01*
X121872689Y-127940328D02*
X121632680Y-128180338D01*
X126552680Y-124456340D02*
X126552680Y-126836369D01*
X124120714Y-127580328D02*
X123106696Y-127580328D01*
%TO.N,P0.17*%
X121988672Y-128220338D02*
X120982680Y-129226330D01*
X122862680Y-128220338D02*
X121988672Y-128220338D01*
X123222679Y-127860338D02*
X122862680Y-128220338D01*
X126952680Y-124456340D02*
X126952680Y-126832361D01*
X126294723Y-127490318D02*
X124606716Y-127490318D01*
X124606716Y-127490318D02*
X124236696Y-127860338D01*
X126952680Y-126832361D02*
X126294723Y-127490318D01*
X124236696Y-127860338D02*
X123222679Y-127860338D01*
%TO.N,P0.18*%
X127352680Y-124456340D02*
X127352680Y-126828353D01*
X124722699Y-127770328D02*
X124352680Y-128140348D01*
X127352680Y-126828353D02*
X126410705Y-127770328D01*
X126410705Y-127770328D02*
X124722699Y-127770328D01*
X123338662Y-128140348D02*
X122252680Y-129226330D01*
X124352680Y-128140348D02*
X123338662Y-128140348D01*
%TO.N,P0.19*%
X123662690Y-129226330D02*
X123522680Y-129226330D01*
X124838682Y-128050338D02*
X123662690Y-129226330D01*
X126526687Y-128050338D02*
X124838682Y-128050338D01*
X126960685Y-127616340D02*
X126526687Y-128050338D01*
X127372680Y-127616340D02*
X126960685Y-127616340D01*
X127752680Y-124456340D02*
X127752680Y-127236340D01*
X127752680Y-127236340D02*
X127372680Y-127616340D01*
%TO.N,P0.20*%
X128152680Y-124456340D02*
X128152680Y-127232335D01*
X126702680Y-128330348D02*
X125688661Y-128330349D01*
X127488664Y-127896351D02*
X127136677Y-127896351D01*
X125688661Y-128330349D02*
X124792680Y-129226330D01*
X127136677Y-127896351D02*
X126702680Y-128330348D01*
X128152680Y-127232335D02*
X127488664Y-127896351D01*
%TO.N,P0.21*%
X128552680Y-124456340D02*
X128552680Y-127228330D01*
X128552680Y-127228330D02*
X127604648Y-128176362D01*
X127604648Y-128176362D02*
X127252660Y-128176362D01*
X127252660Y-128176362D02*
X126202690Y-129226330D01*
X126202690Y-129226330D02*
X126062680Y-129226330D01*
%TO.N,SWDCLK*%
X128352680Y-128346340D02*
X127472690Y-129226330D01*
X129226687Y-128346340D02*
X128352680Y-128346340D01*
X129796707Y-127776320D02*
X129226687Y-128346340D01*
X131112700Y-127776320D02*
X129796707Y-127776320D01*
X130748712Y-123706340D02*
X131292640Y-124250268D01*
X127472690Y-129226330D02*
X127332680Y-129226330D01*
X129302680Y-123706340D02*
X130748712Y-123706340D01*
X131292640Y-124250268D02*
X131292640Y-127596380D01*
X131292640Y-127596380D02*
X131112700Y-127776320D01*
%TO.N,SWDIO*%
X129302680Y-123306340D02*
X130744704Y-123306340D01*
X130744704Y-123306340D02*
X131572650Y-124134286D01*
X131572650Y-124134286D02*
X131572650Y-127910378D01*
X128742690Y-129226330D02*
X128602680Y-129226330D01*
X129912690Y-128056330D02*
X128742690Y-129226330D01*
X131572650Y-127910378D02*
X131426698Y-128056330D01*
X131426698Y-128056330D02*
X129912690Y-128056330D01*
%TO.N,P0.22*%
X130902680Y-128336340D02*
X130012690Y-129226330D01*
X130740696Y-122906340D02*
X131852660Y-124018304D01*
X131852660Y-124018304D02*
X131852660Y-128026360D01*
X131542680Y-128336340D02*
X130902680Y-128336340D01*
X130012690Y-129226330D02*
X129872680Y-129226330D01*
X129302680Y-122906340D02*
X130740696Y-122906340D01*
X131852660Y-128026360D02*
X131542680Y-128336340D01*
%TO.N,P0.23*%
X129302680Y-122506340D02*
X130736688Y-122506340D01*
X130736688Y-122506340D02*
X132132670Y-123902322D01*
X131282690Y-129226330D02*
X131142680Y-129226330D01*
X132132670Y-123902322D02*
X132132670Y-128376350D01*
X132132670Y-128376350D02*
X131282690Y-129226330D01*
%TO.N,P0.24*%
X129302680Y-122106340D02*
X130732680Y-122106340D01*
X132412680Y-123786340D02*
X132412680Y-129226330D01*
X130732680Y-122106340D02*
X132412680Y-123786340D01*
%TO.N,P0.2*%
X122326686Y-120506340D02*
X119954549Y-122878477D01*
X118950811Y-122878476D02*
X118512751Y-122440416D01*
X119954549Y-122878477D02*
X118950811Y-122878476D01*
X117172680Y-114840336D02*
X117172680Y-112206350D01*
X118512751Y-116180407D02*
X117172680Y-114840336D01*
X123402680Y-120506340D02*
X122326686Y-120506340D01*
X118512751Y-122440416D02*
X118512751Y-116180407D01*
%TO.N,P0.31*%
X124792680Y-112236392D02*
X124792680Y-112206350D01*
X126622700Y-114066412D02*
X124792680Y-112236392D01*
X126622700Y-116602261D02*
X126622700Y-114066412D01*
X126152680Y-118556340D02*
X126152680Y-117072280D01*
X126152680Y-117072280D02*
X126622700Y-116602261D01*
%TO.N,P0.30*%
X126902710Y-112906370D02*
X126202690Y-112206350D01*
X126902710Y-116718244D02*
X126902710Y-112906370D01*
X126202690Y-112206350D02*
X126062680Y-112206350D01*
X126552680Y-118556340D02*
X126552680Y-117068273D01*
X126552680Y-117068273D02*
X126902710Y-116718244D01*
%TO.N,P0.29*%
X127332680Y-116684266D02*
X127332680Y-112206350D01*
X126952680Y-118556340D02*
X126952680Y-117064266D01*
X126952680Y-117064266D02*
X127332680Y-116684266D01*
%TO.N,P0.28*%
X127352680Y-117060256D02*
X127642669Y-116770267D01*
X127642669Y-113166361D02*
X128602680Y-112206350D01*
X127352680Y-118556340D02*
X127352680Y-117060256D01*
X127642669Y-116770267D02*
X127642669Y-113166361D01*
%TO.N,P0.27*%
X127922680Y-114156350D02*
X129872680Y-112206350D01*
X127922680Y-116886250D02*
X127922680Y-114156350D01*
X127752680Y-117056250D02*
X127922680Y-116886250D01*
X127752680Y-118556340D02*
X127752680Y-117056250D01*
%TO.N,P0.26*%
X128152680Y-117052243D02*
X128202690Y-117002233D01*
X128152680Y-118556340D02*
X128152680Y-117052243D01*
X128202690Y-117002233D02*
X128202690Y-114296330D01*
X128202690Y-114296330D02*
X129322680Y-113176340D01*
X131002670Y-112206350D02*
X131142680Y-112206350D01*
X129322680Y-113176340D02*
X130032680Y-113176340D01*
X130032680Y-113176340D02*
X131002670Y-112206350D01*
%TO.N,P0.25*%
X128552680Y-118556340D02*
X128552680Y-114386340D01*
X128552680Y-114386340D02*
X129482670Y-113456350D01*
X131162680Y-113456350D02*
X132412680Y-112206350D01*
X129482670Y-113456350D02*
X131162680Y-113456350D01*
%TO.N,P0.3*%
X117168692Y-115232342D02*
X115662690Y-113726340D01*
X117168692Y-118004373D02*
X117168692Y-115232342D01*
X118232740Y-122564450D02*
X118232740Y-120816435D01*
X118670800Y-122994460D02*
X118662750Y-122994460D01*
X118232740Y-120816435D02*
X117888712Y-120472407D01*
X117888712Y-120472407D02*
X117888712Y-118724393D01*
X119952680Y-123276340D02*
X118952680Y-123276340D01*
X118952680Y-123276340D02*
X118670800Y-122994460D01*
X117888712Y-118724393D02*
X117168692Y-118004373D01*
X118662750Y-122994460D02*
X118232740Y-122564450D01*
X123402680Y-120906340D02*
X122322680Y-120906340D01*
X122322680Y-120906340D02*
X119952680Y-123276340D01*
%TO.N,P0.4*%
X116888682Y-116422587D02*
X115662690Y-115196595D01*
X117608702Y-118840376D02*
X116888682Y-118120356D01*
X115662690Y-115196595D02*
X115662690Y-114996340D01*
X117952730Y-120932418D02*
X117608702Y-120588390D01*
X116888682Y-118120356D02*
X116888682Y-116422587D01*
X123402680Y-121306340D02*
X122356222Y-121306340D01*
X117608702Y-120588390D02*
X117608702Y-118840376D01*
X120106222Y-123556340D02*
X118828638Y-123556340D01*
X122356222Y-121306340D02*
X120106222Y-123556340D01*
X117952730Y-122680432D02*
X117952730Y-120932418D01*
X118828638Y-123556340D02*
X117952730Y-122680432D01*
%TO.N,P0.5*%
X116608672Y-117212322D02*
X115662690Y-116266340D01*
X116608672Y-118236340D02*
X116608672Y-117212322D01*
X117328692Y-118956359D02*
X116608672Y-118236340D01*
X117672720Y-121048401D02*
X117328692Y-120704374D01*
X118712644Y-123836340D02*
X117672720Y-122796416D01*
X123402680Y-121706340D02*
X122352214Y-121706340D01*
X117328692Y-120704374D02*
X117328692Y-118956359D01*
X122352214Y-121706340D02*
X120222214Y-123836340D01*
X120222214Y-123836340D02*
X118712644Y-123836340D01*
X117672720Y-122796416D02*
X117672720Y-121048401D01*
%TO.N,P0.6*%
X122351035Y-122106340D02*
X120321079Y-124136296D01*
X117392711Y-121164382D02*
X117048683Y-120820354D01*
X117392711Y-122912394D02*
X117392711Y-121164382D01*
X123402680Y-122106340D02*
X122351035Y-122106340D01*
X117048682Y-119072342D02*
X115662690Y-117686350D01*
X120321079Y-124136296D02*
X118616613Y-124136296D01*
X117048683Y-120820354D02*
X117048682Y-119072342D01*
X115662690Y-117686350D02*
X115662690Y-117536340D01*
X118616613Y-124136296D02*
X117392711Y-122912394D01*
%TO.N,P0.7*%
X117112700Y-123028377D02*
X117112700Y-121280366D01*
X116768672Y-120936338D02*
X116768672Y-119912322D01*
X118500630Y-124416307D02*
X117112700Y-123028377D01*
X116768672Y-119912322D02*
X115662690Y-118806340D01*
X122347030Y-122506340D02*
X120437063Y-124416307D01*
X117112700Y-121280366D02*
X116768672Y-120936338D01*
X120437063Y-124416307D02*
X118500630Y-124416307D01*
X123402680Y-122506340D02*
X122347030Y-122506340D01*
%TO.N,P0.8*%
X115662690Y-120226350D02*
X115662690Y-120076340D01*
X116832690Y-121396350D02*
X115662690Y-120226350D01*
X123402680Y-122906340D02*
X122343024Y-122906340D01*
X120553046Y-124696318D02*
X118384647Y-124696318D01*
X116832691Y-123144362D02*
X116832690Y-121396350D01*
X118384647Y-124696318D02*
X116832691Y-123144362D01*
X122343024Y-122906340D02*
X120553046Y-124696318D01*
%TO.N,P0.9*%
X116552680Y-123260346D02*
X116552680Y-122236330D01*
X123402680Y-123306340D02*
X122339018Y-123306340D01*
X116552680Y-122236330D02*
X115662690Y-121346340D01*
X118268663Y-124976329D02*
X116552680Y-123260346D01*
X120669029Y-124976329D02*
X118268663Y-124976329D01*
X122339018Y-123306340D02*
X120669029Y-124976329D01*
%TO.N,P0.10*%
X115662690Y-122766350D02*
X115662690Y-122616340D01*
X122335012Y-123706340D02*
X120785012Y-125256340D01*
X123402680Y-123706340D02*
X122335012Y-123706340D01*
X118152680Y-125256340D02*
X115662690Y-122766350D01*
X120785012Y-125256340D02*
X118152680Y-125256340D01*
%TO.N,P0.11*%
X121052765Y-126780288D02*
X117136628Y-126780288D01*
X121292774Y-126540278D02*
X121052765Y-126780288D01*
X124552680Y-125146306D02*
X123518708Y-126180278D01*
X115662690Y-125306350D02*
X115662690Y-125156340D01*
X124552680Y-124456340D02*
X124552680Y-125146306D01*
X122166782Y-126540278D02*
X121292774Y-126540278D01*
X123518708Y-126180278D02*
X122526781Y-126180278D01*
X117136628Y-126780288D02*
X115662690Y-125306350D01*
X122526781Y-126180278D02*
X122166782Y-126540278D01*
%TO.N,P0.12*%
X115662690Y-126576350D02*
X115662690Y-126426340D01*
X124026801Y-126090268D02*
X123656781Y-126460288D01*
X124820636Y-126090268D02*
X124026801Y-126090268D01*
X123656781Y-126460288D02*
X122642764Y-126460288D01*
X124952680Y-124456340D02*
X124952680Y-125958224D01*
X124952680Y-125958224D02*
X124820636Y-126090268D01*
X122642764Y-126460288D02*
X122282764Y-126820288D01*
X116502670Y-127416330D02*
X115662690Y-126576350D01*
X121168747Y-127060298D02*
X118546727Y-127060298D01*
X121408757Y-126820288D02*
X121168747Y-127060298D01*
X122282764Y-126820288D02*
X121408757Y-126820288D01*
X118546727Y-127060298D02*
X118190696Y-127416330D01*
X118190696Y-127416330D02*
X116502670Y-127416330D01*
%TO.N,P0.13*%
X118662710Y-127340308D02*
X118306678Y-127696340D01*
X121524740Y-127100298D02*
X121284731Y-127340308D01*
X125352680Y-125954216D02*
X124936618Y-126370278D01*
X122758747Y-126740298D02*
X122398748Y-127100298D01*
X124142784Y-126370278D02*
X123772764Y-126740298D01*
X122398748Y-127100298D02*
X121524740Y-127100298D01*
X125352680Y-124456340D02*
X125352680Y-125954216D01*
X121284731Y-127340308D02*
X118662710Y-127340308D01*
X124936618Y-126370278D02*
X124142784Y-126370278D01*
X123772764Y-126740298D02*
X122758747Y-126740298D01*
X118306678Y-127696340D02*
X115662690Y-127696340D01*
%TD*%
D25*
%TO.N,GND*%
X117494954Y-128423225D02*
X117432241Y-128389704D01*
X117305003Y-128351107D01*
X117172680Y-128338074D01*
X117040358Y-128351107D01*
X116913120Y-128389704D01*
X116795857Y-128452382D01*
X116693075Y-128536734D01*
X116608723Y-128639516D01*
X116546045Y-128756779D01*
X116507447Y-128884017D01*
X116497680Y-128983181D01*
X116497680Y-129749498D01*
X116507447Y-129848662D01*
X116546044Y-129975900D01*
X116608722Y-130093163D01*
X116668778Y-130166341D01*
X115158797Y-130166341D01*
X115058081Y-130159332D01*
X114978971Y-130137868D01*
X114905551Y-130101452D01*
X114840595Y-130051464D01*
X114786586Y-129989812D01*
X114745582Y-129918848D01*
X114719142Y-129841263D01*
X114706776Y-129748829D01*
X114706615Y-129735746D01*
X114706403Y-128195092D01*
X114785856Y-128260298D01*
X114903119Y-128322976D01*
X115030357Y-128361573D01*
X115129521Y-128371340D01*
X115895839Y-128371340D01*
X115995003Y-128361573D01*
X116122241Y-128322976D01*
X116239504Y-128260298D01*
X116342286Y-128175946D01*
X116426638Y-128073164D01*
X116446321Y-128036340D01*
X117881838Y-128036340D01*
X117494954Y-128423225D01*
%TA.AperFunction,Conductor*%
D26*
G36*
X117494954Y-128423225D02*
G01*
X117432241Y-128389704D01*
X117305003Y-128351107D01*
X117172680Y-128338074D01*
X117040358Y-128351107D01*
X116913120Y-128389704D01*
X116795857Y-128452382D01*
X116693075Y-128536734D01*
X116608723Y-128639516D01*
X116546045Y-128756779D01*
X116507447Y-128884017D01*
X116497680Y-128983181D01*
X116497680Y-129749498D01*
X116507447Y-129848662D01*
X116546044Y-129975900D01*
X116608722Y-130093163D01*
X116668778Y-130166341D01*
X115158797Y-130166341D01*
X115058081Y-130159332D01*
X114978971Y-130137868D01*
X114905551Y-130101452D01*
X114840595Y-130051464D01*
X114786586Y-129989812D01*
X114745582Y-129918848D01*
X114719142Y-129841263D01*
X114706776Y-129748829D01*
X114706615Y-129735746D01*
X114706403Y-128195092D01*
X114785856Y-128260298D01*
X114903119Y-128322976D01*
X115030357Y-128361573D01*
X115129521Y-128371340D01*
X115895839Y-128371340D01*
X115995003Y-128361573D01*
X116122241Y-128322976D01*
X116239504Y-128260298D01*
X116342286Y-128175946D01*
X116426638Y-128073164D01*
X116446321Y-128036340D01*
X117881838Y-128036340D01*
X117494954Y-128423225D01*
G37*
%TD.AperFunction*%
D25*
X133700487Y-122158533D02*
X133764713Y-122211242D01*
X133837987Y-122250408D01*
X133917495Y-122274526D01*
X134000180Y-122282670D01*
X134295180Y-122282670D01*
X134341114Y-122278146D01*
X134335382Y-122336340D01*
X134337680Y-122337590D01*
X134456430Y-122456340D01*
X134957680Y-122456340D01*
X134957680Y-122436340D01*
X135307680Y-122436340D01*
X135307680Y-122456340D01*
X135808930Y-122456340D01*
X135849574Y-122415696D01*
X136347680Y-122913802D01*
X136347681Y-124690550D01*
X136345141Y-124716340D01*
X136355277Y-124819257D01*
X136385297Y-124918220D01*
X136434047Y-125009425D01*
X136447320Y-125025598D01*
X136499654Y-125089367D01*
X136519684Y-125105806D01*
X136983218Y-125569341D01*
X136999653Y-125589367D01*
X137019679Y-125605802D01*
X137019683Y-125605806D01*
X137048773Y-125629679D01*
X137079594Y-125654973D01*
X137170799Y-125703723D01*
X137269762Y-125733743D01*
X137346892Y-125741340D01*
X137346900Y-125741340D01*
X137372680Y-125743879D01*
X137398460Y-125741340D01*
X138049177Y-125741340D01*
X138062680Y-125742670D01*
X138562680Y-125742670D01*
X138576183Y-125741340D01*
X138671775Y-125741340D01*
X138671219Y-126591340D01*
X138062680Y-126591340D01*
X138036884Y-126593869D01*
X138011150Y-126596211D01*
X138010226Y-126596483D01*
X138009266Y-126596577D01*
X137984530Y-126604045D01*
X137959663Y-126611364D01*
X137958805Y-126611812D01*
X137957886Y-126612090D01*
X137935086Y-126624213D01*
X137912100Y-126636230D01*
X137911348Y-126636834D01*
X137910497Y-126637287D01*
X137890439Y-126653646D01*
X137870273Y-126669860D01*
X137869653Y-126670598D01*
X137868906Y-126671208D01*
X137852416Y-126691141D01*
X137835774Y-126710974D01*
X137835309Y-126711820D01*
X137834695Y-126712562D01*
X137822392Y-126735316D01*
X137809918Y-126758006D01*
X137809626Y-126758925D01*
X137809168Y-126759773D01*
X137801534Y-126784436D01*
X137793689Y-126809164D01*
X137793581Y-126810126D01*
X137793297Y-126811044D01*
X137790598Y-126836726D01*
X137787707Y-126862500D01*
X137787694Y-126864354D01*
X137787687Y-126864420D01*
X137787693Y-126864486D01*
X137787680Y-126866340D01*
X137787680Y-127766340D01*
X137790209Y-127792136D01*
X137792551Y-127817870D01*
X137792823Y-127818794D01*
X137792917Y-127819754D01*
X137800385Y-127844490D01*
X137807704Y-127869357D01*
X137808152Y-127870215D01*
X137808430Y-127871134D01*
X137820553Y-127893934D01*
X137832570Y-127916920D01*
X137833174Y-127917672D01*
X137833627Y-127918523D01*
X137849986Y-127938581D01*
X137866200Y-127958747D01*
X137866938Y-127959367D01*
X137867548Y-127960114D01*
X137887481Y-127976604D01*
X137907314Y-127993246D01*
X137908160Y-127993711D01*
X137908902Y-127994325D01*
X137931656Y-128006628D01*
X137954346Y-128019102D01*
X137955265Y-128019394D01*
X137956113Y-128019852D01*
X137980776Y-128027486D01*
X138005504Y-128035331D01*
X138006466Y-128035439D01*
X138007384Y-128035723D01*
X138033066Y-128038422D01*
X138058840Y-128041313D01*
X138060694Y-128041326D01*
X138060760Y-128041333D01*
X138060826Y-128041327D01*
X138062680Y-128041340D01*
X138670272Y-128041340D01*
X138668883Y-130166339D01*
X138317623Y-130166339D01*
X138321726Y-130158681D01*
X138372680Y-129991340D01*
X138372680Y-129641340D01*
X137672680Y-129641340D01*
X137672680Y-129661340D01*
X137322680Y-129661340D01*
X137322680Y-129641340D01*
X136402680Y-129641340D01*
X136402680Y-129661340D01*
X136052680Y-129661340D01*
X136052680Y-129641340D01*
X135352680Y-129641340D01*
X135352680Y-129991340D01*
X135403634Y-130158681D01*
X135407738Y-130166339D01*
X134449037Y-130166339D01*
X134506726Y-130058681D01*
X134557680Y-129891340D01*
X134557680Y-129541340D01*
X133857680Y-129541340D01*
X133857680Y-129561340D01*
X133507680Y-129561340D01*
X133507680Y-129541340D01*
X133487680Y-129541340D01*
X133487680Y-129191340D01*
X133507680Y-129191340D01*
X133507680Y-128280617D01*
X133857680Y-128280617D01*
X133857680Y-129191340D01*
X134557680Y-129191340D01*
X134557680Y-128941340D01*
X135352680Y-128941340D01*
X135352680Y-129291340D01*
X136052680Y-129291340D01*
X136052680Y-128380617D01*
X136402680Y-128380617D01*
X136402680Y-129291340D01*
X137322680Y-129291340D01*
X137322680Y-128380617D01*
X137672680Y-128380617D01*
X137672680Y-129291340D01*
X138372680Y-129291340D01*
X138372680Y-128941340D01*
X138321726Y-128773999D01*
X138239105Y-128619814D01*
X138127991Y-128484710D01*
X137992655Y-128373879D01*
X137804640Y-128296950D01*
X137672680Y-128380617D01*
X137322680Y-128380617D01*
X137190720Y-128296950D01*
X137002705Y-128373879D01*
X136867369Y-128484710D01*
X136862680Y-128490411D01*
X136857991Y-128484710D01*
X136722655Y-128373879D01*
X136534640Y-128296950D01*
X136402680Y-128380617D01*
X136052680Y-128380617D01*
X135920720Y-128296950D01*
X135732705Y-128373879D01*
X135597369Y-128484710D01*
X135486255Y-128619814D01*
X135403634Y-128773999D01*
X135352680Y-128941340D01*
X134557680Y-128941340D01*
X134557680Y-128841340D01*
X134506726Y-128673999D01*
X134424105Y-128519814D01*
X134312991Y-128384710D01*
X134177655Y-128273879D01*
X133989640Y-128196950D01*
X133857680Y-128280617D01*
X133507680Y-128280617D01*
X133375720Y-128196950D01*
X133187705Y-128273879D01*
X133052369Y-128384710D01*
X132941255Y-128519814D01*
X132916426Y-128566149D01*
X132892286Y-128536734D01*
X132789504Y-128452382D01*
X132752680Y-128432699D01*
X132752680Y-123803033D01*
X132754324Y-123786340D01*
X132752680Y-123769647D01*
X132752680Y-123769639D01*
X132747760Y-123719688D01*
X132728319Y-123655598D01*
X132696747Y-123596532D01*
X132679567Y-123575599D01*
X132664905Y-123557733D01*
X132664901Y-123557729D01*
X132654258Y-123544761D01*
X132641291Y-123534119D01*
X132510630Y-123403459D01*
X132512680Y-123403638D01*
X132605796Y-123394467D01*
X132695334Y-123367306D01*
X132777853Y-123323199D01*
X132850181Y-123263841D01*
X132909539Y-123191513D01*
X132953646Y-123108994D01*
X132980807Y-123019456D01*
X132989978Y-122926340D01*
X134335382Y-122926340D01*
X134344553Y-123019456D01*
X134371714Y-123108994D01*
X134415821Y-123191513D01*
X134475179Y-123263841D01*
X134547507Y-123323199D01*
X134630026Y-123367306D01*
X134719564Y-123394467D01*
X134812680Y-123403638D01*
X134838930Y-123401340D01*
X134957680Y-123282590D01*
X134957680Y-122806340D01*
X135307680Y-122806340D01*
X135307680Y-123282590D01*
X135426430Y-123401340D01*
X135452680Y-123403638D01*
X135545796Y-123394467D01*
X135635334Y-123367306D01*
X135717853Y-123323199D01*
X135790181Y-123263841D01*
X135849539Y-123191513D01*
X135893646Y-123108994D01*
X135920807Y-123019456D01*
X135929978Y-122926340D01*
X135927680Y-122925090D01*
X135808930Y-122806340D01*
X135307680Y-122806340D01*
X134957680Y-122806340D01*
X134456430Y-122806340D01*
X134337680Y-122925090D01*
X134335382Y-122926340D01*
X132989978Y-122926340D01*
X132987680Y-122925090D01*
X132868930Y-122806340D01*
X132367680Y-122806340D01*
X132367680Y-122826340D01*
X132017680Y-122826340D01*
X132017680Y-122806340D01*
X131997680Y-122806340D01*
X131997680Y-122456340D01*
X132017680Y-122456340D01*
X132017680Y-122436340D01*
X132367680Y-122436340D01*
X132367680Y-122456340D01*
X132868930Y-122456340D01*
X132987680Y-122337590D01*
X132989978Y-122336340D01*
X132984246Y-122278146D01*
X133030180Y-122282670D01*
X133325180Y-122282670D01*
X133407865Y-122274526D01*
X133487373Y-122250408D01*
X133560647Y-122211242D01*
X133624873Y-122158533D01*
X133662680Y-122112465D01*
X133700487Y-122158533D01*
%TA.AperFunction,Conductor*%
D26*
G36*
X133700487Y-122158533D02*
G01*
X133764713Y-122211242D01*
X133837987Y-122250408D01*
X133917495Y-122274526D01*
X134000180Y-122282670D01*
X134295180Y-122282670D01*
X134341114Y-122278146D01*
X134335382Y-122336340D01*
X134337680Y-122337590D01*
X134456430Y-122456340D01*
X134957680Y-122456340D01*
X134957680Y-122436340D01*
X135307680Y-122436340D01*
X135307680Y-122456340D01*
X135808930Y-122456340D01*
X135849574Y-122415696D01*
X136347680Y-122913802D01*
X136347681Y-124690550D01*
X136345141Y-124716340D01*
X136355277Y-124819257D01*
X136385297Y-124918220D01*
X136434047Y-125009425D01*
X136447320Y-125025598D01*
X136499654Y-125089367D01*
X136519684Y-125105806D01*
X136983218Y-125569341D01*
X136999653Y-125589367D01*
X137019679Y-125605802D01*
X137019683Y-125605806D01*
X137048773Y-125629679D01*
X137079594Y-125654973D01*
X137170799Y-125703723D01*
X137269762Y-125733743D01*
X137346892Y-125741340D01*
X137346900Y-125741340D01*
X137372680Y-125743879D01*
X137398460Y-125741340D01*
X138049177Y-125741340D01*
X138062680Y-125742670D01*
X138562680Y-125742670D01*
X138576183Y-125741340D01*
X138671775Y-125741340D01*
X138671219Y-126591340D01*
X138062680Y-126591340D01*
X138036884Y-126593869D01*
X138011150Y-126596211D01*
X138010226Y-126596483D01*
X138009266Y-126596577D01*
X137984530Y-126604045D01*
X137959663Y-126611364D01*
X137958805Y-126611812D01*
X137957886Y-126612090D01*
X137935086Y-126624213D01*
X137912100Y-126636230D01*
X137911348Y-126636834D01*
X137910497Y-126637287D01*
X137890439Y-126653646D01*
X137870273Y-126669860D01*
X137869653Y-126670598D01*
X137868906Y-126671208D01*
X137852416Y-126691141D01*
X137835774Y-126710974D01*
X137835309Y-126711820D01*
X137834695Y-126712562D01*
X137822392Y-126735316D01*
X137809918Y-126758006D01*
X137809626Y-126758925D01*
X137809168Y-126759773D01*
X137801534Y-126784436D01*
X137793689Y-126809164D01*
X137793581Y-126810126D01*
X137793297Y-126811044D01*
X137790598Y-126836726D01*
X137787707Y-126862500D01*
X137787694Y-126864354D01*
X137787687Y-126864420D01*
X137787693Y-126864486D01*
X137787680Y-126866340D01*
X137787680Y-127766340D01*
X137790209Y-127792136D01*
X137792551Y-127817870D01*
X137792823Y-127818794D01*
X137792917Y-127819754D01*
X137800385Y-127844490D01*
X137807704Y-127869357D01*
X137808152Y-127870215D01*
X137808430Y-127871134D01*
X137820553Y-127893934D01*
X137832570Y-127916920D01*
X137833174Y-127917672D01*
X137833627Y-127918523D01*
X137849986Y-127938581D01*
X137866200Y-127958747D01*
X137866938Y-127959367D01*
X137867548Y-127960114D01*
X137887481Y-127976604D01*
X137907314Y-127993246D01*
X137908160Y-127993711D01*
X137908902Y-127994325D01*
X137931656Y-128006628D01*
X137954346Y-128019102D01*
X137955265Y-128019394D01*
X137956113Y-128019852D01*
X137980776Y-128027486D01*
X138005504Y-128035331D01*
X138006466Y-128035439D01*
X138007384Y-128035723D01*
X138033066Y-128038422D01*
X138058840Y-128041313D01*
X138060694Y-128041326D01*
X138060760Y-128041333D01*
X138060826Y-128041327D01*
X138062680Y-128041340D01*
X138670272Y-128041340D01*
X138668883Y-130166339D01*
X138317623Y-130166339D01*
X138321726Y-130158681D01*
X138372680Y-129991340D01*
X138372680Y-129641340D01*
X137672680Y-129641340D01*
X137672680Y-129661340D01*
X137322680Y-129661340D01*
X137322680Y-129641340D01*
X136402680Y-129641340D01*
X136402680Y-129661340D01*
X136052680Y-129661340D01*
X136052680Y-129641340D01*
X135352680Y-129641340D01*
X135352680Y-129991340D01*
X135403634Y-130158681D01*
X135407738Y-130166339D01*
X134449037Y-130166339D01*
X134506726Y-130058681D01*
X134557680Y-129891340D01*
X134557680Y-129541340D01*
X133857680Y-129541340D01*
X133857680Y-129561340D01*
X133507680Y-129561340D01*
X133507680Y-129541340D01*
X133487680Y-129541340D01*
X133487680Y-129191340D01*
X133507680Y-129191340D01*
X133507680Y-128280617D01*
X133857680Y-128280617D01*
X133857680Y-129191340D01*
X134557680Y-129191340D01*
X134557680Y-128941340D01*
X135352680Y-128941340D01*
X135352680Y-129291340D01*
X136052680Y-129291340D01*
X136052680Y-128380617D01*
X136402680Y-128380617D01*
X136402680Y-129291340D01*
X137322680Y-129291340D01*
X137322680Y-128380617D01*
X137672680Y-128380617D01*
X137672680Y-129291340D01*
X138372680Y-129291340D01*
X138372680Y-128941340D01*
X138321726Y-128773999D01*
X138239105Y-128619814D01*
X138127991Y-128484710D01*
X137992655Y-128373879D01*
X137804640Y-128296950D01*
X137672680Y-128380617D01*
X137322680Y-128380617D01*
X137190720Y-128296950D01*
X137002705Y-128373879D01*
X136867369Y-128484710D01*
X136862680Y-128490411D01*
X136857991Y-128484710D01*
X136722655Y-128373879D01*
X136534640Y-128296950D01*
X136402680Y-128380617D01*
X136052680Y-128380617D01*
X135920720Y-128296950D01*
X135732705Y-128373879D01*
X135597369Y-128484710D01*
X135486255Y-128619814D01*
X135403634Y-128773999D01*
X135352680Y-128941340D01*
X134557680Y-128941340D01*
X134557680Y-128841340D01*
X134506726Y-128673999D01*
X134424105Y-128519814D01*
X134312991Y-128384710D01*
X134177655Y-128273879D01*
X133989640Y-128196950D01*
X133857680Y-128280617D01*
X133507680Y-128280617D01*
X133375720Y-128196950D01*
X133187705Y-128273879D01*
X133052369Y-128384710D01*
X132941255Y-128519814D01*
X132916426Y-128566149D01*
X132892286Y-128536734D01*
X132789504Y-128452382D01*
X132752680Y-128432699D01*
X132752680Y-123803033D01*
X132754324Y-123786340D01*
X132752680Y-123769647D01*
X132752680Y-123769639D01*
X132747760Y-123719688D01*
X132728319Y-123655598D01*
X132696747Y-123596532D01*
X132679567Y-123575599D01*
X132664905Y-123557733D01*
X132664901Y-123557729D01*
X132654258Y-123544761D01*
X132641291Y-123534119D01*
X132510630Y-123403459D01*
X132512680Y-123403638D01*
X132605796Y-123394467D01*
X132695334Y-123367306D01*
X132777853Y-123323199D01*
X132850181Y-123263841D01*
X132909539Y-123191513D01*
X132953646Y-123108994D01*
X132980807Y-123019456D01*
X132989978Y-122926340D01*
X134335382Y-122926340D01*
X134344553Y-123019456D01*
X134371714Y-123108994D01*
X134415821Y-123191513D01*
X134475179Y-123263841D01*
X134547507Y-123323199D01*
X134630026Y-123367306D01*
X134719564Y-123394467D01*
X134812680Y-123403638D01*
X134838930Y-123401340D01*
X134957680Y-123282590D01*
X134957680Y-122806340D01*
X135307680Y-122806340D01*
X135307680Y-123282590D01*
X135426430Y-123401340D01*
X135452680Y-123403638D01*
X135545796Y-123394467D01*
X135635334Y-123367306D01*
X135717853Y-123323199D01*
X135790181Y-123263841D01*
X135849539Y-123191513D01*
X135893646Y-123108994D01*
X135920807Y-123019456D01*
X135929978Y-122926340D01*
X135927680Y-122925090D01*
X135808930Y-122806340D01*
X135307680Y-122806340D01*
X134957680Y-122806340D01*
X134456430Y-122806340D01*
X134337680Y-122925090D01*
X134335382Y-122926340D01*
X132989978Y-122926340D01*
X132987680Y-122925090D01*
X132868930Y-122806340D01*
X132367680Y-122806340D01*
X132367680Y-122826340D01*
X132017680Y-122826340D01*
X132017680Y-122806340D01*
X131997680Y-122806340D01*
X131997680Y-122456340D01*
X132017680Y-122456340D01*
X132017680Y-122436340D01*
X132367680Y-122436340D01*
X132367680Y-122456340D01*
X132868930Y-122456340D01*
X132987680Y-122337590D01*
X132989978Y-122336340D01*
X132984246Y-122278146D01*
X133030180Y-122282670D01*
X133325180Y-122282670D01*
X133407865Y-122274526D01*
X133487373Y-122250408D01*
X133560647Y-122211242D01*
X133624873Y-122158533D01*
X133662680Y-122112465D01*
X133700487Y-122158533D01*
G37*
%TD.AperFunction*%
D25*
X130952640Y-124391101D02*
X130952641Y-127436320D01*
X129813399Y-127436320D01*
X129796706Y-127434676D01*
X129780013Y-127436320D01*
X129780006Y-127436320D01*
X129730055Y-127441240D01*
X129665965Y-127460681D01*
X129606899Y-127492253D01*
X129555128Y-127534741D01*
X129544482Y-127547713D01*
X129085856Y-128006340D01*
X128369373Y-128006340D01*
X128352680Y-128004696D01*
X128335987Y-128006340D01*
X128335979Y-128006340D01*
X128286028Y-128011260D01*
X128235147Y-128026694D01*
X128781287Y-127480555D01*
X128794259Y-127469909D01*
X128836747Y-127418138D01*
X128868319Y-127359072D01*
X128887760Y-127294982D01*
X128892680Y-127245031D01*
X128892680Y-127245023D01*
X128894324Y-127228330D01*
X128892680Y-127211637D01*
X128892680Y-124952717D01*
X128904170Y-124931221D01*
X128922740Y-124870004D01*
X128929010Y-124806340D01*
X128929010Y-124194043D01*
X128990181Y-124143841D01*
X129040383Y-124082670D01*
X129652680Y-124082670D01*
X129716344Y-124076400D01*
X129777561Y-124057830D01*
X129799057Y-124046340D01*
X130607881Y-124046340D01*
X130952640Y-124391101D01*
%TA.AperFunction,Conductor*%
D26*
G36*
X130952640Y-124391101D02*
G01*
X130952641Y-127436320D01*
X129813399Y-127436320D01*
X129796706Y-127434676D01*
X129780013Y-127436320D01*
X129780006Y-127436320D01*
X129730055Y-127441240D01*
X129665965Y-127460681D01*
X129606899Y-127492253D01*
X129555128Y-127534741D01*
X129544482Y-127547713D01*
X129085856Y-128006340D01*
X128369373Y-128006340D01*
X128352680Y-128004696D01*
X128335987Y-128006340D01*
X128335979Y-128006340D01*
X128286028Y-128011260D01*
X128235147Y-128026694D01*
X128781287Y-127480555D01*
X128794259Y-127469909D01*
X128836747Y-127418138D01*
X128868319Y-127359072D01*
X128887760Y-127294982D01*
X128892680Y-127245031D01*
X128892680Y-127245023D01*
X128894324Y-127228330D01*
X128892680Y-127211637D01*
X128892680Y-124952717D01*
X128904170Y-124931221D01*
X128922740Y-124870004D01*
X128929010Y-124806340D01*
X128929010Y-124194043D01*
X128990181Y-124143841D01*
X129040383Y-124082670D01*
X129652680Y-124082670D01*
X129716344Y-124076400D01*
X129777561Y-124057830D01*
X129799057Y-124046340D01*
X130607881Y-124046340D01*
X130952640Y-124391101D01*
G37*
%TD.AperFunction*%
D25*
X118220948Y-126420294D02*
X118233470Y-126435552D01*
X118239241Y-126440288D01*
X117277460Y-126440288D01*
X116401259Y-125564088D01*
X116426638Y-125533164D01*
X116489316Y-125415901D01*
X116527913Y-125288663D01*
X116540946Y-125156340D01*
X116527913Y-125024017D01*
X116489316Y-124896779D01*
X116426638Y-124779516D01*
X116342286Y-124676734D01*
X116239504Y-124592382D01*
X116122241Y-124529704D01*
X116094668Y-124521340D01*
X116122241Y-124512976D01*
X116239504Y-124450298D01*
X116245792Y-124445137D01*
X118220948Y-126420294D01*
%TA.AperFunction,Conductor*%
D26*
G36*
X118220948Y-126420294D02*
G01*
X118233470Y-126435552D01*
X118239241Y-126440288D01*
X117277460Y-126440288D01*
X116401259Y-125564088D01*
X116426638Y-125533164D01*
X116489316Y-125415901D01*
X116527913Y-125288663D01*
X116540946Y-125156340D01*
X116527913Y-125024017D01*
X116489316Y-124896779D01*
X116426638Y-124779516D01*
X116342286Y-124676734D01*
X116239504Y-124592382D01*
X116122241Y-124529704D01*
X116094668Y-124521340D01*
X116122241Y-124512976D01*
X116239504Y-124450298D01*
X116245792Y-124445137D01*
X118220948Y-126420294D01*
G37*
%TD.AperFunction*%
D25*
X121461714Y-125128994D02*
X121505821Y-125211513D01*
X121565179Y-125283841D01*
X121637507Y-125343199D01*
X121647432Y-125348504D01*
X121634494Y-125391155D01*
X121626350Y-125473840D01*
X121626350Y-125651985D01*
X121526994Y-125751341D01*
X118683367Y-125751341D01*
X118528366Y-125596340D01*
X120768319Y-125596340D01*
X120785012Y-125597984D01*
X120801705Y-125596340D01*
X120801713Y-125596340D01*
X120851664Y-125591420D01*
X120915754Y-125571979D01*
X120974820Y-125540407D01*
X121026591Y-125497919D01*
X121037242Y-125484941D01*
X121445765Y-125076418D01*
X121461714Y-125128994D01*
%TA.AperFunction,Conductor*%
D26*
G36*
X121461714Y-125128994D02*
G01*
X121505821Y-125211513D01*
X121565179Y-125283841D01*
X121637507Y-125343199D01*
X121647432Y-125348504D01*
X121634494Y-125391155D01*
X121626350Y-125473840D01*
X121626350Y-125651985D01*
X121526994Y-125751341D01*
X118683367Y-125751341D01*
X118528366Y-125596340D01*
X120768319Y-125596340D01*
X120785012Y-125597984D01*
X120801705Y-125596340D01*
X120801713Y-125596340D01*
X120851664Y-125591420D01*
X120915754Y-125571979D01*
X120974820Y-125540407D01*
X121026591Y-125497919D01*
X121037242Y-125484941D01*
X121445765Y-125076418D01*
X121461714Y-125128994D01*
G37*
%TD.AperFunction*%
D25*
X122927799Y-124057830D02*
X122989016Y-124076400D01*
X123052680Y-124082670D01*
X123664977Y-124082670D01*
X123715179Y-124143841D01*
X123776350Y-124194043D01*
X123776350Y-124318977D01*
X123758468Y-124377927D01*
X123752680Y-124436694D01*
X123752680Y-124580654D01*
X123291995Y-125041340D01*
X123226047Y-125041340D01*
X123114959Y-125063437D01*
X123010315Y-125106782D01*
X122985317Y-125123485D01*
X123010807Y-125039456D01*
X123019978Y-124946340D01*
X123017680Y-124945090D01*
X122898930Y-124826340D01*
X122397680Y-124826340D01*
X122397680Y-124846340D01*
X122047680Y-124846340D01*
X122047680Y-124826340D01*
X122027680Y-124826340D01*
X122027680Y-124494504D01*
X122045844Y-124476340D01*
X122047680Y-124476340D01*
X122047680Y-124474504D01*
X122065844Y-124456340D01*
X122397680Y-124456340D01*
X122397680Y-124476340D01*
X122898930Y-124476340D01*
X123017680Y-124357590D01*
X123019978Y-124356340D01*
X123010807Y-124263224D01*
X122983646Y-124173686D01*
X122939539Y-124091167D01*
X122902750Y-124046340D01*
X122906303Y-124046340D01*
X122927799Y-124057830D01*
%TA.AperFunction,Conductor*%
D26*
G36*
X122927799Y-124057830D02*
G01*
X122989016Y-124076400D01*
X123052680Y-124082670D01*
X123664977Y-124082670D01*
X123715179Y-124143841D01*
X123776350Y-124194043D01*
X123776350Y-124318977D01*
X123758468Y-124377927D01*
X123752680Y-124436694D01*
X123752680Y-124580654D01*
X123291995Y-125041340D01*
X123226047Y-125041340D01*
X123114959Y-125063437D01*
X123010315Y-125106782D01*
X122985317Y-125123485D01*
X123010807Y-125039456D01*
X123019978Y-124946340D01*
X123017680Y-124945090D01*
X122898930Y-124826340D01*
X122397680Y-124826340D01*
X122397680Y-124846340D01*
X122047680Y-124846340D01*
X122047680Y-124826340D01*
X122027680Y-124826340D01*
X122027680Y-124494504D01*
X122045844Y-124476340D01*
X122047680Y-124476340D01*
X122047680Y-124474504D01*
X122065844Y-124456340D01*
X122397680Y-124456340D01*
X122397680Y-124476340D01*
X122898930Y-124476340D01*
X123017680Y-124357590D01*
X123019978Y-124356340D01*
X123010807Y-124263224D01*
X122983646Y-124173686D01*
X122939539Y-124091167D01*
X122902750Y-124046340D01*
X122906303Y-124046340D01*
X122927799Y-124057830D01*
G37*
%TD.AperFunction*%
D25*
X135407414Y-111266946D02*
X135403634Y-111273999D01*
X135352680Y-111441340D01*
X135352680Y-111791340D01*
X136052680Y-111791340D01*
X136052680Y-111771340D01*
X136402680Y-111771340D01*
X136402680Y-111791340D01*
X137322680Y-111791340D01*
X137322680Y-111771340D01*
X137672680Y-111771340D01*
X137672680Y-111791340D01*
X138372680Y-111791340D01*
X138372680Y-111441340D01*
X138321726Y-111273999D01*
X138317961Y-111266973D01*
X138681235Y-111266976D01*
X138672461Y-124691340D01*
X138576183Y-124691340D01*
X138562680Y-124690010D01*
X138062680Y-124690010D01*
X138049177Y-124691340D01*
X137590142Y-124691340D01*
X137397680Y-124498878D01*
X137397680Y-122722119D01*
X137400219Y-122696339D01*
X137397680Y-122670559D01*
X137397680Y-122670552D01*
X137390083Y-122593422D01*
X137360063Y-122494459D01*
X137311313Y-122403254D01*
X137245707Y-122323313D01*
X137225676Y-122306874D01*
X136227151Y-121308350D01*
X136210707Y-121288313D01*
X136130766Y-121222707D01*
X136039561Y-121173957D01*
X135940598Y-121143937D01*
X135863468Y-121136340D01*
X135863460Y-121136340D01*
X135837680Y-121133801D01*
X135811900Y-121136340D01*
X135493692Y-121136340D01*
X135467373Y-121122272D01*
X135387865Y-121098154D01*
X135305180Y-121090010D01*
X134960180Y-121090010D01*
X134877495Y-121098154D01*
X134797987Y-121122272D01*
X134724713Y-121161438D01*
X134660487Y-121214147D01*
X134627680Y-121254122D01*
X134594873Y-121214147D01*
X134530647Y-121161438D01*
X134457373Y-121122272D01*
X134377865Y-121098154D01*
X134295180Y-121090010D01*
X134000180Y-121090010D01*
X133917495Y-121098154D01*
X133857670Y-121116301D01*
X133893646Y-121048994D01*
X133920807Y-120959456D01*
X133929978Y-120866340D01*
X133927680Y-120840090D01*
X133808930Y-120721340D01*
X133332680Y-120721340D01*
X133332680Y-120741340D01*
X132982680Y-120741340D01*
X132982680Y-120721340D01*
X132962680Y-120721340D01*
X132962680Y-120371340D01*
X132982680Y-120371340D01*
X132982680Y-119870090D01*
X132972680Y-119860090D01*
X132972680Y-119671340D01*
X133322680Y-119671340D01*
X133322680Y-120172590D01*
X133332680Y-120182590D01*
X133332680Y-120371340D01*
X133808930Y-120371340D01*
X133927680Y-120252590D01*
X133929978Y-120226340D01*
X133920807Y-120133224D01*
X133893646Y-120043686D01*
X133876702Y-120011986D01*
X133883646Y-119998994D01*
X133910807Y-119909456D01*
X133919978Y-119816340D01*
X133917680Y-119790090D01*
X133798930Y-119671340D01*
X133322680Y-119671340D01*
X132972680Y-119671340D01*
X132952680Y-119671340D01*
X132952680Y-119321340D01*
X132972680Y-119321340D01*
X132972680Y-118820090D01*
X133322680Y-118820090D01*
X133322680Y-119321340D01*
X133798930Y-119321340D01*
X133917680Y-119202590D01*
X133919978Y-119176340D01*
X133910807Y-119083224D01*
X133883646Y-118993686D01*
X133839539Y-118911167D01*
X133780181Y-118838839D01*
X133707853Y-118779481D01*
X133625334Y-118735374D01*
X133535796Y-118708213D01*
X133442680Y-118699042D01*
X133441430Y-118701340D01*
X133322680Y-118820090D01*
X132972680Y-118820090D01*
X132853930Y-118701340D01*
X132852680Y-118699042D01*
X132759564Y-118708213D01*
X132670026Y-118735374D01*
X132587507Y-118779481D01*
X132515179Y-118838839D01*
X132455821Y-118911167D01*
X132450516Y-118921092D01*
X132407865Y-118908154D01*
X132325180Y-118900010D01*
X132030180Y-118900010D01*
X131947495Y-118908154D01*
X131867987Y-118932272D01*
X131794713Y-118971438D01*
X131730487Y-119024147D01*
X131677778Y-119088373D01*
X131641449Y-119156340D01*
X131189373Y-119156340D01*
X131172680Y-119154696D01*
X131155987Y-119156340D01*
X131155979Y-119156340D01*
X131131058Y-119158795D01*
X131643513Y-118646340D01*
X135465987Y-118646340D01*
X135482680Y-118647984D01*
X135499373Y-118646340D01*
X135499381Y-118646340D01*
X135549332Y-118641420D01*
X135613422Y-118621979D01*
X135672488Y-118590407D01*
X135724259Y-118547919D01*
X135734909Y-118534942D01*
X136601291Y-117668561D01*
X136614258Y-117657919D01*
X136624901Y-117644951D01*
X136624905Y-117644947D01*
X136656747Y-117606148D01*
X136668886Y-117583437D01*
X136688319Y-117547082D01*
X136707760Y-117482992D01*
X136712680Y-117433041D01*
X136712680Y-117433034D01*
X136714324Y-117416341D01*
X136712680Y-117399648D01*
X136712680Y-116146493D01*
X136714324Y-116129800D01*
X136712680Y-116113107D01*
X136712680Y-116113099D01*
X136707760Y-116063148D01*
X136688319Y-115999058D01*
X136656747Y-115939992D01*
X136614259Y-115888221D01*
X136601287Y-115877575D01*
X136203550Y-115479839D01*
X136203550Y-115216840D01*
X136195406Y-115134155D01*
X136171288Y-115054647D01*
X136132122Y-114981373D01*
X136079413Y-114917147D01*
X136015187Y-114864438D01*
X135941913Y-114825272D01*
X135862405Y-114801154D01*
X135779720Y-114793010D01*
X135434720Y-114793010D01*
X135352035Y-114801154D01*
X135272527Y-114825272D01*
X135199253Y-114864438D01*
X135135027Y-114917147D01*
X135082318Y-114981373D01*
X135059352Y-115024340D01*
X134971070Y-115024340D01*
X134971070Y-114998400D01*
X134965760Y-114944491D01*
X134950036Y-114892653D01*
X134924500Y-114844879D01*
X134890135Y-114803005D01*
X134848261Y-114768640D01*
X134800487Y-114743104D01*
X134748649Y-114727380D01*
X134694740Y-114722070D01*
X133794740Y-114722070D01*
X133740831Y-114727380D01*
X133695778Y-114741046D01*
X133691599Y-114733227D01*
X133632241Y-114660899D01*
X133559913Y-114601541D01*
X133477394Y-114557434D01*
X133387856Y-114530273D01*
X133294740Y-114521102D01*
X133138490Y-114523400D01*
X133019740Y-114642150D01*
X133019740Y-115223400D01*
X133039740Y-115223400D01*
X133039740Y-115573400D01*
X133019740Y-115573400D01*
X133019740Y-115593400D01*
X132669740Y-115593400D01*
X132669740Y-115573400D01*
X132238290Y-115573400D01*
X132204230Y-115539340D01*
X131702980Y-115539340D01*
X131702980Y-115559340D01*
X131352980Y-115559340D01*
X131352980Y-115539340D01*
X131181930Y-115539340D01*
X131178930Y-115536340D01*
X130677680Y-115536340D01*
X130677680Y-115556340D01*
X130327680Y-115556340D01*
X130327680Y-115536340D01*
X129826430Y-115536340D01*
X129707680Y-115655090D01*
X129705382Y-115656340D01*
X129714553Y-115749456D01*
X129741714Y-115838994D01*
X129785821Y-115921513D01*
X129845179Y-115993841D01*
X129917507Y-116053199D01*
X129927432Y-116058504D01*
X129914494Y-116101155D01*
X129906350Y-116183840D01*
X129906350Y-116361985D01*
X129682680Y-116585655D01*
X129682680Y-115066340D01*
X129705382Y-115066340D01*
X129707680Y-115067590D01*
X129826430Y-115186340D01*
X130327680Y-115186340D01*
X130327680Y-114710090D01*
X130677680Y-114710090D01*
X130677680Y-115186340D01*
X130848730Y-115186340D01*
X130851730Y-115189340D01*
X131352980Y-115189340D01*
X131352980Y-114713090D01*
X131702980Y-114713090D01*
X131702980Y-115189340D01*
X132004430Y-115189340D01*
X132038490Y-115223400D01*
X132669740Y-115223400D01*
X132669740Y-114642150D01*
X132550990Y-114523400D01*
X132394740Y-114521102D01*
X132301624Y-114530273D01*
X132212086Y-114557434D01*
X132129567Y-114601541D01*
X132070746Y-114649814D01*
X132030634Y-114628374D01*
X131941096Y-114601213D01*
X131847980Y-114592042D01*
X131821730Y-114594340D01*
X131702980Y-114713090D01*
X131352980Y-114713090D01*
X131234230Y-114594340D01*
X131207980Y-114592042D01*
X131114864Y-114601213D01*
X131025326Y-114628374D01*
X131018136Y-114632217D01*
X131005334Y-114625374D01*
X130915796Y-114598213D01*
X130822680Y-114589042D01*
X130796430Y-114591340D01*
X130677680Y-114710090D01*
X130327680Y-114710090D01*
X130208930Y-114591340D01*
X130182680Y-114589042D01*
X130089564Y-114598213D01*
X130000026Y-114625374D01*
X129917507Y-114669481D01*
X129845179Y-114728839D01*
X129785821Y-114801167D01*
X129741714Y-114883686D01*
X129714553Y-114973224D01*
X129705382Y-115066340D01*
X129682680Y-115066340D01*
X129682680Y-114572025D01*
X130058346Y-114196360D01*
X132133024Y-114196360D01*
X132152670Y-114198295D01*
X132172316Y-114196360D01*
X132172317Y-114196360D01*
X132231084Y-114190572D01*
X132306484Y-114167700D01*
X132375973Y-114130557D01*
X132436881Y-114080571D01*
X132449407Y-114065308D01*
X133460424Y-113054292D01*
X133550357Y-113081573D01*
X133682680Y-113094606D01*
X133815002Y-113081573D01*
X133942240Y-113042976D01*
X134059503Y-112980298D01*
X134162285Y-112895946D01*
X134246638Y-112793164D01*
X134309316Y-112675901D01*
X134347913Y-112548663D01*
X134357680Y-112449499D01*
X134357680Y-112141340D01*
X135352680Y-112141340D01*
X135352680Y-112491340D01*
X135403634Y-112658681D01*
X135486255Y-112812866D01*
X135597369Y-112947970D01*
X135732705Y-113058801D01*
X135920720Y-113135730D01*
X136052680Y-113052063D01*
X136052680Y-112141340D01*
X136402680Y-112141340D01*
X136402680Y-113052063D01*
X136534640Y-113135730D01*
X136722655Y-113058801D01*
X136857991Y-112947970D01*
X136862680Y-112942269D01*
X136867369Y-112947970D01*
X137002705Y-113058801D01*
X137190720Y-113135730D01*
X137322680Y-113052063D01*
X137322680Y-112141340D01*
X137672680Y-112141340D01*
X137672680Y-113052063D01*
X137804640Y-113135730D01*
X137992655Y-113058801D01*
X138127991Y-112947970D01*
X138239105Y-112812866D01*
X138321726Y-112658681D01*
X138372680Y-112491340D01*
X138372680Y-112141340D01*
X137672680Y-112141340D01*
X137322680Y-112141340D01*
X136402680Y-112141340D01*
X136052680Y-112141340D01*
X135352680Y-112141340D01*
X134357680Y-112141340D01*
X134357680Y-111683181D01*
X134347913Y-111584017D01*
X134309316Y-111456779D01*
X134246638Y-111339516D01*
X134187071Y-111266934D01*
X135407414Y-111266946D01*
%TA.AperFunction,Conductor*%
D26*
G36*
X135407414Y-111266946D02*
G01*
X135403634Y-111273999D01*
X135352680Y-111441340D01*
X135352680Y-111791340D01*
X136052680Y-111791340D01*
X136052680Y-111771340D01*
X136402680Y-111771340D01*
X136402680Y-111791340D01*
X137322680Y-111791340D01*
X137322680Y-111771340D01*
X137672680Y-111771340D01*
X137672680Y-111791340D01*
X138372680Y-111791340D01*
X138372680Y-111441340D01*
X138321726Y-111273999D01*
X138317961Y-111266973D01*
X138681235Y-111266976D01*
X138672461Y-124691340D01*
X138576183Y-124691340D01*
X138562680Y-124690010D01*
X138062680Y-124690010D01*
X138049177Y-124691340D01*
X137590142Y-124691340D01*
X137397680Y-124498878D01*
X137397680Y-122722119D01*
X137400219Y-122696339D01*
X137397680Y-122670559D01*
X137397680Y-122670552D01*
X137390083Y-122593422D01*
X137360063Y-122494459D01*
X137311313Y-122403254D01*
X137245707Y-122323313D01*
X137225676Y-122306874D01*
X136227151Y-121308350D01*
X136210707Y-121288313D01*
X136130766Y-121222707D01*
X136039561Y-121173957D01*
X135940598Y-121143937D01*
X135863468Y-121136340D01*
X135863460Y-121136340D01*
X135837680Y-121133801D01*
X135811900Y-121136340D01*
X135493692Y-121136340D01*
X135467373Y-121122272D01*
X135387865Y-121098154D01*
X135305180Y-121090010D01*
X134960180Y-121090010D01*
X134877495Y-121098154D01*
X134797987Y-121122272D01*
X134724713Y-121161438D01*
X134660487Y-121214147D01*
X134627680Y-121254122D01*
X134594873Y-121214147D01*
X134530647Y-121161438D01*
X134457373Y-121122272D01*
X134377865Y-121098154D01*
X134295180Y-121090010D01*
X134000180Y-121090010D01*
X133917495Y-121098154D01*
X133857670Y-121116301D01*
X133893646Y-121048994D01*
X133920807Y-120959456D01*
X133929978Y-120866340D01*
X133927680Y-120840090D01*
X133808930Y-120721340D01*
X133332680Y-120721340D01*
X133332680Y-120741340D01*
X132982680Y-120741340D01*
X132982680Y-120721340D01*
X132962680Y-120721340D01*
X132962680Y-120371340D01*
X132982680Y-120371340D01*
X132982680Y-119870090D01*
X132972680Y-119860090D01*
X132972680Y-119671340D01*
X133322680Y-119671340D01*
X133322680Y-120172590D01*
X133332680Y-120182590D01*
X133332680Y-120371340D01*
X133808930Y-120371340D01*
X133927680Y-120252590D01*
X133929978Y-120226340D01*
X133920807Y-120133224D01*
X133893646Y-120043686D01*
X133876702Y-120011986D01*
X133883646Y-119998994D01*
X133910807Y-119909456D01*
X133919978Y-119816340D01*
X133917680Y-119790090D01*
X133798930Y-119671340D01*
X133322680Y-119671340D01*
X132972680Y-119671340D01*
X132952680Y-119671340D01*
X132952680Y-119321340D01*
X132972680Y-119321340D01*
X132972680Y-118820090D01*
X133322680Y-118820090D01*
X133322680Y-119321340D01*
X133798930Y-119321340D01*
X133917680Y-119202590D01*
X133919978Y-119176340D01*
X133910807Y-119083224D01*
X133883646Y-118993686D01*
X133839539Y-118911167D01*
X133780181Y-118838839D01*
X133707853Y-118779481D01*
X133625334Y-118735374D01*
X133535796Y-118708213D01*
X133442680Y-118699042D01*
X133441430Y-118701340D01*
X133322680Y-118820090D01*
X132972680Y-118820090D01*
X132853930Y-118701340D01*
X132852680Y-118699042D01*
X132759564Y-118708213D01*
X132670026Y-118735374D01*
X132587507Y-118779481D01*
X132515179Y-118838839D01*
X132455821Y-118911167D01*
X132450516Y-118921092D01*
X132407865Y-118908154D01*
X132325180Y-118900010D01*
X132030180Y-118900010D01*
X131947495Y-118908154D01*
X131867987Y-118932272D01*
X131794713Y-118971438D01*
X131730487Y-119024147D01*
X131677778Y-119088373D01*
X131641449Y-119156340D01*
X131189373Y-119156340D01*
X131172680Y-119154696D01*
X131155987Y-119156340D01*
X131155979Y-119156340D01*
X131131058Y-119158795D01*
X131643513Y-118646340D01*
X135465987Y-118646340D01*
X135482680Y-118647984D01*
X135499373Y-118646340D01*
X135499381Y-118646340D01*
X135549332Y-118641420D01*
X135613422Y-118621979D01*
X135672488Y-118590407D01*
X135724259Y-118547919D01*
X135734909Y-118534942D01*
X136601291Y-117668561D01*
X136614258Y-117657919D01*
X136624901Y-117644951D01*
X136624905Y-117644947D01*
X136656747Y-117606148D01*
X136668886Y-117583437D01*
X136688319Y-117547082D01*
X136707760Y-117482992D01*
X136712680Y-117433041D01*
X136712680Y-117433034D01*
X136714324Y-117416341D01*
X136712680Y-117399648D01*
X136712680Y-116146493D01*
X136714324Y-116129800D01*
X136712680Y-116113107D01*
X136712680Y-116113099D01*
X136707760Y-116063148D01*
X136688319Y-115999058D01*
X136656747Y-115939992D01*
X136614259Y-115888221D01*
X136601287Y-115877575D01*
X136203550Y-115479839D01*
X136203550Y-115216840D01*
X136195406Y-115134155D01*
X136171288Y-115054647D01*
X136132122Y-114981373D01*
X136079413Y-114917147D01*
X136015187Y-114864438D01*
X135941913Y-114825272D01*
X135862405Y-114801154D01*
X135779720Y-114793010D01*
X135434720Y-114793010D01*
X135352035Y-114801154D01*
X135272527Y-114825272D01*
X135199253Y-114864438D01*
X135135027Y-114917147D01*
X135082318Y-114981373D01*
X135059352Y-115024340D01*
X134971070Y-115024340D01*
X134971070Y-114998400D01*
X134965760Y-114944491D01*
X134950036Y-114892653D01*
X134924500Y-114844879D01*
X134890135Y-114803005D01*
X134848261Y-114768640D01*
X134800487Y-114743104D01*
X134748649Y-114727380D01*
X134694740Y-114722070D01*
X133794740Y-114722070D01*
X133740831Y-114727380D01*
X133695778Y-114741046D01*
X133691599Y-114733227D01*
X133632241Y-114660899D01*
X133559913Y-114601541D01*
X133477394Y-114557434D01*
X133387856Y-114530273D01*
X133294740Y-114521102D01*
X133138490Y-114523400D01*
X133019740Y-114642150D01*
X133019740Y-115223400D01*
X133039740Y-115223400D01*
X133039740Y-115573400D01*
X133019740Y-115573400D01*
X133019740Y-115593400D01*
X132669740Y-115593400D01*
X132669740Y-115573400D01*
X132238290Y-115573400D01*
X132204230Y-115539340D01*
X131702980Y-115539340D01*
X131702980Y-115559340D01*
X131352980Y-115559340D01*
X131352980Y-115539340D01*
X131181930Y-115539340D01*
X131178930Y-115536340D01*
X130677680Y-115536340D01*
X130677680Y-115556340D01*
X130327680Y-115556340D01*
X130327680Y-115536340D01*
X129826430Y-115536340D01*
X129707680Y-115655090D01*
X129705382Y-115656340D01*
X129714553Y-115749456D01*
X129741714Y-115838994D01*
X129785821Y-115921513D01*
X129845179Y-115993841D01*
X129917507Y-116053199D01*
X129927432Y-116058504D01*
X129914494Y-116101155D01*
X129906350Y-116183840D01*
X129906350Y-116361985D01*
X129682680Y-116585655D01*
X129682680Y-115066340D01*
X129705382Y-115066340D01*
X129707680Y-115067590D01*
X129826430Y-115186340D01*
X130327680Y-115186340D01*
X130327680Y-114710090D01*
X130677680Y-114710090D01*
X130677680Y-115186340D01*
X130848730Y-115186340D01*
X130851730Y-115189340D01*
X131352980Y-115189340D01*
X131352980Y-114713090D01*
X131702980Y-114713090D01*
X131702980Y-115189340D01*
X132004430Y-115189340D01*
X132038490Y-115223400D01*
X132669740Y-115223400D01*
X132669740Y-114642150D01*
X132550990Y-114523400D01*
X132394740Y-114521102D01*
X132301624Y-114530273D01*
X132212086Y-114557434D01*
X132129567Y-114601541D01*
X132070746Y-114649814D01*
X132030634Y-114628374D01*
X131941096Y-114601213D01*
X131847980Y-114592042D01*
X131821730Y-114594340D01*
X131702980Y-114713090D01*
X131352980Y-114713090D01*
X131234230Y-114594340D01*
X131207980Y-114592042D01*
X131114864Y-114601213D01*
X131025326Y-114628374D01*
X131018136Y-114632217D01*
X131005334Y-114625374D01*
X130915796Y-114598213D01*
X130822680Y-114589042D01*
X130796430Y-114591340D01*
X130677680Y-114710090D01*
X130327680Y-114710090D01*
X130208930Y-114591340D01*
X130182680Y-114589042D01*
X130089564Y-114598213D01*
X130000026Y-114625374D01*
X129917507Y-114669481D01*
X129845179Y-114728839D01*
X129785821Y-114801167D01*
X129741714Y-114883686D01*
X129714553Y-114973224D01*
X129705382Y-115066340D01*
X129682680Y-115066340D01*
X129682680Y-114572025D01*
X130058346Y-114196360D01*
X132133024Y-114196360D01*
X132152670Y-114198295D01*
X132172316Y-114196360D01*
X132172317Y-114196360D01*
X132231084Y-114190572D01*
X132306484Y-114167700D01*
X132375973Y-114130557D01*
X132436881Y-114080571D01*
X132449407Y-114065308D01*
X133460424Y-113054292D01*
X133550357Y-113081573D01*
X133682680Y-113094606D01*
X133815002Y-113081573D01*
X133942240Y-113042976D01*
X134059503Y-112980298D01*
X134162285Y-112895946D01*
X134246638Y-112793164D01*
X134309316Y-112675901D01*
X134347913Y-112548663D01*
X134357680Y-112449499D01*
X134357680Y-112141340D01*
X135352680Y-112141340D01*
X135352680Y-112491340D01*
X135403634Y-112658681D01*
X135486255Y-112812866D01*
X135597369Y-112947970D01*
X135732705Y-113058801D01*
X135920720Y-113135730D01*
X136052680Y-113052063D01*
X136052680Y-112141340D01*
X136402680Y-112141340D01*
X136402680Y-113052063D01*
X136534640Y-113135730D01*
X136722655Y-113058801D01*
X136857991Y-112947970D01*
X136862680Y-112942269D01*
X136867369Y-112947970D01*
X137002705Y-113058801D01*
X137190720Y-113135730D01*
X137322680Y-113052063D01*
X137322680Y-112141340D01*
X137672680Y-112141340D01*
X137672680Y-113052063D01*
X137804640Y-113135730D01*
X137992655Y-113058801D01*
X138127991Y-112947970D01*
X138239105Y-112812866D01*
X138321726Y-112658681D01*
X138372680Y-112491340D01*
X138372680Y-112141340D01*
X137672680Y-112141340D01*
X137322680Y-112141340D01*
X136402680Y-112141340D01*
X136052680Y-112141340D01*
X135352680Y-112141340D01*
X134357680Y-112141340D01*
X134357680Y-111683181D01*
X134347913Y-111584017D01*
X134309316Y-111456779D01*
X134246638Y-111339516D01*
X134187071Y-111266934D01*
X135407414Y-111266946D01*
G37*
%TD.AperFunction*%
D25*
X119582680Y-121181340D02*
X119602680Y-121181340D01*
X119602680Y-121531340D01*
X119582680Y-121531340D01*
X119582680Y-122032590D01*
X119701430Y-122151340D01*
X119702680Y-122153638D01*
X119795796Y-122144467D01*
X119885334Y-122117306D01*
X119967853Y-122073199D01*
X120040181Y-122013841D01*
X120099539Y-121941513D01*
X120104844Y-121931588D01*
X120147495Y-121944526D01*
X120230180Y-121952670D01*
X120399524Y-121952670D01*
X119813717Y-122538478D01*
X119091644Y-122538476D01*
X118852751Y-122299585D01*
X118852751Y-122076002D01*
X118930026Y-122117306D01*
X119019564Y-122144467D01*
X119112680Y-122153638D01*
X119113930Y-122151340D01*
X119232680Y-122032590D01*
X119232680Y-121531340D01*
X119212680Y-121531340D01*
X119212680Y-121181340D01*
X119232680Y-121181340D01*
X119232680Y-121161340D01*
X119582680Y-121161340D01*
X119582680Y-121181340D01*
%TA.AperFunction,Conductor*%
D26*
G36*
X119582680Y-121181340D02*
G01*
X119602680Y-121181340D01*
X119602680Y-121531340D01*
X119582680Y-121531340D01*
X119582680Y-122032590D01*
X119701430Y-122151340D01*
X119702680Y-122153638D01*
X119795796Y-122144467D01*
X119885334Y-122117306D01*
X119967853Y-122073199D01*
X120040181Y-122013841D01*
X120099539Y-121941513D01*
X120104844Y-121931588D01*
X120147495Y-121944526D01*
X120230180Y-121952670D01*
X120399524Y-121952670D01*
X119813717Y-122538478D01*
X119091644Y-122538476D01*
X118852751Y-122299585D01*
X118852751Y-122076002D01*
X118930026Y-122117306D01*
X119019564Y-122144467D01*
X119112680Y-122153638D01*
X119113930Y-122151340D01*
X119232680Y-122032590D01*
X119232680Y-121531340D01*
X119212680Y-121531340D01*
X119212680Y-121181340D01*
X119232680Y-121181340D01*
X119232680Y-121161340D01*
X119582680Y-121161340D01*
X119582680Y-121181340D01*
G37*
%TD.AperFunction*%
D25*
X126527680Y-121331340D02*
X126547680Y-121331340D01*
X126547680Y-121681340D01*
X126527680Y-121681340D01*
X126527680Y-121701340D01*
X126177680Y-121701340D01*
X126177680Y-121681340D01*
X126157680Y-121681340D01*
X126157680Y-121331340D01*
X126177680Y-121331340D01*
X126177680Y-121311340D01*
X126527680Y-121311340D01*
X126527680Y-121331340D01*
%TA.AperFunction,Conductor*%
D26*
G36*
X126527680Y-121331340D02*
G01*
X126547680Y-121331340D01*
X126547680Y-121681340D01*
X126527680Y-121681340D01*
X126527680Y-121701340D01*
X126177680Y-121701340D01*
X126177680Y-121681340D01*
X126157680Y-121681340D01*
X126157680Y-121331340D01*
X126177680Y-121331340D01*
X126177680Y-121311340D01*
X126527680Y-121311340D01*
X126527680Y-121331340D01*
G37*
%TD.AperFunction*%
D25*
X120949010Y-121403184D02*
X120949010Y-121183840D01*
X120940866Y-121101155D01*
X120916748Y-121021647D01*
X120877582Y-120948373D01*
X120824873Y-120884147D01*
X120789943Y-120855481D01*
X120826201Y-120836100D01*
X120868075Y-120801735D01*
X120902440Y-120759861D01*
X120927976Y-120712087D01*
X120943700Y-120660249D01*
X120949010Y-120606340D01*
X120949010Y-120481340D01*
X121870853Y-120481340D01*
X120949010Y-121403184D01*
%TA.AperFunction,Conductor*%
D26*
G36*
X120949010Y-121403184D02*
G01*
X120949010Y-121183840D01*
X120940866Y-121101155D01*
X120916748Y-121021647D01*
X120877582Y-120948373D01*
X120824873Y-120884147D01*
X120789943Y-120855481D01*
X120826201Y-120836100D01*
X120868075Y-120801735D01*
X120902440Y-120759861D01*
X120927976Y-120712087D01*
X120943700Y-120660249D01*
X120949010Y-120606340D01*
X120949010Y-120481340D01*
X121870853Y-120481340D01*
X120949010Y-121403184D01*
G37*
%TD.AperFunction*%
D25*
X129497680Y-121306340D02*
X129283033Y-121306340D01*
X129224266Y-121312128D01*
X129165316Y-121330010D01*
X129107680Y-121330010D01*
X129107680Y-121282670D01*
X129497680Y-121282670D01*
X129497680Y-121306340D01*
%TA.AperFunction,Conductor*%
D26*
G36*
X129497680Y-121306340D02*
G01*
X129283033Y-121306340D01*
X129224266Y-121312128D01*
X129165316Y-121330010D01*
X129107680Y-121330010D01*
X129107680Y-121282670D01*
X129497680Y-121282670D01*
X129497680Y-121306340D01*
G37*
%TD.AperFunction*%
D25*
X120876350Y-118478840D02*
X120884494Y-118561525D01*
X120897432Y-118604176D01*
X120887507Y-118609481D01*
X120815179Y-118668839D01*
X120755821Y-118741167D01*
X120711714Y-118823686D01*
X120684553Y-118913224D01*
X120675382Y-119006340D01*
X120677680Y-119007590D01*
X120796430Y-119126340D01*
X121297680Y-119126340D01*
X121297680Y-119106340D01*
X121647680Y-119106340D01*
X121647680Y-119126340D01*
X121667680Y-119126340D01*
X121667680Y-119476340D01*
X121647680Y-119476340D01*
X121647680Y-119496340D01*
X121297680Y-119496340D01*
X121297680Y-119476340D01*
X120915012Y-119476340D01*
X120902440Y-119452819D01*
X120868075Y-119410945D01*
X120826201Y-119376580D01*
X120778427Y-119351044D01*
X120726589Y-119335320D01*
X120672680Y-119330010D01*
X118872680Y-119330010D01*
X118852751Y-119331973D01*
X118852751Y-118380707D01*
X118872680Y-118382670D01*
X120672680Y-118382670D01*
X120726589Y-118377360D01*
X120778427Y-118361636D01*
X120826201Y-118336100D01*
X120868075Y-118301735D01*
X120876350Y-118291652D01*
X120876350Y-118478840D01*
%TA.AperFunction,Conductor*%
D26*
G36*
X120876350Y-118478840D02*
G01*
X120884494Y-118561525D01*
X120897432Y-118604176D01*
X120887507Y-118609481D01*
X120815179Y-118668839D01*
X120755821Y-118741167D01*
X120711714Y-118823686D01*
X120684553Y-118913224D01*
X120675382Y-119006340D01*
X120677680Y-119007590D01*
X120796430Y-119126340D01*
X121297680Y-119126340D01*
X121297680Y-119106340D01*
X121647680Y-119106340D01*
X121647680Y-119126340D01*
X121667680Y-119126340D01*
X121667680Y-119476340D01*
X121647680Y-119476340D01*
X121647680Y-119496340D01*
X121297680Y-119496340D01*
X121297680Y-119476340D01*
X120915012Y-119476340D01*
X120902440Y-119452819D01*
X120868075Y-119410945D01*
X120826201Y-119376580D01*
X120778427Y-119351044D01*
X120726589Y-119335320D01*
X120672680Y-119330010D01*
X118872680Y-119330010D01*
X118852751Y-119331973D01*
X118852751Y-118380707D01*
X118872680Y-118382670D01*
X120672680Y-118382670D01*
X120726589Y-118377360D01*
X120778427Y-118361636D01*
X120826201Y-118336100D01*
X120868075Y-118301735D01*
X120876350Y-118291652D01*
X120876350Y-118478840D01*
G37*
%TD.AperFunction*%
D25*
X131055787Y-116781533D02*
X131120013Y-116834242D01*
X131193287Y-116873408D01*
X131202681Y-116876257D01*
X131202680Y-117725508D01*
X129892070Y-119036118D01*
X129883430Y-119025590D01*
X129833979Y-118985007D01*
X129777561Y-118954850D01*
X129716344Y-118936280D01*
X129702680Y-118934934D01*
X129702680Y-118551912D01*
X129702996Y-118547862D01*
X129702680Y-118532299D01*
X129702680Y-118516693D01*
X129702281Y-118512640D01*
X129690983Y-117956210D01*
X129729312Y-117917881D01*
X129792238Y-117823705D01*
X129835583Y-117719061D01*
X129857680Y-117607973D01*
X129857680Y-117542025D01*
X130497035Y-116902670D01*
X130675180Y-116902670D01*
X130757865Y-116894526D01*
X130837373Y-116870408D01*
X130910647Y-116831242D01*
X130974873Y-116778533D01*
X131014099Y-116730736D01*
X131055787Y-116781533D01*
%TA.AperFunction,Conductor*%
D26*
G36*
X131055787Y-116781533D02*
G01*
X131120013Y-116834242D01*
X131193287Y-116873408D01*
X131202681Y-116876257D01*
X131202680Y-117725508D01*
X129892070Y-119036118D01*
X129883430Y-119025590D01*
X129833979Y-118985007D01*
X129777561Y-118954850D01*
X129716344Y-118936280D01*
X129702680Y-118934934D01*
X129702680Y-118551912D01*
X129702996Y-118547862D01*
X129702680Y-118532299D01*
X129702680Y-118516693D01*
X129702281Y-118512640D01*
X129690983Y-117956210D01*
X129729312Y-117917881D01*
X129792238Y-117823705D01*
X129835583Y-117719061D01*
X129857680Y-117607973D01*
X129857680Y-117542025D01*
X130497035Y-116902670D01*
X130675180Y-116902670D01*
X130757865Y-116894526D01*
X130837373Y-116870408D01*
X130910647Y-116831242D01*
X130974873Y-116778533D01*
X131014099Y-116730736D01*
X131055787Y-116781533D01*
G37*
%TD.AperFunction*%
D25*
X125812680Y-117845157D02*
X125801556Y-117830612D01*
X125731306Y-117768808D01*
X125650349Y-117721897D01*
X125561795Y-117691682D01*
X125496430Y-117681340D01*
X125377680Y-117800090D01*
X125377680Y-118192836D01*
X125376350Y-118206340D01*
X125376350Y-118730558D01*
X125329010Y-118730504D01*
X125329010Y-118206340D01*
X125327680Y-118192836D01*
X125327680Y-117800090D01*
X125292680Y-117765090D01*
X125292680Y-117248163D01*
X125449494Y-117091350D01*
X125812681Y-117091350D01*
X125812680Y-117845157D01*
%TA.AperFunction,Conductor*%
D26*
G36*
X125812680Y-117845157D02*
G01*
X125801556Y-117830612D01*
X125731306Y-117768808D01*
X125650349Y-117721897D01*
X125561795Y-117691682D01*
X125496430Y-117681340D01*
X125377680Y-117800090D01*
X125377680Y-118192836D01*
X125376350Y-118206340D01*
X125376350Y-118730558D01*
X125329010Y-118730504D01*
X125329010Y-118206340D01*
X125327680Y-118192836D01*
X125327680Y-117800090D01*
X125292680Y-117765090D01*
X125292680Y-117248163D01*
X125449494Y-117091350D01*
X125812681Y-117091350D01*
X125812680Y-117845157D01*
G37*
%TD.AperFunction*%
D25*
X135782220Y-116159340D02*
X135802220Y-116159340D01*
X135802220Y-116509340D01*
X135782220Y-116509340D01*
X135782220Y-116985590D01*
X135900970Y-117104340D01*
X135927220Y-117106638D01*
X136020336Y-117097467D01*
X136032680Y-117093722D01*
X136032680Y-117275508D01*
X135341849Y-117966340D01*
X131867644Y-117966340D01*
X131877760Y-117932992D01*
X131878776Y-117922679D01*
X131882680Y-117883041D01*
X131882680Y-117883033D01*
X131884324Y-117866340D01*
X131882680Y-117849647D01*
X131882680Y-116862714D01*
X131935947Y-116834242D01*
X132000173Y-116781533D01*
X132038903Y-116734340D01*
X132118410Y-116734340D01*
X132118410Y-116898400D01*
X132123720Y-116952309D01*
X132139444Y-117004147D01*
X132164980Y-117051921D01*
X132199345Y-117093795D01*
X132241219Y-117128160D01*
X132288993Y-117153696D01*
X132340831Y-117169420D01*
X132394740Y-117174730D01*
X133294740Y-117174730D01*
X133348649Y-117169420D01*
X133393702Y-117155754D01*
X133397881Y-117163573D01*
X133457239Y-117235901D01*
X133529567Y-117295259D01*
X133612086Y-117339366D01*
X133701624Y-117366527D01*
X133794740Y-117375698D01*
X133950990Y-117373400D01*
X134069740Y-117254650D01*
X134069740Y-116673400D01*
X134419740Y-116673400D01*
X134419740Y-117254650D01*
X134538490Y-117373400D01*
X134694740Y-117375698D01*
X134787856Y-117366527D01*
X134877394Y-117339366D01*
X134959913Y-117295259D01*
X135032241Y-117235901D01*
X135091599Y-117163573D01*
X135135706Y-117081054D01*
X135136068Y-117079862D01*
X135194104Y-117097467D01*
X135287220Y-117106638D01*
X135313470Y-117104340D01*
X135432220Y-116985590D01*
X135432220Y-116509340D01*
X134930970Y-116509340D01*
X134812220Y-116628090D01*
X134809922Y-116629340D01*
X134814261Y-116673400D01*
X134419740Y-116673400D01*
X134069740Y-116673400D01*
X134049740Y-116673400D01*
X134049740Y-116323400D01*
X134069740Y-116323400D01*
X134069740Y-116303400D01*
X134419740Y-116303400D01*
X134419740Y-116323400D01*
X135050990Y-116323400D01*
X135169740Y-116204650D01*
X135170720Y-116159340D01*
X135432220Y-116159340D01*
X135432220Y-116139340D01*
X135782220Y-116139340D01*
X135782220Y-116159340D01*
%TA.AperFunction,Conductor*%
D26*
G36*
X135782220Y-116159340D02*
G01*
X135802220Y-116159340D01*
X135802220Y-116509340D01*
X135782220Y-116509340D01*
X135782220Y-116985590D01*
X135900970Y-117104340D01*
X135927220Y-117106638D01*
X136020336Y-117097467D01*
X136032680Y-117093722D01*
X136032680Y-117275508D01*
X135341849Y-117966340D01*
X131867644Y-117966340D01*
X131877760Y-117932992D01*
X131878776Y-117922679D01*
X131882680Y-117883041D01*
X131882680Y-117883033D01*
X131884324Y-117866340D01*
X131882680Y-117849647D01*
X131882680Y-116862714D01*
X131935947Y-116834242D01*
X132000173Y-116781533D01*
X132038903Y-116734340D01*
X132118410Y-116734340D01*
X132118410Y-116898400D01*
X132123720Y-116952309D01*
X132139444Y-117004147D01*
X132164980Y-117051921D01*
X132199345Y-117093795D01*
X132241219Y-117128160D01*
X132288993Y-117153696D01*
X132340831Y-117169420D01*
X132394740Y-117174730D01*
X133294740Y-117174730D01*
X133348649Y-117169420D01*
X133393702Y-117155754D01*
X133397881Y-117163573D01*
X133457239Y-117235901D01*
X133529567Y-117295259D01*
X133612086Y-117339366D01*
X133701624Y-117366527D01*
X133794740Y-117375698D01*
X133950990Y-117373400D01*
X134069740Y-117254650D01*
X134069740Y-116673400D01*
X134419740Y-116673400D01*
X134419740Y-117254650D01*
X134538490Y-117373400D01*
X134694740Y-117375698D01*
X134787856Y-117366527D01*
X134877394Y-117339366D01*
X134959913Y-117295259D01*
X135032241Y-117235901D01*
X135091599Y-117163573D01*
X135135706Y-117081054D01*
X135136068Y-117079862D01*
X135194104Y-117097467D01*
X135287220Y-117106638D01*
X135313470Y-117104340D01*
X135432220Y-116985590D01*
X135432220Y-116509340D01*
X134930970Y-116509340D01*
X134812220Y-116628090D01*
X134809922Y-116629340D01*
X134814261Y-116673400D01*
X134419740Y-116673400D01*
X134069740Y-116673400D01*
X134049740Y-116673400D01*
X134049740Y-116323400D01*
X134069740Y-116323400D01*
X134069740Y-116303400D01*
X134419740Y-116303400D01*
X134419740Y-116323400D01*
X135050990Y-116323400D01*
X135169740Y-116204650D01*
X135170720Y-116159340D01*
X135432220Y-116159340D01*
X135432220Y-116139340D01*
X135782220Y-116139340D01*
X135782220Y-116159340D01*
G37*
%TD.AperFunction*%
D25*
X121157680Y-111891340D02*
X122077680Y-111891340D01*
X122077680Y-111871340D01*
X122427680Y-111871340D01*
X122427680Y-111891340D01*
X123347680Y-111891340D01*
X123347680Y-111871340D01*
X123697680Y-111871340D01*
X123697680Y-111891340D01*
X123717680Y-111891340D01*
X123717680Y-112241340D01*
X123697680Y-112241340D01*
X123697680Y-113152063D01*
X123829640Y-113235730D01*
X124017655Y-113158801D01*
X124152991Y-113047970D01*
X124264105Y-112912866D01*
X124288934Y-112866531D01*
X124313074Y-112895945D01*
X124415856Y-112980298D01*
X124533119Y-113042976D01*
X124660357Y-113081573D01*
X124792680Y-113094606D01*
X124925002Y-113081573D01*
X125052240Y-113042976D01*
X125095376Y-113019919D01*
X125535466Y-113460010D01*
X125415180Y-113460010D01*
X125314937Y-113469883D01*
X125218546Y-113499123D01*
X125129711Y-113546606D01*
X125063017Y-113601340D01*
X124950548Y-113601340D01*
X124927582Y-113558373D01*
X124874873Y-113494147D01*
X124810647Y-113441438D01*
X124737373Y-113402272D01*
X124657865Y-113378154D01*
X124575180Y-113370010D01*
X124230180Y-113370010D01*
X124147495Y-113378154D01*
X124067987Y-113402272D01*
X123994713Y-113441438D01*
X123930487Y-113494147D01*
X123877778Y-113558373D01*
X123838612Y-113631647D01*
X123814494Y-113711155D01*
X123814456Y-113711545D01*
X123807414Y-113698371D01*
X123743513Y-113620507D01*
X123665649Y-113556606D01*
X123576814Y-113509123D01*
X123480423Y-113479883D01*
X123380180Y-113470010D01*
X122905180Y-113470010D01*
X122804937Y-113479883D01*
X122708546Y-113509123D01*
X122619711Y-113556606D01*
X122541847Y-113620507D01*
X122477946Y-113698371D01*
X122430463Y-113787206D01*
X122401223Y-113883597D01*
X122391350Y-113983840D01*
X122391350Y-114558840D01*
X122401223Y-114659083D01*
X122430463Y-114755474D01*
X122477946Y-114844309D01*
X122541847Y-114922173D01*
X122619711Y-114986074D01*
X122681723Y-115019220D01*
X122667680Y-115019042D01*
X122574564Y-115028213D01*
X122485026Y-115055374D01*
X122402507Y-115099481D01*
X122330179Y-115158839D01*
X122270821Y-115231167D01*
X122226714Y-115313686D01*
X122199553Y-115403224D01*
X122190382Y-115496340D01*
X122192680Y-115727590D01*
X122311430Y-115846340D01*
X122967680Y-115846340D01*
X122967680Y-115826340D01*
X123317680Y-115826340D01*
X123317680Y-115846340D01*
X123973930Y-115846340D01*
X124092680Y-115727590D01*
X124094978Y-115496340D01*
X124091146Y-115457433D01*
X124147495Y-115474526D01*
X124230180Y-115482670D01*
X124575180Y-115482670D01*
X124657865Y-115474526D01*
X124737373Y-115450408D01*
X124810647Y-115411242D01*
X124874873Y-115358533D01*
X124888975Y-115341350D01*
X125075190Y-115341350D01*
X125051847Y-115360507D01*
X124987946Y-115438371D01*
X124940463Y-115527206D01*
X124911223Y-115623597D01*
X124901350Y-115723840D01*
X124901350Y-116281838D01*
X124324074Y-116859115D01*
X124311101Y-116869762D01*
X124268613Y-116921533D01*
X124237041Y-116980599D01*
X124217600Y-117044689D01*
X124212680Y-117094640D01*
X124212680Y-117094647D01*
X124211036Y-117111340D01*
X124212680Y-117128033D01*
X124212681Y-117880995D01*
X124202680Y-117880010D01*
X124102680Y-117880010D01*
X124089075Y-117881350D01*
X124041498Y-117833773D01*
X124027407Y-117816603D01*
X123958886Y-117760369D01*
X123880711Y-117718583D01*
X123795885Y-117692851D01*
X123729775Y-117686340D01*
X123729764Y-117686340D01*
X123707670Y-117684164D01*
X123685576Y-117686340D01*
X123544180Y-117686340D01*
X123455045Y-117626782D01*
X123350401Y-117583437D01*
X123239313Y-117561340D01*
X123126047Y-117561340D01*
X123014959Y-117583437D01*
X122982300Y-117596965D01*
X122989010Y-117528840D01*
X122989010Y-117183840D01*
X122980866Y-117101155D01*
X122956748Y-117021647D01*
X122919085Y-116951185D01*
X122967680Y-116902590D01*
X122967680Y-116196340D01*
X123317680Y-116196340D01*
X123317680Y-116902590D01*
X123436430Y-117021340D01*
X123617680Y-117023638D01*
X123710796Y-117014467D01*
X123800334Y-116987306D01*
X123882853Y-116943199D01*
X123955181Y-116883841D01*
X124014539Y-116811513D01*
X124058646Y-116728994D01*
X124085807Y-116639456D01*
X124094978Y-116546340D01*
X124092680Y-116315090D01*
X123973930Y-116196340D01*
X123317680Y-116196340D01*
X122967680Y-116196340D01*
X122311430Y-116196340D01*
X122192680Y-116315090D01*
X122190382Y-116546340D01*
X122199553Y-116639456D01*
X122226714Y-116728994D01*
X122244637Y-116762526D01*
X122187495Y-116768154D01*
X122144844Y-116781092D01*
X122139539Y-116771167D01*
X122080181Y-116698839D01*
X122007853Y-116639481D01*
X121925334Y-116595374D01*
X121835796Y-116568213D01*
X121790718Y-116563773D01*
X121829897Y-116490474D01*
X121859137Y-116394083D01*
X121869010Y-116293840D01*
X121869010Y-115818840D01*
X121859137Y-115718597D01*
X121829897Y-115622206D01*
X121782414Y-115533371D01*
X121718513Y-115455507D01*
X121640649Y-115391606D01*
X121592680Y-115365966D01*
X121592680Y-115327119D01*
X121595219Y-115301339D01*
X121592680Y-115275559D01*
X121592680Y-115275552D01*
X121585083Y-115198422D01*
X121555063Y-115099459D01*
X121506313Y-115008254D01*
X121440707Y-114928313D01*
X121420676Y-114911874D01*
X120237680Y-113728879D01*
X120237680Y-112906194D01*
X120241255Y-112912866D01*
X120352369Y-113047970D01*
X120487705Y-113158801D01*
X120675720Y-113235730D01*
X120807680Y-113152063D01*
X120807680Y-112241340D01*
X121157680Y-112241340D01*
X121157680Y-113152063D01*
X121289640Y-113235730D01*
X121477655Y-113158801D01*
X121612991Y-113047970D01*
X121617680Y-113042269D01*
X121622369Y-113047970D01*
X121757705Y-113158801D01*
X121945720Y-113235730D01*
X122077680Y-113152063D01*
X122077680Y-112241340D01*
X122427680Y-112241340D01*
X122427680Y-113152063D01*
X122559640Y-113235730D01*
X122747655Y-113158801D01*
X122882991Y-113047970D01*
X122887680Y-113042269D01*
X122892369Y-113047970D01*
X123027705Y-113158801D01*
X123215720Y-113235730D01*
X123347680Y-113152063D01*
X123347680Y-112241340D01*
X122427680Y-112241340D01*
X122077680Y-112241340D01*
X121157680Y-112241340D01*
X120807680Y-112241340D01*
X120787680Y-112241340D01*
X120787680Y-111891340D01*
X120807680Y-111891340D01*
X120807680Y-111871340D01*
X121157680Y-111871340D01*
X121157680Y-111891340D01*
%TA.AperFunction,Conductor*%
D26*
G36*
X121157680Y-111891340D02*
G01*
X122077680Y-111891340D01*
X122077680Y-111871340D01*
X122427680Y-111871340D01*
X122427680Y-111891340D01*
X123347680Y-111891340D01*
X123347680Y-111871340D01*
X123697680Y-111871340D01*
X123697680Y-111891340D01*
X123717680Y-111891340D01*
X123717680Y-112241340D01*
X123697680Y-112241340D01*
X123697680Y-113152063D01*
X123829640Y-113235730D01*
X124017655Y-113158801D01*
X124152991Y-113047970D01*
X124264105Y-112912866D01*
X124288934Y-112866531D01*
X124313074Y-112895945D01*
X124415856Y-112980298D01*
X124533119Y-113042976D01*
X124660357Y-113081573D01*
X124792680Y-113094606D01*
X124925002Y-113081573D01*
X125052240Y-113042976D01*
X125095376Y-113019919D01*
X125535466Y-113460010D01*
X125415180Y-113460010D01*
X125314937Y-113469883D01*
X125218546Y-113499123D01*
X125129711Y-113546606D01*
X125063017Y-113601340D01*
X124950548Y-113601340D01*
X124927582Y-113558373D01*
X124874873Y-113494147D01*
X124810647Y-113441438D01*
X124737373Y-113402272D01*
X124657865Y-113378154D01*
X124575180Y-113370010D01*
X124230180Y-113370010D01*
X124147495Y-113378154D01*
X124067987Y-113402272D01*
X123994713Y-113441438D01*
X123930487Y-113494147D01*
X123877778Y-113558373D01*
X123838612Y-113631647D01*
X123814494Y-113711155D01*
X123814456Y-113711545D01*
X123807414Y-113698371D01*
X123743513Y-113620507D01*
X123665649Y-113556606D01*
X123576814Y-113509123D01*
X123480423Y-113479883D01*
X123380180Y-113470010D01*
X122905180Y-113470010D01*
X122804937Y-113479883D01*
X122708546Y-113509123D01*
X122619711Y-113556606D01*
X122541847Y-113620507D01*
X122477946Y-113698371D01*
X122430463Y-113787206D01*
X122401223Y-113883597D01*
X122391350Y-113983840D01*
X122391350Y-114558840D01*
X122401223Y-114659083D01*
X122430463Y-114755474D01*
X122477946Y-114844309D01*
X122541847Y-114922173D01*
X122619711Y-114986074D01*
X122681723Y-115019220D01*
X122667680Y-115019042D01*
X122574564Y-115028213D01*
X122485026Y-115055374D01*
X122402507Y-115099481D01*
X122330179Y-115158839D01*
X122270821Y-115231167D01*
X122226714Y-115313686D01*
X122199553Y-115403224D01*
X122190382Y-115496340D01*
X122192680Y-115727590D01*
X122311430Y-115846340D01*
X122967680Y-115846340D01*
X122967680Y-115826340D01*
X123317680Y-115826340D01*
X123317680Y-115846340D01*
X123973930Y-115846340D01*
X124092680Y-115727590D01*
X124094978Y-115496340D01*
X124091146Y-115457433D01*
X124147495Y-115474526D01*
X124230180Y-115482670D01*
X124575180Y-115482670D01*
X124657865Y-115474526D01*
X124737373Y-115450408D01*
X124810647Y-115411242D01*
X124874873Y-115358533D01*
X124888975Y-115341350D01*
X125075190Y-115341350D01*
X125051847Y-115360507D01*
X124987946Y-115438371D01*
X124940463Y-115527206D01*
X124911223Y-115623597D01*
X124901350Y-115723840D01*
X124901350Y-116281838D01*
X124324074Y-116859115D01*
X124311101Y-116869762D01*
X124268613Y-116921533D01*
X124237041Y-116980599D01*
X124217600Y-117044689D01*
X124212680Y-117094640D01*
X124212680Y-117094647D01*
X124211036Y-117111340D01*
X124212680Y-117128033D01*
X124212681Y-117880995D01*
X124202680Y-117880010D01*
X124102680Y-117880010D01*
X124089075Y-117881350D01*
X124041498Y-117833773D01*
X124027407Y-117816603D01*
X123958886Y-117760369D01*
X123880711Y-117718583D01*
X123795885Y-117692851D01*
X123729775Y-117686340D01*
X123729764Y-117686340D01*
X123707670Y-117684164D01*
X123685576Y-117686340D01*
X123544180Y-117686340D01*
X123455045Y-117626782D01*
X123350401Y-117583437D01*
X123239313Y-117561340D01*
X123126047Y-117561340D01*
X123014959Y-117583437D01*
X122982300Y-117596965D01*
X122989010Y-117528840D01*
X122989010Y-117183840D01*
X122980866Y-117101155D01*
X122956748Y-117021647D01*
X122919085Y-116951185D01*
X122967680Y-116902590D01*
X122967680Y-116196340D01*
X123317680Y-116196340D01*
X123317680Y-116902590D01*
X123436430Y-117021340D01*
X123617680Y-117023638D01*
X123710796Y-117014467D01*
X123800334Y-116987306D01*
X123882853Y-116943199D01*
X123955181Y-116883841D01*
X124014539Y-116811513D01*
X124058646Y-116728994D01*
X124085807Y-116639456D01*
X124094978Y-116546340D01*
X124092680Y-116315090D01*
X123973930Y-116196340D01*
X123317680Y-116196340D01*
X122967680Y-116196340D01*
X122311430Y-116196340D01*
X122192680Y-116315090D01*
X122190382Y-116546340D01*
X122199553Y-116639456D01*
X122226714Y-116728994D01*
X122244637Y-116762526D01*
X122187495Y-116768154D01*
X122144844Y-116781092D01*
X122139539Y-116771167D01*
X122080181Y-116698839D01*
X122007853Y-116639481D01*
X121925334Y-116595374D01*
X121835796Y-116568213D01*
X121790718Y-116563773D01*
X121829897Y-116490474D01*
X121859137Y-116394083D01*
X121869010Y-116293840D01*
X121869010Y-115818840D01*
X121859137Y-115718597D01*
X121829897Y-115622206D01*
X121782414Y-115533371D01*
X121718513Y-115455507D01*
X121640649Y-115391606D01*
X121592680Y-115365966D01*
X121592680Y-115327119D01*
X121595219Y-115301339D01*
X121592680Y-115275559D01*
X121592680Y-115275552D01*
X121585083Y-115198422D01*
X121555063Y-115099459D01*
X121506313Y-115008254D01*
X121440707Y-114928313D01*
X121420676Y-114911874D01*
X120237680Y-113728879D01*
X120237680Y-112906194D01*
X120241255Y-112912866D01*
X120352369Y-113047970D01*
X120487705Y-113158801D01*
X120675720Y-113235730D01*
X120807680Y-113152063D01*
X120807680Y-112241340D01*
X121157680Y-112241340D01*
X121157680Y-113152063D01*
X121289640Y-113235730D01*
X121477655Y-113158801D01*
X121612991Y-113047970D01*
X121617680Y-113042269D01*
X121622369Y-113047970D01*
X121757705Y-113158801D01*
X121945720Y-113235730D01*
X122077680Y-113152063D01*
X122077680Y-112241340D01*
X122427680Y-112241340D01*
X122427680Y-113152063D01*
X122559640Y-113235730D01*
X122747655Y-113158801D01*
X122882991Y-113047970D01*
X122887680Y-113042269D01*
X122892369Y-113047970D01*
X123027705Y-113158801D01*
X123215720Y-113235730D01*
X123347680Y-113152063D01*
X123347680Y-112241340D01*
X122427680Y-112241340D01*
X122077680Y-112241340D01*
X121157680Y-112241340D01*
X120807680Y-112241340D01*
X120787680Y-112241340D01*
X120787680Y-111891340D01*
X120807680Y-111891340D01*
X120807680Y-111871340D01*
X121157680Y-111871340D01*
X121157680Y-111891340D01*
G37*
%TD.AperFunction*%
D25*
X121622680Y-117181340D02*
X121642680Y-117181340D01*
X121642680Y-117531340D01*
X121622680Y-117531340D01*
X121622680Y-117551340D01*
X121272680Y-117551340D01*
X121272680Y-117531340D01*
X121252680Y-117531340D01*
X121252680Y-117181340D01*
X121272680Y-117181340D01*
X121272680Y-117161340D01*
X121622680Y-117161340D01*
X121622680Y-117181340D01*
%TA.AperFunction,Conductor*%
D26*
G36*
X121622680Y-117181340D02*
G01*
X121642680Y-117181340D01*
X121642680Y-117531340D01*
X121622680Y-117531340D01*
X121622680Y-117551340D01*
X121272680Y-117551340D01*
X121272680Y-117531340D01*
X121252680Y-117531340D01*
X121252680Y-117181340D01*
X121272680Y-117181340D01*
X121272680Y-117161340D01*
X121622680Y-117161340D01*
X121622680Y-117181340D01*
G37*
%TD.AperFunction*%
D25*
X118617680Y-111891340D02*
X118637680Y-111891340D01*
X118637680Y-112241340D01*
X118617680Y-112241340D01*
X118617680Y-113152063D01*
X118749640Y-113235730D01*
X118937655Y-113158801D01*
X119072991Y-113047970D01*
X119184105Y-112912866D01*
X119187681Y-112906193D01*
X119187680Y-113920560D01*
X119185141Y-113946340D01*
X119187680Y-113972120D01*
X119187680Y-113972127D01*
X119195277Y-114049257D01*
X119225297Y-114148220D01*
X119274047Y-114239426D01*
X119339653Y-114319367D01*
X119359690Y-114335811D01*
X120451196Y-115427318D01*
X120416847Y-115455507D01*
X120352946Y-115533371D01*
X120319800Y-115595383D01*
X120319978Y-115581340D01*
X120310807Y-115488224D01*
X120283646Y-115398686D01*
X120239539Y-115316167D01*
X120180181Y-115243839D01*
X120107853Y-115184481D01*
X120025334Y-115140374D01*
X119935796Y-115113213D01*
X119842680Y-115104042D01*
X119611430Y-115106340D01*
X119492680Y-115225090D01*
X119492680Y-115881340D01*
X119512680Y-115881340D01*
X119512680Y-116231340D01*
X119492680Y-116231340D01*
X119492680Y-116251340D01*
X119142680Y-116251340D01*
X119142680Y-116231340D01*
X119122680Y-116231340D01*
X119122680Y-115881340D01*
X119142680Y-115881340D01*
X119142680Y-115225090D01*
X119023930Y-115106340D01*
X118792680Y-115104042D01*
X118699564Y-115113213D01*
X118610026Y-115140374D01*
X118527507Y-115184481D01*
X118455179Y-115243839D01*
X118395821Y-115316167D01*
X118351714Y-115398686D01*
X118324553Y-115488224D01*
X118322477Y-115509301D01*
X117512680Y-114699505D01*
X117512680Y-112999980D01*
X117549503Y-112980298D01*
X117652285Y-112895946D01*
X117676426Y-112866531D01*
X117701255Y-112912866D01*
X117812369Y-113047970D01*
X117947705Y-113158801D01*
X118135720Y-113235730D01*
X118267680Y-113152063D01*
X118267680Y-112241340D01*
X118247680Y-112241340D01*
X118247680Y-111891340D01*
X118267680Y-111891340D01*
X118267680Y-111871340D01*
X118617680Y-111871340D01*
X118617680Y-111891340D01*
%TA.AperFunction,Conductor*%
D26*
G36*
X118617680Y-111891340D02*
G01*
X118637680Y-111891340D01*
X118637680Y-112241340D01*
X118617680Y-112241340D01*
X118617680Y-113152063D01*
X118749640Y-113235730D01*
X118937655Y-113158801D01*
X119072991Y-113047970D01*
X119184105Y-112912866D01*
X119187681Y-112906193D01*
X119187680Y-113920560D01*
X119185141Y-113946340D01*
X119187680Y-113972120D01*
X119187680Y-113972127D01*
X119195277Y-114049257D01*
X119225297Y-114148220D01*
X119274047Y-114239426D01*
X119339653Y-114319367D01*
X119359690Y-114335811D01*
X120451196Y-115427318D01*
X120416847Y-115455507D01*
X120352946Y-115533371D01*
X120319800Y-115595383D01*
X120319978Y-115581340D01*
X120310807Y-115488224D01*
X120283646Y-115398686D01*
X120239539Y-115316167D01*
X120180181Y-115243839D01*
X120107853Y-115184481D01*
X120025334Y-115140374D01*
X119935796Y-115113213D01*
X119842680Y-115104042D01*
X119611430Y-115106340D01*
X119492680Y-115225090D01*
X119492680Y-115881340D01*
X119512680Y-115881340D01*
X119512680Y-116231340D01*
X119492680Y-116231340D01*
X119492680Y-116251340D01*
X119142680Y-116251340D01*
X119142680Y-116231340D01*
X119122680Y-116231340D01*
X119122680Y-115881340D01*
X119142680Y-115881340D01*
X119142680Y-115225090D01*
X119023930Y-115106340D01*
X118792680Y-115104042D01*
X118699564Y-115113213D01*
X118610026Y-115140374D01*
X118527507Y-115184481D01*
X118455179Y-115243839D01*
X118395821Y-115316167D01*
X118351714Y-115398686D01*
X118324553Y-115488224D01*
X118322477Y-115509301D01*
X117512680Y-114699505D01*
X117512680Y-112999980D01*
X117549503Y-112980298D01*
X117652285Y-112895946D01*
X117676426Y-112866531D01*
X117701255Y-112912866D01*
X117812369Y-113047970D01*
X117947705Y-113158801D01*
X118135720Y-113235730D01*
X118267680Y-113152063D01*
X118267680Y-112241340D01*
X118247680Y-112241340D01*
X118247680Y-111891340D01*
X118267680Y-111891340D01*
X118267680Y-111871340D01*
X118617680Y-111871340D01*
X118617680Y-111891340D01*
G37*
%TD.AperFunction*%
D25*
X116668422Y-111266773D02*
X116608723Y-111339516D01*
X116546045Y-111456779D01*
X116507447Y-111584017D01*
X116497680Y-111683181D01*
X116497680Y-112449498D01*
X116507447Y-112548662D01*
X116546044Y-112675900D01*
X116608722Y-112793163D01*
X116693074Y-112895945D01*
X116795856Y-112980298D01*
X116832681Y-112999981D01*
X116832680Y-114415498D01*
X116459279Y-114042097D01*
X116489316Y-113985901D01*
X116527913Y-113858663D01*
X116540946Y-113726340D01*
X116527913Y-113594017D01*
X116489316Y-113466779D01*
X116426638Y-113349516D01*
X116342286Y-113246734D01*
X116239504Y-113162382D01*
X116122241Y-113099704D01*
X115995003Y-113061107D01*
X115895839Y-113051340D01*
X115129521Y-113051340D01*
X115030357Y-113061107D01*
X114903119Y-113099704D01*
X114785856Y-113162382D01*
X114704347Y-113229275D01*
X114704143Y-111742934D01*
X114714000Y-111638776D01*
X114739548Y-111553115D01*
X114781249Y-111474042D01*
X114837511Y-111404580D01*
X114906198Y-111347365D01*
X114984682Y-111304585D01*
X115069986Y-111277863D01*
X115172305Y-111266759D01*
X116668422Y-111266773D01*
%TA.AperFunction,Conductor*%
D26*
G36*
X116668422Y-111266773D02*
G01*
X116608723Y-111339516D01*
X116546045Y-111456779D01*
X116507447Y-111584017D01*
X116497680Y-111683181D01*
X116497680Y-112449498D01*
X116507447Y-112548662D01*
X116546044Y-112675900D01*
X116608722Y-112793163D01*
X116693074Y-112895945D01*
X116795856Y-112980298D01*
X116832681Y-112999981D01*
X116832680Y-114415498D01*
X116459279Y-114042097D01*
X116489316Y-113985901D01*
X116527913Y-113858663D01*
X116540946Y-113726340D01*
X116527913Y-113594017D01*
X116489316Y-113466779D01*
X116426638Y-113349516D01*
X116342286Y-113246734D01*
X116239504Y-113162382D01*
X116122241Y-113099704D01*
X115995003Y-113061107D01*
X115895839Y-113051340D01*
X115129521Y-113051340D01*
X115030357Y-113061107D01*
X114903119Y-113099704D01*
X114785856Y-113162382D01*
X114704347Y-113229275D01*
X114704143Y-111742934D01*
X114714000Y-111638776D01*
X114739548Y-111553115D01*
X114781249Y-111474042D01*
X114837511Y-111404580D01*
X114906198Y-111347365D01*
X114984682Y-111304585D01*
X115069986Y-111277863D01*
X115172305Y-111266759D01*
X116668422Y-111266773D01*
G37*
%TD.AperFunction*%
%TD*%
M02*
