%TF.GenerationSoftware,KiCad,Pcbnew,(5.1.6)-1*%
%TF.CreationDate,2020-10-20T21:54:07+08:00*%
%TF.ProjectId,NRF52840,4e524635-3238-4343-902e-6b696361645f,rev?*%
%TF.SameCoordinates,Original*%
%TF.FileFunction,Legend,Top*%
%TF.FilePolarity,Positive*%
%FSLAX46Y46*%
G04 Gerber Fmt 4.6, Leading zero omitted, Abs format (unit mm)*
G04 Created by KiCad (PCBNEW (5.1.6)-1) date 2020-10-20 21:54:07*
%MOMM*%
%LPD*%
G01*
G04 APERTURE LIST*
%ADD10C,0.150000*%
%ADD11C,0.120000*%
%ADD12C,0.125000*%
%ADD13C,0.152400*%
%ADD14R,1.700000X0.350000*%
%ADD15R,1.000000X0.900000*%
%ADD16C,0.350000*%
%ADD17R,4.950000X4.950000*%
G04 APERTURE END LIST*
D10*
X138896297Y-155338780D02*
G75*
G03*
X138896297Y-155338780I-214837J0D01*
G01*
D11*
X132778932Y-150682529D02*
G75*
G03*
X132778932Y-150682529I-119812J0D01*
G01*
X135666784Y-153172160D02*
G75*
G03*
X135666784Y-153172160I-127304J0D01*
G01*
%TO.C,2.4*%
X140014156Y-158382980D02*
G75*
G03*
X140014156Y-158382980I-134116J0D01*
G01*
%TO.C,Y1*%
X135542980Y-150672160D02*
X132842980Y-150672160D01*
X135542980Y-152972160D02*
X135542980Y-150672160D01*
%TO.C,U1*%
X130614780Y-151387160D02*
X130054780Y-151387160D01*
X130614780Y-151387160D02*
X130614780Y-151947160D01*
X130614780Y-158607160D02*
X130614780Y-158047160D01*
X130614780Y-158607160D02*
X130054780Y-158607160D01*
X123394780Y-158607160D02*
X123954780Y-158607160D01*
X123394780Y-158607160D02*
X123394780Y-158047160D01*
X123394780Y-151387160D02*
X123954780Y-151387160D01*
%TO.C,2.4*%
D12*
X142763844Y-155485720D02*
X142725140Y-155461910D01*
X142686435Y-155414291D01*
X142686435Y-155295243D01*
X142725140Y-155247624D01*
X142763844Y-155223815D01*
X142841254Y-155200005D01*
X142918663Y-155200005D01*
X143034778Y-155223815D01*
X143499235Y-155509529D01*
X143499235Y-155200005D01*
X143421825Y-154985720D02*
X143460530Y-154961910D01*
X143499235Y-154985720D01*
X143460530Y-155009529D01*
X143421825Y-154985720D01*
X143499235Y-154985720D01*
X142957368Y-154533339D02*
X143499235Y-154533339D01*
X142647730Y-154652386D02*
X143228301Y-154771434D01*
X143228301Y-154461910D01*
D13*
%TO.C,Y1*%
D12*
X135016904Y-147867067D02*
X135016904Y-148254115D01*
X134850238Y-147441315D02*
X135016904Y-147867067D01*
X135183571Y-147441315D01*
X135612142Y-148254115D02*
X135326428Y-148254115D01*
X135469285Y-148254115D02*
X135469285Y-147441315D01*
X135421666Y-147557429D01*
X135374047Y-147634839D01*
X135326428Y-147673543D01*
D13*
%TO.C,U1*%
D12*
X129220007Y-148241415D02*
X129220007Y-148899396D01*
X129243817Y-148976805D01*
X129267626Y-149015510D01*
X129315245Y-149054215D01*
X129410483Y-149054215D01*
X129458102Y-149015510D01*
X129481912Y-148976805D01*
X129505721Y-148899396D01*
X129505721Y-148241415D01*
X130005721Y-149054215D02*
X129720007Y-149054215D01*
X129862864Y-149054215D02*
X129862864Y-148241415D01*
X129815245Y-148357529D01*
X129767626Y-148434939D01*
X129720007Y-148473643D01*
D13*
%TO.C,L1*%
D12*
X131823986Y-164753955D02*
X131585891Y-164753955D01*
X131585891Y-163941155D01*
X132252558Y-164753955D02*
X131966843Y-164753955D01*
X132109700Y-164753955D02*
X132109700Y-163941155D01*
X132062081Y-164057269D01*
X132014462Y-164134679D01*
X131966843Y-164173383D01*
D13*
%TO.C,C20*%
D12*
X120430171Y-161669185D02*
X120406361Y-161707890D01*
X120334933Y-161746595D01*
X120287314Y-161746595D01*
X120215885Y-161707890D01*
X120168266Y-161630480D01*
X120144457Y-161553071D01*
X120120647Y-161398252D01*
X120120647Y-161282138D01*
X120144457Y-161127319D01*
X120168266Y-161049909D01*
X120215885Y-160972500D01*
X120287314Y-160933795D01*
X120334933Y-160933795D01*
X120406361Y-160972500D01*
X120430171Y-161011204D01*
X120620647Y-161011204D02*
X120644457Y-160972500D01*
X120692076Y-160933795D01*
X120811123Y-160933795D01*
X120858742Y-160972500D01*
X120882552Y-161011204D01*
X120906361Y-161088614D01*
X120906361Y-161166023D01*
X120882552Y-161282138D01*
X120596838Y-161746595D01*
X120906361Y-161746595D01*
X121215885Y-160933795D02*
X121263504Y-160933795D01*
X121311123Y-160972500D01*
X121334933Y-161011204D01*
X121358742Y-161088614D01*
X121382552Y-161243433D01*
X121382552Y-161436957D01*
X121358742Y-161591776D01*
X121334933Y-161669185D01*
X121311123Y-161707890D01*
X121263504Y-161746595D01*
X121215885Y-161746595D01*
X121168266Y-161707890D01*
X121144457Y-161669185D01*
X121120647Y-161591776D01*
X121096838Y-161436957D01*
X121096838Y-161243433D01*
X121120647Y-161088614D01*
X121144457Y-161011204D01*
X121168266Y-160972500D01*
X121215885Y-160933795D01*
D13*
%TO.C,C19*%
D12*
X117925431Y-159760385D02*
X117901621Y-159799090D01*
X117830193Y-159837795D01*
X117782574Y-159837795D01*
X117711145Y-159799090D01*
X117663526Y-159721680D01*
X117639717Y-159644271D01*
X117615907Y-159489452D01*
X117615907Y-159373338D01*
X117639717Y-159218519D01*
X117663526Y-159141109D01*
X117711145Y-159063700D01*
X117782574Y-159024995D01*
X117830193Y-159024995D01*
X117901621Y-159063700D01*
X117925431Y-159102404D01*
X118401621Y-159837795D02*
X118115907Y-159837795D01*
X118258764Y-159837795D02*
X118258764Y-159024995D01*
X118211145Y-159141109D01*
X118163526Y-159218519D01*
X118115907Y-159257223D01*
X118639717Y-159837795D02*
X118734955Y-159837795D01*
X118782574Y-159799090D01*
X118806383Y-159760385D01*
X118854002Y-159644271D01*
X118877812Y-159489452D01*
X118877812Y-159179814D01*
X118854002Y-159102404D01*
X118830193Y-159063700D01*
X118782574Y-159024995D01*
X118687336Y-159024995D01*
X118639717Y-159063700D01*
X118615907Y-159102404D01*
X118592098Y-159179814D01*
X118592098Y-159373338D01*
X118615907Y-159450747D01*
X118639717Y-159489452D01*
X118687336Y-159528157D01*
X118782574Y-159528157D01*
X118830193Y-159489452D01*
X118854002Y-159450747D01*
X118877812Y-159373338D01*
D13*
%TO.C,C15*%
D12*
X124341771Y-146139625D02*
X124317961Y-146178330D01*
X124246533Y-146217035D01*
X124198914Y-146217035D01*
X124127485Y-146178330D01*
X124079866Y-146100920D01*
X124056057Y-146023511D01*
X124032247Y-145868692D01*
X124032247Y-145752578D01*
X124056057Y-145597759D01*
X124079866Y-145520349D01*
X124127485Y-145442940D01*
X124198914Y-145404235D01*
X124246533Y-145404235D01*
X124317961Y-145442940D01*
X124341771Y-145481644D01*
X124817961Y-146217035D02*
X124532247Y-146217035D01*
X124675104Y-146217035D02*
X124675104Y-145404235D01*
X124627485Y-145520349D01*
X124579866Y-145597759D01*
X124532247Y-145636463D01*
X125270342Y-145404235D02*
X125032247Y-145404235D01*
X125008438Y-145791282D01*
X125032247Y-145752578D01*
X125079866Y-145713873D01*
X125198914Y-145713873D01*
X125246533Y-145752578D01*
X125270342Y-145791282D01*
X125294152Y-145868692D01*
X125294152Y-146062216D01*
X125270342Y-146139625D01*
X125246533Y-146178330D01*
X125198914Y-146217035D01*
X125079866Y-146217035D01*
X125032247Y-146178330D01*
X125008438Y-146139625D01*
D13*
%TO.C,C14*%
D12*
X118410871Y-151732705D02*
X118387061Y-151771410D01*
X118315633Y-151810115D01*
X118268014Y-151810115D01*
X118196585Y-151771410D01*
X118148966Y-151694000D01*
X118125157Y-151616591D01*
X118101347Y-151461772D01*
X118101347Y-151345658D01*
X118125157Y-151190839D01*
X118148966Y-151113429D01*
X118196585Y-151036020D01*
X118268014Y-150997315D01*
X118315633Y-150997315D01*
X118387061Y-151036020D01*
X118410871Y-151074724D01*
X118887061Y-151810115D02*
X118601347Y-151810115D01*
X118744204Y-151810115D02*
X118744204Y-150997315D01*
X118696585Y-151113429D01*
X118648966Y-151190839D01*
X118601347Y-151229543D01*
X119315633Y-151268248D02*
X119315633Y-151810115D01*
X119196585Y-150958610D02*
X119077538Y-151539181D01*
X119387061Y-151539181D01*
D13*
%TO.C,C13*%
D12*
X121611571Y-147769025D02*
X121587761Y-147807730D01*
X121516333Y-147846435D01*
X121468714Y-147846435D01*
X121397285Y-147807730D01*
X121349666Y-147730320D01*
X121325857Y-147652911D01*
X121302047Y-147498092D01*
X121302047Y-147381978D01*
X121325857Y-147227159D01*
X121349666Y-147149749D01*
X121397285Y-147072340D01*
X121468714Y-147033635D01*
X121516333Y-147033635D01*
X121587761Y-147072340D01*
X121611571Y-147111044D01*
X122087761Y-147846435D02*
X121802047Y-147846435D01*
X121944904Y-147846435D02*
X121944904Y-147033635D01*
X121897285Y-147149749D01*
X121849666Y-147227159D01*
X121802047Y-147265863D01*
X122254428Y-147033635D02*
X122563952Y-147033635D01*
X122397285Y-147343273D01*
X122468714Y-147343273D01*
X122516333Y-147381978D01*
X122540142Y-147420682D01*
X122563952Y-147498092D01*
X122563952Y-147691616D01*
X122540142Y-147769025D01*
X122516333Y-147807730D01*
X122468714Y-147846435D01*
X122325857Y-147846435D01*
X122278238Y-147807730D01*
X122254428Y-147769025D01*
D13*
%TO.C,C12*%
D12*
X126803331Y-147791885D02*
X126779521Y-147830590D01*
X126708093Y-147869295D01*
X126660474Y-147869295D01*
X126589045Y-147830590D01*
X126541426Y-147753180D01*
X126517617Y-147675771D01*
X126493807Y-147520952D01*
X126493807Y-147404838D01*
X126517617Y-147250019D01*
X126541426Y-147172609D01*
X126589045Y-147095200D01*
X126660474Y-147056495D01*
X126708093Y-147056495D01*
X126779521Y-147095200D01*
X126803331Y-147133904D01*
X127279521Y-147869295D02*
X126993807Y-147869295D01*
X127136664Y-147869295D02*
X127136664Y-147056495D01*
X127089045Y-147172609D01*
X127041426Y-147250019D01*
X126993807Y-147288723D01*
X127469998Y-147133904D02*
X127493807Y-147095200D01*
X127541426Y-147056495D01*
X127660474Y-147056495D01*
X127708093Y-147095200D01*
X127731902Y-147133904D01*
X127755712Y-147211314D01*
X127755712Y-147288723D01*
X127731902Y-147404838D01*
X127446188Y-147869295D01*
X127755712Y-147869295D01*
D13*
%TO.C,C11*%
D12*
X128565791Y-146492685D02*
X128541981Y-146531390D01*
X128470553Y-146570095D01*
X128422934Y-146570095D01*
X128351505Y-146531390D01*
X128303886Y-146453980D01*
X128280077Y-146376571D01*
X128256267Y-146221752D01*
X128256267Y-146105638D01*
X128280077Y-145950819D01*
X128303886Y-145873409D01*
X128351505Y-145796000D01*
X128422934Y-145757295D01*
X128470553Y-145757295D01*
X128541981Y-145796000D01*
X128565791Y-145834704D01*
X129041981Y-146570095D02*
X128756267Y-146570095D01*
X128899124Y-146570095D02*
X128899124Y-145757295D01*
X128851505Y-145873409D01*
X128803886Y-145950819D01*
X128756267Y-145989523D01*
X129518172Y-146570095D02*
X129232458Y-146570095D01*
X129375315Y-146570095D02*
X129375315Y-145757295D01*
X129327696Y-145873409D01*
X129280077Y-145950819D01*
X129232458Y-145989523D01*
D13*
%TO.C,C10*%
D12*
X131545511Y-148553885D02*
X131521701Y-148592590D01*
X131450273Y-148631295D01*
X131402654Y-148631295D01*
X131331225Y-148592590D01*
X131283606Y-148515180D01*
X131259797Y-148437771D01*
X131235987Y-148282952D01*
X131235987Y-148166838D01*
X131259797Y-148012019D01*
X131283606Y-147934609D01*
X131331225Y-147857200D01*
X131402654Y-147818495D01*
X131450273Y-147818495D01*
X131521701Y-147857200D01*
X131545511Y-147895904D01*
X132021701Y-148631295D02*
X131735987Y-148631295D01*
X131878844Y-148631295D02*
X131878844Y-147818495D01*
X131831225Y-147934609D01*
X131783606Y-148012019D01*
X131735987Y-148050723D01*
X132331225Y-147818495D02*
X132378844Y-147818495D01*
X132426463Y-147857200D01*
X132450273Y-147895904D01*
X132474082Y-147973314D01*
X132497892Y-148128133D01*
X132497892Y-148321657D01*
X132474082Y-148476476D01*
X132450273Y-148553885D01*
X132426463Y-148592590D01*
X132378844Y-148631295D01*
X132331225Y-148631295D01*
X132283606Y-148592590D01*
X132259797Y-148553885D01*
X132235987Y-148476476D01*
X132212178Y-148321657D01*
X132212178Y-148128133D01*
X132235987Y-147973314D01*
X132259797Y-147895904D01*
X132283606Y-147857200D01*
X132331225Y-147818495D01*
D13*
%TO.C,C9*%
D12*
X133185625Y-161535893D02*
X133224330Y-161559702D01*
X133263035Y-161631131D01*
X133263035Y-161678750D01*
X133224330Y-161750179D01*
X133146920Y-161797798D01*
X133069511Y-161821607D01*
X132914692Y-161845417D01*
X132798578Y-161845417D01*
X132643759Y-161821607D01*
X132566349Y-161797798D01*
X132488940Y-161750179D01*
X132450235Y-161678750D01*
X132450235Y-161631131D01*
X132488940Y-161559702D01*
X132527644Y-161535893D01*
X133263035Y-161297798D02*
X133263035Y-161202560D01*
X133224330Y-161154940D01*
X133185625Y-161131131D01*
X133069511Y-161083512D01*
X132914692Y-161059702D01*
X132605054Y-161059702D01*
X132527644Y-161083512D01*
X132488940Y-161107321D01*
X132450235Y-161154940D01*
X132450235Y-161250179D01*
X132488940Y-161297798D01*
X132527644Y-161321607D01*
X132605054Y-161345417D01*
X132798578Y-161345417D01*
X132875987Y-161321607D01*
X132914692Y-161297798D01*
X132953397Y-161250179D01*
X132953397Y-161154940D01*
X132914692Y-161107321D01*
X132875987Y-161083512D01*
X132798578Y-161059702D01*
D13*
%TO.C,C8*%
D12*
X129258546Y-161758085D02*
X129234737Y-161796790D01*
X129163308Y-161835495D01*
X129115689Y-161835495D01*
X129044260Y-161796790D01*
X128996641Y-161719380D01*
X128972832Y-161641971D01*
X128949022Y-161487152D01*
X128949022Y-161371038D01*
X128972832Y-161216219D01*
X128996641Y-161138809D01*
X129044260Y-161061400D01*
X129115689Y-161022695D01*
X129163308Y-161022695D01*
X129234737Y-161061400D01*
X129258546Y-161100104D01*
X129544260Y-161371038D02*
X129496641Y-161332333D01*
X129472832Y-161293628D01*
X129449022Y-161216219D01*
X129449022Y-161177514D01*
X129472832Y-161100104D01*
X129496641Y-161061400D01*
X129544260Y-161022695D01*
X129639499Y-161022695D01*
X129687118Y-161061400D01*
X129710927Y-161100104D01*
X129734737Y-161177514D01*
X129734737Y-161216219D01*
X129710927Y-161293628D01*
X129687118Y-161332333D01*
X129639499Y-161371038D01*
X129544260Y-161371038D01*
X129496641Y-161409742D01*
X129472832Y-161448447D01*
X129449022Y-161525857D01*
X129449022Y-161680676D01*
X129472832Y-161758085D01*
X129496641Y-161796790D01*
X129544260Y-161835495D01*
X129639499Y-161835495D01*
X129687118Y-161796790D01*
X129710927Y-161758085D01*
X129734737Y-161680676D01*
X129734737Y-161525857D01*
X129710927Y-161448447D01*
X129687118Y-161409742D01*
X129639499Y-161371038D01*
D13*
%TO.C,C7*%
D12*
X127132566Y-162774085D02*
X127108757Y-162812790D01*
X127037328Y-162851495D01*
X126989709Y-162851495D01*
X126918280Y-162812790D01*
X126870661Y-162735380D01*
X126846852Y-162657971D01*
X126823042Y-162503152D01*
X126823042Y-162387038D01*
X126846852Y-162232219D01*
X126870661Y-162154809D01*
X126918280Y-162077400D01*
X126989709Y-162038695D01*
X127037328Y-162038695D01*
X127108757Y-162077400D01*
X127132566Y-162116104D01*
X127299233Y-162038695D02*
X127632566Y-162038695D01*
X127418280Y-162851495D01*
D13*
%TO.C,C6*%
D12*
X117602486Y-157597565D02*
X117578677Y-157636270D01*
X117507248Y-157674975D01*
X117459629Y-157674975D01*
X117388200Y-157636270D01*
X117340581Y-157558860D01*
X117316772Y-157481451D01*
X117292962Y-157326632D01*
X117292962Y-157210518D01*
X117316772Y-157055699D01*
X117340581Y-156978289D01*
X117388200Y-156900880D01*
X117459629Y-156862175D01*
X117507248Y-156862175D01*
X117578677Y-156900880D01*
X117602486Y-156939584D01*
X118031058Y-156862175D02*
X117935820Y-156862175D01*
X117888200Y-156900880D01*
X117864391Y-156939584D01*
X117816772Y-157055699D01*
X117792962Y-157210518D01*
X117792962Y-157520156D01*
X117816772Y-157597565D01*
X117840581Y-157636270D01*
X117888200Y-157674975D01*
X117983439Y-157674975D01*
X118031058Y-157636270D01*
X118054867Y-157597565D01*
X118078677Y-157520156D01*
X118078677Y-157326632D01*
X118054867Y-157249222D01*
X118031058Y-157210518D01*
X117983439Y-157171813D01*
X117888200Y-157171813D01*
X117840581Y-157210518D01*
X117816772Y-157249222D01*
X117792962Y-157326632D01*
D13*
%TO.C,C5*%
D12*
X117945386Y-155563025D02*
X117921577Y-155601730D01*
X117850148Y-155640435D01*
X117802529Y-155640435D01*
X117731100Y-155601730D01*
X117683481Y-155524320D01*
X117659672Y-155446911D01*
X117635862Y-155292092D01*
X117635862Y-155175978D01*
X117659672Y-155021159D01*
X117683481Y-154943749D01*
X117731100Y-154866340D01*
X117802529Y-154827635D01*
X117850148Y-154827635D01*
X117921577Y-154866340D01*
X117945386Y-154905044D01*
X118397767Y-154827635D02*
X118159672Y-154827635D01*
X118135862Y-155214682D01*
X118159672Y-155175978D01*
X118207291Y-155137273D01*
X118326339Y-155137273D01*
X118373958Y-155175978D01*
X118397767Y-155214682D01*
X118421577Y-155292092D01*
X118421577Y-155485616D01*
X118397767Y-155563025D01*
X118373958Y-155601730D01*
X118326339Y-155640435D01*
X118207291Y-155640435D01*
X118159672Y-155601730D01*
X118135862Y-155563025D01*
D13*
%TO.C,C4*%
D12*
X135072845Y-161731473D02*
X135111550Y-161755282D01*
X135150255Y-161826711D01*
X135150255Y-161874330D01*
X135111550Y-161945759D01*
X135034140Y-161993378D01*
X134956731Y-162017187D01*
X134801912Y-162040997D01*
X134685798Y-162040997D01*
X134530979Y-162017187D01*
X134453569Y-161993378D01*
X134376160Y-161945759D01*
X134337455Y-161874330D01*
X134337455Y-161826711D01*
X134376160Y-161755282D01*
X134414864Y-161731473D01*
X134608388Y-161302901D02*
X135150255Y-161302901D01*
X134298750Y-161421949D02*
X134879321Y-161540997D01*
X134879321Y-161231473D01*
D13*
%TO.C,C3*%
D12*
X131130765Y-161581613D02*
X131169470Y-161605422D01*
X131208175Y-161676851D01*
X131208175Y-161724470D01*
X131169470Y-161795899D01*
X131092060Y-161843518D01*
X131014651Y-161867327D01*
X130859832Y-161891137D01*
X130743718Y-161891137D01*
X130588899Y-161867327D01*
X130511489Y-161843518D01*
X130434080Y-161795899D01*
X130395375Y-161724470D01*
X130395375Y-161676851D01*
X130434080Y-161605422D01*
X130472784Y-161581613D01*
X130395375Y-161414946D02*
X130395375Y-161105422D01*
X130705013Y-161272089D01*
X130705013Y-161200660D01*
X130743718Y-161153041D01*
X130782422Y-161129232D01*
X130859832Y-161105422D01*
X131053356Y-161105422D01*
X131130765Y-161129232D01*
X131169470Y-161153041D01*
X131208175Y-161200660D01*
X131208175Y-161343518D01*
X131169470Y-161391137D01*
X131130765Y-161414946D01*
D13*
%TO.C,C2*%
D12*
X139365206Y-147120065D02*
X139341397Y-147158770D01*
X139269968Y-147197475D01*
X139222349Y-147197475D01*
X139150920Y-147158770D01*
X139103301Y-147081360D01*
X139079492Y-147003951D01*
X139055682Y-146849132D01*
X139055682Y-146733018D01*
X139079492Y-146578199D01*
X139103301Y-146500789D01*
X139150920Y-146423380D01*
X139222349Y-146384675D01*
X139269968Y-146384675D01*
X139341397Y-146423380D01*
X139365206Y-146462084D01*
X139555682Y-146462084D02*
X139579492Y-146423380D01*
X139627111Y-146384675D01*
X139746159Y-146384675D01*
X139793778Y-146423380D01*
X139817587Y-146462084D01*
X139841397Y-146539494D01*
X139841397Y-146616903D01*
X139817587Y-146733018D01*
X139531873Y-147197475D01*
X139841397Y-147197475D01*
D13*
%TO.C,C1*%
D12*
X132690086Y-146535865D02*
X132666277Y-146574570D01*
X132594848Y-146613275D01*
X132547229Y-146613275D01*
X132475800Y-146574570D01*
X132428181Y-146497160D01*
X132404372Y-146419751D01*
X132380562Y-146264932D01*
X132380562Y-146148818D01*
X132404372Y-145993999D01*
X132428181Y-145916589D01*
X132475800Y-145839180D01*
X132547229Y-145800475D01*
X132594848Y-145800475D01*
X132666277Y-145839180D01*
X132690086Y-145877884D01*
X133166277Y-146613275D02*
X132880562Y-146613275D01*
X133023420Y-146613275D02*
X133023420Y-145800475D01*
X132975800Y-145916589D01*
X132928181Y-145993999D01*
X132880562Y-146032703D01*
D13*
%TD*%
%LPC*%
D14*
%TO.C,2.4*%
X138706560Y-153160740D03*
X138709000Y-156012740D03*
%TD*%
D15*
%TO.C,Y1*%
X134892980Y-152372160D03*
X133492980Y-152372160D03*
X133492980Y-151272160D03*
X134892980Y-151272160D03*
%TD*%
D16*
%TO.C,U1*%
X130254780Y-157747160D03*
X130254780Y-157247160D03*
X130254780Y-156747160D03*
X130254780Y-156247160D03*
X130254780Y-155747160D03*
X130254780Y-155247160D03*
X130254780Y-154747160D03*
X130254780Y-154247160D03*
X130254780Y-153247160D03*
X129754780Y-156997160D03*
X129754780Y-156497160D03*
X129754780Y-155997160D03*
X129754780Y-155497160D03*
X129754780Y-153997160D03*
X129754780Y-153497160D03*
X129754780Y-151747160D03*
X129254780Y-151747160D03*
X128754780Y-151747160D03*
X128254780Y-151747160D03*
X127754780Y-151747160D03*
X127254780Y-151747160D03*
X126754780Y-151747160D03*
X126254780Y-151747160D03*
X128504780Y-152247160D03*
X128004780Y-152247160D03*
X127504780Y-152247160D03*
X127004780Y-152247160D03*
X126504780Y-152247160D03*
X126004780Y-152247160D03*
X125504780Y-152247160D03*
X125004780Y-152247160D03*
X125004780Y-157747160D03*
X126004780Y-157747160D03*
X126504780Y-157747160D03*
X127004780Y-157747160D03*
X127504780Y-157747160D03*
X128004780Y-157747160D03*
X128504780Y-157747160D03*
X129254780Y-158247160D03*
X128754780Y-158247160D03*
X128254780Y-158247160D03*
X127754780Y-158247160D03*
X127254780Y-158247160D03*
X126754780Y-158247160D03*
X126254780Y-158247160D03*
X125754780Y-158247160D03*
X125254780Y-158247160D03*
X124754780Y-158247160D03*
X123754780Y-152247160D03*
X124254780Y-152997160D03*
X123754780Y-152747160D03*
X124254780Y-153497160D03*
X124254780Y-153997160D03*
X124254780Y-154497160D03*
X124254780Y-154997160D03*
X124254780Y-155497160D03*
X124254780Y-155997160D03*
X123754780Y-153747160D03*
X123754780Y-154247160D03*
X123754780Y-154747160D03*
X123754780Y-155247160D03*
X123754780Y-155747160D03*
X123754780Y-156247160D03*
X123754780Y-156747160D03*
X124254780Y-156997160D03*
X124254780Y-157497160D03*
X124254780Y-158247160D03*
X129754780Y-158247160D03*
X129004780Y-157747160D03*
X124504780Y-152247160D03*
X125754780Y-151747160D03*
X129754780Y-152997160D03*
X130254780Y-152247160D03*
D17*
X127004780Y-154997160D03*
%TD*%
%TO.C,L1*%
G36*
G01*
X132339760Y-154322240D02*
X132339760Y-154572240D01*
G75*
G02*
X132214760Y-154697240I-125000J0D01*
G01*
X131904760Y-154697240D01*
G75*
G02*
X131779760Y-154572240I0J125000D01*
G01*
X131779760Y-154322240D01*
G75*
G02*
X131904760Y-154197240I125000J0D01*
G01*
X132214760Y-154197240D01*
G75*
G02*
X132339760Y-154322240I0J-125000D01*
G01*
G37*
G36*
G01*
X132979760Y-154322240D02*
X132979760Y-154572240D01*
G75*
G02*
X132854760Y-154697240I-125000J0D01*
G01*
X132544760Y-154697240D01*
G75*
G02*
X132419760Y-154572240I0J125000D01*
G01*
X132419760Y-154322240D01*
G75*
G02*
X132544760Y-154197240I125000J0D01*
G01*
X132854760Y-154197240D01*
G75*
G02*
X132979760Y-154322240I0J-125000D01*
G01*
G37*
%TD*%
%TO.C,C20*%
G36*
G01*
X122054020Y-157657160D02*
X122054020Y-158052160D01*
G75*
G02*
X121881520Y-158224660I-172500J0D01*
G01*
X121536520Y-158224660D01*
G75*
G02*
X121364020Y-158052160I0J172500D01*
G01*
X121364020Y-157657160D01*
G75*
G02*
X121536520Y-157484660I172500J0D01*
G01*
X121881520Y-157484660D01*
G75*
G02*
X122054020Y-157657160I0J-172500D01*
G01*
G37*
G36*
G01*
X123024020Y-157657160D02*
X123024020Y-158052160D01*
G75*
G02*
X122851520Y-158224660I-172500J0D01*
G01*
X122506520Y-158224660D01*
G75*
G02*
X122334020Y-158052160I0J172500D01*
G01*
X122334020Y-157657160D01*
G75*
G02*
X122506520Y-157484660I172500J0D01*
G01*
X122851520Y-157484660D01*
G75*
G02*
X123024020Y-157657160I0J-172500D01*
G01*
G37*
%TD*%
%TO.C,C19*%
G36*
G01*
X122066720Y-158640140D02*
X122066720Y-159035140D01*
G75*
G02*
X121894220Y-159207640I-172500J0D01*
G01*
X121549220Y-159207640D01*
G75*
G02*
X121376720Y-159035140I0J172500D01*
G01*
X121376720Y-158640140D01*
G75*
G02*
X121549220Y-158467640I172500J0D01*
G01*
X121894220Y-158467640D01*
G75*
G02*
X122066720Y-158640140I0J-172500D01*
G01*
G37*
G36*
G01*
X123036720Y-158640140D02*
X123036720Y-159035140D01*
G75*
G02*
X122864220Y-159207640I-172500J0D01*
G01*
X122519220Y-159207640D01*
G75*
G02*
X122346720Y-159035140I0J172500D01*
G01*
X122346720Y-158640140D01*
G75*
G02*
X122519220Y-158467640I172500J0D01*
G01*
X122864220Y-158467640D01*
G75*
G02*
X123036720Y-158640140I0J-172500D01*
G01*
G37*
%TD*%
%TO.C,C15*%
G36*
G01*
X125087680Y-150910940D02*
X125087680Y-150515940D01*
G75*
G02*
X125260180Y-150343440I172500J0D01*
G01*
X125605180Y-150343440D01*
G75*
G02*
X125777680Y-150515940I0J-172500D01*
G01*
X125777680Y-150910940D01*
G75*
G02*
X125605180Y-151083440I-172500J0D01*
G01*
X125260180Y-151083440D01*
G75*
G02*
X125087680Y-150910940I0J172500D01*
G01*
G37*
G36*
G01*
X124117680Y-150910940D02*
X124117680Y-150515940D01*
G75*
G02*
X124290180Y-150343440I172500J0D01*
G01*
X124635180Y-150343440D01*
G75*
G02*
X124807680Y-150515940I0J-172500D01*
G01*
X124807680Y-150910940D01*
G75*
G02*
X124635180Y-151083440I-172500J0D01*
G01*
X124290180Y-151083440D01*
G75*
G02*
X124117680Y-150910940I0J172500D01*
G01*
G37*
%TD*%
%TO.C,C14*%
G36*
G01*
X122097500Y-152085660D02*
X122097500Y-152480660D01*
G75*
G02*
X121925000Y-152653160I-172500J0D01*
G01*
X121580000Y-152653160D01*
G75*
G02*
X121407500Y-152480660I0J172500D01*
G01*
X121407500Y-152085660D01*
G75*
G02*
X121580000Y-151913160I172500J0D01*
G01*
X121925000Y-151913160D01*
G75*
G02*
X122097500Y-152085660I0J-172500D01*
G01*
G37*
G36*
G01*
X123067500Y-152085660D02*
X123067500Y-152480660D01*
G75*
G02*
X122895000Y-152653160I-172500J0D01*
G01*
X122550000Y-152653160D01*
G75*
G02*
X122377500Y-152480660I0J172500D01*
G01*
X122377500Y-152085660D01*
G75*
G02*
X122550000Y-151913160I172500J0D01*
G01*
X122895000Y-151913160D01*
G75*
G02*
X123067500Y-152085660I0J-172500D01*
G01*
G37*
%TD*%
%TO.C,C13*%
G36*
G01*
X126695840Y-150654480D02*
X126695840Y-150904480D01*
G75*
G02*
X126570840Y-151029480I-125000J0D01*
G01*
X126260840Y-151029480D01*
G75*
G02*
X126135840Y-150904480I0J125000D01*
G01*
X126135840Y-150654480D01*
G75*
G02*
X126260840Y-150529480I125000J0D01*
G01*
X126570840Y-150529480D01*
G75*
G02*
X126695840Y-150654480I0J-125000D01*
G01*
G37*
G36*
G01*
X127335840Y-150654480D02*
X127335840Y-150904480D01*
G75*
G02*
X127210840Y-151029480I-125000J0D01*
G01*
X126900840Y-151029480D01*
G75*
G02*
X126775840Y-150904480I0J125000D01*
G01*
X126775840Y-150654480D01*
G75*
G02*
X126900840Y-150529480I125000J0D01*
G01*
X127210840Y-150529480D01*
G75*
G02*
X127335840Y-150654480I0J-125000D01*
G01*
G37*
%TD*%
%TO.C,C12*%
G36*
G01*
X128161420Y-150651940D02*
X128161420Y-150901940D01*
G75*
G02*
X128036420Y-151026940I-125000J0D01*
G01*
X127726420Y-151026940D01*
G75*
G02*
X127601420Y-150901940I0J125000D01*
G01*
X127601420Y-150651940D01*
G75*
G02*
X127726420Y-150526940I125000J0D01*
G01*
X128036420Y-150526940D01*
G75*
G02*
X128161420Y-150651940I0J-125000D01*
G01*
G37*
G36*
G01*
X128801420Y-150651940D02*
X128801420Y-150901940D01*
G75*
G02*
X128676420Y-151026940I-125000J0D01*
G01*
X128366420Y-151026940D01*
G75*
G02*
X128241420Y-150901940I0J125000D01*
G01*
X128241420Y-150651940D01*
G75*
G02*
X128366420Y-150526940I125000J0D01*
G01*
X128676420Y-150526940D01*
G75*
G02*
X128801420Y-150651940I0J-125000D01*
G01*
G37*
%TD*%
%TO.C,C11*%
G36*
G01*
X131734900Y-152466780D02*
X131734900Y-152716780D01*
G75*
G02*
X131609900Y-152841780I-125000J0D01*
G01*
X131299900Y-152841780D01*
G75*
G02*
X131174900Y-152716780I0J125000D01*
G01*
X131174900Y-152466780D01*
G75*
G02*
X131299900Y-152341780I125000J0D01*
G01*
X131609900Y-152341780D01*
G75*
G02*
X131734900Y-152466780I0J-125000D01*
G01*
G37*
G36*
G01*
X132374900Y-152466780D02*
X132374900Y-152716780D01*
G75*
G02*
X132249900Y-152841780I-125000J0D01*
G01*
X131939900Y-152841780D01*
G75*
G02*
X131814900Y-152716780I0J125000D01*
G01*
X131814900Y-152466780D01*
G75*
G02*
X131939900Y-152341780I125000J0D01*
G01*
X132249900Y-152341780D01*
G75*
G02*
X132374900Y-152466780I0J-125000D01*
G01*
G37*
%TD*%
%TO.C,C10*%
G36*
G01*
X133005200Y-153506900D02*
X133005200Y-153756900D01*
G75*
G02*
X132880200Y-153881900I-125000J0D01*
G01*
X132570200Y-153881900D01*
G75*
G02*
X132445200Y-153756900I0J125000D01*
G01*
X132445200Y-153506900D01*
G75*
G02*
X132570200Y-153381900I125000J0D01*
G01*
X132880200Y-153381900D01*
G75*
G02*
X133005200Y-153506900I0J-125000D01*
G01*
G37*
G36*
G01*
X133645200Y-153506900D02*
X133645200Y-153756900D01*
G75*
G02*
X133520200Y-153881900I-125000J0D01*
G01*
X133210200Y-153881900D01*
G75*
G02*
X133085200Y-153756900I0J125000D01*
G01*
X133085200Y-153506900D01*
G75*
G02*
X133210200Y-153381900I125000J0D01*
G01*
X133520200Y-153381900D01*
G75*
G02*
X133645200Y-153506900I0J-125000D01*
G01*
G37*
%TD*%
%TO.C,C9*%
G36*
G01*
X131320860Y-157415540D02*
X131715860Y-157415540D01*
G75*
G02*
X131888360Y-157588040I0J-172500D01*
G01*
X131888360Y-157933040D01*
G75*
G02*
X131715860Y-158105540I-172500J0D01*
G01*
X131320860Y-158105540D01*
G75*
G02*
X131148360Y-157933040I0J172500D01*
G01*
X131148360Y-157588040D01*
G75*
G02*
X131320860Y-157415540I172500J0D01*
G01*
G37*
G36*
G01*
X131320860Y-156445540D02*
X131715860Y-156445540D01*
G75*
G02*
X131888360Y-156618040I0J-172500D01*
G01*
X131888360Y-156963040D01*
G75*
G02*
X131715860Y-157135540I-172500J0D01*
G01*
X131320860Y-157135540D01*
G75*
G02*
X131148360Y-156963040I0J172500D01*
G01*
X131148360Y-156618040D01*
G75*
G02*
X131320860Y-156445540I172500J0D01*
G01*
G37*
%TD*%
%TO.C,C8*%
G36*
G01*
X129521580Y-159515080D02*
X129521580Y-159265080D01*
G75*
G02*
X129646580Y-159140080I125000J0D01*
G01*
X129956580Y-159140080D01*
G75*
G02*
X130081580Y-159265080I0J-125000D01*
G01*
X130081580Y-159515080D01*
G75*
G02*
X129956580Y-159640080I-125000J0D01*
G01*
X129646580Y-159640080D01*
G75*
G02*
X129521580Y-159515080I0J125000D01*
G01*
G37*
G36*
G01*
X128881580Y-159515080D02*
X128881580Y-159265080D01*
G75*
G02*
X129006580Y-159140080I125000J0D01*
G01*
X129316580Y-159140080D01*
G75*
G02*
X129441580Y-159265080I0J-125000D01*
G01*
X129441580Y-159515080D01*
G75*
G02*
X129316580Y-159640080I-125000J0D01*
G01*
X129006580Y-159640080D01*
G75*
G02*
X128881580Y-159515080I0J125000D01*
G01*
G37*
%TD*%
%TO.C,C7*%
G36*
G01*
X126878720Y-159295560D02*
X126878720Y-159545560D01*
G75*
G02*
X126753720Y-159670560I-125000J0D01*
G01*
X126443720Y-159670560D01*
G75*
G02*
X126318720Y-159545560I0J125000D01*
G01*
X126318720Y-159295560D01*
G75*
G02*
X126443720Y-159170560I125000J0D01*
G01*
X126753720Y-159170560D01*
G75*
G02*
X126878720Y-159295560I0J-125000D01*
G01*
G37*
G36*
G01*
X127518720Y-159295560D02*
X127518720Y-159545560D01*
G75*
G02*
X127393720Y-159670560I-125000J0D01*
G01*
X127083720Y-159670560D01*
G75*
G02*
X126958720Y-159545560I0J125000D01*
G01*
X126958720Y-159295560D01*
G75*
G02*
X127083720Y-159170560I125000J0D01*
G01*
X127393720Y-159170560D01*
G75*
G02*
X127518720Y-159295560I0J-125000D01*
G01*
G37*
%TD*%
%TO.C,C6*%
G36*
G01*
X122046400Y-156120460D02*
X122046400Y-156515460D01*
G75*
G02*
X121873900Y-156687960I-172500J0D01*
G01*
X121528900Y-156687960D01*
G75*
G02*
X121356400Y-156515460I0J172500D01*
G01*
X121356400Y-156120460D01*
G75*
G02*
X121528900Y-155947960I172500J0D01*
G01*
X121873900Y-155947960D01*
G75*
G02*
X122046400Y-156120460I0J-172500D01*
G01*
G37*
G36*
G01*
X123016400Y-156120460D02*
X123016400Y-156515460D01*
G75*
G02*
X122843900Y-156687960I-172500J0D01*
G01*
X122498900Y-156687960D01*
G75*
G02*
X122326400Y-156515460I0J172500D01*
G01*
X122326400Y-156120460D01*
G75*
G02*
X122498900Y-155947960I172500J0D01*
G01*
X122843900Y-155947960D01*
G75*
G02*
X123016400Y-156120460I0J-172500D01*
G01*
G37*
%TD*%
%TO.C,C5*%
G36*
G01*
X122138780Y-153757100D02*
X122138780Y-154007100D01*
G75*
G02*
X122013780Y-154132100I-125000J0D01*
G01*
X121703780Y-154132100D01*
G75*
G02*
X121578780Y-154007100I0J125000D01*
G01*
X121578780Y-153757100D01*
G75*
G02*
X121703780Y-153632100I125000J0D01*
G01*
X122013780Y-153632100D01*
G75*
G02*
X122138780Y-153757100I0J-125000D01*
G01*
G37*
G36*
G01*
X122778780Y-153757100D02*
X122778780Y-154007100D01*
G75*
G02*
X122653780Y-154132100I-125000J0D01*
G01*
X122343780Y-154132100D01*
G75*
G02*
X122218780Y-154007100I0J125000D01*
G01*
X122218780Y-153757100D01*
G75*
G02*
X122343780Y-153632100I125000J0D01*
G01*
X122653780Y-153632100D01*
G75*
G02*
X122778780Y-153757100I0J-125000D01*
G01*
G37*
%TD*%
%TO.C,C4*%
G36*
G01*
X133422820Y-154856820D02*
X133672820Y-154856820D01*
G75*
G02*
X133797820Y-154981820I0J-125000D01*
G01*
X133797820Y-155291820D01*
G75*
G02*
X133672820Y-155416820I-125000J0D01*
G01*
X133422820Y-155416820D01*
G75*
G02*
X133297820Y-155291820I0J125000D01*
G01*
X133297820Y-154981820D01*
G75*
G02*
X133422820Y-154856820I125000J0D01*
G01*
G37*
G36*
G01*
X133422820Y-154216820D02*
X133672820Y-154216820D01*
G75*
G02*
X133797820Y-154341820I0J-125000D01*
G01*
X133797820Y-154651820D01*
G75*
G02*
X133672820Y-154776820I-125000J0D01*
G01*
X133422820Y-154776820D01*
G75*
G02*
X133297820Y-154651820I0J125000D01*
G01*
X133297820Y-154341820D01*
G75*
G02*
X133422820Y-154216820I125000J0D01*
G01*
G37*
%TD*%
%TO.C,C3*%
G36*
G01*
X131371580Y-154736180D02*
X131121580Y-154736180D01*
G75*
G02*
X130996580Y-154611180I0J125000D01*
G01*
X130996580Y-154301180D01*
G75*
G02*
X131121580Y-154176180I125000J0D01*
G01*
X131371580Y-154176180D01*
G75*
G02*
X131496580Y-154301180I0J-125000D01*
G01*
X131496580Y-154611180D01*
G75*
G02*
X131371580Y-154736180I-125000J0D01*
G01*
G37*
G36*
G01*
X131371580Y-155376180D02*
X131121580Y-155376180D01*
G75*
G02*
X130996580Y-155251180I0J125000D01*
G01*
X130996580Y-154941180D01*
G75*
G02*
X131121580Y-154816180I125000J0D01*
G01*
X131371580Y-154816180D01*
G75*
G02*
X131496580Y-154941180I0J-125000D01*
G01*
X131496580Y-155251180D01*
G75*
G02*
X131371580Y-155376180I-125000J0D01*
G01*
G37*
%TD*%
%TO.C,C2*%
G36*
G01*
X136352620Y-150843720D02*
X136352620Y-151093720D01*
G75*
G02*
X136227620Y-151218720I-125000J0D01*
G01*
X135917620Y-151218720D01*
G75*
G02*
X135792620Y-151093720I0J125000D01*
G01*
X135792620Y-150843720D01*
G75*
G02*
X135917620Y-150718720I125000J0D01*
G01*
X136227620Y-150718720D01*
G75*
G02*
X136352620Y-150843720I0J-125000D01*
G01*
G37*
G36*
G01*
X136992620Y-150843720D02*
X136992620Y-151093720D01*
G75*
G02*
X136867620Y-151218720I-125000J0D01*
G01*
X136557620Y-151218720D01*
G75*
G02*
X136432620Y-151093720I0J125000D01*
G01*
X136432620Y-150843720D01*
G75*
G02*
X136557620Y-150718720I125000J0D01*
G01*
X136867620Y-150718720D01*
G75*
G02*
X136992620Y-150843720I0J-125000D01*
G01*
G37*
%TD*%
%TO.C,C1*%
G36*
G01*
X131847920Y-151467100D02*
X131847920Y-151217100D01*
G75*
G02*
X131972920Y-151092100I125000J0D01*
G01*
X132282920Y-151092100D01*
G75*
G02*
X132407920Y-151217100I0J-125000D01*
G01*
X132407920Y-151467100D01*
G75*
G02*
X132282920Y-151592100I-125000J0D01*
G01*
X131972920Y-151592100D01*
G75*
G02*
X131847920Y-151467100I0J125000D01*
G01*
G37*
G36*
G01*
X131207920Y-151467100D02*
X131207920Y-151217100D01*
G75*
G02*
X131332920Y-151092100I125000J0D01*
G01*
X131642920Y-151092100D01*
G75*
G02*
X131767920Y-151217100I0J-125000D01*
G01*
X131767920Y-151467100D01*
G75*
G02*
X131642920Y-151592100I-125000J0D01*
G01*
X131332920Y-151592100D01*
G75*
G02*
X131207920Y-151467100I0J125000D01*
G01*
G37*
%TD*%
M02*
