%TF.GenerationSoftware,KiCad,Pcbnew,(5.1.9)-1*%
%TF.CreationDate,2021-02-01T23:30:29+08:00*%
%TF.ProjectId,NRF52840,4e524635-3238-4343-902e-6b696361645f,rev?*%
%TF.SameCoordinates,Original*%
%TF.FileFunction,Soldermask,Top*%
%TF.FilePolarity,Negative*%
%FSLAX46Y46*%
G04 Gerber Fmt 4.6, Leading zero omitted, Abs format (unit mm)*
G04 Created by KiCad (PCBNEW (5.1.9)-1) date 2021-02-01 23:30:29*
%MOMM*%
%LPD*%
G01*
G04 APERTURE LIST*
%ADD10C,0.350000*%
%ADD11C,1.200000*%
%ADD12O,3.600000X2.000000*%
%ADD13O,1.800000X1.800000*%
G04 APERTURE END LIST*
%TO.C,REF\u002A\u002A*%
G36*
G01*
X64279480Y-156754420D02*
X64279480Y-155379420D01*
G75*
G02*
X64379480Y-155279420I100000J0D01*
G01*
X64579480Y-155279420D01*
G75*
G02*
X64679480Y-155379420I0J-100000D01*
G01*
X64679480Y-156754420D01*
G75*
G02*
X64579480Y-156854420I-100000J0D01*
G01*
X64379480Y-156854420D01*
G75*
G02*
X64279480Y-156754420I0J100000D01*
G01*
G37*
G36*
G01*
X64779480Y-156754420D02*
X64779480Y-155379420D01*
G75*
G02*
X64879480Y-155279420I100000J0D01*
G01*
X65079480Y-155279420D01*
G75*
G02*
X65179480Y-155379420I0J-100000D01*
G01*
X65179480Y-156754420D01*
G75*
G02*
X65079480Y-156854420I-100000J0D01*
G01*
X64879480Y-156854420D01*
G75*
G02*
X64779480Y-156754420I0J100000D01*
G01*
G37*
G36*
G01*
X65279480Y-156754420D02*
X65279480Y-155379420D01*
G75*
G02*
X65379480Y-155279420I100000J0D01*
G01*
X65579480Y-155279420D01*
G75*
G02*
X65679480Y-155379420I0J-100000D01*
G01*
X65679480Y-156754420D01*
G75*
G02*
X65579480Y-156854420I-100000J0D01*
G01*
X65379480Y-156854420D01*
G75*
G02*
X65279480Y-156754420I0J100000D01*
G01*
G37*
G36*
G01*
X65779480Y-156754420D02*
X65779480Y-155379420D01*
G75*
G02*
X65879480Y-155279420I100000J0D01*
G01*
X66079480Y-155279420D01*
G75*
G02*
X66179480Y-155379420I0J-100000D01*
G01*
X66179480Y-156754420D01*
G75*
G02*
X66079480Y-156854420I-100000J0D01*
G01*
X65879480Y-156854420D01*
G75*
G02*
X65779480Y-156754420I0J100000D01*
G01*
G37*
G36*
G01*
X66279480Y-156754420D02*
X66279480Y-155379420D01*
G75*
G02*
X66379480Y-155279420I100000J0D01*
G01*
X66579480Y-155279420D01*
G75*
G02*
X66679480Y-155379420I0J-100000D01*
G01*
X66679480Y-156754420D01*
G75*
G02*
X66579480Y-156854420I-100000J0D01*
G01*
X66379480Y-156854420D01*
G75*
G02*
X66279480Y-156754420I0J100000D01*
G01*
G37*
G36*
G01*
X66779480Y-156754420D02*
X66779480Y-155379420D01*
G75*
G02*
X66879480Y-155279420I100000J0D01*
G01*
X67079480Y-155279420D01*
G75*
G02*
X67179480Y-155379420I0J-100000D01*
G01*
X67179480Y-156754420D01*
G75*
G02*
X67079480Y-156854420I-100000J0D01*
G01*
X66879480Y-156854420D01*
G75*
G02*
X66779480Y-156754420I0J100000D01*
G01*
G37*
G36*
G01*
X67279480Y-156754420D02*
X67279480Y-155379420D01*
G75*
G02*
X67379480Y-155279420I100000J0D01*
G01*
X67579480Y-155279420D01*
G75*
G02*
X67679480Y-155379420I0J-100000D01*
G01*
X67679480Y-156754420D01*
G75*
G02*
X67579480Y-156854420I-100000J0D01*
G01*
X67379480Y-156854420D01*
G75*
G02*
X67279480Y-156754420I0J100000D01*
G01*
G37*
G36*
G01*
X67779480Y-156754420D02*
X67779480Y-155379420D01*
G75*
G02*
X67879480Y-155279420I100000J0D01*
G01*
X68079480Y-155279420D01*
G75*
G02*
X68179480Y-155379420I0J-100000D01*
G01*
X68179480Y-156754420D01*
G75*
G02*
X68079480Y-156854420I-100000J0D01*
G01*
X67879480Y-156854420D01*
G75*
G02*
X67779480Y-156754420I0J100000D01*
G01*
G37*
G36*
G01*
X68279480Y-156754420D02*
X68279480Y-155379420D01*
G75*
G02*
X68379480Y-155279420I100000J0D01*
G01*
X68579480Y-155279420D01*
G75*
G02*
X68679480Y-155379420I0J-100000D01*
G01*
X68679480Y-156754420D01*
G75*
G02*
X68579480Y-156854420I-100000J0D01*
G01*
X68379480Y-156854420D01*
G75*
G02*
X68279480Y-156754420I0J100000D01*
G01*
G37*
G36*
G01*
X68779480Y-156754420D02*
X68779480Y-155379420D01*
G75*
G02*
X68879480Y-155279420I100000J0D01*
G01*
X69079480Y-155279420D01*
G75*
G02*
X69179480Y-155379420I0J-100000D01*
G01*
X69179480Y-156754420D01*
G75*
G02*
X69079480Y-156854420I-100000J0D01*
G01*
X68879480Y-156854420D01*
G75*
G02*
X68779480Y-156754420I0J100000D01*
G01*
G37*
G36*
G01*
X69279480Y-156754420D02*
X69279480Y-155379420D01*
G75*
G02*
X69379480Y-155279420I100000J0D01*
G01*
X69579480Y-155279420D01*
G75*
G02*
X69679480Y-155379420I0J-100000D01*
G01*
X69679480Y-156754420D01*
G75*
G02*
X69579480Y-156854420I-100000J0D01*
G01*
X69379480Y-156854420D01*
G75*
G02*
X69279480Y-156754420I0J100000D01*
G01*
G37*
G36*
G01*
X69779480Y-156754420D02*
X69779480Y-155379420D01*
G75*
G02*
X69879480Y-155279420I100000J0D01*
G01*
X70079480Y-155279420D01*
G75*
G02*
X70179480Y-155379420I0J-100000D01*
G01*
X70179480Y-156754420D01*
G75*
G02*
X70079480Y-156854420I-100000J0D01*
G01*
X69879480Y-156854420D01*
G75*
G02*
X69779480Y-156754420I0J100000D01*
G01*
G37*
G36*
G01*
X70279480Y-156754420D02*
X70279480Y-155379420D01*
G75*
G02*
X70379480Y-155279420I100000J0D01*
G01*
X70579480Y-155279420D01*
G75*
G02*
X70679480Y-155379420I0J-100000D01*
G01*
X70679480Y-156754420D01*
G75*
G02*
X70579480Y-156854420I-100000J0D01*
G01*
X70379480Y-156854420D01*
G75*
G02*
X70279480Y-156754420I0J100000D01*
G01*
G37*
G36*
G01*
X70779480Y-156754420D02*
X70779480Y-155379420D01*
G75*
G02*
X70879480Y-155279420I100000J0D01*
G01*
X71079480Y-155279420D01*
G75*
G02*
X71179480Y-155379420I0J-100000D01*
G01*
X71179480Y-156754420D01*
G75*
G02*
X71079480Y-156854420I-100000J0D01*
G01*
X70879480Y-156854420D01*
G75*
G02*
X70779480Y-156754420I0J100000D01*
G01*
G37*
G36*
G01*
X71279480Y-156754420D02*
X71279480Y-155379420D01*
G75*
G02*
X71379480Y-155279420I100000J0D01*
G01*
X71579480Y-155279420D01*
G75*
G02*
X71679480Y-155379420I0J-100000D01*
G01*
X71679480Y-156754420D01*
G75*
G02*
X71579480Y-156854420I-100000J0D01*
G01*
X71379480Y-156854420D01*
G75*
G02*
X71279480Y-156754420I0J100000D01*
G01*
G37*
G36*
G01*
X71779480Y-156754420D02*
X71779480Y-155379420D01*
G75*
G02*
X71879480Y-155279420I100000J0D01*
G01*
X72079480Y-155279420D01*
G75*
G02*
X72179480Y-155379420I0J-100000D01*
G01*
X72179480Y-156754420D01*
G75*
G02*
X72079480Y-156854420I-100000J0D01*
G01*
X71879480Y-156854420D01*
G75*
G02*
X71779480Y-156754420I0J100000D01*
G01*
G37*
G36*
G01*
X73104480Y-158079420D02*
X73104480Y-157879420D01*
G75*
G02*
X73204480Y-157779420I100000J0D01*
G01*
X74579480Y-157779420D01*
G75*
G02*
X74679480Y-157879420I0J-100000D01*
G01*
X74679480Y-158079420D01*
G75*
G02*
X74579480Y-158179420I-100000J0D01*
G01*
X73204480Y-158179420D01*
G75*
G02*
X73104480Y-158079420I0J100000D01*
G01*
G37*
G36*
G01*
X73104480Y-158579420D02*
X73104480Y-158379420D01*
G75*
G02*
X73204480Y-158279420I100000J0D01*
G01*
X74579480Y-158279420D01*
G75*
G02*
X74679480Y-158379420I0J-100000D01*
G01*
X74679480Y-158579420D01*
G75*
G02*
X74579480Y-158679420I-100000J0D01*
G01*
X73204480Y-158679420D01*
G75*
G02*
X73104480Y-158579420I0J100000D01*
G01*
G37*
G36*
G01*
X73104480Y-159079420D02*
X73104480Y-158879420D01*
G75*
G02*
X73204480Y-158779420I100000J0D01*
G01*
X74579480Y-158779420D01*
G75*
G02*
X74679480Y-158879420I0J-100000D01*
G01*
X74679480Y-159079420D01*
G75*
G02*
X74579480Y-159179420I-100000J0D01*
G01*
X73204480Y-159179420D01*
G75*
G02*
X73104480Y-159079420I0J100000D01*
G01*
G37*
G36*
G01*
X73104480Y-159579420D02*
X73104480Y-159379420D01*
G75*
G02*
X73204480Y-159279420I100000J0D01*
G01*
X74579480Y-159279420D01*
G75*
G02*
X74679480Y-159379420I0J-100000D01*
G01*
X74679480Y-159579420D01*
G75*
G02*
X74579480Y-159679420I-100000J0D01*
G01*
X73204480Y-159679420D01*
G75*
G02*
X73104480Y-159579420I0J100000D01*
G01*
G37*
G36*
G01*
X73104480Y-160079420D02*
X73104480Y-159879420D01*
G75*
G02*
X73204480Y-159779420I100000J0D01*
G01*
X74579480Y-159779420D01*
G75*
G02*
X74679480Y-159879420I0J-100000D01*
G01*
X74679480Y-160079420D01*
G75*
G02*
X74579480Y-160179420I-100000J0D01*
G01*
X73204480Y-160179420D01*
G75*
G02*
X73104480Y-160079420I0J100000D01*
G01*
G37*
G36*
G01*
X73104480Y-160579420D02*
X73104480Y-160379420D01*
G75*
G02*
X73204480Y-160279420I100000J0D01*
G01*
X74579480Y-160279420D01*
G75*
G02*
X74679480Y-160379420I0J-100000D01*
G01*
X74679480Y-160579420D01*
G75*
G02*
X74579480Y-160679420I-100000J0D01*
G01*
X73204480Y-160679420D01*
G75*
G02*
X73104480Y-160579420I0J100000D01*
G01*
G37*
G36*
G01*
X73104480Y-161079420D02*
X73104480Y-160879420D01*
G75*
G02*
X73204480Y-160779420I100000J0D01*
G01*
X74579480Y-160779420D01*
G75*
G02*
X74679480Y-160879420I0J-100000D01*
G01*
X74679480Y-161079420D01*
G75*
G02*
X74579480Y-161179420I-100000J0D01*
G01*
X73204480Y-161179420D01*
G75*
G02*
X73104480Y-161079420I0J100000D01*
G01*
G37*
G36*
G01*
X73104480Y-161579420D02*
X73104480Y-161379420D01*
G75*
G02*
X73204480Y-161279420I100000J0D01*
G01*
X74579480Y-161279420D01*
G75*
G02*
X74679480Y-161379420I0J-100000D01*
G01*
X74679480Y-161579420D01*
G75*
G02*
X74579480Y-161679420I-100000J0D01*
G01*
X73204480Y-161679420D01*
G75*
G02*
X73104480Y-161579420I0J100000D01*
G01*
G37*
G36*
G01*
X73104480Y-162079420D02*
X73104480Y-161879420D01*
G75*
G02*
X73204480Y-161779420I100000J0D01*
G01*
X74579480Y-161779420D01*
G75*
G02*
X74679480Y-161879420I0J-100000D01*
G01*
X74679480Y-162079420D01*
G75*
G02*
X74579480Y-162179420I-100000J0D01*
G01*
X73204480Y-162179420D01*
G75*
G02*
X73104480Y-162079420I0J100000D01*
G01*
G37*
G36*
G01*
X73104480Y-162579420D02*
X73104480Y-162379420D01*
G75*
G02*
X73204480Y-162279420I100000J0D01*
G01*
X74579480Y-162279420D01*
G75*
G02*
X74679480Y-162379420I0J-100000D01*
G01*
X74679480Y-162579420D01*
G75*
G02*
X74579480Y-162679420I-100000J0D01*
G01*
X73204480Y-162679420D01*
G75*
G02*
X73104480Y-162579420I0J100000D01*
G01*
G37*
G36*
G01*
X73104480Y-163079420D02*
X73104480Y-162879420D01*
G75*
G02*
X73204480Y-162779420I100000J0D01*
G01*
X74579480Y-162779420D01*
G75*
G02*
X74679480Y-162879420I0J-100000D01*
G01*
X74679480Y-163079420D01*
G75*
G02*
X74579480Y-163179420I-100000J0D01*
G01*
X73204480Y-163179420D01*
G75*
G02*
X73104480Y-163079420I0J100000D01*
G01*
G37*
G36*
G01*
X73104480Y-163579420D02*
X73104480Y-163379420D01*
G75*
G02*
X73204480Y-163279420I100000J0D01*
G01*
X74579480Y-163279420D01*
G75*
G02*
X74679480Y-163379420I0J-100000D01*
G01*
X74679480Y-163579420D01*
G75*
G02*
X74579480Y-163679420I-100000J0D01*
G01*
X73204480Y-163679420D01*
G75*
G02*
X73104480Y-163579420I0J100000D01*
G01*
G37*
G36*
G01*
X73104480Y-164079420D02*
X73104480Y-163879420D01*
G75*
G02*
X73204480Y-163779420I100000J0D01*
G01*
X74579480Y-163779420D01*
G75*
G02*
X74679480Y-163879420I0J-100000D01*
G01*
X74679480Y-164079420D01*
G75*
G02*
X74579480Y-164179420I-100000J0D01*
G01*
X73204480Y-164179420D01*
G75*
G02*
X73104480Y-164079420I0J100000D01*
G01*
G37*
G36*
G01*
X73104480Y-164579420D02*
X73104480Y-164379420D01*
G75*
G02*
X73204480Y-164279420I100000J0D01*
G01*
X74579480Y-164279420D01*
G75*
G02*
X74679480Y-164379420I0J-100000D01*
G01*
X74679480Y-164579420D01*
G75*
G02*
X74579480Y-164679420I-100000J0D01*
G01*
X73204480Y-164679420D01*
G75*
G02*
X73104480Y-164579420I0J100000D01*
G01*
G37*
G36*
G01*
X73104480Y-165079420D02*
X73104480Y-164879420D01*
G75*
G02*
X73204480Y-164779420I100000J0D01*
G01*
X74579480Y-164779420D01*
G75*
G02*
X74679480Y-164879420I0J-100000D01*
G01*
X74679480Y-165079420D01*
G75*
G02*
X74579480Y-165179420I-100000J0D01*
G01*
X73204480Y-165179420D01*
G75*
G02*
X73104480Y-165079420I0J100000D01*
G01*
G37*
G36*
G01*
X73104480Y-165579420D02*
X73104480Y-165379420D01*
G75*
G02*
X73204480Y-165279420I100000J0D01*
G01*
X74579480Y-165279420D01*
G75*
G02*
X74679480Y-165379420I0J-100000D01*
G01*
X74679480Y-165579420D01*
G75*
G02*
X74579480Y-165679420I-100000J0D01*
G01*
X73204480Y-165679420D01*
G75*
G02*
X73104480Y-165579420I0J100000D01*
G01*
G37*
G36*
G01*
X71779480Y-168079420D02*
X71779480Y-166704420D01*
G75*
G02*
X71879480Y-166604420I100000J0D01*
G01*
X72079480Y-166604420D01*
G75*
G02*
X72179480Y-166704420I0J-100000D01*
G01*
X72179480Y-168079420D01*
G75*
G02*
X72079480Y-168179420I-100000J0D01*
G01*
X71879480Y-168179420D01*
G75*
G02*
X71779480Y-168079420I0J100000D01*
G01*
G37*
G36*
G01*
X71279480Y-168079420D02*
X71279480Y-166704420D01*
G75*
G02*
X71379480Y-166604420I100000J0D01*
G01*
X71579480Y-166604420D01*
G75*
G02*
X71679480Y-166704420I0J-100000D01*
G01*
X71679480Y-168079420D01*
G75*
G02*
X71579480Y-168179420I-100000J0D01*
G01*
X71379480Y-168179420D01*
G75*
G02*
X71279480Y-168079420I0J100000D01*
G01*
G37*
G36*
G01*
X70779480Y-168079420D02*
X70779480Y-166704420D01*
G75*
G02*
X70879480Y-166604420I100000J0D01*
G01*
X71079480Y-166604420D01*
G75*
G02*
X71179480Y-166704420I0J-100000D01*
G01*
X71179480Y-168079420D01*
G75*
G02*
X71079480Y-168179420I-100000J0D01*
G01*
X70879480Y-168179420D01*
G75*
G02*
X70779480Y-168079420I0J100000D01*
G01*
G37*
G36*
G01*
X70279480Y-168079420D02*
X70279480Y-166704420D01*
G75*
G02*
X70379480Y-166604420I100000J0D01*
G01*
X70579480Y-166604420D01*
G75*
G02*
X70679480Y-166704420I0J-100000D01*
G01*
X70679480Y-168079420D01*
G75*
G02*
X70579480Y-168179420I-100000J0D01*
G01*
X70379480Y-168179420D01*
G75*
G02*
X70279480Y-168079420I0J100000D01*
G01*
G37*
G36*
G01*
X69779480Y-168079420D02*
X69779480Y-166704420D01*
G75*
G02*
X69879480Y-166604420I100000J0D01*
G01*
X70079480Y-166604420D01*
G75*
G02*
X70179480Y-166704420I0J-100000D01*
G01*
X70179480Y-168079420D01*
G75*
G02*
X70079480Y-168179420I-100000J0D01*
G01*
X69879480Y-168179420D01*
G75*
G02*
X69779480Y-168079420I0J100000D01*
G01*
G37*
G36*
G01*
X69279480Y-168079420D02*
X69279480Y-166704420D01*
G75*
G02*
X69379480Y-166604420I100000J0D01*
G01*
X69579480Y-166604420D01*
G75*
G02*
X69679480Y-166704420I0J-100000D01*
G01*
X69679480Y-168079420D01*
G75*
G02*
X69579480Y-168179420I-100000J0D01*
G01*
X69379480Y-168179420D01*
G75*
G02*
X69279480Y-168079420I0J100000D01*
G01*
G37*
G36*
G01*
X68779480Y-168079420D02*
X68779480Y-166704420D01*
G75*
G02*
X68879480Y-166604420I100000J0D01*
G01*
X69079480Y-166604420D01*
G75*
G02*
X69179480Y-166704420I0J-100000D01*
G01*
X69179480Y-168079420D01*
G75*
G02*
X69079480Y-168179420I-100000J0D01*
G01*
X68879480Y-168179420D01*
G75*
G02*
X68779480Y-168079420I0J100000D01*
G01*
G37*
G36*
G01*
X68279480Y-168079420D02*
X68279480Y-166704420D01*
G75*
G02*
X68379480Y-166604420I100000J0D01*
G01*
X68579480Y-166604420D01*
G75*
G02*
X68679480Y-166704420I0J-100000D01*
G01*
X68679480Y-168079420D01*
G75*
G02*
X68579480Y-168179420I-100000J0D01*
G01*
X68379480Y-168179420D01*
G75*
G02*
X68279480Y-168079420I0J100000D01*
G01*
G37*
G36*
G01*
X67779480Y-168079420D02*
X67779480Y-166704420D01*
G75*
G02*
X67879480Y-166604420I100000J0D01*
G01*
X68079480Y-166604420D01*
G75*
G02*
X68179480Y-166704420I0J-100000D01*
G01*
X68179480Y-168079420D01*
G75*
G02*
X68079480Y-168179420I-100000J0D01*
G01*
X67879480Y-168179420D01*
G75*
G02*
X67779480Y-168079420I0J100000D01*
G01*
G37*
G36*
G01*
X67279480Y-168079420D02*
X67279480Y-166704420D01*
G75*
G02*
X67379480Y-166604420I100000J0D01*
G01*
X67579480Y-166604420D01*
G75*
G02*
X67679480Y-166704420I0J-100000D01*
G01*
X67679480Y-168079420D01*
G75*
G02*
X67579480Y-168179420I-100000J0D01*
G01*
X67379480Y-168179420D01*
G75*
G02*
X67279480Y-168079420I0J100000D01*
G01*
G37*
G36*
G01*
X66779480Y-168079420D02*
X66779480Y-166704420D01*
G75*
G02*
X66879480Y-166604420I100000J0D01*
G01*
X67079480Y-166604420D01*
G75*
G02*
X67179480Y-166704420I0J-100000D01*
G01*
X67179480Y-168079420D01*
G75*
G02*
X67079480Y-168179420I-100000J0D01*
G01*
X66879480Y-168179420D01*
G75*
G02*
X66779480Y-168079420I0J100000D01*
G01*
G37*
G36*
G01*
X66279480Y-168079420D02*
X66279480Y-166704420D01*
G75*
G02*
X66379480Y-166604420I100000J0D01*
G01*
X66579480Y-166604420D01*
G75*
G02*
X66679480Y-166704420I0J-100000D01*
G01*
X66679480Y-168079420D01*
G75*
G02*
X66579480Y-168179420I-100000J0D01*
G01*
X66379480Y-168179420D01*
G75*
G02*
X66279480Y-168079420I0J100000D01*
G01*
G37*
G36*
G01*
X65779480Y-168079420D02*
X65779480Y-166704420D01*
G75*
G02*
X65879480Y-166604420I100000J0D01*
G01*
X66079480Y-166604420D01*
G75*
G02*
X66179480Y-166704420I0J-100000D01*
G01*
X66179480Y-168079420D01*
G75*
G02*
X66079480Y-168179420I-100000J0D01*
G01*
X65879480Y-168179420D01*
G75*
G02*
X65779480Y-168079420I0J100000D01*
G01*
G37*
G36*
G01*
X65279480Y-168079420D02*
X65279480Y-166704420D01*
G75*
G02*
X65379480Y-166604420I100000J0D01*
G01*
X65579480Y-166604420D01*
G75*
G02*
X65679480Y-166704420I0J-100000D01*
G01*
X65679480Y-168079420D01*
G75*
G02*
X65579480Y-168179420I-100000J0D01*
G01*
X65379480Y-168179420D01*
G75*
G02*
X65279480Y-168079420I0J100000D01*
G01*
G37*
G36*
G01*
X64779480Y-168079420D02*
X64779480Y-166704420D01*
G75*
G02*
X64879480Y-166604420I100000J0D01*
G01*
X65079480Y-166604420D01*
G75*
G02*
X65179480Y-166704420I0J-100000D01*
G01*
X65179480Y-168079420D01*
G75*
G02*
X65079480Y-168179420I-100000J0D01*
G01*
X64879480Y-168179420D01*
G75*
G02*
X64779480Y-168079420I0J100000D01*
G01*
G37*
G36*
G01*
X64279480Y-168079420D02*
X64279480Y-166704420D01*
G75*
G02*
X64379480Y-166604420I100000J0D01*
G01*
X64579480Y-166604420D01*
G75*
G02*
X64679480Y-166704420I0J-100000D01*
G01*
X64679480Y-168079420D01*
G75*
G02*
X64579480Y-168179420I-100000J0D01*
G01*
X64379480Y-168179420D01*
G75*
G02*
X64279480Y-168079420I0J100000D01*
G01*
G37*
G36*
G01*
X61779480Y-165579420D02*
X61779480Y-165379420D01*
G75*
G02*
X61879480Y-165279420I100000J0D01*
G01*
X63254480Y-165279420D01*
G75*
G02*
X63354480Y-165379420I0J-100000D01*
G01*
X63354480Y-165579420D01*
G75*
G02*
X63254480Y-165679420I-100000J0D01*
G01*
X61879480Y-165679420D01*
G75*
G02*
X61779480Y-165579420I0J100000D01*
G01*
G37*
G36*
G01*
X61779480Y-165079420D02*
X61779480Y-164879420D01*
G75*
G02*
X61879480Y-164779420I100000J0D01*
G01*
X63254480Y-164779420D01*
G75*
G02*
X63354480Y-164879420I0J-100000D01*
G01*
X63354480Y-165079420D01*
G75*
G02*
X63254480Y-165179420I-100000J0D01*
G01*
X61879480Y-165179420D01*
G75*
G02*
X61779480Y-165079420I0J100000D01*
G01*
G37*
G36*
G01*
X61779480Y-164579420D02*
X61779480Y-164379420D01*
G75*
G02*
X61879480Y-164279420I100000J0D01*
G01*
X63254480Y-164279420D01*
G75*
G02*
X63354480Y-164379420I0J-100000D01*
G01*
X63354480Y-164579420D01*
G75*
G02*
X63254480Y-164679420I-100000J0D01*
G01*
X61879480Y-164679420D01*
G75*
G02*
X61779480Y-164579420I0J100000D01*
G01*
G37*
G36*
G01*
X61779480Y-164079420D02*
X61779480Y-163879420D01*
G75*
G02*
X61879480Y-163779420I100000J0D01*
G01*
X63254480Y-163779420D01*
G75*
G02*
X63354480Y-163879420I0J-100000D01*
G01*
X63354480Y-164079420D01*
G75*
G02*
X63254480Y-164179420I-100000J0D01*
G01*
X61879480Y-164179420D01*
G75*
G02*
X61779480Y-164079420I0J100000D01*
G01*
G37*
G36*
G01*
X61779480Y-163579420D02*
X61779480Y-163379420D01*
G75*
G02*
X61879480Y-163279420I100000J0D01*
G01*
X63254480Y-163279420D01*
G75*
G02*
X63354480Y-163379420I0J-100000D01*
G01*
X63354480Y-163579420D01*
G75*
G02*
X63254480Y-163679420I-100000J0D01*
G01*
X61879480Y-163679420D01*
G75*
G02*
X61779480Y-163579420I0J100000D01*
G01*
G37*
G36*
G01*
X61779480Y-163079420D02*
X61779480Y-162879420D01*
G75*
G02*
X61879480Y-162779420I100000J0D01*
G01*
X63254480Y-162779420D01*
G75*
G02*
X63354480Y-162879420I0J-100000D01*
G01*
X63354480Y-163079420D01*
G75*
G02*
X63254480Y-163179420I-100000J0D01*
G01*
X61879480Y-163179420D01*
G75*
G02*
X61779480Y-163079420I0J100000D01*
G01*
G37*
G36*
G01*
X61779480Y-162579420D02*
X61779480Y-162379420D01*
G75*
G02*
X61879480Y-162279420I100000J0D01*
G01*
X63254480Y-162279420D01*
G75*
G02*
X63354480Y-162379420I0J-100000D01*
G01*
X63354480Y-162579420D01*
G75*
G02*
X63254480Y-162679420I-100000J0D01*
G01*
X61879480Y-162679420D01*
G75*
G02*
X61779480Y-162579420I0J100000D01*
G01*
G37*
G36*
G01*
X61779480Y-162079420D02*
X61779480Y-161879420D01*
G75*
G02*
X61879480Y-161779420I100000J0D01*
G01*
X63254480Y-161779420D01*
G75*
G02*
X63354480Y-161879420I0J-100000D01*
G01*
X63354480Y-162079420D01*
G75*
G02*
X63254480Y-162179420I-100000J0D01*
G01*
X61879480Y-162179420D01*
G75*
G02*
X61779480Y-162079420I0J100000D01*
G01*
G37*
G36*
G01*
X61779480Y-161579420D02*
X61779480Y-161379420D01*
G75*
G02*
X61879480Y-161279420I100000J0D01*
G01*
X63254480Y-161279420D01*
G75*
G02*
X63354480Y-161379420I0J-100000D01*
G01*
X63354480Y-161579420D01*
G75*
G02*
X63254480Y-161679420I-100000J0D01*
G01*
X61879480Y-161679420D01*
G75*
G02*
X61779480Y-161579420I0J100000D01*
G01*
G37*
G36*
G01*
X61779480Y-161079420D02*
X61779480Y-160879420D01*
G75*
G02*
X61879480Y-160779420I100000J0D01*
G01*
X63254480Y-160779420D01*
G75*
G02*
X63354480Y-160879420I0J-100000D01*
G01*
X63354480Y-161079420D01*
G75*
G02*
X63254480Y-161179420I-100000J0D01*
G01*
X61879480Y-161179420D01*
G75*
G02*
X61779480Y-161079420I0J100000D01*
G01*
G37*
G36*
G01*
X61779480Y-160579420D02*
X61779480Y-160379420D01*
G75*
G02*
X61879480Y-160279420I100000J0D01*
G01*
X63254480Y-160279420D01*
G75*
G02*
X63354480Y-160379420I0J-100000D01*
G01*
X63354480Y-160579420D01*
G75*
G02*
X63254480Y-160679420I-100000J0D01*
G01*
X61879480Y-160679420D01*
G75*
G02*
X61779480Y-160579420I0J100000D01*
G01*
G37*
G36*
G01*
X61779480Y-160079420D02*
X61779480Y-159879420D01*
G75*
G02*
X61879480Y-159779420I100000J0D01*
G01*
X63254480Y-159779420D01*
G75*
G02*
X63354480Y-159879420I0J-100000D01*
G01*
X63354480Y-160079420D01*
G75*
G02*
X63254480Y-160179420I-100000J0D01*
G01*
X61879480Y-160179420D01*
G75*
G02*
X61779480Y-160079420I0J100000D01*
G01*
G37*
G36*
G01*
X61779480Y-159579420D02*
X61779480Y-159379420D01*
G75*
G02*
X61879480Y-159279420I100000J0D01*
G01*
X63254480Y-159279420D01*
G75*
G02*
X63354480Y-159379420I0J-100000D01*
G01*
X63354480Y-159579420D01*
G75*
G02*
X63254480Y-159679420I-100000J0D01*
G01*
X61879480Y-159679420D01*
G75*
G02*
X61779480Y-159579420I0J100000D01*
G01*
G37*
G36*
G01*
X61779480Y-159079420D02*
X61779480Y-158879420D01*
G75*
G02*
X61879480Y-158779420I100000J0D01*
G01*
X63254480Y-158779420D01*
G75*
G02*
X63354480Y-158879420I0J-100000D01*
G01*
X63354480Y-159079420D01*
G75*
G02*
X63254480Y-159179420I-100000J0D01*
G01*
X61879480Y-159179420D01*
G75*
G02*
X61779480Y-159079420I0J100000D01*
G01*
G37*
G36*
G01*
X61779480Y-158579420D02*
X61779480Y-158379420D01*
G75*
G02*
X61879480Y-158279420I100000J0D01*
G01*
X63254480Y-158279420D01*
G75*
G02*
X63354480Y-158379420I0J-100000D01*
G01*
X63354480Y-158579420D01*
G75*
G02*
X63254480Y-158679420I-100000J0D01*
G01*
X61879480Y-158679420D01*
G75*
G02*
X61779480Y-158579420I0J100000D01*
G01*
G37*
G36*
G01*
X61779480Y-158079420D02*
X61779480Y-157879420D01*
G75*
G02*
X61879480Y-157779420I100000J0D01*
G01*
X63254480Y-157779420D01*
G75*
G02*
X63354480Y-157879420I0J-100000D01*
G01*
X63354480Y-158079420D01*
G75*
G02*
X63254480Y-158179420I-100000J0D01*
G01*
X61879480Y-158179420D01*
G75*
G02*
X61779480Y-158079420I0J100000D01*
G01*
G37*
%TD*%
%TO.C,REF\u002A\u002A*%
G36*
G01*
X65025480Y-114574040D02*
X65025480Y-113199040D01*
G75*
G02*
X65125480Y-113099040I100000J0D01*
G01*
X65325480Y-113099040D01*
G75*
G02*
X65425480Y-113199040I0J-100000D01*
G01*
X65425480Y-114574040D01*
G75*
G02*
X65325480Y-114674040I-100000J0D01*
G01*
X65125480Y-114674040D01*
G75*
G02*
X65025480Y-114574040I0J100000D01*
G01*
G37*
G36*
G01*
X65525480Y-114574040D02*
X65525480Y-113199040D01*
G75*
G02*
X65625480Y-113099040I100000J0D01*
G01*
X65825480Y-113099040D01*
G75*
G02*
X65925480Y-113199040I0J-100000D01*
G01*
X65925480Y-114574040D01*
G75*
G02*
X65825480Y-114674040I-100000J0D01*
G01*
X65625480Y-114674040D01*
G75*
G02*
X65525480Y-114574040I0J100000D01*
G01*
G37*
G36*
G01*
X66025480Y-114574040D02*
X66025480Y-113199040D01*
G75*
G02*
X66125480Y-113099040I100000J0D01*
G01*
X66325480Y-113099040D01*
G75*
G02*
X66425480Y-113199040I0J-100000D01*
G01*
X66425480Y-114574040D01*
G75*
G02*
X66325480Y-114674040I-100000J0D01*
G01*
X66125480Y-114674040D01*
G75*
G02*
X66025480Y-114574040I0J100000D01*
G01*
G37*
G36*
G01*
X66525480Y-114574040D02*
X66525480Y-113199040D01*
G75*
G02*
X66625480Y-113099040I100000J0D01*
G01*
X66825480Y-113099040D01*
G75*
G02*
X66925480Y-113199040I0J-100000D01*
G01*
X66925480Y-114574040D01*
G75*
G02*
X66825480Y-114674040I-100000J0D01*
G01*
X66625480Y-114674040D01*
G75*
G02*
X66525480Y-114574040I0J100000D01*
G01*
G37*
G36*
G01*
X67025480Y-114574040D02*
X67025480Y-113199040D01*
G75*
G02*
X67125480Y-113099040I100000J0D01*
G01*
X67325480Y-113099040D01*
G75*
G02*
X67425480Y-113199040I0J-100000D01*
G01*
X67425480Y-114574040D01*
G75*
G02*
X67325480Y-114674040I-100000J0D01*
G01*
X67125480Y-114674040D01*
G75*
G02*
X67025480Y-114574040I0J100000D01*
G01*
G37*
G36*
G01*
X67525480Y-114574040D02*
X67525480Y-113199040D01*
G75*
G02*
X67625480Y-113099040I100000J0D01*
G01*
X67825480Y-113099040D01*
G75*
G02*
X67925480Y-113199040I0J-100000D01*
G01*
X67925480Y-114574040D01*
G75*
G02*
X67825480Y-114674040I-100000J0D01*
G01*
X67625480Y-114674040D01*
G75*
G02*
X67525480Y-114574040I0J100000D01*
G01*
G37*
G36*
G01*
X68025480Y-114574040D02*
X68025480Y-113199040D01*
G75*
G02*
X68125480Y-113099040I100000J0D01*
G01*
X68325480Y-113099040D01*
G75*
G02*
X68425480Y-113199040I0J-100000D01*
G01*
X68425480Y-114574040D01*
G75*
G02*
X68325480Y-114674040I-100000J0D01*
G01*
X68125480Y-114674040D01*
G75*
G02*
X68025480Y-114574040I0J100000D01*
G01*
G37*
G36*
G01*
X68525480Y-114574040D02*
X68525480Y-113199040D01*
G75*
G02*
X68625480Y-113099040I100000J0D01*
G01*
X68825480Y-113099040D01*
G75*
G02*
X68925480Y-113199040I0J-100000D01*
G01*
X68925480Y-114574040D01*
G75*
G02*
X68825480Y-114674040I-100000J0D01*
G01*
X68625480Y-114674040D01*
G75*
G02*
X68525480Y-114574040I0J100000D01*
G01*
G37*
G36*
G01*
X69025480Y-114574040D02*
X69025480Y-113199040D01*
G75*
G02*
X69125480Y-113099040I100000J0D01*
G01*
X69325480Y-113099040D01*
G75*
G02*
X69425480Y-113199040I0J-100000D01*
G01*
X69425480Y-114574040D01*
G75*
G02*
X69325480Y-114674040I-100000J0D01*
G01*
X69125480Y-114674040D01*
G75*
G02*
X69025480Y-114574040I0J100000D01*
G01*
G37*
G36*
G01*
X69525480Y-114574040D02*
X69525480Y-113199040D01*
G75*
G02*
X69625480Y-113099040I100000J0D01*
G01*
X69825480Y-113099040D01*
G75*
G02*
X69925480Y-113199040I0J-100000D01*
G01*
X69925480Y-114574040D01*
G75*
G02*
X69825480Y-114674040I-100000J0D01*
G01*
X69625480Y-114674040D01*
G75*
G02*
X69525480Y-114574040I0J100000D01*
G01*
G37*
G36*
G01*
X70025480Y-114574040D02*
X70025480Y-113199040D01*
G75*
G02*
X70125480Y-113099040I100000J0D01*
G01*
X70325480Y-113099040D01*
G75*
G02*
X70425480Y-113199040I0J-100000D01*
G01*
X70425480Y-114574040D01*
G75*
G02*
X70325480Y-114674040I-100000J0D01*
G01*
X70125480Y-114674040D01*
G75*
G02*
X70025480Y-114574040I0J100000D01*
G01*
G37*
G36*
G01*
X70525480Y-114574040D02*
X70525480Y-113199040D01*
G75*
G02*
X70625480Y-113099040I100000J0D01*
G01*
X70825480Y-113099040D01*
G75*
G02*
X70925480Y-113199040I0J-100000D01*
G01*
X70925480Y-114574040D01*
G75*
G02*
X70825480Y-114674040I-100000J0D01*
G01*
X70625480Y-114674040D01*
G75*
G02*
X70525480Y-114574040I0J100000D01*
G01*
G37*
G36*
G01*
X71350480Y-115399040D02*
X71350480Y-115199040D01*
G75*
G02*
X71450480Y-115099040I100000J0D01*
G01*
X72825480Y-115099040D01*
G75*
G02*
X72925480Y-115199040I0J-100000D01*
G01*
X72925480Y-115399040D01*
G75*
G02*
X72825480Y-115499040I-100000J0D01*
G01*
X71450480Y-115499040D01*
G75*
G02*
X71350480Y-115399040I0J100000D01*
G01*
G37*
G36*
G01*
X71350480Y-115899040D02*
X71350480Y-115699040D01*
G75*
G02*
X71450480Y-115599040I100000J0D01*
G01*
X72825480Y-115599040D01*
G75*
G02*
X72925480Y-115699040I0J-100000D01*
G01*
X72925480Y-115899040D01*
G75*
G02*
X72825480Y-115999040I-100000J0D01*
G01*
X71450480Y-115999040D01*
G75*
G02*
X71350480Y-115899040I0J100000D01*
G01*
G37*
G36*
G01*
X71350480Y-116399040D02*
X71350480Y-116199040D01*
G75*
G02*
X71450480Y-116099040I100000J0D01*
G01*
X72825480Y-116099040D01*
G75*
G02*
X72925480Y-116199040I0J-100000D01*
G01*
X72925480Y-116399040D01*
G75*
G02*
X72825480Y-116499040I-100000J0D01*
G01*
X71450480Y-116499040D01*
G75*
G02*
X71350480Y-116399040I0J100000D01*
G01*
G37*
G36*
G01*
X71350480Y-116899040D02*
X71350480Y-116699040D01*
G75*
G02*
X71450480Y-116599040I100000J0D01*
G01*
X72825480Y-116599040D01*
G75*
G02*
X72925480Y-116699040I0J-100000D01*
G01*
X72925480Y-116899040D01*
G75*
G02*
X72825480Y-116999040I-100000J0D01*
G01*
X71450480Y-116999040D01*
G75*
G02*
X71350480Y-116899040I0J100000D01*
G01*
G37*
G36*
G01*
X71350480Y-117399040D02*
X71350480Y-117199040D01*
G75*
G02*
X71450480Y-117099040I100000J0D01*
G01*
X72825480Y-117099040D01*
G75*
G02*
X72925480Y-117199040I0J-100000D01*
G01*
X72925480Y-117399040D01*
G75*
G02*
X72825480Y-117499040I-100000J0D01*
G01*
X71450480Y-117499040D01*
G75*
G02*
X71350480Y-117399040I0J100000D01*
G01*
G37*
G36*
G01*
X71350480Y-117899040D02*
X71350480Y-117699040D01*
G75*
G02*
X71450480Y-117599040I100000J0D01*
G01*
X72825480Y-117599040D01*
G75*
G02*
X72925480Y-117699040I0J-100000D01*
G01*
X72925480Y-117899040D01*
G75*
G02*
X72825480Y-117999040I-100000J0D01*
G01*
X71450480Y-117999040D01*
G75*
G02*
X71350480Y-117899040I0J100000D01*
G01*
G37*
G36*
G01*
X71350480Y-118399040D02*
X71350480Y-118199040D01*
G75*
G02*
X71450480Y-118099040I100000J0D01*
G01*
X72825480Y-118099040D01*
G75*
G02*
X72925480Y-118199040I0J-100000D01*
G01*
X72925480Y-118399040D01*
G75*
G02*
X72825480Y-118499040I-100000J0D01*
G01*
X71450480Y-118499040D01*
G75*
G02*
X71350480Y-118399040I0J100000D01*
G01*
G37*
G36*
G01*
X71350480Y-118899040D02*
X71350480Y-118699040D01*
G75*
G02*
X71450480Y-118599040I100000J0D01*
G01*
X72825480Y-118599040D01*
G75*
G02*
X72925480Y-118699040I0J-100000D01*
G01*
X72925480Y-118899040D01*
G75*
G02*
X72825480Y-118999040I-100000J0D01*
G01*
X71450480Y-118999040D01*
G75*
G02*
X71350480Y-118899040I0J100000D01*
G01*
G37*
G36*
G01*
X71350480Y-119399040D02*
X71350480Y-119199040D01*
G75*
G02*
X71450480Y-119099040I100000J0D01*
G01*
X72825480Y-119099040D01*
G75*
G02*
X72925480Y-119199040I0J-100000D01*
G01*
X72925480Y-119399040D01*
G75*
G02*
X72825480Y-119499040I-100000J0D01*
G01*
X71450480Y-119499040D01*
G75*
G02*
X71350480Y-119399040I0J100000D01*
G01*
G37*
G36*
G01*
X71350480Y-119899040D02*
X71350480Y-119699040D01*
G75*
G02*
X71450480Y-119599040I100000J0D01*
G01*
X72825480Y-119599040D01*
G75*
G02*
X72925480Y-119699040I0J-100000D01*
G01*
X72925480Y-119899040D01*
G75*
G02*
X72825480Y-119999040I-100000J0D01*
G01*
X71450480Y-119999040D01*
G75*
G02*
X71350480Y-119899040I0J100000D01*
G01*
G37*
G36*
G01*
X71350480Y-120399040D02*
X71350480Y-120199040D01*
G75*
G02*
X71450480Y-120099040I100000J0D01*
G01*
X72825480Y-120099040D01*
G75*
G02*
X72925480Y-120199040I0J-100000D01*
G01*
X72925480Y-120399040D01*
G75*
G02*
X72825480Y-120499040I-100000J0D01*
G01*
X71450480Y-120499040D01*
G75*
G02*
X71350480Y-120399040I0J100000D01*
G01*
G37*
G36*
G01*
X71350480Y-120899040D02*
X71350480Y-120699040D01*
G75*
G02*
X71450480Y-120599040I100000J0D01*
G01*
X72825480Y-120599040D01*
G75*
G02*
X72925480Y-120699040I0J-100000D01*
G01*
X72925480Y-120899040D01*
G75*
G02*
X72825480Y-120999040I-100000J0D01*
G01*
X71450480Y-120999040D01*
G75*
G02*
X71350480Y-120899040I0J100000D01*
G01*
G37*
G36*
G01*
X70525480Y-122899040D02*
X70525480Y-121524040D01*
G75*
G02*
X70625480Y-121424040I100000J0D01*
G01*
X70825480Y-121424040D01*
G75*
G02*
X70925480Y-121524040I0J-100000D01*
G01*
X70925480Y-122899040D01*
G75*
G02*
X70825480Y-122999040I-100000J0D01*
G01*
X70625480Y-122999040D01*
G75*
G02*
X70525480Y-122899040I0J100000D01*
G01*
G37*
G36*
G01*
X70025480Y-122899040D02*
X70025480Y-121524040D01*
G75*
G02*
X70125480Y-121424040I100000J0D01*
G01*
X70325480Y-121424040D01*
G75*
G02*
X70425480Y-121524040I0J-100000D01*
G01*
X70425480Y-122899040D01*
G75*
G02*
X70325480Y-122999040I-100000J0D01*
G01*
X70125480Y-122999040D01*
G75*
G02*
X70025480Y-122899040I0J100000D01*
G01*
G37*
G36*
G01*
X69525480Y-122899040D02*
X69525480Y-121524040D01*
G75*
G02*
X69625480Y-121424040I100000J0D01*
G01*
X69825480Y-121424040D01*
G75*
G02*
X69925480Y-121524040I0J-100000D01*
G01*
X69925480Y-122899040D01*
G75*
G02*
X69825480Y-122999040I-100000J0D01*
G01*
X69625480Y-122999040D01*
G75*
G02*
X69525480Y-122899040I0J100000D01*
G01*
G37*
G36*
G01*
X69025480Y-122899040D02*
X69025480Y-121524040D01*
G75*
G02*
X69125480Y-121424040I100000J0D01*
G01*
X69325480Y-121424040D01*
G75*
G02*
X69425480Y-121524040I0J-100000D01*
G01*
X69425480Y-122899040D01*
G75*
G02*
X69325480Y-122999040I-100000J0D01*
G01*
X69125480Y-122999040D01*
G75*
G02*
X69025480Y-122899040I0J100000D01*
G01*
G37*
G36*
G01*
X68525480Y-122899040D02*
X68525480Y-121524040D01*
G75*
G02*
X68625480Y-121424040I100000J0D01*
G01*
X68825480Y-121424040D01*
G75*
G02*
X68925480Y-121524040I0J-100000D01*
G01*
X68925480Y-122899040D01*
G75*
G02*
X68825480Y-122999040I-100000J0D01*
G01*
X68625480Y-122999040D01*
G75*
G02*
X68525480Y-122899040I0J100000D01*
G01*
G37*
G36*
G01*
X68025480Y-122899040D02*
X68025480Y-121524040D01*
G75*
G02*
X68125480Y-121424040I100000J0D01*
G01*
X68325480Y-121424040D01*
G75*
G02*
X68425480Y-121524040I0J-100000D01*
G01*
X68425480Y-122899040D01*
G75*
G02*
X68325480Y-122999040I-100000J0D01*
G01*
X68125480Y-122999040D01*
G75*
G02*
X68025480Y-122899040I0J100000D01*
G01*
G37*
G36*
G01*
X67525480Y-122899040D02*
X67525480Y-121524040D01*
G75*
G02*
X67625480Y-121424040I100000J0D01*
G01*
X67825480Y-121424040D01*
G75*
G02*
X67925480Y-121524040I0J-100000D01*
G01*
X67925480Y-122899040D01*
G75*
G02*
X67825480Y-122999040I-100000J0D01*
G01*
X67625480Y-122999040D01*
G75*
G02*
X67525480Y-122899040I0J100000D01*
G01*
G37*
G36*
G01*
X67025480Y-122899040D02*
X67025480Y-121524040D01*
G75*
G02*
X67125480Y-121424040I100000J0D01*
G01*
X67325480Y-121424040D01*
G75*
G02*
X67425480Y-121524040I0J-100000D01*
G01*
X67425480Y-122899040D01*
G75*
G02*
X67325480Y-122999040I-100000J0D01*
G01*
X67125480Y-122999040D01*
G75*
G02*
X67025480Y-122899040I0J100000D01*
G01*
G37*
G36*
G01*
X66525480Y-122899040D02*
X66525480Y-121524040D01*
G75*
G02*
X66625480Y-121424040I100000J0D01*
G01*
X66825480Y-121424040D01*
G75*
G02*
X66925480Y-121524040I0J-100000D01*
G01*
X66925480Y-122899040D01*
G75*
G02*
X66825480Y-122999040I-100000J0D01*
G01*
X66625480Y-122999040D01*
G75*
G02*
X66525480Y-122899040I0J100000D01*
G01*
G37*
G36*
G01*
X66025480Y-122899040D02*
X66025480Y-121524040D01*
G75*
G02*
X66125480Y-121424040I100000J0D01*
G01*
X66325480Y-121424040D01*
G75*
G02*
X66425480Y-121524040I0J-100000D01*
G01*
X66425480Y-122899040D01*
G75*
G02*
X66325480Y-122999040I-100000J0D01*
G01*
X66125480Y-122999040D01*
G75*
G02*
X66025480Y-122899040I0J100000D01*
G01*
G37*
G36*
G01*
X65525480Y-122899040D02*
X65525480Y-121524040D01*
G75*
G02*
X65625480Y-121424040I100000J0D01*
G01*
X65825480Y-121424040D01*
G75*
G02*
X65925480Y-121524040I0J-100000D01*
G01*
X65925480Y-122899040D01*
G75*
G02*
X65825480Y-122999040I-100000J0D01*
G01*
X65625480Y-122999040D01*
G75*
G02*
X65525480Y-122899040I0J100000D01*
G01*
G37*
G36*
G01*
X65025480Y-122899040D02*
X65025480Y-121524040D01*
G75*
G02*
X65125480Y-121424040I100000J0D01*
G01*
X65325480Y-121424040D01*
G75*
G02*
X65425480Y-121524040I0J-100000D01*
G01*
X65425480Y-122899040D01*
G75*
G02*
X65325480Y-122999040I-100000J0D01*
G01*
X65125480Y-122999040D01*
G75*
G02*
X65025480Y-122899040I0J100000D01*
G01*
G37*
G36*
G01*
X63025480Y-120899040D02*
X63025480Y-120699040D01*
G75*
G02*
X63125480Y-120599040I100000J0D01*
G01*
X64500480Y-120599040D01*
G75*
G02*
X64600480Y-120699040I0J-100000D01*
G01*
X64600480Y-120899040D01*
G75*
G02*
X64500480Y-120999040I-100000J0D01*
G01*
X63125480Y-120999040D01*
G75*
G02*
X63025480Y-120899040I0J100000D01*
G01*
G37*
G36*
G01*
X63025480Y-120399040D02*
X63025480Y-120199040D01*
G75*
G02*
X63125480Y-120099040I100000J0D01*
G01*
X64500480Y-120099040D01*
G75*
G02*
X64600480Y-120199040I0J-100000D01*
G01*
X64600480Y-120399040D01*
G75*
G02*
X64500480Y-120499040I-100000J0D01*
G01*
X63125480Y-120499040D01*
G75*
G02*
X63025480Y-120399040I0J100000D01*
G01*
G37*
G36*
G01*
X63025480Y-119899040D02*
X63025480Y-119699040D01*
G75*
G02*
X63125480Y-119599040I100000J0D01*
G01*
X64500480Y-119599040D01*
G75*
G02*
X64600480Y-119699040I0J-100000D01*
G01*
X64600480Y-119899040D01*
G75*
G02*
X64500480Y-119999040I-100000J0D01*
G01*
X63125480Y-119999040D01*
G75*
G02*
X63025480Y-119899040I0J100000D01*
G01*
G37*
G36*
G01*
X63025480Y-119399040D02*
X63025480Y-119199040D01*
G75*
G02*
X63125480Y-119099040I100000J0D01*
G01*
X64500480Y-119099040D01*
G75*
G02*
X64600480Y-119199040I0J-100000D01*
G01*
X64600480Y-119399040D01*
G75*
G02*
X64500480Y-119499040I-100000J0D01*
G01*
X63125480Y-119499040D01*
G75*
G02*
X63025480Y-119399040I0J100000D01*
G01*
G37*
G36*
G01*
X63025480Y-118899040D02*
X63025480Y-118699040D01*
G75*
G02*
X63125480Y-118599040I100000J0D01*
G01*
X64500480Y-118599040D01*
G75*
G02*
X64600480Y-118699040I0J-100000D01*
G01*
X64600480Y-118899040D01*
G75*
G02*
X64500480Y-118999040I-100000J0D01*
G01*
X63125480Y-118999040D01*
G75*
G02*
X63025480Y-118899040I0J100000D01*
G01*
G37*
G36*
G01*
X63025480Y-118399040D02*
X63025480Y-118199040D01*
G75*
G02*
X63125480Y-118099040I100000J0D01*
G01*
X64500480Y-118099040D01*
G75*
G02*
X64600480Y-118199040I0J-100000D01*
G01*
X64600480Y-118399040D01*
G75*
G02*
X64500480Y-118499040I-100000J0D01*
G01*
X63125480Y-118499040D01*
G75*
G02*
X63025480Y-118399040I0J100000D01*
G01*
G37*
G36*
G01*
X63025480Y-117899040D02*
X63025480Y-117699040D01*
G75*
G02*
X63125480Y-117599040I100000J0D01*
G01*
X64500480Y-117599040D01*
G75*
G02*
X64600480Y-117699040I0J-100000D01*
G01*
X64600480Y-117899040D01*
G75*
G02*
X64500480Y-117999040I-100000J0D01*
G01*
X63125480Y-117999040D01*
G75*
G02*
X63025480Y-117899040I0J100000D01*
G01*
G37*
G36*
G01*
X63025480Y-117399040D02*
X63025480Y-117199040D01*
G75*
G02*
X63125480Y-117099040I100000J0D01*
G01*
X64500480Y-117099040D01*
G75*
G02*
X64600480Y-117199040I0J-100000D01*
G01*
X64600480Y-117399040D01*
G75*
G02*
X64500480Y-117499040I-100000J0D01*
G01*
X63125480Y-117499040D01*
G75*
G02*
X63025480Y-117399040I0J100000D01*
G01*
G37*
G36*
G01*
X63025480Y-116899040D02*
X63025480Y-116699040D01*
G75*
G02*
X63125480Y-116599040I100000J0D01*
G01*
X64500480Y-116599040D01*
G75*
G02*
X64600480Y-116699040I0J-100000D01*
G01*
X64600480Y-116899040D01*
G75*
G02*
X64500480Y-116999040I-100000J0D01*
G01*
X63125480Y-116999040D01*
G75*
G02*
X63025480Y-116899040I0J100000D01*
G01*
G37*
G36*
G01*
X63025480Y-116399040D02*
X63025480Y-116199040D01*
G75*
G02*
X63125480Y-116099040I100000J0D01*
G01*
X64500480Y-116099040D01*
G75*
G02*
X64600480Y-116199040I0J-100000D01*
G01*
X64600480Y-116399040D01*
G75*
G02*
X64500480Y-116499040I-100000J0D01*
G01*
X63125480Y-116499040D01*
G75*
G02*
X63025480Y-116399040I0J100000D01*
G01*
G37*
G36*
G01*
X63025480Y-115899040D02*
X63025480Y-115699040D01*
G75*
G02*
X63125480Y-115599040I100000J0D01*
G01*
X64500480Y-115599040D01*
G75*
G02*
X64600480Y-115699040I0J-100000D01*
G01*
X64600480Y-115899040D01*
G75*
G02*
X64500480Y-115999040I-100000J0D01*
G01*
X63125480Y-115999040D01*
G75*
G02*
X63025480Y-115899040I0J100000D01*
G01*
G37*
G36*
G01*
X63025480Y-115399040D02*
X63025480Y-115199040D01*
G75*
G02*
X63125480Y-115099040I100000J0D01*
G01*
X64500480Y-115099040D01*
G75*
G02*
X64600480Y-115199040I0J-100000D01*
G01*
X64600480Y-115399040D01*
G75*
G02*
X64500480Y-115499040I-100000J0D01*
G01*
X63125480Y-115499040D01*
G75*
G02*
X63025480Y-115399040I0J100000D01*
G01*
G37*
%TD*%
%TO.C,REF\u002A\u002A*%
G36*
G01*
X65391000Y-143446000D02*
X69991000Y-143446000D01*
G75*
G02*
X70041000Y-143496000I0J-50000D01*
G01*
X70041000Y-148096000D01*
G75*
G02*
X69991000Y-148146000I-50000J0D01*
G01*
X65391000Y-148146000D01*
G75*
G02*
X65341000Y-148096000I0J50000D01*
G01*
X65341000Y-143496000D01*
G75*
G02*
X65391000Y-143446000I50000J0D01*
G01*
G37*
G36*
G01*
X70266000Y-143446000D02*
X71016000Y-143446000D01*
G75*
G02*
X71091000Y-143521000I0J-75000D01*
G01*
X71091000Y-143671000D01*
G75*
G02*
X71016000Y-143746000I-75000J0D01*
G01*
X70266000Y-143746000D01*
G75*
G02*
X70191000Y-143671000I0J75000D01*
G01*
X70191000Y-143521000D01*
G75*
G02*
X70266000Y-143446000I75000J0D01*
G01*
G37*
G36*
G01*
X70266000Y-143846000D02*
X71016000Y-143846000D01*
G75*
G02*
X71091000Y-143921000I0J-75000D01*
G01*
X71091000Y-144071000D01*
G75*
G02*
X71016000Y-144146000I-75000J0D01*
G01*
X70266000Y-144146000D01*
G75*
G02*
X70191000Y-144071000I0J75000D01*
G01*
X70191000Y-143921000D01*
G75*
G02*
X70266000Y-143846000I75000J0D01*
G01*
G37*
G36*
G01*
X70266000Y-144246000D02*
X71016000Y-144246000D01*
G75*
G02*
X71091000Y-144321000I0J-75000D01*
G01*
X71091000Y-144471000D01*
G75*
G02*
X71016000Y-144546000I-75000J0D01*
G01*
X70266000Y-144546000D01*
G75*
G02*
X70191000Y-144471000I0J75000D01*
G01*
X70191000Y-144321000D01*
G75*
G02*
X70266000Y-144246000I75000J0D01*
G01*
G37*
G36*
G01*
X70266000Y-144646000D02*
X71016000Y-144646000D01*
G75*
G02*
X71091000Y-144721000I0J-75000D01*
G01*
X71091000Y-144871000D01*
G75*
G02*
X71016000Y-144946000I-75000J0D01*
G01*
X70266000Y-144946000D01*
G75*
G02*
X70191000Y-144871000I0J75000D01*
G01*
X70191000Y-144721000D01*
G75*
G02*
X70266000Y-144646000I75000J0D01*
G01*
G37*
G36*
G01*
X70266000Y-145046000D02*
X71016000Y-145046000D01*
G75*
G02*
X71091000Y-145121000I0J-75000D01*
G01*
X71091000Y-145271000D01*
G75*
G02*
X71016000Y-145346000I-75000J0D01*
G01*
X70266000Y-145346000D01*
G75*
G02*
X70191000Y-145271000I0J75000D01*
G01*
X70191000Y-145121000D01*
G75*
G02*
X70266000Y-145046000I75000J0D01*
G01*
G37*
G36*
G01*
X70266000Y-145446000D02*
X71016000Y-145446000D01*
G75*
G02*
X71091000Y-145521000I0J-75000D01*
G01*
X71091000Y-145671000D01*
G75*
G02*
X71016000Y-145746000I-75000J0D01*
G01*
X70266000Y-145746000D01*
G75*
G02*
X70191000Y-145671000I0J75000D01*
G01*
X70191000Y-145521000D01*
G75*
G02*
X70266000Y-145446000I75000J0D01*
G01*
G37*
G36*
G01*
X70266000Y-145846000D02*
X71016000Y-145846000D01*
G75*
G02*
X71091000Y-145921000I0J-75000D01*
G01*
X71091000Y-146071000D01*
G75*
G02*
X71016000Y-146146000I-75000J0D01*
G01*
X70266000Y-146146000D01*
G75*
G02*
X70191000Y-146071000I0J75000D01*
G01*
X70191000Y-145921000D01*
G75*
G02*
X70266000Y-145846000I75000J0D01*
G01*
G37*
G36*
G01*
X70266000Y-146246000D02*
X71016000Y-146246000D01*
G75*
G02*
X71091000Y-146321000I0J-75000D01*
G01*
X71091000Y-146471000D01*
G75*
G02*
X71016000Y-146546000I-75000J0D01*
G01*
X70266000Y-146546000D01*
G75*
G02*
X70191000Y-146471000I0J75000D01*
G01*
X70191000Y-146321000D01*
G75*
G02*
X70266000Y-146246000I75000J0D01*
G01*
G37*
G36*
G01*
X70266000Y-146646000D02*
X71016000Y-146646000D01*
G75*
G02*
X71091000Y-146721000I0J-75000D01*
G01*
X71091000Y-146871000D01*
G75*
G02*
X71016000Y-146946000I-75000J0D01*
G01*
X70266000Y-146946000D01*
G75*
G02*
X70191000Y-146871000I0J75000D01*
G01*
X70191000Y-146721000D01*
G75*
G02*
X70266000Y-146646000I75000J0D01*
G01*
G37*
G36*
G01*
X70266000Y-147046000D02*
X71016000Y-147046000D01*
G75*
G02*
X71091000Y-147121000I0J-75000D01*
G01*
X71091000Y-147271000D01*
G75*
G02*
X71016000Y-147346000I-75000J0D01*
G01*
X70266000Y-147346000D01*
G75*
G02*
X70191000Y-147271000I0J75000D01*
G01*
X70191000Y-147121000D01*
G75*
G02*
X70266000Y-147046000I75000J0D01*
G01*
G37*
G36*
G01*
X70266000Y-147446000D02*
X71016000Y-147446000D01*
G75*
G02*
X71091000Y-147521000I0J-75000D01*
G01*
X71091000Y-147671000D01*
G75*
G02*
X71016000Y-147746000I-75000J0D01*
G01*
X70266000Y-147746000D01*
G75*
G02*
X70191000Y-147671000I0J75000D01*
G01*
X70191000Y-147521000D01*
G75*
G02*
X70266000Y-147446000I75000J0D01*
G01*
G37*
G36*
G01*
X70266000Y-147846000D02*
X71016000Y-147846000D01*
G75*
G02*
X71091000Y-147921000I0J-75000D01*
G01*
X71091000Y-148071000D01*
G75*
G02*
X71016000Y-148146000I-75000J0D01*
G01*
X70266000Y-148146000D01*
G75*
G02*
X70191000Y-148071000I0J75000D01*
G01*
X70191000Y-147921000D01*
G75*
G02*
X70266000Y-147846000I75000J0D01*
G01*
G37*
G36*
G01*
X69816000Y-148296000D02*
X69966000Y-148296000D01*
G75*
G02*
X70041000Y-148371000I0J-75000D01*
G01*
X70041000Y-149121000D01*
G75*
G02*
X69966000Y-149196000I-75000J0D01*
G01*
X69816000Y-149196000D01*
G75*
G02*
X69741000Y-149121000I0J75000D01*
G01*
X69741000Y-148371000D01*
G75*
G02*
X69816000Y-148296000I75000J0D01*
G01*
G37*
G36*
G01*
X69416000Y-148296000D02*
X69566000Y-148296000D01*
G75*
G02*
X69641000Y-148371000I0J-75000D01*
G01*
X69641000Y-149121000D01*
G75*
G02*
X69566000Y-149196000I-75000J0D01*
G01*
X69416000Y-149196000D01*
G75*
G02*
X69341000Y-149121000I0J75000D01*
G01*
X69341000Y-148371000D01*
G75*
G02*
X69416000Y-148296000I75000J0D01*
G01*
G37*
G36*
G01*
X69016000Y-148296000D02*
X69166000Y-148296000D01*
G75*
G02*
X69241000Y-148371000I0J-75000D01*
G01*
X69241000Y-149121000D01*
G75*
G02*
X69166000Y-149196000I-75000J0D01*
G01*
X69016000Y-149196000D01*
G75*
G02*
X68941000Y-149121000I0J75000D01*
G01*
X68941000Y-148371000D01*
G75*
G02*
X69016000Y-148296000I75000J0D01*
G01*
G37*
G36*
G01*
X68616000Y-148296000D02*
X68766000Y-148296000D01*
G75*
G02*
X68841000Y-148371000I0J-75000D01*
G01*
X68841000Y-149121000D01*
G75*
G02*
X68766000Y-149196000I-75000J0D01*
G01*
X68616000Y-149196000D01*
G75*
G02*
X68541000Y-149121000I0J75000D01*
G01*
X68541000Y-148371000D01*
G75*
G02*
X68616000Y-148296000I75000J0D01*
G01*
G37*
G36*
G01*
X68216000Y-148296000D02*
X68366000Y-148296000D01*
G75*
G02*
X68441000Y-148371000I0J-75000D01*
G01*
X68441000Y-149121000D01*
G75*
G02*
X68366000Y-149196000I-75000J0D01*
G01*
X68216000Y-149196000D01*
G75*
G02*
X68141000Y-149121000I0J75000D01*
G01*
X68141000Y-148371000D01*
G75*
G02*
X68216000Y-148296000I75000J0D01*
G01*
G37*
G36*
G01*
X67816000Y-148296000D02*
X67966000Y-148296000D01*
G75*
G02*
X68041000Y-148371000I0J-75000D01*
G01*
X68041000Y-149121000D01*
G75*
G02*
X67966000Y-149196000I-75000J0D01*
G01*
X67816000Y-149196000D01*
G75*
G02*
X67741000Y-149121000I0J75000D01*
G01*
X67741000Y-148371000D01*
G75*
G02*
X67816000Y-148296000I75000J0D01*
G01*
G37*
G36*
G01*
X67416000Y-148296000D02*
X67566000Y-148296000D01*
G75*
G02*
X67641000Y-148371000I0J-75000D01*
G01*
X67641000Y-149121000D01*
G75*
G02*
X67566000Y-149196000I-75000J0D01*
G01*
X67416000Y-149196000D01*
G75*
G02*
X67341000Y-149121000I0J75000D01*
G01*
X67341000Y-148371000D01*
G75*
G02*
X67416000Y-148296000I75000J0D01*
G01*
G37*
G36*
G01*
X67016000Y-148296000D02*
X67166000Y-148296000D01*
G75*
G02*
X67241000Y-148371000I0J-75000D01*
G01*
X67241000Y-149121000D01*
G75*
G02*
X67166000Y-149196000I-75000J0D01*
G01*
X67016000Y-149196000D01*
G75*
G02*
X66941000Y-149121000I0J75000D01*
G01*
X66941000Y-148371000D01*
G75*
G02*
X67016000Y-148296000I75000J0D01*
G01*
G37*
G36*
G01*
X66616000Y-148296000D02*
X66766000Y-148296000D01*
G75*
G02*
X66841000Y-148371000I0J-75000D01*
G01*
X66841000Y-149121000D01*
G75*
G02*
X66766000Y-149196000I-75000J0D01*
G01*
X66616000Y-149196000D01*
G75*
G02*
X66541000Y-149121000I0J75000D01*
G01*
X66541000Y-148371000D01*
G75*
G02*
X66616000Y-148296000I75000J0D01*
G01*
G37*
G36*
G01*
X66216000Y-148296000D02*
X66366000Y-148296000D01*
G75*
G02*
X66441000Y-148371000I0J-75000D01*
G01*
X66441000Y-149121000D01*
G75*
G02*
X66366000Y-149196000I-75000J0D01*
G01*
X66216000Y-149196000D01*
G75*
G02*
X66141000Y-149121000I0J75000D01*
G01*
X66141000Y-148371000D01*
G75*
G02*
X66216000Y-148296000I75000J0D01*
G01*
G37*
G36*
G01*
X65816000Y-148296000D02*
X65966000Y-148296000D01*
G75*
G02*
X66041000Y-148371000I0J-75000D01*
G01*
X66041000Y-149121000D01*
G75*
G02*
X65966000Y-149196000I-75000J0D01*
G01*
X65816000Y-149196000D01*
G75*
G02*
X65741000Y-149121000I0J75000D01*
G01*
X65741000Y-148371000D01*
G75*
G02*
X65816000Y-148296000I75000J0D01*
G01*
G37*
G36*
G01*
X65416000Y-148296000D02*
X65566000Y-148296000D01*
G75*
G02*
X65641000Y-148371000I0J-75000D01*
G01*
X65641000Y-149121000D01*
G75*
G02*
X65566000Y-149196000I-75000J0D01*
G01*
X65416000Y-149196000D01*
G75*
G02*
X65341000Y-149121000I0J75000D01*
G01*
X65341000Y-148371000D01*
G75*
G02*
X65416000Y-148296000I75000J0D01*
G01*
G37*
G36*
G01*
X64366000Y-147846000D02*
X65116000Y-147846000D01*
G75*
G02*
X65191000Y-147921000I0J-75000D01*
G01*
X65191000Y-148071000D01*
G75*
G02*
X65116000Y-148146000I-75000J0D01*
G01*
X64366000Y-148146000D01*
G75*
G02*
X64291000Y-148071000I0J75000D01*
G01*
X64291000Y-147921000D01*
G75*
G02*
X64366000Y-147846000I75000J0D01*
G01*
G37*
G36*
G01*
X64366000Y-147446000D02*
X65116000Y-147446000D01*
G75*
G02*
X65191000Y-147521000I0J-75000D01*
G01*
X65191000Y-147671000D01*
G75*
G02*
X65116000Y-147746000I-75000J0D01*
G01*
X64366000Y-147746000D01*
G75*
G02*
X64291000Y-147671000I0J75000D01*
G01*
X64291000Y-147521000D01*
G75*
G02*
X64366000Y-147446000I75000J0D01*
G01*
G37*
G36*
G01*
X64366000Y-147046000D02*
X65116000Y-147046000D01*
G75*
G02*
X65191000Y-147121000I0J-75000D01*
G01*
X65191000Y-147271000D01*
G75*
G02*
X65116000Y-147346000I-75000J0D01*
G01*
X64366000Y-147346000D01*
G75*
G02*
X64291000Y-147271000I0J75000D01*
G01*
X64291000Y-147121000D01*
G75*
G02*
X64366000Y-147046000I75000J0D01*
G01*
G37*
G36*
G01*
X64366000Y-146646000D02*
X65116000Y-146646000D01*
G75*
G02*
X65191000Y-146721000I0J-75000D01*
G01*
X65191000Y-146871000D01*
G75*
G02*
X65116000Y-146946000I-75000J0D01*
G01*
X64366000Y-146946000D01*
G75*
G02*
X64291000Y-146871000I0J75000D01*
G01*
X64291000Y-146721000D01*
G75*
G02*
X64366000Y-146646000I75000J0D01*
G01*
G37*
G36*
G01*
X64366000Y-146246000D02*
X65116000Y-146246000D01*
G75*
G02*
X65191000Y-146321000I0J-75000D01*
G01*
X65191000Y-146471000D01*
G75*
G02*
X65116000Y-146546000I-75000J0D01*
G01*
X64366000Y-146546000D01*
G75*
G02*
X64291000Y-146471000I0J75000D01*
G01*
X64291000Y-146321000D01*
G75*
G02*
X64366000Y-146246000I75000J0D01*
G01*
G37*
G36*
G01*
X64366000Y-145846000D02*
X65116000Y-145846000D01*
G75*
G02*
X65191000Y-145921000I0J-75000D01*
G01*
X65191000Y-146071000D01*
G75*
G02*
X65116000Y-146146000I-75000J0D01*
G01*
X64366000Y-146146000D01*
G75*
G02*
X64291000Y-146071000I0J75000D01*
G01*
X64291000Y-145921000D01*
G75*
G02*
X64366000Y-145846000I75000J0D01*
G01*
G37*
G36*
G01*
X64366000Y-145446000D02*
X65116000Y-145446000D01*
G75*
G02*
X65191000Y-145521000I0J-75000D01*
G01*
X65191000Y-145671000D01*
G75*
G02*
X65116000Y-145746000I-75000J0D01*
G01*
X64366000Y-145746000D01*
G75*
G02*
X64291000Y-145671000I0J75000D01*
G01*
X64291000Y-145521000D01*
G75*
G02*
X64366000Y-145446000I75000J0D01*
G01*
G37*
G36*
G01*
X64366000Y-145046000D02*
X65116000Y-145046000D01*
G75*
G02*
X65191000Y-145121000I0J-75000D01*
G01*
X65191000Y-145271000D01*
G75*
G02*
X65116000Y-145346000I-75000J0D01*
G01*
X64366000Y-145346000D01*
G75*
G02*
X64291000Y-145271000I0J75000D01*
G01*
X64291000Y-145121000D01*
G75*
G02*
X64366000Y-145046000I75000J0D01*
G01*
G37*
G36*
G01*
X64366000Y-144646000D02*
X65116000Y-144646000D01*
G75*
G02*
X65191000Y-144721000I0J-75000D01*
G01*
X65191000Y-144871000D01*
G75*
G02*
X65116000Y-144946000I-75000J0D01*
G01*
X64366000Y-144946000D01*
G75*
G02*
X64291000Y-144871000I0J75000D01*
G01*
X64291000Y-144721000D01*
G75*
G02*
X64366000Y-144646000I75000J0D01*
G01*
G37*
G36*
G01*
X64366000Y-144246000D02*
X65116000Y-144246000D01*
G75*
G02*
X65191000Y-144321000I0J-75000D01*
G01*
X65191000Y-144471000D01*
G75*
G02*
X65116000Y-144546000I-75000J0D01*
G01*
X64366000Y-144546000D01*
G75*
G02*
X64291000Y-144471000I0J75000D01*
G01*
X64291000Y-144321000D01*
G75*
G02*
X64366000Y-144246000I75000J0D01*
G01*
G37*
G36*
G01*
X64366000Y-143846000D02*
X65116000Y-143846000D01*
G75*
G02*
X65191000Y-143921000I0J-75000D01*
G01*
X65191000Y-144071000D01*
G75*
G02*
X65116000Y-144146000I-75000J0D01*
G01*
X64366000Y-144146000D01*
G75*
G02*
X64291000Y-144071000I0J75000D01*
G01*
X64291000Y-143921000D01*
G75*
G02*
X64366000Y-143846000I75000J0D01*
G01*
G37*
G36*
G01*
X64366000Y-143446000D02*
X65116000Y-143446000D01*
G75*
G02*
X65191000Y-143521000I0J-75000D01*
G01*
X65191000Y-143671000D01*
G75*
G02*
X65116000Y-143746000I-75000J0D01*
G01*
X64366000Y-143746000D01*
G75*
G02*
X64291000Y-143671000I0J75000D01*
G01*
X64291000Y-143521000D01*
G75*
G02*
X64366000Y-143446000I75000J0D01*
G01*
G37*
G36*
G01*
X65416000Y-142396000D02*
X65566000Y-142396000D01*
G75*
G02*
X65641000Y-142471000I0J-75000D01*
G01*
X65641000Y-143221000D01*
G75*
G02*
X65566000Y-143296000I-75000J0D01*
G01*
X65416000Y-143296000D01*
G75*
G02*
X65341000Y-143221000I0J75000D01*
G01*
X65341000Y-142471000D01*
G75*
G02*
X65416000Y-142396000I75000J0D01*
G01*
G37*
G36*
G01*
X65816000Y-142396000D02*
X65966000Y-142396000D01*
G75*
G02*
X66041000Y-142471000I0J-75000D01*
G01*
X66041000Y-143221000D01*
G75*
G02*
X65966000Y-143296000I-75000J0D01*
G01*
X65816000Y-143296000D01*
G75*
G02*
X65741000Y-143221000I0J75000D01*
G01*
X65741000Y-142471000D01*
G75*
G02*
X65816000Y-142396000I75000J0D01*
G01*
G37*
G36*
G01*
X66216000Y-142396000D02*
X66366000Y-142396000D01*
G75*
G02*
X66441000Y-142471000I0J-75000D01*
G01*
X66441000Y-143221000D01*
G75*
G02*
X66366000Y-143296000I-75000J0D01*
G01*
X66216000Y-143296000D01*
G75*
G02*
X66141000Y-143221000I0J75000D01*
G01*
X66141000Y-142471000D01*
G75*
G02*
X66216000Y-142396000I75000J0D01*
G01*
G37*
G36*
G01*
X66616000Y-142396000D02*
X66766000Y-142396000D01*
G75*
G02*
X66841000Y-142471000I0J-75000D01*
G01*
X66841000Y-143221000D01*
G75*
G02*
X66766000Y-143296000I-75000J0D01*
G01*
X66616000Y-143296000D01*
G75*
G02*
X66541000Y-143221000I0J75000D01*
G01*
X66541000Y-142471000D01*
G75*
G02*
X66616000Y-142396000I75000J0D01*
G01*
G37*
G36*
G01*
X67016000Y-142396000D02*
X67166000Y-142396000D01*
G75*
G02*
X67241000Y-142471000I0J-75000D01*
G01*
X67241000Y-143221000D01*
G75*
G02*
X67166000Y-143296000I-75000J0D01*
G01*
X67016000Y-143296000D01*
G75*
G02*
X66941000Y-143221000I0J75000D01*
G01*
X66941000Y-142471000D01*
G75*
G02*
X67016000Y-142396000I75000J0D01*
G01*
G37*
G36*
G01*
X67416000Y-142396000D02*
X67566000Y-142396000D01*
G75*
G02*
X67641000Y-142471000I0J-75000D01*
G01*
X67641000Y-143221000D01*
G75*
G02*
X67566000Y-143296000I-75000J0D01*
G01*
X67416000Y-143296000D01*
G75*
G02*
X67341000Y-143221000I0J75000D01*
G01*
X67341000Y-142471000D01*
G75*
G02*
X67416000Y-142396000I75000J0D01*
G01*
G37*
G36*
G01*
X67816000Y-142396000D02*
X67966000Y-142396000D01*
G75*
G02*
X68041000Y-142471000I0J-75000D01*
G01*
X68041000Y-143221000D01*
G75*
G02*
X67966000Y-143296000I-75000J0D01*
G01*
X67816000Y-143296000D01*
G75*
G02*
X67741000Y-143221000I0J75000D01*
G01*
X67741000Y-142471000D01*
G75*
G02*
X67816000Y-142396000I75000J0D01*
G01*
G37*
G36*
G01*
X68216000Y-142396000D02*
X68366000Y-142396000D01*
G75*
G02*
X68441000Y-142471000I0J-75000D01*
G01*
X68441000Y-143221000D01*
G75*
G02*
X68366000Y-143296000I-75000J0D01*
G01*
X68216000Y-143296000D01*
G75*
G02*
X68141000Y-143221000I0J75000D01*
G01*
X68141000Y-142471000D01*
G75*
G02*
X68216000Y-142396000I75000J0D01*
G01*
G37*
G36*
G01*
X68616000Y-142396000D02*
X68766000Y-142396000D01*
G75*
G02*
X68841000Y-142471000I0J-75000D01*
G01*
X68841000Y-143221000D01*
G75*
G02*
X68766000Y-143296000I-75000J0D01*
G01*
X68616000Y-143296000D01*
G75*
G02*
X68541000Y-143221000I0J75000D01*
G01*
X68541000Y-142471000D01*
G75*
G02*
X68616000Y-142396000I75000J0D01*
G01*
G37*
G36*
G01*
X69016000Y-142396000D02*
X69166000Y-142396000D01*
G75*
G02*
X69241000Y-142471000I0J-75000D01*
G01*
X69241000Y-143221000D01*
G75*
G02*
X69166000Y-143296000I-75000J0D01*
G01*
X69016000Y-143296000D01*
G75*
G02*
X68941000Y-143221000I0J75000D01*
G01*
X68941000Y-142471000D01*
G75*
G02*
X69016000Y-142396000I75000J0D01*
G01*
G37*
G36*
G01*
X69416000Y-142396000D02*
X69566000Y-142396000D01*
G75*
G02*
X69641000Y-142471000I0J-75000D01*
G01*
X69641000Y-143221000D01*
G75*
G02*
X69566000Y-143296000I-75000J0D01*
G01*
X69416000Y-143296000D01*
G75*
G02*
X69341000Y-143221000I0J75000D01*
G01*
X69341000Y-142471000D01*
G75*
G02*
X69416000Y-142396000I75000J0D01*
G01*
G37*
G36*
G01*
X69816000Y-142396000D02*
X69966000Y-142396000D01*
G75*
G02*
X70041000Y-142471000I0J-75000D01*
G01*
X70041000Y-143221000D01*
G75*
G02*
X69966000Y-143296000I-75000J0D01*
G01*
X69816000Y-143296000D01*
G75*
G02*
X69741000Y-143221000I0J75000D01*
G01*
X69741000Y-142471000D01*
G75*
G02*
X69816000Y-142396000I75000J0D01*
G01*
G37*
%TD*%
%TO.C,REF\u002A\u002A*%
G36*
G01*
X86483000Y-99388000D02*
X85783000Y-99388000D01*
G75*
G02*
X85733000Y-99338000I0J50000D01*
G01*
X85733000Y-97538000D01*
G75*
G02*
X85783000Y-97488000I50000J0D01*
G01*
X86483000Y-97488000D01*
G75*
G02*
X86533000Y-97538000I0J-50000D01*
G01*
X86533000Y-99338000D01*
G75*
G02*
X86483000Y-99388000I-50000J0D01*
G01*
G37*
G36*
G01*
X87753000Y-99388000D02*
X87053000Y-99388000D01*
G75*
G02*
X87003000Y-99338000I0J50000D01*
G01*
X87003000Y-97538000D01*
G75*
G02*
X87053000Y-97488000I50000J0D01*
G01*
X87753000Y-97488000D01*
G75*
G02*
X87803000Y-97538000I0J-50000D01*
G01*
X87803000Y-99338000D01*
G75*
G02*
X87753000Y-99388000I-50000J0D01*
G01*
G37*
G36*
G01*
X90293000Y-99388000D02*
X89593000Y-99388000D01*
G75*
G02*
X89543000Y-99338000I0J50000D01*
G01*
X89543000Y-97538000D01*
G75*
G02*
X89593000Y-97488000I50000J0D01*
G01*
X90293000Y-97488000D01*
G75*
G02*
X90343000Y-97538000I0J-50000D01*
G01*
X90343000Y-99338000D01*
G75*
G02*
X90293000Y-99388000I-50000J0D01*
G01*
G37*
G36*
G01*
X91563000Y-99388000D02*
X90863000Y-99388000D01*
G75*
G02*
X90813000Y-99338000I0J50000D01*
G01*
X90813000Y-97538000D01*
G75*
G02*
X90863000Y-97488000I50000J0D01*
G01*
X91563000Y-97488000D01*
G75*
G02*
X91613000Y-97538000I0J-50000D01*
G01*
X91613000Y-99338000D01*
G75*
G02*
X91563000Y-99388000I-50000J0D01*
G01*
G37*
G36*
G01*
X92833000Y-99388000D02*
X92133000Y-99388000D01*
G75*
G02*
X92083000Y-99338000I0J50000D01*
G01*
X92083000Y-97538000D01*
G75*
G02*
X92133000Y-97488000I50000J0D01*
G01*
X92833000Y-97488000D01*
G75*
G02*
X92883000Y-97538000I0J-50000D01*
G01*
X92883000Y-99338000D01*
G75*
G02*
X92833000Y-99388000I-50000J0D01*
G01*
G37*
G36*
G01*
X94103000Y-99388000D02*
X93403000Y-99388000D01*
G75*
G02*
X93353000Y-99338000I0J50000D01*
G01*
X93353000Y-97538000D01*
G75*
G02*
X93403000Y-97488000I50000J0D01*
G01*
X94103000Y-97488000D01*
G75*
G02*
X94153000Y-97538000I0J-50000D01*
G01*
X94153000Y-99338000D01*
G75*
G02*
X94103000Y-99388000I-50000J0D01*
G01*
G37*
G36*
G01*
X95373000Y-99388000D02*
X94673000Y-99388000D01*
G75*
G02*
X94623000Y-99338000I0J50000D01*
G01*
X94623000Y-97538000D01*
G75*
G02*
X94673000Y-97488000I50000J0D01*
G01*
X95373000Y-97488000D01*
G75*
G02*
X95423000Y-97538000I0J-50000D01*
G01*
X95423000Y-99338000D01*
G75*
G02*
X95373000Y-99388000I-50000J0D01*
G01*
G37*
G36*
G01*
X96643000Y-99388000D02*
X95943000Y-99388000D01*
G75*
G02*
X95893000Y-99338000I0J50000D01*
G01*
X95893000Y-97538000D01*
G75*
G02*
X95943000Y-97488000I50000J0D01*
G01*
X96643000Y-97488000D01*
G75*
G02*
X96693000Y-97538000I0J-50000D01*
G01*
X96693000Y-99338000D01*
G75*
G02*
X96643000Y-99388000I-50000J0D01*
G01*
G37*
G36*
G01*
X97913000Y-99388000D02*
X97213000Y-99388000D01*
G75*
G02*
X97163000Y-99338000I0J50000D01*
G01*
X97163000Y-97538000D01*
G75*
G02*
X97213000Y-97488000I50000J0D01*
G01*
X97913000Y-97488000D01*
G75*
G02*
X97963000Y-97538000I0J-50000D01*
G01*
X97963000Y-99338000D01*
G75*
G02*
X97913000Y-99388000I-50000J0D01*
G01*
G37*
G36*
G01*
X99183000Y-99388000D02*
X98483000Y-99388000D01*
G75*
G02*
X98433000Y-99338000I0J50000D01*
G01*
X98433000Y-97538000D01*
G75*
G02*
X98483000Y-97488000I50000J0D01*
G01*
X99183000Y-97488000D01*
G75*
G02*
X99233000Y-97538000I0J-50000D01*
G01*
X99233000Y-99338000D01*
G75*
G02*
X99183000Y-99388000I-50000J0D01*
G01*
G37*
G36*
G01*
X100453000Y-99388000D02*
X99753000Y-99388000D01*
G75*
G02*
X99703000Y-99338000I0J50000D01*
G01*
X99703000Y-97538000D01*
G75*
G02*
X99753000Y-97488000I50000J0D01*
G01*
X100453000Y-97488000D01*
G75*
G02*
X100503000Y-97538000I0J-50000D01*
G01*
X100503000Y-99338000D01*
G75*
G02*
X100453000Y-99388000I-50000J0D01*
G01*
G37*
G36*
G01*
X101723000Y-99388000D02*
X101023000Y-99388000D01*
G75*
G02*
X100973000Y-99338000I0J50000D01*
G01*
X100973000Y-97538000D01*
G75*
G02*
X101023000Y-97488000I50000J0D01*
G01*
X101723000Y-97488000D01*
G75*
G02*
X101773000Y-97538000I0J-50000D01*
G01*
X101773000Y-99338000D01*
G75*
G02*
X101723000Y-99388000I-50000J0D01*
G01*
G37*
G36*
G01*
X102993000Y-99388000D02*
X102293000Y-99388000D01*
G75*
G02*
X102243000Y-99338000I0J50000D01*
G01*
X102243000Y-97538000D01*
G75*
G02*
X102293000Y-97488000I50000J0D01*
G01*
X102993000Y-97488000D01*
G75*
G02*
X103043000Y-97538000I0J-50000D01*
G01*
X103043000Y-99338000D01*
G75*
G02*
X102993000Y-99388000I-50000J0D01*
G01*
G37*
G36*
G01*
X104263000Y-99388000D02*
X103563000Y-99388000D01*
G75*
G02*
X103513000Y-99338000I0J50000D01*
G01*
X103513000Y-97538000D01*
G75*
G02*
X103563000Y-97488000I50000J0D01*
G01*
X104263000Y-97488000D01*
G75*
G02*
X104313000Y-97538000I0J-50000D01*
G01*
X104313000Y-99338000D01*
G75*
G02*
X104263000Y-99388000I-50000J0D01*
G01*
G37*
G36*
G01*
X105533000Y-99388000D02*
X104833000Y-99388000D01*
G75*
G02*
X104783000Y-99338000I0J50000D01*
G01*
X104783000Y-97538000D01*
G75*
G02*
X104833000Y-97488000I50000J0D01*
G01*
X105533000Y-97488000D01*
G75*
G02*
X105583000Y-97538000I0J-50000D01*
G01*
X105583000Y-99338000D01*
G75*
G02*
X105533000Y-99388000I-50000J0D01*
G01*
G37*
G36*
G01*
X106803000Y-99388000D02*
X106103000Y-99388000D01*
G75*
G02*
X106053000Y-99338000I0J50000D01*
G01*
X106053000Y-97538000D01*
G75*
G02*
X106103000Y-97488000I50000J0D01*
G01*
X106803000Y-97488000D01*
G75*
G02*
X106853000Y-97538000I0J-50000D01*
G01*
X106853000Y-99338000D01*
G75*
G02*
X106803000Y-99388000I-50000J0D01*
G01*
G37*
G36*
G01*
X109103000Y-100603000D02*
X107303000Y-100603000D01*
G75*
G02*
X107253000Y-100553000I0J50000D01*
G01*
X107253000Y-99853000D01*
G75*
G02*
X107303000Y-99803000I50000J0D01*
G01*
X109103000Y-99803000D01*
G75*
G02*
X109153000Y-99853000I0J-50000D01*
G01*
X109153000Y-100553000D01*
G75*
G02*
X109103000Y-100603000I-50000J0D01*
G01*
G37*
G36*
G01*
X109103000Y-101873000D02*
X107303000Y-101873000D01*
G75*
G02*
X107253000Y-101823000I0J50000D01*
G01*
X107253000Y-101123000D01*
G75*
G02*
X107303000Y-101073000I50000J0D01*
G01*
X109103000Y-101073000D01*
G75*
G02*
X109153000Y-101123000I0J-50000D01*
G01*
X109153000Y-101823000D01*
G75*
G02*
X109103000Y-101873000I-50000J0D01*
G01*
G37*
G36*
G01*
X109103000Y-103143000D02*
X107303000Y-103143000D01*
G75*
G02*
X107253000Y-103093000I0J50000D01*
G01*
X107253000Y-102393000D01*
G75*
G02*
X107303000Y-102343000I50000J0D01*
G01*
X109103000Y-102343000D01*
G75*
G02*
X109153000Y-102393000I0J-50000D01*
G01*
X109153000Y-103093000D01*
G75*
G02*
X109103000Y-103143000I-50000J0D01*
G01*
G37*
G36*
G01*
X109103000Y-104413000D02*
X107303000Y-104413000D01*
G75*
G02*
X107253000Y-104363000I0J50000D01*
G01*
X107253000Y-103663000D01*
G75*
G02*
X107303000Y-103613000I50000J0D01*
G01*
X109103000Y-103613000D01*
G75*
G02*
X109153000Y-103663000I0J-50000D01*
G01*
X109153000Y-104363000D01*
G75*
G02*
X109103000Y-104413000I-50000J0D01*
G01*
G37*
G36*
G01*
X109103000Y-105683000D02*
X107303000Y-105683000D01*
G75*
G02*
X107253000Y-105633000I0J50000D01*
G01*
X107253000Y-104933000D01*
G75*
G02*
X107303000Y-104883000I50000J0D01*
G01*
X109103000Y-104883000D01*
G75*
G02*
X109153000Y-104933000I0J-50000D01*
G01*
X109153000Y-105633000D01*
G75*
G02*
X109103000Y-105683000I-50000J0D01*
G01*
G37*
G36*
G01*
X109103000Y-106953000D02*
X107303000Y-106953000D01*
G75*
G02*
X107253000Y-106903000I0J50000D01*
G01*
X107253000Y-106203000D01*
G75*
G02*
X107303000Y-106153000I50000J0D01*
G01*
X109103000Y-106153000D01*
G75*
G02*
X109153000Y-106203000I0J-50000D01*
G01*
X109153000Y-106903000D01*
G75*
G02*
X109103000Y-106953000I-50000J0D01*
G01*
G37*
G36*
G01*
X109103000Y-108223000D02*
X107303000Y-108223000D01*
G75*
G02*
X107253000Y-108173000I0J50000D01*
G01*
X107253000Y-107473000D01*
G75*
G02*
X107303000Y-107423000I50000J0D01*
G01*
X109103000Y-107423000D01*
G75*
G02*
X109153000Y-107473000I0J-50000D01*
G01*
X109153000Y-108173000D01*
G75*
G02*
X109103000Y-108223000I-50000J0D01*
G01*
G37*
G36*
G01*
X109103000Y-109493000D02*
X107303000Y-109493000D01*
G75*
G02*
X107253000Y-109443000I0J50000D01*
G01*
X107253000Y-108743000D01*
G75*
G02*
X107303000Y-108693000I50000J0D01*
G01*
X109103000Y-108693000D01*
G75*
G02*
X109153000Y-108743000I0J-50000D01*
G01*
X109153000Y-109443000D01*
G75*
G02*
X109103000Y-109493000I-50000J0D01*
G01*
G37*
G36*
G01*
X109103000Y-110763000D02*
X107303000Y-110763000D01*
G75*
G02*
X107253000Y-110713000I0J50000D01*
G01*
X107253000Y-110013000D01*
G75*
G02*
X107303000Y-109963000I50000J0D01*
G01*
X109103000Y-109963000D01*
G75*
G02*
X109153000Y-110013000I0J-50000D01*
G01*
X109153000Y-110713000D01*
G75*
G02*
X109103000Y-110763000I-50000J0D01*
G01*
G37*
G36*
G01*
X109103000Y-112033000D02*
X107303000Y-112033000D01*
G75*
G02*
X107253000Y-111983000I0J50000D01*
G01*
X107253000Y-111283000D01*
G75*
G02*
X107303000Y-111233000I50000J0D01*
G01*
X109103000Y-111233000D01*
G75*
G02*
X109153000Y-111283000I0J-50000D01*
G01*
X109153000Y-111983000D01*
G75*
G02*
X109103000Y-112033000I-50000J0D01*
G01*
G37*
G36*
G01*
X109103000Y-113303000D02*
X107303000Y-113303000D01*
G75*
G02*
X107253000Y-113253000I0J50000D01*
G01*
X107253000Y-112553000D01*
G75*
G02*
X107303000Y-112503000I50000J0D01*
G01*
X109103000Y-112503000D01*
G75*
G02*
X109153000Y-112553000I0J-50000D01*
G01*
X109153000Y-113253000D01*
G75*
G02*
X109103000Y-113303000I-50000J0D01*
G01*
G37*
G36*
G01*
X109103000Y-114573000D02*
X107303000Y-114573000D01*
G75*
G02*
X107253000Y-114523000I0J50000D01*
G01*
X107253000Y-113823000D01*
G75*
G02*
X107303000Y-113773000I50000J0D01*
G01*
X109103000Y-113773000D01*
G75*
G02*
X109153000Y-113823000I0J-50000D01*
G01*
X109153000Y-114523000D01*
G75*
G02*
X109103000Y-114573000I-50000J0D01*
G01*
G37*
G36*
G01*
X106803000Y-116888000D02*
X106103000Y-116888000D01*
G75*
G02*
X106053000Y-116838000I0J50000D01*
G01*
X106053000Y-115038000D01*
G75*
G02*
X106103000Y-114988000I50000J0D01*
G01*
X106803000Y-114988000D01*
G75*
G02*
X106853000Y-115038000I0J-50000D01*
G01*
X106853000Y-116838000D01*
G75*
G02*
X106803000Y-116888000I-50000J0D01*
G01*
G37*
G36*
G01*
X105533000Y-116888000D02*
X104833000Y-116888000D01*
G75*
G02*
X104783000Y-116838000I0J50000D01*
G01*
X104783000Y-115038000D01*
G75*
G02*
X104833000Y-114988000I50000J0D01*
G01*
X105533000Y-114988000D01*
G75*
G02*
X105583000Y-115038000I0J-50000D01*
G01*
X105583000Y-116838000D01*
G75*
G02*
X105533000Y-116888000I-50000J0D01*
G01*
G37*
G36*
G01*
X104263000Y-116888000D02*
X103563000Y-116888000D01*
G75*
G02*
X103513000Y-116838000I0J50000D01*
G01*
X103513000Y-115038000D01*
G75*
G02*
X103563000Y-114988000I50000J0D01*
G01*
X104263000Y-114988000D01*
G75*
G02*
X104313000Y-115038000I0J-50000D01*
G01*
X104313000Y-116838000D01*
G75*
G02*
X104263000Y-116888000I-50000J0D01*
G01*
G37*
G36*
G01*
X102993000Y-116888000D02*
X102293000Y-116888000D01*
G75*
G02*
X102243000Y-116838000I0J50000D01*
G01*
X102243000Y-115038000D01*
G75*
G02*
X102293000Y-114988000I50000J0D01*
G01*
X102993000Y-114988000D01*
G75*
G02*
X103043000Y-115038000I0J-50000D01*
G01*
X103043000Y-116838000D01*
G75*
G02*
X102993000Y-116888000I-50000J0D01*
G01*
G37*
G36*
G01*
X101723000Y-116888000D02*
X101023000Y-116888000D01*
G75*
G02*
X100973000Y-116838000I0J50000D01*
G01*
X100973000Y-115038000D01*
G75*
G02*
X101023000Y-114988000I50000J0D01*
G01*
X101723000Y-114988000D01*
G75*
G02*
X101773000Y-115038000I0J-50000D01*
G01*
X101773000Y-116838000D01*
G75*
G02*
X101723000Y-116888000I-50000J0D01*
G01*
G37*
G36*
G01*
X100453000Y-116888000D02*
X99753000Y-116888000D01*
G75*
G02*
X99703000Y-116838000I0J50000D01*
G01*
X99703000Y-115038000D01*
G75*
G02*
X99753000Y-114988000I50000J0D01*
G01*
X100453000Y-114988000D01*
G75*
G02*
X100503000Y-115038000I0J-50000D01*
G01*
X100503000Y-116838000D01*
G75*
G02*
X100453000Y-116888000I-50000J0D01*
G01*
G37*
G36*
G01*
X99183000Y-116888000D02*
X98483000Y-116888000D01*
G75*
G02*
X98433000Y-116838000I0J50000D01*
G01*
X98433000Y-115038000D01*
G75*
G02*
X98483000Y-114988000I50000J0D01*
G01*
X99183000Y-114988000D01*
G75*
G02*
X99233000Y-115038000I0J-50000D01*
G01*
X99233000Y-116838000D01*
G75*
G02*
X99183000Y-116888000I-50000J0D01*
G01*
G37*
G36*
G01*
X97913000Y-116888000D02*
X97213000Y-116888000D01*
G75*
G02*
X97163000Y-116838000I0J50000D01*
G01*
X97163000Y-115038000D01*
G75*
G02*
X97213000Y-114988000I50000J0D01*
G01*
X97913000Y-114988000D01*
G75*
G02*
X97963000Y-115038000I0J-50000D01*
G01*
X97963000Y-116838000D01*
G75*
G02*
X97913000Y-116888000I-50000J0D01*
G01*
G37*
G36*
G01*
X96643000Y-116888000D02*
X95943000Y-116888000D01*
G75*
G02*
X95893000Y-116838000I0J50000D01*
G01*
X95893000Y-115038000D01*
G75*
G02*
X95943000Y-114988000I50000J0D01*
G01*
X96643000Y-114988000D01*
G75*
G02*
X96693000Y-115038000I0J-50000D01*
G01*
X96693000Y-116838000D01*
G75*
G02*
X96643000Y-116888000I-50000J0D01*
G01*
G37*
G36*
G01*
X95373000Y-116888000D02*
X94673000Y-116888000D01*
G75*
G02*
X94623000Y-116838000I0J50000D01*
G01*
X94623000Y-115038000D01*
G75*
G02*
X94673000Y-114988000I50000J0D01*
G01*
X95373000Y-114988000D01*
G75*
G02*
X95423000Y-115038000I0J-50000D01*
G01*
X95423000Y-116838000D01*
G75*
G02*
X95373000Y-116888000I-50000J0D01*
G01*
G37*
G36*
G01*
X94103000Y-116888000D02*
X93403000Y-116888000D01*
G75*
G02*
X93353000Y-116838000I0J50000D01*
G01*
X93353000Y-115038000D01*
G75*
G02*
X93403000Y-114988000I50000J0D01*
G01*
X94103000Y-114988000D01*
G75*
G02*
X94153000Y-115038000I0J-50000D01*
G01*
X94153000Y-116838000D01*
G75*
G02*
X94103000Y-116888000I-50000J0D01*
G01*
G37*
G36*
G01*
X92833000Y-116888000D02*
X92133000Y-116888000D01*
G75*
G02*
X92083000Y-116838000I0J50000D01*
G01*
X92083000Y-115038000D01*
G75*
G02*
X92133000Y-114988000I50000J0D01*
G01*
X92833000Y-114988000D01*
G75*
G02*
X92883000Y-115038000I0J-50000D01*
G01*
X92883000Y-116838000D01*
G75*
G02*
X92833000Y-116888000I-50000J0D01*
G01*
G37*
G36*
G01*
X91563000Y-116888000D02*
X90863000Y-116888000D01*
G75*
G02*
X90813000Y-116838000I0J50000D01*
G01*
X90813000Y-115038000D01*
G75*
G02*
X90863000Y-114988000I50000J0D01*
G01*
X91563000Y-114988000D01*
G75*
G02*
X91613000Y-115038000I0J-50000D01*
G01*
X91613000Y-116838000D01*
G75*
G02*
X91563000Y-116888000I-50000J0D01*
G01*
G37*
G36*
G01*
X90293000Y-116888000D02*
X89593000Y-116888000D01*
G75*
G02*
X89543000Y-116838000I0J50000D01*
G01*
X89543000Y-115038000D01*
G75*
G02*
X89593000Y-114988000I50000J0D01*
G01*
X90293000Y-114988000D01*
G75*
G02*
X90343000Y-115038000I0J-50000D01*
G01*
X90343000Y-116838000D01*
G75*
G02*
X90293000Y-116888000I-50000J0D01*
G01*
G37*
G36*
G01*
X87753000Y-116888000D02*
X87053000Y-116888000D01*
G75*
G02*
X87003000Y-116838000I0J50000D01*
G01*
X87003000Y-115038000D01*
G75*
G02*
X87053000Y-114988000I50000J0D01*
G01*
X87753000Y-114988000D01*
G75*
G02*
X87803000Y-115038000I0J-50000D01*
G01*
X87803000Y-116838000D01*
G75*
G02*
X87753000Y-116888000I-50000J0D01*
G01*
G37*
G36*
G01*
X86483000Y-116888000D02*
X85783000Y-116888000D01*
G75*
G02*
X85733000Y-116838000I0J50000D01*
G01*
X85733000Y-115038000D01*
G75*
G02*
X85783000Y-114988000I50000J0D01*
G01*
X86483000Y-114988000D01*
G75*
G02*
X86533000Y-115038000I0J-50000D01*
G01*
X86533000Y-116838000D01*
G75*
G02*
X86483000Y-116888000I-50000J0D01*
G01*
G37*
%TD*%
%TO.C,REF\u002A\u002A*%
G36*
G01*
X69912000Y-130417000D02*
X69912000Y-135267000D01*
G75*
G02*
X69862000Y-135317000I-50000J0D01*
G01*
X65012000Y-135317000D01*
G75*
G02*
X64962000Y-135267000I0J50000D01*
G01*
X64962000Y-130417000D01*
G75*
G02*
X65012000Y-130367000I50000J0D01*
G01*
X69862000Y-130367000D01*
G75*
G02*
X69912000Y-130417000I0J-50000D01*
G01*
G37*
D10*
X70687000Y-130092000D03*
X70187000Y-130842000D03*
X66187000Y-129592000D03*
X64937000Y-130092000D03*
X69437000Y-135592000D03*
X70187000Y-136092000D03*
X64687000Y-136092000D03*
X64687000Y-135342000D03*
X64687000Y-134842000D03*
X64187000Y-134592000D03*
X64187000Y-134092000D03*
X64187000Y-133592000D03*
X64187000Y-133092000D03*
X64187000Y-132592000D03*
X64187000Y-132092000D03*
X64187000Y-131592000D03*
X64687000Y-133842000D03*
X64687000Y-133342000D03*
X64687000Y-132842000D03*
X64687000Y-132342000D03*
X64687000Y-131842000D03*
X64687000Y-131342000D03*
X64187000Y-130592000D03*
X64687000Y-130842000D03*
X64187000Y-130092000D03*
X65187000Y-136092000D03*
X65687000Y-136092000D03*
X66187000Y-136092000D03*
X66687000Y-136092000D03*
X67187000Y-136092000D03*
X67687000Y-136092000D03*
X68187000Y-136092000D03*
X68687000Y-136092000D03*
X69187000Y-136092000D03*
X69687000Y-136092000D03*
X68937000Y-135592000D03*
X68437000Y-135592000D03*
X67937000Y-135592000D03*
X67437000Y-135592000D03*
X66937000Y-135592000D03*
X66437000Y-135592000D03*
X65437000Y-135592000D03*
X65437000Y-130092000D03*
X65937000Y-130092000D03*
X66437000Y-130092000D03*
X66937000Y-130092000D03*
X67437000Y-130092000D03*
X67937000Y-130092000D03*
X68437000Y-130092000D03*
X68937000Y-130092000D03*
X66687000Y-129592000D03*
X67187000Y-129592000D03*
X67687000Y-129592000D03*
X68187000Y-129592000D03*
X68687000Y-129592000D03*
X69187000Y-129592000D03*
X69687000Y-129592000D03*
X70187000Y-129592000D03*
X70187000Y-131342000D03*
X70187000Y-131842000D03*
X70187000Y-133342000D03*
X70187000Y-133842000D03*
X70187000Y-134342000D03*
X70187000Y-134842000D03*
X70687000Y-131092000D03*
X70687000Y-132092000D03*
X70687000Y-132592000D03*
X70687000Y-133092000D03*
X70687000Y-133592000D03*
X70687000Y-134092000D03*
X70687000Y-134592000D03*
X70687000Y-135092000D03*
X70687000Y-135592000D03*
%TD*%
%TO.C,NRF52840*%
G36*
G01*
X103607820Y-156026880D02*
X102807820Y-156026880D01*
G75*
G02*
X102757820Y-155976880I0J50000D01*
G01*
X102757820Y-154776880D01*
G75*
G02*
X102807820Y-154726880I50000J0D01*
G01*
X103607820Y-154726880D01*
G75*
G02*
X103657820Y-154776880I0J-50000D01*
G01*
X103657820Y-155976880D01*
G75*
G02*
X103607820Y-156026880I-50000J0D01*
G01*
G37*
G36*
G01*
X102337820Y-156026880D02*
X101537820Y-156026880D01*
G75*
G02*
X101487820Y-155976880I0J50000D01*
G01*
X101487820Y-154776880D01*
G75*
G02*
X101537820Y-154726880I50000J0D01*
G01*
X102337820Y-154726880D01*
G75*
G02*
X102387820Y-154776880I0J-50000D01*
G01*
X102387820Y-155976880D01*
G75*
G02*
X102337820Y-156026880I-50000J0D01*
G01*
G37*
G36*
G01*
X101067820Y-156026880D02*
X100267820Y-156026880D01*
G75*
G02*
X100217820Y-155976880I0J50000D01*
G01*
X100217820Y-154776880D01*
G75*
G02*
X100267820Y-154726880I50000J0D01*
G01*
X101067820Y-154726880D01*
G75*
G02*
X101117820Y-154776880I0J-50000D01*
G01*
X101117820Y-155976880D01*
G75*
G02*
X101067820Y-156026880I-50000J0D01*
G01*
G37*
G36*
G01*
X99797820Y-156026880D02*
X98997820Y-156026880D01*
G75*
G02*
X98947820Y-155976880I0J50000D01*
G01*
X98947820Y-154776880D01*
G75*
G02*
X98997820Y-154726880I50000J0D01*
G01*
X99797820Y-154726880D01*
G75*
G02*
X99847820Y-154776880I0J-50000D01*
G01*
X99847820Y-155976880D01*
G75*
G02*
X99797820Y-156026880I-50000J0D01*
G01*
G37*
G36*
G01*
X98527820Y-156026880D02*
X97727820Y-156026880D01*
G75*
G02*
X97677820Y-155976880I0J50000D01*
G01*
X97677820Y-154776880D01*
G75*
G02*
X97727820Y-154726880I50000J0D01*
G01*
X98527820Y-154726880D01*
G75*
G02*
X98577820Y-154776880I0J-50000D01*
G01*
X98577820Y-155976880D01*
G75*
G02*
X98527820Y-156026880I-50000J0D01*
G01*
G37*
G36*
G01*
X97257820Y-156026880D02*
X96457820Y-156026880D01*
G75*
G02*
X96407820Y-155976880I0J50000D01*
G01*
X96407820Y-154776880D01*
G75*
G02*
X96457820Y-154726880I50000J0D01*
G01*
X97257820Y-154726880D01*
G75*
G02*
X97307820Y-154776880I0J-50000D01*
G01*
X97307820Y-155976880D01*
G75*
G02*
X97257820Y-156026880I-50000J0D01*
G01*
G37*
G36*
G01*
X95987820Y-156026880D02*
X95187820Y-156026880D01*
G75*
G02*
X95137820Y-155976880I0J50000D01*
G01*
X95137820Y-154776880D01*
G75*
G02*
X95187820Y-154726880I50000J0D01*
G01*
X95987820Y-154726880D01*
G75*
G02*
X96037820Y-154776880I0J-50000D01*
G01*
X96037820Y-155976880D01*
G75*
G02*
X95987820Y-156026880I-50000J0D01*
G01*
G37*
G36*
G01*
X94717820Y-156026880D02*
X93917820Y-156026880D01*
G75*
G02*
X93867820Y-155976880I0J50000D01*
G01*
X93867820Y-154776880D01*
G75*
G02*
X93917820Y-154726880I50000J0D01*
G01*
X94717820Y-154726880D01*
G75*
G02*
X94767820Y-154776880I0J-50000D01*
G01*
X94767820Y-155976880D01*
G75*
G02*
X94717820Y-156026880I-50000J0D01*
G01*
G37*
G36*
G01*
X106015080Y-156220580D02*
X104815080Y-156220580D01*
G75*
G02*
X104765080Y-156170580I0J50000D01*
G01*
X104765080Y-155370580D01*
G75*
G02*
X104815080Y-155320580I50000J0D01*
G01*
X106015080Y-155320580D01*
G75*
G02*
X106065080Y-155370580I0J-50000D01*
G01*
X106065080Y-156170580D01*
G75*
G02*
X106015080Y-156220580I-50000J0D01*
G01*
G37*
G36*
G01*
X106015080Y-157490580D02*
X104815080Y-157490580D01*
G75*
G02*
X104765080Y-157440580I0J50000D01*
G01*
X104765080Y-156640580D01*
G75*
G02*
X104815080Y-156590580I50000J0D01*
G01*
X106015080Y-156590580D01*
G75*
G02*
X106065080Y-156640580I0J-50000D01*
G01*
X106065080Y-157440580D01*
G75*
G02*
X106015080Y-157490580I-50000J0D01*
G01*
G37*
G36*
G01*
X106015080Y-158760580D02*
X104815080Y-158760580D01*
G75*
G02*
X104765080Y-158710580I0J50000D01*
G01*
X104765080Y-157910580D01*
G75*
G02*
X104815080Y-157860580I50000J0D01*
G01*
X106015080Y-157860580D01*
G75*
G02*
X106065080Y-157910580I0J-50000D01*
G01*
X106065080Y-158710580D01*
G75*
G02*
X106015080Y-158760580I-50000J0D01*
G01*
G37*
G36*
G01*
X106015080Y-160030580D02*
X104815080Y-160030580D01*
G75*
G02*
X104765080Y-159980580I0J50000D01*
G01*
X104765080Y-159180580D01*
G75*
G02*
X104815080Y-159130580I50000J0D01*
G01*
X106015080Y-159130580D01*
G75*
G02*
X106065080Y-159180580I0J-50000D01*
G01*
X106065080Y-159980580D01*
G75*
G02*
X106015080Y-160030580I-50000J0D01*
G01*
G37*
G36*
G01*
X106015080Y-161300580D02*
X104815080Y-161300580D01*
G75*
G02*
X104765080Y-161250580I0J50000D01*
G01*
X104765080Y-160450580D01*
G75*
G02*
X104815080Y-160400580I50000J0D01*
G01*
X106015080Y-160400580D01*
G75*
G02*
X106065080Y-160450580I0J-50000D01*
G01*
X106065080Y-161250580D01*
G75*
G02*
X106015080Y-161300580I-50000J0D01*
G01*
G37*
G36*
G01*
X106015080Y-162570580D02*
X104815080Y-162570580D01*
G75*
G02*
X104765080Y-162520580I0J50000D01*
G01*
X104765080Y-161720580D01*
G75*
G02*
X104815080Y-161670580I50000J0D01*
G01*
X106015080Y-161670580D01*
G75*
G02*
X106065080Y-161720580I0J-50000D01*
G01*
X106065080Y-162520580D01*
G75*
G02*
X106015080Y-162570580I-50000J0D01*
G01*
G37*
G36*
G01*
X106015080Y-163840580D02*
X104815080Y-163840580D01*
G75*
G02*
X104765080Y-163790580I0J50000D01*
G01*
X104765080Y-162990580D01*
G75*
G02*
X104815080Y-162940580I50000J0D01*
G01*
X106015080Y-162940580D01*
G75*
G02*
X106065080Y-162990580I0J-50000D01*
G01*
X106065080Y-163790580D01*
G75*
G02*
X106015080Y-163840580I-50000J0D01*
G01*
G37*
G36*
G01*
X108711240Y-155583040D02*
X106711240Y-155583040D01*
G75*
G02*
X106661240Y-155533040I0J50000D01*
G01*
X106661240Y-154733040D01*
G75*
G02*
X106711240Y-154683040I50000J0D01*
G01*
X108711240Y-154683040D01*
G75*
G02*
X108761240Y-154733040I0J-50000D01*
G01*
X108761240Y-155533040D01*
G75*
G02*
X108711240Y-155583040I-50000J0D01*
G01*
G37*
G36*
G01*
X108711240Y-156853040D02*
X106711240Y-156853040D01*
G75*
G02*
X106661240Y-156803040I0J50000D01*
G01*
X106661240Y-156003040D01*
G75*
G02*
X106711240Y-155953040I50000J0D01*
G01*
X108711240Y-155953040D01*
G75*
G02*
X108761240Y-156003040I0J-50000D01*
G01*
X108761240Y-156803040D01*
G75*
G02*
X108711240Y-156853040I-50000J0D01*
G01*
G37*
G36*
G01*
X108711240Y-158123040D02*
X106711240Y-158123040D01*
G75*
G02*
X106661240Y-158073040I0J50000D01*
G01*
X106661240Y-157273040D01*
G75*
G02*
X106711240Y-157223040I50000J0D01*
G01*
X108711240Y-157223040D01*
G75*
G02*
X108761240Y-157273040I0J-50000D01*
G01*
X108761240Y-158073040D01*
G75*
G02*
X108711240Y-158123040I-50000J0D01*
G01*
G37*
G36*
G01*
X108711240Y-159393040D02*
X106711240Y-159393040D01*
G75*
G02*
X106661240Y-159343040I0J50000D01*
G01*
X106661240Y-158543040D01*
G75*
G02*
X106711240Y-158493040I50000J0D01*
G01*
X108711240Y-158493040D01*
G75*
G02*
X108761240Y-158543040I0J-50000D01*
G01*
X108761240Y-159343040D01*
G75*
G02*
X108711240Y-159393040I-50000J0D01*
G01*
G37*
G36*
G01*
X108711240Y-160663040D02*
X106711240Y-160663040D01*
G75*
G02*
X106661240Y-160613040I0J50000D01*
G01*
X106661240Y-159813040D01*
G75*
G02*
X106711240Y-159763040I50000J0D01*
G01*
X108711240Y-159763040D01*
G75*
G02*
X108761240Y-159813040I0J-50000D01*
G01*
X108761240Y-160613040D01*
G75*
G02*
X108711240Y-160663040I-50000J0D01*
G01*
G37*
G36*
G01*
X108711240Y-161933040D02*
X106711240Y-161933040D01*
G75*
G02*
X106661240Y-161883040I0J50000D01*
G01*
X106661240Y-161083040D01*
G75*
G02*
X106711240Y-161033040I50000J0D01*
G01*
X108711240Y-161033040D01*
G75*
G02*
X108761240Y-161083040I0J-50000D01*
G01*
X108761240Y-161883040D01*
G75*
G02*
X108711240Y-161933040I-50000J0D01*
G01*
G37*
G36*
G01*
X108711240Y-163203040D02*
X106711240Y-163203040D01*
G75*
G02*
X106661240Y-163153040I0J50000D01*
G01*
X106661240Y-162353040D01*
G75*
G02*
X106711240Y-162303040I50000J0D01*
G01*
X108711240Y-162303040D01*
G75*
G02*
X108761240Y-162353040I0J-50000D01*
G01*
X108761240Y-163153040D01*
G75*
G02*
X108711240Y-163203040I-50000J0D01*
G01*
G37*
G36*
G01*
X108711240Y-164473040D02*
X106711240Y-164473040D01*
G75*
G02*
X106661240Y-164423040I0J50000D01*
G01*
X106661240Y-163623040D01*
G75*
G02*
X106711240Y-163573040I50000J0D01*
G01*
X108711240Y-163573040D01*
G75*
G02*
X108761240Y-163623040I0J-50000D01*
G01*
X108761240Y-164423040D01*
G75*
G02*
X108711240Y-164473040I-50000J0D01*
G01*
G37*
G36*
G01*
X105515360Y-154128180D02*
X104715360Y-154128180D01*
G75*
G02*
X104665360Y-154078180I0J50000D01*
G01*
X104665360Y-152078180D01*
G75*
G02*
X104715360Y-152028180I50000J0D01*
G01*
X105515360Y-152028180D01*
G75*
G02*
X105565360Y-152078180I0J-50000D01*
G01*
X105565360Y-154078180D01*
G75*
G02*
X105515360Y-154128180I-50000J0D01*
G01*
G37*
G36*
G01*
X104245360Y-154128180D02*
X103445360Y-154128180D01*
G75*
G02*
X103395360Y-154078180I0J50000D01*
G01*
X103395360Y-152078180D01*
G75*
G02*
X103445360Y-152028180I50000J0D01*
G01*
X104245360Y-152028180D01*
G75*
G02*
X104295360Y-152078180I0J-50000D01*
G01*
X104295360Y-154078180D01*
G75*
G02*
X104245360Y-154128180I-50000J0D01*
G01*
G37*
G36*
G01*
X102975360Y-154128180D02*
X102175360Y-154128180D01*
G75*
G02*
X102125360Y-154078180I0J50000D01*
G01*
X102125360Y-152078180D01*
G75*
G02*
X102175360Y-152028180I50000J0D01*
G01*
X102975360Y-152028180D01*
G75*
G02*
X103025360Y-152078180I0J-50000D01*
G01*
X103025360Y-154078180D01*
G75*
G02*
X102975360Y-154128180I-50000J0D01*
G01*
G37*
G36*
G01*
X101705360Y-154128180D02*
X100905360Y-154128180D01*
G75*
G02*
X100855360Y-154078180I0J50000D01*
G01*
X100855360Y-152078180D01*
G75*
G02*
X100905360Y-152028180I50000J0D01*
G01*
X101705360Y-152028180D01*
G75*
G02*
X101755360Y-152078180I0J-50000D01*
G01*
X101755360Y-154078180D01*
G75*
G02*
X101705360Y-154128180I-50000J0D01*
G01*
G37*
G36*
G01*
X100435360Y-154128180D02*
X99635360Y-154128180D01*
G75*
G02*
X99585360Y-154078180I0J50000D01*
G01*
X99585360Y-152078180D01*
G75*
G02*
X99635360Y-152028180I50000J0D01*
G01*
X100435360Y-152028180D01*
G75*
G02*
X100485360Y-152078180I0J-50000D01*
G01*
X100485360Y-154078180D01*
G75*
G02*
X100435360Y-154128180I-50000J0D01*
G01*
G37*
G36*
G01*
X99165360Y-154128180D02*
X98365360Y-154128180D01*
G75*
G02*
X98315360Y-154078180I0J50000D01*
G01*
X98315360Y-152078180D01*
G75*
G02*
X98365360Y-152028180I50000J0D01*
G01*
X99165360Y-152028180D01*
G75*
G02*
X99215360Y-152078180I0J-50000D01*
G01*
X99215360Y-154078180D01*
G75*
G02*
X99165360Y-154128180I-50000J0D01*
G01*
G37*
G36*
G01*
X97895360Y-154128180D02*
X97095360Y-154128180D01*
G75*
G02*
X97045360Y-154078180I0J50000D01*
G01*
X97045360Y-152078180D01*
G75*
G02*
X97095360Y-152028180I50000J0D01*
G01*
X97895360Y-152028180D01*
G75*
G02*
X97945360Y-152078180I0J-50000D01*
G01*
X97945360Y-154078180D01*
G75*
G02*
X97895360Y-154128180I-50000J0D01*
G01*
G37*
G36*
G01*
X96625360Y-154128180D02*
X95825360Y-154128180D01*
G75*
G02*
X95775360Y-154078180I0J50000D01*
G01*
X95775360Y-152078180D01*
G75*
G02*
X95825360Y-152028180I50000J0D01*
G01*
X96625360Y-152028180D01*
G75*
G02*
X96675360Y-152078180I0J-50000D01*
G01*
X96675360Y-154078180D01*
G75*
G02*
X96625360Y-154128180I-50000J0D01*
G01*
G37*
G36*
G01*
X95355360Y-154128180D02*
X94555360Y-154128180D01*
G75*
G02*
X94505360Y-154078180I0J50000D01*
G01*
X94505360Y-152078180D01*
G75*
G02*
X94555360Y-152028180I50000J0D01*
G01*
X95355360Y-152028180D01*
G75*
G02*
X95405360Y-152078180I0J-50000D01*
G01*
X95405360Y-154078180D01*
G75*
G02*
X95355360Y-154128180I-50000J0D01*
G01*
G37*
G36*
G01*
X94085360Y-154128180D02*
X93285360Y-154128180D01*
G75*
G02*
X93235360Y-154078180I0J50000D01*
G01*
X93235360Y-152078180D01*
G75*
G02*
X93285360Y-152028180I50000J0D01*
G01*
X94085360Y-152028180D01*
G75*
G02*
X94135360Y-152078180I0J-50000D01*
G01*
X94135360Y-154078180D01*
G75*
G02*
X94085360Y-154128180I-50000J0D01*
G01*
G37*
G36*
G01*
X105515360Y-167127900D02*
X104715360Y-167127900D01*
G75*
G02*
X104665360Y-167077900I0J50000D01*
G01*
X104665360Y-165077900D01*
G75*
G02*
X104715360Y-165027900I50000J0D01*
G01*
X105515360Y-165027900D01*
G75*
G02*
X105565360Y-165077900I0J-50000D01*
G01*
X105565360Y-167077900D01*
G75*
G02*
X105515360Y-167127900I-50000J0D01*
G01*
G37*
G36*
G01*
X104245360Y-167127900D02*
X103445360Y-167127900D01*
G75*
G02*
X103395360Y-167077900I0J50000D01*
G01*
X103395360Y-165077900D01*
G75*
G02*
X103445360Y-165027900I50000J0D01*
G01*
X104245360Y-165027900D01*
G75*
G02*
X104295360Y-165077900I0J-50000D01*
G01*
X104295360Y-167077900D01*
G75*
G02*
X104245360Y-167127900I-50000J0D01*
G01*
G37*
G36*
G01*
X102975360Y-167127900D02*
X102175360Y-167127900D01*
G75*
G02*
X102125360Y-167077900I0J50000D01*
G01*
X102125360Y-165077900D01*
G75*
G02*
X102175360Y-165027900I50000J0D01*
G01*
X102975360Y-165027900D01*
G75*
G02*
X103025360Y-165077900I0J-50000D01*
G01*
X103025360Y-167077900D01*
G75*
G02*
X102975360Y-167127900I-50000J0D01*
G01*
G37*
G36*
G01*
X101705360Y-167127900D02*
X100905360Y-167127900D01*
G75*
G02*
X100855360Y-167077900I0J50000D01*
G01*
X100855360Y-165077900D01*
G75*
G02*
X100905360Y-165027900I50000J0D01*
G01*
X101705360Y-165027900D01*
G75*
G02*
X101755360Y-165077900I0J-50000D01*
G01*
X101755360Y-167077900D01*
G75*
G02*
X101705360Y-167127900I-50000J0D01*
G01*
G37*
G36*
G01*
X100435360Y-167127900D02*
X99635360Y-167127900D01*
G75*
G02*
X99585360Y-167077900I0J50000D01*
G01*
X99585360Y-165077900D01*
G75*
G02*
X99635360Y-165027900I50000J0D01*
G01*
X100435360Y-165027900D01*
G75*
G02*
X100485360Y-165077900I0J-50000D01*
G01*
X100485360Y-167077900D01*
G75*
G02*
X100435360Y-167127900I-50000J0D01*
G01*
G37*
G36*
G01*
X99165360Y-167127900D02*
X98365360Y-167127900D01*
G75*
G02*
X98315360Y-167077900I0J50000D01*
G01*
X98315360Y-165077900D01*
G75*
G02*
X98365360Y-165027900I50000J0D01*
G01*
X99165360Y-165027900D01*
G75*
G02*
X99215360Y-165077900I0J-50000D01*
G01*
X99215360Y-167077900D01*
G75*
G02*
X99165360Y-167127900I-50000J0D01*
G01*
G37*
G36*
G01*
X97895360Y-167127900D02*
X97095360Y-167127900D01*
G75*
G02*
X97045360Y-167077900I0J50000D01*
G01*
X97045360Y-165077900D01*
G75*
G02*
X97095360Y-165027900I50000J0D01*
G01*
X97895360Y-165027900D01*
G75*
G02*
X97945360Y-165077900I0J-50000D01*
G01*
X97945360Y-167077900D01*
G75*
G02*
X97895360Y-167127900I-50000J0D01*
G01*
G37*
G36*
G01*
X96625360Y-167127900D02*
X95825360Y-167127900D01*
G75*
G02*
X95775360Y-167077900I0J50000D01*
G01*
X95775360Y-165077900D01*
G75*
G02*
X95825360Y-165027900I50000J0D01*
G01*
X96625360Y-165027900D01*
G75*
G02*
X96675360Y-165077900I0J-50000D01*
G01*
X96675360Y-167077900D01*
G75*
G02*
X96625360Y-167127900I-50000J0D01*
G01*
G37*
G36*
G01*
X95355360Y-167127900D02*
X94555360Y-167127900D01*
G75*
G02*
X94505360Y-167077900I0J50000D01*
G01*
X94505360Y-165077900D01*
G75*
G02*
X94555360Y-165027900I50000J0D01*
G01*
X95355360Y-165027900D01*
G75*
G02*
X95405360Y-165077900I0J-50000D01*
G01*
X95405360Y-167077900D01*
G75*
G02*
X95355360Y-167127900I-50000J0D01*
G01*
G37*
G36*
G01*
X94085360Y-167127900D02*
X93285360Y-167127900D01*
G75*
G02*
X93235360Y-167077900I0J50000D01*
G01*
X93235360Y-165077900D01*
G75*
G02*
X93285360Y-165027900I50000J0D01*
G01*
X94085360Y-165027900D01*
G75*
G02*
X94135360Y-165077900I0J-50000D01*
G01*
X94135360Y-167077900D01*
G75*
G02*
X94085360Y-167127900I-50000J0D01*
G01*
G37*
%TD*%
%TO.C,AE*%
G36*
G01*
X106241040Y-143386840D02*
X108241040Y-143386840D01*
G75*
G02*
X108291040Y-143436840I0J-50000D01*
G01*
X108291040Y-144636840D01*
G75*
G02*
X108241040Y-144686840I-50000J0D01*
G01*
X106241040Y-144686840D01*
G75*
G02*
X106191040Y-144636840I0J50000D01*
G01*
X106191040Y-143436840D01*
G75*
G02*
X106241040Y-143386840I50000J0D01*
G01*
G37*
G36*
G01*
X106241040Y-139086840D02*
X108241040Y-139086840D01*
G75*
G02*
X108291040Y-139136840I0J-50000D01*
G01*
X108291040Y-140336840D01*
G75*
G02*
X108241040Y-140386840I-50000J0D01*
G01*
X106241040Y-140386840D01*
G75*
G02*
X106191040Y-140336840I0J50000D01*
G01*
X106191040Y-139136840D01*
G75*
G02*
X106241040Y-139086840I50000J0D01*
G01*
G37*
%TD*%
%TO.C,U1*%
G36*
G01*
X99754160Y-136181540D02*
X99754160Y-141031540D01*
G75*
G02*
X99704160Y-141081540I-50000J0D01*
G01*
X94854160Y-141081540D01*
G75*
G02*
X94804160Y-141031540I0J50000D01*
G01*
X94804160Y-136181540D01*
G75*
G02*
X94854160Y-136131540I50000J0D01*
G01*
X99704160Y-136131540D01*
G75*
G02*
X99754160Y-136181540I0J-50000D01*
G01*
G37*
X100529160Y-135856540D03*
X100029160Y-136606540D03*
X96029160Y-135356540D03*
X94779160Y-135856540D03*
X99279160Y-141356540D03*
X100029160Y-141856540D03*
X94529160Y-141856540D03*
X94529160Y-141106540D03*
X94529160Y-140606540D03*
X94029160Y-140356540D03*
X94029160Y-139856540D03*
X94029160Y-139356540D03*
X94029160Y-138856540D03*
X94029160Y-138356540D03*
X94029160Y-137856540D03*
X94029160Y-137356540D03*
X94529160Y-139606540D03*
X94529160Y-139106540D03*
X94529160Y-138606540D03*
X94529160Y-138106540D03*
X94529160Y-137606540D03*
X94529160Y-137106540D03*
X94029160Y-136356540D03*
X94529160Y-136606540D03*
X94029160Y-135856540D03*
X95029160Y-141856540D03*
X95529160Y-141856540D03*
X96029160Y-141856540D03*
X96529160Y-141856540D03*
X97029160Y-141856540D03*
X97529160Y-141856540D03*
X98029160Y-141856540D03*
X98529160Y-141856540D03*
X99029160Y-141856540D03*
X99529160Y-141856540D03*
X98779160Y-141356540D03*
X98279160Y-141356540D03*
X97779160Y-141356540D03*
X97279160Y-141356540D03*
X96779160Y-141356540D03*
X96279160Y-141356540D03*
X95279160Y-141356540D03*
X95279160Y-135856540D03*
X95779160Y-135856540D03*
X96279160Y-135856540D03*
X96779160Y-135856540D03*
X97279160Y-135856540D03*
X97779160Y-135856540D03*
X98279160Y-135856540D03*
X98779160Y-135856540D03*
X96529160Y-135356540D03*
X97029160Y-135356540D03*
X97529160Y-135356540D03*
X98029160Y-135356540D03*
X98529160Y-135356540D03*
X99029160Y-135356540D03*
X99529160Y-135356540D03*
X100029160Y-135356540D03*
X100029160Y-137106540D03*
X100029160Y-137606540D03*
X100029160Y-139106540D03*
X100029160Y-139606540D03*
X100029160Y-140106540D03*
X100029160Y-140606540D03*
X100529160Y-136856540D03*
X100529160Y-137856540D03*
X100529160Y-138356540D03*
X100529160Y-138856540D03*
X100529160Y-139356540D03*
X100529160Y-139856540D03*
X100529160Y-140356540D03*
X100529160Y-140856540D03*
X100529160Y-141356540D03*
%TD*%
%TO.C,Y1*%
G36*
G01*
X100369220Y-133272400D02*
X100369220Y-132472400D01*
G75*
G02*
X100419220Y-132422400I50000J0D01*
G01*
X101319220Y-132422400D01*
G75*
G02*
X101369220Y-132472400I0J-50000D01*
G01*
X101369220Y-133272400D01*
G75*
G02*
X101319220Y-133322400I-50000J0D01*
G01*
X100419220Y-133322400D01*
G75*
G02*
X100369220Y-133272400I0J50000D01*
G01*
G37*
G36*
G01*
X101769220Y-133272400D02*
X101769220Y-132472400D01*
G75*
G02*
X101819220Y-132422400I50000J0D01*
G01*
X102719220Y-132422400D01*
G75*
G02*
X102769220Y-132472400I0J-50000D01*
G01*
X102769220Y-133272400D01*
G75*
G02*
X102719220Y-133322400I-50000J0D01*
G01*
X101819220Y-133322400D01*
G75*
G02*
X101769220Y-133272400I0J50000D01*
G01*
G37*
G36*
G01*
X101769220Y-134372400D02*
X101769220Y-133572400D01*
G75*
G02*
X101819220Y-133522400I50000J0D01*
G01*
X102719220Y-133522400D01*
G75*
G02*
X102769220Y-133572400I0J-50000D01*
G01*
X102769220Y-134372400D01*
G75*
G02*
X102719220Y-134422400I-50000J0D01*
G01*
X101819220Y-134422400D01*
G75*
G02*
X101769220Y-134372400I0J50000D01*
G01*
G37*
G36*
G01*
X100369220Y-134372400D02*
X100369220Y-133572400D01*
G75*
G02*
X100419220Y-133522400I50000J0D01*
G01*
X101319220Y-133522400D01*
G75*
G02*
X101369220Y-133572400I0J-50000D01*
G01*
X101369220Y-134372400D01*
G75*
G02*
X101319220Y-134422400I-50000J0D01*
G01*
X100419220Y-134422400D01*
G75*
G02*
X100369220Y-134372400I0J50000D01*
G01*
G37*
%TD*%
%TO.C,R1*%
G36*
G01*
X106105520Y-137126300D02*
X106105520Y-137516300D01*
G75*
G02*
X105940520Y-137681300I-165000J0D01*
G01*
X105610520Y-137681300D01*
G75*
G02*
X105445520Y-137516300I0J165000D01*
G01*
X105445520Y-137126300D01*
G75*
G02*
X105610520Y-136961300I165000J0D01*
G01*
X105940520Y-136961300D01*
G75*
G02*
X106105520Y-137126300I0J-165000D01*
G01*
G37*
G36*
G01*
X107065520Y-137126300D02*
X107065520Y-137516300D01*
G75*
G02*
X106900520Y-137681300I-165000J0D01*
G01*
X106570520Y-137681300D01*
G75*
G02*
X106405520Y-137516300I0J165000D01*
G01*
X106405520Y-137126300D01*
G75*
G02*
X106570520Y-136961300I165000J0D01*
G01*
X106900520Y-136961300D01*
G75*
G02*
X107065520Y-137126300I0J-165000D01*
G01*
G37*
%TD*%
%TO.C,L1*%
G36*
G01*
X103194520Y-137050140D02*
X103194520Y-137445140D01*
G75*
G02*
X103022020Y-137617640I-172500J0D01*
G01*
X102677020Y-137617640D01*
G75*
G02*
X102504520Y-137445140I0J172500D01*
G01*
X102504520Y-137050140D01*
G75*
G02*
X102677020Y-136877640I172500J0D01*
G01*
X103022020Y-136877640D01*
G75*
G02*
X103194520Y-137050140I0J-172500D01*
G01*
G37*
G36*
G01*
X104164520Y-137050140D02*
X104164520Y-137445140D01*
G75*
G02*
X103992020Y-137617640I-172500J0D01*
G01*
X103647020Y-137617640D01*
G75*
G02*
X103474520Y-137445140I0J172500D01*
G01*
X103474520Y-137050140D01*
G75*
G02*
X103647020Y-136877640I172500J0D01*
G01*
X103992020Y-136877640D01*
G75*
G02*
X104164520Y-137050140I0J-172500D01*
G01*
G37*
%TD*%
D11*
%TO.C,J2*%
X92068440Y-141691400D03*
X92068440Y-137091400D03*
D12*
X92068440Y-145091400D03*
X92068440Y-133691400D03*
%TD*%
D13*
%TO.C,SWD*%
X95501460Y-145453100D03*
X98041460Y-145453100D03*
X100581460Y-145453100D03*
G36*
G01*
X102271460Y-144553100D02*
X103971460Y-144553100D01*
G75*
G02*
X104021460Y-144603100I0J-50000D01*
G01*
X104021460Y-146303100D01*
G75*
G02*
X103971460Y-146353100I-50000J0D01*
G01*
X102271460Y-146353100D01*
G75*
G02*
X102221460Y-146303100I0J50000D01*
G01*
X102221460Y-144603100D01*
G75*
G02*
X102271460Y-144553100I50000J0D01*
G01*
G37*
%TD*%
%TO.C,C26*%
G36*
G01*
X107895780Y-136683620D02*
X107505780Y-136683620D01*
G75*
G02*
X107340780Y-136518620I0J165000D01*
G01*
X107340780Y-136188620D01*
G75*
G02*
X107505780Y-136023620I165000J0D01*
G01*
X107895780Y-136023620D01*
G75*
G02*
X108060780Y-136188620I0J-165000D01*
G01*
X108060780Y-136518620D01*
G75*
G02*
X107895780Y-136683620I-165000J0D01*
G01*
G37*
G36*
G01*
X107895780Y-137643620D02*
X107505780Y-137643620D01*
G75*
G02*
X107340780Y-137478620I0J165000D01*
G01*
X107340780Y-137148620D01*
G75*
G02*
X107505780Y-136983620I165000J0D01*
G01*
X107895780Y-136983620D01*
G75*
G02*
X108060780Y-137148620I0J-165000D01*
G01*
X108060780Y-137478620D01*
G75*
G02*
X107895780Y-137643620I-165000J0D01*
G01*
G37*
%TD*%
%TO.C,C20*%
G36*
G01*
X91446940Y-139844100D02*
X91446940Y-140394100D01*
G75*
G02*
X91196940Y-140644100I-250000J0D01*
G01*
X90696940Y-140644100D01*
G75*
G02*
X90446940Y-140394100I0J250000D01*
G01*
X90446940Y-139844100D01*
G75*
G02*
X90696940Y-139594100I250000J0D01*
G01*
X91196940Y-139594100D01*
G75*
G02*
X91446940Y-139844100I0J-250000D01*
G01*
G37*
G36*
G01*
X92996940Y-139844100D02*
X92996940Y-140394100D01*
G75*
G02*
X92746940Y-140644100I-250000J0D01*
G01*
X92246940Y-140644100D01*
G75*
G02*
X91996940Y-140394100I0J250000D01*
G01*
X91996940Y-139844100D01*
G75*
G02*
X92246940Y-139594100I250000J0D01*
G01*
X92746940Y-139594100D01*
G75*
G02*
X92996940Y-139844100I0J-250000D01*
G01*
G37*
%TD*%
%TO.C,C19*%
G36*
G01*
X91533000Y-143028000D02*
X91533000Y-143578000D01*
G75*
G02*
X91283000Y-143828000I-250000J0D01*
G01*
X90783000Y-143828000D01*
G75*
G02*
X90533000Y-143578000I0J250000D01*
G01*
X90533000Y-143028000D01*
G75*
G02*
X90783000Y-142778000I250000J0D01*
G01*
X91283000Y-142778000D01*
G75*
G02*
X91533000Y-143028000I0J-250000D01*
G01*
G37*
G36*
G01*
X93083000Y-143028000D02*
X93083000Y-143578000D01*
G75*
G02*
X92833000Y-143828000I-250000J0D01*
G01*
X92333000Y-143828000D01*
G75*
G02*
X92083000Y-143578000I0J250000D01*
G01*
X92083000Y-143028000D01*
G75*
G02*
X92333000Y-142778000I250000J0D01*
G01*
X92833000Y-142778000D01*
G75*
G02*
X93083000Y-143028000I0J-250000D01*
G01*
G37*
%TD*%
%TO.C,C15*%
G36*
G01*
X105524680Y-135683680D02*
X105524680Y-135133680D01*
G75*
G02*
X105774680Y-134883680I250000J0D01*
G01*
X106274680Y-134883680D01*
G75*
G02*
X106524680Y-135133680I0J-250000D01*
G01*
X106524680Y-135683680D01*
G75*
G02*
X106274680Y-135933680I-250000J0D01*
G01*
X105774680Y-135933680D01*
G75*
G02*
X105524680Y-135683680I0J250000D01*
G01*
G37*
G36*
G01*
X103974680Y-135683680D02*
X103974680Y-135133680D01*
G75*
G02*
X104224680Y-134883680I250000J0D01*
G01*
X104724680Y-134883680D01*
G75*
G02*
X104974680Y-135133680I0J-250000D01*
G01*
X104974680Y-135683680D01*
G75*
G02*
X104724680Y-135933680I-250000J0D01*
G01*
X104224680Y-135933680D01*
G75*
G02*
X103974680Y-135683680I0J250000D01*
G01*
G37*
%TD*%
%TO.C,C14*%
G36*
G01*
X96022540Y-133555160D02*
X96022540Y-133005160D01*
G75*
G02*
X96272540Y-132755160I250000J0D01*
G01*
X96772540Y-132755160D01*
G75*
G02*
X97022540Y-133005160I0J-250000D01*
G01*
X97022540Y-133555160D01*
G75*
G02*
X96772540Y-133805160I-250000J0D01*
G01*
X96272540Y-133805160D01*
G75*
G02*
X96022540Y-133555160I0J250000D01*
G01*
G37*
G36*
G01*
X94472540Y-133555160D02*
X94472540Y-133005160D01*
G75*
G02*
X94722540Y-132755160I250000J0D01*
G01*
X95222540Y-132755160D01*
G75*
G02*
X95472540Y-133005160I0J-250000D01*
G01*
X95472540Y-133555160D01*
G75*
G02*
X95222540Y-133805160I-250000J0D01*
G01*
X94722540Y-133805160D01*
G75*
G02*
X94472540Y-133555160I0J250000D01*
G01*
G37*
%TD*%
%TO.C,C12*%
G36*
G01*
X98559040Y-133149200D02*
X98169040Y-133149200D01*
G75*
G02*
X98004040Y-132984200I0J165000D01*
G01*
X98004040Y-132654200D01*
G75*
G02*
X98169040Y-132489200I165000J0D01*
G01*
X98559040Y-132489200D01*
G75*
G02*
X98724040Y-132654200I0J-165000D01*
G01*
X98724040Y-132984200D01*
G75*
G02*
X98559040Y-133149200I-165000J0D01*
G01*
G37*
G36*
G01*
X98559040Y-134109200D02*
X98169040Y-134109200D01*
G75*
G02*
X98004040Y-133944200I0J165000D01*
G01*
X98004040Y-133614200D01*
G75*
G02*
X98169040Y-133449200I165000J0D01*
G01*
X98559040Y-133449200D01*
G75*
G02*
X98724040Y-133614200I0J-165000D01*
G01*
X98724040Y-133944200D01*
G75*
G02*
X98559040Y-134109200I-165000J0D01*
G01*
G37*
%TD*%
%TO.C,C11*%
G36*
G01*
X102501260Y-135249240D02*
X102501260Y-135639240D01*
G75*
G02*
X102336260Y-135804240I-165000J0D01*
G01*
X102006260Y-135804240D01*
G75*
G02*
X101841260Y-135639240I0J165000D01*
G01*
X101841260Y-135249240D01*
G75*
G02*
X102006260Y-135084240I165000J0D01*
G01*
X102336260Y-135084240D01*
G75*
G02*
X102501260Y-135249240I0J-165000D01*
G01*
G37*
G36*
G01*
X103461260Y-135249240D02*
X103461260Y-135639240D01*
G75*
G02*
X103296260Y-135804240I-165000J0D01*
G01*
X102966260Y-135804240D01*
G75*
G02*
X102801260Y-135639240I0J165000D01*
G01*
X102801260Y-135249240D01*
G75*
G02*
X102966260Y-135084240I165000J0D01*
G01*
X103296260Y-135084240D01*
G75*
G02*
X103461260Y-135249240I0J-165000D01*
G01*
G37*
%TD*%
%TO.C,C9*%
G36*
G01*
X101620600Y-139808100D02*
X102010600Y-139808100D01*
G75*
G02*
X102175600Y-139973100I0J-165000D01*
G01*
X102175600Y-140303100D01*
G75*
G02*
X102010600Y-140468100I-165000J0D01*
G01*
X101620600Y-140468100D01*
G75*
G02*
X101455600Y-140303100I0J165000D01*
G01*
X101455600Y-139973100D01*
G75*
G02*
X101620600Y-139808100I165000J0D01*
G01*
G37*
G36*
G01*
X101620600Y-138848100D02*
X102010600Y-138848100D01*
G75*
G02*
X102175600Y-139013100I0J-165000D01*
G01*
X102175600Y-139343100D01*
G75*
G02*
X102010600Y-139508100I-165000J0D01*
G01*
X101620600Y-139508100D01*
G75*
G02*
X101455600Y-139343100I0J165000D01*
G01*
X101455600Y-139013100D01*
G75*
G02*
X101620600Y-138848100I165000J0D01*
G01*
G37*
%TD*%
%TO.C,C8*%
G36*
G01*
X100596260Y-142884480D02*
X100596260Y-143274480D01*
G75*
G02*
X100431260Y-143439480I-165000J0D01*
G01*
X100101260Y-143439480D01*
G75*
G02*
X99936260Y-143274480I0J165000D01*
G01*
X99936260Y-142884480D01*
G75*
G02*
X100101260Y-142719480I165000J0D01*
G01*
X100431260Y-142719480D01*
G75*
G02*
X100596260Y-142884480I0J-165000D01*
G01*
G37*
G36*
G01*
X101556260Y-142884480D02*
X101556260Y-143274480D01*
G75*
G02*
X101391260Y-143439480I-165000J0D01*
G01*
X101061260Y-143439480D01*
G75*
G02*
X100896260Y-143274480I0J165000D01*
G01*
X100896260Y-142884480D01*
G75*
G02*
X101061260Y-142719480I165000J0D01*
G01*
X101391260Y-142719480D01*
G75*
G02*
X101556260Y-142884480I0J-165000D01*
G01*
G37*
%TD*%
%TO.C,C7*%
G36*
G01*
X98808380Y-143266860D02*
X98808380Y-142876860D01*
G75*
G02*
X98973380Y-142711860I165000J0D01*
G01*
X99303380Y-142711860D01*
G75*
G02*
X99468380Y-142876860I0J-165000D01*
G01*
X99468380Y-143266860D01*
G75*
G02*
X99303380Y-143431860I-165000J0D01*
G01*
X98973380Y-143431860D01*
G75*
G02*
X98808380Y-143266860I0J165000D01*
G01*
G37*
G36*
G01*
X97848380Y-143266860D02*
X97848380Y-142876860D01*
G75*
G02*
X98013380Y-142711860I165000J0D01*
G01*
X98343380Y-142711860D01*
G75*
G02*
X98508380Y-142876860I0J-165000D01*
G01*
X98508380Y-143266860D01*
G75*
G02*
X98343380Y-143431860I-165000J0D01*
G01*
X98013380Y-143431860D01*
G75*
G02*
X97848380Y-143266860I0J165000D01*
G01*
G37*
%TD*%
%TO.C,C6*%
G36*
G01*
X91461880Y-138316300D02*
X91461880Y-138866300D01*
G75*
G02*
X91211880Y-139116300I-250000J0D01*
G01*
X90711880Y-139116300D01*
G75*
G02*
X90461880Y-138866300I0J250000D01*
G01*
X90461880Y-138316300D01*
G75*
G02*
X90711880Y-138066300I250000J0D01*
G01*
X91211880Y-138066300D01*
G75*
G02*
X91461880Y-138316300I0J-250000D01*
G01*
G37*
G36*
G01*
X93011880Y-138316300D02*
X93011880Y-138866300D01*
G75*
G02*
X92761880Y-139116300I-250000J0D01*
G01*
X92261880Y-139116300D01*
G75*
G02*
X92011880Y-138866300I0J250000D01*
G01*
X92011880Y-138316300D01*
G75*
G02*
X92261880Y-138066300I250000J0D01*
G01*
X92761880Y-138066300D01*
G75*
G02*
X93011880Y-138316300I0J-250000D01*
G01*
G37*
%TD*%
%TO.C,C5*%
G36*
G01*
X91708800Y-135221300D02*
X91708800Y-135611300D01*
G75*
G02*
X91543800Y-135776300I-165000J0D01*
G01*
X91213800Y-135776300D01*
G75*
G02*
X91048800Y-135611300I0J165000D01*
G01*
X91048800Y-135221300D01*
G75*
G02*
X91213800Y-135056300I165000J0D01*
G01*
X91543800Y-135056300D01*
G75*
G02*
X91708800Y-135221300I0J-165000D01*
G01*
G37*
G36*
G01*
X92668800Y-135221300D02*
X92668800Y-135611300D01*
G75*
G02*
X92503800Y-135776300I-165000J0D01*
G01*
X92173800Y-135776300D01*
G75*
G02*
X92008800Y-135611300I0J165000D01*
G01*
X92008800Y-135221300D01*
G75*
G02*
X92173800Y-135056300I165000J0D01*
G01*
X92503800Y-135056300D01*
G75*
G02*
X92668800Y-135221300I0J-165000D01*
G01*
G37*
%TD*%
%TO.C,C4*%
G36*
G01*
X104643200Y-137915800D02*
X105033200Y-137915800D01*
G75*
G02*
X105198200Y-138080800I0J-165000D01*
G01*
X105198200Y-138410800D01*
G75*
G02*
X105033200Y-138575800I-165000J0D01*
G01*
X104643200Y-138575800D01*
G75*
G02*
X104478200Y-138410800I0J165000D01*
G01*
X104478200Y-138080800D01*
G75*
G02*
X104643200Y-137915800I165000J0D01*
G01*
G37*
G36*
G01*
X104643200Y-136955800D02*
X105033200Y-136955800D01*
G75*
G02*
X105198200Y-137120800I0J-165000D01*
G01*
X105198200Y-137450800D01*
G75*
G02*
X105033200Y-137615800I-165000J0D01*
G01*
X104643200Y-137615800D01*
G75*
G02*
X104478200Y-137450800I0J165000D01*
G01*
X104478200Y-137120800D01*
G75*
G02*
X104643200Y-136955800I165000J0D01*
G01*
G37*
%TD*%
%TO.C,C3*%
G36*
G01*
X101975040Y-137590400D02*
X101585040Y-137590400D01*
G75*
G02*
X101420040Y-137425400I0J165000D01*
G01*
X101420040Y-137095400D01*
G75*
G02*
X101585040Y-136930400I165000J0D01*
G01*
X101975040Y-136930400D01*
G75*
G02*
X102140040Y-137095400I0J-165000D01*
G01*
X102140040Y-137425400D01*
G75*
G02*
X101975040Y-137590400I-165000J0D01*
G01*
G37*
G36*
G01*
X101975040Y-138550400D02*
X101585040Y-138550400D01*
G75*
G02*
X101420040Y-138385400I0J165000D01*
G01*
X101420040Y-138055400D01*
G75*
G02*
X101585040Y-137890400I165000J0D01*
G01*
X101975040Y-137890400D01*
G75*
G02*
X102140040Y-138055400I0J-165000D01*
G01*
X102140040Y-138385400D01*
G75*
G02*
X101975040Y-138550400I-165000J0D01*
G01*
G37*
%TD*%
%TO.C,C2*%
G36*
G01*
X99146640Y-133468260D02*
X99536640Y-133468260D01*
G75*
G02*
X99701640Y-133633260I0J-165000D01*
G01*
X99701640Y-133963260D01*
G75*
G02*
X99536640Y-134128260I-165000J0D01*
G01*
X99146640Y-134128260D01*
G75*
G02*
X98981640Y-133963260I0J165000D01*
G01*
X98981640Y-133633260D01*
G75*
G02*
X99146640Y-133468260I165000J0D01*
G01*
G37*
G36*
G01*
X99146640Y-132508260D02*
X99536640Y-132508260D01*
G75*
G02*
X99701640Y-132673260I0J-165000D01*
G01*
X99701640Y-133003260D01*
G75*
G02*
X99536640Y-133168260I-165000J0D01*
G01*
X99146640Y-133168260D01*
G75*
G02*
X98981640Y-133003260I0J165000D01*
G01*
X98981640Y-132673260D01*
G75*
G02*
X99146640Y-132508260I165000J0D01*
G01*
G37*
%TD*%
%TO.C,C1*%
G36*
G01*
X104322000Y-133200000D02*
X103932000Y-133200000D01*
G75*
G02*
X103767000Y-133035000I0J165000D01*
G01*
X103767000Y-132705000D01*
G75*
G02*
X103932000Y-132540000I165000J0D01*
G01*
X104322000Y-132540000D01*
G75*
G02*
X104487000Y-132705000I0J-165000D01*
G01*
X104487000Y-133035000D01*
G75*
G02*
X104322000Y-133200000I-165000J0D01*
G01*
G37*
G36*
G01*
X104322000Y-134160000D02*
X103932000Y-134160000D01*
G75*
G02*
X103767000Y-133995000I0J165000D01*
G01*
X103767000Y-133665000D01*
G75*
G02*
X103932000Y-133500000I165000J0D01*
G01*
X104322000Y-133500000D01*
G75*
G02*
X104487000Y-133665000I0J-165000D01*
G01*
X104487000Y-133995000D01*
G75*
G02*
X104322000Y-134160000I-165000J0D01*
G01*
G37*
%TD*%
M02*
