%TF.GenerationSoftware,KiCad,Pcbnew,(5.1.6)-1*%
%TF.CreationDate,2020-10-20T21:54:06+08:00*%
%TF.ProjectId,NRF52840,4e524635-3238-4343-902e-6b696361645f,rev?*%
%TF.SameCoordinates,Original*%
%TF.FileFunction,Copper,L1,Top*%
%TF.FilePolarity,Positive*%
%FSLAX46Y46*%
G04 Gerber Fmt 4.6, Leading zero omitted, Abs format (unit mm)*
G04 Created by KiCad (PCBNEW (5.1.6)-1) date 2020-10-20 21:54:07*
%MOMM*%
%LPD*%
G01*
G04 APERTURE LIST*
%TA.AperFunction,EtchedComponent*%
%ADD10C,0.100000*%
%TD*%
%TA.AperFunction,SMDPad,CuDef*%
%ADD11R,1.600000X0.250000*%
%TD*%
%TA.AperFunction,SMDPad,CuDef*%
%ADD12R,0.900000X0.800000*%
%TD*%
%TA.AperFunction,SMDPad,CuDef*%
%ADD13C,0.250000*%
%TD*%
%TA.AperFunction,SMDPad,CuDef*%
%ADD14R,4.850000X4.850000*%
%TD*%
%TA.AperFunction,ViaPad*%
%ADD15C,0.460000*%
%TD*%
%TA.AperFunction,ViaPad*%
%ADD16C,0.600000*%
%TD*%
%TA.AperFunction,Conductor*%
%ADD17C,0.127000*%
%TD*%
%TA.AperFunction,Conductor*%
%ADD18C,0.350000*%
%TD*%
%TA.AperFunction,Conductor*%
%ADD19C,0.250000*%
%TD*%
%TA.AperFunction,Conductor*%
%ADD20C,0.200000*%
%TD*%
%TA.AperFunction,Conductor*%
%ADD21C,0.500000*%
%TD*%
%TA.AperFunction,Conductor*%
%ADD22C,0.150000*%
%TD*%
G04 APERTURE END LIST*
D10*
%TO.C,2.4*%
G36*
X139061000Y-158587740D02*
G01*
X139061000Y-156660598D01*
X138443760Y-156660598D01*
X138443760Y-158587740D01*
X137909000Y-158587740D01*
X137909000Y-155887740D01*
X139509000Y-155887740D01*
X139509000Y-158587740D01*
X139061000Y-158587740D01*
G37*
G36*
X137909000Y-153287740D02*
G01*
X137909000Y-151487740D01*
X139509000Y-151487740D01*
X139509000Y-153287740D01*
X137909000Y-153287740D01*
G37*
%TD*%
D11*
%TO.P,2.4,2*%
%TO.N,N/C*%
X138706560Y-153160740D03*
%TO.P,2.4,1*%
X138709000Y-156012740D03*
%TD*%
D12*
%TO.P,Y1,4*%
%TO.N,GND*%
X134892980Y-152372160D03*
%TO.P,Y1,3*%
%TO.N,Net-(C1-Pad2)*%
X133492980Y-152372160D03*
%TO.P,Y1,2*%
%TO.N,GND*%
X133492980Y-151272160D03*
%TO.P,Y1,1*%
%TO.N,Net-(C2-Pad2)*%
X134892980Y-151272160D03*
%TD*%
D13*
%TO.P,U1,AC24*%
%TO.N,SWDIO*%
X130254780Y-157747160D03*
%TO.P,U1,AA24*%
%TO.N,SWDCLK*%
X130254780Y-157247160D03*
%TO.P,U1,W24*%
%TO.N,N/C*%
X130254780Y-156747160D03*
%TO.P,U1,U24*%
X130254780Y-156247160D03*
%TO.P,U1,R24*%
X130254780Y-155747160D03*
%TO.P,U1,N24*%
%TO.N,Net-(C9-Pad1)*%
X130254780Y-155247160D03*
%TO.P,U1,L24*%
%TO.N,N/C*%
X130254780Y-154747160D03*
%TO.P,U1,J24*%
X130254780Y-154247160D03*
%TO.P,U1,E24*%
%TO.N,Net-(C10-Pad2)*%
X130254780Y-153247160D03*
%TO.P,U1,Y23*%
%TO.N,N/C*%
X129754780Y-156997160D03*
%TO.P,U1,V23*%
X129754780Y-156497160D03*
%TO.P,U1,T23*%
X129754780Y-155997160D03*
%TO.P,U1,P23*%
X129754780Y-155497160D03*
%TO.P,U1,H23*%
%TO.N,Net-(C3-Pad2)*%
X129754780Y-153997160D03*
%TO.P,U1,F23*%
%TO.N,GND*%
X129754780Y-153497160D03*
%TO.P,U1,A23*%
%TO.N,Net-(C2-Pad2)*%
X129754780Y-151747160D03*
%TO.P,U1,A22*%
%TO.N,+3V3*%
X129254780Y-151747160D03*
%TO.P,U1,A20*%
%TO.N,N/C*%
X128754780Y-151747160D03*
%TO.P,U1,A18*%
%TO.N,Net-(C13-Pad1)*%
X128254780Y-151747160D03*
%TO.P,U1,A16*%
%TO.N,N/C*%
X127754780Y-151747160D03*
%TO.P,U1,A14*%
X127254780Y-151747160D03*
%TO.P,U1,A12*%
X126754780Y-151747160D03*
%TO.P,U1,A10*%
X126254780Y-151747160D03*
%TO.P,U1,B19*%
X128504780Y-152247160D03*
%TO.P,U1,B17*%
X128004780Y-152247160D03*
%TO.P,U1,B15*%
X127504780Y-152247160D03*
%TO.P,U1,B13*%
X127004780Y-152247160D03*
%TO.P,U1,B11*%
X126504780Y-152247160D03*
%TO.P,U1,B9*%
X126004780Y-152247160D03*
%TO.P,U1,B7*%
%TO.N,GND*%
X125504780Y-152247160D03*
%TO.P,U1,B5*%
%TO.N,Net-(C10-Pad2)*%
X125004780Y-152247160D03*
%TO.P,U1,AC5*%
%TO.N,Net-(C20-Pad1)*%
X125004780Y-157747160D03*
%TO.P,U1,AC9*%
%TO.N,N/C*%
X126004780Y-157747160D03*
%TO.P,U1,AC11*%
X126504780Y-157747160D03*
%TO.P,U1,AC13*%
X127004780Y-157747160D03*
%TO.P,U1,AC15*%
X127504780Y-157747160D03*
%TO.P,U1,AC17*%
X128004780Y-157747160D03*
%TO.P,U1,AC19*%
X128504780Y-157747160D03*
%TO.P,U1,AD22*%
X129254780Y-158247160D03*
%TO.P,U1,AD20*%
X128754780Y-158247160D03*
%TO.P,U1,AD18*%
X128254780Y-158247160D03*
%TO.P,U1,AD16*%
X127754780Y-158247160D03*
%TO.P,U1,AD14*%
%TO.N,+3V3*%
X127254780Y-158247160D03*
%TO.P,U1,AD12*%
%TO.N,N/C*%
X126754780Y-158247160D03*
%TO.P,U1,AD10*%
X126254780Y-158247160D03*
%TO.P,U1,AD8*%
X125754780Y-158247160D03*
%TO.P,U1,AD6*%
%TO.N,D+*%
X125254780Y-158247160D03*
%TO.P,U1,AD4*%
%TO.N,D-*%
X124754780Y-158247160D03*
%TO.P,U1,B1*%
%TO.N,+3V3*%
X123754780Y-152247160D03*
%TO.P,U1,D2*%
%TO.N,N/C*%
X124254780Y-152997160D03*
%TO.P,U1,C1*%
%TO.N,Net-(C5-Pad1)*%
X123754780Y-152747160D03*
%TO.P,U1,F2*%
%TO.N,N/C*%
X124254780Y-153497160D03*
%TO.P,U1,H2*%
X124254780Y-153997160D03*
%TO.P,U1,K2*%
X124254780Y-154497160D03*
%TO.P,U1,M2*%
X124254780Y-154997160D03*
%TO.P,U1,P2*%
X124254780Y-155497160D03*
%TO.P,U1,T2*%
X124254780Y-155997160D03*
%TO.P,U1,G1*%
X123754780Y-153747160D03*
%TO.P,U1,J1*%
X123754780Y-154247160D03*
%TO.P,U1,L1*%
X123754780Y-154747160D03*
%TO.P,U1,N1*%
X123754780Y-155247160D03*
%TO.P,U1,R1*%
X123754780Y-155747160D03*
%TO.P,U1,U1*%
X123754780Y-156247160D03*
%TO.P,U1,W1*%
%TO.N,+3V3*%
X123754780Y-156747160D03*
%TO.P,U1,Y2*%
%TO.N,+5V*%
X124254780Y-156997160D03*
%TO.P,U1,AB2*%
%TO.N,N/C*%
X124254780Y-157497160D03*
%TO.P,U1,AD2*%
%TO.N,+5V*%
X124254780Y-158247160D03*
%TO.P,U1,AD23*%
%TO.N,+3V3*%
X129754780Y-158247160D03*
%TO.P,U1,AC21*%
%TO.N,N/C*%
X129004780Y-157747160D03*
%TO.P,U1,B3*%
X124504780Y-152247160D03*
%TO.P,U1,A8*%
X125754780Y-151747160D03*
%TO.P,U1,D23*%
%TO.N,Net-(C11-Pad2)*%
X129754780Y-152997160D03*
%TO.P,U1,B24*%
%TO.N,Net-(C1-Pad2)*%
X130254780Y-152247160D03*
D14*
%TO.P,U1,EP*%
%TO.N,GND*%
X127004780Y-154997160D03*
%TD*%
%TO.P,L1,2*%
%TO.N,Net-(C3-Pad2)*%
%TA.AperFunction,SMDPad,CuDef*%
G36*
G01*
X132289760Y-154347240D02*
X132289760Y-154547240D01*
G75*
G02*
X132189760Y-154647240I-100000J0D01*
G01*
X131929760Y-154647240D01*
G75*
G02*
X131829760Y-154547240I0J100000D01*
G01*
X131829760Y-154347240D01*
G75*
G02*
X131929760Y-154247240I100000J0D01*
G01*
X132189760Y-154247240D01*
G75*
G02*
X132289760Y-154347240I0J-100000D01*
G01*
G37*
%TD.AperFunction*%
%TO.P,L1,1*%
%TO.N,Net-(AE1-Pad1)*%
%TA.AperFunction,SMDPad,CuDef*%
G36*
G01*
X132929760Y-154347240D02*
X132929760Y-154547240D01*
G75*
G02*
X132829760Y-154647240I-100000J0D01*
G01*
X132569760Y-154647240D01*
G75*
G02*
X132469760Y-154547240I0J100000D01*
G01*
X132469760Y-154347240D01*
G75*
G02*
X132569760Y-154247240I100000J0D01*
G01*
X132829760Y-154247240D01*
G75*
G02*
X132929760Y-154347240I0J-100000D01*
G01*
G37*
%TD.AperFunction*%
%TD*%
%TO.P,C20,2*%
%TO.N,GND*%
%TA.AperFunction,SMDPad,CuDef*%
G36*
G01*
X122004020Y-157682160D02*
X122004020Y-158027160D01*
G75*
G02*
X121856520Y-158174660I-147500J0D01*
G01*
X121561520Y-158174660D01*
G75*
G02*
X121414020Y-158027160I0J147500D01*
G01*
X121414020Y-157682160D01*
G75*
G02*
X121561520Y-157534660I147500J0D01*
G01*
X121856520Y-157534660D01*
G75*
G02*
X122004020Y-157682160I0J-147500D01*
G01*
G37*
%TD.AperFunction*%
%TO.P,C20,1*%
%TO.N,Net-(C20-Pad1)*%
%TA.AperFunction,SMDPad,CuDef*%
G36*
G01*
X122974020Y-157682160D02*
X122974020Y-158027160D01*
G75*
G02*
X122826520Y-158174660I-147500J0D01*
G01*
X122531520Y-158174660D01*
G75*
G02*
X122384020Y-158027160I0J147500D01*
G01*
X122384020Y-157682160D01*
G75*
G02*
X122531520Y-157534660I147500J0D01*
G01*
X122826520Y-157534660D01*
G75*
G02*
X122974020Y-157682160I0J-147500D01*
G01*
G37*
%TD.AperFunction*%
%TD*%
%TO.P,C19,2*%
%TO.N,GND*%
%TA.AperFunction,SMDPad,CuDef*%
G36*
G01*
X122016720Y-158665140D02*
X122016720Y-159010140D01*
G75*
G02*
X121869220Y-159157640I-147500J0D01*
G01*
X121574220Y-159157640D01*
G75*
G02*
X121426720Y-159010140I0J147500D01*
G01*
X121426720Y-158665140D01*
G75*
G02*
X121574220Y-158517640I147500J0D01*
G01*
X121869220Y-158517640D01*
G75*
G02*
X122016720Y-158665140I0J-147500D01*
G01*
G37*
%TD.AperFunction*%
%TO.P,C19,1*%
%TO.N,+5V*%
%TA.AperFunction,SMDPad,CuDef*%
G36*
G01*
X122986720Y-158665140D02*
X122986720Y-159010140D01*
G75*
G02*
X122839220Y-159157640I-147500J0D01*
G01*
X122544220Y-159157640D01*
G75*
G02*
X122396720Y-159010140I0J147500D01*
G01*
X122396720Y-158665140D01*
G75*
G02*
X122544220Y-158517640I147500J0D01*
G01*
X122839220Y-158517640D01*
G75*
G02*
X122986720Y-158665140I0J-147500D01*
G01*
G37*
%TD.AperFunction*%
%TD*%
%TO.P,C15,2*%
%TO.N,GND*%
%TA.AperFunction,SMDPad,CuDef*%
G36*
G01*
X125137680Y-150885940D02*
X125137680Y-150540940D01*
G75*
G02*
X125285180Y-150393440I147500J0D01*
G01*
X125580180Y-150393440D01*
G75*
G02*
X125727680Y-150540940I0J-147500D01*
G01*
X125727680Y-150885940D01*
G75*
G02*
X125580180Y-151033440I-147500J0D01*
G01*
X125285180Y-151033440D01*
G75*
G02*
X125137680Y-150885940I0J147500D01*
G01*
G37*
%TD.AperFunction*%
%TO.P,C15,1*%
%TO.N,Net-(C10-Pad2)*%
%TA.AperFunction,SMDPad,CuDef*%
G36*
G01*
X124167680Y-150885940D02*
X124167680Y-150540940D01*
G75*
G02*
X124315180Y-150393440I147500J0D01*
G01*
X124610180Y-150393440D01*
G75*
G02*
X124757680Y-150540940I0J-147500D01*
G01*
X124757680Y-150885940D01*
G75*
G02*
X124610180Y-151033440I-147500J0D01*
G01*
X124315180Y-151033440D01*
G75*
G02*
X124167680Y-150885940I0J147500D01*
G01*
G37*
%TD.AperFunction*%
%TD*%
%TO.P,C14,2*%
%TO.N,GND*%
%TA.AperFunction,SMDPad,CuDef*%
G36*
G01*
X122047500Y-152110660D02*
X122047500Y-152455660D01*
G75*
G02*
X121900000Y-152603160I-147500J0D01*
G01*
X121605000Y-152603160D01*
G75*
G02*
X121457500Y-152455660I0J147500D01*
G01*
X121457500Y-152110660D01*
G75*
G02*
X121605000Y-151963160I147500J0D01*
G01*
X121900000Y-151963160D01*
G75*
G02*
X122047500Y-152110660I0J-147500D01*
G01*
G37*
%TD.AperFunction*%
%TO.P,C14,1*%
%TO.N,+3V3*%
%TA.AperFunction,SMDPad,CuDef*%
G36*
G01*
X123017500Y-152110660D02*
X123017500Y-152455660D01*
G75*
G02*
X122870000Y-152603160I-147500J0D01*
G01*
X122575000Y-152603160D01*
G75*
G02*
X122427500Y-152455660I0J147500D01*
G01*
X122427500Y-152110660D01*
G75*
G02*
X122575000Y-151963160I147500J0D01*
G01*
X122870000Y-151963160D01*
G75*
G02*
X123017500Y-152110660I0J-147500D01*
G01*
G37*
%TD.AperFunction*%
%TD*%
%TO.P,C13,2*%
%TO.N,GND*%
%TA.AperFunction,SMDPad,CuDef*%
G36*
G01*
X126645840Y-150679480D02*
X126645840Y-150879480D01*
G75*
G02*
X126545840Y-150979480I-100000J0D01*
G01*
X126285840Y-150979480D01*
G75*
G02*
X126185840Y-150879480I0J100000D01*
G01*
X126185840Y-150679480D01*
G75*
G02*
X126285840Y-150579480I100000J0D01*
G01*
X126545840Y-150579480D01*
G75*
G02*
X126645840Y-150679480I0J-100000D01*
G01*
G37*
%TD.AperFunction*%
%TO.P,C13,1*%
%TO.N,Net-(C13-Pad1)*%
%TA.AperFunction,SMDPad,CuDef*%
G36*
G01*
X127285840Y-150679480D02*
X127285840Y-150879480D01*
G75*
G02*
X127185840Y-150979480I-100000J0D01*
G01*
X126925840Y-150979480D01*
G75*
G02*
X126825840Y-150879480I0J100000D01*
G01*
X126825840Y-150679480D01*
G75*
G02*
X126925840Y-150579480I100000J0D01*
G01*
X127185840Y-150579480D01*
G75*
G02*
X127285840Y-150679480I0J-100000D01*
G01*
G37*
%TD.AperFunction*%
%TD*%
%TO.P,C12,2*%
%TO.N,GND*%
%TA.AperFunction,SMDPad,CuDef*%
G36*
G01*
X128111420Y-150676940D02*
X128111420Y-150876940D01*
G75*
G02*
X128011420Y-150976940I-100000J0D01*
G01*
X127751420Y-150976940D01*
G75*
G02*
X127651420Y-150876940I0J100000D01*
G01*
X127651420Y-150676940D01*
G75*
G02*
X127751420Y-150576940I100000J0D01*
G01*
X128011420Y-150576940D01*
G75*
G02*
X128111420Y-150676940I0J-100000D01*
G01*
G37*
%TD.AperFunction*%
%TO.P,C12,1*%
%TO.N,+3V3*%
%TA.AperFunction,SMDPad,CuDef*%
G36*
G01*
X128751420Y-150676940D02*
X128751420Y-150876940D01*
G75*
G02*
X128651420Y-150976940I-100000J0D01*
G01*
X128391420Y-150976940D01*
G75*
G02*
X128291420Y-150876940I0J100000D01*
G01*
X128291420Y-150676940D01*
G75*
G02*
X128391420Y-150576940I100000J0D01*
G01*
X128651420Y-150576940D01*
G75*
G02*
X128751420Y-150676940I0J-100000D01*
G01*
G37*
%TD.AperFunction*%
%TD*%
%TO.P,C11,2*%
%TO.N,Net-(C11-Pad2)*%
%TA.AperFunction,SMDPad,CuDef*%
G36*
G01*
X131684900Y-152491780D02*
X131684900Y-152691780D01*
G75*
G02*
X131584900Y-152791780I-100000J0D01*
G01*
X131324900Y-152791780D01*
G75*
G02*
X131224900Y-152691780I0J100000D01*
G01*
X131224900Y-152491780D01*
G75*
G02*
X131324900Y-152391780I100000J0D01*
G01*
X131584900Y-152391780D01*
G75*
G02*
X131684900Y-152491780I0J-100000D01*
G01*
G37*
%TD.AperFunction*%
%TO.P,C11,1*%
%TO.N,GND*%
%TA.AperFunction,SMDPad,CuDef*%
G36*
G01*
X132324900Y-152491780D02*
X132324900Y-152691780D01*
G75*
G02*
X132224900Y-152791780I-100000J0D01*
G01*
X131964900Y-152791780D01*
G75*
G02*
X131864900Y-152691780I0J100000D01*
G01*
X131864900Y-152491780D01*
G75*
G02*
X131964900Y-152391780I100000J0D01*
G01*
X132224900Y-152391780D01*
G75*
G02*
X132324900Y-152491780I0J-100000D01*
G01*
G37*
%TD.AperFunction*%
%TD*%
%TO.P,C10,2*%
%TO.N,Net-(C10-Pad2)*%
%TA.AperFunction,SMDPad,CuDef*%
G36*
G01*
X132955200Y-153531900D02*
X132955200Y-153731900D01*
G75*
G02*
X132855200Y-153831900I-100000J0D01*
G01*
X132595200Y-153831900D01*
G75*
G02*
X132495200Y-153731900I0J100000D01*
G01*
X132495200Y-153531900D01*
G75*
G02*
X132595200Y-153431900I100000J0D01*
G01*
X132855200Y-153431900D01*
G75*
G02*
X132955200Y-153531900I0J-100000D01*
G01*
G37*
%TD.AperFunction*%
%TO.P,C10,1*%
%TO.N,GND*%
%TA.AperFunction,SMDPad,CuDef*%
G36*
G01*
X133595200Y-153531900D02*
X133595200Y-153731900D01*
G75*
G02*
X133495200Y-153831900I-100000J0D01*
G01*
X133235200Y-153831900D01*
G75*
G02*
X133135200Y-153731900I0J100000D01*
G01*
X133135200Y-153531900D01*
G75*
G02*
X133235200Y-153431900I100000J0D01*
G01*
X133495200Y-153431900D01*
G75*
G02*
X133595200Y-153531900I0J-100000D01*
G01*
G37*
%TD.AperFunction*%
%TD*%
%TO.P,C9,2*%
%TO.N,GND*%
%TA.AperFunction,SMDPad,CuDef*%
G36*
G01*
X131345860Y-157465540D02*
X131690860Y-157465540D01*
G75*
G02*
X131838360Y-157613040I0J-147500D01*
G01*
X131838360Y-157908040D01*
G75*
G02*
X131690860Y-158055540I-147500J0D01*
G01*
X131345860Y-158055540D01*
G75*
G02*
X131198360Y-157908040I0J147500D01*
G01*
X131198360Y-157613040D01*
G75*
G02*
X131345860Y-157465540I147500J0D01*
G01*
G37*
%TD.AperFunction*%
%TO.P,C9,1*%
%TO.N,Net-(C9-Pad1)*%
%TA.AperFunction,SMDPad,CuDef*%
G36*
G01*
X131345860Y-156495540D02*
X131690860Y-156495540D01*
G75*
G02*
X131838360Y-156643040I0J-147500D01*
G01*
X131838360Y-156938040D01*
G75*
G02*
X131690860Y-157085540I-147500J0D01*
G01*
X131345860Y-157085540D01*
G75*
G02*
X131198360Y-156938040I0J147500D01*
G01*
X131198360Y-156643040D01*
G75*
G02*
X131345860Y-156495540I147500J0D01*
G01*
G37*
%TD.AperFunction*%
%TD*%
%TO.P,C8,2*%
%TO.N,GND*%
%TA.AperFunction,SMDPad,CuDef*%
G36*
G01*
X129571580Y-159490080D02*
X129571580Y-159290080D01*
G75*
G02*
X129671580Y-159190080I100000J0D01*
G01*
X129931580Y-159190080D01*
G75*
G02*
X130031580Y-159290080I0J-100000D01*
G01*
X130031580Y-159490080D01*
G75*
G02*
X129931580Y-159590080I-100000J0D01*
G01*
X129671580Y-159590080D01*
G75*
G02*
X129571580Y-159490080I0J100000D01*
G01*
G37*
%TD.AperFunction*%
%TO.P,C8,1*%
%TO.N,+3V3*%
%TA.AperFunction,SMDPad,CuDef*%
G36*
G01*
X128931580Y-159490080D02*
X128931580Y-159290080D01*
G75*
G02*
X129031580Y-159190080I100000J0D01*
G01*
X129291580Y-159190080D01*
G75*
G02*
X129391580Y-159290080I0J-100000D01*
G01*
X129391580Y-159490080D01*
G75*
G02*
X129291580Y-159590080I-100000J0D01*
G01*
X129031580Y-159590080D01*
G75*
G02*
X128931580Y-159490080I0J100000D01*
G01*
G37*
%TD.AperFunction*%
%TD*%
%TO.P,C7,2*%
%TO.N,GND*%
%TA.AperFunction,SMDPad,CuDef*%
G36*
G01*
X126828720Y-159320560D02*
X126828720Y-159520560D01*
G75*
G02*
X126728720Y-159620560I-100000J0D01*
G01*
X126468720Y-159620560D01*
G75*
G02*
X126368720Y-159520560I0J100000D01*
G01*
X126368720Y-159320560D01*
G75*
G02*
X126468720Y-159220560I100000J0D01*
G01*
X126728720Y-159220560D01*
G75*
G02*
X126828720Y-159320560I0J-100000D01*
G01*
G37*
%TD.AperFunction*%
%TO.P,C7,1*%
%TO.N,+3V3*%
%TA.AperFunction,SMDPad,CuDef*%
G36*
G01*
X127468720Y-159320560D02*
X127468720Y-159520560D01*
G75*
G02*
X127368720Y-159620560I-100000J0D01*
G01*
X127108720Y-159620560D01*
G75*
G02*
X127008720Y-159520560I0J100000D01*
G01*
X127008720Y-159320560D01*
G75*
G02*
X127108720Y-159220560I100000J0D01*
G01*
X127368720Y-159220560D01*
G75*
G02*
X127468720Y-159320560I0J-100000D01*
G01*
G37*
%TD.AperFunction*%
%TD*%
%TO.P,C6,2*%
%TO.N,GND*%
%TA.AperFunction,SMDPad,CuDef*%
G36*
G01*
X121996400Y-156145460D02*
X121996400Y-156490460D01*
G75*
G02*
X121848900Y-156637960I-147500J0D01*
G01*
X121553900Y-156637960D01*
G75*
G02*
X121406400Y-156490460I0J147500D01*
G01*
X121406400Y-156145460D01*
G75*
G02*
X121553900Y-155997960I147500J0D01*
G01*
X121848900Y-155997960D01*
G75*
G02*
X121996400Y-156145460I0J-147500D01*
G01*
G37*
%TD.AperFunction*%
%TO.P,C6,1*%
%TO.N,+3V3*%
%TA.AperFunction,SMDPad,CuDef*%
G36*
G01*
X122966400Y-156145460D02*
X122966400Y-156490460D01*
G75*
G02*
X122818900Y-156637960I-147500J0D01*
G01*
X122523900Y-156637960D01*
G75*
G02*
X122376400Y-156490460I0J147500D01*
G01*
X122376400Y-156145460D01*
G75*
G02*
X122523900Y-155997960I147500J0D01*
G01*
X122818900Y-155997960D01*
G75*
G02*
X122966400Y-156145460I0J-147500D01*
G01*
G37*
%TD.AperFunction*%
%TD*%
%TO.P,C5,2*%
%TO.N,GND*%
%TA.AperFunction,SMDPad,CuDef*%
G36*
G01*
X122088780Y-153782100D02*
X122088780Y-153982100D01*
G75*
G02*
X121988780Y-154082100I-100000J0D01*
G01*
X121728780Y-154082100D01*
G75*
G02*
X121628780Y-153982100I0J100000D01*
G01*
X121628780Y-153782100D01*
G75*
G02*
X121728780Y-153682100I100000J0D01*
G01*
X121988780Y-153682100D01*
G75*
G02*
X122088780Y-153782100I0J-100000D01*
G01*
G37*
%TD.AperFunction*%
%TO.P,C5,1*%
%TO.N,Net-(C5-Pad1)*%
%TA.AperFunction,SMDPad,CuDef*%
G36*
G01*
X122728780Y-153782100D02*
X122728780Y-153982100D01*
G75*
G02*
X122628780Y-154082100I-100000J0D01*
G01*
X122368780Y-154082100D01*
G75*
G02*
X122268780Y-153982100I0J100000D01*
G01*
X122268780Y-153782100D01*
G75*
G02*
X122368780Y-153682100I100000J0D01*
G01*
X122628780Y-153682100D01*
G75*
G02*
X122728780Y-153782100I0J-100000D01*
G01*
G37*
%TD.AperFunction*%
%TD*%
%TO.P,C4,2*%
%TO.N,GND*%
%TA.AperFunction,SMDPad,CuDef*%
G36*
G01*
X133447820Y-154906820D02*
X133647820Y-154906820D01*
G75*
G02*
X133747820Y-155006820I0J-100000D01*
G01*
X133747820Y-155266820D01*
G75*
G02*
X133647820Y-155366820I-100000J0D01*
G01*
X133447820Y-155366820D01*
G75*
G02*
X133347820Y-155266820I0J100000D01*
G01*
X133347820Y-155006820D01*
G75*
G02*
X133447820Y-154906820I100000J0D01*
G01*
G37*
%TD.AperFunction*%
%TO.P,C4,1*%
%TO.N,Net-(AE1-Pad1)*%
%TA.AperFunction,SMDPad,CuDef*%
G36*
G01*
X133447820Y-154266820D02*
X133647820Y-154266820D01*
G75*
G02*
X133747820Y-154366820I0J-100000D01*
G01*
X133747820Y-154626820D01*
G75*
G02*
X133647820Y-154726820I-100000J0D01*
G01*
X133447820Y-154726820D01*
G75*
G02*
X133347820Y-154626820I0J100000D01*
G01*
X133347820Y-154366820D01*
G75*
G02*
X133447820Y-154266820I100000J0D01*
G01*
G37*
%TD.AperFunction*%
%TD*%
%TO.P,C3,2*%
%TO.N,Net-(C3-Pad2)*%
%TA.AperFunction,SMDPad,CuDef*%
G36*
G01*
X131346580Y-154686180D02*
X131146580Y-154686180D01*
G75*
G02*
X131046580Y-154586180I0J100000D01*
G01*
X131046580Y-154326180D01*
G75*
G02*
X131146580Y-154226180I100000J0D01*
G01*
X131346580Y-154226180D01*
G75*
G02*
X131446580Y-154326180I0J-100000D01*
G01*
X131446580Y-154586180D01*
G75*
G02*
X131346580Y-154686180I-100000J0D01*
G01*
G37*
%TD.AperFunction*%
%TO.P,C3,1*%
%TO.N,GND*%
%TA.AperFunction,SMDPad,CuDef*%
G36*
G01*
X131346580Y-155326180D02*
X131146580Y-155326180D01*
G75*
G02*
X131046580Y-155226180I0J100000D01*
G01*
X131046580Y-154966180D01*
G75*
G02*
X131146580Y-154866180I100000J0D01*
G01*
X131346580Y-154866180D01*
G75*
G02*
X131446580Y-154966180I0J-100000D01*
G01*
X131446580Y-155226180D01*
G75*
G02*
X131346580Y-155326180I-100000J0D01*
G01*
G37*
%TD.AperFunction*%
%TD*%
%TO.P,C2,2*%
%TO.N,Net-(C2-Pad2)*%
%TA.AperFunction,SMDPad,CuDef*%
G36*
G01*
X136302620Y-150868720D02*
X136302620Y-151068720D01*
G75*
G02*
X136202620Y-151168720I-100000J0D01*
G01*
X135942620Y-151168720D01*
G75*
G02*
X135842620Y-151068720I0J100000D01*
G01*
X135842620Y-150868720D01*
G75*
G02*
X135942620Y-150768720I100000J0D01*
G01*
X136202620Y-150768720D01*
G75*
G02*
X136302620Y-150868720I0J-100000D01*
G01*
G37*
%TD.AperFunction*%
%TO.P,C2,1*%
%TO.N,GND*%
%TA.AperFunction,SMDPad,CuDef*%
G36*
G01*
X136942620Y-150868720D02*
X136942620Y-151068720D01*
G75*
G02*
X136842620Y-151168720I-100000J0D01*
G01*
X136582620Y-151168720D01*
G75*
G02*
X136482620Y-151068720I0J100000D01*
G01*
X136482620Y-150868720D01*
G75*
G02*
X136582620Y-150768720I100000J0D01*
G01*
X136842620Y-150768720D01*
G75*
G02*
X136942620Y-150868720I0J-100000D01*
G01*
G37*
%TD.AperFunction*%
%TD*%
%TO.P,C1,2*%
%TO.N,Net-(C1-Pad2)*%
%TA.AperFunction,SMDPad,CuDef*%
G36*
G01*
X131897920Y-151442100D02*
X131897920Y-151242100D01*
G75*
G02*
X131997920Y-151142100I100000J0D01*
G01*
X132257920Y-151142100D01*
G75*
G02*
X132357920Y-151242100I0J-100000D01*
G01*
X132357920Y-151442100D01*
G75*
G02*
X132257920Y-151542100I-100000J0D01*
G01*
X131997920Y-151542100D01*
G75*
G02*
X131897920Y-151442100I0J100000D01*
G01*
G37*
%TD.AperFunction*%
%TO.P,C1,1*%
%TO.N,GND*%
%TA.AperFunction,SMDPad,CuDef*%
G36*
G01*
X131257920Y-151442100D02*
X131257920Y-151242100D01*
G75*
G02*
X131357920Y-151142100I100000J0D01*
G01*
X131617920Y-151142100D01*
G75*
G02*
X131717920Y-151242100I0J-100000D01*
G01*
X131717920Y-151442100D01*
G75*
G02*
X131617920Y-151542100I-100000J0D01*
G01*
X131357920Y-151542100D01*
G75*
G02*
X131257920Y-151442100I0J100000D01*
G01*
G37*
%TD.AperFunction*%
%TD*%
D15*
%TO.N,GND*%
X138343640Y-150876000D03*
D16*
X133464300Y-156100780D03*
X121721720Y-158837640D03*
D15*
X134919720Y-153476960D03*
X127876300Y-150756620D03*
D16*
X121983500Y-150815040D03*
D15*
X128900040Y-153497160D03*
X128902460Y-154297380D03*
X128887220Y-155336240D03*
X128902460Y-156248100D03*
X128938020Y-156972000D03*
X127693420Y-157124400D03*
X126570740Y-157109160D03*
X125491240Y-157116780D03*
X125463300Y-155122880D03*
X127505460Y-153123900D03*
X125425200Y-153121360D03*
X131396601Y-151646215D03*
D16*
X130764280Y-159392620D03*
D15*
X125702060Y-159420560D03*
X127548640Y-155127960D03*
X126563120Y-155117800D03*
X126362460Y-153126440D03*
X137121900Y-153489660D03*
X137121900Y-154289760D03*
X137121900Y-155089860D03*
X137121900Y-155889960D03*
X137121900Y-156690060D03*
X136144000Y-153494740D03*
X136136380Y-154081480D03*
X136144000Y-154719020D03*
X134825740Y-156047440D03*
X134825740Y-156751655D03*
X134825740Y-157455870D03*
X134825740Y-158160085D03*
X134825740Y-158864300D03*
X133957060Y-156728160D03*
X133949440Y-158160720D03*
X135529320Y-159407860D03*
X138877040Y-159123380D03*
%TO.N,+3V3*%
X128226820Y-159420560D03*
X123082870Y-155144918D03*
D16*
X122755660Y-150825200D03*
D15*
X131986020Y-159445960D03*
D16*
X129364740Y-150794720D03*
D15*
%TO.N,Net-(C10-Pad2)*%
X123469400Y-150848060D03*
X134122160Y-153878280D03*
%TO.N,+5V*%
X120990360Y-150870920D03*
X120931940Y-159478980D03*
%TO.N,SWDIO*%
X132891127Y-159221145D03*
%TO.N,SWDCLK*%
X133344920Y-158813500D03*
%TO.N,D-*%
X123388120Y-159390080D03*
X121577100Y-153104932D03*
%TO.N,D+*%
X124445847Y-159447047D03*
X122072858Y-155300053D03*
%TD*%
D17*
%TO.N,Net-(C1-Pad2)*%
X133157980Y-152372160D02*
X132127920Y-151342100D01*
X133492980Y-152372160D02*
X133157980Y-152372160D01*
X130323670Y-152178270D02*
X130254780Y-152247160D01*
X132127920Y-151542100D02*
X131491750Y-152178270D01*
X131491750Y-152178270D02*
X130323670Y-152178270D01*
X132127920Y-151342100D02*
X132127920Y-151542100D01*
%TO.N,GND*%
X134758678Y-152372160D02*
X134892980Y-152372160D01*
X133658678Y-151272160D02*
X134758678Y-152372160D01*
X133492980Y-151272160D02*
X133658678Y-151272160D01*
X121709020Y-158824940D02*
X121721720Y-158837640D01*
X121721720Y-158837640D02*
X121721720Y-158837640D01*
X133507180Y-155096180D02*
X133547820Y-155136820D01*
X131246580Y-155096180D02*
X133507180Y-155096180D01*
D18*
X121721720Y-157867360D02*
X121709020Y-157854660D01*
X121721720Y-158837640D02*
X121721720Y-157867360D01*
X133547820Y-156017260D02*
X133464300Y-156100780D01*
X133547820Y-155136820D02*
X133547820Y-156017260D01*
X138250920Y-150968720D02*
X138343640Y-150876000D01*
X136712620Y-150968720D02*
X138250920Y-150968720D01*
X134892980Y-152372160D02*
X134892980Y-153450220D01*
X134892980Y-153450220D02*
X134919720Y-153476960D01*
D17*
X125504780Y-153497160D02*
X127004780Y-154997160D01*
X125504780Y-152247160D02*
X125504780Y-153497160D01*
X126388860Y-150921720D02*
X126418080Y-150950940D01*
X127959860Y-150918920D02*
X127881380Y-150840440D01*
D19*
X122577869Y-155544078D02*
X122398997Y-155722950D01*
X122577869Y-155008867D02*
X122577869Y-155544078D01*
X121753880Y-156317960D02*
X121701400Y-156317960D01*
X121858780Y-153882100D02*
X121858780Y-154289778D01*
X121858780Y-154289778D02*
X122577869Y-155008867D01*
X122348890Y-155722950D02*
X121753880Y-156317960D01*
X122398997Y-155722950D02*
X122348890Y-155722950D01*
X121983500Y-152052160D02*
X121752500Y-152283160D01*
X121983500Y-150815040D02*
X121983500Y-152052160D01*
X121858780Y-153741380D02*
X121858780Y-153882100D01*
X122359420Y-153240740D02*
X121858780Y-153741380D01*
X121752500Y-152283160D02*
X122359420Y-152890080D01*
X122359420Y-152890080D02*
X122359420Y-153240740D01*
X131804540Y-157760540D02*
X133464300Y-156100780D01*
X131518360Y-157760540D02*
X131804540Y-157760540D01*
D20*
X129754780Y-153497160D02*
X128900040Y-153497160D01*
D19*
X128504780Y-153497160D02*
X127004780Y-154997160D01*
X128900040Y-153497160D02*
X128504780Y-153497160D01*
D17*
X130571240Y-159390080D02*
X129801580Y-159390080D01*
X130764280Y-159392620D02*
X130571240Y-159390080D01*
D18*
X131396601Y-151433419D02*
X131487920Y-151342100D01*
X131396601Y-151646215D02*
X131396601Y-151433419D01*
D21*
X125702060Y-159420560D02*
X126598720Y-159420560D01*
D19*
X133365200Y-153431900D02*
X133423821Y-153373279D01*
X134816039Y-153373279D02*
X134919720Y-153476960D01*
X133423821Y-153373279D02*
X134816039Y-153373279D01*
X133365200Y-153631900D02*
X133365200Y-153431900D01*
D17*
X132525080Y-152591780D02*
X133365200Y-153431900D01*
X132094900Y-152591780D02*
X132525080Y-152591780D01*
X125432680Y-151568278D02*
X125321060Y-151679898D01*
X125432680Y-150713440D02*
X125432680Y-151568278D01*
X125321060Y-152063440D02*
X125504780Y-152247160D01*
X125321060Y-151679898D02*
X125321060Y-152063440D01*
D18*
X139131069Y-158986191D02*
X139293600Y-158391860D01*
X138877040Y-159123380D02*
X138877040Y-159123380D01*
X138993880Y-159123380D02*
X139131069Y-158986191D01*
X138877040Y-159123380D02*
X138993880Y-159123380D01*
D17*
%TO.N,Net-(C2-Pad2)*%
X135196420Y-150968720D02*
X134892980Y-151272160D01*
X136072620Y-150968720D02*
X135196420Y-150968720D01*
X134184090Y-150563270D02*
X134892980Y-151272160D01*
X130518210Y-150563270D02*
X134184090Y-150563270D01*
X129754780Y-151747160D02*
X129754780Y-151326700D01*
X129754780Y-151326700D02*
X130518210Y-150563270D01*
D20*
%TO.N,Net-(C3-Pad2)*%
X129754780Y-153997160D02*
X129879781Y-153872159D01*
X132013660Y-154456180D02*
X132018780Y-154451060D01*
D19*
X131255520Y-154447240D02*
X131246580Y-154456180D01*
X132059760Y-154447240D02*
X131255520Y-154447240D01*
D20*
X129879781Y-153872159D02*
X130662559Y-153872159D01*
X130662559Y-153872159D02*
X131246580Y-154456180D01*
D19*
%TO.N,Net-(AE1-Pad1)*%
X133498240Y-154447240D02*
X133547820Y-154496820D01*
X132699760Y-154447240D02*
X133498240Y-154447240D01*
D18*
X136277163Y-158937934D02*
X136236309Y-158895023D01*
X136236309Y-158895023D02*
X136197610Y-158850160D01*
X136197610Y-158850160D02*
X136161159Y-158803452D01*
X136161159Y-158803452D02*
X136127044Y-158755012D01*
X136127044Y-158755012D02*
X136095346Y-158704957D01*
X136095346Y-158704957D02*
X136066143Y-158653406D01*
X136066143Y-158653406D02*
X136039505Y-158600485D01*
X136039505Y-158600485D02*
X136015495Y-158546320D01*
X136015495Y-158546320D02*
X135994172Y-158491042D01*
X135994172Y-158491042D02*
X135975587Y-158434785D01*
X135975587Y-158434785D02*
X135959785Y-158377683D01*
X135959785Y-158377683D02*
X135946804Y-158319875D01*
X135946804Y-158319875D02*
X135936675Y-158261500D01*
X135936675Y-158261500D02*
X135929422Y-158202698D01*
X135929422Y-158202698D02*
X135925063Y-158143610D01*
X135925063Y-158143610D02*
X135923610Y-158084381D01*
X135377906Y-155156886D02*
X135292085Y-155075178D01*
X135292085Y-155075178D02*
X135202360Y-154997780D01*
X135202360Y-154997780D02*
X135108944Y-154924878D01*
X135108944Y-154924878D02*
X135012064Y-154856647D01*
X135012064Y-154856647D02*
X134911953Y-154793252D01*
X134911953Y-154793252D02*
X134808851Y-154734846D01*
X134808851Y-154734846D02*
X134703008Y-154681569D01*
X134703008Y-154681569D02*
X134594679Y-154633550D01*
X134594679Y-154633550D02*
X134484123Y-154590904D01*
X134484123Y-154590904D02*
X134371608Y-154553734D01*
X134371608Y-154553734D02*
X134257405Y-154522130D01*
X134257405Y-154522130D02*
X134141789Y-154496167D01*
X134141789Y-154496167D02*
X134025038Y-154475909D01*
X134025038Y-154475909D02*
X133907434Y-154461404D01*
X133907434Y-154461404D02*
X133789259Y-154452687D01*
X133789259Y-154452687D02*
X133670800Y-154449780D01*
X133670800Y-154449780D02*
X133594860Y-154449780D01*
X135923610Y-156402590D02*
X135923610Y-158084381D01*
X135923610Y-156402590D02*
X135921574Y-156319668D01*
X135921574Y-156319668D02*
X135915472Y-156236945D01*
X135915472Y-156236945D02*
X135905318Y-156154622D01*
X135905318Y-156154622D02*
X135891138Y-156072897D01*
X135891138Y-156072897D02*
X135872964Y-155991965D01*
X135872964Y-155991965D02*
X135850841Y-155912023D01*
X135850841Y-155912023D02*
X135824822Y-155833262D01*
X135824822Y-155833262D02*
X135794970Y-155755874D01*
X135794970Y-155755874D02*
X135761356Y-155680043D01*
X135761356Y-155680043D02*
X135724062Y-155605953D01*
X135724062Y-155605953D02*
X135683178Y-155533782D01*
X135683178Y-155533782D02*
X135638802Y-155463704D01*
X135638802Y-155463704D02*
X135591040Y-155395887D01*
X135591040Y-155395887D02*
X135540009Y-155330497D01*
X135540009Y-155330497D02*
X135485830Y-155267688D01*
X135485830Y-155267688D02*
X135428635Y-155207615D01*
X135428635Y-155207615D02*
X135377906Y-155156886D01*
X136975755Y-159236526D02*
X136928371Y-159235362D01*
X136928371Y-159235362D02*
X136881101Y-159231875D01*
X136881101Y-159231875D02*
X136834059Y-159226073D01*
X136834059Y-159226073D02*
X136787359Y-159217970D01*
X136787359Y-159217970D02*
X136741112Y-159207585D01*
X136741112Y-159207585D02*
X136695431Y-159194943D01*
X136695431Y-159194943D02*
X136650425Y-159180075D01*
X136650425Y-159180075D02*
X136606202Y-159163017D01*
X136606202Y-159163017D02*
X136562871Y-159143809D01*
X136562871Y-159143809D02*
X136520533Y-159122499D01*
X136520533Y-159122499D02*
X136479293Y-159099136D01*
X136479293Y-159099136D02*
X136439248Y-159073778D01*
X136439248Y-159073778D02*
X136400496Y-159046486D01*
X136400496Y-159046486D02*
X136363130Y-159017325D01*
X136363130Y-159017325D02*
X136327239Y-158986366D01*
X136327239Y-158986366D02*
X136292912Y-158953683D01*
X136292912Y-158953683D02*
X136277163Y-158937934D01*
X138010491Y-159046485D02*
X137971739Y-159073777D01*
X137971739Y-159073777D02*
X137931694Y-159099135D01*
X137931694Y-159099135D02*
X137890454Y-159122498D01*
X137890454Y-159122498D02*
X137848117Y-159143809D01*
X137848117Y-159143809D02*
X137804785Y-159163016D01*
X137804785Y-159163016D02*
X137760563Y-159180075D01*
X137760563Y-159180075D02*
X137715557Y-159194943D01*
X137715557Y-159194943D02*
X137669876Y-159207585D01*
X137669876Y-159207585D02*
X137623629Y-159217970D01*
X137623629Y-159217970D02*
X137576929Y-159226073D01*
X137576929Y-159226073D02*
X137529887Y-159231875D01*
X137529887Y-159231875D02*
X137482617Y-159235362D01*
X137482617Y-159235362D02*
X137435234Y-159236526D01*
X137435234Y-159236526D02*
X136975755Y-159236526D01*
X138040822Y-159029290D02*
X138231880Y-159029400D01*
D17*
%TO.N,Net-(C5-Pad1)*%
X122619840Y-153882100D02*
X122498780Y-153882100D01*
X123754780Y-152747160D02*
X122619840Y-153882100D01*
D20*
%TO.N,+3V3*%
X127254780Y-159404500D02*
X127238720Y-159420560D01*
X127254780Y-158247160D02*
X127254780Y-159404500D01*
X129161580Y-159017136D02*
X129161580Y-159390080D01*
X129754780Y-158423936D02*
X129161580Y-159017136D01*
X129754780Y-158247160D02*
X129754780Y-158423936D01*
X129131100Y-159420560D02*
X129161580Y-159390080D01*
X127238720Y-159420560D02*
X128226820Y-159420560D01*
X128226820Y-159420560D02*
X129131100Y-159420560D01*
X123100600Y-156747160D02*
X122671400Y-156317960D01*
X123754780Y-156747160D02*
X123100600Y-156747160D01*
X122671400Y-156317960D02*
X123082870Y-155906490D01*
X123082870Y-155906490D02*
X123082870Y-155144918D01*
D19*
X123703080Y-152195460D02*
X123754780Y-152247160D01*
X122755660Y-150825200D02*
X123703080Y-152195460D01*
D17*
X122758500Y-152247160D02*
X122722500Y-152283160D01*
D20*
X123718780Y-152283160D02*
X123754780Y-152247160D01*
X122722500Y-152283160D02*
X123718780Y-152283160D01*
X129325360Y-150945860D02*
X129440940Y-150830280D01*
X129354580Y-150776940D02*
X129377440Y-150754080D01*
X128521420Y-150776940D02*
X129354580Y-150776940D01*
X129254780Y-150876740D02*
X129377440Y-150754080D01*
X129254780Y-151747160D02*
X129254780Y-150876740D01*
D17*
%TO.N,Net-(C9-Pad1)*%
X131518360Y-156510740D02*
X131518360Y-156790540D01*
X130254780Y-155247160D02*
X131518360Y-156510740D01*
%TO.N,Net-(C10-Pad2)*%
X123543060Y-150921720D02*
X123469400Y-150848060D01*
X132340460Y-153247160D02*
X132725200Y-153631900D01*
X130254780Y-153247160D02*
X132340460Y-153247160D01*
X132725200Y-153665272D02*
X132725200Y-153631900D01*
X133105338Y-154045410D02*
X132725200Y-153665272D01*
X133625062Y-154045410D02*
X133105338Y-154045410D01*
X133792192Y-153878280D02*
X133625062Y-154045410D01*
X134122160Y-153878280D02*
X133792192Y-153878280D01*
X124335680Y-150848060D02*
X124477920Y-150705820D01*
X124541420Y-150769320D02*
X124477920Y-150705820D01*
X124328060Y-150848060D02*
X124462680Y-150713440D01*
X123469400Y-150848060D02*
X124328060Y-150848060D01*
X124462680Y-150713440D02*
X124462680Y-151381600D01*
X125004780Y-151923700D02*
X125004780Y-152247160D01*
X124462680Y-151381600D02*
X125004780Y-151923700D01*
%TO.N,Net-(C11-Pad2)*%
X130005762Y-152997160D02*
X130411142Y-152591780D01*
X130411142Y-152591780D02*
X131454900Y-152591780D01*
X129754780Y-152997160D02*
X130005762Y-152997160D01*
%TO.N,Net-(C13-Pad1)*%
X128254780Y-151747160D02*
X127866990Y-151359370D01*
X127866990Y-151359370D02*
X127562110Y-151359370D01*
X127055840Y-150853100D02*
X127562110Y-151359370D01*
X127055840Y-150779480D02*
X127055840Y-150853100D01*
D20*
%TO.N,+5V*%
X123664300Y-158837640D02*
X124254780Y-158247160D01*
X122691720Y-158837640D02*
X123664300Y-158837640D01*
D19*
X121204350Y-157259650D02*
X120941707Y-156997007D01*
X124254780Y-156997160D02*
X124078004Y-156997160D01*
X124078004Y-156997160D02*
X123815514Y-157259650D01*
X120990360Y-150870920D02*
X120941707Y-156997007D01*
X123815514Y-157259650D02*
X121204350Y-157259650D01*
X120931940Y-158226760D02*
X120941707Y-156997007D01*
X120931940Y-159478980D02*
X120931940Y-158226760D01*
X122050380Y-159478980D02*
X122691720Y-158837640D01*
X120931940Y-159478980D02*
X122050380Y-159478980D01*
D17*
%TO.N,Net-(C20-Pad1)*%
X124897280Y-157854660D02*
X122679020Y-157854660D01*
X125004780Y-157747160D02*
X124897280Y-157854660D01*
D19*
%TO.N,SWDIO*%
X131044921Y-158770320D02*
X132442578Y-158770320D01*
X130523340Y-158248739D02*
X131044921Y-158770320D01*
X130254780Y-157747160D02*
X130431556Y-157747160D01*
X130523340Y-157838944D02*
X130523340Y-158248739D01*
X130431556Y-157747160D02*
X130523340Y-157838944D01*
X132442578Y-158770320D02*
X132891127Y-159218869D01*
X132891127Y-159218869D02*
X132891127Y-159221145D01*
%TO.N,SWDCLK*%
X132768340Y-158328360D02*
X133253480Y-158813500D01*
X133253480Y-158813500D02*
X133344920Y-158813500D01*
X132766150Y-158330550D02*
X132768340Y-158328360D01*
X130732480Y-157247160D02*
X130923350Y-157438030D01*
X130254780Y-157247160D02*
X130732480Y-157247160D01*
X130923350Y-157438030D02*
X130923350Y-158083050D01*
X131170850Y-158330550D02*
X132766150Y-158330550D01*
X130923350Y-158083050D02*
X131170850Y-158330550D01*
%TO.N,D-*%
X123788636Y-159390080D02*
X123388120Y-159390080D01*
X124754780Y-158247160D02*
X124754780Y-158423936D01*
X124754780Y-158423936D02*
X123788636Y-159390080D01*
%TO.N,D+*%
X125254780Y-158247160D02*
X125254780Y-158638114D01*
X125254780Y-158638114D02*
X124445847Y-159447047D01*
X124445847Y-159447047D02*
X125245733Y-158647161D01*
%TD*%
D22*
%TO.N,GND*%
G36*
X138847524Y-158759022D02*
G01*
X138848306Y-158759981D01*
X138864520Y-158780147D01*
X138865258Y-158780767D01*
X138865868Y-158781514D01*
X138885801Y-158798004D01*
X138905634Y-158814646D01*
X138906480Y-158815111D01*
X138907222Y-158815725D01*
X138929976Y-158828028D01*
X138952666Y-158840502D01*
X138953585Y-158840794D01*
X138954433Y-158841252D01*
X138979096Y-158848886D01*
X139003824Y-158856731D01*
X139004786Y-158856839D01*
X139005704Y-158857123D01*
X139031386Y-158859822D01*
X139057160Y-158862713D01*
X139059014Y-158862726D01*
X139059080Y-158862733D01*
X139059146Y-158862727D01*
X139061000Y-158862740D01*
X139235985Y-158862740D01*
X138922212Y-159624760D01*
X137849604Y-159624760D01*
X137856885Y-159622745D01*
X137867205Y-159618764D01*
X137891231Y-159610827D01*
X137901897Y-159607875D01*
X137912213Y-159603895D01*
X137922709Y-159600428D01*
X137932822Y-159595945D01*
X137956432Y-159586837D01*
X137966928Y-159583370D01*
X137977048Y-159578884D01*
X137987366Y-159574904D01*
X137997232Y-159569938D01*
X138020374Y-159559680D01*
X138030700Y-159555697D01*
X138040576Y-159550726D01*
X138050678Y-159546248D01*
X138060304Y-159540795D01*
X138082917Y-159529412D01*
X138093031Y-159524929D01*
X138102655Y-159519477D01*
X138112526Y-159514508D01*
X138121866Y-159508593D01*
X138143886Y-159496118D01*
X138153765Y-159491146D01*
X138163117Y-159485224D01*
X138172737Y-159479774D01*
X138173317Y-159479366D01*
X138253725Y-159479412D01*
X138319839Y-159472939D01*
X138404680Y-159447256D01*
X138482879Y-159405515D01*
X138551432Y-159349321D01*
X138607706Y-159280832D01*
X138649537Y-159202681D01*
X138675318Y-159117870D01*
X138684056Y-159029660D01*
X138675419Y-158941441D01*
X138649736Y-158856600D01*
X138618628Y-158798322D01*
X138636167Y-158784220D01*
X138636787Y-158783482D01*
X138637534Y-158782872D01*
X138654024Y-158762939D01*
X138658594Y-158757492D01*
X138847524Y-158759022D01*
G37*
X138847524Y-158759022D02*
X138848306Y-158759981D01*
X138864520Y-158780147D01*
X138865258Y-158780767D01*
X138865868Y-158781514D01*
X138885801Y-158798004D01*
X138905634Y-158814646D01*
X138906480Y-158815111D01*
X138907222Y-158815725D01*
X138929976Y-158828028D01*
X138952666Y-158840502D01*
X138953585Y-158840794D01*
X138954433Y-158841252D01*
X138979096Y-158848886D01*
X139003824Y-158856731D01*
X139004786Y-158856839D01*
X139005704Y-158857123D01*
X139031386Y-158859822D01*
X139057160Y-158862713D01*
X139059014Y-158862726D01*
X139059080Y-158862733D01*
X139059146Y-158862727D01*
X139061000Y-158862740D01*
X139235985Y-158862740D01*
X138922212Y-159624760D01*
X137849604Y-159624760D01*
X137856885Y-159622745D01*
X137867205Y-159618764D01*
X137891231Y-159610827D01*
X137901897Y-159607875D01*
X137912213Y-159603895D01*
X137922709Y-159600428D01*
X137932822Y-159595945D01*
X137956432Y-159586837D01*
X137966928Y-159583370D01*
X137977048Y-159578884D01*
X137987366Y-159574904D01*
X137997232Y-159569938D01*
X138020374Y-159559680D01*
X138030700Y-159555697D01*
X138040576Y-159550726D01*
X138050678Y-159546248D01*
X138060304Y-159540795D01*
X138082917Y-159529412D01*
X138093031Y-159524929D01*
X138102655Y-159519477D01*
X138112526Y-159514508D01*
X138121866Y-159508593D01*
X138143886Y-159496118D01*
X138153765Y-159491146D01*
X138163117Y-159485224D01*
X138172737Y-159479774D01*
X138173317Y-159479366D01*
X138253725Y-159479412D01*
X138319839Y-159472939D01*
X138404680Y-159447256D01*
X138482879Y-159405515D01*
X138551432Y-159349321D01*
X138607706Y-159280832D01*
X138649537Y-159202681D01*
X138675318Y-159117870D01*
X138684056Y-159029660D01*
X138675419Y-158941441D01*
X138649736Y-158856600D01*
X138618628Y-158798322D01*
X138636167Y-158784220D01*
X138636787Y-158783482D01*
X138637534Y-158782872D01*
X138654024Y-158762939D01*
X138658594Y-158757492D01*
X138847524Y-158759022D01*
G36*
X132425745Y-154894924D02*
G01*
X132496342Y-154916339D01*
X132569760Y-154923570D01*
X132829760Y-154923570D01*
X132903178Y-154916339D01*
X132920757Y-154911007D01*
X132991570Y-154981820D01*
X133327923Y-154981820D01*
X133374402Y-154995919D01*
X133447820Y-155003150D01*
X133647820Y-155003150D01*
X133721238Y-154995919D01*
X133767717Y-154981820D01*
X134104070Y-154981820D01*
X134130951Y-154954939D01*
X134148034Y-154958776D01*
X134240952Y-154984490D01*
X134332473Y-155014724D01*
X134422421Y-155049421D01*
X134510542Y-155088482D01*
X134596671Y-155131836D01*
X134680535Y-155179345D01*
X134761978Y-155230917D01*
X134840791Y-155286423D01*
X134916793Y-155345735D01*
X134989805Y-155408717D01*
X135063612Y-155478987D01*
X135106542Y-155521917D01*
X135152297Y-155569974D01*
X135192044Y-155616052D01*
X135229489Y-155664034D01*
X135264531Y-155713789D01*
X135297081Y-155765192D01*
X135327078Y-155818145D01*
X135354440Y-155872503D01*
X135379102Y-155928138D01*
X135400999Y-155984903D01*
X135420092Y-156042700D01*
X135436317Y-156101333D01*
X135449652Y-156160713D01*
X135460055Y-156220669D01*
X135467505Y-156281072D01*
X135471981Y-156341747D01*
X135473610Y-156408087D01*
X135473611Y-158067802D01*
X135473204Y-158073319D01*
X135473611Y-158089911D01*
X135473611Y-158106486D01*
X135474152Y-158111984D01*
X135474928Y-158143612D01*
X135474657Y-158154672D01*
X135475470Y-158165692D01*
X135475741Y-158176744D01*
X135477095Y-158187727D01*
X135479830Y-158224793D01*
X135480101Y-158235847D01*
X135481454Y-158246818D01*
X135482268Y-158257850D01*
X135484159Y-158268748D01*
X135488707Y-158305620D01*
X135489521Y-158316653D01*
X135491412Y-158327553D01*
X135492766Y-158338527D01*
X135495189Y-158349318D01*
X135501541Y-158385920D01*
X135502895Y-158396901D01*
X135505320Y-158407702D01*
X135507209Y-158418586D01*
X135510155Y-158429231D01*
X135518300Y-158465505D01*
X135520190Y-158476397D01*
X135523138Y-158487050D01*
X135525562Y-158497845D01*
X135529032Y-158508349D01*
X135538943Y-158544165D01*
X135541366Y-158554953D01*
X135544833Y-158565447D01*
X135547783Y-158576108D01*
X135551764Y-158586429D01*
X135563421Y-158621715D01*
X135566370Y-158632370D01*
X135570349Y-158642685D01*
X135573819Y-158653189D01*
X135578301Y-158663300D01*
X135591676Y-158697975D01*
X135595144Y-158708471D01*
X135599622Y-158718574D01*
X135603604Y-158728896D01*
X135608579Y-158738780D01*
X135623633Y-158772742D01*
X135627615Y-158783064D01*
X135632591Y-158792948D01*
X135637070Y-158803054D01*
X135642519Y-158812673D01*
X135659225Y-158845860D01*
X135663708Y-158855975D01*
X135669163Y-158865604D01*
X135674131Y-158875474D01*
X135680043Y-158884811D01*
X135698367Y-158917156D01*
X135703340Y-158927036D01*
X135709254Y-158936375D01*
X135714702Y-158945992D01*
X135721071Y-158955036D01*
X135740952Y-158986431D01*
X135746402Y-158996051D01*
X135752772Y-159005096D01*
X135758690Y-159014441D01*
X135765492Y-159023157D01*
X135786886Y-159053534D01*
X135792803Y-159062878D01*
X135799608Y-159071598D01*
X135805974Y-159080637D01*
X135813195Y-159089009D01*
X135836062Y-159118310D01*
X135842428Y-159127349D01*
X135849647Y-159135718D01*
X135856453Y-159144439D01*
X135864084Y-159152454D01*
X135888354Y-159180589D01*
X135895154Y-159189303D01*
X135902777Y-159197310D01*
X135910004Y-159205688D01*
X135918013Y-159213313D01*
X135939824Y-159236223D01*
X135943335Y-159240501D01*
X135955056Y-159252222D01*
X135966492Y-159264234D01*
X135966553Y-159264286D01*
X135966605Y-159264347D01*
X135978630Y-159275796D01*
X135990345Y-159287511D01*
X135994615Y-159291016D01*
X136008953Y-159304667D01*
X136016578Y-159312675D01*
X136024943Y-159319891D01*
X136032950Y-159327514D01*
X136041675Y-159334323D01*
X136060842Y-159350857D01*
X136068848Y-159358479D01*
X136077568Y-159365284D01*
X136085946Y-159372511D01*
X136094986Y-159378877D01*
X136114935Y-159394446D01*
X136123312Y-159401672D01*
X136132352Y-159408038D01*
X136141067Y-159414840D01*
X136150411Y-159420757D01*
X136171118Y-159435341D01*
X136179826Y-159442136D01*
X136189156Y-159448044D01*
X136198209Y-159454420D01*
X136207840Y-159459876D01*
X136229213Y-159473411D01*
X136238250Y-159479775D01*
X136247871Y-159485226D01*
X136257222Y-159491147D01*
X136267099Y-159496119D01*
X136289116Y-159508592D01*
X136298472Y-159514516D01*
X136308346Y-159519486D01*
X136317956Y-159524930D01*
X136328073Y-159529415D01*
X136350686Y-159540796D01*
X136360299Y-159546242D01*
X136370417Y-159550727D01*
X136380301Y-159555702D01*
X136390610Y-159559678D01*
X136413749Y-159569936D01*
X136423632Y-159574910D01*
X136433940Y-159578886D01*
X136444046Y-159583366D01*
X136454553Y-159586837D01*
X136478172Y-159595948D01*
X136488279Y-159600428D01*
X136498780Y-159603897D01*
X136509103Y-159607879D01*
X136519763Y-159610829D01*
X136543783Y-159618764D01*
X136554103Y-159622745D01*
X136561384Y-159624760D01*
X133196050Y-159624760D01*
X133213045Y-159613404D01*
X133283386Y-159543063D01*
X133338652Y-159460352D01*
X133376720Y-159368448D01*
X133386655Y-159318500D01*
X133394658Y-159318500D01*
X133492223Y-159299093D01*
X133584127Y-159261025D01*
X133666838Y-159205759D01*
X133737179Y-159135418D01*
X133792445Y-159052707D01*
X133830513Y-158960803D01*
X133849920Y-158863238D01*
X133849920Y-158763762D01*
X133830513Y-158666197D01*
X133792445Y-158574293D01*
X133737179Y-158491582D01*
X133666838Y-158421241D01*
X133584127Y-158365975D01*
X133492223Y-158327907D01*
X133394658Y-158308500D01*
X133314165Y-158308500D01*
X133065067Y-158059402D01*
X133052550Y-158044150D01*
X133037298Y-158031633D01*
X133037290Y-158031625D01*
X132991642Y-157994163D01*
X132922154Y-157957021D01*
X132846753Y-157934148D01*
X132768340Y-157926425D01*
X132726458Y-157930550D01*
X131336535Y-157930550D01*
X131323360Y-157917375D01*
X131323360Y-157585540D01*
X131343360Y-157585540D01*
X131343360Y-157565540D01*
X131693360Y-157565540D01*
X131693360Y-157585540D01*
X132194610Y-157585540D01*
X132313360Y-157466790D01*
X132315658Y-157465540D01*
X132306487Y-157372424D01*
X132279326Y-157282886D01*
X132235219Y-157200367D01*
X132175861Y-157128039D01*
X132103533Y-157068681D01*
X132093608Y-157063376D01*
X132106546Y-157020725D01*
X132114690Y-156938040D01*
X132114690Y-156643040D01*
X132106546Y-156560355D01*
X132082428Y-156480847D01*
X132043262Y-156407573D01*
X131990553Y-156343347D01*
X131926327Y-156290638D01*
X131853053Y-156251472D01*
X131773545Y-156227354D01*
X131707145Y-156220814D01*
X131287510Y-155801180D01*
X131421582Y-155801180D01*
X131421582Y-155732432D01*
X131490330Y-155801180D01*
X131561475Y-155789443D01*
X131649645Y-155758127D01*
X131730012Y-155710211D01*
X131799487Y-155647537D01*
X131855399Y-155572513D01*
X131895601Y-155488024D01*
X131915194Y-155410570D01*
X132872820Y-155410570D01*
X132875852Y-155437954D01*
X132898799Y-155528664D01*
X132939001Y-155613153D01*
X132994913Y-155688177D01*
X133064388Y-155750851D01*
X133144755Y-155798767D01*
X133232925Y-155830083D01*
X133304070Y-155841820D01*
X133422820Y-155723070D01*
X133422820Y-155291820D01*
X133672820Y-155291820D01*
X133672820Y-155723070D01*
X133791570Y-155841820D01*
X133862715Y-155830083D01*
X133950885Y-155798767D01*
X134031252Y-155750851D01*
X134100727Y-155688177D01*
X134156639Y-155613153D01*
X134196841Y-155528664D01*
X134219788Y-155437954D01*
X134222820Y-155410570D01*
X134104070Y-155291820D01*
X133672820Y-155291820D01*
X133422820Y-155291820D01*
X132991570Y-155291820D01*
X132872820Y-155410570D01*
X131915194Y-155410570D01*
X131918548Y-155397314D01*
X131921580Y-155369930D01*
X131802830Y-155251180D01*
X131371580Y-155251180D01*
X131371580Y-155291180D01*
X131121580Y-155291180D01*
X131121580Y-155251180D01*
X131051580Y-155251180D01*
X131051580Y-154948732D01*
X131073162Y-154955279D01*
X131146580Y-154962510D01*
X131346580Y-154962510D01*
X131419998Y-154955279D01*
X131466477Y-154941180D01*
X131802830Y-154941180D01*
X131834344Y-154909666D01*
X131856342Y-154916339D01*
X131929760Y-154923570D01*
X132189760Y-154923570D01*
X132263178Y-154916339D01*
X132333775Y-154894924D01*
X132379760Y-154870344D01*
X132425745Y-154894924D01*
G37*
X132425745Y-154894924D02*
X132496342Y-154916339D01*
X132569760Y-154923570D01*
X132829760Y-154923570D01*
X132903178Y-154916339D01*
X132920757Y-154911007D01*
X132991570Y-154981820D01*
X133327923Y-154981820D01*
X133374402Y-154995919D01*
X133447820Y-155003150D01*
X133647820Y-155003150D01*
X133721238Y-154995919D01*
X133767717Y-154981820D01*
X134104070Y-154981820D01*
X134130951Y-154954939D01*
X134148034Y-154958776D01*
X134240952Y-154984490D01*
X134332473Y-155014724D01*
X134422421Y-155049421D01*
X134510542Y-155088482D01*
X134596671Y-155131836D01*
X134680535Y-155179345D01*
X134761978Y-155230917D01*
X134840791Y-155286423D01*
X134916793Y-155345735D01*
X134989805Y-155408717D01*
X135063612Y-155478987D01*
X135106542Y-155521917D01*
X135152297Y-155569974D01*
X135192044Y-155616052D01*
X135229489Y-155664034D01*
X135264531Y-155713789D01*
X135297081Y-155765192D01*
X135327078Y-155818145D01*
X135354440Y-155872503D01*
X135379102Y-155928138D01*
X135400999Y-155984903D01*
X135420092Y-156042700D01*
X135436317Y-156101333D01*
X135449652Y-156160713D01*
X135460055Y-156220669D01*
X135467505Y-156281072D01*
X135471981Y-156341747D01*
X135473610Y-156408087D01*
X135473611Y-158067802D01*
X135473204Y-158073319D01*
X135473611Y-158089911D01*
X135473611Y-158106486D01*
X135474152Y-158111984D01*
X135474928Y-158143612D01*
X135474657Y-158154672D01*
X135475470Y-158165692D01*
X135475741Y-158176744D01*
X135477095Y-158187727D01*
X135479830Y-158224793D01*
X135480101Y-158235847D01*
X135481454Y-158246818D01*
X135482268Y-158257850D01*
X135484159Y-158268748D01*
X135488707Y-158305620D01*
X135489521Y-158316653D01*
X135491412Y-158327553D01*
X135492766Y-158338527D01*
X135495189Y-158349318D01*
X135501541Y-158385920D01*
X135502895Y-158396901D01*
X135505320Y-158407702D01*
X135507209Y-158418586D01*
X135510155Y-158429231D01*
X135518300Y-158465505D01*
X135520190Y-158476397D01*
X135523138Y-158487050D01*
X135525562Y-158497845D01*
X135529032Y-158508349D01*
X135538943Y-158544165D01*
X135541366Y-158554953D01*
X135544833Y-158565447D01*
X135547783Y-158576108D01*
X135551764Y-158586429D01*
X135563421Y-158621715D01*
X135566370Y-158632370D01*
X135570349Y-158642685D01*
X135573819Y-158653189D01*
X135578301Y-158663300D01*
X135591676Y-158697975D01*
X135595144Y-158708471D01*
X135599622Y-158718574D01*
X135603604Y-158728896D01*
X135608579Y-158738780D01*
X135623633Y-158772742D01*
X135627615Y-158783064D01*
X135632591Y-158792948D01*
X135637070Y-158803054D01*
X135642519Y-158812673D01*
X135659225Y-158845860D01*
X135663708Y-158855975D01*
X135669163Y-158865604D01*
X135674131Y-158875474D01*
X135680043Y-158884811D01*
X135698367Y-158917156D01*
X135703340Y-158927036D01*
X135709254Y-158936375D01*
X135714702Y-158945992D01*
X135721071Y-158955036D01*
X135740952Y-158986431D01*
X135746402Y-158996051D01*
X135752772Y-159005096D01*
X135758690Y-159014441D01*
X135765492Y-159023157D01*
X135786886Y-159053534D01*
X135792803Y-159062878D01*
X135799608Y-159071598D01*
X135805974Y-159080637D01*
X135813195Y-159089009D01*
X135836062Y-159118310D01*
X135842428Y-159127349D01*
X135849647Y-159135718D01*
X135856453Y-159144439D01*
X135864084Y-159152454D01*
X135888354Y-159180589D01*
X135895154Y-159189303D01*
X135902777Y-159197310D01*
X135910004Y-159205688D01*
X135918013Y-159213313D01*
X135939824Y-159236223D01*
X135943335Y-159240501D01*
X135955056Y-159252222D01*
X135966492Y-159264234D01*
X135966553Y-159264286D01*
X135966605Y-159264347D01*
X135978630Y-159275796D01*
X135990345Y-159287511D01*
X135994615Y-159291016D01*
X136008953Y-159304667D01*
X136016578Y-159312675D01*
X136024943Y-159319891D01*
X136032950Y-159327514D01*
X136041675Y-159334323D01*
X136060842Y-159350857D01*
X136068848Y-159358479D01*
X136077568Y-159365284D01*
X136085946Y-159372511D01*
X136094986Y-159378877D01*
X136114935Y-159394446D01*
X136123312Y-159401672D01*
X136132352Y-159408038D01*
X136141067Y-159414840D01*
X136150411Y-159420757D01*
X136171118Y-159435341D01*
X136179826Y-159442136D01*
X136189156Y-159448044D01*
X136198209Y-159454420D01*
X136207840Y-159459876D01*
X136229213Y-159473411D01*
X136238250Y-159479775D01*
X136247871Y-159485226D01*
X136257222Y-159491147D01*
X136267099Y-159496119D01*
X136289116Y-159508592D01*
X136298472Y-159514516D01*
X136308346Y-159519486D01*
X136317956Y-159524930D01*
X136328073Y-159529415D01*
X136350686Y-159540796D01*
X136360299Y-159546242D01*
X136370417Y-159550727D01*
X136380301Y-159555702D01*
X136390610Y-159559678D01*
X136413749Y-159569936D01*
X136423632Y-159574910D01*
X136433940Y-159578886D01*
X136444046Y-159583366D01*
X136454553Y-159586837D01*
X136478172Y-159595948D01*
X136488279Y-159600428D01*
X136498780Y-159603897D01*
X136509103Y-159607879D01*
X136519763Y-159610829D01*
X136543783Y-159618764D01*
X136554103Y-159622745D01*
X136561384Y-159624760D01*
X133196050Y-159624760D01*
X133213045Y-159613404D01*
X133283386Y-159543063D01*
X133338652Y-159460352D01*
X133376720Y-159368448D01*
X133386655Y-159318500D01*
X133394658Y-159318500D01*
X133492223Y-159299093D01*
X133584127Y-159261025D01*
X133666838Y-159205759D01*
X133737179Y-159135418D01*
X133792445Y-159052707D01*
X133830513Y-158960803D01*
X133849920Y-158863238D01*
X133849920Y-158763762D01*
X133830513Y-158666197D01*
X133792445Y-158574293D01*
X133737179Y-158491582D01*
X133666838Y-158421241D01*
X133584127Y-158365975D01*
X133492223Y-158327907D01*
X133394658Y-158308500D01*
X133314165Y-158308500D01*
X133065067Y-158059402D01*
X133052550Y-158044150D01*
X133037298Y-158031633D01*
X133037290Y-158031625D01*
X132991642Y-157994163D01*
X132922154Y-157957021D01*
X132846753Y-157934148D01*
X132768340Y-157926425D01*
X132726458Y-157930550D01*
X131336535Y-157930550D01*
X131323360Y-157917375D01*
X131323360Y-157585540D01*
X131343360Y-157585540D01*
X131343360Y-157565540D01*
X131693360Y-157565540D01*
X131693360Y-157585540D01*
X132194610Y-157585540D01*
X132313360Y-157466790D01*
X132315658Y-157465540D01*
X132306487Y-157372424D01*
X132279326Y-157282886D01*
X132235219Y-157200367D01*
X132175861Y-157128039D01*
X132103533Y-157068681D01*
X132093608Y-157063376D01*
X132106546Y-157020725D01*
X132114690Y-156938040D01*
X132114690Y-156643040D01*
X132106546Y-156560355D01*
X132082428Y-156480847D01*
X132043262Y-156407573D01*
X131990553Y-156343347D01*
X131926327Y-156290638D01*
X131853053Y-156251472D01*
X131773545Y-156227354D01*
X131707145Y-156220814D01*
X131287510Y-155801180D01*
X131421582Y-155801180D01*
X131421582Y-155732432D01*
X131490330Y-155801180D01*
X131561475Y-155789443D01*
X131649645Y-155758127D01*
X131730012Y-155710211D01*
X131799487Y-155647537D01*
X131855399Y-155572513D01*
X131895601Y-155488024D01*
X131915194Y-155410570D01*
X132872820Y-155410570D01*
X132875852Y-155437954D01*
X132898799Y-155528664D01*
X132939001Y-155613153D01*
X132994913Y-155688177D01*
X133064388Y-155750851D01*
X133144755Y-155798767D01*
X133232925Y-155830083D01*
X133304070Y-155841820D01*
X133422820Y-155723070D01*
X133422820Y-155291820D01*
X133672820Y-155291820D01*
X133672820Y-155723070D01*
X133791570Y-155841820D01*
X133862715Y-155830083D01*
X133950885Y-155798767D01*
X134031252Y-155750851D01*
X134100727Y-155688177D01*
X134156639Y-155613153D01*
X134196841Y-155528664D01*
X134219788Y-155437954D01*
X134222820Y-155410570D01*
X134104070Y-155291820D01*
X133672820Y-155291820D01*
X133422820Y-155291820D01*
X132991570Y-155291820D01*
X132872820Y-155410570D01*
X131915194Y-155410570D01*
X131918548Y-155397314D01*
X131921580Y-155369930D01*
X131802830Y-155251180D01*
X131371580Y-155251180D01*
X131371580Y-155291180D01*
X131121580Y-155291180D01*
X131121580Y-155251180D01*
X131051580Y-155251180D01*
X131051580Y-154948732D01*
X131073162Y-154955279D01*
X131146580Y-154962510D01*
X131346580Y-154962510D01*
X131419998Y-154955279D01*
X131466477Y-154941180D01*
X131802830Y-154941180D01*
X131834344Y-154909666D01*
X131856342Y-154916339D01*
X131929760Y-154923570D01*
X132189760Y-154923570D01*
X132263178Y-154916339D01*
X132333775Y-154894924D01*
X132379760Y-154870344D01*
X132425745Y-154894924D01*
G36*
X126565309Y-158601635D02*
G01*
X126638104Y-158631788D01*
X126715383Y-158647160D01*
X126794177Y-158647160D01*
X126871456Y-158631788D01*
X126879780Y-158628340D01*
X126879780Y-158746369D01*
X126872470Y-158745560D01*
X126753720Y-158864310D01*
X126753720Y-159200663D01*
X126739621Y-159247142D01*
X126732390Y-159320560D01*
X126732390Y-159520560D01*
X126739621Y-159593978D01*
X126746167Y-159615560D01*
X126443720Y-159615560D01*
X126443720Y-159545560D01*
X126012470Y-159545560D01*
X125933270Y-159624760D01*
X124918844Y-159624760D01*
X124931440Y-159594350D01*
X124948129Y-159510451D01*
X125281770Y-159176810D01*
X125893720Y-159176810D01*
X126012470Y-159295560D01*
X126443720Y-159295560D01*
X126443720Y-158864310D01*
X126324970Y-158745560D01*
X126297586Y-158748592D01*
X126206876Y-158771539D01*
X126122387Y-158811741D01*
X126047363Y-158867653D01*
X125984689Y-158937128D01*
X125936773Y-159017495D01*
X125905457Y-159105665D01*
X125893720Y-159176810D01*
X125281770Y-159176810D01*
X125523733Y-158934847D01*
X125538991Y-158922325D01*
X125552245Y-158906176D01*
X125588977Y-158861417D01*
X125589438Y-158860555D01*
X125626120Y-158791928D01*
X125648992Y-158716528D01*
X125654231Y-158663337D01*
X125656715Y-158638115D01*
X125656451Y-158635438D01*
X125715383Y-158647160D01*
X125794177Y-158647160D01*
X125871456Y-158631788D01*
X125944251Y-158601635D01*
X126004780Y-158561191D01*
X126065309Y-158601635D01*
X126138104Y-158631788D01*
X126215383Y-158647160D01*
X126294177Y-158647160D01*
X126371456Y-158631788D01*
X126444251Y-158601635D01*
X126504780Y-158561191D01*
X126565309Y-158601635D01*
G37*
X126565309Y-158601635D02*
X126638104Y-158631788D01*
X126715383Y-158647160D01*
X126794177Y-158647160D01*
X126871456Y-158631788D01*
X126879780Y-158628340D01*
X126879780Y-158746369D01*
X126872470Y-158745560D01*
X126753720Y-158864310D01*
X126753720Y-159200663D01*
X126739621Y-159247142D01*
X126732390Y-159320560D01*
X126732390Y-159520560D01*
X126739621Y-159593978D01*
X126746167Y-159615560D01*
X126443720Y-159615560D01*
X126443720Y-159545560D01*
X126012470Y-159545560D01*
X125933270Y-159624760D01*
X124918844Y-159624760D01*
X124931440Y-159594350D01*
X124948129Y-159510451D01*
X125281770Y-159176810D01*
X125893720Y-159176810D01*
X126012470Y-159295560D01*
X126443720Y-159295560D01*
X126443720Y-158864310D01*
X126324970Y-158745560D01*
X126297586Y-158748592D01*
X126206876Y-158771539D01*
X126122387Y-158811741D01*
X126047363Y-158867653D01*
X125984689Y-158937128D01*
X125936773Y-159017495D01*
X125905457Y-159105665D01*
X125893720Y-159176810D01*
X125281770Y-159176810D01*
X125523733Y-158934847D01*
X125538991Y-158922325D01*
X125552245Y-158906176D01*
X125588977Y-158861417D01*
X125589438Y-158860555D01*
X125626120Y-158791928D01*
X125648992Y-158716528D01*
X125654231Y-158663337D01*
X125656715Y-158638115D01*
X125656451Y-158635438D01*
X125715383Y-158647160D01*
X125794177Y-158647160D01*
X125871456Y-158631788D01*
X125944251Y-158601635D01*
X126004780Y-158561191D01*
X126065309Y-158601635D01*
X126138104Y-158631788D01*
X126215383Y-158647160D01*
X126294177Y-158647160D01*
X126371456Y-158631788D01*
X126444251Y-158601635D01*
X126504780Y-158561191D01*
X126565309Y-158601635D01*
G36*
X130152001Y-158402553D02*
G01*
X130189143Y-158472041D01*
X130226605Y-158517689D01*
X130226608Y-158517692D01*
X130239130Y-158532950D01*
X130254387Y-158545471D01*
X130748188Y-159039273D01*
X130760710Y-159054531D01*
X130775968Y-159067053D01*
X130775970Y-159067055D01*
X130821618Y-159104517D01*
X130891106Y-159141660D01*
X130957102Y-159161679D01*
X130966507Y-159164532D01*
X131011710Y-159168984D01*
X131044921Y-159172255D01*
X131064567Y-159170320D01*
X131562839Y-159170320D01*
X131538495Y-159206753D01*
X131500427Y-159298657D01*
X131481020Y-159396222D01*
X131481020Y-159495698D01*
X131500427Y-159593263D01*
X131513474Y-159624760D01*
X130497510Y-159624760D01*
X130387830Y-159515080D01*
X129956580Y-159515080D01*
X129956580Y-159585080D01*
X129654132Y-159585080D01*
X129660679Y-159563498D01*
X129667910Y-159490080D01*
X129667910Y-159290080D01*
X129660679Y-159216662D01*
X129654132Y-159195080D01*
X129956580Y-159195080D01*
X129956580Y-159265080D01*
X130387830Y-159265080D01*
X130506580Y-159146330D01*
X130494843Y-159075185D01*
X130463527Y-158987015D01*
X130415611Y-158906648D01*
X130352937Y-158837173D01*
X130277913Y-158781261D01*
X130193424Y-158741059D01*
X130102714Y-158718112D01*
X130075330Y-158715080D01*
X129976582Y-158813828D01*
X129976582Y-158732464D01*
X130006919Y-158702127D01*
X130021228Y-158690384D01*
X130050323Y-158654931D01*
X130068089Y-158633284D01*
X130102910Y-158568138D01*
X130103715Y-158565485D01*
X130124354Y-158497448D01*
X130129780Y-158442354D01*
X130129780Y-158442353D01*
X130131594Y-158423937D01*
X130129780Y-158405521D01*
X130129780Y-158387080D01*
X130139408Y-158363836D01*
X130139744Y-158362147D01*
X130152001Y-158402553D01*
G37*
X130152001Y-158402553D02*
X130189143Y-158472041D01*
X130226605Y-158517689D01*
X130226608Y-158517692D01*
X130239130Y-158532950D01*
X130254387Y-158545471D01*
X130748188Y-159039273D01*
X130760710Y-159054531D01*
X130775968Y-159067053D01*
X130775970Y-159067055D01*
X130821618Y-159104517D01*
X130891106Y-159141660D01*
X130957102Y-159161679D01*
X130966507Y-159164532D01*
X131011710Y-159168984D01*
X131044921Y-159172255D01*
X131064567Y-159170320D01*
X131562839Y-159170320D01*
X131538495Y-159206753D01*
X131500427Y-159298657D01*
X131481020Y-159396222D01*
X131481020Y-159495698D01*
X131500427Y-159593263D01*
X131513474Y-159624760D01*
X130497510Y-159624760D01*
X130387830Y-159515080D01*
X129956580Y-159515080D01*
X129956580Y-159585080D01*
X129654132Y-159585080D01*
X129660679Y-159563498D01*
X129667910Y-159490080D01*
X129667910Y-159290080D01*
X129660679Y-159216662D01*
X129654132Y-159195080D01*
X129956580Y-159195080D01*
X129956580Y-159265080D01*
X130387830Y-159265080D01*
X130506580Y-159146330D01*
X130494843Y-159075185D01*
X130463527Y-158987015D01*
X130415611Y-158906648D01*
X130352937Y-158837173D01*
X130277913Y-158781261D01*
X130193424Y-158741059D01*
X130102714Y-158718112D01*
X130075330Y-158715080D01*
X129976582Y-158813828D01*
X129976582Y-158732464D01*
X130006919Y-158702127D01*
X130021228Y-158690384D01*
X130050323Y-158654931D01*
X130068089Y-158633284D01*
X130102910Y-158568138D01*
X130103715Y-158565485D01*
X130124354Y-158497448D01*
X130129780Y-158442354D01*
X130129780Y-158442353D01*
X130131594Y-158423937D01*
X130129780Y-158405521D01*
X130129780Y-158387080D01*
X130139408Y-158363836D01*
X130139744Y-158362147D01*
X130152001Y-158402553D01*
G36*
X121884020Y-157679660D02*
G01*
X121904020Y-157679660D01*
X121904020Y-158029660D01*
X121884020Y-158029660D01*
X121884020Y-158530910D01*
X121896720Y-158543610D01*
X121896720Y-158662640D01*
X121916720Y-158662640D01*
X121916720Y-159012640D01*
X121896720Y-159012640D01*
X121896720Y-159032640D01*
X121546720Y-159032640D01*
X121546720Y-159012640D01*
X121526720Y-159012640D01*
X121526720Y-158662640D01*
X121546720Y-158662640D01*
X121546720Y-158161390D01*
X121534020Y-158148690D01*
X121534020Y-158029660D01*
X121514020Y-158029660D01*
X121514020Y-157679660D01*
X121534020Y-157679660D01*
X121534020Y-157659660D01*
X121884020Y-157659660D01*
X121884020Y-157679660D01*
G37*
X121884020Y-157679660D02*
X121904020Y-157679660D01*
X121904020Y-158029660D01*
X121884020Y-158029660D01*
X121884020Y-158530910D01*
X121896720Y-158543610D01*
X121896720Y-158662640D01*
X121916720Y-158662640D01*
X121916720Y-159012640D01*
X121896720Y-159012640D01*
X121896720Y-159032640D01*
X121546720Y-159032640D01*
X121546720Y-159012640D01*
X121526720Y-159012640D01*
X121526720Y-158662640D01*
X121546720Y-158662640D01*
X121546720Y-158161390D01*
X121534020Y-158148690D01*
X121534020Y-158029660D01*
X121514020Y-158029660D01*
X121514020Y-157679660D01*
X121534020Y-157679660D01*
X121534020Y-157659660D01*
X121884020Y-157659660D01*
X121884020Y-157679660D01*
G36*
X135676515Y-151334825D02*
G01*
X135733542Y-151381627D01*
X135798605Y-151416404D01*
X135869202Y-151437819D01*
X135942620Y-151445050D01*
X136094355Y-151445050D01*
X136098589Y-151452152D01*
X136152172Y-151511550D01*
X136079464Y-151620365D01*
X135999194Y-151814155D01*
X135958272Y-152019882D01*
X135958272Y-152229638D01*
X135999194Y-152435365D01*
X136079464Y-152629155D01*
X136195999Y-152803561D01*
X136344319Y-152951881D01*
X136518725Y-153068416D01*
X136712515Y-153148686D01*
X136918242Y-153189608D01*
X137127998Y-153189608D01*
X137333725Y-153148686D01*
X137515271Y-153073488D01*
X137511741Y-157174570D01*
X137333725Y-157100834D01*
X137127998Y-157059912D01*
X136918242Y-157059912D01*
X136712515Y-157100834D01*
X136518725Y-157181104D01*
X136373610Y-157278067D01*
X136373610Y-156419159D01*
X136374017Y-156413642D01*
X136373610Y-156397070D01*
X136373610Y-156380485D01*
X136373067Y-156374975D01*
X136371709Y-156319659D01*
X136371980Y-156308609D01*
X136371167Y-156297581D01*
X136370895Y-156286525D01*
X136369541Y-156275550D01*
X136365065Y-156214857D01*
X136364793Y-156203796D01*
X136363439Y-156192820D01*
X136362626Y-156181796D01*
X136360736Y-156170902D01*
X136353286Y-156110502D01*
X136352472Y-156099472D01*
X136350581Y-156088571D01*
X136349227Y-156077597D01*
X136346805Y-156066813D01*
X136336400Y-156006841D01*
X136335046Y-155995868D01*
X136332625Y-155985087D01*
X136330734Y-155974188D01*
X136327783Y-155963524D01*
X136314448Y-155904141D01*
X136312558Y-155893249D01*
X136309611Y-155882598D01*
X136307186Y-155871801D01*
X136303715Y-155861295D01*
X136287485Y-155802645D01*
X136285062Y-155791856D01*
X136281594Y-155781359D01*
X136278644Y-155770698D01*
X136274662Y-155760376D01*
X136255573Y-155702593D01*
X136252623Y-155691933D01*
X136248644Y-155681618D01*
X136245175Y-155671117D01*
X136240692Y-155661003D01*
X136218794Y-155604234D01*
X136215321Y-155593722D01*
X136210835Y-155583603D01*
X136206860Y-155573297D01*
X136201892Y-155563426D01*
X136177226Y-155507783D01*
X136173245Y-155497462D01*
X136168271Y-155487581D01*
X136163791Y-155477474D01*
X136158341Y-155467854D01*
X136130980Y-155413497D01*
X136126497Y-155403384D01*
X136121042Y-155393755D01*
X136116073Y-155383883D01*
X136110160Y-155374544D01*
X136080163Y-155321593D01*
X136075189Y-155311711D01*
X136069268Y-155302361D01*
X136063822Y-155292747D01*
X136057458Y-155283711D01*
X136024892Y-155232282D01*
X136019443Y-155222664D01*
X136013080Y-155213629D01*
X136007161Y-155204282D01*
X136000354Y-155195560D01*
X135965316Y-155145809D01*
X135959395Y-155136459D01*
X135952587Y-155127736D01*
X135946225Y-155118702D01*
X135939005Y-155110332D01*
X135901560Y-155062351D01*
X135895192Y-155053309D01*
X135887967Y-155044934D01*
X135881164Y-155036216D01*
X135873540Y-155028209D01*
X135833784Y-154982120D01*
X135826981Y-154973403D01*
X135819359Y-154965397D01*
X135812136Y-154957024D01*
X135804122Y-154949394D01*
X135765974Y-154909326D01*
X135762463Y-154905048D01*
X135750728Y-154893313D01*
X135739301Y-154881311D01*
X135735116Y-154877701D01*
X135707824Y-154850409D01*
X135704208Y-154846217D01*
X135692190Y-154834775D01*
X135680473Y-154823058D01*
X135676199Y-154819550D01*
X135610381Y-154756887D01*
X135602752Y-154748874D01*
X135594372Y-154741645D01*
X135586367Y-154734024D01*
X135577655Y-154727225D01*
X135504647Y-154664247D01*
X135496639Y-154656623D01*
X135487926Y-154649823D01*
X135479551Y-154642599D01*
X135470505Y-154636228D01*
X135394498Y-154576912D01*
X135386131Y-154569695D01*
X135377096Y-154563332D01*
X135368370Y-154556522D01*
X135359022Y-154550603D01*
X135280211Y-154495097D01*
X135271489Y-154488290D01*
X135262144Y-154482372D01*
X135253106Y-154476007D01*
X135243485Y-154470557D01*
X135162029Y-154418975D01*
X135152988Y-154412608D01*
X135143371Y-154407160D01*
X135134027Y-154401243D01*
X135124145Y-154396269D01*
X135040262Y-154348750D01*
X135030920Y-154342834D01*
X135021043Y-154337862D01*
X135011420Y-154332411D01*
X135001310Y-154327930D01*
X134915200Y-154284585D01*
X134905575Y-154279133D01*
X134895463Y-154274650D01*
X134885588Y-154269680D01*
X134875274Y-154265701D01*
X134787130Y-154226629D01*
X134777255Y-154221659D01*
X134766943Y-154217681D01*
X134756829Y-154213198D01*
X134746323Y-154209727D01*
X134656375Y-154175031D01*
X134646269Y-154170551D01*
X134635772Y-154167083D01*
X134625451Y-154163102D01*
X134614789Y-154160151D01*
X134554488Y-154140231D01*
X134569685Y-154117487D01*
X134607753Y-154025583D01*
X134627160Y-153928018D01*
X134627160Y-153828542D01*
X134607753Y-153730977D01*
X134569685Y-153639073D01*
X134514419Y-153556362D01*
X134444078Y-153486021D01*
X134361367Y-153430755D01*
X134269463Y-153392687D01*
X134171898Y-153373280D01*
X134072422Y-153373280D01*
X134067895Y-153374180D01*
X134058463Y-153317005D01*
X134027147Y-153228835D01*
X133979231Y-153148468D01*
X133916557Y-153078993D01*
X133875627Y-153048490D01*
X133942980Y-153048490D01*
X133996889Y-153043180D01*
X134041942Y-153029514D01*
X134046121Y-153037333D01*
X134105479Y-153109661D01*
X134177807Y-153169019D01*
X134260326Y-153213126D01*
X134349864Y-153240287D01*
X134442980Y-153249458D01*
X134599230Y-153247160D01*
X134717980Y-153128410D01*
X134717980Y-152547160D01*
X135067980Y-152547160D01*
X135067980Y-153128410D01*
X135186730Y-153247160D01*
X135342980Y-153249458D01*
X135436096Y-153240287D01*
X135525634Y-153213126D01*
X135608153Y-153169019D01*
X135680481Y-153109661D01*
X135739839Y-153037333D01*
X135783946Y-152954814D01*
X135811107Y-152865276D01*
X135820278Y-152772160D01*
X135817980Y-152665910D01*
X135699230Y-152547160D01*
X135067980Y-152547160D01*
X134717980Y-152547160D01*
X134697980Y-152547160D01*
X134697980Y-152197160D01*
X134717980Y-152197160D01*
X134717980Y-152177160D01*
X135067980Y-152177160D01*
X135067980Y-152197160D01*
X135699230Y-152197160D01*
X135817980Y-152078410D01*
X135820278Y-151972160D01*
X135811107Y-151879044D01*
X135783946Y-151789506D01*
X135739839Y-151706987D01*
X135680481Y-151634659D01*
X135619310Y-151584457D01*
X135619310Y-151307220D01*
X135653860Y-151307220D01*
X135676515Y-151334825D01*
G37*
X135676515Y-151334825D02*
X135733542Y-151381627D01*
X135798605Y-151416404D01*
X135869202Y-151437819D01*
X135942620Y-151445050D01*
X136094355Y-151445050D01*
X136098589Y-151452152D01*
X136152172Y-151511550D01*
X136079464Y-151620365D01*
X135999194Y-151814155D01*
X135958272Y-152019882D01*
X135958272Y-152229638D01*
X135999194Y-152435365D01*
X136079464Y-152629155D01*
X136195999Y-152803561D01*
X136344319Y-152951881D01*
X136518725Y-153068416D01*
X136712515Y-153148686D01*
X136918242Y-153189608D01*
X137127998Y-153189608D01*
X137333725Y-153148686D01*
X137515271Y-153073488D01*
X137511741Y-157174570D01*
X137333725Y-157100834D01*
X137127998Y-157059912D01*
X136918242Y-157059912D01*
X136712515Y-157100834D01*
X136518725Y-157181104D01*
X136373610Y-157278067D01*
X136373610Y-156419159D01*
X136374017Y-156413642D01*
X136373610Y-156397070D01*
X136373610Y-156380485D01*
X136373067Y-156374975D01*
X136371709Y-156319659D01*
X136371980Y-156308609D01*
X136371167Y-156297581D01*
X136370895Y-156286525D01*
X136369541Y-156275550D01*
X136365065Y-156214857D01*
X136364793Y-156203796D01*
X136363439Y-156192820D01*
X136362626Y-156181796D01*
X136360736Y-156170902D01*
X136353286Y-156110502D01*
X136352472Y-156099472D01*
X136350581Y-156088571D01*
X136349227Y-156077597D01*
X136346805Y-156066813D01*
X136336400Y-156006841D01*
X136335046Y-155995868D01*
X136332625Y-155985087D01*
X136330734Y-155974188D01*
X136327783Y-155963524D01*
X136314448Y-155904141D01*
X136312558Y-155893249D01*
X136309611Y-155882598D01*
X136307186Y-155871801D01*
X136303715Y-155861295D01*
X136287485Y-155802645D01*
X136285062Y-155791856D01*
X136281594Y-155781359D01*
X136278644Y-155770698D01*
X136274662Y-155760376D01*
X136255573Y-155702593D01*
X136252623Y-155691933D01*
X136248644Y-155681618D01*
X136245175Y-155671117D01*
X136240692Y-155661003D01*
X136218794Y-155604234D01*
X136215321Y-155593722D01*
X136210835Y-155583603D01*
X136206860Y-155573297D01*
X136201892Y-155563426D01*
X136177226Y-155507783D01*
X136173245Y-155497462D01*
X136168271Y-155487581D01*
X136163791Y-155477474D01*
X136158341Y-155467854D01*
X136130980Y-155413497D01*
X136126497Y-155403384D01*
X136121042Y-155393755D01*
X136116073Y-155383883D01*
X136110160Y-155374544D01*
X136080163Y-155321593D01*
X136075189Y-155311711D01*
X136069268Y-155302361D01*
X136063822Y-155292747D01*
X136057458Y-155283711D01*
X136024892Y-155232282D01*
X136019443Y-155222664D01*
X136013080Y-155213629D01*
X136007161Y-155204282D01*
X136000354Y-155195560D01*
X135965316Y-155145809D01*
X135959395Y-155136459D01*
X135952587Y-155127736D01*
X135946225Y-155118702D01*
X135939005Y-155110332D01*
X135901560Y-155062351D01*
X135895192Y-155053309D01*
X135887967Y-155044934D01*
X135881164Y-155036216D01*
X135873540Y-155028209D01*
X135833784Y-154982120D01*
X135826981Y-154973403D01*
X135819359Y-154965397D01*
X135812136Y-154957024D01*
X135804122Y-154949394D01*
X135765974Y-154909326D01*
X135762463Y-154905048D01*
X135750728Y-154893313D01*
X135739301Y-154881311D01*
X135735116Y-154877701D01*
X135707824Y-154850409D01*
X135704208Y-154846217D01*
X135692190Y-154834775D01*
X135680473Y-154823058D01*
X135676199Y-154819550D01*
X135610381Y-154756887D01*
X135602752Y-154748874D01*
X135594372Y-154741645D01*
X135586367Y-154734024D01*
X135577655Y-154727225D01*
X135504647Y-154664247D01*
X135496639Y-154656623D01*
X135487926Y-154649823D01*
X135479551Y-154642599D01*
X135470505Y-154636228D01*
X135394498Y-154576912D01*
X135386131Y-154569695D01*
X135377096Y-154563332D01*
X135368370Y-154556522D01*
X135359022Y-154550603D01*
X135280211Y-154495097D01*
X135271489Y-154488290D01*
X135262144Y-154482372D01*
X135253106Y-154476007D01*
X135243485Y-154470557D01*
X135162029Y-154418975D01*
X135152988Y-154412608D01*
X135143371Y-154407160D01*
X135134027Y-154401243D01*
X135124145Y-154396269D01*
X135040262Y-154348750D01*
X135030920Y-154342834D01*
X135021043Y-154337862D01*
X135011420Y-154332411D01*
X135001310Y-154327930D01*
X134915200Y-154284585D01*
X134905575Y-154279133D01*
X134895463Y-154274650D01*
X134885588Y-154269680D01*
X134875274Y-154265701D01*
X134787130Y-154226629D01*
X134777255Y-154221659D01*
X134766943Y-154217681D01*
X134756829Y-154213198D01*
X134746323Y-154209727D01*
X134656375Y-154175031D01*
X134646269Y-154170551D01*
X134635772Y-154167083D01*
X134625451Y-154163102D01*
X134614789Y-154160151D01*
X134554488Y-154140231D01*
X134569685Y-154117487D01*
X134607753Y-154025583D01*
X134627160Y-153928018D01*
X134627160Y-153828542D01*
X134607753Y-153730977D01*
X134569685Y-153639073D01*
X134514419Y-153556362D01*
X134444078Y-153486021D01*
X134361367Y-153430755D01*
X134269463Y-153392687D01*
X134171898Y-153373280D01*
X134072422Y-153373280D01*
X134067895Y-153374180D01*
X134058463Y-153317005D01*
X134027147Y-153228835D01*
X133979231Y-153148468D01*
X133916557Y-153078993D01*
X133875627Y-153048490D01*
X133942980Y-153048490D01*
X133996889Y-153043180D01*
X134041942Y-153029514D01*
X134046121Y-153037333D01*
X134105479Y-153109661D01*
X134177807Y-153169019D01*
X134260326Y-153213126D01*
X134349864Y-153240287D01*
X134442980Y-153249458D01*
X134599230Y-153247160D01*
X134717980Y-153128410D01*
X134717980Y-152547160D01*
X135067980Y-152547160D01*
X135067980Y-153128410D01*
X135186730Y-153247160D01*
X135342980Y-153249458D01*
X135436096Y-153240287D01*
X135525634Y-153213126D01*
X135608153Y-153169019D01*
X135680481Y-153109661D01*
X135739839Y-153037333D01*
X135783946Y-152954814D01*
X135811107Y-152865276D01*
X135820278Y-152772160D01*
X135817980Y-152665910D01*
X135699230Y-152547160D01*
X135067980Y-152547160D01*
X134717980Y-152547160D01*
X134697980Y-152547160D01*
X134697980Y-152197160D01*
X134717980Y-152197160D01*
X134717980Y-152177160D01*
X135067980Y-152177160D01*
X135067980Y-152197160D01*
X135699230Y-152197160D01*
X135817980Y-152078410D01*
X135820278Y-151972160D01*
X135811107Y-151879044D01*
X135783946Y-151789506D01*
X135739839Y-151706987D01*
X135680481Y-151634659D01*
X135619310Y-151584457D01*
X135619310Y-151307220D01*
X135653860Y-151307220D01*
X135676515Y-151334825D01*
G36*
X121876400Y-156142960D02*
G01*
X121896400Y-156142960D01*
X121896400Y-156492960D01*
X121876400Y-156492960D01*
X121876400Y-156512960D01*
X121526400Y-156512960D01*
X121526400Y-156492960D01*
X121506400Y-156492960D01*
X121506400Y-156142960D01*
X121526400Y-156142960D01*
X121526400Y-156122960D01*
X121876400Y-156122960D01*
X121876400Y-156142960D01*
G37*
X121876400Y-156142960D02*
X121896400Y-156142960D01*
X121896400Y-156492960D01*
X121876400Y-156492960D01*
X121876400Y-156512960D01*
X121526400Y-156512960D01*
X121526400Y-156492960D01*
X121506400Y-156492960D01*
X121506400Y-156142960D01*
X121526400Y-156142960D01*
X121526400Y-156122960D01*
X121876400Y-156122960D01*
X121876400Y-156142960D01*
G36*
X123370152Y-153630484D02*
G01*
X123354780Y-153707763D01*
X123354780Y-153786557D01*
X123370152Y-153863836D01*
X123400305Y-153936631D01*
X123440749Y-153997160D01*
X123400305Y-154057689D01*
X123370152Y-154130484D01*
X123354780Y-154207763D01*
X123354780Y-154286557D01*
X123370152Y-154363836D01*
X123400305Y-154436631D01*
X123440749Y-154497160D01*
X123400305Y-154557689D01*
X123370152Y-154630484D01*
X123354780Y-154707763D01*
X123354780Y-154719245D01*
X123322077Y-154697393D01*
X123230173Y-154659325D01*
X123132608Y-154639918D01*
X123033132Y-154639918D01*
X122935567Y-154659325D01*
X122843663Y-154697393D01*
X122760952Y-154752659D01*
X122690611Y-154823000D01*
X122635345Y-154905711D01*
X122597277Y-154997615D01*
X122577870Y-155095180D01*
X122577870Y-155194656D01*
X122597277Y-155292221D01*
X122635345Y-155384125D01*
X122690611Y-155466836D01*
X122707871Y-155484096D01*
X122707870Y-155721630D01*
X122523900Y-155721630D01*
X122441215Y-155729774D01*
X122398564Y-155742712D01*
X122393259Y-155732787D01*
X122372343Y-155707301D01*
X122394776Y-155692312D01*
X122465117Y-155621971D01*
X122520383Y-155539260D01*
X122558451Y-155447356D01*
X122577858Y-155349791D01*
X122577858Y-155250315D01*
X122558451Y-155152750D01*
X122520383Y-155060846D01*
X122465117Y-154978135D01*
X122394776Y-154907794D01*
X122312065Y-154852528D01*
X122220161Y-154814460D01*
X122122596Y-154795053D01*
X122023120Y-154795053D01*
X121925555Y-154814460D01*
X121833651Y-154852528D01*
X121750940Y-154907794D01*
X121680599Y-154978135D01*
X121625333Y-155060846D01*
X121587265Y-155152750D01*
X121567858Y-155250315D01*
X121567858Y-155349791D01*
X121587265Y-155447356D01*
X121618581Y-155522960D01*
X121526398Y-155522960D01*
X121526398Y-155641708D01*
X121407650Y-155522960D01*
X121406400Y-155520662D01*
X121353403Y-155525882D01*
X121361745Y-154475491D01*
X121382447Y-154490919D01*
X121466936Y-154531121D01*
X121557646Y-154554068D01*
X121585030Y-154557100D01*
X121703780Y-154438350D01*
X121703780Y-154007100D01*
X121663780Y-154007100D01*
X121663780Y-153757100D01*
X121703780Y-153757100D01*
X121703780Y-153687100D01*
X122006228Y-153687100D01*
X121999681Y-153708682D01*
X121992450Y-153782100D01*
X121992450Y-153982100D01*
X121999681Y-154055518D01*
X122013780Y-154101997D01*
X122013780Y-154438350D01*
X122132530Y-154557100D01*
X122159914Y-154554068D01*
X122250624Y-154531121D01*
X122335113Y-154490919D01*
X122410137Y-154435007D01*
X122472811Y-154365532D01*
X122477045Y-154358430D01*
X122628780Y-154358430D01*
X122702198Y-154351199D01*
X122772795Y-154329784D01*
X122837858Y-154295007D01*
X122894885Y-154248205D01*
X122941687Y-154191178D01*
X122976464Y-154126115D01*
X122997879Y-154055518D01*
X123005110Y-153982100D01*
X123005110Y-153975540D01*
X123384284Y-153596367D01*
X123370152Y-153630484D01*
G37*
X123370152Y-153630484D02*
X123354780Y-153707763D01*
X123354780Y-153786557D01*
X123370152Y-153863836D01*
X123400305Y-153936631D01*
X123440749Y-153997160D01*
X123400305Y-154057689D01*
X123370152Y-154130484D01*
X123354780Y-154207763D01*
X123354780Y-154286557D01*
X123370152Y-154363836D01*
X123400305Y-154436631D01*
X123440749Y-154497160D01*
X123400305Y-154557689D01*
X123370152Y-154630484D01*
X123354780Y-154707763D01*
X123354780Y-154719245D01*
X123322077Y-154697393D01*
X123230173Y-154659325D01*
X123132608Y-154639918D01*
X123033132Y-154639918D01*
X122935567Y-154659325D01*
X122843663Y-154697393D01*
X122760952Y-154752659D01*
X122690611Y-154823000D01*
X122635345Y-154905711D01*
X122597277Y-154997615D01*
X122577870Y-155095180D01*
X122577870Y-155194656D01*
X122597277Y-155292221D01*
X122635345Y-155384125D01*
X122690611Y-155466836D01*
X122707871Y-155484096D01*
X122707870Y-155721630D01*
X122523900Y-155721630D01*
X122441215Y-155729774D01*
X122398564Y-155742712D01*
X122393259Y-155732787D01*
X122372343Y-155707301D01*
X122394776Y-155692312D01*
X122465117Y-155621971D01*
X122520383Y-155539260D01*
X122558451Y-155447356D01*
X122577858Y-155349791D01*
X122577858Y-155250315D01*
X122558451Y-155152750D01*
X122520383Y-155060846D01*
X122465117Y-154978135D01*
X122394776Y-154907794D01*
X122312065Y-154852528D01*
X122220161Y-154814460D01*
X122122596Y-154795053D01*
X122023120Y-154795053D01*
X121925555Y-154814460D01*
X121833651Y-154852528D01*
X121750940Y-154907794D01*
X121680599Y-154978135D01*
X121625333Y-155060846D01*
X121587265Y-155152750D01*
X121567858Y-155250315D01*
X121567858Y-155349791D01*
X121587265Y-155447356D01*
X121618581Y-155522960D01*
X121526398Y-155522960D01*
X121526398Y-155641708D01*
X121407650Y-155522960D01*
X121406400Y-155520662D01*
X121353403Y-155525882D01*
X121361745Y-154475491D01*
X121382447Y-154490919D01*
X121466936Y-154531121D01*
X121557646Y-154554068D01*
X121585030Y-154557100D01*
X121703780Y-154438350D01*
X121703780Y-154007100D01*
X121663780Y-154007100D01*
X121663780Y-153757100D01*
X121703780Y-153757100D01*
X121703780Y-153687100D01*
X122006228Y-153687100D01*
X121999681Y-153708682D01*
X121992450Y-153782100D01*
X121992450Y-153982100D01*
X121999681Y-154055518D01*
X122013780Y-154101997D01*
X122013780Y-154438350D01*
X122132530Y-154557100D01*
X122159914Y-154554068D01*
X122250624Y-154531121D01*
X122335113Y-154490919D01*
X122410137Y-154435007D01*
X122472811Y-154365532D01*
X122477045Y-154358430D01*
X122628780Y-154358430D01*
X122702198Y-154351199D01*
X122772795Y-154329784D01*
X122837858Y-154295007D01*
X122894885Y-154248205D01*
X122941687Y-154191178D01*
X122976464Y-154126115D01*
X122997879Y-154055518D01*
X123005110Y-153982100D01*
X123005110Y-153975540D01*
X123384284Y-153596367D01*
X123370152Y-153630484D01*
G36*
X129854780Y-154786557D02*
G01*
X129870152Y-154863836D01*
X129900305Y-154936631D01*
X129940749Y-154997160D01*
X129900305Y-155057689D01*
X129876690Y-155114700D01*
X129871456Y-155112532D01*
X129794177Y-155097160D01*
X129715383Y-155097160D01*
X129638104Y-155112532D01*
X129565309Y-155142685D01*
X129521196Y-155172160D01*
X127179780Y-155172160D01*
X127179780Y-155192160D01*
X126829780Y-155192160D01*
X126829780Y-155172160D01*
X126809780Y-155172160D01*
X126809780Y-154822160D01*
X126829780Y-154822160D01*
X126829780Y-154802160D01*
X127179780Y-154802160D01*
X127179780Y-154822160D01*
X129786030Y-154822160D01*
X129854780Y-154753410D01*
X129854780Y-154786557D01*
G37*
X129854780Y-154786557D02*
X129870152Y-154863836D01*
X129900305Y-154936631D01*
X129940749Y-154997160D01*
X129900305Y-155057689D01*
X129876690Y-155114700D01*
X129871456Y-155112532D01*
X129794177Y-155097160D01*
X129715383Y-155097160D01*
X129638104Y-155112532D01*
X129565309Y-155142685D01*
X129521196Y-155172160D01*
X127179780Y-155172160D01*
X127179780Y-155192160D01*
X126829780Y-155192160D01*
X126829780Y-155172160D01*
X126809780Y-155172160D01*
X126809780Y-154822160D01*
X126829780Y-154822160D01*
X126829780Y-154802160D01*
X127179780Y-154802160D01*
X127179780Y-154822160D01*
X129786030Y-154822160D01*
X129854780Y-154753410D01*
X129854780Y-154786557D01*
G36*
X133520200Y-153506900D02*
G01*
X133560200Y-153506900D01*
X133560200Y-153630774D01*
X133551679Y-153637767D01*
X133541083Y-153650679D01*
X133484851Y-153706910D01*
X133245549Y-153706910D01*
X133231530Y-153692891D01*
X133231530Y-153531900D01*
X133224299Y-153458482D01*
X133217752Y-153436900D01*
X133520200Y-153436900D01*
X133520200Y-153506900D01*
G37*
X133520200Y-153506900D02*
X133560200Y-153506900D01*
X133560200Y-153630774D01*
X133551679Y-153637767D01*
X133541083Y-153650679D01*
X133484851Y-153706910D01*
X133245549Y-153706910D01*
X133231530Y-153692891D01*
X133231530Y-153531900D01*
X133224299Y-153458482D01*
X133217752Y-153436900D01*
X133520200Y-153436900D01*
X133520200Y-153506900D01*
G36*
X123364542Y-152658686D02*
G01*
X122617460Y-153405770D01*
X122477045Y-153405770D01*
X122472811Y-153398668D01*
X122410137Y-153329193D01*
X122335113Y-153273281D01*
X122250624Y-153233079D01*
X122159914Y-153210132D01*
X122132530Y-153207100D01*
X122045226Y-153294404D01*
X122062693Y-153252235D01*
X122082100Y-153154670D01*
X122082100Y-153077050D01*
X122140616Y-153071287D01*
X122230154Y-153044126D01*
X122312673Y-153000019D01*
X122385001Y-152940661D01*
X122444359Y-152868333D01*
X122449664Y-152858408D01*
X122492315Y-152871346D01*
X122575000Y-152879490D01*
X122870000Y-152879490D01*
X122952685Y-152871346D01*
X123032193Y-152847228D01*
X123105467Y-152808062D01*
X123169693Y-152755353D01*
X123222402Y-152691127D01*
X123240023Y-152658160D01*
X123364647Y-152658160D01*
X123364542Y-152658686D01*
G37*
X123364542Y-152658686D02*
X122617460Y-153405770D01*
X122477045Y-153405770D01*
X122472811Y-153398668D01*
X122410137Y-153329193D01*
X122335113Y-153273281D01*
X122250624Y-153233079D01*
X122159914Y-153210132D01*
X122132530Y-153207100D01*
X122045226Y-153294404D01*
X122062693Y-153252235D01*
X122082100Y-153154670D01*
X122082100Y-153077050D01*
X122140616Y-153071287D01*
X122230154Y-153044126D01*
X122312673Y-153000019D01*
X122385001Y-152940661D01*
X122444359Y-152868333D01*
X122449664Y-152858408D01*
X122492315Y-152871346D01*
X122575000Y-152879490D01*
X122870000Y-152879490D01*
X122952685Y-152871346D01*
X123032193Y-152847228D01*
X123105467Y-152808062D01*
X123169693Y-152755353D01*
X123222402Y-152691127D01*
X123240023Y-152658160D01*
X123364647Y-152658160D01*
X123364542Y-152658686D01*
G36*
X132249900Y-152466780D02*
G01*
X132289900Y-152466780D01*
X132289900Y-152716780D01*
X132249900Y-152716780D01*
X132249900Y-152786780D01*
X131947452Y-152786780D01*
X131953999Y-152765198D01*
X131961230Y-152691780D01*
X131961230Y-152491780D01*
X131953999Y-152418362D01*
X131947452Y-152396780D01*
X132249900Y-152396780D01*
X132249900Y-152466780D01*
G37*
X132249900Y-152466780D02*
X132289900Y-152466780D01*
X132289900Y-152716780D01*
X132249900Y-152716780D01*
X132249900Y-152786780D01*
X131947452Y-152786780D01*
X131953999Y-152765198D01*
X131961230Y-152691780D01*
X131961230Y-152491780D01*
X131953999Y-152418362D01*
X131947452Y-152396780D01*
X132249900Y-152396780D01*
X132249900Y-152466780D01*
G36*
X122202757Y-150657479D02*
G01*
X122180660Y-150768567D01*
X122180660Y-150881833D01*
X122202757Y-150992921D01*
X122246102Y-151097565D01*
X122309028Y-151191741D01*
X122389119Y-151271832D01*
X122483295Y-151334758D01*
X122587939Y-151378103D01*
X122661804Y-151392796D01*
X122865104Y-151686830D01*
X122575000Y-151686830D01*
X122492315Y-151694974D01*
X122449664Y-151707912D01*
X122444359Y-151697987D01*
X122385001Y-151625659D01*
X122312673Y-151566301D01*
X122230154Y-151522194D01*
X122140616Y-151495033D01*
X122047500Y-151485862D01*
X122046250Y-151488160D01*
X121927500Y-151606910D01*
X121927500Y-152108160D01*
X121947500Y-152108160D01*
X121947500Y-152458160D01*
X121927500Y-152458160D01*
X121927500Y-152478160D01*
X121577500Y-152478160D01*
X121577500Y-152458160D01*
X121557500Y-152458160D01*
X121557500Y-152108160D01*
X121577500Y-152108160D01*
X121577500Y-151606910D01*
X121458750Y-151488160D01*
X121457500Y-151485862D01*
X121385432Y-151492960D01*
X121387878Y-151184967D01*
X121437885Y-151110127D01*
X121475953Y-151018223D01*
X121495360Y-150920658D01*
X121495360Y-150821182D01*
X121475953Y-150723617D01*
X121437885Y-150631713D01*
X121433239Y-150624760D01*
X122216310Y-150624760D01*
X122202757Y-150657479D01*
G37*
X122202757Y-150657479D02*
X122180660Y-150768567D01*
X122180660Y-150881833D01*
X122202757Y-150992921D01*
X122246102Y-151097565D01*
X122309028Y-151191741D01*
X122389119Y-151271832D01*
X122483295Y-151334758D01*
X122587939Y-151378103D01*
X122661804Y-151392796D01*
X122865104Y-151686830D01*
X122575000Y-151686830D01*
X122492315Y-151694974D01*
X122449664Y-151707912D01*
X122444359Y-151697987D01*
X122385001Y-151625659D01*
X122312673Y-151566301D01*
X122230154Y-151522194D01*
X122140616Y-151495033D01*
X122047500Y-151485862D01*
X122046250Y-151488160D01*
X121927500Y-151606910D01*
X121927500Y-152108160D01*
X121947500Y-152108160D01*
X121947500Y-152458160D01*
X121927500Y-152458160D01*
X121927500Y-152478160D01*
X121577500Y-152478160D01*
X121577500Y-152458160D01*
X121557500Y-152458160D01*
X121557500Y-152108160D01*
X121577500Y-152108160D01*
X121577500Y-151606910D01*
X121458750Y-151488160D01*
X121457500Y-151485862D01*
X121385432Y-151492960D01*
X121387878Y-151184967D01*
X121437885Y-151110127D01*
X121475953Y-151018223D01*
X121495360Y-150920658D01*
X121495360Y-150821182D01*
X121475953Y-150723617D01*
X121437885Y-150631713D01*
X121433239Y-150624760D01*
X122216310Y-150624760D01*
X122202757Y-150657479D01*
G36*
X130825973Y-150939035D02*
G01*
X130794657Y-151027205D01*
X130782920Y-151098350D01*
X130901670Y-151217100D01*
X131332920Y-151217100D01*
X131332920Y-151147100D01*
X131635368Y-151147100D01*
X131628821Y-151168682D01*
X131621590Y-151242100D01*
X131621590Y-151442100D01*
X131628821Y-151515518D01*
X131635368Y-151537100D01*
X131332920Y-151537100D01*
X131332920Y-151467100D01*
X130901670Y-151467100D01*
X130782920Y-151585850D01*
X130794657Y-151656995D01*
X130825973Y-151745165D01*
X130873889Y-151825532D01*
X130886733Y-151839770D01*
X130340281Y-151839770D01*
X130323669Y-151838134D01*
X130307057Y-151839770D01*
X130307050Y-151839770D01*
X130263606Y-151844049D01*
X130257312Y-151844669D01*
X130249100Y-151847160D01*
X130215383Y-151847160D01*
X130139732Y-151862208D01*
X130154780Y-151786557D01*
X130154780Y-151707763D01*
X130139408Y-151630484D01*
X130109255Y-151557689D01*
X130093280Y-151533781D01*
X130093280Y-151466910D01*
X130658421Y-150901770D01*
X130848191Y-150901770D01*
X130825973Y-150939035D01*
G37*
X130825973Y-150939035D02*
X130794657Y-151027205D01*
X130782920Y-151098350D01*
X130901670Y-151217100D01*
X131332920Y-151217100D01*
X131332920Y-151147100D01*
X131635368Y-151147100D01*
X131628821Y-151168682D01*
X131621590Y-151242100D01*
X131621590Y-151442100D01*
X131628821Y-151515518D01*
X131635368Y-151537100D01*
X131332920Y-151537100D01*
X131332920Y-151467100D01*
X130901670Y-151467100D01*
X130782920Y-151585850D01*
X130794657Y-151656995D01*
X130825973Y-151745165D01*
X130873889Y-151825532D01*
X130886733Y-151839770D01*
X130340281Y-151839770D01*
X130323669Y-151838134D01*
X130307057Y-151839770D01*
X130307050Y-151839770D01*
X130263606Y-151844049D01*
X130257312Y-151844669D01*
X130249100Y-151847160D01*
X130215383Y-151847160D01*
X130139732Y-151862208D01*
X130154780Y-151786557D01*
X130154780Y-151707763D01*
X130139408Y-151630484D01*
X130109255Y-151557689D01*
X130093280Y-151533781D01*
X130093280Y-151466910D01*
X130658421Y-150901770D01*
X130848191Y-150901770D01*
X130825973Y-150939035D01*
G36*
X125829590Y-150654480D02*
G01*
X126260840Y-150654480D01*
X126260840Y-150624760D01*
X126554899Y-150624760D01*
X126549510Y-150679480D01*
X126549510Y-150879480D01*
X126556741Y-150952898D01*
X126563288Y-150974480D01*
X126260840Y-150974480D01*
X126260840Y-150904480D01*
X126099970Y-150904480D01*
X126083930Y-150888440D01*
X125607680Y-150888440D01*
X125607680Y-151375134D01*
X125565309Y-151392685D01*
X125499795Y-151436460D01*
X125444080Y-151492175D01*
X125400305Y-151557689D01*
X125370152Y-151630484D01*
X125364047Y-151661175D01*
X125361406Y-151661552D01*
X125257528Y-151698096D01*
X125245292Y-151683187D01*
X125232386Y-151672596D01*
X125063192Y-151503402D01*
X125137680Y-151510738D01*
X125138930Y-151508440D01*
X125257680Y-151389690D01*
X125257680Y-150888440D01*
X125237680Y-150888440D01*
X125237680Y-150624760D01*
X125799870Y-150624760D01*
X125829590Y-150654480D01*
G37*
X125829590Y-150654480D02*
X126260840Y-150654480D01*
X126260840Y-150624760D01*
X126554899Y-150624760D01*
X126549510Y-150679480D01*
X126549510Y-150879480D01*
X126556741Y-150952898D01*
X126563288Y-150974480D01*
X126260840Y-150974480D01*
X126260840Y-150904480D01*
X126099970Y-150904480D01*
X126083930Y-150888440D01*
X125607680Y-150888440D01*
X125607680Y-151375134D01*
X125565309Y-151392685D01*
X125499795Y-151436460D01*
X125444080Y-151492175D01*
X125400305Y-151557689D01*
X125370152Y-151630484D01*
X125364047Y-151661175D01*
X125361406Y-151661552D01*
X125257528Y-151698096D01*
X125245292Y-151683187D01*
X125232386Y-151672596D01*
X125063192Y-151503402D01*
X125137680Y-151510738D01*
X125138930Y-151508440D01*
X125257680Y-151389690D01*
X125257680Y-150888440D01*
X125237680Y-150888440D01*
X125237680Y-150624760D01*
X125799870Y-150624760D01*
X125829590Y-150654480D01*
G36*
X133667980Y-151097160D02*
G01*
X133687980Y-151097160D01*
X133687980Y-151447160D01*
X133667980Y-151447160D01*
X133667980Y-151467160D01*
X133317980Y-151467160D01*
X133317980Y-151447160D01*
X133297980Y-151447160D01*
X133297980Y-151097160D01*
X133317980Y-151097160D01*
X133317980Y-151077160D01*
X133667980Y-151077160D01*
X133667980Y-151097160D01*
G37*
X133667980Y-151097160D02*
X133687980Y-151097160D01*
X133687980Y-151447160D01*
X133667980Y-151447160D01*
X133667980Y-151467160D01*
X133317980Y-151467160D01*
X133317980Y-151447160D01*
X133297980Y-151447160D01*
X133297980Y-151097160D01*
X133317980Y-151097160D01*
X133317980Y-151077160D01*
X133667980Y-151077160D01*
X133667980Y-151097160D01*
G36*
X139164322Y-151212740D02*
G01*
X137909000Y-151212740D01*
X137883204Y-151215269D01*
X137857470Y-151217611D01*
X137856546Y-151217883D01*
X137855586Y-151217977D01*
X137830850Y-151225445D01*
X137827989Y-151226287D01*
X137612114Y-151225217D01*
X137606509Y-151224096D01*
X137591865Y-151222640D01*
X137589957Y-151222826D01*
X137527515Y-151181104D01*
X137333725Y-151100834D01*
X137299096Y-151093946D01*
X137298870Y-151093720D01*
X137297961Y-151093720D01*
X137127998Y-151059912D01*
X136918242Y-151059912D01*
X136712515Y-151100834D01*
X136565816Y-151161598D01*
X136571719Y-151142138D01*
X136578950Y-151068720D01*
X136578950Y-150868720D01*
X136571719Y-150795302D01*
X136565172Y-150773720D01*
X136867620Y-150773720D01*
X136867620Y-150843720D01*
X137298870Y-150843720D01*
X137417620Y-150724970D01*
X137405883Y-150653825D01*
X137395560Y-150624760D01*
X138922212Y-150624760D01*
X139164322Y-151212740D01*
G37*
X139164322Y-151212740D02*
X137909000Y-151212740D01*
X137883204Y-151215269D01*
X137857470Y-151217611D01*
X137856546Y-151217883D01*
X137855586Y-151217977D01*
X137830850Y-151225445D01*
X137827989Y-151226287D01*
X137612114Y-151225217D01*
X137606509Y-151224096D01*
X137591865Y-151222640D01*
X137589957Y-151222826D01*
X137527515Y-151181104D01*
X137333725Y-151100834D01*
X137299096Y-151093946D01*
X137298870Y-151093720D01*
X137297961Y-151093720D01*
X137127998Y-151059912D01*
X136918242Y-151059912D01*
X136712515Y-151100834D01*
X136565816Y-151161598D01*
X136571719Y-151142138D01*
X136578950Y-151068720D01*
X136578950Y-150868720D01*
X136571719Y-150795302D01*
X136565172Y-150773720D01*
X136867620Y-150773720D01*
X136867620Y-150843720D01*
X137298870Y-150843720D01*
X137417620Y-150724970D01*
X137405883Y-150653825D01*
X137395560Y-150624760D01*
X138922212Y-150624760D01*
X139164322Y-151212740D01*
G36*
X128015090Y-150676940D02*
G01*
X128015090Y-150876940D01*
X128022321Y-150950358D01*
X128028868Y-150971940D01*
X127726420Y-150971940D01*
X127726420Y-150901940D01*
X127686420Y-150901940D01*
X127686420Y-150651940D01*
X127726420Y-150651940D01*
X127726420Y-150624760D01*
X128020229Y-150624760D01*
X128015090Y-150676940D01*
G37*
X128015090Y-150676940D02*
X128015090Y-150876940D01*
X128022321Y-150950358D01*
X128028868Y-150971940D01*
X127726420Y-150971940D01*
X127726420Y-150901940D01*
X127686420Y-150901940D01*
X127686420Y-150651940D01*
X127726420Y-150651940D01*
X127726420Y-150624760D01*
X128020229Y-150624760D01*
X128015090Y-150676940D01*
%TD*%
M02*
