M48
; DRILL file {KiCad (5.1.6)-1} date 10/20/20 21:54:16
; FORMAT={-:-/ absolute / metric / decimal}
; #@! TF.CreationDate,2020-10-20T21:54:16+08:00
; #@! TF.GenerationSoftware,Kicad,Pcbnew,(5.1.6)-1
FMAT,2
METRIC
T1C0.210
T2C0.300
%
G90
G05
T1
X120.932Y-159.479
X120.99Y-150.871
X121.577Y-153.105
X122.073Y-155.3
X123.083Y-155.145
X123.388Y-159.39
X123.469Y-150.848
X124.446Y-159.447
X125.425Y-153.121
X125.463Y-155.123
X125.491Y-157.117
X125.702Y-159.421
X126.362Y-153.126
X126.563Y-155.118
X126.571Y-157.109
X127.505Y-153.124
X127.549Y-155.128
X127.693Y-157.124
X127.876Y-150.757
X128.227Y-159.421
X128.887Y-155.336
X128.9Y-153.497
X128.902Y-154.297
X128.902Y-156.248
X128.938Y-156.972
X131.397Y-151.646
X131.986Y-159.446
X132.891Y-159.221
X133.345Y-158.814
X133.949Y-158.161
X133.957Y-156.728
X134.122Y-153.878
X134.826Y-156.047
X134.826Y-156.752
X134.826Y-157.456
X134.826Y-158.16
X134.826Y-158.864
X134.92Y-153.477
X135.529Y-159.408
X136.136Y-154.081
X136.144Y-153.495
X136.144Y-154.719
X137.122Y-153.49
X137.122Y-154.29
X137.122Y-155.09
X137.122Y-155.89
X137.122Y-156.69
X138.344Y-150.876
X138.877Y-159.123
T2
X121.722Y-158.838
X121.983Y-150.815
X122.756Y-150.825
X129.365Y-150.795
X130.764Y-159.393
X133.464Y-156.101
T0
M30
