%TF.GenerationSoftware,KiCad,Pcbnew,(5.1.9)-1*%
%TF.CreationDate,2021-02-01T23:30:29+08:00*%
%TF.ProjectId,NRF52840,4e524635-3238-4343-902e-6b696361645f,rev?*%
%TF.SameCoordinates,Original*%
%TF.FileFunction,Copper,L1,Top*%
%TF.FilePolarity,Positive*%
%FSLAX46Y46*%
G04 Gerber Fmt 4.6, Leading zero omitted, Abs format (unit mm)*
G04 Created by KiCad (PCBNEW (5.1.9)-1) date 2021-02-01 23:30:29*
%MOMM*%
%LPD*%
G01*
G04 APERTURE LIST*
%TA.AperFunction,SMDPad,CuDef*%
%ADD10R,4.600000X4.600000*%
%TD*%
%TA.AperFunction,SMDPad,CuDef*%
%ADD11R,0.700000X1.800000*%
%TD*%
%TA.AperFunction,SMDPad,CuDef*%
%ADD12R,1.800000X0.700000*%
%TD*%
%TA.AperFunction,SMDPad,CuDef*%
%ADD13R,4.850000X4.850000*%
%TD*%
%TA.AperFunction,SMDPad,CuDef*%
%ADD14C,0.250000*%
%TD*%
%TA.AperFunction,SMDPad,CuDef*%
%ADD15R,0.800000X1.200000*%
%TD*%
%TA.AperFunction,SMDPad,CuDef*%
%ADD16R,1.200000X0.800000*%
%TD*%
%TA.AperFunction,SMDPad,CuDef*%
%ADD17R,2.000000X0.800000*%
%TD*%
%TA.AperFunction,SMDPad,CuDef*%
%ADD18R,0.800000X2.000000*%
%TD*%
%TA.AperFunction,SMDPad,CuDef*%
%ADD19R,2.000000X1.200000*%
%TD*%
%TA.AperFunction,SMDPad,CuDef*%
%ADD20R,0.900000X0.800000*%
%TD*%
%TA.AperFunction,ComponentPad*%
%ADD21O,3.500000X1.900000*%
%TD*%
%TA.AperFunction,ComponentPad*%
%ADD22O,1.700000X1.700000*%
%TD*%
%TA.AperFunction,ComponentPad*%
%ADD23R,1.700000X1.700000*%
%TD*%
%TA.AperFunction,ViaPad*%
%ADD24C,0.700000*%
%TD*%
%TA.AperFunction,Conductor*%
%ADD25C,0.500000*%
%TD*%
%TA.AperFunction,Conductor*%
%ADD26C,0.200000*%
%TD*%
%TA.AperFunction,Conductor*%
%ADD27C,0.127000*%
%TD*%
%TA.AperFunction,Conductor*%
%ADD28C,0.100000*%
%TD*%
G04 APERTURE END LIST*
%TO.P,REF\u002A\u002A,64*%
%TO.N,N/C*%
%TA.AperFunction,SMDPad,CuDef*%
G36*
G01*
X64329480Y-156729420D02*
X64329480Y-155404420D01*
G75*
G02*
X64404480Y-155329420I75000J0D01*
G01*
X64554480Y-155329420D01*
G75*
G02*
X64629480Y-155404420I0J-75000D01*
G01*
X64629480Y-156729420D01*
G75*
G02*
X64554480Y-156804420I-75000J0D01*
G01*
X64404480Y-156804420D01*
G75*
G02*
X64329480Y-156729420I0J75000D01*
G01*
G37*
%TD.AperFunction*%
%TO.P,REF\u002A\u002A,63*%
%TA.AperFunction,SMDPad,CuDef*%
G36*
G01*
X64829480Y-156729420D02*
X64829480Y-155404420D01*
G75*
G02*
X64904480Y-155329420I75000J0D01*
G01*
X65054480Y-155329420D01*
G75*
G02*
X65129480Y-155404420I0J-75000D01*
G01*
X65129480Y-156729420D01*
G75*
G02*
X65054480Y-156804420I-75000J0D01*
G01*
X64904480Y-156804420D01*
G75*
G02*
X64829480Y-156729420I0J75000D01*
G01*
G37*
%TD.AperFunction*%
%TO.P,REF\u002A\u002A,62*%
%TA.AperFunction,SMDPad,CuDef*%
G36*
G01*
X65329480Y-156729420D02*
X65329480Y-155404420D01*
G75*
G02*
X65404480Y-155329420I75000J0D01*
G01*
X65554480Y-155329420D01*
G75*
G02*
X65629480Y-155404420I0J-75000D01*
G01*
X65629480Y-156729420D01*
G75*
G02*
X65554480Y-156804420I-75000J0D01*
G01*
X65404480Y-156804420D01*
G75*
G02*
X65329480Y-156729420I0J75000D01*
G01*
G37*
%TD.AperFunction*%
%TO.P,REF\u002A\u002A,61*%
%TA.AperFunction,SMDPad,CuDef*%
G36*
G01*
X65829480Y-156729420D02*
X65829480Y-155404420D01*
G75*
G02*
X65904480Y-155329420I75000J0D01*
G01*
X66054480Y-155329420D01*
G75*
G02*
X66129480Y-155404420I0J-75000D01*
G01*
X66129480Y-156729420D01*
G75*
G02*
X66054480Y-156804420I-75000J0D01*
G01*
X65904480Y-156804420D01*
G75*
G02*
X65829480Y-156729420I0J75000D01*
G01*
G37*
%TD.AperFunction*%
%TO.P,REF\u002A\u002A,60*%
%TA.AperFunction,SMDPad,CuDef*%
G36*
G01*
X66329480Y-156729420D02*
X66329480Y-155404420D01*
G75*
G02*
X66404480Y-155329420I75000J0D01*
G01*
X66554480Y-155329420D01*
G75*
G02*
X66629480Y-155404420I0J-75000D01*
G01*
X66629480Y-156729420D01*
G75*
G02*
X66554480Y-156804420I-75000J0D01*
G01*
X66404480Y-156804420D01*
G75*
G02*
X66329480Y-156729420I0J75000D01*
G01*
G37*
%TD.AperFunction*%
%TO.P,REF\u002A\u002A,59*%
%TA.AperFunction,SMDPad,CuDef*%
G36*
G01*
X66829480Y-156729420D02*
X66829480Y-155404420D01*
G75*
G02*
X66904480Y-155329420I75000J0D01*
G01*
X67054480Y-155329420D01*
G75*
G02*
X67129480Y-155404420I0J-75000D01*
G01*
X67129480Y-156729420D01*
G75*
G02*
X67054480Y-156804420I-75000J0D01*
G01*
X66904480Y-156804420D01*
G75*
G02*
X66829480Y-156729420I0J75000D01*
G01*
G37*
%TD.AperFunction*%
%TO.P,REF\u002A\u002A,58*%
%TA.AperFunction,SMDPad,CuDef*%
G36*
G01*
X67329480Y-156729420D02*
X67329480Y-155404420D01*
G75*
G02*
X67404480Y-155329420I75000J0D01*
G01*
X67554480Y-155329420D01*
G75*
G02*
X67629480Y-155404420I0J-75000D01*
G01*
X67629480Y-156729420D01*
G75*
G02*
X67554480Y-156804420I-75000J0D01*
G01*
X67404480Y-156804420D01*
G75*
G02*
X67329480Y-156729420I0J75000D01*
G01*
G37*
%TD.AperFunction*%
%TO.P,REF\u002A\u002A,57*%
%TA.AperFunction,SMDPad,CuDef*%
G36*
G01*
X67829480Y-156729420D02*
X67829480Y-155404420D01*
G75*
G02*
X67904480Y-155329420I75000J0D01*
G01*
X68054480Y-155329420D01*
G75*
G02*
X68129480Y-155404420I0J-75000D01*
G01*
X68129480Y-156729420D01*
G75*
G02*
X68054480Y-156804420I-75000J0D01*
G01*
X67904480Y-156804420D01*
G75*
G02*
X67829480Y-156729420I0J75000D01*
G01*
G37*
%TD.AperFunction*%
%TO.P,REF\u002A\u002A,56*%
%TA.AperFunction,SMDPad,CuDef*%
G36*
G01*
X68329480Y-156729420D02*
X68329480Y-155404420D01*
G75*
G02*
X68404480Y-155329420I75000J0D01*
G01*
X68554480Y-155329420D01*
G75*
G02*
X68629480Y-155404420I0J-75000D01*
G01*
X68629480Y-156729420D01*
G75*
G02*
X68554480Y-156804420I-75000J0D01*
G01*
X68404480Y-156804420D01*
G75*
G02*
X68329480Y-156729420I0J75000D01*
G01*
G37*
%TD.AperFunction*%
%TO.P,REF\u002A\u002A,55*%
%TA.AperFunction,SMDPad,CuDef*%
G36*
G01*
X68829480Y-156729420D02*
X68829480Y-155404420D01*
G75*
G02*
X68904480Y-155329420I75000J0D01*
G01*
X69054480Y-155329420D01*
G75*
G02*
X69129480Y-155404420I0J-75000D01*
G01*
X69129480Y-156729420D01*
G75*
G02*
X69054480Y-156804420I-75000J0D01*
G01*
X68904480Y-156804420D01*
G75*
G02*
X68829480Y-156729420I0J75000D01*
G01*
G37*
%TD.AperFunction*%
%TO.P,REF\u002A\u002A,54*%
%TA.AperFunction,SMDPad,CuDef*%
G36*
G01*
X69329480Y-156729420D02*
X69329480Y-155404420D01*
G75*
G02*
X69404480Y-155329420I75000J0D01*
G01*
X69554480Y-155329420D01*
G75*
G02*
X69629480Y-155404420I0J-75000D01*
G01*
X69629480Y-156729420D01*
G75*
G02*
X69554480Y-156804420I-75000J0D01*
G01*
X69404480Y-156804420D01*
G75*
G02*
X69329480Y-156729420I0J75000D01*
G01*
G37*
%TD.AperFunction*%
%TO.P,REF\u002A\u002A,53*%
%TA.AperFunction,SMDPad,CuDef*%
G36*
G01*
X69829480Y-156729420D02*
X69829480Y-155404420D01*
G75*
G02*
X69904480Y-155329420I75000J0D01*
G01*
X70054480Y-155329420D01*
G75*
G02*
X70129480Y-155404420I0J-75000D01*
G01*
X70129480Y-156729420D01*
G75*
G02*
X70054480Y-156804420I-75000J0D01*
G01*
X69904480Y-156804420D01*
G75*
G02*
X69829480Y-156729420I0J75000D01*
G01*
G37*
%TD.AperFunction*%
%TO.P,REF\u002A\u002A,52*%
%TA.AperFunction,SMDPad,CuDef*%
G36*
G01*
X70329480Y-156729420D02*
X70329480Y-155404420D01*
G75*
G02*
X70404480Y-155329420I75000J0D01*
G01*
X70554480Y-155329420D01*
G75*
G02*
X70629480Y-155404420I0J-75000D01*
G01*
X70629480Y-156729420D01*
G75*
G02*
X70554480Y-156804420I-75000J0D01*
G01*
X70404480Y-156804420D01*
G75*
G02*
X70329480Y-156729420I0J75000D01*
G01*
G37*
%TD.AperFunction*%
%TO.P,REF\u002A\u002A,51*%
%TA.AperFunction,SMDPad,CuDef*%
G36*
G01*
X70829480Y-156729420D02*
X70829480Y-155404420D01*
G75*
G02*
X70904480Y-155329420I75000J0D01*
G01*
X71054480Y-155329420D01*
G75*
G02*
X71129480Y-155404420I0J-75000D01*
G01*
X71129480Y-156729420D01*
G75*
G02*
X71054480Y-156804420I-75000J0D01*
G01*
X70904480Y-156804420D01*
G75*
G02*
X70829480Y-156729420I0J75000D01*
G01*
G37*
%TD.AperFunction*%
%TO.P,REF\u002A\u002A,50*%
%TA.AperFunction,SMDPad,CuDef*%
G36*
G01*
X71329480Y-156729420D02*
X71329480Y-155404420D01*
G75*
G02*
X71404480Y-155329420I75000J0D01*
G01*
X71554480Y-155329420D01*
G75*
G02*
X71629480Y-155404420I0J-75000D01*
G01*
X71629480Y-156729420D01*
G75*
G02*
X71554480Y-156804420I-75000J0D01*
G01*
X71404480Y-156804420D01*
G75*
G02*
X71329480Y-156729420I0J75000D01*
G01*
G37*
%TD.AperFunction*%
%TO.P,REF\u002A\u002A,49*%
%TA.AperFunction,SMDPad,CuDef*%
G36*
G01*
X71829480Y-156729420D02*
X71829480Y-155404420D01*
G75*
G02*
X71904480Y-155329420I75000J0D01*
G01*
X72054480Y-155329420D01*
G75*
G02*
X72129480Y-155404420I0J-75000D01*
G01*
X72129480Y-156729420D01*
G75*
G02*
X72054480Y-156804420I-75000J0D01*
G01*
X71904480Y-156804420D01*
G75*
G02*
X71829480Y-156729420I0J75000D01*
G01*
G37*
%TD.AperFunction*%
%TO.P,REF\u002A\u002A,48*%
%TA.AperFunction,SMDPad,CuDef*%
G36*
G01*
X73154480Y-158054420D02*
X73154480Y-157904420D01*
G75*
G02*
X73229480Y-157829420I75000J0D01*
G01*
X74554480Y-157829420D01*
G75*
G02*
X74629480Y-157904420I0J-75000D01*
G01*
X74629480Y-158054420D01*
G75*
G02*
X74554480Y-158129420I-75000J0D01*
G01*
X73229480Y-158129420D01*
G75*
G02*
X73154480Y-158054420I0J75000D01*
G01*
G37*
%TD.AperFunction*%
%TO.P,REF\u002A\u002A,47*%
%TA.AperFunction,SMDPad,CuDef*%
G36*
G01*
X73154480Y-158554420D02*
X73154480Y-158404420D01*
G75*
G02*
X73229480Y-158329420I75000J0D01*
G01*
X74554480Y-158329420D01*
G75*
G02*
X74629480Y-158404420I0J-75000D01*
G01*
X74629480Y-158554420D01*
G75*
G02*
X74554480Y-158629420I-75000J0D01*
G01*
X73229480Y-158629420D01*
G75*
G02*
X73154480Y-158554420I0J75000D01*
G01*
G37*
%TD.AperFunction*%
%TO.P,REF\u002A\u002A,46*%
%TA.AperFunction,SMDPad,CuDef*%
G36*
G01*
X73154480Y-159054420D02*
X73154480Y-158904420D01*
G75*
G02*
X73229480Y-158829420I75000J0D01*
G01*
X74554480Y-158829420D01*
G75*
G02*
X74629480Y-158904420I0J-75000D01*
G01*
X74629480Y-159054420D01*
G75*
G02*
X74554480Y-159129420I-75000J0D01*
G01*
X73229480Y-159129420D01*
G75*
G02*
X73154480Y-159054420I0J75000D01*
G01*
G37*
%TD.AperFunction*%
%TO.P,REF\u002A\u002A,45*%
%TA.AperFunction,SMDPad,CuDef*%
G36*
G01*
X73154480Y-159554420D02*
X73154480Y-159404420D01*
G75*
G02*
X73229480Y-159329420I75000J0D01*
G01*
X74554480Y-159329420D01*
G75*
G02*
X74629480Y-159404420I0J-75000D01*
G01*
X74629480Y-159554420D01*
G75*
G02*
X74554480Y-159629420I-75000J0D01*
G01*
X73229480Y-159629420D01*
G75*
G02*
X73154480Y-159554420I0J75000D01*
G01*
G37*
%TD.AperFunction*%
%TO.P,REF\u002A\u002A,44*%
%TA.AperFunction,SMDPad,CuDef*%
G36*
G01*
X73154480Y-160054420D02*
X73154480Y-159904420D01*
G75*
G02*
X73229480Y-159829420I75000J0D01*
G01*
X74554480Y-159829420D01*
G75*
G02*
X74629480Y-159904420I0J-75000D01*
G01*
X74629480Y-160054420D01*
G75*
G02*
X74554480Y-160129420I-75000J0D01*
G01*
X73229480Y-160129420D01*
G75*
G02*
X73154480Y-160054420I0J75000D01*
G01*
G37*
%TD.AperFunction*%
%TO.P,REF\u002A\u002A,43*%
%TA.AperFunction,SMDPad,CuDef*%
G36*
G01*
X73154480Y-160554420D02*
X73154480Y-160404420D01*
G75*
G02*
X73229480Y-160329420I75000J0D01*
G01*
X74554480Y-160329420D01*
G75*
G02*
X74629480Y-160404420I0J-75000D01*
G01*
X74629480Y-160554420D01*
G75*
G02*
X74554480Y-160629420I-75000J0D01*
G01*
X73229480Y-160629420D01*
G75*
G02*
X73154480Y-160554420I0J75000D01*
G01*
G37*
%TD.AperFunction*%
%TO.P,REF\u002A\u002A,42*%
%TA.AperFunction,SMDPad,CuDef*%
G36*
G01*
X73154480Y-161054420D02*
X73154480Y-160904420D01*
G75*
G02*
X73229480Y-160829420I75000J0D01*
G01*
X74554480Y-160829420D01*
G75*
G02*
X74629480Y-160904420I0J-75000D01*
G01*
X74629480Y-161054420D01*
G75*
G02*
X74554480Y-161129420I-75000J0D01*
G01*
X73229480Y-161129420D01*
G75*
G02*
X73154480Y-161054420I0J75000D01*
G01*
G37*
%TD.AperFunction*%
%TO.P,REF\u002A\u002A,41*%
%TA.AperFunction,SMDPad,CuDef*%
G36*
G01*
X73154480Y-161554420D02*
X73154480Y-161404420D01*
G75*
G02*
X73229480Y-161329420I75000J0D01*
G01*
X74554480Y-161329420D01*
G75*
G02*
X74629480Y-161404420I0J-75000D01*
G01*
X74629480Y-161554420D01*
G75*
G02*
X74554480Y-161629420I-75000J0D01*
G01*
X73229480Y-161629420D01*
G75*
G02*
X73154480Y-161554420I0J75000D01*
G01*
G37*
%TD.AperFunction*%
%TO.P,REF\u002A\u002A,40*%
%TA.AperFunction,SMDPad,CuDef*%
G36*
G01*
X73154480Y-162054420D02*
X73154480Y-161904420D01*
G75*
G02*
X73229480Y-161829420I75000J0D01*
G01*
X74554480Y-161829420D01*
G75*
G02*
X74629480Y-161904420I0J-75000D01*
G01*
X74629480Y-162054420D01*
G75*
G02*
X74554480Y-162129420I-75000J0D01*
G01*
X73229480Y-162129420D01*
G75*
G02*
X73154480Y-162054420I0J75000D01*
G01*
G37*
%TD.AperFunction*%
%TO.P,REF\u002A\u002A,39*%
%TA.AperFunction,SMDPad,CuDef*%
G36*
G01*
X73154480Y-162554420D02*
X73154480Y-162404420D01*
G75*
G02*
X73229480Y-162329420I75000J0D01*
G01*
X74554480Y-162329420D01*
G75*
G02*
X74629480Y-162404420I0J-75000D01*
G01*
X74629480Y-162554420D01*
G75*
G02*
X74554480Y-162629420I-75000J0D01*
G01*
X73229480Y-162629420D01*
G75*
G02*
X73154480Y-162554420I0J75000D01*
G01*
G37*
%TD.AperFunction*%
%TO.P,REF\u002A\u002A,38*%
%TA.AperFunction,SMDPad,CuDef*%
G36*
G01*
X73154480Y-163054420D02*
X73154480Y-162904420D01*
G75*
G02*
X73229480Y-162829420I75000J0D01*
G01*
X74554480Y-162829420D01*
G75*
G02*
X74629480Y-162904420I0J-75000D01*
G01*
X74629480Y-163054420D01*
G75*
G02*
X74554480Y-163129420I-75000J0D01*
G01*
X73229480Y-163129420D01*
G75*
G02*
X73154480Y-163054420I0J75000D01*
G01*
G37*
%TD.AperFunction*%
%TO.P,REF\u002A\u002A,37*%
%TA.AperFunction,SMDPad,CuDef*%
G36*
G01*
X73154480Y-163554420D02*
X73154480Y-163404420D01*
G75*
G02*
X73229480Y-163329420I75000J0D01*
G01*
X74554480Y-163329420D01*
G75*
G02*
X74629480Y-163404420I0J-75000D01*
G01*
X74629480Y-163554420D01*
G75*
G02*
X74554480Y-163629420I-75000J0D01*
G01*
X73229480Y-163629420D01*
G75*
G02*
X73154480Y-163554420I0J75000D01*
G01*
G37*
%TD.AperFunction*%
%TO.P,REF\u002A\u002A,36*%
%TA.AperFunction,SMDPad,CuDef*%
G36*
G01*
X73154480Y-164054420D02*
X73154480Y-163904420D01*
G75*
G02*
X73229480Y-163829420I75000J0D01*
G01*
X74554480Y-163829420D01*
G75*
G02*
X74629480Y-163904420I0J-75000D01*
G01*
X74629480Y-164054420D01*
G75*
G02*
X74554480Y-164129420I-75000J0D01*
G01*
X73229480Y-164129420D01*
G75*
G02*
X73154480Y-164054420I0J75000D01*
G01*
G37*
%TD.AperFunction*%
%TO.P,REF\u002A\u002A,35*%
%TA.AperFunction,SMDPad,CuDef*%
G36*
G01*
X73154480Y-164554420D02*
X73154480Y-164404420D01*
G75*
G02*
X73229480Y-164329420I75000J0D01*
G01*
X74554480Y-164329420D01*
G75*
G02*
X74629480Y-164404420I0J-75000D01*
G01*
X74629480Y-164554420D01*
G75*
G02*
X74554480Y-164629420I-75000J0D01*
G01*
X73229480Y-164629420D01*
G75*
G02*
X73154480Y-164554420I0J75000D01*
G01*
G37*
%TD.AperFunction*%
%TO.P,REF\u002A\u002A,34*%
%TA.AperFunction,SMDPad,CuDef*%
G36*
G01*
X73154480Y-165054420D02*
X73154480Y-164904420D01*
G75*
G02*
X73229480Y-164829420I75000J0D01*
G01*
X74554480Y-164829420D01*
G75*
G02*
X74629480Y-164904420I0J-75000D01*
G01*
X74629480Y-165054420D01*
G75*
G02*
X74554480Y-165129420I-75000J0D01*
G01*
X73229480Y-165129420D01*
G75*
G02*
X73154480Y-165054420I0J75000D01*
G01*
G37*
%TD.AperFunction*%
%TO.P,REF\u002A\u002A,33*%
%TA.AperFunction,SMDPad,CuDef*%
G36*
G01*
X73154480Y-165554420D02*
X73154480Y-165404420D01*
G75*
G02*
X73229480Y-165329420I75000J0D01*
G01*
X74554480Y-165329420D01*
G75*
G02*
X74629480Y-165404420I0J-75000D01*
G01*
X74629480Y-165554420D01*
G75*
G02*
X74554480Y-165629420I-75000J0D01*
G01*
X73229480Y-165629420D01*
G75*
G02*
X73154480Y-165554420I0J75000D01*
G01*
G37*
%TD.AperFunction*%
%TO.P,REF\u002A\u002A,32*%
%TA.AperFunction,SMDPad,CuDef*%
G36*
G01*
X71829480Y-168054420D02*
X71829480Y-166729420D01*
G75*
G02*
X71904480Y-166654420I75000J0D01*
G01*
X72054480Y-166654420D01*
G75*
G02*
X72129480Y-166729420I0J-75000D01*
G01*
X72129480Y-168054420D01*
G75*
G02*
X72054480Y-168129420I-75000J0D01*
G01*
X71904480Y-168129420D01*
G75*
G02*
X71829480Y-168054420I0J75000D01*
G01*
G37*
%TD.AperFunction*%
%TO.P,REF\u002A\u002A,31*%
%TA.AperFunction,SMDPad,CuDef*%
G36*
G01*
X71329480Y-168054420D02*
X71329480Y-166729420D01*
G75*
G02*
X71404480Y-166654420I75000J0D01*
G01*
X71554480Y-166654420D01*
G75*
G02*
X71629480Y-166729420I0J-75000D01*
G01*
X71629480Y-168054420D01*
G75*
G02*
X71554480Y-168129420I-75000J0D01*
G01*
X71404480Y-168129420D01*
G75*
G02*
X71329480Y-168054420I0J75000D01*
G01*
G37*
%TD.AperFunction*%
%TO.P,REF\u002A\u002A,30*%
%TA.AperFunction,SMDPad,CuDef*%
G36*
G01*
X70829480Y-168054420D02*
X70829480Y-166729420D01*
G75*
G02*
X70904480Y-166654420I75000J0D01*
G01*
X71054480Y-166654420D01*
G75*
G02*
X71129480Y-166729420I0J-75000D01*
G01*
X71129480Y-168054420D01*
G75*
G02*
X71054480Y-168129420I-75000J0D01*
G01*
X70904480Y-168129420D01*
G75*
G02*
X70829480Y-168054420I0J75000D01*
G01*
G37*
%TD.AperFunction*%
%TO.P,REF\u002A\u002A,29*%
%TA.AperFunction,SMDPad,CuDef*%
G36*
G01*
X70329480Y-168054420D02*
X70329480Y-166729420D01*
G75*
G02*
X70404480Y-166654420I75000J0D01*
G01*
X70554480Y-166654420D01*
G75*
G02*
X70629480Y-166729420I0J-75000D01*
G01*
X70629480Y-168054420D01*
G75*
G02*
X70554480Y-168129420I-75000J0D01*
G01*
X70404480Y-168129420D01*
G75*
G02*
X70329480Y-168054420I0J75000D01*
G01*
G37*
%TD.AperFunction*%
%TO.P,REF\u002A\u002A,28*%
%TA.AperFunction,SMDPad,CuDef*%
G36*
G01*
X69829480Y-168054420D02*
X69829480Y-166729420D01*
G75*
G02*
X69904480Y-166654420I75000J0D01*
G01*
X70054480Y-166654420D01*
G75*
G02*
X70129480Y-166729420I0J-75000D01*
G01*
X70129480Y-168054420D01*
G75*
G02*
X70054480Y-168129420I-75000J0D01*
G01*
X69904480Y-168129420D01*
G75*
G02*
X69829480Y-168054420I0J75000D01*
G01*
G37*
%TD.AperFunction*%
%TO.P,REF\u002A\u002A,27*%
%TA.AperFunction,SMDPad,CuDef*%
G36*
G01*
X69329480Y-168054420D02*
X69329480Y-166729420D01*
G75*
G02*
X69404480Y-166654420I75000J0D01*
G01*
X69554480Y-166654420D01*
G75*
G02*
X69629480Y-166729420I0J-75000D01*
G01*
X69629480Y-168054420D01*
G75*
G02*
X69554480Y-168129420I-75000J0D01*
G01*
X69404480Y-168129420D01*
G75*
G02*
X69329480Y-168054420I0J75000D01*
G01*
G37*
%TD.AperFunction*%
%TO.P,REF\u002A\u002A,26*%
%TA.AperFunction,SMDPad,CuDef*%
G36*
G01*
X68829480Y-168054420D02*
X68829480Y-166729420D01*
G75*
G02*
X68904480Y-166654420I75000J0D01*
G01*
X69054480Y-166654420D01*
G75*
G02*
X69129480Y-166729420I0J-75000D01*
G01*
X69129480Y-168054420D01*
G75*
G02*
X69054480Y-168129420I-75000J0D01*
G01*
X68904480Y-168129420D01*
G75*
G02*
X68829480Y-168054420I0J75000D01*
G01*
G37*
%TD.AperFunction*%
%TO.P,REF\u002A\u002A,25*%
%TA.AperFunction,SMDPad,CuDef*%
G36*
G01*
X68329480Y-168054420D02*
X68329480Y-166729420D01*
G75*
G02*
X68404480Y-166654420I75000J0D01*
G01*
X68554480Y-166654420D01*
G75*
G02*
X68629480Y-166729420I0J-75000D01*
G01*
X68629480Y-168054420D01*
G75*
G02*
X68554480Y-168129420I-75000J0D01*
G01*
X68404480Y-168129420D01*
G75*
G02*
X68329480Y-168054420I0J75000D01*
G01*
G37*
%TD.AperFunction*%
%TO.P,REF\u002A\u002A,24*%
%TA.AperFunction,SMDPad,CuDef*%
G36*
G01*
X67829480Y-168054420D02*
X67829480Y-166729420D01*
G75*
G02*
X67904480Y-166654420I75000J0D01*
G01*
X68054480Y-166654420D01*
G75*
G02*
X68129480Y-166729420I0J-75000D01*
G01*
X68129480Y-168054420D01*
G75*
G02*
X68054480Y-168129420I-75000J0D01*
G01*
X67904480Y-168129420D01*
G75*
G02*
X67829480Y-168054420I0J75000D01*
G01*
G37*
%TD.AperFunction*%
%TO.P,REF\u002A\u002A,23*%
%TA.AperFunction,SMDPad,CuDef*%
G36*
G01*
X67329480Y-168054420D02*
X67329480Y-166729420D01*
G75*
G02*
X67404480Y-166654420I75000J0D01*
G01*
X67554480Y-166654420D01*
G75*
G02*
X67629480Y-166729420I0J-75000D01*
G01*
X67629480Y-168054420D01*
G75*
G02*
X67554480Y-168129420I-75000J0D01*
G01*
X67404480Y-168129420D01*
G75*
G02*
X67329480Y-168054420I0J75000D01*
G01*
G37*
%TD.AperFunction*%
%TO.P,REF\u002A\u002A,22*%
%TA.AperFunction,SMDPad,CuDef*%
G36*
G01*
X66829480Y-168054420D02*
X66829480Y-166729420D01*
G75*
G02*
X66904480Y-166654420I75000J0D01*
G01*
X67054480Y-166654420D01*
G75*
G02*
X67129480Y-166729420I0J-75000D01*
G01*
X67129480Y-168054420D01*
G75*
G02*
X67054480Y-168129420I-75000J0D01*
G01*
X66904480Y-168129420D01*
G75*
G02*
X66829480Y-168054420I0J75000D01*
G01*
G37*
%TD.AperFunction*%
%TO.P,REF\u002A\u002A,21*%
%TA.AperFunction,SMDPad,CuDef*%
G36*
G01*
X66329480Y-168054420D02*
X66329480Y-166729420D01*
G75*
G02*
X66404480Y-166654420I75000J0D01*
G01*
X66554480Y-166654420D01*
G75*
G02*
X66629480Y-166729420I0J-75000D01*
G01*
X66629480Y-168054420D01*
G75*
G02*
X66554480Y-168129420I-75000J0D01*
G01*
X66404480Y-168129420D01*
G75*
G02*
X66329480Y-168054420I0J75000D01*
G01*
G37*
%TD.AperFunction*%
%TO.P,REF\u002A\u002A,20*%
%TA.AperFunction,SMDPad,CuDef*%
G36*
G01*
X65829480Y-168054420D02*
X65829480Y-166729420D01*
G75*
G02*
X65904480Y-166654420I75000J0D01*
G01*
X66054480Y-166654420D01*
G75*
G02*
X66129480Y-166729420I0J-75000D01*
G01*
X66129480Y-168054420D01*
G75*
G02*
X66054480Y-168129420I-75000J0D01*
G01*
X65904480Y-168129420D01*
G75*
G02*
X65829480Y-168054420I0J75000D01*
G01*
G37*
%TD.AperFunction*%
%TO.P,REF\u002A\u002A,19*%
%TA.AperFunction,SMDPad,CuDef*%
G36*
G01*
X65329480Y-168054420D02*
X65329480Y-166729420D01*
G75*
G02*
X65404480Y-166654420I75000J0D01*
G01*
X65554480Y-166654420D01*
G75*
G02*
X65629480Y-166729420I0J-75000D01*
G01*
X65629480Y-168054420D01*
G75*
G02*
X65554480Y-168129420I-75000J0D01*
G01*
X65404480Y-168129420D01*
G75*
G02*
X65329480Y-168054420I0J75000D01*
G01*
G37*
%TD.AperFunction*%
%TO.P,REF\u002A\u002A,18*%
%TA.AperFunction,SMDPad,CuDef*%
G36*
G01*
X64829480Y-168054420D02*
X64829480Y-166729420D01*
G75*
G02*
X64904480Y-166654420I75000J0D01*
G01*
X65054480Y-166654420D01*
G75*
G02*
X65129480Y-166729420I0J-75000D01*
G01*
X65129480Y-168054420D01*
G75*
G02*
X65054480Y-168129420I-75000J0D01*
G01*
X64904480Y-168129420D01*
G75*
G02*
X64829480Y-168054420I0J75000D01*
G01*
G37*
%TD.AperFunction*%
%TO.P,REF\u002A\u002A,17*%
%TA.AperFunction,SMDPad,CuDef*%
G36*
G01*
X64329480Y-168054420D02*
X64329480Y-166729420D01*
G75*
G02*
X64404480Y-166654420I75000J0D01*
G01*
X64554480Y-166654420D01*
G75*
G02*
X64629480Y-166729420I0J-75000D01*
G01*
X64629480Y-168054420D01*
G75*
G02*
X64554480Y-168129420I-75000J0D01*
G01*
X64404480Y-168129420D01*
G75*
G02*
X64329480Y-168054420I0J75000D01*
G01*
G37*
%TD.AperFunction*%
%TO.P,REF\u002A\u002A,16*%
%TA.AperFunction,SMDPad,CuDef*%
G36*
G01*
X61829480Y-165554420D02*
X61829480Y-165404420D01*
G75*
G02*
X61904480Y-165329420I75000J0D01*
G01*
X63229480Y-165329420D01*
G75*
G02*
X63304480Y-165404420I0J-75000D01*
G01*
X63304480Y-165554420D01*
G75*
G02*
X63229480Y-165629420I-75000J0D01*
G01*
X61904480Y-165629420D01*
G75*
G02*
X61829480Y-165554420I0J75000D01*
G01*
G37*
%TD.AperFunction*%
%TO.P,REF\u002A\u002A,15*%
%TA.AperFunction,SMDPad,CuDef*%
G36*
G01*
X61829480Y-165054420D02*
X61829480Y-164904420D01*
G75*
G02*
X61904480Y-164829420I75000J0D01*
G01*
X63229480Y-164829420D01*
G75*
G02*
X63304480Y-164904420I0J-75000D01*
G01*
X63304480Y-165054420D01*
G75*
G02*
X63229480Y-165129420I-75000J0D01*
G01*
X61904480Y-165129420D01*
G75*
G02*
X61829480Y-165054420I0J75000D01*
G01*
G37*
%TD.AperFunction*%
%TO.P,REF\u002A\u002A,14*%
%TA.AperFunction,SMDPad,CuDef*%
G36*
G01*
X61829480Y-164554420D02*
X61829480Y-164404420D01*
G75*
G02*
X61904480Y-164329420I75000J0D01*
G01*
X63229480Y-164329420D01*
G75*
G02*
X63304480Y-164404420I0J-75000D01*
G01*
X63304480Y-164554420D01*
G75*
G02*
X63229480Y-164629420I-75000J0D01*
G01*
X61904480Y-164629420D01*
G75*
G02*
X61829480Y-164554420I0J75000D01*
G01*
G37*
%TD.AperFunction*%
%TO.P,REF\u002A\u002A,13*%
%TA.AperFunction,SMDPad,CuDef*%
G36*
G01*
X61829480Y-164054420D02*
X61829480Y-163904420D01*
G75*
G02*
X61904480Y-163829420I75000J0D01*
G01*
X63229480Y-163829420D01*
G75*
G02*
X63304480Y-163904420I0J-75000D01*
G01*
X63304480Y-164054420D01*
G75*
G02*
X63229480Y-164129420I-75000J0D01*
G01*
X61904480Y-164129420D01*
G75*
G02*
X61829480Y-164054420I0J75000D01*
G01*
G37*
%TD.AperFunction*%
%TO.P,REF\u002A\u002A,12*%
%TA.AperFunction,SMDPad,CuDef*%
G36*
G01*
X61829480Y-163554420D02*
X61829480Y-163404420D01*
G75*
G02*
X61904480Y-163329420I75000J0D01*
G01*
X63229480Y-163329420D01*
G75*
G02*
X63304480Y-163404420I0J-75000D01*
G01*
X63304480Y-163554420D01*
G75*
G02*
X63229480Y-163629420I-75000J0D01*
G01*
X61904480Y-163629420D01*
G75*
G02*
X61829480Y-163554420I0J75000D01*
G01*
G37*
%TD.AperFunction*%
%TO.P,REF\u002A\u002A,11*%
%TA.AperFunction,SMDPad,CuDef*%
G36*
G01*
X61829480Y-163054420D02*
X61829480Y-162904420D01*
G75*
G02*
X61904480Y-162829420I75000J0D01*
G01*
X63229480Y-162829420D01*
G75*
G02*
X63304480Y-162904420I0J-75000D01*
G01*
X63304480Y-163054420D01*
G75*
G02*
X63229480Y-163129420I-75000J0D01*
G01*
X61904480Y-163129420D01*
G75*
G02*
X61829480Y-163054420I0J75000D01*
G01*
G37*
%TD.AperFunction*%
%TO.P,REF\u002A\u002A,10*%
%TA.AperFunction,SMDPad,CuDef*%
G36*
G01*
X61829480Y-162554420D02*
X61829480Y-162404420D01*
G75*
G02*
X61904480Y-162329420I75000J0D01*
G01*
X63229480Y-162329420D01*
G75*
G02*
X63304480Y-162404420I0J-75000D01*
G01*
X63304480Y-162554420D01*
G75*
G02*
X63229480Y-162629420I-75000J0D01*
G01*
X61904480Y-162629420D01*
G75*
G02*
X61829480Y-162554420I0J75000D01*
G01*
G37*
%TD.AperFunction*%
%TO.P,REF\u002A\u002A,9*%
%TA.AperFunction,SMDPad,CuDef*%
G36*
G01*
X61829480Y-162054420D02*
X61829480Y-161904420D01*
G75*
G02*
X61904480Y-161829420I75000J0D01*
G01*
X63229480Y-161829420D01*
G75*
G02*
X63304480Y-161904420I0J-75000D01*
G01*
X63304480Y-162054420D01*
G75*
G02*
X63229480Y-162129420I-75000J0D01*
G01*
X61904480Y-162129420D01*
G75*
G02*
X61829480Y-162054420I0J75000D01*
G01*
G37*
%TD.AperFunction*%
%TO.P,REF\u002A\u002A,8*%
%TA.AperFunction,SMDPad,CuDef*%
G36*
G01*
X61829480Y-161554420D02*
X61829480Y-161404420D01*
G75*
G02*
X61904480Y-161329420I75000J0D01*
G01*
X63229480Y-161329420D01*
G75*
G02*
X63304480Y-161404420I0J-75000D01*
G01*
X63304480Y-161554420D01*
G75*
G02*
X63229480Y-161629420I-75000J0D01*
G01*
X61904480Y-161629420D01*
G75*
G02*
X61829480Y-161554420I0J75000D01*
G01*
G37*
%TD.AperFunction*%
%TO.P,REF\u002A\u002A,7*%
%TA.AperFunction,SMDPad,CuDef*%
G36*
G01*
X61829480Y-161054420D02*
X61829480Y-160904420D01*
G75*
G02*
X61904480Y-160829420I75000J0D01*
G01*
X63229480Y-160829420D01*
G75*
G02*
X63304480Y-160904420I0J-75000D01*
G01*
X63304480Y-161054420D01*
G75*
G02*
X63229480Y-161129420I-75000J0D01*
G01*
X61904480Y-161129420D01*
G75*
G02*
X61829480Y-161054420I0J75000D01*
G01*
G37*
%TD.AperFunction*%
%TO.P,REF\u002A\u002A,6*%
%TA.AperFunction,SMDPad,CuDef*%
G36*
G01*
X61829480Y-160554420D02*
X61829480Y-160404420D01*
G75*
G02*
X61904480Y-160329420I75000J0D01*
G01*
X63229480Y-160329420D01*
G75*
G02*
X63304480Y-160404420I0J-75000D01*
G01*
X63304480Y-160554420D01*
G75*
G02*
X63229480Y-160629420I-75000J0D01*
G01*
X61904480Y-160629420D01*
G75*
G02*
X61829480Y-160554420I0J75000D01*
G01*
G37*
%TD.AperFunction*%
%TO.P,REF\u002A\u002A,5*%
%TA.AperFunction,SMDPad,CuDef*%
G36*
G01*
X61829480Y-160054420D02*
X61829480Y-159904420D01*
G75*
G02*
X61904480Y-159829420I75000J0D01*
G01*
X63229480Y-159829420D01*
G75*
G02*
X63304480Y-159904420I0J-75000D01*
G01*
X63304480Y-160054420D01*
G75*
G02*
X63229480Y-160129420I-75000J0D01*
G01*
X61904480Y-160129420D01*
G75*
G02*
X61829480Y-160054420I0J75000D01*
G01*
G37*
%TD.AperFunction*%
%TO.P,REF\u002A\u002A,4*%
%TA.AperFunction,SMDPad,CuDef*%
G36*
G01*
X61829480Y-159554420D02*
X61829480Y-159404420D01*
G75*
G02*
X61904480Y-159329420I75000J0D01*
G01*
X63229480Y-159329420D01*
G75*
G02*
X63304480Y-159404420I0J-75000D01*
G01*
X63304480Y-159554420D01*
G75*
G02*
X63229480Y-159629420I-75000J0D01*
G01*
X61904480Y-159629420D01*
G75*
G02*
X61829480Y-159554420I0J75000D01*
G01*
G37*
%TD.AperFunction*%
%TO.P,REF\u002A\u002A,3*%
%TA.AperFunction,SMDPad,CuDef*%
G36*
G01*
X61829480Y-159054420D02*
X61829480Y-158904420D01*
G75*
G02*
X61904480Y-158829420I75000J0D01*
G01*
X63229480Y-158829420D01*
G75*
G02*
X63304480Y-158904420I0J-75000D01*
G01*
X63304480Y-159054420D01*
G75*
G02*
X63229480Y-159129420I-75000J0D01*
G01*
X61904480Y-159129420D01*
G75*
G02*
X61829480Y-159054420I0J75000D01*
G01*
G37*
%TD.AperFunction*%
%TO.P,REF\u002A\u002A,2*%
%TA.AperFunction,SMDPad,CuDef*%
G36*
G01*
X61829480Y-158554420D02*
X61829480Y-158404420D01*
G75*
G02*
X61904480Y-158329420I75000J0D01*
G01*
X63229480Y-158329420D01*
G75*
G02*
X63304480Y-158404420I0J-75000D01*
G01*
X63304480Y-158554420D01*
G75*
G02*
X63229480Y-158629420I-75000J0D01*
G01*
X61904480Y-158629420D01*
G75*
G02*
X61829480Y-158554420I0J75000D01*
G01*
G37*
%TD.AperFunction*%
%TO.P,REF\u002A\u002A,1*%
%TA.AperFunction,SMDPad,CuDef*%
G36*
G01*
X61829480Y-158054420D02*
X61829480Y-157904420D01*
G75*
G02*
X61904480Y-157829420I75000J0D01*
G01*
X63229480Y-157829420D01*
G75*
G02*
X63304480Y-157904420I0J-75000D01*
G01*
X63304480Y-158054420D01*
G75*
G02*
X63229480Y-158129420I-75000J0D01*
G01*
X61904480Y-158129420D01*
G75*
G02*
X61829480Y-158054420I0J75000D01*
G01*
G37*
%TD.AperFunction*%
%TD*%
%TO.P,REF\u002A\u002A,48*%
%TO.N,N/C*%
%TA.AperFunction,SMDPad,CuDef*%
G36*
G01*
X65075480Y-114549040D02*
X65075480Y-113224040D01*
G75*
G02*
X65150480Y-113149040I75000J0D01*
G01*
X65300480Y-113149040D01*
G75*
G02*
X65375480Y-113224040I0J-75000D01*
G01*
X65375480Y-114549040D01*
G75*
G02*
X65300480Y-114624040I-75000J0D01*
G01*
X65150480Y-114624040D01*
G75*
G02*
X65075480Y-114549040I0J75000D01*
G01*
G37*
%TD.AperFunction*%
%TO.P,REF\u002A\u002A,47*%
%TA.AperFunction,SMDPad,CuDef*%
G36*
G01*
X65575480Y-114549040D02*
X65575480Y-113224040D01*
G75*
G02*
X65650480Y-113149040I75000J0D01*
G01*
X65800480Y-113149040D01*
G75*
G02*
X65875480Y-113224040I0J-75000D01*
G01*
X65875480Y-114549040D01*
G75*
G02*
X65800480Y-114624040I-75000J0D01*
G01*
X65650480Y-114624040D01*
G75*
G02*
X65575480Y-114549040I0J75000D01*
G01*
G37*
%TD.AperFunction*%
%TO.P,REF\u002A\u002A,46*%
%TA.AperFunction,SMDPad,CuDef*%
G36*
G01*
X66075480Y-114549040D02*
X66075480Y-113224040D01*
G75*
G02*
X66150480Y-113149040I75000J0D01*
G01*
X66300480Y-113149040D01*
G75*
G02*
X66375480Y-113224040I0J-75000D01*
G01*
X66375480Y-114549040D01*
G75*
G02*
X66300480Y-114624040I-75000J0D01*
G01*
X66150480Y-114624040D01*
G75*
G02*
X66075480Y-114549040I0J75000D01*
G01*
G37*
%TD.AperFunction*%
%TO.P,REF\u002A\u002A,45*%
%TA.AperFunction,SMDPad,CuDef*%
G36*
G01*
X66575480Y-114549040D02*
X66575480Y-113224040D01*
G75*
G02*
X66650480Y-113149040I75000J0D01*
G01*
X66800480Y-113149040D01*
G75*
G02*
X66875480Y-113224040I0J-75000D01*
G01*
X66875480Y-114549040D01*
G75*
G02*
X66800480Y-114624040I-75000J0D01*
G01*
X66650480Y-114624040D01*
G75*
G02*
X66575480Y-114549040I0J75000D01*
G01*
G37*
%TD.AperFunction*%
%TO.P,REF\u002A\u002A,44*%
%TA.AperFunction,SMDPad,CuDef*%
G36*
G01*
X67075480Y-114549040D02*
X67075480Y-113224040D01*
G75*
G02*
X67150480Y-113149040I75000J0D01*
G01*
X67300480Y-113149040D01*
G75*
G02*
X67375480Y-113224040I0J-75000D01*
G01*
X67375480Y-114549040D01*
G75*
G02*
X67300480Y-114624040I-75000J0D01*
G01*
X67150480Y-114624040D01*
G75*
G02*
X67075480Y-114549040I0J75000D01*
G01*
G37*
%TD.AperFunction*%
%TO.P,REF\u002A\u002A,43*%
%TA.AperFunction,SMDPad,CuDef*%
G36*
G01*
X67575480Y-114549040D02*
X67575480Y-113224040D01*
G75*
G02*
X67650480Y-113149040I75000J0D01*
G01*
X67800480Y-113149040D01*
G75*
G02*
X67875480Y-113224040I0J-75000D01*
G01*
X67875480Y-114549040D01*
G75*
G02*
X67800480Y-114624040I-75000J0D01*
G01*
X67650480Y-114624040D01*
G75*
G02*
X67575480Y-114549040I0J75000D01*
G01*
G37*
%TD.AperFunction*%
%TO.P,REF\u002A\u002A,42*%
%TA.AperFunction,SMDPad,CuDef*%
G36*
G01*
X68075480Y-114549040D02*
X68075480Y-113224040D01*
G75*
G02*
X68150480Y-113149040I75000J0D01*
G01*
X68300480Y-113149040D01*
G75*
G02*
X68375480Y-113224040I0J-75000D01*
G01*
X68375480Y-114549040D01*
G75*
G02*
X68300480Y-114624040I-75000J0D01*
G01*
X68150480Y-114624040D01*
G75*
G02*
X68075480Y-114549040I0J75000D01*
G01*
G37*
%TD.AperFunction*%
%TO.P,REF\u002A\u002A,41*%
%TA.AperFunction,SMDPad,CuDef*%
G36*
G01*
X68575480Y-114549040D02*
X68575480Y-113224040D01*
G75*
G02*
X68650480Y-113149040I75000J0D01*
G01*
X68800480Y-113149040D01*
G75*
G02*
X68875480Y-113224040I0J-75000D01*
G01*
X68875480Y-114549040D01*
G75*
G02*
X68800480Y-114624040I-75000J0D01*
G01*
X68650480Y-114624040D01*
G75*
G02*
X68575480Y-114549040I0J75000D01*
G01*
G37*
%TD.AperFunction*%
%TO.P,REF\u002A\u002A,40*%
%TA.AperFunction,SMDPad,CuDef*%
G36*
G01*
X69075480Y-114549040D02*
X69075480Y-113224040D01*
G75*
G02*
X69150480Y-113149040I75000J0D01*
G01*
X69300480Y-113149040D01*
G75*
G02*
X69375480Y-113224040I0J-75000D01*
G01*
X69375480Y-114549040D01*
G75*
G02*
X69300480Y-114624040I-75000J0D01*
G01*
X69150480Y-114624040D01*
G75*
G02*
X69075480Y-114549040I0J75000D01*
G01*
G37*
%TD.AperFunction*%
%TO.P,REF\u002A\u002A,39*%
%TA.AperFunction,SMDPad,CuDef*%
G36*
G01*
X69575480Y-114549040D02*
X69575480Y-113224040D01*
G75*
G02*
X69650480Y-113149040I75000J0D01*
G01*
X69800480Y-113149040D01*
G75*
G02*
X69875480Y-113224040I0J-75000D01*
G01*
X69875480Y-114549040D01*
G75*
G02*
X69800480Y-114624040I-75000J0D01*
G01*
X69650480Y-114624040D01*
G75*
G02*
X69575480Y-114549040I0J75000D01*
G01*
G37*
%TD.AperFunction*%
%TO.P,REF\u002A\u002A,38*%
%TA.AperFunction,SMDPad,CuDef*%
G36*
G01*
X70075480Y-114549040D02*
X70075480Y-113224040D01*
G75*
G02*
X70150480Y-113149040I75000J0D01*
G01*
X70300480Y-113149040D01*
G75*
G02*
X70375480Y-113224040I0J-75000D01*
G01*
X70375480Y-114549040D01*
G75*
G02*
X70300480Y-114624040I-75000J0D01*
G01*
X70150480Y-114624040D01*
G75*
G02*
X70075480Y-114549040I0J75000D01*
G01*
G37*
%TD.AperFunction*%
%TO.P,REF\u002A\u002A,37*%
%TA.AperFunction,SMDPad,CuDef*%
G36*
G01*
X70575480Y-114549040D02*
X70575480Y-113224040D01*
G75*
G02*
X70650480Y-113149040I75000J0D01*
G01*
X70800480Y-113149040D01*
G75*
G02*
X70875480Y-113224040I0J-75000D01*
G01*
X70875480Y-114549040D01*
G75*
G02*
X70800480Y-114624040I-75000J0D01*
G01*
X70650480Y-114624040D01*
G75*
G02*
X70575480Y-114549040I0J75000D01*
G01*
G37*
%TD.AperFunction*%
%TO.P,REF\u002A\u002A,36*%
%TA.AperFunction,SMDPad,CuDef*%
G36*
G01*
X71400480Y-115374040D02*
X71400480Y-115224040D01*
G75*
G02*
X71475480Y-115149040I75000J0D01*
G01*
X72800480Y-115149040D01*
G75*
G02*
X72875480Y-115224040I0J-75000D01*
G01*
X72875480Y-115374040D01*
G75*
G02*
X72800480Y-115449040I-75000J0D01*
G01*
X71475480Y-115449040D01*
G75*
G02*
X71400480Y-115374040I0J75000D01*
G01*
G37*
%TD.AperFunction*%
%TO.P,REF\u002A\u002A,35*%
%TA.AperFunction,SMDPad,CuDef*%
G36*
G01*
X71400480Y-115874040D02*
X71400480Y-115724040D01*
G75*
G02*
X71475480Y-115649040I75000J0D01*
G01*
X72800480Y-115649040D01*
G75*
G02*
X72875480Y-115724040I0J-75000D01*
G01*
X72875480Y-115874040D01*
G75*
G02*
X72800480Y-115949040I-75000J0D01*
G01*
X71475480Y-115949040D01*
G75*
G02*
X71400480Y-115874040I0J75000D01*
G01*
G37*
%TD.AperFunction*%
%TO.P,REF\u002A\u002A,34*%
%TA.AperFunction,SMDPad,CuDef*%
G36*
G01*
X71400480Y-116374040D02*
X71400480Y-116224040D01*
G75*
G02*
X71475480Y-116149040I75000J0D01*
G01*
X72800480Y-116149040D01*
G75*
G02*
X72875480Y-116224040I0J-75000D01*
G01*
X72875480Y-116374040D01*
G75*
G02*
X72800480Y-116449040I-75000J0D01*
G01*
X71475480Y-116449040D01*
G75*
G02*
X71400480Y-116374040I0J75000D01*
G01*
G37*
%TD.AperFunction*%
%TO.P,REF\u002A\u002A,33*%
%TA.AperFunction,SMDPad,CuDef*%
G36*
G01*
X71400480Y-116874040D02*
X71400480Y-116724040D01*
G75*
G02*
X71475480Y-116649040I75000J0D01*
G01*
X72800480Y-116649040D01*
G75*
G02*
X72875480Y-116724040I0J-75000D01*
G01*
X72875480Y-116874040D01*
G75*
G02*
X72800480Y-116949040I-75000J0D01*
G01*
X71475480Y-116949040D01*
G75*
G02*
X71400480Y-116874040I0J75000D01*
G01*
G37*
%TD.AperFunction*%
%TO.P,REF\u002A\u002A,32*%
%TA.AperFunction,SMDPad,CuDef*%
G36*
G01*
X71400480Y-117374040D02*
X71400480Y-117224040D01*
G75*
G02*
X71475480Y-117149040I75000J0D01*
G01*
X72800480Y-117149040D01*
G75*
G02*
X72875480Y-117224040I0J-75000D01*
G01*
X72875480Y-117374040D01*
G75*
G02*
X72800480Y-117449040I-75000J0D01*
G01*
X71475480Y-117449040D01*
G75*
G02*
X71400480Y-117374040I0J75000D01*
G01*
G37*
%TD.AperFunction*%
%TO.P,REF\u002A\u002A,31*%
%TA.AperFunction,SMDPad,CuDef*%
G36*
G01*
X71400480Y-117874040D02*
X71400480Y-117724040D01*
G75*
G02*
X71475480Y-117649040I75000J0D01*
G01*
X72800480Y-117649040D01*
G75*
G02*
X72875480Y-117724040I0J-75000D01*
G01*
X72875480Y-117874040D01*
G75*
G02*
X72800480Y-117949040I-75000J0D01*
G01*
X71475480Y-117949040D01*
G75*
G02*
X71400480Y-117874040I0J75000D01*
G01*
G37*
%TD.AperFunction*%
%TO.P,REF\u002A\u002A,30*%
%TA.AperFunction,SMDPad,CuDef*%
G36*
G01*
X71400480Y-118374040D02*
X71400480Y-118224040D01*
G75*
G02*
X71475480Y-118149040I75000J0D01*
G01*
X72800480Y-118149040D01*
G75*
G02*
X72875480Y-118224040I0J-75000D01*
G01*
X72875480Y-118374040D01*
G75*
G02*
X72800480Y-118449040I-75000J0D01*
G01*
X71475480Y-118449040D01*
G75*
G02*
X71400480Y-118374040I0J75000D01*
G01*
G37*
%TD.AperFunction*%
%TO.P,REF\u002A\u002A,29*%
%TA.AperFunction,SMDPad,CuDef*%
G36*
G01*
X71400480Y-118874040D02*
X71400480Y-118724040D01*
G75*
G02*
X71475480Y-118649040I75000J0D01*
G01*
X72800480Y-118649040D01*
G75*
G02*
X72875480Y-118724040I0J-75000D01*
G01*
X72875480Y-118874040D01*
G75*
G02*
X72800480Y-118949040I-75000J0D01*
G01*
X71475480Y-118949040D01*
G75*
G02*
X71400480Y-118874040I0J75000D01*
G01*
G37*
%TD.AperFunction*%
%TO.P,REF\u002A\u002A,28*%
%TA.AperFunction,SMDPad,CuDef*%
G36*
G01*
X71400480Y-119374040D02*
X71400480Y-119224040D01*
G75*
G02*
X71475480Y-119149040I75000J0D01*
G01*
X72800480Y-119149040D01*
G75*
G02*
X72875480Y-119224040I0J-75000D01*
G01*
X72875480Y-119374040D01*
G75*
G02*
X72800480Y-119449040I-75000J0D01*
G01*
X71475480Y-119449040D01*
G75*
G02*
X71400480Y-119374040I0J75000D01*
G01*
G37*
%TD.AperFunction*%
%TO.P,REF\u002A\u002A,27*%
%TA.AperFunction,SMDPad,CuDef*%
G36*
G01*
X71400480Y-119874040D02*
X71400480Y-119724040D01*
G75*
G02*
X71475480Y-119649040I75000J0D01*
G01*
X72800480Y-119649040D01*
G75*
G02*
X72875480Y-119724040I0J-75000D01*
G01*
X72875480Y-119874040D01*
G75*
G02*
X72800480Y-119949040I-75000J0D01*
G01*
X71475480Y-119949040D01*
G75*
G02*
X71400480Y-119874040I0J75000D01*
G01*
G37*
%TD.AperFunction*%
%TO.P,REF\u002A\u002A,26*%
%TA.AperFunction,SMDPad,CuDef*%
G36*
G01*
X71400480Y-120374040D02*
X71400480Y-120224040D01*
G75*
G02*
X71475480Y-120149040I75000J0D01*
G01*
X72800480Y-120149040D01*
G75*
G02*
X72875480Y-120224040I0J-75000D01*
G01*
X72875480Y-120374040D01*
G75*
G02*
X72800480Y-120449040I-75000J0D01*
G01*
X71475480Y-120449040D01*
G75*
G02*
X71400480Y-120374040I0J75000D01*
G01*
G37*
%TD.AperFunction*%
%TO.P,REF\u002A\u002A,25*%
%TA.AperFunction,SMDPad,CuDef*%
G36*
G01*
X71400480Y-120874040D02*
X71400480Y-120724040D01*
G75*
G02*
X71475480Y-120649040I75000J0D01*
G01*
X72800480Y-120649040D01*
G75*
G02*
X72875480Y-120724040I0J-75000D01*
G01*
X72875480Y-120874040D01*
G75*
G02*
X72800480Y-120949040I-75000J0D01*
G01*
X71475480Y-120949040D01*
G75*
G02*
X71400480Y-120874040I0J75000D01*
G01*
G37*
%TD.AperFunction*%
%TO.P,REF\u002A\u002A,24*%
%TA.AperFunction,SMDPad,CuDef*%
G36*
G01*
X70575480Y-122874040D02*
X70575480Y-121549040D01*
G75*
G02*
X70650480Y-121474040I75000J0D01*
G01*
X70800480Y-121474040D01*
G75*
G02*
X70875480Y-121549040I0J-75000D01*
G01*
X70875480Y-122874040D01*
G75*
G02*
X70800480Y-122949040I-75000J0D01*
G01*
X70650480Y-122949040D01*
G75*
G02*
X70575480Y-122874040I0J75000D01*
G01*
G37*
%TD.AperFunction*%
%TO.P,REF\u002A\u002A,23*%
%TA.AperFunction,SMDPad,CuDef*%
G36*
G01*
X70075480Y-122874040D02*
X70075480Y-121549040D01*
G75*
G02*
X70150480Y-121474040I75000J0D01*
G01*
X70300480Y-121474040D01*
G75*
G02*
X70375480Y-121549040I0J-75000D01*
G01*
X70375480Y-122874040D01*
G75*
G02*
X70300480Y-122949040I-75000J0D01*
G01*
X70150480Y-122949040D01*
G75*
G02*
X70075480Y-122874040I0J75000D01*
G01*
G37*
%TD.AperFunction*%
%TO.P,REF\u002A\u002A,22*%
%TA.AperFunction,SMDPad,CuDef*%
G36*
G01*
X69575480Y-122874040D02*
X69575480Y-121549040D01*
G75*
G02*
X69650480Y-121474040I75000J0D01*
G01*
X69800480Y-121474040D01*
G75*
G02*
X69875480Y-121549040I0J-75000D01*
G01*
X69875480Y-122874040D01*
G75*
G02*
X69800480Y-122949040I-75000J0D01*
G01*
X69650480Y-122949040D01*
G75*
G02*
X69575480Y-122874040I0J75000D01*
G01*
G37*
%TD.AperFunction*%
%TO.P,REF\u002A\u002A,21*%
%TA.AperFunction,SMDPad,CuDef*%
G36*
G01*
X69075480Y-122874040D02*
X69075480Y-121549040D01*
G75*
G02*
X69150480Y-121474040I75000J0D01*
G01*
X69300480Y-121474040D01*
G75*
G02*
X69375480Y-121549040I0J-75000D01*
G01*
X69375480Y-122874040D01*
G75*
G02*
X69300480Y-122949040I-75000J0D01*
G01*
X69150480Y-122949040D01*
G75*
G02*
X69075480Y-122874040I0J75000D01*
G01*
G37*
%TD.AperFunction*%
%TO.P,REF\u002A\u002A,20*%
%TA.AperFunction,SMDPad,CuDef*%
G36*
G01*
X68575480Y-122874040D02*
X68575480Y-121549040D01*
G75*
G02*
X68650480Y-121474040I75000J0D01*
G01*
X68800480Y-121474040D01*
G75*
G02*
X68875480Y-121549040I0J-75000D01*
G01*
X68875480Y-122874040D01*
G75*
G02*
X68800480Y-122949040I-75000J0D01*
G01*
X68650480Y-122949040D01*
G75*
G02*
X68575480Y-122874040I0J75000D01*
G01*
G37*
%TD.AperFunction*%
%TO.P,REF\u002A\u002A,19*%
%TA.AperFunction,SMDPad,CuDef*%
G36*
G01*
X68075480Y-122874040D02*
X68075480Y-121549040D01*
G75*
G02*
X68150480Y-121474040I75000J0D01*
G01*
X68300480Y-121474040D01*
G75*
G02*
X68375480Y-121549040I0J-75000D01*
G01*
X68375480Y-122874040D01*
G75*
G02*
X68300480Y-122949040I-75000J0D01*
G01*
X68150480Y-122949040D01*
G75*
G02*
X68075480Y-122874040I0J75000D01*
G01*
G37*
%TD.AperFunction*%
%TO.P,REF\u002A\u002A,18*%
%TA.AperFunction,SMDPad,CuDef*%
G36*
G01*
X67575480Y-122874040D02*
X67575480Y-121549040D01*
G75*
G02*
X67650480Y-121474040I75000J0D01*
G01*
X67800480Y-121474040D01*
G75*
G02*
X67875480Y-121549040I0J-75000D01*
G01*
X67875480Y-122874040D01*
G75*
G02*
X67800480Y-122949040I-75000J0D01*
G01*
X67650480Y-122949040D01*
G75*
G02*
X67575480Y-122874040I0J75000D01*
G01*
G37*
%TD.AperFunction*%
%TO.P,REF\u002A\u002A,17*%
%TA.AperFunction,SMDPad,CuDef*%
G36*
G01*
X67075480Y-122874040D02*
X67075480Y-121549040D01*
G75*
G02*
X67150480Y-121474040I75000J0D01*
G01*
X67300480Y-121474040D01*
G75*
G02*
X67375480Y-121549040I0J-75000D01*
G01*
X67375480Y-122874040D01*
G75*
G02*
X67300480Y-122949040I-75000J0D01*
G01*
X67150480Y-122949040D01*
G75*
G02*
X67075480Y-122874040I0J75000D01*
G01*
G37*
%TD.AperFunction*%
%TO.P,REF\u002A\u002A,16*%
%TA.AperFunction,SMDPad,CuDef*%
G36*
G01*
X66575480Y-122874040D02*
X66575480Y-121549040D01*
G75*
G02*
X66650480Y-121474040I75000J0D01*
G01*
X66800480Y-121474040D01*
G75*
G02*
X66875480Y-121549040I0J-75000D01*
G01*
X66875480Y-122874040D01*
G75*
G02*
X66800480Y-122949040I-75000J0D01*
G01*
X66650480Y-122949040D01*
G75*
G02*
X66575480Y-122874040I0J75000D01*
G01*
G37*
%TD.AperFunction*%
%TO.P,REF\u002A\u002A,15*%
%TA.AperFunction,SMDPad,CuDef*%
G36*
G01*
X66075480Y-122874040D02*
X66075480Y-121549040D01*
G75*
G02*
X66150480Y-121474040I75000J0D01*
G01*
X66300480Y-121474040D01*
G75*
G02*
X66375480Y-121549040I0J-75000D01*
G01*
X66375480Y-122874040D01*
G75*
G02*
X66300480Y-122949040I-75000J0D01*
G01*
X66150480Y-122949040D01*
G75*
G02*
X66075480Y-122874040I0J75000D01*
G01*
G37*
%TD.AperFunction*%
%TO.P,REF\u002A\u002A,14*%
%TA.AperFunction,SMDPad,CuDef*%
G36*
G01*
X65575480Y-122874040D02*
X65575480Y-121549040D01*
G75*
G02*
X65650480Y-121474040I75000J0D01*
G01*
X65800480Y-121474040D01*
G75*
G02*
X65875480Y-121549040I0J-75000D01*
G01*
X65875480Y-122874040D01*
G75*
G02*
X65800480Y-122949040I-75000J0D01*
G01*
X65650480Y-122949040D01*
G75*
G02*
X65575480Y-122874040I0J75000D01*
G01*
G37*
%TD.AperFunction*%
%TO.P,REF\u002A\u002A,13*%
%TA.AperFunction,SMDPad,CuDef*%
G36*
G01*
X65075480Y-122874040D02*
X65075480Y-121549040D01*
G75*
G02*
X65150480Y-121474040I75000J0D01*
G01*
X65300480Y-121474040D01*
G75*
G02*
X65375480Y-121549040I0J-75000D01*
G01*
X65375480Y-122874040D01*
G75*
G02*
X65300480Y-122949040I-75000J0D01*
G01*
X65150480Y-122949040D01*
G75*
G02*
X65075480Y-122874040I0J75000D01*
G01*
G37*
%TD.AperFunction*%
%TO.P,REF\u002A\u002A,12*%
%TA.AperFunction,SMDPad,CuDef*%
G36*
G01*
X63075480Y-120874040D02*
X63075480Y-120724040D01*
G75*
G02*
X63150480Y-120649040I75000J0D01*
G01*
X64475480Y-120649040D01*
G75*
G02*
X64550480Y-120724040I0J-75000D01*
G01*
X64550480Y-120874040D01*
G75*
G02*
X64475480Y-120949040I-75000J0D01*
G01*
X63150480Y-120949040D01*
G75*
G02*
X63075480Y-120874040I0J75000D01*
G01*
G37*
%TD.AperFunction*%
%TO.P,REF\u002A\u002A,11*%
%TA.AperFunction,SMDPad,CuDef*%
G36*
G01*
X63075480Y-120374040D02*
X63075480Y-120224040D01*
G75*
G02*
X63150480Y-120149040I75000J0D01*
G01*
X64475480Y-120149040D01*
G75*
G02*
X64550480Y-120224040I0J-75000D01*
G01*
X64550480Y-120374040D01*
G75*
G02*
X64475480Y-120449040I-75000J0D01*
G01*
X63150480Y-120449040D01*
G75*
G02*
X63075480Y-120374040I0J75000D01*
G01*
G37*
%TD.AperFunction*%
%TO.P,REF\u002A\u002A,10*%
%TA.AperFunction,SMDPad,CuDef*%
G36*
G01*
X63075480Y-119874040D02*
X63075480Y-119724040D01*
G75*
G02*
X63150480Y-119649040I75000J0D01*
G01*
X64475480Y-119649040D01*
G75*
G02*
X64550480Y-119724040I0J-75000D01*
G01*
X64550480Y-119874040D01*
G75*
G02*
X64475480Y-119949040I-75000J0D01*
G01*
X63150480Y-119949040D01*
G75*
G02*
X63075480Y-119874040I0J75000D01*
G01*
G37*
%TD.AperFunction*%
%TO.P,REF\u002A\u002A,9*%
%TA.AperFunction,SMDPad,CuDef*%
G36*
G01*
X63075480Y-119374040D02*
X63075480Y-119224040D01*
G75*
G02*
X63150480Y-119149040I75000J0D01*
G01*
X64475480Y-119149040D01*
G75*
G02*
X64550480Y-119224040I0J-75000D01*
G01*
X64550480Y-119374040D01*
G75*
G02*
X64475480Y-119449040I-75000J0D01*
G01*
X63150480Y-119449040D01*
G75*
G02*
X63075480Y-119374040I0J75000D01*
G01*
G37*
%TD.AperFunction*%
%TO.P,REF\u002A\u002A,8*%
%TA.AperFunction,SMDPad,CuDef*%
G36*
G01*
X63075480Y-118874040D02*
X63075480Y-118724040D01*
G75*
G02*
X63150480Y-118649040I75000J0D01*
G01*
X64475480Y-118649040D01*
G75*
G02*
X64550480Y-118724040I0J-75000D01*
G01*
X64550480Y-118874040D01*
G75*
G02*
X64475480Y-118949040I-75000J0D01*
G01*
X63150480Y-118949040D01*
G75*
G02*
X63075480Y-118874040I0J75000D01*
G01*
G37*
%TD.AperFunction*%
%TO.P,REF\u002A\u002A,7*%
%TA.AperFunction,SMDPad,CuDef*%
G36*
G01*
X63075480Y-118374040D02*
X63075480Y-118224040D01*
G75*
G02*
X63150480Y-118149040I75000J0D01*
G01*
X64475480Y-118149040D01*
G75*
G02*
X64550480Y-118224040I0J-75000D01*
G01*
X64550480Y-118374040D01*
G75*
G02*
X64475480Y-118449040I-75000J0D01*
G01*
X63150480Y-118449040D01*
G75*
G02*
X63075480Y-118374040I0J75000D01*
G01*
G37*
%TD.AperFunction*%
%TO.P,REF\u002A\u002A,6*%
%TA.AperFunction,SMDPad,CuDef*%
G36*
G01*
X63075480Y-117874040D02*
X63075480Y-117724040D01*
G75*
G02*
X63150480Y-117649040I75000J0D01*
G01*
X64475480Y-117649040D01*
G75*
G02*
X64550480Y-117724040I0J-75000D01*
G01*
X64550480Y-117874040D01*
G75*
G02*
X64475480Y-117949040I-75000J0D01*
G01*
X63150480Y-117949040D01*
G75*
G02*
X63075480Y-117874040I0J75000D01*
G01*
G37*
%TD.AperFunction*%
%TO.P,REF\u002A\u002A,5*%
%TA.AperFunction,SMDPad,CuDef*%
G36*
G01*
X63075480Y-117374040D02*
X63075480Y-117224040D01*
G75*
G02*
X63150480Y-117149040I75000J0D01*
G01*
X64475480Y-117149040D01*
G75*
G02*
X64550480Y-117224040I0J-75000D01*
G01*
X64550480Y-117374040D01*
G75*
G02*
X64475480Y-117449040I-75000J0D01*
G01*
X63150480Y-117449040D01*
G75*
G02*
X63075480Y-117374040I0J75000D01*
G01*
G37*
%TD.AperFunction*%
%TO.P,REF\u002A\u002A,4*%
%TA.AperFunction,SMDPad,CuDef*%
G36*
G01*
X63075480Y-116874040D02*
X63075480Y-116724040D01*
G75*
G02*
X63150480Y-116649040I75000J0D01*
G01*
X64475480Y-116649040D01*
G75*
G02*
X64550480Y-116724040I0J-75000D01*
G01*
X64550480Y-116874040D01*
G75*
G02*
X64475480Y-116949040I-75000J0D01*
G01*
X63150480Y-116949040D01*
G75*
G02*
X63075480Y-116874040I0J75000D01*
G01*
G37*
%TD.AperFunction*%
%TO.P,REF\u002A\u002A,3*%
%TA.AperFunction,SMDPad,CuDef*%
G36*
G01*
X63075480Y-116374040D02*
X63075480Y-116224040D01*
G75*
G02*
X63150480Y-116149040I75000J0D01*
G01*
X64475480Y-116149040D01*
G75*
G02*
X64550480Y-116224040I0J-75000D01*
G01*
X64550480Y-116374040D01*
G75*
G02*
X64475480Y-116449040I-75000J0D01*
G01*
X63150480Y-116449040D01*
G75*
G02*
X63075480Y-116374040I0J75000D01*
G01*
G37*
%TD.AperFunction*%
%TO.P,REF\u002A\u002A,2*%
%TA.AperFunction,SMDPad,CuDef*%
G36*
G01*
X63075480Y-115874040D02*
X63075480Y-115724040D01*
G75*
G02*
X63150480Y-115649040I75000J0D01*
G01*
X64475480Y-115649040D01*
G75*
G02*
X64550480Y-115724040I0J-75000D01*
G01*
X64550480Y-115874040D01*
G75*
G02*
X64475480Y-115949040I-75000J0D01*
G01*
X63150480Y-115949040D01*
G75*
G02*
X63075480Y-115874040I0J75000D01*
G01*
G37*
%TD.AperFunction*%
%TO.P,REF\u002A\u002A,1*%
%TA.AperFunction,SMDPad,CuDef*%
G36*
G01*
X63075480Y-115374040D02*
X63075480Y-115224040D01*
G75*
G02*
X63150480Y-115149040I75000J0D01*
G01*
X64475480Y-115149040D01*
G75*
G02*
X64550480Y-115224040I0J-75000D01*
G01*
X64550480Y-115374040D01*
G75*
G02*
X64475480Y-115449040I-75000J0D01*
G01*
X63150480Y-115449040D01*
G75*
G02*
X63075480Y-115374040I0J75000D01*
G01*
G37*
%TD.AperFunction*%
%TD*%
D10*
%TO.P,REF\u002A\u002A,49*%
%TO.N,N/C*%
X67691000Y-145796000D03*
%TO.P,REF\u002A\u002A,48*%
%TA.AperFunction,SMDPad,CuDef*%
G36*
G01*
X70291000Y-143496000D02*
X70991000Y-143496000D01*
G75*
G02*
X71041000Y-143546000I0J-50000D01*
G01*
X71041000Y-143646000D01*
G75*
G02*
X70991000Y-143696000I-50000J0D01*
G01*
X70291000Y-143696000D01*
G75*
G02*
X70241000Y-143646000I0J50000D01*
G01*
X70241000Y-143546000D01*
G75*
G02*
X70291000Y-143496000I50000J0D01*
G01*
G37*
%TD.AperFunction*%
%TO.P,REF\u002A\u002A,47*%
%TA.AperFunction,SMDPad,CuDef*%
G36*
G01*
X70291000Y-143896000D02*
X70991000Y-143896000D01*
G75*
G02*
X71041000Y-143946000I0J-50000D01*
G01*
X71041000Y-144046000D01*
G75*
G02*
X70991000Y-144096000I-50000J0D01*
G01*
X70291000Y-144096000D01*
G75*
G02*
X70241000Y-144046000I0J50000D01*
G01*
X70241000Y-143946000D01*
G75*
G02*
X70291000Y-143896000I50000J0D01*
G01*
G37*
%TD.AperFunction*%
%TO.P,REF\u002A\u002A,46*%
%TA.AperFunction,SMDPad,CuDef*%
G36*
G01*
X70291000Y-144296000D02*
X70991000Y-144296000D01*
G75*
G02*
X71041000Y-144346000I0J-50000D01*
G01*
X71041000Y-144446000D01*
G75*
G02*
X70991000Y-144496000I-50000J0D01*
G01*
X70291000Y-144496000D01*
G75*
G02*
X70241000Y-144446000I0J50000D01*
G01*
X70241000Y-144346000D01*
G75*
G02*
X70291000Y-144296000I50000J0D01*
G01*
G37*
%TD.AperFunction*%
%TO.P,REF\u002A\u002A,45*%
%TA.AperFunction,SMDPad,CuDef*%
G36*
G01*
X70291000Y-144696000D02*
X70991000Y-144696000D01*
G75*
G02*
X71041000Y-144746000I0J-50000D01*
G01*
X71041000Y-144846000D01*
G75*
G02*
X70991000Y-144896000I-50000J0D01*
G01*
X70291000Y-144896000D01*
G75*
G02*
X70241000Y-144846000I0J50000D01*
G01*
X70241000Y-144746000D01*
G75*
G02*
X70291000Y-144696000I50000J0D01*
G01*
G37*
%TD.AperFunction*%
%TO.P,REF\u002A\u002A,44*%
%TA.AperFunction,SMDPad,CuDef*%
G36*
G01*
X70291000Y-145096000D02*
X70991000Y-145096000D01*
G75*
G02*
X71041000Y-145146000I0J-50000D01*
G01*
X71041000Y-145246000D01*
G75*
G02*
X70991000Y-145296000I-50000J0D01*
G01*
X70291000Y-145296000D01*
G75*
G02*
X70241000Y-145246000I0J50000D01*
G01*
X70241000Y-145146000D01*
G75*
G02*
X70291000Y-145096000I50000J0D01*
G01*
G37*
%TD.AperFunction*%
%TO.P,REF\u002A\u002A,43*%
%TA.AperFunction,SMDPad,CuDef*%
G36*
G01*
X70291000Y-145496000D02*
X70991000Y-145496000D01*
G75*
G02*
X71041000Y-145546000I0J-50000D01*
G01*
X71041000Y-145646000D01*
G75*
G02*
X70991000Y-145696000I-50000J0D01*
G01*
X70291000Y-145696000D01*
G75*
G02*
X70241000Y-145646000I0J50000D01*
G01*
X70241000Y-145546000D01*
G75*
G02*
X70291000Y-145496000I50000J0D01*
G01*
G37*
%TD.AperFunction*%
%TO.P,REF\u002A\u002A,42*%
%TA.AperFunction,SMDPad,CuDef*%
G36*
G01*
X70291000Y-145896000D02*
X70991000Y-145896000D01*
G75*
G02*
X71041000Y-145946000I0J-50000D01*
G01*
X71041000Y-146046000D01*
G75*
G02*
X70991000Y-146096000I-50000J0D01*
G01*
X70291000Y-146096000D01*
G75*
G02*
X70241000Y-146046000I0J50000D01*
G01*
X70241000Y-145946000D01*
G75*
G02*
X70291000Y-145896000I50000J0D01*
G01*
G37*
%TD.AperFunction*%
%TO.P,REF\u002A\u002A,41*%
%TA.AperFunction,SMDPad,CuDef*%
G36*
G01*
X70291000Y-146296000D02*
X70991000Y-146296000D01*
G75*
G02*
X71041000Y-146346000I0J-50000D01*
G01*
X71041000Y-146446000D01*
G75*
G02*
X70991000Y-146496000I-50000J0D01*
G01*
X70291000Y-146496000D01*
G75*
G02*
X70241000Y-146446000I0J50000D01*
G01*
X70241000Y-146346000D01*
G75*
G02*
X70291000Y-146296000I50000J0D01*
G01*
G37*
%TD.AperFunction*%
%TO.P,REF\u002A\u002A,40*%
%TA.AperFunction,SMDPad,CuDef*%
G36*
G01*
X70291000Y-146696000D02*
X70991000Y-146696000D01*
G75*
G02*
X71041000Y-146746000I0J-50000D01*
G01*
X71041000Y-146846000D01*
G75*
G02*
X70991000Y-146896000I-50000J0D01*
G01*
X70291000Y-146896000D01*
G75*
G02*
X70241000Y-146846000I0J50000D01*
G01*
X70241000Y-146746000D01*
G75*
G02*
X70291000Y-146696000I50000J0D01*
G01*
G37*
%TD.AperFunction*%
%TO.P,REF\u002A\u002A,39*%
%TA.AperFunction,SMDPad,CuDef*%
G36*
G01*
X70291000Y-147096000D02*
X70991000Y-147096000D01*
G75*
G02*
X71041000Y-147146000I0J-50000D01*
G01*
X71041000Y-147246000D01*
G75*
G02*
X70991000Y-147296000I-50000J0D01*
G01*
X70291000Y-147296000D01*
G75*
G02*
X70241000Y-147246000I0J50000D01*
G01*
X70241000Y-147146000D01*
G75*
G02*
X70291000Y-147096000I50000J0D01*
G01*
G37*
%TD.AperFunction*%
%TO.P,REF\u002A\u002A,38*%
%TA.AperFunction,SMDPad,CuDef*%
G36*
G01*
X70291000Y-147496000D02*
X70991000Y-147496000D01*
G75*
G02*
X71041000Y-147546000I0J-50000D01*
G01*
X71041000Y-147646000D01*
G75*
G02*
X70991000Y-147696000I-50000J0D01*
G01*
X70291000Y-147696000D01*
G75*
G02*
X70241000Y-147646000I0J50000D01*
G01*
X70241000Y-147546000D01*
G75*
G02*
X70291000Y-147496000I50000J0D01*
G01*
G37*
%TD.AperFunction*%
%TO.P,REF\u002A\u002A,37*%
%TA.AperFunction,SMDPad,CuDef*%
G36*
G01*
X70291000Y-147896000D02*
X70991000Y-147896000D01*
G75*
G02*
X71041000Y-147946000I0J-50000D01*
G01*
X71041000Y-148046000D01*
G75*
G02*
X70991000Y-148096000I-50000J0D01*
G01*
X70291000Y-148096000D01*
G75*
G02*
X70241000Y-148046000I0J50000D01*
G01*
X70241000Y-147946000D01*
G75*
G02*
X70291000Y-147896000I50000J0D01*
G01*
G37*
%TD.AperFunction*%
%TO.P,REF\u002A\u002A,36*%
%TA.AperFunction,SMDPad,CuDef*%
G36*
G01*
X69841000Y-148346000D02*
X69941000Y-148346000D01*
G75*
G02*
X69991000Y-148396000I0J-50000D01*
G01*
X69991000Y-149096000D01*
G75*
G02*
X69941000Y-149146000I-50000J0D01*
G01*
X69841000Y-149146000D01*
G75*
G02*
X69791000Y-149096000I0J50000D01*
G01*
X69791000Y-148396000D01*
G75*
G02*
X69841000Y-148346000I50000J0D01*
G01*
G37*
%TD.AperFunction*%
%TO.P,REF\u002A\u002A,35*%
%TA.AperFunction,SMDPad,CuDef*%
G36*
G01*
X69441000Y-148346000D02*
X69541000Y-148346000D01*
G75*
G02*
X69591000Y-148396000I0J-50000D01*
G01*
X69591000Y-149096000D01*
G75*
G02*
X69541000Y-149146000I-50000J0D01*
G01*
X69441000Y-149146000D01*
G75*
G02*
X69391000Y-149096000I0J50000D01*
G01*
X69391000Y-148396000D01*
G75*
G02*
X69441000Y-148346000I50000J0D01*
G01*
G37*
%TD.AperFunction*%
%TO.P,REF\u002A\u002A,34*%
%TA.AperFunction,SMDPad,CuDef*%
G36*
G01*
X69041000Y-148346000D02*
X69141000Y-148346000D01*
G75*
G02*
X69191000Y-148396000I0J-50000D01*
G01*
X69191000Y-149096000D01*
G75*
G02*
X69141000Y-149146000I-50000J0D01*
G01*
X69041000Y-149146000D01*
G75*
G02*
X68991000Y-149096000I0J50000D01*
G01*
X68991000Y-148396000D01*
G75*
G02*
X69041000Y-148346000I50000J0D01*
G01*
G37*
%TD.AperFunction*%
%TO.P,REF\u002A\u002A,33*%
%TA.AperFunction,SMDPad,CuDef*%
G36*
G01*
X68641000Y-148346000D02*
X68741000Y-148346000D01*
G75*
G02*
X68791000Y-148396000I0J-50000D01*
G01*
X68791000Y-149096000D01*
G75*
G02*
X68741000Y-149146000I-50000J0D01*
G01*
X68641000Y-149146000D01*
G75*
G02*
X68591000Y-149096000I0J50000D01*
G01*
X68591000Y-148396000D01*
G75*
G02*
X68641000Y-148346000I50000J0D01*
G01*
G37*
%TD.AperFunction*%
%TO.P,REF\u002A\u002A,32*%
%TA.AperFunction,SMDPad,CuDef*%
G36*
G01*
X68241000Y-148346000D02*
X68341000Y-148346000D01*
G75*
G02*
X68391000Y-148396000I0J-50000D01*
G01*
X68391000Y-149096000D01*
G75*
G02*
X68341000Y-149146000I-50000J0D01*
G01*
X68241000Y-149146000D01*
G75*
G02*
X68191000Y-149096000I0J50000D01*
G01*
X68191000Y-148396000D01*
G75*
G02*
X68241000Y-148346000I50000J0D01*
G01*
G37*
%TD.AperFunction*%
%TO.P,REF\u002A\u002A,31*%
%TA.AperFunction,SMDPad,CuDef*%
G36*
G01*
X67841000Y-148346000D02*
X67941000Y-148346000D01*
G75*
G02*
X67991000Y-148396000I0J-50000D01*
G01*
X67991000Y-149096000D01*
G75*
G02*
X67941000Y-149146000I-50000J0D01*
G01*
X67841000Y-149146000D01*
G75*
G02*
X67791000Y-149096000I0J50000D01*
G01*
X67791000Y-148396000D01*
G75*
G02*
X67841000Y-148346000I50000J0D01*
G01*
G37*
%TD.AperFunction*%
%TO.P,REF\u002A\u002A,30*%
%TA.AperFunction,SMDPad,CuDef*%
G36*
G01*
X67441000Y-148346000D02*
X67541000Y-148346000D01*
G75*
G02*
X67591000Y-148396000I0J-50000D01*
G01*
X67591000Y-149096000D01*
G75*
G02*
X67541000Y-149146000I-50000J0D01*
G01*
X67441000Y-149146000D01*
G75*
G02*
X67391000Y-149096000I0J50000D01*
G01*
X67391000Y-148396000D01*
G75*
G02*
X67441000Y-148346000I50000J0D01*
G01*
G37*
%TD.AperFunction*%
%TO.P,REF\u002A\u002A,29*%
%TA.AperFunction,SMDPad,CuDef*%
G36*
G01*
X67041000Y-148346000D02*
X67141000Y-148346000D01*
G75*
G02*
X67191000Y-148396000I0J-50000D01*
G01*
X67191000Y-149096000D01*
G75*
G02*
X67141000Y-149146000I-50000J0D01*
G01*
X67041000Y-149146000D01*
G75*
G02*
X66991000Y-149096000I0J50000D01*
G01*
X66991000Y-148396000D01*
G75*
G02*
X67041000Y-148346000I50000J0D01*
G01*
G37*
%TD.AperFunction*%
%TO.P,REF\u002A\u002A,28*%
%TA.AperFunction,SMDPad,CuDef*%
G36*
G01*
X66641000Y-148346000D02*
X66741000Y-148346000D01*
G75*
G02*
X66791000Y-148396000I0J-50000D01*
G01*
X66791000Y-149096000D01*
G75*
G02*
X66741000Y-149146000I-50000J0D01*
G01*
X66641000Y-149146000D01*
G75*
G02*
X66591000Y-149096000I0J50000D01*
G01*
X66591000Y-148396000D01*
G75*
G02*
X66641000Y-148346000I50000J0D01*
G01*
G37*
%TD.AperFunction*%
%TO.P,REF\u002A\u002A,27*%
%TA.AperFunction,SMDPad,CuDef*%
G36*
G01*
X66241000Y-148346000D02*
X66341000Y-148346000D01*
G75*
G02*
X66391000Y-148396000I0J-50000D01*
G01*
X66391000Y-149096000D01*
G75*
G02*
X66341000Y-149146000I-50000J0D01*
G01*
X66241000Y-149146000D01*
G75*
G02*
X66191000Y-149096000I0J50000D01*
G01*
X66191000Y-148396000D01*
G75*
G02*
X66241000Y-148346000I50000J0D01*
G01*
G37*
%TD.AperFunction*%
%TO.P,REF\u002A\u002A,26*%
%TA.AperFunction,SMDPad,CuDef*%
G36*
G01*
X65841000Y-148346000D02*
X65941000Y-148346000D01*
G75*
G02*
X65991000Y-148396000I0J-50000D01*
G01*
X65991000Y-149096000D01*
G75*
G02*
X65941000Y-149146000I-50000J0D01*
G01*
X65841000Y-149146000D01*
G75*
G02*
X65791000Y-149096000I0J50000D01*
G01*
X65791000Y-148396000D01*
G75*
G02*
X65841000Y-148346000I50000J0D01*
G01*
G37*
%TD.AperFunction*%
%TO.P,REF\u002A\u002A,25*%
%TA.AperFunction,SMDPad,CuDef*%
G36*
G01*
X65441000Y-148346000D02*
X65541000Y-148346000D01*
G75*
G02*
X65591000Y-148396000I0J-50000D01*
G01*
X65591000Y-149096000D01*
G75*
G02*
X65541000Y-149146000I-50000J0D01*
G01*
X65441000Y-149146000D01*
G75*
G02*
X65391000Y-149096000I0J50000D01*
G01*
X65391000Y-148396000D01*
G75*
G02*
X65441000Y-148346000I50000J0D01*
G01*
G37*
%TD.AperFunction*%
%TO.P,REF\u002A\u002A,24*%
%TA.AperFunction,SMDPad,CuDef*%
G36*
G01*
X64391000Y-147896000D02*
X65091000Y-147896000D01*
G75*
G02*
X65141000Y-147946000I0J-50000D01*
G01*
X65141000Y-148046000D01*
G75*
G02*
X65091000Y-148096000I-50000J0D01*
G01*
X64391000Y-148096000D01*
G75*
G02*
X64341000Y-148046000I0J50000D01*
G01*
X64341000Y-147946000D01*
G75*
G02*
X64391000Y-147896000I50000J0D01*
G01*
G37*
%TD.AperFunction*%
%TO.P,REF\u002A\u002A,23*%
%TA.AperFunction,SMDPad,CuDef*%
G36*
G01*
X64391000Y-147496000D02*
X65091000Y-147496000D01*
G75*
G02*
X65141000Y-147546000I0J-50000D01*
G01*
X65141000Y-147646000D01*
G75*
G02*
X65091000Y-147696000I-50000J0D01*
G01*
X64391000Y-147696000D01*
G75*
G02*
X64341000Y-147646000I0J50000D01*
G01*
X64341000Y-147546000D01*
G75*
G02*
X64391000Y-147496000I50000J0D01*
G01*
G37*
%TD.AperFunction*%
%TO.P,REF\u002A\u002A,22*%
%TA.AperFunction,SMDPad,CuDef*%
G36*
G01*
X64391000Y-147096000D02*
X65091000Y-147096000D01*
G75*
G02*
X65141000Y-147146000I0J-50000D01*
G01*
X65141000Y-147246000D01*
G75*
G02*
X65091000Y-147296000I-50000J0D01*
G01*
X64391000Y-147296000D01*
G75*
G02*
X64341000Y-147246000I0J50000D01*
G01*
X64341000Y-147146000D01*
G75*
G02*
X64391000Y-147096000I50000J0D01*
G01*
G37*
%TD.AperFunction*%
%TO.P,REF\u002A\u002A,21*%
%TA.AperFunction,SMDPad,CuDef*%
G36*
G01*
X64391000Y-146696000D02*
X65091000Y-146696000D01*
G75*
G02*
X65141000Y-146746000I0J-50000D01*
G01*
X65141000Y-146846000D01*
G75*
G02*
X65091000Y-146896000I-50000J0D01*
G01*
X64391000Y-146896000D01*
G75*
G02*
X64341000Y-146846000I0J50000D01*
G01*
X64341000Y-146746000D01*
G75*
G02*
X64391000Y-146696000I50000J0D01*
G01*
G37*
%TD.AperFunction*%
%TO.P,REF\u002A\u002A,20*%
%TA.AperFunction,SMDPad,CuDef*%
G36*
G01*
X64391000Y-146296000D02*
X65091000Y-146296000D01*
G75*
G02*
X65141000Y-146346000I0J-50000D01*
G01*
X65141000Y-146446000D01*
G75*
G02*
X65091000Y-146496000I-50000J0D01*
G01*
X64391000Y-146496000D01*
G75*
G02*
X64341000Y-146446000I0J50000D01*
G01*
X64341000Y-146346000D01*
G75*
G02*
X64391000Y-146296000I50000J0D01*
G01*
G37*
%TD.AperFunction*%
%TO.P,REF\u002A\u002A,19*%
%TA.AperFunction,SMDPad,CuDef*%
G36*
G01*
X64391000Y-145896000D02*
X65091000Y-145896000D01*
G75*
G02*
X65141000Y-145946000I0J-50000D01*
G01*
X65141000Y-146046000D01*
G75*
G02*
X65091000Y-146096000I-50000J0D01*
G01*
X64391000Y-146096000D01*
G75*
G02*
X64341000Y-146046000I0J50000D01*
G01*
X64341000Y-145946000D01*
G75*
G02*
X64391000Y-145896000I50000J0D01*
G01*
G37*
%TD.AperFunction*%
%TO.P,REF\u002A\u002A,18*%
%TA.AperFunction,SMDPad,CuDef*%
G36*
G01*
X64391000Y-145496000D02*
X65091000Y-145496000D01*
G75*
G02*
X65141000Y-145546000I0J-50000D01*
G01*
X65141000Y-145646000D01*
G75*
G02*
X65091000Y-145696000I-50000J0D01*
G01*
X64391000Y-145696000D01*
G75*
G02*
X64341000Y-145646000I0J50000D01*
G01*
X64341000Y-145546000D01*
G75*
G02*
X64391000Y-145496000I50000J0D01*
G01*
G37*
%TD.AperFunction*%
%TO.P,REF\u002A\u002A,17*%
%TA.AperFunction,SMDPad,CuDef*%
G36*
G01*
X64391000Y-145096000D02*
X65091000Y-145096000D01*
G75*
G02*
X65141000Y-145146000I0J-50000D01*
G01*
X65141000Y-145246000D01*
G75*
G02*
X65091000Y-145296000I-50000J0D01*
G01*
X64391000Y-145296000D01*
G75*
G02*
X64341000Y-145246000I0J50000D01*
G01*
X64341000Y-145146000D01*
G75*
G02*
X64391000Y-145096000I50000J0D01*
G01*
G37*
%TD.AperFunction*%
%TO.P,REF\u002A\u002A,16*%
%TA.AperFunction,SMDPad,CuDef*%
G36*
G01*
X64391000Y-144696000D02*
X65091000Y-144696000D01*
G75*
G02*
X65141000Y-144746000I0J-50000D01*
G01*
X65141000Y-144846000D01*
G75*
G02*
X65091000Y-144896000I-50000J0D01*
G01*
X64391000Y-144896000D01*
G75*
G02*
X64341000Y-144846000I0J50000D01*
G01*
X64341000Y-144746000D01*
G75*
G02*
X64391000Y-144696000I50000J0D01*
G01*
G37*
%TD.AperFunction*%
%TO.P,REF\u002A\u002A,15*%
%TA.AperFunction,SMDPad,CuDef*%
G36*
G01*
X64391000Y-144296000D02*
X65091000Y-144296000D01*
G75*
G02*
X65141000Y-144346000I0J-50000D01*
G01*
X65141000Y-144446000D01*
G75*
G02*
X65091000Y-144496000I-50000J0D01*
G01*
X64391000Y-144496000D01*
G75*
G02*
X64341000Y-144446000I0J50000D01*
G01*
X64341000Y-144346000D01*
G75*
G02*
X64391000Y-144296000I50000J0D01*
G01*
G37*
%TD.AperFunction*%
%TO.P,REF\u002A\u002A,14*%
%TA.AperFunction,SMDPad,CuDef*%
G36*
G01*
X64391000Y-143896000D02*
X65091000Y-143896000D01*
G75*
G02*
X65141000Y-143946000I0J-50000D01*
G01*
X65141000Y-144046000D01*
G75*
G02*
X65091000Y-144096000I-50000J0D01*
G01*
X64391000Y-144096000D01*
G75*
G02*
X64341000Y-144046000I0J50000D01*
G01*
X64341000Y-143946000D01*
G75*
G02*
X64391000Y-143896000I50000J0D01*
G01*
G37*
%TD.AperFunction*%
%TO.P,REF\u002A\u002A,13*%
%TA.AperFunction,SMDPad,CuDef*%
G36*
G01*
X64391000Y-143496000D02*
X65091000Y-143496000D01*
G75*
G02*
X65141000Y-143546000I0J-50000D01*
G01*
X65141000Y-143646000D01*
G75*
G02*
X65091000Y-143696000I-50000J0D01*
G01*
X64391000Y-143696000D01*
G75*
G02*
X64341000Y-143646000I0J50000D01*
G01*
X64341000Y-143546000D01*
G75*
G02*
X64391000Y-143496000I50000J0D01*
G01*
G37*
%TD.AperFunction*%
%TO.P,REF\u002A\u002A,12*%
%TA.AperFunction,SMDPad,CuDef*%
G36*
G01*
X65441000Y-142446000D02*
X65541000Y-142446000D01*
G75*
G02*
X65591000Y-142496000I0J-50000D01*
G01*
X65591000Y-143196000D01*
G75*
G02*
X65541000Y-143246000I-50000J0D01*
G01*
X65441000Y-143246000D01*
G75*
G02*
X65391000Y-143196000I0J50000D01*
G01*
X65391000Y-142496000D01*
G75*
G02*
X65441000Y-142446000I50000J0D01*
G01*
G37*
%TD.AperFunction*%
%TO.P,REF\u002A\u002A,11*%
%TA.AperFunction,SMDPad,CuDef*%
G36*
G01*
X65841000Y-142446000D02*
X65941000Y-142446000D01*
G75*
G02*
X65991000Y-142496000I0J-50000D01*
G01*
X65991000Y-143196000D01*
G75*
G02*
X65941000Y-143246000I-50000J0D01*
G01*
X65841000Y-143246000D01*
G75*
G02*
X65791000Y-143196000I0J50000D01*
G01*
X65791000Y-142496000D01*
G75*
G02*
X65841000Y-142446000I50000J0D01*
G01*
G37*
%TD.AperFunction*%
%TO.P,REF\u002A\u002A,10*%
%TA.AperFunction,SMDPad,CuDef*%
G36*
G01*
X66241000Y-142446000D02*
X66341000Y-142446000D01*
G75*
G02*
X66391000Y-142496000I0J-50000D01*
G01*
X66391000Y-143196000D01*
G75*
G02*
X66341000Y-143246000I-50000J0D01*
G01*
X66241000Y-143246000D01*
G75*
G02*
X66191000Y-143196000I0J50000D01*
G01*
X66191000Y-142496000D01*
G75*
G02*
X66241000Y-142446000I50000J0D01*
G01*
G37*
%TD.AperFunction*%
%TO.P,REF\u002A\u002A,9*%
%TA.AperFunction,SMDPad,CuDef*%
G36*
G01*
X66641000Y-142446000D02*
X66741000Y-142446000D01*
G75*
G02*
X66791000Y-142496000I0J-50000D01*
G01*
X66791000Y-143196000D01*
G75*
G02*
X66741000Y-143246000I-50000J0D01*
G01*
X66641000Y-143246000D01*
G75*
G02*
X66591000Y-143196000I0J50000D01*
G01*
X66591000Y-142496000D01*
G75*
G02*
X66641000Y-142446000I50000J0D01*
G01*
G37*
%TD.AperFunction*%
%TO.P,REF\u002A\u002A,8*%
%TA.AperFunction,SMDPad,CuDef*%
G36*
G01*
X67041000Y-142446000D02*
X67141000Y-142446000D01*
G75*
G02*
X67191000Y-142496000I0J-50000D01*
G01*
X67191000Y-143196000D01*
G75*
G02*
X67141000Y-143246000I-50000J0D01*
G01*
X67041000Y-143246000D01*
G75*
G02*
X66991000Y-143196000I0J50000D01*
G01*
X66991000Y-142496000D01*
G75*
G02*
X67041000Y-142446000I50000J0D01*
G01*
G37*
%TD.AperFunction*%
%TO.P,REF\u002A\u002A,7*%
%TA.AperFunction,SMDPad,CuDef*%
G36*
G01*
X67441000Y-142446000D02*
X67541000Y-142446000D01*
G75*
G02*
X67591000Y-142496000I0J-50000D01*
G01*
X67591000Y-143196000D01*
G75*
G02*
X67541000Y-143246000I-50000J0D01*
G01*
X67441000Y-143246000D01*
G75*
G02*
X67391000Y-143196000I0J50000D01*
G01*
X67391000Y-142496000D01*
G75*
G02*
X67441000Y-142446000I50000J0D01*
G01*
G37*
%TD.AperFunction*%
%TO.P,REF\u002A\u002A,6*%
%TA.AperFunction,SMDPad,CuDef*%
G36*
G01*
X67841000Y-142446000D02*
X67941000Y-142446000D01*
G75*
G02*
X67991000Y-142496000I0J-50000D01*
G01*
X67991000Y-143196000D01*
G75*
G02*
X67941000Y-143246000I-50000J0D01*
G01*
X67841000Y-143246000D01*
G75*
G02*
X67791000Y-143196000I0J50000D01*
G01*
X67791000Y-142496000D01*
G75*
G02*
X67841000Y-142446000I50000J0D01*
G01*
G37*
%TD.AperFunction*%
%TO.P,REF\u002A\u002A,5*%
%TA.AperFunction,SMDPad,CuDef*%
G36*
G01*
X68241000Y-142446000D02*
X68341000Y-142446000D01*
G75*
G02*
X68391000Y-142496000I0J-50000D01*
G01*
X68391000Y-143196000D01*
G75*
G02*
X68341000Y-143246000I-50000J0D01*
G01*
X68241000Y-143246000D01*
G75*
G02*
X68191000Y-143196000I0J50000D01*
G01*
X68191000Y-142496000D01*
G75*
G02*
X68241000Y-142446000I50000J0D01*
G01*
G37*
%TD.AperFunction*%
%TO.P,REF\u002A\u002A,4*%
%TA.AperFunction,SMDPad,CuDef*%
G36*
G01*
X68641000Y-142446000D02*
X68741000Y-142446000D01*
G75*
G02*
X68791000Y-142496000I0J-50000D01*
G01*
X68791000Y-143196000D01*
G75*
G02*
X68741000Y-143246000I-50000J0D01*
G01*
X68641000Y-143246000D01*
G75*
G02*
X68591000Y-143196000I0J50000D01*
G01*
X68591000Y-142496000D01*
G75*
G02*
X68641000Y-142446000I50000J0D01*
G01*
G37*
%TD.AperFunction*%
%TO.P,REF\u002A\u002A,3*%
%TA.AperFunction,SMDPad,CuDef*%
G36*
G01*
X69041000Y-142446000D02*
X69141000Y-142446000D01*
G75*
G02*
X69191000Y-142496000I0J-50000D01*
G01*
X69191000Y-143196000D01*
G75*
G02*
X69141000Y-143246000I-50000J0D01*
G01*
X69041000Y-143246000D01*
G75*
G02*
X68991000Y-143196000I0J50000D01*
G01*
X68991000Y-142496000D01*
G75*
G02*
X69041000Y-142446000I50000J0D01*
G01*
G37*
%TD.AperFunction*%
%TO.P,REF\u002A\u002A,2*%
%TA.AperFunction,SMDPad,CuDef*%
G36*
G01*
X69441000Y-142446000D02*
X69541000Y-142446000D01*
G75*
G02*
X69591000Y-142496000I0J-50000D01*
G01*
X69591000Y-143196000D01*
G75*
G02*
X69541000Y-143246000I-50000J0D01*
G01*
X69441000Y-143246000D01*
G75*
G02*
X69391000Y-143196000I0J50000D01*
G01*
X69391000Y-142496000D01*
G75*
G02*
X69441000Y-142446000I50000J0D01*
G01*
G37*
%TD.AperFunction*%
%TO.P,REF\u002A\u002A,1*%
%TA.AperFunction,SMDPad,CuDef*%
G36*
G01*
X69841000Y-142446000D02*
X69941000Y-142446000D01*
G75*
G02*
X69991000Y-142496000I0J-50000D01*
G01*
X69991000Y-143196000D01*
G75*
G02*
X69941000Y-143246000I-50000J0D01*
G01*
X69841000Y-143246000D01*
G75*
G02*
X69791000Y-143196000I0J50000D01*
G01*
X69791000Y-142496000D01*
G75*
G02*
X69841000Y-142446000I50000J0D01*
G01*
G37*
%TD.AperFunction*%
%TD*%
D11*
%TO.P,REF\u002A\u002A,43*%
%TO.N,N/C*%
X86133000Y-98438000D03*
%TO.P,REF\u002A\u002A,42*%
X87403000Y-98438000D03*
%TO.P,REF\u002A\u002A,41*%
X89943000Y-98438000D03*
%TO.P,REF\u002A\u002A,40*%
X91213000Y-98438000D03*
%TO.P,REF\u002A\u002A,39*%
X92483000Y-98438000D03*
%TO.P,REF\u002A\u002A,38*%
X93753000Y-98438000D03*
%TO.P,REF\u002A\u002A,37*%
X95023000Y-98438000D03*
%TO.P,REF\u002A\u002A,36*%
X96293000Y-98438000D03*
%TO.P,REF\u002A\u002A,35*%
X97563000Y-98438000D03*
%TO.P,REF\u002A\u002A,34*%
X98833000Y-98438000D03*
%TO.P,REF\u002A\u002A,33*%
X100103000Y-98438000D03*
%TO.P,REF\u002A\u002A,32*%
X101373000Y-98438000D03*
%TO.P,REF\u002A\u002A,31*%
X102643000Y-98438000D03*
%TO.P,REF\u002A\u002A,30*%
X103913000Y-98438000D03*
%TO.P,REF\u002A\u002A,29*%
X105183000Y-98438000D03*
%TO.P,REF\u002A\u002A,28*%
X106453000Y-98438000D03*
D12*
%TO.P,REF\u002A\u002A,27*%
X108203000Y-100203000D03*
%TO.P,REF\u002A\u002A,26*%
X108203000Y-101473000D03*
%TO.P,REF\u002A\u002A,25*%
X108203000Y-102743000D03*
%TO.P,REF\u002A\u002A,24*%
X108203000Y-104013000D03*
%TO.P,REF\u002A\u002A,23*%
X108203000Y-105283000D03*
%TO.P,REF\u002A\u002A,22*%
X108203000Y-106553000D03*
%TO.P,REF\u002A\u002A,21*%
X108203000Y-107823000D03*
%TO.P,REF\u002A\u002A,20*%
X108203000Y-109093000D03*
%TO.P,REF\u002A\u002A,19*%
X108203000Y-110363000D03*
%TO.P,REF\u002A\u002A,18*%
X108203000Y-111633000D03*
%TO.P,REF\u002A\u002A,17*%
X108203000Y-112903000D03*
%TO.P,REF\u002A\u002A,16*%
X108203000Y-114173000D03*
D11*
%TO.P,REF\u002A\u002A,15*%
X106453000Y-115938000D03*
%TO.P,REF\u002A\u002A,14*%
X105183000Y-115938000D03*
%TO.P,REF\u002A\u002A,13*%
X103913000Y-115938000D03*
%TO.P,REF\u002A\u002A,12*%
X102643000Y-115938000D03*
%TO.P,REF\u002A\u002A,11*%
X101373000Y-115938000D03*
%TO.P,REF\u002A\u002A,10*%
X100103000Y-115938000D03*
%TO.P,REF\u002A\u002A,9*%
X98833000Y-115938000D03*
%TO.P,REF\u002A\u002A,8*%
X97563000Y-115938000D03*
%TO.P,REF\u002A\u002A,7*%
X96293000Y-115938000D03*
%TO.P,REF\u002A\u002A,6*%
X95023000Y-115938000D03*
%TO.P,REF\u002A\u002A,5*%
X93753000Y-115938000D03*
%TO.P,REF\u002A\u002A,4*%
X92483000Y-115938000D03*
%TO.P,REF\u002A\u002A,3*%
X91213000Y-115938000D03*
%TO.P,REF\u002A\u002A,2*%
X89943000Y-115938000D03*
%TO.P,REF\u002A\u002A,1*%
X87403000Y-115938000D03*
%TO.P,REF\u002A\u002A,0*%
X86133000Y-115938000D03*
%TD*%
D13*
%TO.P,REF\u002A\u002A,EP*%
%TO.N,N/C*%
X67437000Y-132842000D03*
D14*
%TO.P,REF\u002A\u002A,B24*%
X70687000Y-130092000D03*
%TO.P,REF\u002A\u002A,D23*%
X70187000Y-130842000D03*
%TO.P,REF\u002A\u002A,A8*%
X66187000Y-129592000D03*
%TO.P,REF\u002A\u002A,B3*%
X64937000Y-130092000D03*
%TO.P,REF\u002A\u002A,AC21*%
X69437000Y-135592000D03*
%TO.P,REF\u002A\u002A,AD23*%
X70187000Y-136092000D03*
%TO.P,REF\u002A\u002A,AD2*%
X64687000Y-136092000D03*
%TO.P,REF\u002A\u002A,AB2*%
X64687000Y-135342000D03*
%TO.P,REF\u002A\u002A,Y2*%
X64687000Y-134842000D03*
%TO.P,REF\u002A\u002A,W1*%
X64187000Y-134592000D03*
%TO.P,REF\u002A\u002A,U1*%
X64187000Y-134092000D03*
%TO.P,REF\u002A\u002A,R1*%
X64187000Y-133592000D03*
%TO.P,REF\u002A\u002A,N1*%
X64187000Y-133092000D03*
%TO.P,REF\u002A\u002A,L1*%
X64187000Y-132592000D03*
%TO.P,REF\u002A\u002A,J1*%
X64187000Y-132092000D03*
%TO.P,REF\u002A\u002A,G1*%
X64187000Y-131592000D03*
%TO.P,REF\u002A\u002A,T2*%
X64687000Y-133842000D03*
%TO.P,REF\u002A\u002A,P2*%
X64687000Y-133342000D03*
%TO.P,REF\u002A\u002A,M2*%
X64687000Y-132842000D03*
%TO.P,REF\u002A\u002A,K2*%
X64687000Y-132342000D03*
%TO.P,REF\u002A\u002A,H2*%
X64687000Y-131842000D03*
%TO.P,REF\u002A\u002A,F2*%
X64687000Y-131342000D03*
%TO.P,REF\u002A\u002A,C1*%
X64187000Y-130592000D03*
%TO.P,REF\u002A\u002A,D2*%
X64687000Y-130842000D03*
%TO.P,REF\u002A\u002A,B1*%
X64187000Y-130092000D03*
%TO.P,REF\u002A\u002A,AD4*%
X65187000Y-136092000D03*
%TO.P,REF\u002A\u002A,AD6*%
X65687000Y-136092000D03*
%TO.P,REF\u002A\u002A,AD8*%
X66187000Y-136092000D03*
%TO.P,REF\u002A\u002A,AD10*%
X66687000Y-136092000D03*
%TO.P,REF\u002A\u002A,AD12*%
X67187000Y-136092000D03*
%TO.P,REF\u002A\u002A,AD14*%
X67687000Y-136092000D03*
%TO.P,REF\u002A\u002A,AD16*%
X68187000Y-136092000D03*
%TO.P,REF\u002A\u002A,AD18*%
X68687000Y-136092000D03*
%TO.P,REF\u002A\u002A,AD20*%
X69187000Y-136092000D03*
%TO.P,REF\u002A\u002A,AD22*%
X69687000Y-136092000D03*
%TO.P,REF\u002A\u002A,AC19*%
X68937000Y-135592000D03*
%TO.P,REF\u002A\u002A,AC17*%
X68437000Y-135592000D03*
%TO.P,REF\u002A\u002A,AC15*%
X67937000Y-135592000D03*
%TO.P,REF\u002A\u002A,AC13*%
X67437000Y-135592000D03*
%TO.P,REF\u002A\u002A,AC11*%
X66937000Y-135592000D03*
%TO.P,REF\u002A\u002A,AC9*%
X66437000Y-135592000D03*
%TO.P,REF\u002A\u002A,AC5*%
X65437000Y-135592000D03*
%TO.P,REF\u002A\u002A,B5*%
X65437000Y-130092000D03*
%TO.P,REF\u002A\u002A,B7*%
X65937000Y-130092000D03*
%TO.P,REF\u002A\u002A,B9*%
X66437000Y-130092000D03*
%TO.P,REF\u002A\u002A,B11*%
X66937000Y-130092000D03*
%TO.P,REF\u002A\u002A,B13*%
X67437000Y-130092000D03*
%TO.P,REF\u002A\u002A,B15*%
X67937000Y-130092000D03*
%TO.P,REF\u002A\u002A,B17*%
X68437000Y-130092000D03*
%TO.P,REF\u002A\u002A,B19*%
X68937000Y-130092000D03*
%TO.P,REF\u002A\u002A,A10*%
X66687000Y-129592000D03*
%TO.P,REF\u002A\u002A,A12*%
X67187000Y-129592000D03*
%TO.P,REF\u002A\u002A,A14*%
X67687000Y-129592000D03*
%TO.P,REF\u002A\u002A,A16*%
X68187000Y-129592000D03*
%TO.P,REF\u002A\u002A,A18*%
X68687000Y-129592000D03*
%TO.P,REF\u002A\u002A,A20*%
X69187000Y-129592000D03*
%TO.P,REF\u002A\u002A,A22*%
X69687000Y-129592000D03*
%TO.P,REF\u002A\u002A,A23*%
X70187000Y-129592000D03*
%TO.P,REF\u002A\u002A,F23*%
X70187000Y-131342000D03*
%TO.P,REF\u002A\u002A,H23*%
X70187000Y-131842000D03*
%TO.P,REF\u002A\u002A,P23*%
X70187000Y-133342000D03*
%TO.P,REF\u002A\u002A,T23*%
X70187000Y-133842000D03*
%TO.P,REF\u002A\u002A,V23*%
X70187000Y-134342000D03*
%TO.P,REF\u002A\u002A,Y23*%
X70187000Y-134842000D03*
%TO.P,REF\u002A\u002A,E24*%
X70687000Y-131092000D03*
%TO.P,REF\u002A\u002A,J24*%
X70687000Y-132092000D03*
%TO.P,REF\u002A\u002A,L24*%
X70687000Y-132592000D03*
%TO.P,REF\u002A\u002A,N24*%
X70687000Y-133092000D03*
%TO.P,REF\u002A\u002A,R24*%
X70687000Y-133592000D03*
%TO.P,REF\u002A\u002A,U24*%
X70687000Y-134092000D03*
%TO.P,REF\u002A\u002A,W24*%
X70687000Y-134592000D03*
%TO.P,REF\u002A\u002A,AA24*%
X70687000Y-135092000D03*
%TO.P,REF\u002A\u002A,AC24*%
X70687000Y-135592000D03*
%TD*%
D15*
%TO.P,NRF52840,28*%
%TO.N,N/C*%
X103207820Y-155376880D03*
%TO.P,NRF52840,30*%
X101937820Y-155376880D03*
%TO.P,NRF52840,32*%
X100667820Y-155376880D03*
%TO.P,NRF52840,34*%
X99397820Y-155376880D03*
%TO.P,NRF52840,36*%
X98127820Y-155376880D03*
%TO.P,NRF52840,38*%
X96857820Y-155376880D03*
%TO.P,NRF52840,40*%
X95587820Y-155376880D03*
%TO.P,NRF52840,42*%
X94317820Y-155376880D03*
D16*
%TO.P,NRF52840,24*%
X105415080Y-155770580D03*
%TO.P,NRF52840,22*%
X105415080Y-157040580D03*
%TO.P,NRF52840,20*%
X105415080Y-158310580D03*
%TO.P,NRF52840,18*%
X105415080Y-159580580D03*
%TO.P,NRF52840,16*%
X105415080Y-160850580D03*
%TO.P,NRF52840,14*%
X105415080Y-162120580D03*
%TO.P,NRF52840,12*%
X105415080Y-163390580D03*
D17*
%TO.P,NRF52840,25*%
X107711240Y-155133040D03*
%TO.P,NRF52840,23*%
X107711240Y-156403040D03*
%TO.P,NRF52840,21*%
X107711240Y-157673040D03*
%TO.P,NRF52840,19*%
X107711240Y-158943040D03*
%TO.P,NRF52840,17*%
X107711240Y-160213040D03*
%TO.P,NRF52840,15*%
X107711240Y-161483040D03*
%TO.P,NRF52840,13*%
X107711240Y-162753040D03*
%TO.P,NRF52840,11*%
X107711240Y-164023040D03*
D18*
%TO.P,NRF52840,26*%
X105115360Y-153078180D03*
%TO.P,NRF52840,27*%
X103845360Y-153078180D03*
%TO.P,NRF52840,29*%
X102575360Y-153078180D03*
%TO.P,NRF52840,31*%
X101305360Y-153078180D03*
%TO.P,NRF52840,33*%
X100035360Y-153078180D03*
%TO.P,NRF52840,35*%
X98765360Y-153078180D03*
%TO.P,NRF52840,37*%
X97495360Y-153078180D03*
%TO.P,NRF52840,39*%
X96225360Y-153078180D03*
%TO.P,NRF52840,41*%
X94955360Y-153078180D03*
%TO.P,NRF52840,43*%
X93685360Y-153078180D03*
%TO.P,NRF52840,10*%
X105115360Y-166077900D03*
%TO.P,NRF52840,9*%
X103845360Y-166077900D03*
%TO.P,NRF52840,8*%
X102575360Y-166077900D03*
%TO.P,NRF52840,7*%
X101305360Y-166077900D03*
%TO.P,NRF52840,6*%
X100035360Y-166077900D03*
%TO.P,NRF52840,5*%
X98765360Y-166077900D03*
%TO.P,NRF52840,4*%
X97495360Y-166077900D03*
%TO.P,NRF52840,3*%
X96225360Y-166077900D03*
%TO.P,NRF52840,2*%
X94955360Y-166077900D03*
%TO.P,NRF52840,1*%
X93685360Y-166077900D03*
%TD*%
D19*
%TO.P,AE,*%
%TO.N,*%
X107241040Y-144036840D03*
%TO.P,AE,1*%
%TO.N,Net-(AE1-Pad1)*%
X107241040Y-139736840D03*
%TD*%
D13*
%TO.P,U1,EP*%
%TO.N,GND*%
X97279160Y-138606540D03*
D14*
%TO.P,U1,B24*%
%TO.N,Net-(C1-Pad2)*%
X100529160Y-135856540D03*
%TO.P,U1,D23*%
%TO.N,Net-(C11-Pad2)*%
X100029160Y-136606540D03*
%TO.P,U1,A8*%
%TO.N,N/C*%
X96029160Y-135356540D03*
%TO.P,U1,B3*%
X94779160Y-135856540D03*
%TO.P,U1,AC21*%
X99279160Y-141356540D03*
%TO.P,U1,AD23*%
%TO.N,+3V3*%
X100029160Y-141856540D03*
%TO.P,U1,AD2*%
%TO.N,+5V*%
X94529160Y-141856540D03*
%TO.P,U1,AB2*%
%TO.N,N/C*%
X94529160Y-141106540D03*
%TO.P,U1,Y2*%
%TO.N,+5V*%
X94529160Y-140606540D03*
%TO.P,U1,W1*%
%TO.N,+3V3*%
X94029160Y-140356540D03*
%TO.P,U1,U1*%
%TO.N,N/C*%
X94029160Y-139856540D03*
%TO.P,U1,R1*%
X94029160Y-139356540D03*
%TO.P,U1,N1*%
X94029160Y-138856540D03*
%TO.P,U1,L1*%
X94029160Y-138356540D03*
%TO.P,U1,J1*%
X94029160Y-137856540D03*
%TO.P,U1,G1*%
X94029160Y-137356540D03*
%TO.P,U1,T2*%
X94529160Y-139606540D03*
%TO.P,U1,P2*%
X94529160Y-139106540D03*
%TO.P,U1,M2*%
X94529160Y-138606540D03*
%TO.P,U1,K2*%
X94529160Y-138106540D03*
%TO.P,U1,H2*%
X94529160Y-137606540D03*
%TO.P,U1,F2*%
X94529160Y-137106540D03*
%TO.P,U1,C1*%
%TO.N,Net-(C5-Pad1)*%
X94029160Y-136356540D03*
%TO.P,U1,D2*%
%TO.N,N/C*%
X94529160Y-136606540D03*
%TO.P,U1,B1*%
%TO.N,+3V3*%
X94029160Y-135856540D03*
%TO.P,U1,AD4*%
%TO.N,D-*%
X95029160Y-141856540D03*
%TO.P,U1,AD6*%
%TO.N,D+*%
X95529160Y-141856540D03*
%TO.P,U1,AD8*%
%TO.N,N/C*%
X96029160Y-141856540D03*
%TO.P,U1,AD10*%
X96529160Y-141856540D03*
%TO.P,U1,AD12*%
X97029160Y-141856540D03*
%TO.P,U1,AD14*%
%TO.N,+3V3*%
X97529160Y-141856540D03*
%TO.P,U1,AD16*%
%TO.N,N/C*%
X98029160Y-141856540D03*
%TO.P,U1,AD18*%
X98529160Y-141856540D03*
%TO.P,U1,AD20*%
X99029160Y-141856540D03*
%TO.P,U1,AD22*%
X99529160Y-141856540D03*
%TO.P,U1,AC19*%
X98779160Y-141356540D03*
%TO.P,U1,AC17*%
X98279160Y-141356540D03*
%TO.P,U1,AC15*%
X97779160Y-141356540D03*
%TO.P,U1,AC13*%
X97279160Y-141356540D03*
%TO.P,U1,AC11*%
X96779160Y-141356540D03*
%TO.P,U1,AC9*%
X96279160Y-141356540D03*
%TO.P,U1,AC5*%
%TO.N,Net-(C20-Pad1)*%
X95279160Y-141356540D03*
%TO.P,U1,B5*%
%TO.N,Net-(C15-Pad1)*%
X95279160Y-135856540D03*
%TO.P,U1,B7*%
%TO.N,GND*%
X95779160Y-135856540D03*
%TO.P,U1,B9*%
%TO.N,N/C*%
X96279160Y-135856540D03*
%TO.P,U1,B11*%
X96779160Y-135856540D03*
%TO.P,U1,B13*%
X97279160Y-135856540D03*
%TO.P,U1,B15*%
X97779160Y-135856540D03*
%TO.P,U1,B17*%
X98279160Y-135856540D03*
%TO.P,U1,B19*%
X98779160Y-135856540D03*
%TO.P,U1,A10*%
X96529160Y-135356540D03*
%TO.P,U1,A12*%
X97029160Y-135356540D03*
%TO.P,U1,A14*%
X97529160Y-135356540D03*
%TO.P,U1,A16*%
X98029160Y-135356540D03*
%TO.P,U1,A18*%
X98529160Y-135356540D03*
%TO.P,U1,A20*%
X99029160Y-135356540D03*
%TO.P,U1,A22*%
%TO.N,+3V3*%
X99529160Y-135356540D03*
%TO.P,U1,A23*%
%TO.N,Net-(C2-Pad2)*%
X100029160Y-135356540D03*
%TO.P,U1,F23*%
%TO.N,GND*%
X100029160Y-137106540D03*
%TO.P,U1,H23*%
%TO.N,Net-(C3-Pad2)*%
X100029160Y-137606540D03*
%TO.P,U1,P23*%
%TO.N,N/C*%
X100029160Y-139106540D03*
%TO.P,U1,T23*%
X100029160Y-139606540D03*
%TO.P,U1,V23*%
X100029160Y-140106540D03*
%TO.P,U1,Y23*%
X100029160Y-140606540D03*
%TO.P,U1,E24*%
%TO.N,Net-(C15-Pad1)*%
X100529160Y-136856540D03*
%TO.P,U1,J24*%
%TO.N,N/C*%
X100529160Y-137856540D03*
%TO.P,U1,L24*%
X100529160Y-138356540D03*
%TO.P,U1,N24*%
%TO.N,Net-(C9-Pad1)*%
X100529160Y-138856540D03*
%TO.P,U1,R24*%
%TO.N,N/C*%
X100529160Y-139356540D03*
%TO.P,U1,U24*%
X100529160Y-139856540D03*
%TO.P,U1,W24*%
X100529160Y-140356540D03*
%TO.P,U1,AA24*%
%TO.N,SWDCLK*%
X100529160Y-140856540D03*
%TO.P,U1,AC24*%
%TO.N,SWDIO*%
X100529160Y-141356540D03*
%TD*%
D20*
%TO.P,Y1,4*%
%TO.N,GND*%
X100869220Y-132872400D03*
%TO.P,Y1,3*%
%TO.N,Net-(C1-Pad2)*%
X102269220Y-132872400D03*
%TO.P,Y1,2*%
%TO.N,GND*%
X102269220Y-133972400D03*
%TO.P,Y1,1*%
%TO.N,Net-(C2-Pad2)*%
X100869220Y-133972400D03*
%TD*%
%TO.P,R1,2*%
%TO.N,Net-(C4-Pad1)*%
%TA.AperFunction,SMDPad,CuDef*%
G36*
G01*
X106055520Y-137151300D02*
X106055520Y-137491300D01*
G75*
G02*
X105915520Y-137631300I-140000J0D01*
G01*
X105635520Y-137631300D01*
G75*
G02*
X105495520Y-137491300I0J140000D01*
G01*
X105495520Y-137151300D01*
G75*
G02*
X105635520Y-137011300I140000J0D01*
G01*
X105915520Y-137011300D01*
G75*
G02*
X106055520Y-137151300I0J-140000D01*
G01*
G37*
%TD.AperFunction*%
%TO.P,R1,1*%
%TO.N,Net-(AE1-Pad1)*%
%TA.AperFunction,SMDPad,CuDef*%
G36*
G01*
X107015520Y-137151300D02*
X107015520Y-137491300D01*
G75*
G02*
X106875520Y-137631300I-140000J0D01*
G01*
X106595520Y-137631300D01*
G75*
G02*
X106455520Y-137491300I0J140000D01*
G01*
X106455520Y-137151300D01*
G75*
G02*
X106595520Y-137011300I140000J0D01*
G01*
X106875520Y-137011300D01*
G75*
G02*
X107015520Y-137151300I0J-140000D01*
G01*
G37*
%TD.AperFunction*%
%TD*%
%TO.P,L1,2*%
%TO.N,Net-(C3-Pad2)*%
%TA.AperFunction,SMDPad,CuDef*%
G36*
G01*
X103144520Y-137075140D02*
X103144520Y-137420140D01*
G75*
G02*
X102997020Y-137567640I-147500J0D01*
G01*
X102702020Y-137567640D01*
G75*
G02*
X102554520Y-137420140I0J147500D01*
G01*
X102554520Y-137075140D01*
G75*
G02*
X102702020Y-136927640I147500J0D01*
G01*
X102997020Y-136927640D01*
G75*
G02*
X103144520Y-137075140I0J-147500D01*
G01*
G37*
%TD.AperFunction*%
%TO.P,L1,1*%
%TO.N,Net-(C4-Pad1)*%
%TA.AperFunction,SMDPad,CuDef*%
G36*
G01*
X104114520Y-137075140D02*
X104114520Y-137420140D01*
G75*
G02*
X103967020Y-137567640I-147500J0D01*
G01*
X103672020Y-137567640D01*
G75*
G02*
X103524520Y-137420140I0J147500D01*
G01*
X103524520Y-137075140D01*
G75*
G02*
X103672020Y-136927640I147500J0D01*
G01*
X103967020Y-136927640D01*
G75*
G02*
X104114520Y-137075140I0J-147500D01*
G01*
G37*
%TD.AperFunction*%
%TD*%
D21*
%TO.P,J2,5*%
%TO.N,GND*%
X92068440Y-145091400D03*
X92068440Y-133691400D03*
%TD*%
D22*
%TO.P,SWD,4*%
%TO.N,+3V3*%
X95501460Y-145453100D03*
%TO.P,SWD,3*%
%TO.N,GND*%
X98041460Y-145453100D03*
%TO.P,SWD,2*%
%TO.N,SWDIO*%
X100581460Y-145453100D03*
D23*
%TO.P,SWD,1*%
%TO.N,SWDCLK*%
X103121460Y-145453100D03*
%TD*%
%TO.P,C26,2*%
%TO.N,GND*%
%TA.AperFunction,SMDPad,CuDef*%
G36*
G01*
X107870780Y-136633620D02*
X107530780Y-136633620D01*
G75*
G02*
X107390780Y-136493620I0J140000D01*
G01*
X107390780Y-136213620D01*
G75*
G02*
X107530780Y-136073620I140000J0D01*
G01*
X107870780Y-136073620D01*
G75*
G02*
X108010780Y-136213620I0J-140000D01*
G01*
X108010780Y-136493620D01*
G75*
G02*
X107870780Y-136633620I-140000J0D01*
G01*
G37*
%TD.AperFunction*%
%TO.P,C26,1*%
%TO.N,Net-(AE1-Pad1)*%
%TA.AperFunction,SMDPad,CuDef*%
G36*
G01*
X107870780Y-137593620D02*
X107530780Y-137593620D01*
G75*
G02*
X107390780Y-137453620I0J140000D01*
G01*
X107390780Y-137173620D01*
G75*
G02*
X107530780Y-137033620I140000J0D01*
G01*
X107870780Y-137033620D01*
G75*
G02*
X108010780Y-137173620I0J-140000D01*
G01*
X108010780Y-137453620D01*
G75*
G02*
X107870780Y-137593620I-140000J0D01*
G01*
G37*
%TD.AperFunction*%
%TD*%
%TO.P,C20,2*%
%TO.N,GND*%
%TA.AperFunction,SMDPad,CuDef*%
G36*
G01*
X91396940Y-139869100D02*
X91396940Y-140369100D01*
G75*
G02*
X91171940Y-140594100I-225000J0D01*
G01*
X90721940Y-140594100D01*
G75*
G02*
X90496940Y-140369100I0J225000D01*
G01*
X90496940Y-139869100D01*
G75*
G02*
X90721940Y-139644100I225000J0D01*
G01*
X91171940Y-139644100D01*
G75*
G02*
X91396940Y-139869100I0J-225000D01*
G01*
G37*
%TD.AperFunction*%
%TO.P,C20,1*%
%TO.N,Net-(C20-Pad1)*%
%TA.AperFunction,SMDPad,CuDef*%
G36*
G01*
X92946940Y-139869100D02*
X92946940Y-140369100D01*
G75*
G02*
X92721940Y-140594100I-225000J0D01*
G01*
X92271940Y-140594100D01*
G75*
G02*
X92046940Y-140369100I0J225000D01*
G01*
X92046940Y-139869100D01*
G75*
G02*
X92271940Y-139644100I225000J0D01*
G01*
X92721940Y-139644100D01*
G75*
G02*
X92946940Y-139869100I0J-225000D01*
G01*
G37*
%TD.AperFunction*%
%TD*%
%TO.P,C19,2*%
%TO.N,GND*%
%TA.AperFunction,SMDPad,CuDef*%
G36*
G01*
X91483000Y-143053000D02*
X91483000Y-143553000D01*
G75*
G02*
X91258000Y-143778000I-225000J0D01*
G01*
X90808000Y-143778000D01*
G75*
G02*
X90583000Y-143553000I0J225000D01*
G01*
X90583000Y-143053000D01*
G75*
G02*
X90808000Y-142828000I225000J0D01*
G01*
X91258000Y-142828000D01*
G75*
G02*
X91483000Y-143053000I0J-225000D01*
G01*
G37*
%TD.AperFunction*%
%TO.P,C19,1*%
%TO.N,+5V*%
%TA.AperFunction,SMDPad,CuDef*%
G36*
G01*
X93033000Y-143053000D02*
X93033000Y-143553000D01*
G75*
G02*
X92808000Y-143778000I-225000J0D01*
G01*
X92358000Y-143778000D01*
G75*
G02*
X92133000Y-143553000I0J225000D01*
G01*
X92133000Y-143053000D01*
G75*
G02*
X92358000Y-142828000I225000J0D01*
G01*
X92808000Y-142828000D01*
G75*
G02*
X93033000Y-143053000I0J-225000D01*
G01*
G37*
%TD.AperFunction*%
%TD*%
%TO.P,C15,2*%
%TO.N,GND*%
%TA.AperFunction,SMDPad,CuDef*%
G36*
G01*
X105574680Y-135658680D02*
X105574680Y-135158680D01*
G75*
G02*
X105799680Y-134933680I225000J0D01*
G01*
X106249680Y-134933680D01*
G75*
G02*
X106474680Y-135158680I0J-225000D01*
G01*
X106474680Y-135658680D01*
G75*
G02*
X106249680Y-135883680I-225000J0D01*
G01*
X105799680Y-135883680D01*
G75*
G02*
X105574680Y-135658680I0J225000D01*
G01*
G37*
%TD.AperFunction*%
%TO.P,C15,1*%
%TO.N,Net-(C15-Pad1)*%
%TA.AperFunction,SMDPad,CuDef*%
G36*
G01*
X104024680Y-135658680D02*
X104024680Y-135158680D01*
G75*
G02*
X104249680Y-134933680I225000J0D01*
G01*
X104699680Y-134933680D01*
G75*
G02*
X104924680Y-135158680I0J-225000D01*
G01*
X104924680Y-135658680D01*
G75*
G02*
X104699680Y-135883680I-225000J0D01*
G01*
X104249680Y-135883680D01*
G75*
G02*
X104024680Y-135658680I0J225000D01*
G01*
G37*
%TD.AperFunction*%
%TD*%
%TO.P,C14,2*%
%TO.N,GND*%
%TA.AperFunction,SMDPad,CuDef*%
G36*
G01*
X96072540Y-133530160D02*
X96072540Y-133030160D01*
G75*
G02*
X96297540Y-132805160I225000J0D01*
G01*
X96747540Y-132805160D01*
G75*
G02*
X96972540Y-133030160I0J-225000D01*
G01*
X96972540Y-133530160D01*
G75*
G02*
X96747540Y-133755160I-225000J0D01*
G01*
X96297540Y-133755160D01*
G75*
G02*
X96072540Y-133530160I0J225000D01*
G01*
G37*
%TD.AperFunction*%
%TO.P,C14,1*%
%TO.N,+3V3*%
%TA.AperFunction,SMDPad,CuDef*%
G36*
G01*
X94522540Y-133530160D02*
X94522540Y-133030160D01*
G75*
G02*
X94747540Y-132805160I225000J0D01*
G01*
X95197540Y-132805160D01*
G75*
G02*
X95422540Y-133030160I0J-225000D01*
G01*
X95422540Y-133530160D01*
G75*
G02*
X95197540Y-133755160I-225000J0D01*
G01*
X94747540Y-133755160D01*
G75*
G02*
X94522540Y-133530160I0J225000D01*
G01*
G37*
%TD.AperFunction*%
%TD*%
%TO.P,C12,2*%
%TO.N,GND*%
%TA.AperFunction,SMDPad,CuDef*%
G36*
G01*
X98534040Y-133099200D02*
X98194040Y-133099200D01*
G75*
G02*
X98054040Y-132959200I0J140000D01*
G01*
X98054040Y-132679200D01*
G75*
G02*
X98194040Y-132539200I140000J0D01*
G01*
X98534040Y-132539200D01*
G75*
G02*
X98674040Y-132679200I0J-140000D01*
G01*
X98674040Y-132959200D01*
G75*
G02*
X98534040Y-133099200I-140000J0D01*
G01*
G37*
%TD.AperFunction*%
%TO.P,C12,1*%
%TO.N,+3V3*%
%TA.AperFunction,SMDPad,CuDef*%
G36*
G01*
X98534040Y-134059200D02*
X98194040Y-134059200D01*
G75*
G02*
X98054040Y-133919200I0J140000D01*
G01*
X98054040Y-133639200D01*
G75*
G02*
X98194040Y-133499200I140000J0D01*
G01*
X98534040Y-133499200D01*
G75*
G02*
X98674040Y-133639200I0J-140000D01*
G01*
X98674040Y-133919200D01*
G75*
G02*
X98534040Y-134059200I-140000J0D01*
G01*
G37*
%TD.AperFunction*%
%TD*%
%TO.P,C11,2*%
%TO.N,Net-(C11-Pad2)*%
%TA.AperFunction,SMDPad,CuDef*%
G36*
G01*
X102451260Y-135274240D02*
X102451260Y-135614240D01*
G75*
G02*
X102311260Y-135754240I-140000J0D01*
G01*
X102031260Y-135754240D01*
G75*
G02*
X101891260Y-135614240I0J140000D01*
G01*
X101891260Y-135274240D01*
G75*
G02*
X102031260Y-135134240I140000J0D01*
G01*
X102311260Y-135134240D01*
G75*
G02*
X102451260Y-135274240I0J-140000D01*
G01*
G37*
%TD.AperFunction*%
%TO.P,C11,1*%
%TO.N,GND*%
%TA.AperFunction,SMDPad,CuDef*%
G36*
G01*
X103411260Y-135274240D02*
X103411260Y-135614240D01*
G75*
G02*
X103271260Y-135754240I-140000J0D01*
G01*
X102991260Y-135754240D01*
G75*
G02*
X102851260Y-135614240I0J140000D01*
G01*
X102851260Y-135274240D01*
G75*
G02*
X102991260Y-135134240I140000J0D01*
G01*
X103271260Y-135134240D01*
G75*
G02*
X103411260Y-135274240I0J-140000D01*
G01*
G37*
%TD.AperFunction*%
%TD*%
%TO.P,C9,2*%
%TO.N,GND*%
%TA.AperFunction,SMDPad,CuDef*%
G36*
G01*
X101645600Y-139858100D02*
X101985600Y-139858100D01*
G75*
G02*
X102125600Y-139998100I0J-140000D01*
G01*
X102125600Y-140278100D01*
G75*
G02*
X101985600Y-140418100I-140000J0D01*
G01*
X101645600Y-140418100D01*
G75*
G02*
X101505600Y-140278100I0J140000D01*
G01*
X101505600Y-139998100D01*
G75*
G02*
X101645600Y-139858100I140000J0D01*
G01*
G37*
%TD.AperFunction*%
%TO.P,C9,1*%
%TO.N,Net-(C9-Pad1)*%
%TA.AperFunction,SMDPad,CuDef*%
G36*
G01*
X101645600Y-138898100D02*
X101985600Y-138898100D01*
G75*
G02*
X102125600Y-139038100I0J-140000D01*
G01*
X102125600Y-139318100D01*
G75*
G02*
X101985600Y-139458100I-140000J0D01*
G01*
X101645600Y-139458100D01*
G75*
G02*
X101505600Y-139318100I0J140000D01*
G01*
X101505600Y-139038100D01*
G75*
G02*
X101645600Y-138898100I140000J0D01*
G01*
G37*
%TD.AperFunction*%
%TD*%
%TO.P,C8,2*%
%TO.N,GND*%
%TA.AperFunction,SMDPad,CuDef*%
G36*
G01*
X100546260Y-142909480D02*
X100546260Y-143249480D01*
G75*
G02*
X100406260Y-143389480I-140000J0D01*
G01*
X100126260Y-143389480D01*
G75*
G02*
X99986260Y-143249480I0J140000D01*
G01*
X99986260Y-142909480D01*
G75*
G02*
X100126260Y-142769480I140000J0D01*
G01*
X100406260Y-142769480D01*
G75*
G02*
X100546260Y-142909480I0J-140000D01*
G01*
G37*
%TD.AperFunction*%
%TO.P,C8,1*%
%TO.N,+3V3*%
%TA.AperFunction,SMDPad,CuDef*%
G36*
G01*
X101506260Y-142909480D02*
X101506260Y-143249480D01*
G75*
G02*
X101366260Y-143389480I-140000J0D01*
G01*
X101086260Y-143389480D01*
G75*
G02*
X100946260Y-143249480I0J140000D01*
G01*
X100946260Y-142909480D01*
G75*
G02*
X101086260Y-142769480I140000J0D01*
G01*
X101366260Y-142769480D01*
G75*
G02*
X101506260Y-142909480I0J-140000D01*
G01*
G37*
%TD.AperFunction*%
%TD*%
%TO.P,C7,2*%
%TO.N,GND*%
%TA.AperFunction,SMDPad,CuDef*%
G36*
G01*
X98858380Y-143241860D02*
X98858380Y-142901860D01*
G75*
G02*
X98998380Y-142761860I140000J0D01*
G01*
X99278380Y-142761860D01*
G75*
G02*
X99418380Y-142901860I0J-140000D01*
G01*
X99418380Y-143241860D01*
G75*
G02*
X99278380Y-143381860I-140000J0D01*
G01*
X98998380Y-143381860D01*
G75*
G02*
X98858380Y-143241860I0J140000D01*
G01*
G37*
%TD.AperFunction*%
%TO.P,C7,1*%
%TO.N,+3V3*%
%TA.AperFunction,SMDPad,CuDef*%
G36*
G01*
X97898380Y-143241860D02*
X97898380Y-142901860D01*
G75*
G02*
X98038380Y-142761860I140000J0D01*
G01*
X98318380Y-142761860D01*
G75*
G02*
X98458380Y-142901860I0J-140000D01*
G01*
X98458380Y-143241860D01*
G75*
G02*
X98318380Y-143381860I-140000J0D01*
G01*
X98038380Y-143381860D01*
G75*
G02*
X97898380Y-143241860I0J140000D01*
G01*
G37*
%TD.AperFunction*%
%TD*%
%TO.P,C6,2*%
%TO.N,GND*%
%TA.AperFunction,SMDPad,CuDef*%
G36*
G01*
X91411880Y-138341300D02*
X91411880Y-138841300D01*
G75*
G02*
X91186880Y-139066300I-225000J0D01*
G01*
X90736880Y-139066300D01*
G75*
G02*
X90511880Y-138841300I0J225000D01*
G01*
X90511880Y-138341300D01*
G75*
G02*
X90736880Y-138116300I225000J0D01*
G01*
X91186880Y-138116300D01*
G75*
G02*
X91411880Y-138341300I0J-225000D01*
G01*
G37*
%TD.AperFunction*%
%TO.P,C6,1*%
%TO.N,+3V3*%
%TA.AperFunction,SMDPad,CuDef*%
G36*
G01*
X92961880Y-138341300D02*
X92961880Y-138841300D01*
G75*
G02*
X92736880Y-139066300I-225000J0D01*
G01*
X92286880Y-139066300D01*
G75*
G02*
X92061880Y-138841300I0J225000D01*
G01*
X92061880Y-138341300D01*
G75*
G02*
X92286880Y-138116300I225000J0D01*
G01*
X92736880Y-138116300D01*
G75*
G02*
X92961880Y-138341300I0J-225000D01*
G01*
G37*
%TD.AperFunction*%
%TD*%
%TO.P,C5,2*%
%TO.N,GND*%
%TA.AperFunction,SMDPad,CuDef*%
G36*
G01*
X91658800Y-135246300D02*
X91658800Y-135586300D01*
G75*
G02*
X91518800Y-135726300I-140000J0D01*
G01*
X91238800Y-135726300D01*
G75*
G02*
X91098800Y-135586300I0J140000D01*
G01*
X91098800Y-135246300D01*
G75*
G02*
X91238800Y-135106300I140000J0D01*
G01*
X91518800Y-135106300D01*
G75*
G02*
X91658800Y-135246300I0J-140000D01*
G01*
G37*
%TD.AperFunction*%
%TO.P,C5,1*%
%TO.N,Net-(C5-Pad1)*%
%TA.AperFunction,SMDPad,CuDef*%
G36*
G01*
X92618800Y-135246300D02*
X92618800Y-135586300D01*
G75*
G02*
X92478800Y-135726300I-140000J0D01*
G01*
X92198800Y-135726300D01*
G75*
G02*
X92058800Y-135586300I0J140000D01*
G01*
X92058800Y-135246300D01*
G75*
G02*
X92198800Y-135106300I140000J0D01*
G01*
X92478800Y-135106300D01*
G75*
G02*
X92618800Y-135246300I0J-140000D01*
G01*
G37*
%TD.AperFunction*%
%TD*%
%TO.P,C4,2*%
%TO.N,GND*%
%TA.AperFunction,SMDPad,CuDef*%
G36*
G01*
X104668200Y-137965800D02*
X105008200Y-137965800D01*
G75*
G02*
X105148200Y-138105800I0J-140000D01*
G01*
X105148200Y-138385800D01*
G75*
G02*
X105008200Y-138525800I-140000J0D01*
G01*
X104668200Y-138525800D01*
G75*
G02*
X104528200Y-138385800I0J140000D01*
G01*
X104528200Y-138105800D01*
G75*
G02*
X104668200Y-137965800I140000J0D01*
G01*
G37*
%TD.AperFunction*%
%TO.P,C4,1*%
%TO.N,Net-(C4-Pad1)*%
%TA.AperFunction,SMDPad,CuDef*%
G36*
G01*
X104668200Y-137005800D02*
X105008200Y-137005800D01*
G75*
G02*
X105148200Y-137145800I0J-140000D01*
G01*
X105148200Y-137425800D01*
G75*
G02*
X105008200Y-137565800I-140000J0D01*
G01*
X104668200Y-137565800D01*
G75*
G02*
X104528200Y-137425800I0J140000D01*
G01*
X104528200Y-137145800D01*
G75*
G02*
X104668200Y-137005800I140000J0D01*
G01*
G37*
%TD.AperFunction*%
%TD*%
%TO.P,C3,2*%
%TO.N,Net-(C3-Pad2)*%
%TA.AperFunction,SMDPad,CuDef*%
G36*
G01*
X101950040Y-137540400D02*
X101610040Y-137540400D01*
G75*
G02*
X101470040Y-137400400I0J140000D01*
G01*
X101470040Y-137120400D01*
G75*
G02*
X101610040Y-136980400I140000J0D01*
G01*
X101950040Y-136980400D01*
G75*
G02*
X102090040Y-137120400I0J-140000D01*
G01*
X102090040Y-137400400D01*
G75*
G02*
X101950040Y-137540400I-140000J0D01*
G01*
G37*
%TD.AperFunction*%
%TO.P,C3,1*%
%TO.N,GND*%
%TA.AperFunction,SMDPad,CuDef*%
G36*
G01*
X101950040Y-138500400D02*
X101610040Y-138500400D01*
G75*
G02*
X101470040Y-138360400I0J140000D01*
G01*
X101470040Y-138080400D01*
G75*
G02*
X101610040Y-137940400I140000J0D01*
G01*
X101950040Y-137940400D01*
G75*
G02*
X102090040Y-138080400I0J-140000D01*
G01*
X102090040Y-138360400D01*
G75*
G02*
X101950040Y-138500400I-140000J0D01*
G01*
G37*
%TD.AperFunction*%
%TD*%
%TO.P,C2,2*%
%TO.N,Net-(C2-Pad2)*%
%TA.AperFunction,SMDPad,CuDef*%
G36*
G01*
X99171640Y-133518260D02*
X99511640Y-133518260D01*
G75*
G02*
X99651640Y-133658260I0J-140000D01*
G01*
X99651640Y-133938260D01*
G75*
G02*
X99511640Y-134078260I-140000J0D01*
G01*
X99171640Y-134078260D01*
G75*
G02*
X99031640Y-133938260I0J140000D01*
G01*
X99031640Y-133658260D01*
G75*
G02*
X99171640Y-133518260I140000J0D01*
G01*
G37*
%TD.AperFunction*%
%TO.P,C2,1*%
%TO.N,GND*%
%TA.AperFunction,SMDPad,CuDef*%
G36*
G01*
X99171640Y-132558260D02*
X99511640Y-132558260D01*
G75*
G02*
X99651640Y-132698260I0J-140000D01*
G01*
X99651640Y-132978260D01*
G75*
G02*
X99511640Y-133118260I-140000J0D01*
G01*
X99171640Y-133118260D01*
G75*
G02*
X99031640Y-132978260I0J140000D01*
G01*
X99031640Y-132698260D01*
G75*
G02*
X99171640Y-132558260I140000J0D01*
G01*
G37*
%TD.AperFunction*%
%TD*%
%TO.P,C1,2*%
%TO.N,Net-(C1-Pad2)*%
%TA.AperFunction,SMDPad,CuDef*%
G36*
G01*
X104297000Y-133150000D02*
X103957000Y-133150000D01*
G75*
G02*
X103817000Y-133010000I0J140000D01*
G01*
X103817000Y-132730000D01*
G75*
G02*
X103957000Y-132590000I140000J0D01*
G01*
X104297000Y-132590000D01*
G75*
G02*
X104437000Y-132730000I0J-140000D01*
G01*
X104437000Y-133010000D01*
G75*
G02*
X104297000Y-133150000I-140000J0D01*
G01*
G37*
%TD.AperFunction*%
%TO.P,C1,1*%
%TO.N,GND*%
%TA.AperFunction,SMDPad,CuDef*%
G36*
G01*
X104297000Y-134110000D02*
X103957000Y-134110000D01*
G75*
G02*
X103817000Y-133970000I0J140000D01*
G01*
X103817000Y-133690000D01*
G75*
G02*
X103957000Y-133550000I140000J0D01*
G01*
X104297000Y-133550000D01*
G75*
G02*
X104437000Y-133690000I0J-140000D01*
G01*
X104437000Y-133970000D01*
G75*
G02*
X104297000Y-134110000I-140000J0D01*
G01*
G37*
%TD.AperFunction*%
%TD*%
D24*
%TO.N,GND*%
X96880680Y-139331700D03*
X98978720Y-139964160D03*
X98978720Y-138915140D03*
X98978720Y-137866120D03*
X96725740Y-136984740D03*
X98978720Y-136817100D03*
X95363261Y-143927189D03*
X90551000Y-141732000D03*
X105285540Y-132938520D03*
X97231200Y-134165340D03*
X103298040Y-138220400D03*
X106347260Y-138320780D03*
X103741220Y-139209780D03*
X103741220Y-140121640D03*
X103741220Y-141033500D03*
X103741220Y-141945360D03*
X103741220Y-142857220D03*
X103741220Y-143769080D03*
X102788720Y-141452600D03*
X96865440Y-146225260D03*
X97776861Y-132603724D03*
%TO.N,+3V3*%
X94233994Y-134493000D03*
X91186000Y-136398000D03*
%TO.N,+5V*%
X94018100Y-144122140D03*
X93314545Y-141380545D03*
%TO.N,D+*%
X96695683Y-143148793D03*
%TO.N,D-*%
X96380000Y-143938000D03*
%TO.N,Net-(C15-Pad1)*%
X105283000Y-134366000D03*
X95599158Y-134207158D03*
%TD*%
D25*
%TO.N,Net-(AE1-Pad1)*%
X107700780Y-139277100D02*
X107241040Y-139736840D01*
X107700780Y-137313620D02*
X107700780Y-139277100D01*
X107693100Y-137321300D02*
X107700780Y-137313620D01*
X106735520Y-137321300D02*
X107693100Y-137321300D01*
D26*
%TO.N,Net-(C1-Pad2)*%
X102919220Y-132872400D02*
X102269220Y-132872400D01*
X102969221Y-134572401D02*
X102969221Y-132922401D01*
X101501470Y-134884230D02*
X102657392Y-134884230D01*
X102657392Y-134884230D02*
X102969221Y-134572401D01*
X100529160Y-135856540D02*
X101501470Y-134884230D01*
X102271620Y-132870000D02*
X102269220Y-132872400D01*
X104127000Y-132870000D02*
X102271620Y-132870000D01*
%TO.N,GND*%
X95779160Y-137106540D02*
X95779160Y-135856540D01*
X97279160Y-138606540D02*
X95779160Y-137106540D01*
X96522540Y-134236460D02*
X96522540Y-133280160D01*
X100258640Y-143071860D02*
X100266260Y-143079480D01*
X99138380Y-143071860D02*
X100258640Y-143071860D01*
X90585999Y-138215419D02*
X90961880Y-138591300D01*
X90585999Y-135929101D02*
X90585999Y-138215419D01*
X91098800Y-135416300D02*
X90585999Y-135929101D01*
X91378800Y-135416300D02*
X91098800Y-135416300D01*
X104127000Y-134448500D02*
X104127000Y-133830000D01*
X103131260Y-135444240D02*
X104127000Y-134448500D01*
D27*
X101003522Y-132872400D02*
X100869220Y-132872400D01*
X102103522Y-133972400D02*
X101003522Y-132872400D01*
X102269220Y-133972400D02*
X102103522Y-133972400D01*
D26*
X99313700Y-132810320D02*
X99341640Y-132838260D01*
X100835080Y-132838260D02*
X100869220Y-132872400D01*
X99341640Y-132838260D02*
X100835080Y-132838260D01*
X104394060Y-133830000D02*
X105285540Y-132938520D01*
X104127000Y-133830000D02*
X104394060Y-133830000D01*
X96522540Y-133280160D02*
X96522540Y-133456680D01*
X97160080Y-134236460D02*
X97231200Y-134165340D01*
X96522540Y-134236460D02*
X97160080Y-134236460D01*
X99322580Y-132819200D02*
X99341640Y-132838260D01*
X98364040Y-132819200D02*
X99322580Y-132819200D01*
X98779160Y-137106540D02*
X97279160Y-138606540D01*
X100029160Y-137106540D02*
X98779160Y-137106540D01*
X91033000Y-144055960D02*
X92068440Y-145091400D01*
X91033000Y-143303000D02*
X91033000Y-144055960D01*
X92068440Y-134726660D02*
X91378800Y-135416300D01*
X92068440Y-133691400D02*
X92068440Y-134726660D01*
X94010078Y-145091400D02*
X92068440Y-145091400D01*
X95174289Y-143927189D02*
X94010078Y-145091400D01*
X95363261Y-143927189D02*
X95174289Y-143927189D01*
X104812800Y-138220400D02*
X104838200Y-138245800D01*
X101780040Y-138220400D02*
X103298040Y-138220400D01*
X103298040Y-138220400D02*
X104812800Y-138220400D01*
X90961880Y-140104160D02*
X90946940Y-140119100D01*
X90961880Y-138591300D02*
X90961880Y-140104160D01*
X90477340Y-141658340D02*
X90551000Y-141732000D01*
X90477340Y-140588700D02*
X90477340Y-141658340D01*
X90946940Y-140119100D02*
X90477340Y-140588700D01*
X96418400Y-134236460D02*
X96522540Y-134236460D01*
X95654159Y-135176539D02*
X95654161Y-135176537D01*
X95654159Y-135536541D02*
X95654159Y-135176539D01*
X95654161Y-135536543D02*
X95654159Y-135536541D01*
X95654161Y-135000699D02*
X96418400Y-134236460D01*
X95654161Y-135731541D02*
X95654161Y-135536543D01*
X95654161Y-135176537D02*
X95654161Y-135000699D01*
X95779160Y-135856540D02*
X95654161Y-135731541D01*
X99138380Y-143071860D02*
X99138380Y-143952320D01*
X99138380Y-143952320D02*
X96865440Y-146225260D01*
X92068440Y-145091400D02*
X93552299Y-146575259D01*
X93552299Y-146575259D02*
X96515441Y-146575259D01*
X96515441Y-146575259D02*
X96865440Y-146225260D01*
X97992337Y-132819200D02*
X97776861Y-132603724D01*
X98364040Y-132819200D02*
X97992337Y-132819200D01*
X90551000Y-142468600D02*
X90551000Y-141732000D01*
X91010740Y-142928340D02*
X90551000Y-142468600D01*
X91010740Y-143280740D02*
X91010740Y-142928340D01*
X91033000Y-143303000D02*
X91010740Y-143280740D01*
%TO.N,Net-(C2-Pad2)*%
X100029160Y-134812460D02*
X100869220Y-133972400D01*
X100029160Y-135356540D02*
X100029160Y-134812460D01*
X99515780Y-133972400D02*
X99341640Y-133798260D01*
X100869220Y-133972400D02*
X99515780Y-133972400D01*
%TO.N,Net-(C3-Pad2)*%
X100570298Y-137260400D02*
X101780040Y-137260400D01*
X100224158Y-137606540D02*
X100570298Y-137260400D01*
X100029160Y-137606540D02*
X100224158Y-137606540D01*
D25*
X102836760Y-137260400D02*
X102849520Y-137247640D01*
X101780040Y-137260400D02*
X102836760Y-137260400D01*
D26*
%TO.N,Net-(C5-Pad1)*%
X93279040Y-136356540D02*
X92338800Y-135416300D01*
X94029160Y-136356540D02*
X93279040Y-136356540D01*
%TO.N,+3V3*%
X97529160Y-142422640D02*
X98178380Y-143071860D01*
X97529160Y-141856540D02*
X97529160Y-142422640D01*
X100029160Y-141856540D02*
X100029160Y-141882380D01*
X98866070Y-142482610D02*
X100629390Y-142482610D01*
X98178380Y-143071860D02*
X98276820Y-143071860D01*
X98276820Y-143071860D02*
X98866070Y-142482610D01*
X100629390Y-142482610D02*
X101226260Y-143079480D01*
X100029160Y-141882380D02*
X100629390Y-142482610D01*
X95976200Y-145274040D02*
X95455440Y-145274040D01*
X98178380Y-143071860D02*
X95976200Y-145274040D01*
X94972540Y-133754454D02*
X94233994Y-134493000D01*
X94972540Y-133280160D02*
X94972540Y-133754454D01*
X94233994Y-135651706D02*
X94233994Y-134493000D01*
X94029160Y-135856540D02*
X94233994Y-135651706D01*
X91186000Y-137397740D02*
X91186000Y-136398000D01*
X92511880Y-138591300D02*
X92379560Y-138591300D01*
X92379560Y-138591300D02*
X91186000Y-137397740D01*
X99529160Y-134944320D02*
X99529160Y-135356540D01*
X98364040Y-133779200D02*
X99529160Y-134944320D01*
X93317060Y-139396480D02*
X92511880Y-138591300D01*
X93317060Y-139821216D02*
X93317060Y-139396480D01*
X93852384Y-140356540D02*
X93317060Y-139821216D01*
X94029160Y-140356540D02*
X93852384Y-140356540D01*
X95697550Y-132555150D02*
X94972540Y-133280160D01*
X96944298Y-132555150D02*
X95697550Y-132555150D01*
X97222550Y-132833402D02*
X96944298Y-132555150D01*
X97222550Y-132980161D02*
X97222550Y-132833402D01*
X98021589Y-133779200D02*
X97222550Y-132980161D01*
X98364040Y-133779200D02*
X98021589Y-133779200D01*
%TO.N,Net-(C9-Pad1)*%
X101494040Y-138856540D02*
X101815600Y-139178100D01*
X100529160Y-138856540D02*
X101494040Y-138856540D01*
%TO.N,Net-(C11-Pad2)*%
X101287880Y-136327620D02*
X102171260Y-135444240D01*
X100308080Y-136327620D02*
X101287880Y-136327620D01*
X100029160Y-136606540D02*
X100308080Y-136327620D01*
%TO.N,+5V*%
X93963549Y-140731541D02*
X93314545Y-141380545D01*
X94404159Y-140731541D02*
X93963549Y-140731541D01*
X94529160Y-140606540D02*
X94404159Y-140731541D01*
X92837000Y-143557000D02*
X92583000Y-143303000D01*
X94529160Y-143611080D02*
X94018100Y-144122140D01*
X94456260Y-143303000D02*
X94529160Y-143375900D01*
X92583000Y-143303000D02*
X94456260Y-143303000D01*
X94529160Y-143375900D02*
X94529160Y-143611080D01*
X94529160Y-141856540D02*
X94529160Y-143375900D01*
D27*
%TO.N,Net-(C20-Pad1)*%
X92337900Y-140119100D02*
X92496940Y-140119100D01*
X92964980Y-142527020D02*
X91561920Y-142527020D01*
X91150440Y-141306560D02*
X92337900Y-140119100D01*
X94869000Y-141478000D02*
X94014000Y-141478000D01*
X91150440Y-142115540D02*
X91150440Y-141306560D01*
X91561920Y-142527020D02*
X91150440Y-142115540D01*
X94990460Y-141356540D02*
X94869000Y-141478000D01*
X94014000Y-141478000D02*
X92964980Y-142527020D01*
X95279160Y-141356540D02*
X94990460Y-141356540D01*
D26*
%TO.N,SWDIO*%
X101937820Y-143871660D02*
X100535440Y-145274040D01*
X101937820Y-142765200D02*
X101937820Y-143871660D01*
X100529160Y-141356540D02*
X101937820Y-142765200D01*
%TO.N,SWDCLK*%
X103075440Y-143226044D02*
X103075440Y-145274040D01*
X100705936Y-140856540D02*
X103075440Y-143226044D01*
X100529160Y-140856540D02*
X100705936Y-140856540D01*
D27*
%TO.N,D+*%
X96695683Y-143023063D02*
X96695683Y-143148793D01*
X95529160Y-141856540D02*
X96695683Y-143023063D01*
%TO.N,D-*%
X95872000Y-143430000D02*
X96380000Y-143938000D01*
X95872000Y-142699380D02*
X95872000Y-143430000D01*
X95029160Y-141856540D02*
X95872000Y-142699380D01*
D25*
%TO.N,Net-(C4-Pad1)*%
X105740020Y-137285800D02*
X105775520Y-137321300D01*
X104838200Y-137285800D02*
X105740020Y-137285800D01*
X104800040Y-137247640D02*
X104838200Y-137285800D01*
X103819520Y-137247640D02*
X104800040Y-137247640D01*
D26*
%TO.N,Net-(C15-Pad1)*%
X103205730Y-136677630D02*
X104474680Y-135408680D01*
X100708070Y-136677630D02*
X103205730Y-136677630D01*
X100529160Y-136856540D02*
X100708070Y-136677630D01*
X105283000Y-134600360D02*
X104474680Y-135408680D01*
X105283000Y-134366000D02*
X105283000Y-134600360D01*
X95154161Y-134652155D02*
X95599158Y-134207158D01*
X95154161Y-135731541D02*
X95154161Y-134652155D01*
X95279160Y-135856540D02*
X95154161Y-135731541D01*
%TD*%
%TO.N,GND*%
X94393725Y-144861003D02*
X94299497Y-145088489D01*
X94251460Y-145329986D01*
X94251460Y-145576214D01*
X94299497Y-145817711D01*
X94393725Y-146045197D01*
X94530522Y-146249928D01*
X94704632Y-146424038D01*
X94744235Y-146450500D01*
X90455300Y-146450500D01*
X90455300Y-146167045D01*
X90476847Y-146186106D01*
X90705624Y-146319504D01*
X90956029Y-146405706D01*
X91218440Y-146441400D01*
X92018440Y-146441400D01*
X92018440Y-145141400D01*
X92118440Y-145141400D01*
X92118440Y-146441400D01*
X92918440Y-146441400D01*
X93180851Y-146405706D01*
X93431256Y-146319504D01*
X93660033Y-146186106D01*
X93858389Y-146010639D01*
X94018702Y-145799847D01*
X94134811Y-145561829D01*
X94193083Y-145351826D01*
X94117440Y-145141400D01*
X92118440Y-145141400D01*
X92018440Y-145141400D01*
X91998440Y-145141400D01*
X91998440Y-145041400D01*
X92018440Y-145041400D01*
X92018440Y-145021400D01*
X92118440Y-145021400D01*
X92118440Y-145041400D01*
X94117440Y-145041400D01*
X94184932Y-144853648D01*
X94236867Y-144843318D01*
X94373358Y-144786781D01*
X94496197Y-144704703D01*
X94502117Y-144698783D01*
X94393725Y-144861003D01*
%TA.AperFunction,Conductor*%
D28*
G36*
X94393725Y-144861003D02*
G01*
X94299497Y-145088489D01*
X94251460Y-145329986D01*
X94251460Y-145576214D01*
X94299497Y-145817711D01*
X94393725Y-146045197D01*
X94530522Y-146249928D01*
X94704632Y-146424038D01*
X94744235Y-146450500D01*
X90455300Y-146450500D01*
X90455300Y-146167045D01*
X90476847Y-146186106D01*
X90705624Y-146319504D01*
X90956029Y-146405706D01*
X91218440Y-146441400D01*
X92018440Y-146441400D01*
X92018440Y-145141400D01*
X92118440Y-145141400D01*
X92118440Y-146441400D01*
X92918440Y-146441400D01*
X93180851Y-146405706D01*
X93431256Y-146319504D01*
X93660033Y-146186106D01*
X93858389Y-146010639D01*
X94018702Y-145799847D01*
X94134811Y-145561829D01*
X94193083Y-145351826D01*
X94117440Y-145141400D01*
X92118440Y-145141400D01*
X92018440Y-145141400D01*
X91998440Y-145141400D01*
X91998440Y-145041400D01*
X92018440Y-145041400D01*
X92018440Y-145021400D01*
X92118440Y-145021400D01*
X92118440Y-145041400D01*
X94117440Y-145041400D01*
X94184932Y-144853648D01*
X94236867Y-144843318D01*
X94373358Y-144786781D01*
X94496197Y-144704703D01*
X94502117Y-144698783D01*
X94393725Y-144861003D01*
G37*
%TD.AperFunction*%
D26*
X99188380Y-143021860D02*
X99678640Y-143021860D01*
X99686260Y-143029480D01*
X100216260Y-143029480D01*
X100216260Y-143009480D01*
X100316260Y-143009480D01*
X100316260Y-143029480D01*
X100336260Y-143029480D01*
X100336260Y-143129480D01*
X100316260Y-143129480D01*
X100316260Y-143689480D01*
X100416260Y-143789480D01*
X100546260Y-143791415D01*
X100624674Y-143783692D01*
X100700074Y-143760820D01*
X100769563Y-143723677D01*
X100793132Y-143704334D01*
X100878870Y-143750163D01*
X100980534Y-143781002D01*
X101086260Y-143791415D01*
X101310958Y-143791415D01*
X100866971Y-144235403D01*
X100704574Y-144203100D01*
X100458346Y-144203100D01*
X100216849Y-144251137D01*
X99989363Y-144345365D01*
X99784632Y-144482162D01*
X99610522Y-144656272D01*
X99473725Y-144861003D01*
X99379497Y-145088489D01*
X99331460Y-145329986D01*
X99331460Y-145576214D01*
X99379497Y-145817711D01*
X99473725Y-146045197D01*
X99610522Y-146249928D01*
X99784632Y-146424038D01*
X99824235Y-146450500D01*
X98786960Y-146450500D01*
X98924690Y-146337639D01*
X99080284Y-146148333D01*
X99195957Y-145932310D01*
X99267263Y-145697871D01*
X99190462Y-145503100D01*
X98091460Y-145503100D01*
X98091460Y-145523100D01*
X97991460Y-145523100D01*
X97991460Y-145503100D01*
X96892458Y-145503100D01*
X96815657Y-145697871D01*
X96886963Y-145932310D01*
X97002636Y-146148333D01*
X97158230Y-146337639D01*
X97295960Y-146450500D01*
X96258685Y-146450500D01*
X96298288Y-146424038D01*
X96472398Y-146249928D01*
X96609195Y-146045197D01*
X96703423Y-145817711D01*
X96751460Y-145576214D01*
X96751460Y-145329986D01*
X96730870Y-145226475D01*
X96844786Y-145112560D01*
X96815657Y-145208329D01*
X96892458Y-145403100D01*
X97991460Y-145403100D01*
X97991460Y-144304187D01*
X98091460Y-144304187D01*
X98091460Y-145403100D01*
X99190462Y-145403100D01*
X99267263Y-145208329D01*
X99195957Y-144973890D01*
X99080284Y-144757867D01*
X98924690Y-144568561D01*
X98735154Y-144413248D01*
X98518960Y-144297895D01*
X98286231Y-144227299D01*
X98091460Y-144304187D01*
X97991460Y-144304187D01*
X97796689Y-144227299D01*
X97701030Y-144256316D01*
X98173552Y-143783795D01*
X98318380Y-143783795D01*
X98424106Y-143773382D01*
X98525770Y-143742543D01*
X98611508Y-143696714D01*
X98635077Y-143716057D01*
X98704566Y-143753200D01*
X98779966Y-143776072D01*
X98858380Y-143783795D01*
X98988380Y-143781860D01*
X99088380Y-143681860D01*
X99088380Y-143121860D01*
X99188380Y-143121860D01*
X99188380Y-143681860D01*
X99288380Y-143781860D01*
X99418380Y-143783795D01*
X99496794Y-143776072D01*
X99572194Y-143753200D01*
X99641683Y-143716057D01*
X99698530Y-143669404D01*
X99702049Y-143673691D01*
X99762957Y-143723677D01*
X99832446Y-143760820D01*
X99907846Y-143783692D01*
X99986260Y-143791415D01*
X100116260Y-143789480D01*
X100216260Y-143689480D01*
X100216260Y-143129480D01*
X99726000Y-143129480D01*
X99718380Y-143121860D01*
X99188380Y-143121860D01*
X99088380Y-143121860D01*
X99068380Y-143121860D01*
X99068380Y-143021860D01*
X99088380Y-143021860D01*
X99088380Y-143001860D01*
X99188380Y-143001860D01*
X99188380Y-143021860D01*
%TA.AperFunction,Conductor*%
D28*
G36*
X99188380Y-143021860D02*
G01*
X99678640Y-143021860D01*
X99686260Y-143029480D01*
X100216260Y-143029480D01*
X100216260Y-143009480D01*
X100316260Y-143009480D01*
X100316260Y-143029480D01*
X100336260Y-143029480D01*
X100336260Y-143129480D01*
X100316260Y-143129480D01*
X100316260Y-143689480D01*
X100416260Y-143789480D01*
X100546260Y-143791415D01*
X100624674Y-143783692D01*
X100700074Y-143760820D01*
X100769563Y-143723677D01*
X100793132Y-143704334D01*
X100878870Y-143750163D01*
X100980534Y-143781002D01*
X101086260Y-143791415D01*
X101310958Y-143791415D01*
X100866971Y-144235403D01*
X100704574Y-144203100D01*
X100458346Y-144203100D01*
X100216849Y-144251137D01*
X99989363Y-144345365D01*
X99784632Y-144482162D01*
X99610522Y-144656272D01*
X99473725Y-144861003D01*
X99379497Y-145088489D01*
X99331460Y-145329986D01*
X99331460Y-145576214D01*
X99379497Y-145817711D01*
X99473725Y-146045197D01*
X99610522Y-146249928D01*
X99784632Y-146424038D01*
X99824235Y-146450500D01*
X98786960Y-146450500D01*
X98924690Y-146337639D01*
X99080284Y-146148333D01*
X99195957Y-145932310D01*
X99267263Y-145697871D01*
X99190462Y-145503100D01*
X98091460Y-145503100D01*
X98091460Y-145523100D01*
X97991460Y-145523100D01*
X97991460Y-145503100D01*
X96892458Y-145503100D01*
X96815657Y-145697871D01*
X96886963Y-145932310D01*
X97002636Y-146148333D01*
X97158230Y-146337639D01*
X97295960Y-146450500D01*
X96258685Y-146450500D01*
X96298288Y-146424038D01*
X96472398Y-146249928D01*
X96609195Y-146045197D01*
X96703423Y-145817711D01*
X96751460Y-145576214D01*
X96751460Y-145329986D01*
X96730870Y-145226475D01*
X96844786Y-145112560D01*
X96815657Y-145208329D01*
X96892458Y-145403100D01*
X97991460Y-145403100D01*
X97991460Y-144304187D01*
X98091460Y-144304187D01*
X98091460Y-145403100D01*
X99190462Y-145403100D01*
X99267263Y-145208329D01*
X99195957Y-144973890D01*
X99080284Y-144757867D01*
X98924690Y-144568561D01*
X98735154Y-144413248D01*
X98518960Y-144297895D01*
X98286231Y-144227299D01*
X98091460Y-144304187D01*
X97991460Y-144304187D01*
X97796689Y-144227299D01*
X97701030Y-144256316D01*
X98173552Y-143783795D01*
X98318380Y-143783795D01*
X98424106Y-143773382D01*
X98525770Y-143742543D01*
X98611508Y-143696714D01*
X98635077Y-143716057D01*
X98704566Y-143753200D01*
X98779966Y-143776072D01*
X98858380Y-143783795D01*
X98988380Y-143781860D01*
X99088380Y-143681860D01*
X99088380Y-143121860D01*
X99188380Y-143121860D01*
X99188380Y-143681860D01*
X99288380Y-143781860D01*
X99418380Y-143783795D01*
X99496794Y-143776072D01*
X99572194Y-143753200D01*
X99641683Y-143716057D01*
X99698530Y-143669404D01*
X99702049Y-143673691D01*
X99762957Y-143723677D01*
X99832446Y-143760820D01*
X99907846Y-143783692D01*
X99986260Y-143791415D01*
X100116260Y-143789480D01*
X100216260Y-143689480D01*
X100216260Y-143129480D01*
X99726000Y-143129480D01*
X99718380Y-143121860D01*
X99188380Y-143121860D01*
X99088380Y-143121860D01*
X99068380Y-143121860D01*
X99068380Y-143021860D01*
X99088380Y-143021860D01*
X99088380Y-143001860D01*
X99188380Y-143001860D01*
X99188380Y-143021860D01*
G37*
%TD.AperFunction*%
D26*
X95408500Y-142891368D02*
X95408501Y-143407237D01*
X95406259Y-143430000D01*
X95408501Y-143452763D01*
X95408501Y-143452764D01*
X95412130Y-143489605D01*
X95415208Y-143520861D01*
X95441710Y-143608231D01*
X95484750Y-143688752D01*
X95528160Y-143741647D01*
X95528164Y-143741651D01*
X95542672Y-143759329D01*
X95560349Y-143773836D01*
X95633425Y-143846912D01*
X95630000Y-143864131D01*
X95630000Y-144011869D01*
X95658822Y-144156767D01*
X95682812Y-144214684D01*
X95624574Y-144203100D01*
X95378346Y-144203100D01*
X95136849Y-144251137D01*
X94909363Y-144345365D01*
X94704632Y-144482162D01*
X94629067Y-144557727D01*
X94682741Y-144477398D01*
X94739278Y-144340907D01*
X94768100Y-144196009D01*
X94768100Y-144079246D01*
X94865341Y-143982005D01*
X94884424Y-143966344D01*
X94946906Y-143890209D01*
X94993335Y-143803347D01*
X95015231Y-143731164D01*
X95021925Y-143709098D01*
X95031579Y-143611080D01*
X95029160Y-143586520D01*
X95029160Y-143400457D01*
X95031579Y-143375899D01*
X95029160Y-143351340D01*
X95029160Y-142512027D01*
X95408500Y-142891368D01*
%TA.AperFunction,Conductor*%
D28*
G36*
X95408500Y-142891368D02*
G01*
X95408501Y-143407237D01*
X95406259Y-143430000D01*
X95408501Y-143452763D01*
X95408501Y-143452764D01*
X95412130Y-143489605D01*
X95415208Y-143520861D01*
X95441710Y-143608231D01*
X95484750Y-143688752D01*
X95528160Y-143741647D01*
X95528164Y-143741651D01*
X95542672Y-143759329D01*
X95560349Y-143773836D01*
X95633425Y-143846912D01*
X95630000Y-143864131D01*
X95630000Y-144011869D01*
X95658822Y-144156767D01*
X95682812Y-144214684D01*
X95624574Y-144203100D01*
X95378346Y-144203100D01*
X95136849Y-144251137D01*
X94909363Y-144345365D01*
X94704632Y-144482162D01*
X94629067Y-144557727D01*
X94682741Y-144477398D01*
X94739278Y-144340907D01*
X94768100Y-144196009D01*
X94768100Y-144079246D01*
X94865341Y-143982005D01*
X94884424Y-143966344D01*
X94946906Y-143890209D01*
X94993335Y-143803347D01*
X95015231Y-143731164D01*
X95021925Y-143709098D01*
X95031579Y-143611080D01*
X95029160Y-143586520D01*
X95029160Y-143400457D01*
X95031579Y-143375899D01*
X95029160Y-143351340D01*
X95029160Y-142512027D01*
X95408500Y-142891368D01*
G37*
%TD.AperFunction*%
D26*
X101098700Y-137786586D02*
X101075828Y-137861986D01*
X101068105Y-137940400D01*
X101070040Y-138070400D01*
X101170040Y-138170400D01*
X101730040Y-138170400D01*
X101730040Y-138150400D01*
X101830040Y-138150400D01*
X101830040Y-138170400D01*
X102390040Y-138170400D01*
X102490040Y-138070400D01*
X102491975Y-137940400D01*
X102490672Y-137927170D01*
X102491760Y-137927752D01*
X102594831Y-137959018D01*
X102702020Y-137969575D01*
X102997020Y-137969575D01*
X103104209Y-137959018D01*
X103207280Y-137927752D01*
X103302270Y-137876979D01*
X103334520Y-137850512D01*
X103366770Y-137876979D01*
X103461760Y-137927752D01*
X103564831Y-137959018D01*
X103672020Y-137969575D01*
X103967020Y-137969575D01*
X104074209Y-137959018D01*
X104128557Y-137942532D01*
X104126265Y-137965800D01*
X104128200Y-138095800D01*
X104228200Y-138195800D01*
X104788200Y-138195800D01*
X104788200Y-138175800D01*
X104888200Y-138175800D01*
X104888200Y-138195800D01*
X105448200Y-138195800D01*
X105548200Y-138095800D01*
X105549258Y-138024739D01*
X105635520Y-138033235D01*
X105915520Y-138033235D01*
X106021246Y-138022822D01*
X106122910Y-137991983D01*
X106216603Y-137941902D01*
X106255520Y-137909964D01*
X106294437Y-137941902D01*
X106388130Y-137991983D01*
X106489794Y-138022822D01*
X106595520Y-138033235D01*
X106875520Y-138033235D01*
X106981246Y-138022822D01*
X107050780Y-138001729D01*
X107050781Y-138631000D01*
X105534287Y-138631000D01*
X105542412Y-138604214D01*
X105550135Y-138525800D01*
X105548200Y-138395800D01*
X105448200Y-138295800D01*
X104888200Y-138295800D01*
X104888200Y-138315800D01*
X104788200Y-138315800D01*
X104788200Y-138295800D01*
X104228200Y-138295800D01*
X104128200Y-138395800D01*
X104126265Y-138525800D01*
X104133988Y-138604214D01*
X104155422Y-138674875D01*
X104155082Y-138675288D01*
X104145809Y-138692559D01*
X104140083Y-138711308D01*
X104138125Y-138730813D01*
X104127859Y-144233142D01*
X104125274Y-144231760D01*
X104049874Y-144208888D01*
X103971460Y-144201165D01*
X103575440Y-144201165D01*
X103575440Y-143250604D01*
X103577859Y-143226044D01*
X103568205Y-143128027D01*
X103566334Y-143121860D01*
X103539615Y-143033777D01*
X103493186Y-142946915D01*
X103430704Y-142870780D01*
X103411627Y-142855124D01*
X101339230Y-140782728D01*
X101351786Y-140789440D01*
X101427186Y-140812312D01*
X101505600Y-140820035D01*
X101665600Y-140818100D01*
X101765600Y-140718100D01*
X101765600Y-140188100D01*
X101865600Y-140188100D01*
X101865600Y-140718100D01*
X101965600Y-140818100D01*
X102125600Y-140820035D01*
X102204014Y-140812312D01*
X102279414Y-140789440D01*
X102348903Y-140752297D01*
X102409811Y-140702311D01*
X102459797Y-140641403D01*
X102496940Y-140571914D01*
X102519812Y-140496514D01*
X102527535Y-140418100D01*
X102525600Y-140288100D01*
X102425600Y-140188100D01*
X101865600Y-140188100D01*
X101765600Y-140188100D01*
X101205600Y-140188100D01*
X101105600Y-140288100D01*
X101103665Y-140418100D01*
X101111388Y-140496514D01*
X101134260Y-140571914D01*
X101140972Y-140584471D01*
X101076865Y-140520364D01*
X101061200Y-140501276D01*
X101039240Y-140483254D01*
X101054160Y-140408248D01*
X101054160Y-140304832D01*
X101033984Y-140203403D01*
X100994409Y-140107859D01*
X100993528Y-140106540D01*
X100994409Y-140105221D01*
X101033984Y-140009677D01*
X101054160Y-139908248D01*
X101054160Y-139804832D01*
X101033984Y-139703403D01*
X100994409Y-139607859D01*
X100993528Y-139606540D01*
X100994409Y-139605221D01*
X101033984Y-139509677D01*
X101054160Y-139408248D01*
X101054160Y-139356540D01*
X101107451Y-139356540D01*
X101114078Y-139423826D01*
X101144917Y-139525490D01*
X101190746Y-139611228D01*
X101171403Y-139634797D01*
X101134260Y-139704286D01*
X101111388Y-139779686D01*
X101103665Y-139858100D01*
X101105600Y-139988100D01*
X101205600Y-140088100D01*
X101765600Y-140088100D01*
X101765600Y-140068100D01*
X101865600Y-140068100D01*
X101865600Y-140088100D01*
X102425600Y-140088100D01*
X102525600Y-139988100D01*
X102527535Y-139858100D01*
X102519812Y-139779686D01*
X102496940Y-139704286D01*
X102459797Y-139634797D01*
X102440454Y-139611228D01*
X102486283Y-139525490D01*
X102517122Y-139423826D01*
X102527535Y-139318100D01*
X102527535Y-139038100D01*
X102517122Y-138932374D01*
X102486283Y-138830710D01*
X102436202Y-138737017D01*
X102424647Y-138722937D01*
X102461380Y-138654214D01*
X102484252Y-138578814D01*
X102491975Y-138500400D01*
X102490040Y-138370400D01*
X102390040Y-138270400D01*
X101830040Y-138270400D01*
X101830040Y-138290400D01*
X101730040Y-138290400D01*
X101730040Y-138270400D01*
X101170040Y-138270400D01*
X101083900Y-138356540D01*
X101054160Y-138356540D01*
X101054160Y-138304832D01*
X101033984Y-138203403D01*
X100994409Y-138107859D01*
X100993528Y-138106540D01*
X100994409Y-138105221D01*
X101033984Y-138009677D01*
X101054160Y-137908248D01*
X101054160Y-137804832D01*
X101045322Y-137760400D01*
X101112697Y-137760400D01*
X101098700Y-137786586D01*
%TA.AperFunction,Conductor*%
D28*
G36*
X101098700Y-137786586D02*
G01*
X101075828Y-137861986D01*
X101068105Y-137940400D01*
X101070040Y-138070400D01*
X101170040Y-138170400D01*
X101730040Y-138170400D01*
X101730040Y-138150400D01*
X101830040Y-138150400D01*
X101830040Y-138170400D01*
X102390040Y-138170400D01*
X102490040Y-138070400D01*
X102491975Y-137940400D01*
X102490672Y-137927170D01*
X102491760Y-137927752D01*
X102594831Y-137959018D01*
X102702020Y-137969575D01*
X102997020Y-137969575D01*
X103104209Y-137959018D01*
X103207280Y-137927752D01*
X103302270Y-137876979D01*
X103334520Y-137850512D01*
X103366770Y-137876979D01*
X103461760Y-137927752D01*
X103564831Y-137959018D01*
X103672020Y-137969575D01*
X103967020Y-137969575D01*
X104074209Y-137959018D01*
X104128557Y-137942532D01*
X104126265Y-137965800D01*
X104128200Y-138095800D01*
X104228200Y-138195800D01*
X104788200Y-138195800D01*
X104788200Y-138175800D01*
X104888200Y-138175800D01*
X104888200Y-138195800D01*
X105448200Y-138195800D01*
X105548200Y-138095800D01*
X105549258Y-138024739D01*
X105635520Y-138033235D01*
X105915520Y-138033235D01*
X106021246Y-138022822D01*
X106122910Y-137991983D01*
X106216603Y-137941902D01*
X106255520Y-137909964D01*
X106294437Y-137941902D01*
X106388130Y-137991983D01*
X106489794Y-138022822D01*
X106595520Y-138033235D01*
X106875520Y-138033235D01*
X106981246Y-138022822D01*
X107050780Y-138001729D01*
X107050781Y-138631000D01*
X105534287Y-138631000D01*
X105542412Y-138604214D01*
X105550135Y-138525800D01*
X105548200Y-138395800D01*
X105448200Y-138295800D01*
X104888200Y-138295800D01*
X104888200Y-138315800D01*
X104788200Y-138315800D01*
X104788200Y-138295800D01*
X104228200Y-138295800D01*
X104128200Y-138395800D01*
X104126265Y-138525800D01*
X104133988Y-138604214D01*
X104155422Y-138674875D01*
X104155082Y-138675288D01*
X104145809Y-138692559D01*
X104140083Y-138711308D01*
X104138125Y-138730813D01*
X104127859Y-144233142D01*
X104125274Y-144231760D01*
X104049874Y-144208888D01*
X103971460Y-144201165D01*
X103575440Y-144201165D01*
X103575440Y-143250604D01*
X103577859Y-143226044D01*
X103568205Y-143128027D01*
X103566334Y-143121860D01*
X103539615Y-143033777D01*
X103493186Y-142946915D01*
X103430704Y-142870780D01*
X103411627Y-142855124D01*
X101339230Y-140782728D01*
X101351786Y-140789440D01*
X101427186Y-140812312D01*
X101505600Y-140820035D01*
X101665600Y-140818100D01*
X101765600Y-140718100D01*
X101765600Y-140188100D01*
X101865600Y-140188100D01*
X101865600Y-140718100D01*
X101965600Y-140818100D01*
X102125600Y-140820035D01*
X102204014Y-140812312D01*
X102279414Y-140789440D01*
X102348903Y-140752297D01*
X102409811Y-140702311D01*
X102459797Y-140641403D01*
X102496940Y-140571914D01*
X102519812Y-140496514D01*
X102527535Y-140418100D01*
X102525600Y-140288100D01*
X102425600Y-140188100D01*
X101865600Y-140188100D01*
X101765600Y-140188100D01*
X101205600Y-140188100D01*
X101105600Y-140288100D01*
X101103665Y-140418100D01*
X101111388Y-140496514D01*
X101134260Y-140571914D01*
X101140972Y-140584471D01*
X101076865Y-140520364D01*
X101061200Y-140501276D01*
X101039240Y-140483254D01*
X101054160Y-140408248D01*
X101054160Y-140304832D01*
X101033984Y-140203403D01*
X100994409Y-140107859D01*
X100993528Y-140106540D01*
X100994409Y-140105221D01*
X101033984Y-140009677D01*
X101054160Y-139908248D01*
X101054160Y-139804832D01*
X101033984Y-139703403D01*
X100994409Y-139607859D01*
X100993528Y-139606540D01*
X100994409Y-139605221D01*
X101033984Y-139509677D01*
X101054160Y-139408248D01*
X101054160Y-139356540D01*
X101107451Y-139356540D01*
X101114078Y-139423826D01*
X101144917Y-139525490D01*
X101190746Y-139611228D01*
X101171403Y-139634797D01*
X101134260Y-139704286D01*
X101111388Y-139779686D01*
X101103665Y-139858100D01*
X101105600Y-139988100D01*
X101205600Y-140088100D01*
X101765600Y-140088100D01*
X101765600Y-140068100D01*
X101865600Y-140068100D01*
X101865600Y-140088100D01*
X102425600Y-140088100D01*
X102525600Y-139988100D01*
X102527535Y-139858100D01*
X102519812Y-139779686D01*
X102496940Y-139704286D01*
X102459797Y-139634797D01*
X102440454Y-139611228D01*
X102486283Y-139525490D01*
X102517122Y-139423826D01*
X102527535Y-139318100D01*
X102527535Y-139038100D01*
X102517122Y-138932374D01*
X102486283Y-138830710D01*
X102436202Y-138737017D01*
X102424647Y-138722937D01*
X102461380Y-138654214D01*
X102484252Y-138578814D01*
X102491975Y-138500400D01*
X102490040Y-138370400D01*
X102390040Y-138270400D01*
X101830040Y-138270400D01*
X101830040Y-138290400D01*
X101730040Y-138290400D01*
X101730040Y-138270400D01*
X101170040Y-138270400D01*
X101083900Y-138356540D01*
X101054160Y-138356540D01*
X101054160Y-138304832D01*
X101033984Y-138203403D01*
X100994409Y-138107859D01*
X100993528Y-138106540D01*
X100994409Y-138105221D01*
X101033984Y-138009677D01*
X101054160Y-137908248D01*
X101054160Y-137804832D01*
X101045322Y-137760400D01*
X101112697Y-137760400D01*
X101098700Y-137786586D01*
G37*
%TD.AperFunction*%
D26*
X91083000Y-143253000D02*
X91103000Y-143253000D01*
X91103000Y-143353000D01*
X91083000Y-143353000D01*
X91083000Y-143373000D01*
X90983000Y-143373000D01*
X90983000Y-143353000D01*
X90963000Y-143353000D01*
X90963000Y-143253000D01*
X90983000Y-143253000D01*
X90983000Y-143233000D01*
X91083000Y-143233000D01*
X91083000Y-143253000D01*
%TA.AperFunction,Conductor*%
D28*
G36*
X91083000Y-143253000D02*
G01*
X91103000Y-143253000D01*
X91103000Y-143353000D01*
X91083000Y-143353000D01*
X91083000Y-143373000D01*
X90983000Y-143373000D01*
X90983000Y-143353000D01*
X90963000Y-143353000D01*
X90963000Y-143253000D01*
X90983000Y-143253000D01*
X90983000Y-143233000D01*
X91083000Y-143233000D01*
X91083000Y-143253000D01*
G37*
%TD.AperFunction*%
D26*
X90896938Y-140904575D02*
X90838790Y-140962723D01*
X90821112Y-140977231D01*
X90806604Y-140994909D01*
X90806600Y-140994913D01*
X90763190Y-141047808D01*
X90720150Y-141128329D01*
X90713793Y-141149287D01*
X90693648Y-141215698D01*
X90688725Y-141265679D01*
X90684699Y-141306560D01*
X90686941Y-141329323D01*
X90686940Y-142092786D01*
X90684699Y-142115540D01*
X90686940Y-142138293D01*
X90686940Y-142138303D01*
X90693647Y-142206401D01*
X90711221Y-142264334D01*
X90720150Y-142293771D01*
X90763190Y-142374292D01*
X90802868Y-142422640D01*
X90806864Y-142427509D01*
X90583000Y-142426065D01*
X90504586Y-142433788D01*
X90455300Y-142448739D01*
X90455300Y-140991934D01*
X90496940Y-140996035D01*
X90796940Y-140994100D01*
X90896938Y-140894102D01*
X90896938Y-140904575D01*
%TA.AperFunction,Conductor*%
D28*
G36*
X90896938Y-140904575D02*
G01*
X90838790Y-140962723D01*
X90821112Y-140977231D01*
X90806604Y-140994909D01*
X90806600Y-140994913D01*
X90763190Y-141047808D01*
X90720150Y-141128329D01*
X90713793Y-141149287D01*
X90693648Y-141215698D01*
X90688725Y-141265679D01*
X90684699Y-141306560D01*
X90686941Y-141329323D01*
X90686940Y-142092786D01*
X90684699Y-142115540D01*
X90686940Y-142138293D01*
X90686940Y-142138303D01*
X90693647Y-142206401D01*
X90711221Y-142264334D01*
X90720150Y-142293771D01*
X90763190Y-142374292D01*
X90802868Y-142422640D01*
X90806864Y-142427509D01*
X90583000Y-142426065D01*
X90504586Y-142433788D01*
X90455300Y-142448739D01*
X90455300Y-140991934D01*
X90496940Y-140996035D01*
X90796940Y-140994100D01*
X90896938Y-140894102D01*
X90896938Y-140904575D01*
G37*
%TD.AperFunction*%
D26*
X91011880Y-138541300D02*
X91031880Y-138541300D01*
X91031880Y-138641300D01*
X91011880Y-138641300D01*
X91011880Y-139329160D01*
X90996940Y-139344100D01*
X90996940Y-140069100D01*
X91016940Y-140069100D01*
X91016940Y-140169100D01*
X90996940Y-140169100D01*
X90996940Y-140189100D01*
X90896940Y-140189100D01*
X90896940Y-140169100D01*
X90876940Y-140169100D01*
X90876940Y-140069100D01*
X90896940Y-140069100D01*
X90896940Y-139381240D01*
X90911880Y-139366300D01*
X90911880Y-138641300D01*
X90891880Y-138641300D01*
X90891880Y-138541300D01*
X90911880Y-138541300D01*
X90911880Y-138521300D01*
X91011880Y-138521300D01*
X91011880Y-138541300D01*
%TA.AperFunction,Conductor*%
D28*
G36*
X91011880Y-138541300D02*
G01*
X91031880Y-138541300D01*
X91031880Y-138641300D01*
X91011880Y-138641300D01*
X91011880Y-139329160D01*
X90996940Y-139344100D01*
X90996940Y-140069100D01*
X91016940Y-140069100D01*
X91016940Y-140169100D01*
X90996940Y-140169100D01*
X90996940Y-140189100D01*
X90896940Y-140189100D01*
X90896940Y-140169100D01*
X90876940Y-140169100D01*
X90876940Y-140069100D01*
X90896940Y-140069100D01*
X90896940Y-139381240D01*
X90911880Y-139366300D01*
X90911880Y-138641300D01*
X90891880Y-138641300D01*
X90891880Y-138541300D01*
X90911880Y-138541300D01*
X90911880Y-138521300D01*
X91011880Y-138521300D01*
X91011880Y-138541300D01*
G37*
%TD.AperFunction*%
D26*
X97329160Y-138556540D02*
X97349160Y-138556540D01*
X97349160Y-138656540D01*
X97329160Y-138656540D01*
X97329160Y-138676540D01*
X97229160Y-138676540D01*
X97229160Y-138656540D01*
X97209160Y-138656540D01*
X97209160Y-138556540D01*
X97229160Y-138556540D01*
X97229160Y-138536540D01*
X97329160Y-138536540D01*
X97329160Y-138556540D01*
%TA.AperFunction,Conductor*%
D28*
G36*
X97329160Y-138556540D02*
G01*
X97349160Y-138556540D01*
X97349160Y-138656540D01*
X97329160Y-138656540D01*
X97329160Y-138676540D01*
X97229160Y-138676540D01*
X97229160Y-138656540D01*
X97209160Y-138656540D01*
X97209160Y-138556540D01*
X97229160Y-138556540D01*
X97229160Y-138536540D01*
X97329160Y-138536540D01*
X97329160Y-138556540D01*
G37*
%TD.AperFunction*%
D26*
X108146728Y-134436632D02*
X108145214Y-135696401D01*
X108089194Y-135679408D01*
X108010780Y-135671685D01*
X107850780Y-135673620D01*
X107750780Y-135773620D01*
X107750780Y-136303620D01*
X107770780Y-136303620D01*
X107770780Y-136403620D01*
X107750780Y-136403620D01*
X107750780Y-136423620D01*
X107650780Y-136423620D01*
X107650780Y-136403620D01*
X107090780Y-136403620D01*
X106990780Y-136503620D01*
X106989016Y-136622135D01*
X106981246Y-136619778D01*
X106875520Y-136609365D01*
X106595520Y-136609365D01*
X106489794Y-136619778D01*
X106388130Y-136650617D01*
X106294437Y-136700698D01*
X106255520Y-136732636D01*
X106216603Y-136700698D01*
X106122910Y-136650617D01*
X106021246Y-136619778D01*
X105915520Y-136609365D01*
X105635520Y-136609365D01*
X105529794Y-136619778D01*
X105476976Y-136635800D01*
X105184876Y-136635800D01*
X105113926Y-136614278D01*
X105008200Y-136603865D01*
X104895175Y-136603865D01*
X104831972Y-136597640D01*
X104831961Y-136597640D01*
X104800040Y-136594496D01*
X104768119Y-136597640D01*
X104233616Y-136597640D01*
X104177280Y-136567528D01*
X104074209Y-136536262D01*
X104055997Y-136534468D01*
X104304851Y-136285615D01*
X104699680Y-136285615D01*
X104821989Y-136273569D01*
X104939598Y-136237892D01*
X105047986Y-136179957D01*
X105142990Y-136101990D01*
X105201338Y-136030893D01*
X105203340Y-136037494D01*
X105240483Y-136106983D01*
X105290469Y-136167891D01*
X105351377Y-136217877D01*
X105420866Y-136255020D01*
X105496266Y-136277892D01*
X105574680Y-136285615D01*
X105874680Y-136283680D01*
X105974680Y-136183680D01*
X105974680Y-135458680D01*
X106074680Y-135458680D01*
X106074680Y-136183680D01*
X106174680Y-136283680D01*
X106474680Y-136285615D01*
X106553094Y-136277892D01*
X106628494Y-136255020D01*
X106697983Y-136217877D01*
X106758891Y-136167891D01*
X106808877Y-136106983D01*
X106826710Y-136073620D01*
X106988845Y-136073620D01*
X106990780Y-136203620D01*
X107090780Y-136303620D01*
X107650780Y-136303620D01*
X107650780Y-135773620D01*
X107550780Y-135673620D01*
X107390780Y-135671685D01*
X107312366Y-135679408D01*
X107236966Y-135702280D01*
X107167477Y-135739423D01*
X107106569Y-135789409D01*
X107056583Y-135850317D01*
X107019440Y-135919806D01*
X106996568Y-135995206D01*
X106988845Y-136073620D01*
X106826710Y-136073620D01*
X106846020Y-136037494D01*
X106868892Y-135962094D01*
X106876615Y-135883680D01*
X106874680Y-135558680D01*
X106774680Y-135458680D01*
X106074680Y-135458680D01*
X105974680Y-135458680D01*
X105954680Y-135458680D01*
X105954680Y-135358680D01*
X105974680Y-135358680D01*
X105974680Y-134655981D01*
X105983917Y-134633680D01*
X106074680Y-134633680D01*
X106074680Y-135358680D01*
X106774680Y-135358680D01*
X106874680Y-135258680D01*
X106876615Y-134933680D01*
X106868892Y-134855266D01*
X106846020Y-134779866D01*
X106808877Y-134710377D01*
X106758891Y-134649469D01*
X106697983Y-134599483D01*
X106628494Y-134562340D01*
X106553094Y-134539468D01*
X106474680Y-134531745D01*
X106174680Y-134533680D01*
X106074680Y-134633680D01*
X105983917Y-134633680D01*
X106004178Y-134584767D01*
X106033000Y-134439869D01*
X106033000Y-134292131D01*
X106004178Y-134147233D01*
X105947641Y-134010742D01*
X105865563Y-133887903D01*
X105761097Y-133783437D01*
X105638258Y-133701359D01*
X105501767Y-133644822D01*
X105356869Y-133616000D01*
X105209131Y-133616000D01*
X105064233Y-133644822D01*
X104927742Y-133701359D01*
X104810050Y-133779998D01*
X104737002Y-133779998D01*
X104837000Y-133680000D01*
X104838935Y-133550000D01*
X104831212Y-133471586D01*
X104808340Y-133396186D01*
X104771197Y-133326697D01*
X104751854Y-133303128D01*
X104797683Y-133217390D01*
X104828522Y-133115726D01*
X104838935Y-133010000D01*
X104838935Y-132730000D01*
X104828522Y-132624274D01*
X104797683Y-132522610D01*
X104786965Y-132502558D01*
X105255579Y-132502481D01*
X108146728Y-134436632D01*
%TA.AperFunction,Conductor*%
D28*
G36*
X108146728Y-134436632D02*
G01*
X108145214Y-135696401D01*
X108089194Y-135679408D01*
X108010780Y-135671685D01*
X107850780Y-135673620D01*
X107750780Y-135773620D01*
X107750780Y-136303620D01*
X107770780Y-136303620D01*
X107770780Y-136403620D01*
X107750780Y-136403620D01*
X107750780Y-136423620D01*
X107650780Y-136423620D01*
X107650780Y-136403620D01*
X107090780Y-136403620D01*
X106990780Y-136503620D01*
X106989016Y-136622135D01*
X106981246Y-136619778D01*
X106875520Y-136609365D01*
X106595520Y-136609365D01*
X106489794Y-136619778D01*
X106388130Y-136650617D01*
X106294437Y-136700698D01*
X106255520Y-136732636D01*
X106216603Y-136700698D01*
X106122910Y-136650617D01*
X106021246Y-136619778D01*
X105915520Y-136609365D01*
X105635520Y-136609365D01*
X105529794Y-136619778D01*
X105476976Y-136635800D01*
X105184876Y-136635800D01*
X105113926Y-136614278D01*
X105008200Y-136603865D01*
X104895175Y-136603865D01*
X104831972Y-136597640D01*
X104831961Y-136597640D01*
X104800040Y-136594496D01*
X104768119Y-136597640D01*
X104233616Y-136597640D01*
X104177280Y-136567528D01*
X104074209Y-136536262D01*
X104055997Y-136534468D01*
X104304851Y-136285615D01*
X104699680Y-136285615D01*
X104821989Y-136273569D01*
X104939598Y-136237892D01*
X105047986Y-136179957D01*
X105142990Y-136101990D01*
X105201338Y-136030893D01*
X105203340Y-136037494D01*
X105240483Y-136106983D01*
X105290469Y-136167891D01*
X105351377Y-136217877D01*
X105420866Y-136255020D01*
X105496266Y-136277892D01*
X105574680Y-136285615D01*
X105874680Y-136283680D01*
X105974680Y-136183680D01*
X105974680Y-135458680D01*
X106074680Y-135458680D01*
X106074680Y-136183680D01*
X106174680Y-136283680D01*
X106474680Y-136285615D01*
X106553094Y-136277892D01*
X106628494Y-136255020D01*
X106697983Y-136217877D01*
X106758891Y-136167891D01*
X106808877Y-136106983D01*
X106826710Y-136073620D01*
X106988845Y-136073620D01*
X106990780Y-136203620D01*
X107090780Y-136303620D01*
X107650780Y-136303620D01*
X107650780Y-135773620D01*
X107550780Y-135673620D01*
X107390780Y-135671685D01*
X107312366Y-135679408D01*
X107236966Y-135702280D01*
X107167477Y-135739423D01*
X107106569Y-135789409D01*
X107056583Y-135850317D01*
X107019440Y-135919806D01*
X106996568Y-135995206D01*
X106988845Y-136073620D01*
X106826710Y-136073620D01*
X106846020Y-136037494D01*
X106868892Y-135962094D01*
X106876615Y-135883680D01*
X106874680Y-135558680D01*
X106774680Y-135458680D01*
X106074680Y-135458680D01*
X105974680Y-135458680D01*
X105954680Y-135458680D01*
X105954680Y-135358680D01*
X105974680Y-135358680D01*
X105974680Y-134655981D01*
X105983917Y-134633680D01*
X106074680Y-134633680D01*
X106074680Y-135358680D01*
X106774680Y-135358680D01*
X106874680Y-135258680D01*
X106876615Y-134933680D01*
X106868892Y-134855266D01*
X106846020Y-134779866D01*
X106808877Y-134710377D01*
X106758891Y-134649469D01*
X106697983Y-134599483D01*
X106628494Y-134562340D01*
X106553094Y-134539468D01*
X106474680Y-134531745D01*
X106174680Y-134533680D01*
X106074680Y-134633680D01*
X105983917Y-134633680D01*
X106004178Y-134584767D01*
X106033000Y-134439869D01*
X106033000Y-134292131D01*
X106004178Y-134147233D01*
X105947641Y-134010742D01*
X105865563Y-133887903D01*
X105761097Y-133783437D01*
X105638258Y-133701359D01*
X105501767Y-133644822D01*
X105356869Y-133616000D01*
X105209131Y-133616000D01*
X105064233Y-133644822D01*
X104927742Y-133701359D01*
X104810050Y-133779998D01*
X104737002Y-133779998D01*
X104837000Y-133680000D01*
X104838935Y-133550000D01*
X104831212Y-133471586D01*
X104808340Y-133396186D01*
X104771197Y-133326697D01*
X104751854Y-133303128D01*
X104797683Y-133217390D01*
X104828522Y-133115726D01*
X104838935Y-133010000D01*
X104838935Y-132730000D01*
X104828522Y-132624274D01*
X104797683Y-132522610D01*
X104786965Y-132502558D01*
X105255579Y-132502481D01*
X108146728Y-134436632D01*
G37*
%TD.AperFunction*%
D26*
X90476847Y-134786106D02*
X90705624Y-134919504D01*
X90738956Y-134930979D01*
X90727460Y-134952486D01*
X90704588Y-135027886D01*
X90696865Y-135106300D01*
X90698800Y-135266300D01*
X90798800Y-135366300D01*
X91328800Y-135366300D01*
X91328800Y-135346300D01*
X91428800Y-135346300D01*
X91428800Y-135366300D01*
X91448800Y-135366300D01*
X91448800Y-135466300D01*
X91428800Y-135466300D01*
X91428800Y-135486300D01*
X91328800Y-135486300D01*
X91328800Y-135466300D01*
X90798800Y-135466300D01*
X90698800Y-135566300D01*
X90696865Y-135726300D01*
X90704588Y-135804714D01*
X90707855Y-135815485D01*
X90603437Y-135919903D01*
X90521359Y-136042742D01*
X90464822Y-136179233D01*
X90455300Y-136227103D01*
X90455300Y-134767045D01*
X90476847Y-134786106D01*
%TA.AperFunction,Conductor*%
D28*
G36*
X90476847Y-134786106D02*
G01*
X90705624Y-134919504D01*
X90738956Y-134930979D01*
X90727460Y-134952486D01*
X90704588Y-135027886D01*
X90696865Y-135106300D01*
X90698800Y-135266300D01*
X90798800Y-135366300D01*
X91328800Y-135366300D01*
X91328800Y-135346300D01*
X91428800Y-135346300D01*
X91428800Y-135366300D01*
X91448800Y-135366300D01*
X91448800Y-135466300D01*
X91428800Y-135466300D01*
X91428800Y-135486300D01*
X91328800Y-135486300D01*
X91328800Y-135466300D01*
X90798800Y-135466300D01*
X90698800Y-135566300D01*
X90696865Y-135726300D01*
X90704588Y-135804714D01*
X90707855Y-135815485D01*
X90603437Y-135919903D01*
X90521359Y-136042742D01*
X90464822Y-136179233D01*
X90455300Y-136227103D01*
X90455300Y-134767045D01*
X90476847Y-134786106D01*
G37*
%TD.AperFunction*%
D26*
X103181260Y-135394240D02*
X103201260Y-135394240D01*
X103201260Y-135494240D01*
X103181260Y-135494240D01*
X103181260Y-135514240D01*
X103081260Y-135514240D01*
X103081260Y-135494240D01*
X103061260Y-135494240D01*
X103061260Y-135394240D01*
X103081260Y-135394240D01*
X103081260Y-135374240D01*
X103181260Y-135374240D01*
X103181260Y-135394240D01*
%TA.AperFunction,Conductor*%
D28*
G36*
X103181260Y-135394240D02*
G01*
X103201260Y-135394240D01*
X103201260Y-135494240D01*
X103181260Y-135494240D01*
X103181260Y-135514240D01*
X103081260Y-135514240D01*
X103081260Y-135494240D01*
X103061260Y-135494240D01*
X103061260Y-135394240D01*
X103081260Y-135394240D01*
X103081260Y-135374240D01*
X103181260Y-135374240D01*
X103181260Y-135394240D01*
G37*
%TD.AperFunction*%
D26*
X95654161Y-134989077D02*
X95654161Y-134957158D01*
X95673027Y-134957158D01*
X95689321Y-134953917D01*
X95654161Y-134989077D01*
%TA.AperFunction,Conductor*%
D28*
G36*
X95654161Y-134989077D02*
G01*
X95654161Y-134957158D01*
X95673027Y-134957158D01*
X95689321Y-134953917D01*
X95654161Y-134989077D01*
G37*
%TD.AperFunction*%
D26*
X96572540Y-133230160D02*
X96592540Y-133230160D01*
X96592540Y-133330160D01*
X96572540Y-133330160D01*
X96572540Y-134055160D01*
X96672540Y-134155160D01*
X96972540Y-134157095D01*
X97050954Y-134149372D01*
X97126354Y-134126500D01*
X97195843Y-134089357D01*
X97256751Y-134039371D01*
X97306737Y-133978463D01*
X97343880Y-133908974D01*
X97366752Y-133833574D01*
X97366941Y-133831658D01*
X97650668Y-134115386D01*
X97666325Y-134134464D01*
X97721980Y-134180138D01*
X97743438Y-134220283D01*
X97810834Y-134302406D01*
X97892957Y-134369802D01*
X97986650Y-134419883D01*
X98088314Y-134450722D01*
X98194040Y-134461135D01*
X98338869Y-134461135D01*
X98762791Y-134885057D01*
X98682297Y-134851716D01*
X98580868Y-134831540D01*
X98477452Y-134831540D01*
X98376023Y-134851716D01*
X98280479Y-134891291D01*
X98279160Y-134892172D01*
X98277841Y-134891291D01*
X98182297Y-134851716D01*
X98080868Y-134831540D01*
X97977452Y-134831540D01*
X97876023Y-134851716D01*
X97780479Y-134891291D01*
X97779160Y-134892172D01*
X97777841Y-134891291D01*
X97682297Y-134851716D01*
X97580868Y-134831540D01*
X97477452Y-134831540D01*
X97376023Y-134851716D01*
X97280479Y-134891291D01*
X97279160Y-134892172D01*
X97277841Y-134891291D01*
X97182297Y-134851716D01*
X97080868Y-134831540D01*
X96977452Y-134831540D01*
X96876023Y-134851716D01*
X96780479Y-134891291D01*
X96779160Y-134892172D01*
X96777841Y-134891291D01*
X96682297Y-134851716D01*
X96580868Y-134831540D01*
X96477452Y-134831540D01*
X96376023Y-134851716D01*
X96280479Y-134891291D01*
X96279160Y-134892172D01*
X96277841Y-134891291D01*
X96182297Y-134851716D01*
X96080868Y-134831540D01*
X96014668Y-134831540D01*
X96077255Y-134789721D01*
X96181721Y-134685255D01*
X96263799Y-134562416D01*
X96320336Y-134425925D01*
X96349158Y-134281027D01*
X96349158Y-134155311D01*
X96372540Y-134155160D01*
X96472540Y-134055160D01*
X96472540Y-133330160D01*
X96452540Y-133330160D01*
X96452540Y-133230160D01*
X96472540Y-133230160D01*
X96472540Y-133210160D01*
X96572540Y-133210160D01*
X96572540Y-133230160D01*
%TA.AperFunction,Conductor*%
D28*
G36*
X96572540Y-133230160D02*
G01*
X96592540Y-133230160D01*
X96592540Y-133330160D01*
X96572540Y-133330160D01*
X96572540Y-134055160D01*
X96672540Y-134155160D01*
X96972540Y-134157095D01*
X97050954Y-134149372D01*
X97126354Y-134126500D01*
X97195843Y-134089357D01*
X97256751Y-134039371D01*
X97306737Y-133978463D01*
X97343880Y-133908974D01*
X97366752Y-133833574D01*
X97366941Y-133831658D01*
X97650668Y-134115386D01*
X97666325Y-134134464D01*
X97721980Y-134180138D01*
X97743438Y-134220283D01*
X97810834Y-134302406D01*
X97892957Y-134369802D01*
X97986650Y-134419883D01*
X98088314Y-134450722D01*
X98194040Y-134461135D01*
X98338869Y-134461135D01*
X98762791Y-134885057D01*
X98682297Y-134851716D01*
X98580868Y-134831540D01*
X98477452Y-134831540D01*
X98376023Y-134851716D01*
X98280479Y-134891291D01*
X98279160Y-134892172D01*
X98277841Y-134891291D01*
X98182297Y-134851716D01*
X98080868Y-134831540D01*
X97977452Y-134831540D01*
X97876023Y-134851716D01*
X97780479Y-134891291D01*
X97779160Y-134892172D01*
X97777841Y-134891291D01*
X97682297Y-134851716D01*
X97580868Y-134831540D01*
X97477452Y-134831540D01*
X97376023Y-134851716D01*
X97280479Y-134891291D01*
X97279160Y-134892172D01*
X97277841Y-134891291D01*
X97182297Y-134851716D01*
X97080868Y-134831540D01*
X96977452Y-134831540D01*
X96876023Y-134851716D01*
X96780479Y-134891291D01*
X96779160Y-134892172D01*
X96777841Y-134891291D01*
X96682297Y-134851716D01*
X96580868Y-134831540D01*
X96477452Y-134831540D01*
X96376023Y-134851716D01*
X96280479Y-134891291D01*
X96279160Y-134892172D01*
X96277841Y-134891291D01*
X96182297Y-134851716D01*
X96080868Y-134831540D01*
X96014668Y-134831540D01*
X96077255Y-134789721D01*
X96181721Y-134685255D01*
X96263799Y-134562416D01*
X96320336Y-134425925D01*
X96349158Y-134281027D01*
X96349158Y-134155311D01*
X96372540Y-134155160D01*
X96472540Y-134055160D01*
X96472540Y-133330160D01*
X96452540Y-133330160D01*
X96452540Y-133230160D01*
X96472540Y-133230160D01*
X96472540Y-133210160D01*
X96572540Y-133210160D01*
X96572540Y-133230160D01*
G37*
%TD.AperFunction*%
D26*
X104177000Y-133780000D02*
X104197000Y-133780000D01*
X104197000Y-133880000D01*
X104177000Y-133880000D01*
X104177000Y-134410000D01*
X104277000Y-134510000D01*
X104437000Y-134511935D01*
X104515414Y-134504212D01*
X104544070Y-134495520D01*
X104551275Y-134531745D01*
X104249680Y-134531745D01*
X104127371Y-134543791D01*
X104009762Y-134579468D01*
X103901374Y-134637403D01*
X103806370Y-134715370D01*
X103728403Y-134810374D01*
X103702578Y-134858689D01*
X103695471Y-134850029D01*
X103634563Y-134800043D01*
X103565074Y-134762900D01*
X103489674Y-134740028D01*
X103442286Y-134735361D01*
X103461986Y-134670418D01*
X103469221Y-134596961D01*
X103469221Y-134596960D01*
X103471640Y-134572401D01*
X103469221Y-134547841D01*
X103469221Y-134307893D01*
X103482803Y-134333303D01*
X103532789Y-134394211D01*
X103593697Y-134444197D01*
X103663186Y-134481340D01*
X103738586Y-134504212D01*
X103817000Y-134511935D01*
X103977000Y-134510000D01*
X104077000Y-134410000D01*
X104077000Y-133880000D01*
X104057000Y-133880000D01*
X104057000Y-133780000D01*
X104077000Y-133780000D01*
X104077000Y-133760000D01*
X104177000Y-133760000D01*
X104177000Y-133780000D01*
%TA.AperFunction,Conductor*%
D28*
G36*
X104177000Y-133780000D02*
G01*
X104197000Y-133780000D01*
X104197000Y-133880000D01*
X104177000Y-133880000D01*
X104177000Y-134410000D01*
X104277000Y-134510000D01*
X104437000Y-134511935D01*
X104515414Y-134504212D01*
X104544070Y-134495520D01*
X104551275Y-134531745D01*
X104249680Y-134531745D01*
X104127371Y-134543791D01*
X104009762Y-134579468D01*
X103901374Y-134637403D01*
X103806370Y-134715370D01*
X103728403Y-134810374D01*
X103702578Y-134858689D01*
X103695471Y-134850029D01*
X103634563Y-134800043D01*
X103565074Y-134762900D01*
X103489674Y-134740028D01*
X103442286Y-134735361D01*
X103461986Y-134670418D01*
X103469221Y-134596961D01*
X103469221Y-134596960D01*
X103471640Y-134572401D01*
X103469221Y-134547841D01*
X103469221Y-134307893D01*
X103482803Y-134333303D01*
X103532789Y-134394211D01*
X103593697Y-134444197D01*
X103663186Y-134481340D01*
X103738586Y-134504212D01*
X103817000Y-134511935D01*
X103977000Y-134510000D01*
X104077000Y-134410000D01*
X104077000Y-133880000D01*
X104057000Y-133880000D01*
X104057000Y-133780000D01*
X104077000Y-133780000D01*
X104077000Y-133760000D01*
X104177000Y-133760000D01*
X104177000Y-133780000D01*
G37*
%TD.AperFunction*%
D26*
X102319220Y-133922400D02*
X102339220Y-133922400D01*
X102339220Y-134022400D01*
X102319220Y-134022400D01*
X102319220Y-134042400D01*
X102219220Y-134042400D01*
X102219220Y-134022400D01*
X102199220Y-134022400D01*
X102199220Y-133922400D01*
X102219220Y-133922400D01*
X102219220Y-133902400D01*
X102319220Y-133902400D01*
X102319220Y-133922400D01*
%TA.AperFunction,Conductor*%
D28*
G36*
X102319220Y-133922400D02*
G01*
X102339220Y-133922400D01*
X102339220Y-134022400D01*
X102319220Y-134022400D01*
X102319220Y-134042400D01*
X102219220Y-134042400D01*
X102219220Y-134022400D01*
X102199220Y-134022400D01*
X102199220Y-133922400D01*
X102219220Y-133922400D01*
X102219220Y-133902400D01*
X102319220Y-133902400D01*
X102319220Y-133922400D01*
G37*
%TD.AperFunction*%
D26*
X92118440Y-133641400D02*
X92138440Y-133641400D01*
X92138440Y-133741400D01*
X92118440Y-133741400D01*
X92118440Y-133761400D01*
X92018440Y-133761400D01*
X92018440Y-133741400D01*
X91998440Y-133741400D01*
X91998440Y-133641400D01*
X92018440Y-133641400D01*
X92018440Y-133621400D01*
X92118440Y-133621400D01*
X92118440Y-133641400D01*
%TA.AperFunction,Conductor*%
D28*
G36*
X92118440Y-133641400D02*
G01*
X92138440Y-133641400D01*
X92138440Y-133741400D01*
X92118440Y-133741400D01*
X92118440Y-133761400D01*
X92018440Y-133761400D01*
X92018440Y-133741400D01*
X91998440Y-133741400D01*
X91998440Y-133641400D01*
X92018440Y-133641400D01*
X92018440Y-133621400D01*
X92118440Y-133621400D01*
X92118440Y-133641400D01*
G37*
%TD.AperFunction*%
D26*
X100019220Y-132722400D02*
X100119220Y-132822400D01*
X100819220Y-132822400D01*
X100819220Y-132802400D01*
X100919220Y-132802400D01*
X100919220Y-132822400D01*
X100939220Y-132822400D01*
X100939220Y-132922400D01*
X100919220Y-132922400D01*
X100919220Y-132942400D01*
X100819220Y-132942400D01*
X100819220Y-132922400D01*
X100119220Y-132922400D01*
X100051665Y-132989955D01*
X100051640Y-132988260D01*
X99951640Y-132888260D01*
X99391640Y-132888260D01*
X99391640Y-132908260D01*
X99291640Y-132908260D01*
X99291640Y-132888260D01*
X98993100Y-132888260D01*
X98974040Y-132869200D01*
X98414040Y-132869200D01*
X98414040Y-132889200D01*
X98314040Y-132889200D01*
X98314040Y-132869200D01*
X98294040Y-132869200D01*
X98294040Y-132769200D01*
X98314040Y-132769200D01*
X98314040Y-132749200D01*
X98414040Y-132749200D01*
X98414040Y-132769200D01*
X98712580Y-132769200D01*
X98731640Y-132788260D01*
X99291640Y-132788260D01*
X99291640Y-132768260D01*
X99391640Y-132768260D01*
X99391640Y-132788260D01*
X99951640Y-132788260D01*
X100019207Y-132720693D01*
X100019220Y-132722400D01*
%TA.AperFunction,Conductor*%
D28*
G36*
X100019220Y-132722400D02*
G01*
X100119220Y-132822400D01*
X100819220Y-132822400D01*
X100819220Y-132802400D01*
X100919220Y-132802400D01*
X100919220Y-132822400D01*
X100939220Y-132822400D01*
X100939220Y-132922400D01*
X100919220Y-132922400D01*
X100919220Y-132942400D01*
X100819220Y-132942400D01*
X100819220Y-132922400D01*
X100119220Y-132922400D01*
X100051665Y-132989955D01*
X100051640Y-132988260D01*
X99951640Y-132888260D01*
X99391640Y-132888260D01*
X99391640Y-132908260D01*
X99291640Y-132908260D01*
X99291640Y-132888260D01*
X98993100Y-132888260D01*
X98974040Y-132869200D01*
X98414040Y-132869200D01*
X98414040Y-132889200D01*
X98314040Y-132889200D01*
X98314040Y-132869200D01*
X98294040Y-132869200D01*
X98294040Y-132769200D01*
X98314040Y-132769200D01*
X98314040Y-132749200D01*
X98414040Y-132749200D01*
X98414040Y-132769200D01*
X98712580Y-132769200D01*
X98731640Y-132788260D01*
X99291640Y-132788260D01*
X99291640Y-132768260D01*
X99391640Y-132768260D01*
X99391640Y-132788260D01*
X99951640Y-132788260D01*
X100019207Y-132720693D01*
X100019220Y-132722400D01*
G37*
%TD.AperFunction*%
%TD*%
M02*
