%TF.GenerationSoftware,KiCad,Pcbnew,(5.1.6)-1*%
%TF.CreationDate,2020-07-31T00:04:16+08:00*%
%TF.ProjectId,NRF52840,4e524635-3238-4343-902e-6b696361645f,rev?*%
%TF.SameCoordinates,Original*%
%TF.FileFunction,Paste,Top*%
%TF.FilePolarity,Positive*%
%FSLAX46Y46*%
G04 Gerber Fmt 4.6, Leading zero omitted, Abs format (unit mm)*
G04 Created by KiCad (PCBNEW (5.1.6)-1) date 2020-07-31 00:04:16*
%MOMM*%
%LPD*%
G01*
G04 APERTURE LIST*
%ADD10R,0.900000X0.800000*%
%ADD11C,0.250000*%
%ADD12R,2.000000X2.000000*%
G04 APERTURE END LIST*
%TO.C,C16*%
G36*
G01*
X94930000Y-129043750D02*
X94930000Y-129556250D01*
G75*
G02*
X94711250Y-129775000I-218750J0D01*
G01*
X94273750Y-129775000D01*
G75*
G02*
X94055000Y-129556250I0J218750D01*
G01*
X94055000Y-129043750D01*
G75*
G02*
X94273750Y-128825000I218750J0D01*
G01*
X94711250Y-128825000D01*
G75*
G02*
X94930000Y-129043750I0J-218750D01*
G01*
G37*
G36*
G01*
X96505000Y-129043750D02*
X96505000Y-129556250D01*
G75*
G02*
X96286250Y-129775000I-218750J0D01*
G01*
X95848750Y-129775000D01*
G75*
G02*
X95630000Y-129556250I0J218750D01*
G01*
X95630000Y-129043750D01*
G75*
G02*
X95848750Y-128825000I218750J0D01*
G01*
X96286250Y-128825000D01*
G75*
G02*
X96505000Y-129043750I0J-218750D01*
G01*
G37*
%TD*%
%TO.C,C11*%
G36*
G01*
X109035000Y-124902500D02*
X109035000Y-125247500D01*
G75*
G02*
X108887500Y-125395000I-147500J0D01*
G01*
X108592500Y-125395000D01*
G75*
G02*
X108445000Y-125247500I0J147500D01*
G01*
X108445000Y-124902500D01*
G75*
G02*
X108592500Y-124755000I147500J0D01*
G01*
X108887500Y-124755000D01*
G75*
G02*
X109035000Y-124902500I0J-147500D01*
G01*
G37*
G36*
G01*
X110005000Y-124902500D02*
X110005000Y-125247500D01*
G75*
G02*
X109857500Y-125395000I-147500J0D01*
G01*
X109562500Y-125395000D01*
G75*
G02*
X109415000Y-125247500I0J147500D01*
G01*
X109415000Y-124902500D01*
G75*
G02*
X109562500Y-124755000I147500J0D01*
G01*
X109857500Y-124755000D01*
G75*
G02*
X110005000Y-124902500I0J-147500D01*
G01*
G37*
%TD*%
D10*
%TO.C,Y1*%
X108850000Y-121650000D03*
X110250000Y-121650000D03*
X110250000Y-122750000D03*
X108850000Y-122750000D03*
%TD*%
D11*
%TO.C,U1*%
X106400000Y-129700000D03*
X106400000Y-129200000D03*
X106400000Y-128700000D03*
X106400000Y-128200000D03*
X106400000Y-127700000D03*
X106400000Y-127200000D03*
X106400000Y-126700000D03*
X106400000Y-126200000D03*
X106400000Y-125200000D03*
X105900000Y-128950000D03*
X105900000Y-128450000D03*
X105900000Y-127950000D03*
X105900000Y-127450000D03*
X105900000Y-125950000D03*
X105900000Y-125450000D03*
X105900000Y-123700000D03*
X105400000Y-123700000D03*
X104900000Y-123700000D03*
X104400000Y-123700000D03*
X103900000Y-123700000D03*
X103400000Y-123700000D03*
X102900000Y-123700000D03*
X102400000Y-123700000D03*
X104650000Y-124200000D03*
X104150000Y-124200000D03*
X103650000Y-124200000D03*
X103150000Y-124200000D03*
X102650000Y-124200000D03*
X102150000Y-124200000D03*
X101650000Y-124200000D03*
X101150000Y-124200000D03*
X101150000Y-129700000D03*
X102150000Y-129700000D03*
X102650000Y-129700000D03*
X103150000Y-129700000D03*
X103650000Y-129700000D03*
X104150000Y-129700000D03*
X104650000Y-129700000D03*
X105400000Y-130200000D03*
X104900000Y-130200000D03*
X104400000Y-130200000D03*
X103900000Y-130200000D03*
X103400000Y-130200000D03*
X102900000Y-130200000D03*
X102400000Y-130200000D03*
X101900000Y-130200000D03*
X101400000Y-130200000D03*
X100900000Y-130200000D03*
X99900000Y-124200000D03*
X100400000Y-124950000D03*
X99900000Y-124700000D03*
X100400000Y-125450000D03*
X100400000Y-125950000D03*
X100400000Y-126450000D03*
X100400000Y-126950000D03*
X100400000Y-127450000D03*
X100400000Y-127950000D03*
X99900000Y-125700000D03*
X99900000Y-126200000D03*
X99900000Y-126700000D03*
X99900000Y-127200000D03*
X99900000Y-127700000D03*
X99900000Y-128200000D03*
X99900000Y-128700000D03*
X100400000Y-128950000D03*
X100400000Y-129450000D03*
X100400000Y-130200000D03*
X105900000Y-130200000D03*
X105150000Y-129700000D03*
X100650000Y-124200000D03*
X101900000Y-123700000D03*
X105900000Y-124950000D03*
X106400000Y-124200000D03*
D12*
X101937500Y-125737500D03*
X104362500Y-125737500D03*
X101937500Y-128162500D03*
X104362500Y-128162500D03*
%TD*%
%TO.C,R1*%
G36*
G01*
X114235000Y-130912500D02*
X114235000Y-131257500D01*
G75*
G02*
X114087500Y-131405000I-147500J0D01*
G01*
X113792500Y-131405000D01*
G75*
G02*
X113645000Y-131257500I0J147500D01*
G01*
X113645000Y-130912500D01*
G75*
G02*
X113792500Y-130765000I147500J0D01*
G01*
X114087500Y-130765000D01*
G75*
G02*
X114235000Y-130912500I0J-147500D01*
G01*
G37*
G36*
G01*
X115205000Y-130912500D02*
X115205000Y-131257500D01*
G75*
G02*
X115057500Y-131405000I-147500J0D01*
G01*
X114762500Y-131405000D01*
G75*
G02*
X114615000Y-131257500I0J147500D01*
G01*
X114615000Y-130912500D01*
G75*
G02*
X114762500Y-130765000I147500J0D01*
G01*
X115057500Y-130765000D01*
G75*
G02*
X115205000Y-130912500I0J-147500D01*
G01*
G37*
%TD*%
%TO.C,L1*%
G36*
G01*
X109060000Y-125927500D02*
X109060000Y-126272500D01*
G75*
G02*
X108912500Y-126420000I-147500J0D01*
G01*
X108617500Y-126420000D01*
G75*
G02*
X108470000Y-126272500I0J147500D01*
G01*
X108470000Y-125927500D01*
G75*
G02*
X108617500Y-125780000I147500J0D01*
G01*
X108912500Y-125780000D01*
G75*
G02*
X109060000Y-125927500I0J-147500D01*
G01*
G37*
G36*
G01*
X110030000Y-125927500D02*
X110030000Y-126272500D01*
G75*
G02*
X109882500Y-126420000I-147500J0D01*
G01*
X109587500Y-126420000D01*
G75*
G02*
X109440000Y-126272500I0J147500D01*
G01*
X109440000Y-125927500D01*
G75*
G02*
X109587500Y-125780000I147500J0D01*
G01*
X109882500Y-125780000D01*
G75*
G02*
X110030000Y-125927500I0J-147500D01*
G01*
G37*
%TD*%
%TO.C,C25*%
G36*
G01*
X113047500Y-130435000D02*
X112702500Y-130435000D01*
G75*
G02*
X112555000Y-130287500I0J147500D01*
G01*
X112555000Y-129992500D01*
G75*
G02*
X112702500Y-129845000I147500J0D01*
G01*
X113047500Y-129845000D01*
G75*
G02*
X113195000Y-129992500I0J-147500D01*
G01*
X113195000Y-130287500D01*
G75*
G02*
X113047500Y-130435000I-147500J0D01*
G01*
G37*
G36*
G01*
X113047500Y-131405000D02*
X112702500Y-131405000D01*
G75*
G02*
X112555000Y-131257500I0J147500D01*
G01*
X112555000Y-130962500D01*
G75*
G02*
X112702500Y-130815000I147500J0D01*
G01*
X113047500Y-130815000D01*
G75*
G02*
X113195000Y-130962500I0J-147500D01*
G01*
X113195000Y-131257500D01*
G75*
G02*
X113047500Y-131405000I-147500J0D01*
G01*
G37*
%TD*%
%TO.C,C20*%
G36*
G01*
X94930000Y-127468750D02*
X94930000Y-127981250D01*
G75*
G02*
X94711250Y-128200000I-218750J0D01*
G01*
X94273750Y-128200000D01*
G75*
G02*
X94055000Y-127981250I0J218750D01*
G01*
X94055000Y-127468750D01*
G75*
G02*
X94273750Y-127250000I218750J0D01*
G01*
X94711250Y-127250000D01*
G75*
G02*
X94930000Y-127468750I0J-218750D01*
G01*
G37*
G36*
G01*
X96505000Y-127468750D02*
X96505000Y-127981250D01*
G75*
G02*
X96286250Y-128200000I-218750J0D01*
G01*
X95848750Y-128200000D01*
G75*
G02*
X95630000Y-127981250I0J218750D01*
G01*
X95630000Y-127468750D01*
G75*
G02*
X95848750Y-127250000I218750J0D01*
G01*
X96286250Y-127250000D01*
G75*
G02*
X96505000Y-127468750I0J-218750D01*
G01*
G37*
%TD*%
%TO.C,C19*%
G36*
G01*
X94930000Y-125918750D02*
X94930000Y-126431250D01*
G75*
G02*
X94711250Y-126650000I-218750J0D01*
G01*
X94273750Y-126650000D01*
G75*
G02*
X94055000Y-126431250I0J218750D01*
G01*
X94055000Y-125918750D01*
G75*
G02*
X94273750Y-125700000I218750J0D01*
G01*
X94711250Y-125700000D01*
G75*
G02*
X94930000Y-125918750I0J-218750D01*
G01*
G37*
G36*
G01*
X96505000Y-125918750D02*
X96505000Y-126431250D01*
G75*
G02*
X96286250Y-126650000I-218750J0D01*
G01*
X95848750Y-126650000D01*
G75*
G02*
X95630000Y-126431250I0J218750D01*
G01*
X95630000Y-125918750D01*
G75*
G02*
X95848750Y-125700000I218750J0D01*
G01*
X96286250Y-125700000D01*
G75*
G02*
X96505000Y-125918750I0J-218750D01*
G01*
G37*
%TD*%
%TO.C,C26*%
G36*
G01*
X116097500Y-130435000D02*
X115752500Y-130435000D01*
G75*
G02*
X115605000Y-130287500I0J147500D01*
G01*
X115605000Y-129992500D01*
G75*
G02*
X115752500Y-129845000I147500J0D01*
G01*
X116097500Y-129845000D01*
G75*
G02*
X116245000Y-129992500I0J-147500D01*
G01*
X116245000Y-130287500D01*
G75*
G02*
X116097500Y-130435000I-147500J0D01*
G01*
G37*
G36*
G01*
X116097500Y-131405000D02*
X115752500Y-131405000D01*
G75*
G02*
X115605000Y-131257500I0J147500D01*
G01*
X115605000Y-130962500D01*
G75*
G02*
X115752500Y-130815000I147500J0D01*
G01*
X116097500Y-130815000D01*
G75*
G02*
X116245000Y-130962500I0J-147500D01*
G01*
X116245000Y-131257500D01*
G75*
G02*
X116097500Y-131405000I-147500J0D01*
G01*
G37*
%TD*%
%TO.C,C15*%
G36*
G01*
X101500000Y-121856250D02*
X101500000Y-121343750D01*
G75*
G02*
X101718750Y-121125000I218750J0D01*
G01*
X102156250Y-121125000D01*
G75*
G02*
X102375000Y-121343750I0J-218750D01*
G01*
X102375000Y-121856250D01*
G75*
G02*
X102156250Y-122075000I-218750J0D01*
G01*
X101718750Y-122075000D01*
G75*
G02*
X101500000Y-121856250I0J218750D01*
G01*
G37*
G36*
G01*
X99925000Y-121856250D02*
X99925000Y-121343750D01*
G75*
G02*
X100143750Y-121125000I218750J0D01*
G01*
X100581250Y-121125000D01*
G75*
G02*
X100800000Y-121343750I0J-218750D01*
G01*
X100800000Y-121856250D01*
G75*
G02*
X100581250Y-122075000I-218750J0D01*
G01*
X100143750Y-122075000D01*
G75*
G02*
X99925000Y-121856250I0J218750D01*
G01*
G37*
%TD*%
%TO.C,C14*%
G36*
G01*
X96225000Y-121793750D02*
X96225000Y-122306250D01*
G75*
G02*
X96006250Y-122525000I-218750J0D01*
G01*
X95568750Y-122525000D01*
G75*
G02*
X95350000Y-122306250I0J218750D01*
G01*
X95350000Y-121793750D01*
G75*
G02*
X95568750Y-121575000I218750J0D01*
G01*
X96006250Y-121575000D01*
G75*
G02*
X96225000Y-121793750I0J-218750D01*
G01*
G37*
G36*
G01*
X97800000Y-121793750D02*
X97800000Y-122306250D01*
G75*
G02*
X97581250Y-122525000I-218750J0D01*
G01*
X97143750Y-122525000D01*
G75*
G02*
X96925000Y-122306250I0J218750D01*
G01*
X96925000Y-121793750D01*
G75*
G02*
X97143750Y-121575000I218750J0D01*
G01*
X97581250Y-121575000D01*
G75*
G02*
X97800000Y-121793750I0J-218750D01*
G01*
G37*
%TD*%
%TO.C,C13*%
G36*
G01*
X103177500Y-121990000D02*
X103522500Y-121990000D01*
G75*
G02*
X103670000Y-122137500I0J-147500D01*
G01*
X103670000Y-122432500D01*
G75*
G02*
X103522500Y-122580000I-147500J0D01*
G01*
X103177500Y-122580000D01*
G75*
G02*
X103030000Y-122432500I0J147500D01*
G01*
X103030000Y-122137500D01*
G75*
G02*
X103177500Y-121990000I147500J0D01*
G01*
G37*
G36*
G01*
X103177500Y-121020000D02*
X103522500Y-121020000D01*
G75*
G02*
X103670000Y-121167500I0J-147500D01*
G01*
X103670000Y-121462500D01*
G75*
G02*
X103522500Y-121610000I-147500J0D01*
G01*
X103177500Y-121610000D01*
G75*
G02*
X103030000Y-121462500I0J147500D01*
G01*
X103030000Y-121167500D01*
G75*
G02*
X103177500Y-121020000I147500J0D01*
G01*
G37*
%TD*%
%TO.C,C12*%
G36*
G01*
X105822500Y-121610000D02*
X105477500Y-121610000D01*
G75*
G02*
X105330000Y-121462500I0J147500D01*
G01*
X105330000Y-121167500D01*
G75*
G02*
X105477500Y-121020000I147500J0D01*
G01*
X105822500Y-121020000D01*
G75*
G02*
X105970000Y-121167500I0J-147500D01*
G01*
X105970000Y-121462500D01*
G75*
G02*
X105822500Y-121610000I-147500J0D01*
G01*
G37*
G36*
G01*
X105822500Y-122580000D02*
X105477500Y-122580000D01*
G75*
G02*
X105330000Y-122432500I0J147500D01*
G01*
X105330000Y-122137500D01*
G75*
G02*
X105477500Y-121990000I147500J0D01*
G01*
X105822500Y-121990000D01*
G75*
G02*
X105970000Y-122137500I0J-147500D01*
G01*
X105970000Y-122432500D01*
G75*
G02*
X105822500Y-122580000I-147500J0D01*
G01*
G37*
%TD*%
%TO.C,C10*%
G36*
G01*
X110965000Y-123902500D02*
X110965000Y-124247500D01*
G75*
G02*
X110817500Y-124395000I-147500J0D01*
G01*
X110522500Y-124395000D01*
G75*
G02*
X110375000Y-124247500I0J147500D01*
G01*
X110375000Y-123902500D01*
G75*
G02*
X110522500Y-123755000I147500J0D01*
G01*
X110817500Y-123755000D01*
G75*
G02*
X110965000Y-123902500I0J-147500D01*
G01*
G37*
G36*
G01*
X111935000Y-123902500D02*
X111935000Y-124247500D01*
G75*
G02*
X111787500Y-124395000I-147500J0D01*
G01*
X111492500Y-124395000D01*
G75*
G02*
X111345000Y-124247500I0J147500D01*
G01*
X111345000Y-123902500D01*
G75*
G02*
X111492500Y-123755000I147500J0D01*
G01*
X111787500Y-123755000D01*
G75*
G02*
X111935000Y-123902500I0J-147500D01*
G01*
G37*
%TD*%
%TO.C,C9*%
G36*
G01*
X107552500Y-129290000D02*
X107897500Y-129290000D01*
G75*
G02*
X108045000Y-129437500I0J-147500D01*
G01*
X108045000Y-129732500D01*
G75*
G02*
X107897500Y-129880000I-147500J0D01*
G01*
X107552500Y-129880000D01*
G75*
G02*
X107405000Y-129732500I0J147500D01*
G01*
X107405000Y-129437500D01*
G75*
G02*
X107552500Y-129290000I147500J0D01*
G01*
G37*
G36*
G01*
X107552500Y-128320000D02*
X107897500Y-128320000D01*
G75*
G02*
X108045000Y-128467500I0J-147500D01*
G01*
X108045000Y-128762500D01*
G75*
G02*
X107897500Y-128910000I-147500J0D01*
G01*
X107552500Y-128910000D01*
G75*
G02*
X107405000Y-128762500I0J147500D01*
G01*
X107405000Y-128467500D01*
G75*
G02*
X107552500Y-128320000I147500J0D01*
G01*
G37*
%TD*%
%TO.C,C8*%
G36*
G01*
X106840000Y-131572500D02*
X106840000Y-131227500D01*
G75*
G02*
X106987500Y-131080000I147500J0D01*
G01*
X107282500Y-131080000D01*
G75*
G02*
X107430000Y-131227500I0J-147500D01*
G01*
X107430000Y-131572500D01*
G75*
G02*
X107282500Y-131720000I-147500J0D01*
G01*
X106987500Y-131720000D01*
G75*
G02*
X106840000Y-131572500I0J147500D01*
G01*
G37*
G36*
G01*
X105870000Y-131572500D02*
X105870000Y-131227500D01*
G75*
G02*
X106017500Y-131080000I147500J0D01*
G01*
X106312500Y-131080000D01*
G75*
G02*
X106460000Y-131227500I0J-147500D01*
G01*
X106460000Y-131572500D01*
G75*
G02*
X106312500Y-131720000I-147500J0D01*
G01*
X106017500Y-131720000D01*
G75*
G02*
X105870000Y-131572500I0J147500D01*
G01*
G37*
%TD*%
%TO.C,C7*%
G36*
G01*
X103510000Y-131252500D02*
X103510000Y-131597500D01*
G75*
G02*
X103362500Y-131745000I-147500J0D01*
G01*
X103067500Y-131745000D01*
G75*
G02*
X102920000Y-131597500I0J147500D01*
G01*
X102920000Y-131252500D01*
G75*
G02*
X103067500Y-131105000I147500J0D01*
G01*
X103362500Y-131105000D01*
G75*
G02*
X103510000Y-131252500I0J-147500D01*
G01*
G37*
G36*
G01*
X104480000Y-131252500D02*
X104480000Y-131597500D01*
G75*
G02*
X104332500Y-131745000I-147500J0D01*
G01*
X104037500Y-131745000D01*
G75*
G02*
X103890000Y-131597500I0J147500D01*
G01*
X103890000Y-131252500D01*
G75*
G02*
X104037500Y-131105000I147500J0D01*
G01*
X104332500Y-131105000D01*
G75*
G02*
X104480000Y-131252500I0J-147500D01*
G01*
G37*
%TD*%
%TO.C,C6*%
G36*
G01*
X96225000Y-124393750D02*
X96225000Y-124906250D01*
G75*
G02*
X96006250Y-125125000I-218750J0D01*
G01*
X95568750Y-125125000D01*
G75*
G02*
X95350000Y-124906250I0J218750D01*
G01*
X95350000Y-124393750D01*
G75*
G02*
X95568750Y-124175000I218750J0D01*
G01*
X96006250Y-124175000D01*
G75*
G02*
X96225000Y-124393750I0J-218750D01*
G01*
G37*
G36*
G01*
X97800000Y-124393750D02*
X97800000Y-124906250D01*
G75*
G02*
X97581250Y-125125000I-218750J0D01*
G01*
X97143750Y-125125000D01*
G75*
G02*
X96925000Y-124906250I0J218750D01*
G01*
X96925000Y-124393750D01*
G75*
G02*
X97143750Y-124175000I218750J0D01*
G01*
X97581250Y-124175000D01*
G75*
G02*
X97800000Y-124393750I0J-218750D01*
G01*
G37*
%TD*%
%TO.C,C5*%
G36*
G01*
X95835000Y-123177500D02*
X95835000Y-123522500D01*
G75*
G02*
X95687500Y-123670000I-147500J0D01*
G01*
X95392500Y-123670000D01*
G75*
G02*
X95245000Y-123522500I0J147500D01*
G01*
X95245000Y-123177500D01*
G75*
G02*
X95392500Y-123030000I147500J0D01*
G01*
X95687500Y-123030000D01*
G75*
G02*
X95835000Y-123177500I0J-147500D01*
G01*
G37*
G36*
G01*
X96805000Y-123177500D02*
X96805000Y-123522500D01*
G75*
G02*
X96657500Y-123670000I-147500J0D01*
G01*
X96362500Y-123670000D01*
G75*
G02*
X96215000Y-123522500I0J147500D01*
G01*
X96215000Y-123177500D01*
G75*
G02*
X96362500Y-123030000I147500J0D01*
G01*
X96657500Y-123030000D01*
G75*
G02*
X96805000Y-123177500I0J-147500D01*
G01*
G37*
%TD*%
%TO.C,C4*%
G36*
G01*
X110922500Y-125450000D02*
X110577500Y-125450000D01*
G75*
G02*
X110430000Y-125302500I0J147500D01*
G01*
X110430000Y-125007500D01*
G75*
G02*
X110577500Y-124860000I147500J0D01*
G01*
X110922500Y-124860000D01*
G75*
G02*
X111070000Y-125007500I0J-147500D01*
G01*
X111070000Y-125302500D01*
G75*
G02*
X110922500Y-125450000I-147500J0D01*
G01*
G37*
G36*
G01*
X110922500Y-126420000D02*
X110577500Y-126420000D01*
G75*
G02*
X110430000Y-126272500I0J147500D01*
G01*
X110430000Y-125977500D01*
G75*
G02*
X110577500Y-125830000I147500J0D01*
G01*
X110922500Y-125830000D01*
G75*
G02*
X111070000Y-125977500I0J-147500D01*
G01*
X111070000Y-126272500D01*
G75*
G02*
X110922500Y-126420000I-147500J0D01*
G01*
G37*
%TD*%
%TO.C,C3*%
G36*
G01*
X107847500Y-126385000D02*
X107502500Y-126385000D01*
G75*
G02*
X107355000Y-126237500I0J147500D01*
G01*
X107355000Y-125942500D01*
G75*
G02*
X107502500Y-125795000I147500J0D01*
G01*
X107847500Y-125795000D01*
G75*
G02*
X107995000Y-125942500I0J-147500D01*
G01*
X107995000Y-126237500D01*
G75*
G02*
X107847500Y-126385000I-147500J0D01*
G01*
G37*
G36*
G01*
X107847500Y-127355000D02*
X107502500Y-127355000D01*
G75*
G02*
X107355000Y-127207500I0J147500D01*
G01*
X107355000Y-126912500D01*
G75*
G02*
X107502500Y-126765000I147500J0D01*
G01*
X107847500Y-126765000D01*
G75*
G02*
X107995000Y-126912500I0J-147500D01*
G01*
X107995000Y-127207500D01*
G75*
G02*
X107847500Y-127355000I-147500J0D01*
G01*
G37*
%TD*%
%TO.C,C2*%
G36*
G01*
X106507500Y-121990000D02*
X106852500Y-121990000D01*
G75*
G02*
X107000000Y-122137500I0J-147500D01*
G01*
X107000000Y-122432500D01*
G75*
G02*
X106852500Y-122580000I-147500J0D01*
G01*
X106507500Y-122580000D01*
G75*
G02*
X106360000Y-122432500I0J147500D01*
G01*
X106360000Y-122137500D01*
G75*
G02*
X106507500Y-121990000I147500J0D01*
G01*
G37*
G36*
G01*
X106507500Y-121020000D02*
X106852500Y-121020000D01*
G75*
G02*
X107000000Y-121167500I0J-147500D01*
G01*
X107000000Y-121462500D01*
G75*
G02*
X106852500Y-121610000I-147500J0D01*
G01*
X106507500Y-121610000D01*
G75*
G02*
X106360000Y-121462500I0J147500D01*
G01*
X106360000Y-121167500D01*
G75*
G02*
X106507500Y-121020000I147500J0D01*
G01*
G37*
%TD*%
%TO.C,C1*%
G36*
G01*
X112122500Y-121640000D02*
X111777500Y-121640000D01*
G75*
G02*
X111630000Y-121492500I0J147500D01*
G01*
X111630000Y-121197500D01*
G75*
G02*
X111777500Y-121050000I147500J0D01*
G01*
X112122500Y-121050000D01*
G75*
G02*
X112270000Y-121197500I0J-147500D01*
G01*
X112270000Y-121492500D01*
G75*
G02*
X112122500Y-121640000I-147500J0D01*
G01*
G37*
G36*
G01*
X112122500Y-122610000D02*
X111777500Y-122610000D01*
G75*
G02*
X111630000Y-122462500I0J147500D01*
G01*
X111630000Y-122167500D01*
G75*
G02*
X111777500Y-122020000I147500J0D01*
G01*
X112122500Y-122020000D01*
G75*
G02*
X112270000Y-122167500I0J-147500D01*
G01*
X112270000Y-122462500D01*
G75*
G02*
X112122500Y-122610000I-147500J0D01*
G01*
G37*
%TD*%
M02*
