%TF.GenerationSoftware,KiCad,Pcbnew,(5.1.6)-1*%
%TF.CreationDate,2020-10-20T21:54:07+08:00*%
%TF.ProjectId,NRF52840,4e524635-3238-4343-902e-6b696361645f,rev?*%
%TF.SameCoordinates,Original*%
%TF.FileFunction,Legend,Bot*%
%TF.FilePolarity,Positive*%
%FSLAX46Y46*%
G04 Gerber Fmt 4.6, Leading zero omitted, Abs format (unit mm)*
G04 Created by KiCad (PCBNEW (5.1.6)-1) date 2020-10-20 21:54:07*
%MOMM*%
%LPD*%
G01*
G04 APERTURE LIST*
%ADD10C,0.150000*%
%ADD11R,1.600000X1.100000*%
%ADD12R,7.600000X1.300000*%
G04 APERTURE END LIST*
D10*
X135066944Y-151376760D02*
X135162182Y-151329140D01*
X135305040Y-151329140D01*
X135447897Y-151376760D01*
X135543135Y-151471998D01*
X135590754Y-151567236D01*
X135638373Y-151757712D01*
X135638373Y-151900569D01*
X135590754Y-152091045D01*
X135543135Y-152186283D01*
X135447897Y-152281521D01*
X135305040Y-152329140D01*
X135209801Y-152329140D01*
X135066944Y-152281521D01*
X135019325Y-152233902D01*
X135019325Y-151900569D01*
X135209801Y-151900569D01*
X134590754Y-152329140D02*
X134590754Y-151329140D01*
X134019325Y-152329140D01*
X134019325Y-151329140D01*
X133543135Y-152329140D02*
X133543135Y-151329140D01*
X133305040Y-151329140D01*
X133162182Y-151376760D01*
X133066944Y-151471998D01*
X133019325Y-151567236D01*
X132971706Y-151757712D01*
X132971706Y-151900569D01*
X133019325Y-152091045D01*
X133066944Y-152186283D01*
X133162182Y-152281521D01*
X133305040Y-152329140D01*
X133543135Y-152329140D01*
X135014578Y-154834862D02*
X135062197Y-154882481D01*
X135205054Y-154930100D01*
X135300292Y-154930100D01*
X135443149Y-154882481D01*
X135538387Y-154787243D01*
X135586006Y-154692005D01*
X135633625Y-154501529D01*
X135633625Y-154358672D01*
X135586006Y-154168196D01*
X135538387Y-154072958D01*
X135443149Y-153977720D01*
X135300292Y-153930100D01*
X135205054Y-153930100D01*
X135062197Y-153977720D01*
X135014578Y-154025339D01*
X134109816Y-154930100D02*
X134586006Y-154930100D01*
X134586006Y-153930100D01*
X133776482Y-154930100D02*
X133776482Y-153930100D01*
X133205054Y-154930100D02*
X133633625Y-154358672D01*
X133205054Y-153930100D02*
X133776482Y-154501529D01*
X135156509Y-156741120D02*
X135156509Y-155741120D01*
X134489842Y-155741120D02*
X134299366Y-155741120D01*
X134204128Y-155788740D01*
X134108890Y-155883978D01*
X134061271Y-156074454D01*
X134061271Y-156407787D01*
X134108890Y-156598263D01*
X134204128Y-156693501D01*
X134299366Y-156741120D01*
X134489842Y-156741120D01*
X134585080Y-156693501D01*
X134680319Y-156598263D01*
X134727938Y-156407787D01*
X134727938Y-156074454D01*
X134680319Y-155883978D01*
X134585080Y-155788740D01*
X134489842Y-155741120D01*
X135563179Y-157944580D02*
X134944131Y-157944580D01*
X135277464Y-158325533D01*
X135134607Y-158325533D01*
X135039369Y-158373152D01*
X134991750Y-158420771D01*
X134944131Y-158516009D01*
X134944131Y-158754104D01*
X134991750Y-158849342D01*
X135039369Y-158896961D01*
X135134607Y-158944580D01*
X135420321Y-158944580D01*
X135515560Y-158896961D01*
X135563179Y-158849342D01*
X134515560Y-158849342D02*
X134467940Y-158896961D01*
X134515560Y-158944580D01*
X134563179Y-158896961D01*
X134515560Y-158849342D01*
X134515560Y-158944580D01*
X134134607Y-157944580D02*
X133515560Y-157944580D01*
X133848893Y-158325533D01*
X133706036Y-158325533D01*
X133610798Y-158373152D01*
X133563179Y-158420771D01*
X133515560Y-158516009D01*
X133515560Y-158754104D01*
X133563179Y-158849342D01*
X133610798Y-158896961D01*
X133706036Y-158944580D01*
X133991750Y-158944580D01*
X134086988Y-158896961D01*
X134134607Y-158849342D01*
%TO.C,J1*%
X129299720Y-154268846D02*
X130014006Y-154268846D01*
X130156863Y-154221227D01*
X130252101Y-154125989D01*
X130299720Y-153983132D01*
X130299720Y-153887894D01*
X130299720Y-155268846D02*
X130299720Y-154697418D01*
X130299720Y-154983132D02*
X129299720Y-154983132D01*
X129442578Y-154887894D01*
X129537816Y-154792656D01*
X129585435Y-154697418D01*
%TO.C,J2*%
X128997460Y-151883786D02*
X129711746Y-151883786D01*
X129854603Y-151836167D01*
X129949841Y-151740929D01*
X129997460Y-151598072D01*
X129997460Y-151502834D01*
X129092699Y-152312358D02*
X129045080Y-152359977D01*
X128997460Y-152455215D01*
X128997460Y-152693310D01*
X129045080Y-152788548D01*
X129092699Y-152836167D01*
X129187937Y-152883786D01*
X129283175Y-152883786D01*
X129426032Y-152836167D01*
X129997460Y-152264739D01*
X129997460Y-152883786D01*
%TD*%
%LPC*%
D11*
%TO.C,J1*%
X131457400Y-151707014D03*
X131457400Y-153933747D03*
X131457400Y-156160480D03*
X131457400Y-158387214D03*
%TD*%
D12*
%TO.C,J2*%
X124350480Y-158124920D03*
X124350480Y-156124920D03*
X124350480Y-154124920D03*
X124350480Y-152124920D03*
%TD*%
M02*
