%TF.GenerationSoftware,KiCad,Pcbnew,(5.1.6)-1*%
%TF.CreationDate,2020-07-31T00:04:16+08:00*%
%TF.ProjectId,NRF52840,4e524635-3238-4343-902e-6b696361645f,rev?*%
%TF.SameCoordinates,Original*%
%TF.FileFunction,Copper,L2,Bot*%
%TF.FilePolarity,Positive*%
%FSLAX46Y46*%
G04 Gerber Fmt 4.6, Leading zero omitted, Abs format (unit mm)*
G04 Created by KiCad (PCBNEW (5.1.6)-1) date 2020-07-31 00:04:16*
%MOMM*%
%LPD*%
G01*
G04 APERTURE LIST*
%TA.AperFunction,SMDPad,CuDef*%
%ADD10R,2.000000X1.500000*%
%TD*%
%TA.AperFunction,ConnectorPad*%
%ADD11R,8.000000X2.000000*%
%TD*%
%TA.AperFunction,ConnectorPad*%
%ADD12R,7.000000X1.500000*%
%TD*%
%TA.AperFunction,ViaPad*%
%ADD13C,0.700000*%
%TD*%
%TA.AperFunction,ViaPad*%
%ADD14C,0.800000*%
%TD*%
%TA.AperFunction,Conductor*%
%ADD15C,0.200000*%
%TD*%
%TA.AperFunction,Conductor*%
%ADD16C,0.250000*%
%TD*%
%TA.AperFunction,Conductor*%
%ADD17C,0.350000*%
%TD*%
%TA.AperFunction,Conductor*%
%ADD18C,0.127000*%
%TD*%
%TA.AperFunction,Conductor*%
%ADD19C,0.254000*%
%TD*%
G04 APERTURE END LIST*
D10*
%TO.P,J1,4*%
%TO.N,+3V3*%
X110805000Y-130376734D03*
%TO.P,J1,3*%
%TO.N,GND*%
X110805000Y-128150000D03*
%TO.P,J1,2*%
%TO.N,SWDIO*%
X110805000Y-125923267D03*
%TO.P,J1,1*%
%TO.N,SWDCLK*%
X110805000Y-123696534D03*
%TD*%
D11*
%TO.P,J2,4*%
%TO.N,GND*%
X94155000Y-129870800D03*
D12*
%TO.P,J2,3*%
%TO.N,D+*%
X94655000Y-127368900D03*
%TO.P,J2,2*%
%TO.N,D-*%
X94655000Y-125375000D03*
D11*
%TO.P,J2,1*%
%TO.N,+5V*%
X94155000Y-122885800D03*
%TD*%
D13*
%TO.N,GND*%
X98805000Y-130150000D03*
X107680000Y-121550000D03*
X102455000Y-128750000D03*
X103855000Y-128750000D03*
X104980000Y-128750000D03*
X102455000Y-125125000D03*
X104980000Y-125125000D03*
X101380000Y-126350000D03*
X102455000Y-126350000D03*
X103855000Y-127450000D03*
X102455000Y-127450000D03*
X104980000Y-127450000D03*
X103855000Y-125125000D03*
X101380000Y-128750000D03*
X101380000Y-127450000D03*
X103855000Y-126350000D03*
X104980000Y-126350000D03*
X101380000Y-125125000D03*
D14*
X114480000Y-122175000D03*
D13*
X108655000Y-128100000D03*
X108980000Y-130975000D03*
D14*
X100088959Y-131417635D03*
X101830000Y-122825000D03*
D13*
X102309449Y-130845551D03*
D14*
%TO.N,+3V3*%
X105230000Y-131425000D03*
X98780000Y-124675000D03*
X98714955Y-122725822D03*
X104630000Y-122425000D03*
X99055000Y-126750000D03*
%TO.N,Net-(C10-Pad2)*%
X100430000Y-122725000D03*
X108054519Y-123951619D03*
D13*
%TO.N,Net-(C11-Pad2)*%
X106955000Y-124600000D03*
X108016765Y-125311765D03*
%TO.N,+5V*%
X92355000Y-121250000D03*
D14*
%TO.N,SWDIO*%
X109055000Y-129725000D03*
%TO.N,SWDCLK*%
X108919805Y-127085195D03*
D13*
%TO.N,D+*%
X100914662Y-131059534D03*
%TO.N,D-*%
X90580000Y-128325000D03*
%TD*%
D15*
%TO.N,GND*%
X108305001Y-130300001D02*
X108980000Y-130975000D01*
X108655000Y-128100000D02*
X108305001Y-128449999D01*
X108305001Y-128449999D02*
X108305001Y-130300001D01*
D16*
X101380000Y-128750000D02*
X102255000Y-129625000D01*
X102255000Y-129625000D02*
X102255000Y-130350000D01*
X108980000Y-130975000D02*
X106205000Y-130975000D01*
X102354990Y-130449990D02*
X102255000Y-130350000D01*
X106205000Y-130975000D02*
X105679990Y-130449990D01*
X105679990Y-130449990D02*
X102354990Y-130449990D01*
D15*
X100088959Y-129983959D02*
X100088959Y-131417635D01*
X99105000Y-129000000D02*
X100088959Y-129983959D01*
X94155000Y-129870800D02*
X95025800Y-129000000D01*
X95025800Y-129000000D02*
X99105000Y-129000000D01*
D16*
X94434200Y-130150000D02*
X94155000Y-129870800D01*
X98805000Y-130150000D02*
X94434200Y-130150000D01*
X102255000Y-130350000D02*
X102255000Y-130791102D01*
X102255000Y-130791102D02*
X102309449Y-130845551D01*
D17*
%TO.N,+3V3*%
X105130000Y-131325000D02*
X105230000Y-131425000D01*
D16*
X98780000Y-124675000D02*
X98780000Y-122790867D01*
X98780000Y-122790867D02*
X98714955Y-122725822D01*
X103905000Y-121700000D02*
X104630000Y-122425000D01*
X98714955Y-122725822D02*
X99740777Y-121700000D01*
X99740777Y-121700000D02*
X103905000Y-121700000D01*
X105430000Y-131625000D02*
X105230000Y-131425000D01*
X110405000Y-131625000D02*
X105430000Y-131625000D01*
X110805000Y-130376734D02*
X110805000Y-131225000D01*
X110805000Y-131225000D02*
X110405000Y-131625000D01*
X105005000Y-131650000D02*
X105230000Y-131425000D01*
X99055000Y-127375000D02*
X101530000Y-129850000D01*
X102230000Y-131650000D02*
X105005000Y-131650000D01*
X101530000Y-129850000D02*
X101530000Y-130950000D01*
X99055000Y-126750000D02*
X99055000Y-127375000D01*
X101530000Y-130950000D02*
X102230000Y-131650000D01*
D15*
%TO.N,Net-(C10-Pad2)*%
X108031138Y-123975000D02*
X108054519Y-123951619D01*
X101114315Y-123975000D02*
X108031138Y-123975000D01*
X100430000Y-122725000D02*
X100430000Y-123290685D01*
X100430000Y-123290685D02*
X101114315Y-123975000D01*
D18*
%TO.N,Net-(C11-Pad2)*%
X107305000Y-124600000D02*
X106955000Y-124600000D01*
X108016765Y-125311765D02*
X107305000Y-124600000D01*
D16*
%TO.N,+5V*%
X92166940Y-122885800D02*
X94155000Y-122885800D01*
X94155000Y-122885800D02*
X92244200Y-122885800D01*
D15*
X94155000Y-122885800D02*
X91019200Y-122885800D01*
X91019200Y-122885800D02*
X90580000Y-123325000D01*
D16*
X93480000Y-122210800D02*
X94155000Y-122885800D01*
X93530000Y-122260800D02*
X94155000Y-122885800D01*
X92399198Y-122885800D02*
X94155000Y-122885800D01*
D18*
X94155000Y-122885800D02*
X93119200Y-122885800D01*
D16*
X92519200Y-121250000D02*
X94155000Y-122885800D01*
X92355000Y-121250000D02*
X92519200Y-121250000D01*
D15*
%TO.N,SWDIO*%
X112205000Y-127323267D02*
X112205000Y-128950002D01*
X109454999Y-129325001D02*
X109055000Y-129725000D01*
X111830001Y-129325001D02*
X109454999Y-129325001D01*
X110805000Y-125923267D02*
X112205000Y-127323267D01*
X112205000Y-128950002D02*
X111830001Y-129325001D01*
%TO.N,SWDCLK*%
X108919805Y-124381729D02*
X108919805Y-127085195D01*
X109605000Y-123696534D02*
X108919805Y-124381729D01*
X110805000Y-123696534D02*
X109605000Y-123696534D01*
D16*
%TO.N,D+*%
X98828900Y-127723900D02*
X97778900Y-127723900D01*
X101055000Y-131000000D02*
X101055000Y-129950000D01*
X101055000Y-129950000D02*
X98828900Y-127723900D01*
D15*
%TO.N,D-*%
X91948898Y-125375000D02*
X94655000Y-125375000D01*
X90580000Y-126743898D02*
X91948898Y-125375000D01*
X90580000Y-128325000D02*
X90580000Y-126743898D01*
%TD*%
D19*
%TO.N,GND*%
G36*
X116280919Y-131340000D02*
G01*
X112403880Y-131340000D01*
X112430812Y-131251216D01*
X112443072Y-131126734D01*
X112443072Y-129751376D01*
X112699187Y-129495261D01*
X112727238Y-129472240D01*
X112819087Y-129360322D01*
X112866168Y-129272240D01*
X112887337Y-129232636D01*
X112929365Y-129094087D01*
X112943556Y-128950002D01*
X112940000Y-128913897D01*
X112940000Y-127359372D01*
X112943556Y-127323267D01*
X112929365Y-127179181D01*
X112900114Y-127082754D01*
X112887337Y-127040634D01*
X112819087Y-126912947D01*
X112755116Y-126834999D01*
X112750253Y-126829073D01*
X112750250Y-126829070D01*
X112727237Y-126801029D01*
X112699197Y-126778017D01*
X112443072Y-126521892D01*
X112443072Y-125173267D01*
X112430812Y-125048785D01*
X112394502Y-124929087D01*
X112335537Y-124818773D01*
X112328256Y-124809901D01*
X112335537Y-124801028D01*
X112394502Y-124690714D01*
X112430812Y-124571016D01*
X112443072Y-124446534D01*
X112443072Y-122946534D01*
X112430812Y-122822052D01*
X112394502Y-122702354D01*
X112335537Y-122592040D01*
X112256185Y-122495349D01*
X112159494Y-122415997D01*
X112049180Y-122357032D01*
X111929482Y-122320722D01*
X111805000Y-122308462D01*
X109805000Y-122308462D01*
X109680518Y-122320722D01*
X109560820Y-122357032D01*
X109450506Y-122415997D01*
X109353815Y-122495349D01*
X109274463Y-122592040D01*
X109215498Y-122702354D01*
X109179188Y-122822052D01*
X109166928Y-122946534D01*
X109166928Y-123105223D01*
X109082762Y-123174296D01*
X109059746Y-123202341D01*
X108903231Y-123358856D01*
X108858456Y-123291845D01*
X108714293Y-123147682D01*
X108544775Y-123034414D01*
X108356417Y-122956393D01*
X108156458Y-122916619D01*
X107952580Y-122916619D01*
X107752621Y-122956393D01*
X107564263Y-123034414D01*
X107394745Y-123147682D01*
X107302427Y-123240000D01*
X105273217Y-123240000D01*
X105289774Y-123228937D01*
X105433937Y-123084774D01*
X105547205Y-122915256D01*
X105625226Y-122726898D01*
X105665000Y-122526939D01*
X105665000Y-122323061D01*
X105625226Y-122123102D01*
X105547205Y-121934744D01*
X105433937Y-121765226D01*
X105289774Y-121621063D01*
X105120256Y-121507795D01*
X104931898Y-121429774D01*
X104731939Y-121390000D01*
X104669801Y-121390000D01*
X104639801Y-121360000D01*
X116325078Y-121360000D01*
X116280919Y-131340000D01*
G37*
X116280919Y-131340000D02*
X112403880Y-131340000D01*
X112430812Y-131251216D01*
X112443072Y-131126734D01*
X112443072Y-129751376D01*
X112699187Y-129495261D01*
X112727238Y-129472240D01*
X112819087Y-129360322D01*
X112866168Y-129272240D01*
X112887337Y-129232636D01*
X112929365Y-129094087D01*
X112943556Y-128950002D01*
X112940000Y-128913897D01*
X112940000Y-127359372D01*
X112943556Y-127323267D01*
X112929365Y-127179181D01*
X112900114Y-127082754D01*
X112887337Y-127040634D01*
X112819087Y-126912947D01*
X112755116Y-126834999D01*
X112750253Y-126829073D01*
X112750250Y-126829070D01*
X112727237Y-126801029D01*
X112699197Y-126778017D01*
X112443072Y-126521892D01*
X112443072Y-125173267D01*
X112430812Y-125048785D01*
X112394502Y-124929087D01*
X112335537Y-124818773D01*
X112328256Y-124809901D01*
X112335537Y-124801028D01*
X112394502Y-124690714D01*
X112430812Y-124571016D01*
X112443072Y-124446534D01*
X112443072Y-122946534D01*
X112430812Y-122822052D01*
X112394502Y-122702354D01*
X112335537Y-122592040D01*
X112256185Y-122495349D01*
X112159494Y-122415997D01*
X112049180Y-122357032D01*
X111929482Y-122320722D01*
X111805000Y-122308462D01*
X109805000Y-122308462D01*
X109680518Y-122320722D01*
X109560820Y-122357032D01*
X109450506Y-122415997D01*
X109353815Y-122495349D01*
X109274463Y-122592040D01*
X109215498Y-122702354D01*
X109179188Y-122822052D01*
X109166928Y-122946534D01*
X109166928Y-123105223D01*
X109082762Y-123174296D01*
X109059746Y-123202341D01*
X108903231Y-123358856D01*
X108858456Y-123291845D01*
X108714293Y-123147682D01*
X108544775Y-123034414D01*
X108356417Y-122956393D01*
X108156458Y-122916619D01*
X107952580Y-122916619D01*
X107752621Y-122956393D01*
X107564263Y-123034414D01*
X107394745Y-123147682D01*
X107302427Y-123240000D01*
X105273217Y-123240000D01*
X105289774Y-123228937D01*
X105433937Y-123084774D01*
X105547205Y-122915256D01*
X105625226Y-122726898D01*
X105665000Y-122526939D01*
X105665000Y-122323061D01*
X105625226Y-122123102D01*
X105547205Y-121934744D01*
X105433937Y-121765226D01*
X105289774Y-121621063D01*
X105120256Y-121507795D01*
X104931898Y-121429774D01*
X104731939Y-121390000D01*
X104669801Y-121390000D01*
X104639801Y-121360000D01*
X116325078Y-121360000D01*
X116280919Y-131340000D01*
G36*
X99626063Y-123384774D02*
G01*
X99718513Y-123477224D01*
X99747663Y-123573318D01*
X99815914Y-123701005D01*
X99907763Y-123812923D01*
X99935808Y-123835939D01*
X100569061Y-124469193D01*
X100592077Y-124497238D01*
X100684467Y-124573061D01*
X100703995Y-124589087D01*
X100831681Y-124657337D01*
X100970230Y-124699365D01*
X101114315Y-124713556D01*
X101150420Y-124710000D01*
X105972583Y-124710000D01*
X106007853Y-124887314D01*
X106082104Y-125066572D01*
X106189901Y-125227901D01*
X106327099Y-125365099D01*
X106488428Y-125472896D01*
X106667686Y-125547147D01*
X106857986Y-125585000D01*
X107052014Y-125585000D01*
X107066254Y-125582167D01*
X107069618Y-125599079D01*
X107143869Y-125778337D01*
X107251666Y-125939666D01*
X107388864Y-126076864D01*
X107550193Y-126184661D01*
X107729451Y-126258912D01*
X107919751Y-126296765D01*
X108113779Y-126296765D01*
X108184806Y-126282637D01*
X108184806Y-126356483D01*
X108115868Y-126425421D01*
X108002600Y-126594939D01*
X107924579Y-126783297D01*
X107884805Y-126983256D01*
X107884805Y-127187134D01*
X107924579Y-127387093D01*
X108002600Y-127575451D01*
X108115868Y-127744969D01*
X108260031Y-127889132D01*
X108429549Y-128002400D01*
X108617907Y-128080421D01*
X108817866Y-128120195D01*
X109021744Y-128120195D01*
X109221703Y-128080421D01*
X109360329Y-128023000D01*
X110678000Y-128023000D01*
X110678000Y-128003000D01*
X110932000Y-128003000D01*
X110932000Y-128023000D01*
X110952000Y-128023000D01*
X110952000Y-128277000D01*
X110932000Y-128277000D01*
X110932000Y-128297000D01*
X110678000Y-128297000D01*
X110678000Y-128277000D01*
X109328750Y-128277000D01*
X109170000Y-128435750D01*
X109168618Y-128644668D01*
X109083806Y-128690000D01*
X108953061Y-128690000D01*
X108753102Y-128729774D01*
X108564744Y-128807795D01*
X108395226Y-128921063D01*
X108251063Y-129065226D01*
X108137795Y-129234744D01*
X108059774Y-129423102D01*
X108020000Y-129623061D01*
X108020000Y-129826939D01*
X108059774Y-130026898D01*
X108137795Y-130215256D01*
X108251063Y-130384774D01*
X108395226Y-130528937D01*
X108564744Y-130642205D01*
X108753102Y-130720226D01*
X108953061Y-130760000D01*
X109156939Y-130760000D01*
X109166928Y-130758013D01*
X109166928Y-130865000D01*
X106100604Y-130865000D01*
X106033937Y-130765226D01*
X105889774Y-130621063D01*
X105720256Y-130507795D01*
X105531898Y-130429774D01*
X105331939Y-130390000D01*
X105128061Y-130390000D01*
X104928102Y-130429774D01*
X104739744Y-130507795D01*
X104570226Y-130621063D01*
X104426063Y-130765226D01*
X104342692Y-130890000D01*
X102544802Y-130890000D01*
X102290000Y-130635198D01*
X102290000Y-129887333D01*
X102293677Y-129850000D01*
X102279003Y-129701014D01*
X102235546Y-129557753D01*
X102164974Y-129425724D01*
X102093799Y-129338997D01*
X102070001Y-129309999D01*
X102041004Y-129286202D01*
X99978898Y-127224097D01*
X100050226Y-127051898D01*
X100090000Y-126851939D01*
X100090000Y-126648061D01*
X100050226Y-126448102D01*
X99972205Y-126259744D01*
X99858937Y-126090226D01*
X99714774Y-125946063D01*
X99545256Y-125832795D01*
X99356898Y-125754774D01*
X99156939Y-125715000D01*
X98953061Y-125715000D01*
X98793072Y-125746824D01*
X98793072Y-125710000D01*
X98881939Y-125710000D01*
X99081898Y-125670226D01*
X99270256Y-125592205D01*
X99439774Y-125478937D01*
X99583937Y-125334774D01*
X99697205Y-125165256D01*
X99775226Y-124976898D01*
X99815000Y-124776939D01*
X99815000Y-124573061D01*
X99775226Y-124373102D01*
X99697205Y-124184744D01*
X99583937Y-124015226D01*
X99540000Y-123971289D01*
X99540000Y-123354006D01*
X99572752Y-123304988D01*
X99626063Y-123384774D01*
G37*
X99626063Y-123384774D02*
X99718513Y-123477224D01*
X99747663Y-123573318D01*
X99815914Y-123701005D01*
X99907763Y-123812923D01*
X99935808Y-123835939D01*
X100569061Y-124469193D01*
X100592077Y-124497238D01*
X100684467Y-124573061D01*
X100703995Y-124589087D01*
X100831681Y-124657337D01*
X100970230Y-124699365D01*
X101114315Y-124713556D01*
X101150420Y-124710000D01*
X105972583Y-124710000D01*
X106007853Y-124887314D01*
X106082104Y-125066572D01*
X106189901Y-125227901D01*
X106327099Y-125365099D01*
X106488428Y-125472896D01*
X106667686Y-125547147D01*
X106857986Y-125585000D01*
X107052014Y-125585000D01*
X107066254Y-125582167D01*
X107069618Y-125599079D01*
X107143869Y-125778337D01*
X107251666Y-125939666D01*
X107388864Y-126076864D01*
X107550193Y-126184661D01*
X107729451Y-126258912D01*
X107919751Y-126296765D01*
X108113779Y-126296765D01*
X108184806Y-126282637D01*
X108184806Y-126356483D01*
X108115868Y-126425421D01*
X108002600Y-126594939D01*
X107924579Y-126783297D01*
X107884805Y-126983256D01*
X107884805Y-127187134D01*
X107924579Y-127387093D01*
X108002600Y-127575451D01*
X108115868Y-127744969D01*
X108260031Y-127889132D01*
X108429549Y-128002400D01*
X108617907Y-128080421D01*
X108817866Y-128120195D01*
X109021744Y-128120195D01*
X109221703Y-128080421D01*
X109360329Y-128023000D01*
X110678000Y-128023000D01*
X110678000Y-128003000D01*
X110932000Y-128003000D01*
X110932000Y-128023000D01*
X110952000Y-128023000D01*
X110952000Y-128277000D01*
X110932000Y-128277000D01*
X110932000Y-128297000D01*
X110678000Y-128297000D01*
X110678000Y-128277000D01*
X109328750Y-128277000D01*
X109170000Y-128435750D01*
X109168618Y-128644668D01*
X109083806Y-128690000D01*
X108953061Y-128690000D01*
X108753102Y-128729774D01*
X108564744Y-128807795D01*
X108395226Y-128921063D01*
X108251063Y-129065226D01*
X108137795Y-129234744D01*
X108059774Y-129423102D01*
X108020000Y-129623061D01*
X108020000Y-129826939D01*
X108059774Y-130026898D01*
X108137795Y-130215256D01*
X108251063Y-130384774D01*
X108395226Y-130528937D01*
X108564744Y-130642205D01*
X108753102Y-130720226D01*
X108953061Y-130760000D01*
X109156939Y-130760000D01*
X109166928Y-130758013D01*
X109166928Y-130865000D01*
X106100604Y-130865000D01*
X106033937Y-130765226D01*
X105889774Y-130621063D01*
X105720256Y-130507795D01*
X105531898Y-130429774D01*
X105331939Y-130390000D01*
X105128061Y-130390000D01*
X104928102Y-130429774D01*
X104739744Y-130507795D01*
X104570226Y-130621063D01*
X104426063Y-130765226D01*
X104342692Y-130890000D01*
X102544802Y-130890000D01*
X102290000Y-130635198D01*
X102290000Y-129887333D01*
X102293677Y-129850000D01*
X102279003Y-129701014D01*
X102235546Y-129557753D01*
X102164974Y-129425724D01*
X102093799Y-129338997D01*
X102070001Y-129309999D01*
X102041004Y-129286202D01*
X99978898Y-127224097D01*
X100050226Y-127051898D01*
X100090000Y-126851939D01*
X100090000Y-126648061D01*
X100050226Y-126448102D01*
X99972205Y-126259744D01*
X99858937Y-126090226D01*
X99714774Y-125946063D01*
X99545256Y-125832795D01*
X99356898Y-125754774D01*
X99156939Y-125715000D01*
X98953061Y-125715000D01*
X98793072Y-125746824D01*
X98793072Y-125710000D01*
X98881939Y-125710000D01*
X99081898Y-125670226D01*
X99270256Y-125592205D01*
X99439774Y-125478937D01*
X99583937Y-125334774D01*
X99697205Y-125165256D01*
X99775226Y-124976898D01*
X99815000Y-124776939D01*
X99815000Y-124573061D01*
X99775226Y-124373102D01*
X99697205Y-124184744D01*
X99583937Y-124015226D01*
X99540000Y-123971289D01*
X99540000Y-123354006D01*
X99572752Y-123304988D01*
X99626063Y-123384774D01*
G36*
X100295001Y-130264803D02*
G01*
X100295001Y-130288929D01*
X100286761Y-130294435D01*
X100149563Y-130431633D01*
X100041766Y-130592962D01*
X99967515Y-130772220D01*
X99955475Y-130832750D01*
X99941508Y-130811728D01*
X99935634Y-130804627D01*
X99885454Y-130744825D01*
X99842705Y-130702963D01*
X99800567Y-130660529D01*
X99793426Y-130654705D01*
X99732585Y-130605788D01*
X99682569Y-130573058D01*
X99632941Y-130539583D01*
X99624804Y-130535257D01*
X99555622Y-130499088D01*
X99500158Y-130476679D01*
X99445008Y-130453496D01*
X99436186Y-130450833D01*
X99361296Y-130428792D01*
X99302518Y-130417580D01*
X99243938Y-130405555D01*
X99234767Y-130404656D01*
X99157021Y-130397581D01*
X99097206Y-130397999D01*
X99037390Y-130397581D01*
X99028219Y-130398480D01*
X98950581Y-130406640D01*
X98891984Y-130418669D01*
X98833222Y-130429878D01*
X98824400Y-130432542D01*
X98791231Y-130442810D01*
X98790000Y-130156550D01*
X98631250Y-129997800D01*
X94282000Y-129997800D01*
X94282000Y-130017800D01*
X94028000Y-130017800D01*
X94028000Y-129997800D01*
X94008000Y-129997800D01*
X94008000Y-129743800D01*
X94028000Y-129743800D01*
X94028000Y-129723800D01*
X94282000Y-129723800D01*
X94282000Y-129743800D01*
X98631250Y-129743800D01*
X98790000Y-129585050D01*
X98793072Y-128870800D01*
X98781281Y-128751082D01*
X100295001Y-130264803D01*
G37*
X100295001Y-130264803D02*
X100295001Y-130288929D01*
X100286761Y-130294435D01*
X100149563Y-130431633D01*
X100041766Y-130592962D01*
X99967515Y-130772220D01*
X99955475Y-130832750D01*
X99941508Y-130811728D01*
X99935634Y-130804627D01*
X99885454Y-130744825D01*
X99842705Y-130702963D01*
X99800567Y-130660529D01*
X99793426Y-130654705D01*
X99732585Y-130605788D01*
X99682569Y-130573058D01*
X99632941Y-130539583D01*
X99624804Y-130535257D01*
X99555622Y-130499088D01*
X99500158Y-130476679D01*
X99445008Y-130453496D01*
X99436186Y-130450833D01*
X99361296Y-130428792D01*
X99302518Y-130417580D01*
X99243938Y-130405555D01*
X99234767Y-130404656D01*
X99157021Y-130397581D01*
X99097206Y-130397999D01*
X99037390Y-130397581D01*
X99028219Y-130398480D01*
X98950581Y-130406640D01*
X98891984Y-130418669D01*
X98833222Y-130429878D01*
X98824400Y-130432542D01*
X98791231Y-130442810D01*
X98790000Y-130156550D01*
X98631250Y-129997800D01*
X94282000Y-129997800D01*
X94282000Y-130017800D01*
X94028000Y-130017800D01*
X94028000Y-129997800D01*
X94008000Y-129997800D01*
X94008000Y-129743800D01*
X94028000Y-129743800D01*
X94028000Y-129723800D01*
X94282000Y-129723800D01*
X94282000Y-129743800D01*
X98631250Y-129743800D01*
X98790000Y-129585050D01*
X98793072Y-128870800D01*
X98781281Y-128751082D01*
X100295001Y-130264803D01*
G36*
X103595000Y-122464801D02*
G01*
X103595000Y-122526939D01*
X103634774Y-122726898D01*
X103712795Y-122915256D01*
X103826063Y-123084774D01*
X103970226Y-123228937D01*
X103986783Y-123240000D01*
X101418762Y-123240000D01*
X101360916Y-123182155D01*
X101425226Y-123026898D01*
X101465000Y-122826939D01*
X101465000Y-122623061D01*
X101432565Y-122460000D01*
X103590199Y-122460000D01*
X103595000Y-122464801D01*
G37*
X103595000Y-122464801D02*
X103595000Y-122526939D01*
X103634774Y-122726898D01*
X103712795Y-122915256D01*
X103826063Y-123084774D01*
X103970226Y-123228937D01*
X103986783Y-123240000D01*
X101418762Y-123240000D01*
X101360916Y-123182155D01*
X101425226Y-123026898D01*
X101465000Y-122826939D01*
X101465000Y-122623061D01*
X101432565Y-122460000D01*
X103590199Y-122460000D01*
X103595000Y-122464801D01*
%TD*%
M02*
