M48
; DRILL file {KiCad (5.1.8)-1} date 12/26/20 13:36:37
; FORMAT={-:-/ absolute / metric / decimal}
; #@! TF.CreationDate,2020-12-26T13:36:37+08:00
; #@! TF.GenerationSoftware,Kicad,Pcbnew,(5.1.8)-1
FMAT,2
METRIC
T1C0.300
T2C0.400
T3C0.500
%
G90
G05
T1
X117.313Y-125.856
X118.953Y-114.656
X119.343Y-122.266
X119.903Y-118.816
X121.113Y-113.946
X121.223Y-125.576
X121.333Y-120.696
X121.893Y-114.546
X123.183Y-118.136
X123.283Y-125.616
X124.583Y-119.716
X124.583Y-120.853
X124.583Y-121.99
X124.583Y-123.126
X125.533Y-117.396
X125.763Y-119.716
X125.763Y-120.853
X125.763Y-121.99
X125.763Y-123.126
X126.899Y-119.716
X126.899Y-120.853
X126.899Y-121.99
X126.899Y-123.126
X128.123Y-119.716
X128.123Y-120.853
X128.123Y-121.99
X128.123Y-123.126
X129.283Y-117.551
X129.283Y-126.586
X130.373Y-125.096
X130.443Y-126.136
X130.553Y-117.666
X133.673Y-126.156
X133.703Y-123.726
X134.853Y-124.646
X134.919Y-127.196
X135.083Y-113.986
X135.253Y-119.716
X135.653Y-125.476
X136.166Y-127.196
X136.243Y-114.546
X136.283Y-119.736
X137.273Y-119.756
X137.413Y-127.196
X138.223Y-114.336
X138.223Y-115.412
X138.223Y-116.487
X138.223Y-117.563
X138.223Y-118.639
X138.223Y-119.714
X138.223Y-120.79
X138.223Y-121.865
X138.223Y-122.941
X138.223Y-124.016
X138.423Y-128.526
X138.313Y-127.316
T2
X115.804Y-112.448
X115.804Y-128.831
T3
G00X136.228Y-112.116
M15
G01X136.228Y-111.816
M16
G05
G00X137.498Y-112.116
M15
G01X137.498Y-111.816
M16
G05
G00X115.663Y-113.726
M15
G01X115.363Y-113.726
M16
G05
G00X115.663Y-114.996
M15
G01X115.363Y-114.996
M16
G05
G00X115.663Y-116.266
M15
G01X115.363Y-116.266
M16
G05
G00X115.663Y-117.536
M15
G01X115.363Y-117.536
M16
G05
G00X115.663Y-118.806
M15
G01X115.363Y-118.806
M16
G05
G00X115.663Y-120.076
M15
G01X115.363Y-120.076
M16
G05
G00X115.663Y-121.346
M15
G01X115.363Y-121.346
M16
G05
G00X115.663Y-122.616
M15
G01X115.363Y-122.616
M16
G05
G00X115.663Y-123.886
M15
G01X115.363Y-123.886
M16
G05
G00X115.663Y-125.156
M15
G01X115.363Y-125.156
M16
G05
G00X115.663Y-126.426
M15
G01X115.363Y-126.426
M16
G05
G00X115.663Y-127.696
M15
G01X115.363Y-127.696
M16
G05
G00X117.173Y-111.916
M15
G01X117.173Y-112.216
M16
G05
G00X118.443Y-111.916
M15
G01X118.443Y-112.216
M16
G05
G00X119.713Y-111.916
M15
G01X119.713Y-112.216
M16
G05
G00X120.983Y-111.916
M15
G01X120.983Y-112.216
M16
G05
G00X122.253Y-111.916
M15
G01X122.253Y-112.216
M16
G05
G00X123.523Y-111.916
M15
G01X123.523Y-112.216
M16
G05
G00X124.793Y-111.916
M15
G01X124.793Y-112.216
M16
G05
G00X126.063Y-111.916
M15
G01X126.063Y-112.216
M16
G05
G00X127.333Y-111.916
M15
G01X127.333Y-112.216
M16
G05
G00X128.603Y-111.916
M15
G01X128.603Y-112.216
M16
G05
G00X129.873Y-111.916
M15
G01X129.873Y-112.216
M16
G05
G00X131.143Y-111.916
M15
G01X131.143Y-112.216
M16
G05
G00X132.413Y-111.916
M15
G01X132.413Y-112.216
M16
G05
G00X133.683Y-111.916
M15
G01X133.683Y-112.216
M16
G05
G00X136.228Y-129.616
M15
G01X136.228Y-129.316
M16
G05
G00X137.498Y-129.616
M15
G01X137.498Y-129.316
M16
G05
G00X117.173Y-129.216
M15
G01X117.173Y-129.516
M16
G05
G00X118.443Y-129.216
M15
G01X118.443Y-129.516
M16
G05
G00X119.713Y-129.216
M15
G01X119.713Y-129.516
M16
G05
G00X120.983Y-129.216
M15
G01X120.983Y-129.516
M16
G05
G00X122.253Y-129.216
M15
G01X122.253Y-129.516
M16
G05
G00X123.523Y-129.216
M15
G01X123.523Y-129.516
M16
G05
G00X124.793Y-129.216
M15
G01X124.793Y-129.516
M16
G05
G00X126.063Y-129.216
M15
G01X126.063Y-129.516
M16
G05
G00X127.333Y-129.216
M15
G01X127.333Y-129.516
M16
G05
G00X128.603Y-129.216
M15
G01X128.603Y-129.516
M16
G05
G00X129.873Y-129.216
M15
G01X129.873Y-129.516
M16
G05
G00X131.143Y-129.216
M15
G01X131.143Y-129.516
M16
G05
G00X132.413Y-129.216
M15
G01X132.413Y-129.516
M16
G05
G00X133.683Y-129.216
M15
G01X133.683Y-129.516
M16
G05
T0
M30
